<?xml version="1.0" encoding="utf-8"?>
<!-- Generator: Adobe Illustrator 27.5.0, SVG Export Plug-In . SVG Version: 6.00 Build 0)  -->
<svg version="1.1" id="Layer_1" xmlns="http://www.w3.org/2000/svg" xmlns:xlink="http://www.w3.org/1999/xlink" x="0px" y="0px"
	 viewBox="0 0 685 523.2" style="enable-background:new 0 0 685 523.2;" xml:space="preserve">
<style type="text/css">
	.st0{fill:none;}
	.st1{fill-rule:evenodd;clip-rule:evenodd;fill:#E3F3FD;}
	.st2{fill:#C3E5F3;}
	.st3{fill:#252626;}
	.st4{fill:#0C0E0E;}
	.st5{fill:#FFFFFF;}
	.st6{fill:#0076BD;}
	.st7{fill:#05304B;}
	.st8{fill:#15546D;}
	.st9{opacity:0.8;fill:#FFFFFF;enable-background:new    ;}
	.st10{fill:#026A9E;}
	.st11{fill:#F4F4F4;}
	.st12{fill:#D3E5F4;}
	.st13{fill:#F47458;}
	.st14{fill:#466EB6;}
	.st15{fill:#50BFA5;}
	.st16{fill:#118ECC;}
	.st17{fill:#E3F3FD;}
	.st18{fill:#0B405B;}
	.st19{fill:#DAEEF7;}
	.st20{fill:#13375B;}
	.st21{fill:#0E2E35;}
	.st22{opacity:0.6;fill:#C5DDF9;enable-background:new    ;}
	.st23{fill:#184655;}
	.st24{opacity:0.5;fill:#50BFA5;enable-background:new    ;}
	.st25{fill-rule:evenodd;clip-rule:evenodd;fill:#00000F;}
	.st26{fill-rule:evenodd;clip-rule:evenodd;fill:#030822;}
	.st27{fill-rule:evenodd;clip-rule:evenodd;fill:#0B1329;}
	.st28{fill-rule:evenodd;clip-rule:evenodd;fill:#01051D;}
	.st29{fill:#FFA898;}
	.st30{fill:#DB5B4D;}
	.st31{fill-rule:evenodd;clip-rule:evenodd;fill:#DF7668;}
	.st32{opacity:0.4;fill:#DF7668;enable-background:new    ;}
	.st33{fill:#200903;}
	.st34{fill:#F9C7C0;}
	.st35{fill:#DF7668;}
	.st36{fill:#212741;}
	.st37{clip-path:url(#SVGID_00000121238174115398976550000017947402958463856018_);}
	.st38{opacity:0.21;fill:#231F20;enable-background:new    ;}
	.st39{opacity:0.66;fill:#FFFFFF;enable-background:new    ;}
	.st40{clip-path:url(#SVGID_00000160149612926915803860000012075070138272737435_);}
	.st41{fill-rule:evenodd;clip-rule:evenodd;fill:#141A33;}
	.st42{fill-rule:evenodd;clip-rule:evenodd;fill:#272C45;}
	.st43{fill-rule:evenodd;clip-rule:evenodd;fill:#212741;}
	.st44{fill-rule:evenodd;clip-rule:evenodd;fill:#2C3049;}
	.st45{opacity:0.43;fill:#99D7E0;enable-background:new    ;}
	.st46{opacity:0.68;fill:#DCEEEF;enable-background:new    ;}
	.st47{fill:#8E3A2D;}
	.st48{fill:#D88460;}
	.st49{fill:#2A0404;}
	.st50{fill:#A55641;}
	.st51{fill-rule:evenodd;clip-rule:evenodd;fill:#A55641;}
	.st52{opacity:0.4;fill:url(#SVGID_00000041273404010595192310000002231084461481177269_);enable-background:new    ;}
	.st53{opacity:0.4;fill:url(#SVGID_00000095340716155375114930000002577958285664419503_);enable-background:new    ;}
	.st54{opacity:0.4;fill:url(#SVGID_00000136401286842595715740000012182283059914540727_);enable-background:new    ;}
	.st55{opacity:0.42;fill:#E98C4D;enable-background:new    ;}
	.st56{fill:#0E1632;}
	.st57{opacity:0.2;fill:#320033;enable-background:new    ;}
	.st58{opacity:0.45;fill:#CA6633;enable-background:new    ;}
	.st59{opacity:0.45;fill:#E98C4D;enable-background:new    ;}
	.st60{fill:#DA774E;}
	.st61{opacity:0.45;fill:#6C293E;enable-background:new    ;}
	.st62{fill:#3F3632;}
	.st63{clip-path:url(#SVGID_00000158005126050555588230000010521730830954027966_);}
	.st64{fill:#F28B60;}
	.st65{fill-rule:evenodd;clip-rule:evenodd;fill:#01020E;}
	.st66{fill-rule:evenodd;clip-rule:evenodd;fill:#0E1632;}
</style>
<g>
	<g id="Layer_2_00000126311537382660028040000009250587825276556219_">
		<g id="OBJECTS">
			<rect y="38" class="st0" width="685" height="485.2"/>
			<path class="st1" d="M141.9,479.7c-38.7-0.1-70.1-31.5-70.2-70.2l0,0c0.1-38.7,31.5-70.1,70.2-70.2l0,0
				c16.4,0,29.6-13.3,29.7-29.7l0,0c-0.1-16.4-13.3-29.6-29.7-29.6h-3.5c-17-0.1-30.8-13.8-30.9-30.9l0,0
				c0.1-17,13.8-30.8,30.9-30.9h10.8c6.6,0,12-5.4,12-12l0,0c0-6.6-5.4-12-12-12h-8c-4.6,0-8.3-3.7-8.3-8.3l0,0
				c0-4.6,3.7-8.3,8.3-8.3h53.5c7.2,0,13-5.8,13-13l0,0c0-7.2-5.8-13-13-13h-16c-4.6,0-8.3-3.7-8.3-8.3l0,0c0-4.6,3.6-8.4,8.2-8.4
				c0,0,0.1,0,0.1,0h234.4c6,0,10.8,4.8,10.9,10.8l0,0c0,6-4.9,10.8-10.8,10.8h-16.4c-9.4,0-17,7.6-17,17l0,0c0,9.4,7.6,17,17,17
				h63.5c6,0,10.8,4.9,10.8,10.8l0,0c0,6-4.9,10.8-10.8,10.8h-10.4c-8.7,0-15.7,7-15.7,15.7l0,0c0,8.7,7,15.7,15.7,15.7H464
				c22.2,0.1,40.2,18.1,40.3,40.3l0,0c-0.1,22.2-18.1,40.2-40.3,40.3h-4.6c-21.4,0.1-38.7,17.4-38.7,38.7l0,0
				c0.1,21.4,17.4,38.7,38.7,38.7h10c21.5,0.1,39,17.5,39,39l0,0c-0.1,21.5-17.5,39-39,39H141.9z M440.9,156.6
				c6,0,10.8-4.9,10.8-10.9c0-6-4.9-10.8-10.9-10.8c-6,0-10.8,4.9-10.8,10.8C430,151.8,434.8,156.6,440.9,156.6L440.9,156.6
				L440.9,156.6z M117.9,194.2c4.6,0,8.3-3.7,8.3-8.3c0-4.6-3.7-8.3-8.3-8.3c-4.6,0-8.3,3.7-8.3,8.3l0,0
				C109.7,190.5,113.4,194.2,117.9,194.2z"/>
			<path class="st2" d="M552,305.4l-0.8,174.1l107.4,0.5L552,305.4z M605.4,412.4l-44.3-0.2l0.3-74L605.4,412.4z M561.1,418
				l47.8,0.2l30.2,50.9l-78.1-0.4L561.1,418z"/>
			<path class="st3" d="M141.9,153.8h393c9.6,0,17.4,7.8,17.4,17.4v235.2c0,6.8-4.5,12.2-10,12.2H373.7v48.3h99.9
				c7.5,0,13.5,6.1,13.5,13.5H191.8c0-7.5,6.1-13.5,13.5-13.5h99.9v-48.3H134.5c-5.5,0-10-5.5-10-12.2V171.2
				C124.5,161.6,132.3,153.8,141.9,153.8C141.9,153.8,141.9,153.8,141.9,153.8z"/>
			<path class="st4" d="M196,466.9h100v-57.1h68.4v57.1h99.9c7.5,0,13.5,6.1,13.5,13.5H182.5C182.5,473,188.6,466.9,196,466.9z"/>
			<path class="st4" d="M115.2,373.9V171.2c0-9.6,7.8-17.4,17.4-17.4l0,0h393c9.6,0,17.4,7.8,17.4,17.4l0,0v202.7H115.2z"/>
			<path class="st4" d="M543.1,373.9v32.5c0,6.8-4.5,12.2-10,12.2H125.1c-5.5,0-10-5.5-10-12.2v-32.5H543.1z"/>
			<path class="st5" d="M125.2,365.1V171.8c0.1-5.2,4.3-9.3,9.5-9.2h388.8c5.2-0.1,9.4,4,9.5,9.2v193.4H125.2z"/>
			<path class="st6" d="M446.9,92.3h113.4c3.9,0,7.1,3.2,7.1,7.1c0,0,0,0,0,0v80.8c0,3.9-3.2,7.1-7.1,7.1c0,0,0,0,0,0H471
				c-3.6,5.1-10.2,14.1-10.7,14.1s0.5-8.6,1.2-14.1h-14.6c-3.9,0-7.1-3.2-7.1-7.1c0,0,0,0,0,0V99.4C439.8,95.5,443,92.3,446.9,92.3
				L446.9,92.3z"/>
			<polygon class="st7" points="479.7,153.5 478.2,153 490.4,120.8 526.6,132.4 544.2,106.5 545.5,107.4 527.3,134.2 491.4,122.8 
							"/>
			<circle class="st8" cx="475.3" cy="158.3" r="13.9"/>
			<circle class="st8" cx="527.3" cy="134.5" r="9"/>
			<ellipse transform="matrix(0.9558 -0.294 0.294 0.9558 -7.3716 164.9433)" class="st8" cx="544.9" cy="107" rx="3.1" ry="3.1"/>
			
				<ellipse transform="matrix(0.9558 -0.294 0.294 0.9558 -14.1245 149.7321)" class="st8" cx="490.9" cy="121.8" rx="7.5" ry="7.4"/>
			<rect x="498.8" y="152" class="st9" width="58.8" height="2.8"/>
			<rect x="498.8" y="160" class="st9" width="42.5" height="2.8"/>
			<rect x="448.3" y="102.6" class="st9" width="42.5" height="2.8"/>
			<rect x="448.3" y="110.5" class="st9" width="31" height="2.8"/>
			<rect x="498.8" y="167.9" class="st9" width="58.8" height="2.8"/>
			<path class="st6" d="M387,135.4h-86.3c-3,0-5.4,2.4-5.4,5.4v0v61.5c0,3,2.4,5.4,5.4,5.4l0,0h67.9c2.8,3.9,7.7,10.7,8.2,10.7
				s-0.4-6.5-0.9-10.7H387c3,0,5.4-2.4,5.4-5.4c0,0,0,0,0,0v-61.5C392.4,137.9,389.9,135.4,387,135.4L387,135.4z"/>
			<path class="st9" d="M366.5,163.6c-1.3-0.5-2.6-0.9-3.9-1.3c0.4-1.3,0.6-2.7,0.9-4c1-6-0.1-10.2-2.9-11.8s-6.9-0.4-11.7,3.4
				c-1.1,0.9-2.1,1.8-3.1,2.8c-1-1-2-1.9-3.1-2.8c-4.8-3.8-8.9-5.1-11.7-3.4s-3.8,5.8-2.9,11.8c0.2,1.3,0.5,2.7,0.9,4
				c-1.3,0.4-2.6,0.8-3.9,1.3c-5.7,2.2-8.8,5.2-8.8,8.4s3.1,6.2,8.8,8.4c1.3,0.5,2.6,0.9,3.9,1.3c-0.4,1.3-0.6,2.7-0.9,4
				c-1,6,0.1,10.2,2.9,11.8c0.8,0.5,1.8,0.7,2.7,0.7c2.5,0,5.6-1.4,9-4.1c1.1-0.9,2.1-1.8,3.1-2.8c1,1,2,1.9,3.1,2.8
				c3.4,2.7,6.5,4.1,9,4.1c1,0,1.9-0.2,2.7-0.7c2.8-1.6,3.8-5.8,2.9-11.8c-0.2-1.3-0.5-2.7-0.9-4c1.3-0.4,2.6-0.8,3.9-1.3
				c5.7-2.2,8.8-5.2,8.8-8.4S372.2,165.8,366.5,163.6z M349.6,150.8c3.2-2.6,6-3.9,8.3-3.9c0.8,0,1.5,0.2,2.1,0.5
				c2.3,1.3,3.2,5.2,2.3,10.7c-0.2,1.3-0.5,2.6-0.9,3.9c-3-0.7-6-1.2-9.1-1.5c-1.8-2.5-3.7-4.9-5.8-7.1
				C347.6,152.5,348.6,151.6,349.6,150.8z M355,177.3c-1,1.8-2.1,3.4-3.2,5.1c-1.9,0.2-3.9,0.2-6,0.2s-4-0.1-6-0.2
				c-1.1-1.6-2.2-3.3-3.2-5.1s-1.9-3.5-2.8-5.3c0.8-1.8,1.8-3.5,2.8-5.3s2.1-3.4,3.2-5.1c1.9-0.2,3.9-0.2,6-0.2s4,0.1,6,0.2
				c1.1,1.6,2.2,3.3,3.2,5.1s1.9,3.5,2.8,5.3C357,173.8,356.1,175.6,355,177.3L355,177.3z M358.4,173.3c1.1,2.5,2.1,5,2.8,7.6
				c-2.6,0.6-5.3,1.1-8,1.3c0.9-1.4,1.8-2.9,2.7-4.4C356.9,176.4,357.7,174.9,358.4,173.3L358.4,173.3z M351,183.6
				c-1.6,2.2-3.3,4.3-5.1,6.2c-1.9-2-3.6-4-5.1-6.2c1.7,0.1,3.4,0.2,5.1,0.2S349.3,183.7,351,183.6z M338.5,182.2
				c-2.7-0.3-5.4-0.7-8-1.3c0.8-2.6,1.7-5.1,2.8-7.6c0.7,1.5,1.5,3,2.4,4.5S337.5,180.8,338.5,182.2L338.5,182.2z M333.3,170.7
				c-1.1-2.5-2.1-5-2.8-7.6c2.6-0.6,5.3-1.1,8-1.3c-0.9,1.4-1.8,2.9-2.7,4.4C334.9,167.7,334.1,169.2,333.3,170.7L333.3,170.7z
				 M340.7,160.5c1.6-2.2,3.3-4.3,5.1-6.2c1.9,2,3.6,4,5.1,6.2c-1.7-0.1-3.4-0.2-5.1-0.2S342.4,160.4,340.7,160.5L340.7,160.5z
				 M356,166.2c-0.9-1.5-1.8-3-2.7-4.4c2.7,0.3,5.4,0.7,8,1.3c-0.8,2.6-1.7,5.1-2.8,7.6C357.7,169.2,356.9,167.7,356,166.2z
				 M329.4,158.2c-0.9-5.5,0-9.4,2.3-10.7c0.7-0.4,1.4-0.5,2.1-0.5c2.2,0,5.1,1.3,8.3,3.9c1,0.8,2,1.7,3,2.7
				c-2.1,2.2-4.1,4.6-5.8,7.1c-3.1,0.3-6.1,0.7-9.1,1.5C329.9,160.8,329.6,159.5,329.4,158.2L329.4,158.2z M325.6,179.4
				c-5.2-2-8.1-4.7-8.1-7.4s3-5.4,8.1-7.4c1.3-0.5,2.5-0.9,3.8-1.2c0.9,2.9,2,5.8,3.3,8.6c-1.3,2.8-2.4,5.7-3.3,8.6
				C328.1,180.3,326.9,179.9,325.6,179.4L325.6,179.4z M342.1,193.3c-4.3,3.5-8.1,4.7-10.4,3.4s-3.2-5.2-2.3-10.7
				c0.2-1.3,0.5-2.6,0.9-3.9c3,0.7,6,1.2,9.1,1.5c1.8,2.5,3.7,4.9,5.8,7.1C344.1,191.5,343.2,192.4,342.1,193.3L342.1,193.3z
				 M362.4,185.9c0.9,5.5,0,9.4-2.3,10.7s-6.1,0.1-10.4-3.4c-1-0.8-2-1.7-3-2.7c2.1-2.2,4.1-4.6,5.8-7.1c3.1-0.3,6.1-0.7,9.1-1.5
				C361.9,183.3,362.2,184.6,362.4,185.9L362.4,185.9z M366.1,179.4c-1.3,0.5-2.5,0.9-3.8,1.2c-0.9-3-2-5.9-3.3-8.7
				c1.3-2.8,2.4-5.6,3.3-8.6c1.3,0.3,2.6,0.8,3.8,1.2c5.2,2,8.1,4.7,8.1,7.4S371.3,177.4,366.1,179.4L366.1,179.4z"/>
			<circle class="st8" cx="345.9" cy="172" r="5.2"/>
			<circle class="st7" cx="324.8" cy="164.7" r="2.9"/>
			<rect x="300.6" y="140.8" class="st9" width="35.5" height="1.8"/>
			<rect x="300.6" y="146" class="st9" width="23.8" height="1.8"/>
			<rect x="300.6" y="151.2" class="st9" width="14.6" height="1.8"/>
			<rect x="301.9" y="192.8" class="st9" width="23.8" height="1.8"/>
			<rect x="301.9" y="198" class="st9" width="14.6" height="1.8"/>
			<path class="st6" d="M282.9,60.9c-17.8,8.8-16.7,36.1,1.7,42.9c3.3,1.3,6.1,3.8,7.7,7l5.9,11.1c1.5,3,5.2,4.3,8.2,2.8l6.7-3.3
				c3.1-1.6,4.5-5.2,3.4-8.5c-4.1-12-6.5-16.1-4.1-22.8C319.5,70.7,300.7,52.1,282.9,60.9z"/>
			<path class="st5" d="M309.2,106.4l-2.3,1c-0.1-0.4-4.3-11-8.6-23.8c-2.4,2.1-5,3.8-7.9,5.1c4.5,9.9,9.8,23.7,9.8,23.8l-2.3,1
				c0,0-5.4-13.9-9.8-23.8c-4.7,1.5-6.7-0.5-7.4-1.4c-1.1-1.6-1.2-3.7-0.1-5.3c1.7-2.4,5.8-1.9,8.8,3.5c3-1.3,5.8-3.2,8.2-5.4
				c-0.7-2.2-1.5-4.2-1.2-6.2c0.2-2,1.7-3.7,3.8-3.9c2.8-0.1,5.6,3.9,2.3,8.7c-0.6,0.8-1.2,1.6-1.9,2.3
				C304.8,95.4,308.9,105.6,309.2,106.4z M299.3,78.9c3-3.5,1.6-5.3,0.8-5.4C298.2,74.7,298.4,75.9,299.3,78.9L299.3,78.9z
				 M282.3,85.9c0.4,1.9,2.7,1.9,4.5,1.4C284.5,83.4,281.8,83.4,282.3,85.9L282.3,85.9z"/>
			<path class="st7" d="M292.2,110.6l0.2,0.3l5.9,11.1c1.5,3,5.2,4.3,8.2,2.8l6.7-3.3c3.1-1.6,4.5-5.2,3.4-8.5
				c-1.8-5.3-3.3-9.1-4.2-12.3L292.2,110.6z"/>
			<path class="st6" d="M324.6,54.5l-5.5,5c-1.4,1.3-3.3,3.7-5.4,3.7c-0.6,0-1-0.4-1-1c0.2-2.2,2.6-3.7,4.1-5l5.5-5
				C323.9,50.7,326.2,53.1,324.6,54.5L324.6,54.5z"/>
			<path class="st6" d="M304,40c-3.3,13.2-3.1,12.9-4,13.9c-0.6,0.5-1.5,0.5-2,0c-0.2-0.2-0.3-0.4-0.3-0.6
				c-0.3-1.2-0.2-0.9,3.2-14.1c0.3-0.8,1.2-1.3,2.1-1C303.6,38.4,304.1,39.2,304,40L304,40z"/>
			<path class="st6" d="M276.2,55l-4.2-6.2c-1.2-1.8-3.1-3.8-3.4-6.1c-0.1-1,1.1-1.5,1.9-1.1c2,1.1,3.1,3.8,4.3,5.6l4.1,6.2
				C280.2,55.2,277.3,56.8,276.2,55L276.2,55z"/>
			<path class="st6" d="M262.7,89c-3.5,1.5-7.1,2.8-10.7,3.9c-2,0.5-2.6-2.3-0.8-3c3.6-1.3,7.2-2.5,10.7-3.9
				C263.8,85.3,264.5,88.3,262.7,89L262.7,89z"/>
			<path class="st6" d="M263.1,71.6c-2.3-0.3-4.5-0.6-6.8-1c-2.1-0.3-4.7-0.3-6.4-1.6c-0.9-0.7-0.2-2,0.6-2.3
				c1.1-0.3,1.4-0.1,6.3,0.7c2.2,0.4,4.4,0.7,6.6,1.1C265.3,68.7,264.9,71.7,263.1,71.6L263.1,71.6z"/>
			<path class="st7" d="M269.4,274.2l14.4-34.3l-23.1-30.7l-37.2,4.3l-14.6,34.4l-36.8,4.3l-15,35.4l22.7,30.2l36.9-4.5l22.3,29.6
				l38.2-4.7l14.5-34.5L269.4,274.2z M224.4,214.8l35.6-4.1l22.2,29.5L268.4,273l0,0l-37.1,4.3l-21.4-28.5L224.4,214.8z
				 M158.5,287.4l14.4-34l35.6-4.1l22,29.3l-14.2,33.4l-36.2,4.4L158.5,287.4z M276.1,337l-36.6,4.5L218,312.9l14.2-33.9l35.8-4.4
				l22,29.2L276.1,337z"/>
			<circle class="st6" cx="260.5" cy="210.6" r="4.5"/>
			<circle class="st6" cx="172.7" cy="253.3" r="4.5"/>
			<circle class="st6" cx="282.2" cy="240.4" r="4.5"/>
			<circle class="st6" cx="290" cy="303.5" r="4.5"/>
			<circle class="st6" cx="239.2" cy="341.4" r="4.5"/>
			<circle class="st6" cx="231.3" cy="277.9" r="4.5"/>
			<circle class="st10" cx="272.6" cy="226" r="2.8"/>
			<circle class="st10" cx="209.3" cy="248.8" r="2.8"/>
			<circle class="st10" cx="268.4" cy="274.3" r="2.6"/>
			<circle class="st10" cx="157" cy="287.5" r="3.8"/>
			<path class="st6" d="M256.8,199.1v-17h1.9v7.3h8.5v-7.3h1.9v17h-1.9V191h-8.5v8.1L256.8,199.1z"/>
			<path class="st6" d="M298.9,312.3v-17h1.9v7.3h8.5v-7.3h1.9v17h-1.9v-8.1h-8.5v8.1H298.9z"/>
			<path class="st6" d="M271.6,205.5v-1.2c0.3-0.6,0.7-1.3,1.1-1.8c0.5-0.6,1.1-1.2,1.7-1.8c0.3-0.3,0.8-0.6,1.5-1.1
				c0.5-0.3,1-0.7,1.4-1.1c0.4-0.4,0.7-0.8,0.9-1.2c0.2-0.4,0.3-0.8,0.3-1.2c0-0.6-0.2-1.3-0.6-1.7c-0.5-0.4-1.1-0.7-1.8-0.6
				c-0.7,0-1.4,0.2-1.9,0.7c-0.5,0.5-0.9,1.2-1,2l-1.2-0.3c0.2-1,0.7-2,1.5-2.6c0.8-0.6,1.8-0.9,2.8-0.9c1-0.1,2,0.3,2.7,0.9
				c0.7,0.6,1,1.6,1,2.5c0,0.4,0,0.8-0.2,1.2c-0.1,0.4-0.3,0.7-0.5,1c-0.8,0.9-1.7,1.8-2.7,2.4l-0.7,0.5c-0.6,0.5-1.2,1-1.8,1.6
				c-0.4,0.4-0.8,1-1,1.5h6.8v1.2L271.6,205.5z"/>
			<path class="st7" d="M390.4,72.5l-9.7-3.9l-28,33.2c-2,2.3-1.7,5.8,0.6,7.8c0.4,0.4,0.9,0.7,1.5,0.9l0,0c2.2,0.9,4.7,0.2,6.1-1.6
				l6.5-7.9l10.2,4l-0.6,10.3c-0.1,2.3,1.2,4.5,3.4,5.4l0.2,0.1c2.8,1.1,6-0.3,7.1-3.1c0.2-0.6,0.3-1.2,0.4-1.8L390.4,72.5z
				 M373.8,92.8l5.1-6.1l-0.5,8L373.8,92.8z"/>
			<rect x="209.8" y="444.1" class="st11" width="101.8" height="35.7"/>
			<rect x="209.8" y="450.6" class="st12" width="101.8" height="0.6"/>
			<rect x="209.8" y="456.5" class="st12" width="101.8" height="0.6"/>
			<rect x="209.8" y="462.4" class="st12" width="101.8" height="0.6"/>
			<rect x="209.8" y="468.2" class="st12" width="101.8" height="0.6"/>
			<path class="st12" d="M261.5,457.1c0,0-47.9,4.1-53.9,9.3c0,0,0.3-6.1,2.3-9.9l15,0.6L261.5,457.1z"/>
			<polygon class="st13" points="287.1,457.1 281.9,465.4 276,457.1 			"/>
			<polygon class="st14" points="262.7,463 257.5,471.2 251.6,463 			"/>
			<rect x="209.8" y="474.1" class="st12" width="101.8" height="0.6"/>
			<polygon class="st15" points="235.6,468.9 230.4,477.1 224.6,468.9 			"/>
			<polygon class="st12" points="287.4,444.1 287.4,461.8 287.4,462 287.4,479.7 311.6,479.7 311.6,462 311.6,461.8 311.6,444.1 			
				"/>
			<path class="st6" d="M449.2,445.7h-5.7c1-0.7,2.1-1.1,3.3-1.1h141.7c7.3-0.1,13.3,5.8,13.4,13.2v8.4c-0.1,7.3-6.1,13.2-13.4,13.2
				H448.5L449.2,445.7z"/>
			<path class="st16" d="M529.7,444.7c7-0.1,12.8,5.6,12.8,12.6c0,0,0,0,0,0v9.5c-0.1,7-5.8,12.7-12.8,12.6c0,0,0,0,0,0h-88.2v-2.1
				h0.4l22.4-2.1l4.5-17.4c0,0-8.8-9.6-9.3-9.9s-17.6-1-17.6-1h-0.4v-2.1L529.7,444.7z"/>
			<path class="st11" d="M447.2,461.9c0-10.2-5.4-15.1-5.4-15.1h86c6.4-0.1,11.7,5.1,11.8,11.6v7.3c-0.1,6.4-5.3,11.6-11.8,11.6h-86
				C441.8,477.2,447.2,474.7,447.2,461.9z"/>
			<path class="st17" d="M539.7,458.3v7.3c0,0.9-0.1,1.9-0.3,2.8c-2.9-7-8.5-13.7-19-15.8c-24.7-5-78.4-5.8-78.4-5.8h86
				C534.3,446.7,539.6,451.8,539.7,458.3C539.6,458.3,539.6,458.3,539.7,458.3z"/>
			<path class="st18" d="M608,418h5.7c-1-0.6-2.2-0.9-3.3-0.9H468.5c-7.4,0-13.4,4.7-13.4,10.4v6.6c0,5.8,6,10.4,13.4,10.4h140.1
				L608,418z"/>
			<path class="st7" d="M527.5,417.2c-7.1,0-12.8,4.5-12.8,10v7.5c0,5.5,5.8,10,12.8,10h88.2V443h-0.4l-22.4-1.6l-4.5-13.8
				c0,0,8.8-7.6,9.3-7.8s17.6-0.8,17.6-0.8h0.4v-1.7L527.5,417.2z"/>
			<path class="st11" d="M610,430.9c-0.1-4.6,1.9-9,5.4-12h-86.1c-6.5,0-11.8,4.1-11.8,9.2v5.8c0,5.1,5.3,9.2,11.8,9.2h86.1
				C615.4,443,610,441,610,430.9z"/>
			<path class="st19" d="M517.5,428v5.8c0,0.7,0.1,1.5,0.3,2.2c2.9-5.5,8.5-10.8,19.1-12.5c24.7-4,78.5-4.6,78.5-4.6h-86.1
				C522.8,418.9,517.5,423,517.5,428z"/>
			<polygon class="st6" points="597.4,430.7 592,439.4 585.9,430.7 			"/>
			<path class="st19" d="M517.6,430.7H610V430c0-0.1-92.5,0-92.5,0L517.6,430.7z"/>
			<polygon class="st7" points="459.8,462.7 465.3,471.3 471.4,462.7 			"/>
			<path class="st19" d="M539.7,462.7h-92.4V462c0-0.1,92.5,0,92.5,0L539.7,462.7z"/>
			<path class="st16" d="M471.8,390.7h-4.5c0.8-0.6,1.7-0.9,2.6-0.9h111.9c5.8-0.1,10.5,4.6,10.6,10.4c0,0,0,0,0,0v6.6
				c-0.1,5.8-4.8,10.5-10.6,10.4c0,0,0,0,0,0H471.2L471.8,390.7z"/>
			<path class="st6" d="M535.3,389.8c5.5-0.1,10.1,4.3,10.1,9.9c0,0,0,0.1,0,0.1v7.5c0,5.5-4.5,10-10.1,9.9c0,0-0.1,0-0.1,0h-69.7
				v-1.7h0.3l17.7-1.6l3.6-13.8c0,0-6.9-7.6-7.4-7.8s-13.9-0.8-13.9-0.8h-0.3v-1.7H535.3z"/>
			<path class="st11" d="M470.1,403.4c0-8-4.2-12-4.2-12h68c5.1,0,9.3,4,9.3,9.1c0,0,0,0,0,0v5.7c0,5.1-4.2,9.2-9.3,9.1c0,0,0,0,0,0
				h-68C465.9,415.4,470.1,413.6,470.1,403.4z"/>
			<path class="st17" d="M543.2,400.6v5.7c0,0.7-0.1,1.5-0.3,2.2c-2.5-6.5-8.2-11.3-15.1-12.5c-19.5-4-62-4.6-62-4.6h68
				C539,391.4,543.1,395.4,543.2,400.6C543.2,400.6,543.2,400.6,543.2,400.6z"/>
			<polygon class="st20" points="518.2,402.9 523,411.4 527.3,402.9 			"/>
			<path class="st19" d="M543.2,402.9h-73.1v-0.7c0-0.1,73.1,0,73.1,0L543.2,402.9z"/>
			<path class="st21" d="M572.9,249.9c1.2-0.9,2.3-1.8,3.4-2.7l15.5,21.9c1,1.3,0.1,3.6-1.8,5s-4.3,1.4-5.3,0.1l-15.5-21.9
				C570.4,251.6,571.7,250.8,572.9,249.9z"/>
			
				<ellipse transform="matrix(0.8157 -0.5784 0.5784 0.8157 -21.0303 353.5583)" class="st22" cx="544.4" cy="209.8" rx="48.4" ry="48.7"/>
			<path class="st5" d="M572.7,249c-9.5,7-21.2,10.3-33,9.3l-42.1-61.9l0.1-0.3c3.3-11.3,10.6-21,20.5-27.3L572.7,249z"/>
			<path class="st5" d="M552.7,161.9l38.9,57.2c-0.3,1.5-0.7,2.9-1.1,4.4c-1.9,6.4-5.1,12.4-9.4,17.6l-52.5-77.3
				C536.4,161.1,544.7,160.5,552.7,161.9z"/>
			<path class="st23" d="M499.8,241.4c17.6,24.5,51.8,30.1,76.3,12.5c24.5-17.6,30.1-51.8,12.5-76.3c-17.6-24.4-51.5-30.1-76.1-12.7
				C487.9,182.5,482.2,216.7,499.8,241.4z M504.9,237.8c-15.3-21.9-10-52.1,11.9-67.4c21.9-15.3,52.1-10,67.4,11.9
				c15.3,21.8,10.1,51.8-11.6,67.2C550.7,264.9,520.4,259.7,504.9,237.8L504.9,237.8z"/>
			<path class="st24" d="M502.5,239.5c16.6,23,48.7,28.3,71.7,11.7c23-16.6,28.3-48.7,11.7-71.7c-16.5-22.9-48.4-28.3-71.5-11.9
				C491.3,184.1,486,216.3,502.5,239.5z M504.9,237.8c-15.3-21.9-10-52.1,11.9-67.4c21.9-15.3,52.1-10,67.4,11.9
				c15.3,21.8,10.1,51.8-11.6,67.2C550.7,264.9,520.4,259.7,504.9,237.8L504.9,237.8z"/>
			<path class="st23" d="M638.4,345.4l3.5-2.5c3.5-2.5,4.3-7.4,1.8-10.8c0,0,0,0,0,0l-44.8-62.8c-2.5-3.5-7.4-4.3-10.8-1.8
				c0,0,0,0,0,0l-3.5,2.5c-3.5,2.5-4.3,7.4-1.8,10.8c0,0,0,0,0,0l44.8,62.8C630.1,347.1,634.9,347.9,638.4,345.4
				C638.4,345.4,638.4,345.4,638.4,345.4z"/>
			<path class="st6" d="M102,258.6H20.5c-3.6,0-6.5,2.9-6.5,6.5v43.1c0,3.6,2.9,6.5,6.5,6.5h59.3c3.3,4.6,9.4,13,9.9,13
				s-0.5-7.9-1.1-13H102c3.6,0,6.5-2.9,6.5-6.5v-43.1C108.5,261.5,105.6,258.6,102,258.6z"/>
			<rect x="21.4" y="271.4" class="st9" width="82.5" height="4.4"/>
			<rect x="32.4" y="283.6" class="st9" width="60.5" height="4.4"/>
			<rect x="28.1" y="295.9" class="st9" width="69.1" height="4.4"/>
			<path class="st25" d="M659.9,499.6h-23.6c-3.6,0-6.6,3-6.6,6.6l0,0c0,3.6,3,6.6,6.6,6.6h9.9c2.9,0,5.2,2.3,5.2,5.2l0,0
				c0,2.9-2.3,5.2-5.2,5.2h-518c-2.9,0-5.2-2.3-5.2-5.2l0,0c0-2.9,2.3-5.2,5.2-5.2h9.4c3.6,0,6.6-3,6.6-6.6l0,0c0-3.6-3-6.6-6.6-6.6
				H116c-5.8,0-10.4-4.7-10.4-10.4l0,0c0-5.8,4.7-10.4,10.4-10.4h543.9c5.8,0,10.4,4.7,10.4,10.5l0,0
				C670.3,494.9,665.7,499.6,659.9,499.6L659.9,499.6z M660.3,523.2c2.9,0,5.2-2.3,5.2-5.2s-2.3-5.2-5.2-5.2s-5.2,2.3-5.2,5.2l0,0
				C655.1,520.9,657.4,523.2,660.3,523.2z"/>
			<path class="st26" d="M223,358.6c0.3-0.2,0.8-0.2,1,0.1c0.2,0.3,0.2,0.8-0.1,1c0,0,0,0-0.1,0c-5.6,3.8-9.3,9.9-10.2,16.7
				c-1,7.3,1,15.2,5,22.1c0.2,0.3,0.1,0.8-0.2,1c-0.3,0.2-0.8,0.1-1-0.2c0,0,0,0,0-0.1c-4.1-7.2-6.2-15.4-5.2-23.1
				C213.1,369.1,217,362.7,223,358.6z"/>
			<path class="st27" d="M223.8,313.8c2.2,4.1,4.9,7.9,8.2,11.2c5.3,5.2,8.6,25.2-8,35s-18.6,27.1-6.1,38.6s-79.7-13.7-79.7-13.7
				l10.6-46.1l41.9-15C190.7,323.8,223.4,312.7,223.8,313.8z"/>
			<path class="st28" d="M225.8,317.3c1.8,2.8,3.8,5.4,6.2,7.7c5.3,5.2,8.6,25.2-8,35s-18.6,27.1-6.1,38.6s-79.7-13.7-79.7-13.7
				l10.6-46.1l41.9-15c0,0,15-5.1,24.9-8.1C218.8,317.1,222.3,317.7,225.8,317.3z"/>
			<path class="st25" d="M205.9,400.7c-6.4-1-14.6-2.7-23.1-4.6c-7.9-4.2-14.6-8.6-14.3-9.5c0.7-2.4-29.5-5.4-28.6-9.2
				s15.5-30.9,15.5-30.9l44.4-12.3l21,2.8c0,0,6.7,7.2-1.7,16.5s-31,21.3-15.8,42.6C204.4,397.6,205.2,399.1,205.9,400.7z"/>
			<path class="st27" d="M220.2,321.1c-4.1-1.6-5.9,3.2-5.9,3.2l-0.3,4.8c-1.6-0.1-3.5-2.6-3.3-4.7s0.2-4.4,0.2-4.4
				c-2.2-3.5-4-7.2-5.3-11.1c0,0,7.1,7.7,16.3,8.5C221.1,319.1,220.2,320.9,220.2,321.1z M152.2,313.8c-0.7,1-1.5,1.9-2.4,2.8
				c0,0-0.1,2.3-0.2,4.4s-2.2,4.4-3.9,4.3l0.3-4.8c0,0-6.7,10.8-11.1,10.6c0,0-11.8-19.3-13.1-30.9c-0.1-1.5,0.2-2.9,0.7-4.3
				C122.5,296.3,122.4,308.6,152.2,313.8L152.2,313.8z"/>
			<path class="st28" d="M220.2,321.1c-4.1-1.6-5.9,3.2-5.9,3.2l-0.3,4.8c-1.6-0.1-3.5-2.6-3.3-4.7s0.2-4.4,0.2-4.4
				c-2.2-3.5-4-7.2-5.3-11.1c0,0,7.1,7.7,16.3,8.5C221.1,319.1,220.2,320.9,220.2,321.1z M152.2,313.8c-0.7,1-1.5,1.9-2.4,2.8
				c0,0-0.1,2.3-0.2,4.4s-2.2,4.4-3.9,4.3l0.3-4.8c0,0-6.7,10.8-11.1,10.6c0,0-11.8-19.3-13.1-30.9c-0.1-1.5,0.2-2.9,0.7-4.3
				C122.5,296.3,122.4,308.6,152.2,313.8L152.2,313.8z"/>
			<g id="_Group_">
				<g id="_Group_2">
					<g id="_Group_3">
						<g id="_Group_4">
							<path id="_Path_" class="st29" d="M205.6,420.7c-0.2,5.9-0.5,12.1-0.8,18.1c-0.1,2-0.2,4-0.3,6c-0.8,16.1-1.6,29.3-1.6,29.3
								l-31.3-0.7l4.6-27.6l0.4-2.3l3.3-19.6l9.6-57.4c0,0,15.7,6.5,16.5,25.9C206.3,398.6,206,409.2,205.6,420.7z"/>
							<path id="_Path_2" class="st10" d="M207.4,437.9c-9.8,3.5-23.8,5.4-30.8,5.6l12.9-77c0,0,15.7,6.5,16.5,25.9
								C206.4,401.8,208.3,420.3,207.4,437.9z"/>
						</g>
						<g id="_Group_5">
							<g id="_Group_6">
								<path id="_Path_3" class="st30" d="M182.1,363c0.1,15.3-12.2,28.1-22.5,29.3c-9.5,1.1-24.9-22.7-30.4-31.8
									c4.3-1.7,8.7-3.2,13.2-4.4c0,0,3-7.9,5.2-14.4c0.6-1.8,1.2-3.5,1.7-4.9c0.4-1,0.7-2.1,0.9-3.2l30.7,9.6l-0.2,0.9l-3.2,12.9
									l-1.1,4.3C178.3,361.8,180.2,362.3,182.1,363z"/>
							</g>
							<g id="_Group_7">
								<g id="_Group_8">
									
										<ellipse id="_Path_4" transform="matrix(0.9724 -0.2333 0.2333 0.9724 -69.3021 58.8109)" class="st30" cx="214" cy="322.4" rx="13.3" ry="9.2"/>
									<g id="_Group_9">
										<path id="_Path_5" class="st29" d="M216.5,312.7c-2.3,33.3-14.9,49-36.6,47.6s-39-23.4-37.5-50.3
											c2.2-40.2,22.3-48.5,44-47.1S218.4,285.8,216.5,312.7z"/>
									</g>
									
										<ellipse id="_Path_6" transform="matrix(0.2984 -0.9544 0.9544 0.2984 -207.3406 356.8351)" class="st30" cx="139" cy="319.4" rx="9.2" ry="13.3"/>
									<path class="st31" d="M154.7,272.6c-6.4,5.3-11.7,23.3-11.9,31.6c0,0,2.5-0.6,0.2,15.1c-3.1,21.1,16.2,34.9,29.8,39.4
										c-7-4.3-11.2-13.5-13.4-20.8c-3.5-11.8,3-18.2,5.9-25.2s6.9-9.7,10.3-9.8c6.1-0.3,12.8,0.9,21.4-0.3
										c3.7-0.5,2.7,3.9,6.1,6.7c4.5,3.9,13,9.6,13,9.6c2.1-12.8-9-42.1-12.7-46.1c-7.9-0.3-27.2-1.2-35.8-2.8
										C163.9,269.4,159.4,270.5,154.7,272.6z"/>
								</g>
							</g>
						</g>
						<g id="_Group_10">
							<path id="_Path_7" class="st6" d="M179.2,445.8c-3.7,12.6-5.4,28.3-5.4,28.3l-92.6-8.1c0,0,15-76.9,25.4-90.9
								c1.3-1.7,2.8-3.3,4.5-4.6c5.1-4.1,12-7.4,18.1-9.8c4.3-1.7,8.7-3.2,13.2-4.4c0,0,17.9,30.8,21.8,30.2s13.1-12.3,12.3-25
								c1.9,0.5,3.8,1,5.7,1.7c4.9,1.7,11.4,4.9,13.2,9.5C197.9,379.1,186.8,419.8,179.2,445.8z"/>
							<path id="_Path_8" class="st10" d="M179.2,445.8c-3.7,12.6-5.4,28.3-5.4,28.3l-92.6-8.1c0,0,15-76.9,25.4-90.9
								c1.3-1.7,2.8-3.3,4.5-4.6l11.8,7C117.8,403.8,115.2,457.4,179.2,445.8z"/>
						</g>
						<g id="_Group_11">
							<g id="_Group_12">
								<path id="_Path_9" class="st29" d="M177.6,469.7c-2.8,1-8.9-11.1-9.5-12.4c0.6,1.4,6.2,16,2.3,17.8
									c-3.2,1.4-9.8-13.1-10.2-14.1c0.3,0.9,5.1,14.9,2.4,16.6c-1.1,0.7-2.5,0.6-3.6-0.1c-0.4-0.3-0.8-0.5-1.1-0.9
									c-0.1-0.1-0.2-0.2-0.2-0.2c0.5,1.3,0,2.8-1.3,3.4c-3.4,1.6-10.9-10.3-10.9-10.3c-6.4,3.8-13.8,2.2-13.8,2.2
									s-53.6,4.1-67.5-2.2c-6.8-3.1-4.1-15.5,1.7-29.7c0.9-2.2,1.8-4.4,2.8-6.6c3.1-7,6.6-14.1,9.9-20.6
									c2.8-5.6,5.4-10.8,7.4-14.9c9.7-20.4,30.2-30.9,30.2-30.9c20.8,2.7,5.9,38.1,3.7,43c-1,2.1-4.9,10.1-8.9,18.1
									c-3,6-6,12-7.8,15.5c-0.3,0.6-0.6,1.1-0.8,1.5c-0.5,1-0.8,1.6-0.8,1.6l32,3.5c0,0,16.7-10,29.4-10
									C174.8,440,181.9,468.1,177.6,469.7z"/>
								<path id="_Path_10" class="st32" d="M110.7,427.9c-3,6-6,12-7.8,15.5c-0.3,0.6-0.6,1.1-0.8,1.5c-7.2,1.2-20.4,1.8-36.4-5.1
									c0.9-2.2,1.8-4.4,2.8-6.6c3.1-7,6.6-14.1,9.9-20.6L110.7,427.9z"/>
								<path id="_Path_11" class="st33" d="M159,477.5c-0.4-0.3-0.8-0.5-1.1-0.9c-0.4-1.5-1-3-1.6-4.4c-1.2-2.7-2.8-5.2-4-7.9
									c-0.1-0.1,0.1-0.3,0.2-0.2C155.7,467.5,157.9,472.7,159,477.5z"/>
							</g>
							<path id="_Path_12" class="st6" d="M121,410.8c-3.6,10.3-8.9,24.5-13,32.7c-16.2,0.5-36.1-5.6-43-10.8
								c7-13.7,14.6-26.4,19.6-34.9c12.8-21.8,31.4-31,31.4-31C136.8,369.6,123.6,403.5,121,410.8z"/>
						</g>
					</g>
					<g id="_Group_13">
						<g id="_Group_14">
							<path id="_Path_13" class="st8" d="M351.6,470.8H201.4l-3.1-4.4l27.3-80.4c0.8-2.5,3.2-4.1,5.8-4.1h146.7
								c1.9,0,3.7,0.9,4.9,2.3l0,0c1.1,1.3,1.3,3,0.7,4.6L351.6,470.8z"/>
							<path id="_Path_14" class="st18" d="M349.8,470.8H201.4l26.8-77.9c1.4-3.9,5.1-6.6,9.2-6.6h143.4c1.5,0,2.7,1.2,2.7,2.7
								c0,0.3-0.1,0.7-0.2,1l-31,79.1C351.9,470.1,350.9,470.8,349.8,470.8z"/>
							<ellipse id="_Path_15" class="st8" cx="294.2" cy="427.6" rx="21.2" ry="7.3"/>
						</g>
						<g id="_Group_15">
							<path id="_Rectangle_" class="st7" d="M121.7,469.6h217.8c1.2,0,2.2,1,2.2,2.2v5.9c0,1.2-1,2.2-2.2,2.2H121.7
								c-1.2,0-2.2-1-2.2-2.2v-5.9C119.4,470.6,120.4,469.6,121.7,469.6z"/>
							<g id="_Group_16">
								<path id="_Rectangle_2" class="st18" d="M121.7,469.6h71.8c1.2,0,2.2,1,2.2,2.2v5.9c0,1.2-1,2.2-2.2,2.2h-71.8
									c-1.2,0-2.2-1-2.2-2.2v-5.9C119.4,470.6,120.4,469.6,121.7,469.6z"/>
								<g id="_Group_17">
									<rect id="_Rectangle_3" x="125.7" y="474" class="st7" width="9" height="2.2"/>
									<rect id="_Rectangle_4" x="136.7" y="474" class="st7" width="9" height="2.2"/>
									<rect id="_Rectangle_5" x="164.8" y="474" class="st7" width="9" height="2.2"/>
									<path id="_Path_16" class="st7" d="M184.5,476.3h-6.7c-0.6,0-1.1-0.5-1.1-1.1l0,0l0,0c0-0.6,0.5-1.1,1.1-1.1c0,0,0,0,0,0
										h6.7c0.6,0,1.1,0.5,1.1,1.1l0,0l0,0C185.6,475.8,185.1,476.3,184.5,476.3C184.5,476.3,184.5,476.3,184.5,476.3z"/>
									<circle id="_Path_17" class="st7" cx="159" cy="475.4" r="1.4"/>
								</g>
							</g>
						</g>
					</g>
				</g>
			</g>
			<path class="st34" d="M188.4,336.7c0,0,2-2.6,3.6-0.8S192.4,335.7,188.4,336.7z"/>
			<path class="st35" d="M198.5,327.1c0,0-1.3-7.6,5.6-9.1s11.3,5.2,11.3,5.2s-6.1-1.7-9.6-0.7S198.9,325.8,198.5,327.1z"/>
			<path class="st36" d="M215.1,314.2c0-0.1,0-0.2,0-0.3c-0.3-1.5-2.4-2.9-3.7-3.5c-1.8-0.8-3.7-1.2-5.7-1.1c-1.7,0.1-3.4,0.5-5,1.2
				c-0.8,0.3-1.5,0.8-1.9,1.5c-0.7,1.3-0.4,3.1,1.4,3c1.5-0.1,3-0.5,4.5-0.6c1.8-0.1,3.7-0.1,5.5,0.1
				C211.2,314.7,215,315.8,215.1,314.2z"/>
			<path class="st5" d="M198.1,328.4c-0.4,1.2,1.3,3.7,2,4.4c5.5,6.1,18.5-1.8,15.4-9.7c-2.2-1.1-4.8-1.3-7.2-0.6
				c-4.4,1.1-7.6,0.8-8.6,2.5C199,326.2,198.5,327.3,198.1,328.4z"/>
			<g>
				<defs>
					<path id="SVGID_1_" d="M198.1,328.4c-0.4,1.2,1.3,3.7,2,4.4c5.5,6.1,18.5-1.8,15.4-9.7c-2.2-1.1-4.8-1.3-7.2-0.6
						c-4.4,1.1-7.6,0.8-8.6,2.5C199,326.2,198.5,327.3,198.1,328.4z"/>
				</defs>
				<clipPath id="SVGID_00000092454209892478704780000009148722510955187360_">
					<use xlink:href="#SVGID_1_"  style="overflow:visible;"/>
				</clipPath>
				<g style="clip-path:url(#SVGID_00000092454209892478704780000009148722510955187360_);">
					<ellipse class="st6" cx="209.3" cy="327.1" rx="6.8" ry="7.9"/>
					<ellipse class="st36" cx="209.5" cy="327.2" rx="3.6" ry="4"/>
					<path class="st38" d="M197.9,328.9c0,0,0.1,0.8,0.5,0.7s5.6-5.9,10.4-4.8s6.9,1.2,7.1,1s-1.1-2.6-1.9-3.3s-7-0.5-7-0.5l-6,2
						L197.9,328.9z"/>
					<path class="st39" d="M216.7,327.5c0,0-6.6-1.1-6.1-0.3s5,3.6,5.7,3.4S217.9,327.7,216.7,327.5z"/>
				</g>
			</g>
			<path class="st36" d="M216.2,324.9c-0.4-4.9-9.5-3.6-12.6-2.9c-3.5,0.8-6.6,3.6-6.1,7.5c0,0.1,0.1,0.3,0.3,0.3
				c0.1,0,0.2,0,0.2-0.1c1.4-2.5,1.9-4.4,4.9-5.3s10.6-1.8,12.9,0.8c0.1,0.1,0.2,0.1,0.3,0C216.2,325,216.2,325,216.2,324.9
				L216.2,324.9z"/>
			<path class="st36" d="M197.8,321.4c2.4-2.9,5-4.4,8.9-4.1c0.3,0,0.4-0.5,0.1-0.6C203.2,315.8,198.8,317.6,197.8,321.4
				C197.7,321.4,197.7,321.5,197.8,321.4L197.8,321.4z"/>
			<path class="st30" d="M186.6,338.1c-1.7,1.5-0.1,5.4,2.3,4.6c0.1,0,0.1-0.2,0.1-0.3c0,0-0.1-0.1-0.1-0.1c-0.8-0.3-1.5-0.7-2-1.4
				c-0.5-0.9-0.5-1.9-0.1-2.8C186.8,338.2,186.7,338.1,186.6,338.1C186.6,338.1,186.6,338.1,186.6,338.1L186.6,338.1z"/>
			<path class="st30" d="M192.1,342.8c0.9,0,1.8-0.4,2.4-1c0.4-0.3-0.1-1-0.5-0.7c-0.3,0.2-0.7,0.4-1,0.6c-0.4,0.1-0.7,0.3-1.1,0.5
				c-0.1,0.1-0.2,0.3-0.1,0.5C191.9,342.7,192,342.7,192.1,342.8L192.1,342.8z"/>
			<path class="st35" d="M180.1,327.1c0,0,1.3-7.6-5.6-9.1s-11.3,5.2-11.3,5.2s6.1-1.7,9.6-0.7S179.7,325.8,180.1,327.1z"/>
			<path class="st36" d="M163.5,314.2c0-0.1,0-0.2,0-0.3c0.3-1.5,2.4-2.9,3.7-3.5c1.8-0.8,3.7-1.2,5.7-1.1c1.7,0.1,3.4,0.5,5,1.2
				c0.8,0.3,1.5,0.8,1.9,1.5c0.7,1.3,0.4,3.1-1.4,3c-1.5-0.1-3-0.5-4.5-0.6c-1.8-0.1-3.7-0.1-5.5,0.1
				C167.4,314.7,163.6,315.8,163.5,314.2z"/>
			<path class="st5" d="M180.5,328.4c0.4,1.2-1.3,3.7-2,4.4c-5.5,6.1-18.5-1.8-15.4-9.7c2.2-1.1,4.8-1.3,7.2-0.6
				c4.4,1.1,7.6,0.8,8.6,2.5C179.5,326.2,180.1,327.3,180.5,328.4z"/>
			<g>
				<defs>
					<path id="SVGID_00000012450429757309693890000014108277228988046477_" d="M180.5,328.4c0.4,1.2-1.3,3.7-2,4.4
						c-5.5,6.1-18.5-1.8-15.4-9.7c2.2-1.1,4.8-1.3,7.2-0.6c4.4,1.1,7.6,0.8,8.6,2.5C179.5,326.2,180.1,327.3,180.5,328.4z"/>
				</defs>
				<clipPath id="SVGID_00000168091119373266672960000002533422108625101754_">
					<use xlink:href="#SVGID_00000012450429757309693890000014108277228988046477_"  style="overflow:visible;"/>
				</clipPath>
				<g style="clip-path:url(#SVGID_00000168091119373266672960000002533422108625101754_);">
					<ellipse class="st6" cx="174.3" cy="327.1" rx="6.8" ry="7.9"/>
					<ellipse class="st36" cx="174.1" cy="327.2" rx="3.6" ry="4"/>
					<path class="st38" d="M180.6,328.9c0,0-0.1,0.8-0.5,0.7s-5.6-5.9-10.4-4.8s-6.9,1.2-7.1,1s1.1-2.6,1.9-3.3s7-0.5,7-0.5l6,2
						L180.6,328.9z"/>
					<path class="st39" d="M166.9,327.5c0,0,6.6-1.1,6.1-0.3s-5,3.6-5.7,3.4S165.7,327.7,166.9,327.5z"/>
				</g>
			</g>
			<path class="st36" d="M162.7,325c2.4-2.5,10-1.7,12.9-0.8s3.5,2.8,4.9,5.3c0.1,0.1,0.2,0.2,0.4,0.1c0.1,0,0.1-0.1,0.1-0.2
				c0.5-3.9-2.6-6.7-6.1-7.5c-3.1-0.7-12.1-2-12.6,2.9c0,0.1,0.1,0.2,0.2,0.2C162.6,325,162.6,325,162.7,325L162.7,325z"/>
			<path class="st36" d="M180.9,321.4c-1.1-3.7-5.5-5.6-9.1-4.6c-0.3,0.1-0.2,0.6,0.1,0.6C175.8,317,178.4,318.5,180.9,321.4
				C180.8,321.5,181,321.4,180.9,321.4L180.9,321.4z"/>
			<path class="st30" d="M175.8,347.5c2.7,3.7,8.5,4.3,12.7,3.6c2.6-0.4,7.6-2,8.2-4.8c0-0.2-0.1-0.4-0.2-0.4c-0.1,0-0.2,0-0.2,0
				c-2.3,1.3-4.3,3-6.9,3.7c-4.1,1-10.1,0.5-13.2-2.4C176,347,175.6,347.3,175.8,347.5L175.8,347.5z"/>
			<path class="st41" d="M214.5,284c-0.4,0-0.7-0.3-0.8-0.7c0-0.4,0.3-0.7,0.7-0.8c0,0,0.1,0,0.1,0c0,0,12.7,0.7,12.5,12.3
				c-0.2,3.3-0.6,6.6-1.4,9.9c-1.5,7.2-2.9,14,3.1,19.6c0.3,0.2,0.4,0.7,0.1,1c-0.2,0.3-0.7,0.4-1,0.1c0,0-0.1-0.1-0.1-0.1
				c-6.6-6.2-5.1-13.4-3.6-21c0.7-3.2,1.2-6.4,1.4-9.6C225.8,284.6,214.5,284,214.5,284z"/>
			<path class="st41" d="M216.2,316.1c-1.5-9.7-12.9-7.1-12.2-19.3c0,0-30.1,3.9-43.6-0.4c-1.8,7.5-5.4,14.5-10.6,20.2
				c0,0-0.1,2.3-0.2,4.4s-2.2,4.4-3.9,4.3l0.3-4.8c0,0-6.7,10.8-11.1,10.6c0,0-11.8-19.3-13.1-30.9s33.4-49.1,62.2-47.5
				s39.2,15.8,31.6,28.6c0,0,6.5,1.5,8.9,7.7s-4.8,15.8-0.8,25.8C223.8,314.8,217.9,311.5,216.2,316.1z"/>
			<path class="st42" d="M126.2,288.7c3-4.4,6.4-8.5,10.1-12.3c33.4,13.8,55.5-8.9,64.4-20.9c1.7,0.5,3.3,1.2,4.9,1.9
				C184.2,300.8,141.5,293.1,126.2,288.7z"/>
			<path class="st26" d="M123,328c0.2-0.3,0.7-0.4,1-0.2c0.3,0.2,0.4,0.7,0.2,1c0,0,0,0,0,0.1c0,0-3.3,4.2,1.7,14.8
				c2.6,5.5,4.8,11.5,5.5,17.3s-0.3,11.6-4,16.6c-0.2,0.4-0.7,0.5-1,0.3c-0.4-0.2-0.5-0.7-0.3-1c0,0,0-0.1,0.1-0.1
				c3.4-4.7,4.3-10,3.7-15.6s-2.8-11.4-5.3-16.9C119.1,332.9,123,328,123,328z"/>
			<path class="st25" d="M204,296.8L204,296.8c0,0-25.5,3.3-40.1,0.5c5.4-6.1,18.3-17.3,30.9-16.4
				C194.9,280.8,206.9,288.1,204,296.8L204,296.8z"/>
			<path class="st43" d="M204,296.8c0,0,7-18.9-1.8-25.3s-36.2-7.9-48.9,6.4s-30.7,38.2-31.1,51.6s15.8,26.4,8.7,37.5
				s-17.8,31.7-2.4,47s10.7,2.1,10.7,2.1s19,8.3,30.1,2.4s3.7-19.6-6.7-25.3c0,0,5.2,0.7,5.3-2.5s-14.4-2.5-13.1-16.3
				s8.4-23.3,2.3-33.2s3.1-40.4,24.8-49.8S204,296.8,204,296.8z"/>
			<path class="st44" d="M185.7,266.9c-1-0.1-2-0.1-3-0.1c-4.9,11.3-18,32.6-48.6,35.6c-3.5,5.1-6.5,10.4-9,16
				C142.4,314.4,175.6,302.2,185.7,266.9z"/>
			<path class="st26" d="M122.9,324.7c-0.4,1.5-0.7,3.1-0.7,4.7c-0.4,13.4,15.8,26.4,8.7,37.5s-17.8,31.7-2.4,47s10.7,2.1,10.7,2.1
				s19,8.3,30.1,2.4c10.2-5.4,4.9-17.3-4.1-23.6c1.9,1.4,3.7,8.7-4.2,10.1c-8.1,1.5-17.6-3.4-17.6-3.4c1.9,0,5.6-2.9-0.7-4.7
				s-14.1-12.8-5.6-27.4s-4.4-21.8-10.1-30.3C121.6,331,122.7,325.4,122.9,324.7z"/>
			<g id="_Group_18">
				<g id="_Group_19">
					<path id="_Path_18" class="st45" d="M187.2,326.4c0,8.1-6.6,14.6-14.7,14.6c-8.1,0-14.6-6.6-14.6-14.7
						c0-8.1,6.6-14.6,14.7-14.6c3.9,0,7.6,1.6,10.3,4.3c0.4,0.3,0.7,0.7,1,1.1C186.1,319.8,187.3,323.1,187.2,326.4z"/>
					<path id="_Path_19" class="st46" d="M171.7,341c-0.3,0-0.6,0-0.9,0c-8.1,0-14.6-6.5-14.6-14.6c0-1.4,0.2-2.9,0.6-4.2
						c0.1-0.5,0.3-1,0.5-1.4c2.3-5.4,7.6-9,13.5-9c0.3,0,0.6,0,0.9,0c-8,0.5-14.2,7.4-13.7,15.4c0.4,7.4,6.3,13.3,13.7,13.7
						L171.7,341z"/>
				</g>
				<g id="_Group_20">
					<ellipse id="_Path_20" class="st45" cx="206.5" cy="326.4" rx="13.2" ry="14.6"/>
					<path id="_Path_21" class="st46" d="M205.7,341c-0.3,0-0.5,0-0.8,0c-7.3,0-13.2-6.5-13.2-14.6c0-3,0.8-5.9,2.4-8.5
						c0.3-0.4,0.5-0.8,0.9-1.2c2.4-3.1,6-4.9,9.9-4.9c0.3,0,0.5,0,0.8,0c-6.9,0.5-12.4,6.8-12.4,14.6S198.8,340.5,205.7,341z"/>
				</g>
				<g id="_Group_21">
					<path id="_Path_22" class="st33" d="M195,316.7c-0.3,0.4-0.6,0.8-0.9,1.2c-0.1,0-0.2-0.1-0.2-0.2c-1.4-2.1-3-3.2-4.7-3.3
						s-3.5,0.8-5.2,2.7c0,0,0,0-0.1,0.1c-0.3-0.4-0.6-0.7-1-1.1c2-2.2,4.2-3.2,6.4-3.1S193.3,314.4,195,316.7z"/>
				</g>
			</g>
			<g id="_Group_22">
				<g id="_Group_23">
					<g id="_Group_24">
						<g id="_Group_25">
							<path id="_Path_23" class="st47" d="M440,273.5c-5.7,6.6-30.8,35.8-34,36.3s-6.7-28.4-5.7-40.2c4.8-0.9,8.4-1.5,9.1-3.2
								c0.1-0.1,0.1-0.2,0.1-0.4l0.1-0.2c1.8-4.6,2.4-12.7,2.6-15v-0.6l23.8-5.8c0,0-0.1,0.2-0.2,0.7c-0.4,1.6-1.6,6.1-2.4,10.9
								c-0.3,1.7-0.6,3.4-0.8,5.1c-0.5,4.8-0.4,9,1.4,10.1C435.9,272.1,437.9,272.9,440,273.5z"/>
						</g>
						<g id="_Group_26">
							<polygon id="_Path_24" class="st6" points="399.6,281.1 409.7,289.7 430.5,286 415.1,309.7 401,314.4 391.5,287.1 							"/>
							<path id="_Path_25" class="st7" d="M407.5,294.6c0.2,0,5.4,2.1,5.4,2.1l1.5,10.5l-8.8,5l-5.5-6.1L407.5,294.6z"/>
							<path id="_Path_26" class="st18" d="M405.8,285.9l3.9,3.8l7.4-1.5c0,0-2.5,7.7-4.2,8.4s-5.3,0.1-6.2-0.7
								S404.6,287.5,405.8,285.9z"/>
						</g>
						<g id="_Group_27">
							<path id="_Path_27" class="st7" d="M393,271.2c-7.7,1.6-15,5-21.2,9.9c-10.5,8.3-27.3,19.9-29.6,18.8
								c-1.8-0.9-15-18.2-21.7-24.8c-2.5-2.5-6.6-1.5-6.9-1.8l-19.6,13.6c0,0-1.2,5.7,1.5,9.4c6.9,9.7,32.5,41.5,41.1,41.6
								c13.1,0,45-13.7,45-13.7L393,271.2z"/>
							<g id="_Group_28">
								<path id="_Path_28" class="st48" d="M310.7,256.9c-0.3,3.2-1.5,14.3-1.5,14.3l-13.4,11.6c0,0-24.5-17.1-25.4-19.2
									c-0.6-0.9-0.4-2.1,0.4-2.9c0.1-0.1,0.2-0.1,0.2-0.2c-0.2-0.1-0.3-0.2-0.4-0.3c-0.7-0.7-1.1-1.6-1.2-2.6
									c-0.1-1,0.6-2,1.6-2.2c0.3-0.1,0.5-0.1,0.8-0.2c-0.1-0.1-0.3-0.2-0.4-0.4c-0.9-0.9-0.9-2.3-0.1-3.3c1.3-1.7,19.3,4,19.3,4
									s-11.4-10.3-9.3-13s22.8,14.9,22.8,14.9c1.7-6.7,4.6-11.6,6.7-10.8S311,253.7,310.7,256.9z"/>
								<path id="_Path_29" class="st49" d="M303.6,258.3c-3,1.8-3.8,7-3.2,10.1c0.1,0.3,0.6,0.3,0.6-0.1c-0.3-1.7-0.2-3.5,0.3-5.2
									c0.5-1.8,1.7-3,2.5-4.6c0-0.1,0-0.2-0.1-0.2C303.7,258.2,303.6,258.2,303.6,258.3z"/>
								<path id="_Path_30" class="st49" d="M288.9,267.8c-2.6-0.8-3.8,1-6.2-0.8c-4-2.9-7-5.7-11.9-6.2c0.1-0.1,0.2-0.1,0.2-0.2
									c-0.2-0.1-0.3-0.2-0.4-0.3c3-0.1,5.9,0.9,8.3,2.7c1.9,1.3,3.4,3,5.6,3.8c1.8,0.6,2.9-0.1,4.6,0.4
									C289.5,267.2,289.3,267.9,288.9,267.8z"/>
								<path id="_Path_31" class="st49" d="M289.3,261.5c-2.6-0.2-4.5-1.5-6.7-2.8c-3.6-1.8-7.5-2.9-11.6-3.3
									c0.3-0.1,0.5-0.1,0.8-0.2c-0.1-0.1-0.3-0.2-0.4-0.4c2.8,0,5.6,0.5,8.2,1.5c3.3,1.2,6.3,3.9,9.8,4.2
									C289.9,260.7,289.9,261.6,289.3,261.5z"/>
							</g>
							<path id="_Path_32" class="st8" d="M295.4,288.6c0,0,6,1.8,13.6-3.7c6.9-5,5.6-9.9,5.6-9.9c0.1-0.9-3.9-5.9-5.2-5.9
								c0,0-9.8,10.9-17.5,11C291.9,280.1,291,283.2,295.4,288.6z"/>
						</g>
						<g id="_Group_29">
							<path id="_Path_33" class="st18" d="M455.9,296.8c-0.1,23.2-5.3,68.8-5.3,68.8h-82.6c0,0,0.4-3.4,1-8.8
								c2.7-22.6,10.6-81,20-84.3c2.1-0.7,4.3-1.4,6.5-1.8c1.7-0.4,3.3-0.7,4.8-1c-1,11.8,2.5,40.8,5.7,40.2s28.3-29.6,34-36.3
								c1.4,0.5,2.8,1,4.3,1.5c4.2,1.8,8.5,4.4,10.5,9.5C455.6,286.5,455.9,290.9,455.9,296.8z"/>
							<path id="_Path_34" class="st7" d="M446.2,295c-0.1,23.2,4.4,70.6,4.4,70.6H368c0,0,0.4-3.4,1-8.8
								C431.9,365.1,439,327.9,446.2,295z"/>
							<path id="_Path_35" class="st8" d="M444.2,275c-10.8,13.8-32.8,40.9-38.9,40.1c-6.7-0.9-9.1-32.5-9.8-44.6
								c1.7-0.4,3.3-0.7,4.8-1c-1,11.8,2.5,40.8,5.7,40.2s28.3-29.6,34-36.3C441.4,274,442.8,274.5,444.2,275z"/>
						</g>
						<g id="_Group_30">
							<path id="_Path_36" class="st6" d="M409.7,289.9c-3.4-7.2-3-15.9-0.3-23.5c0,0-8.8-0.5-13,4s-8.2,20.3-8.2,20.3
								S399,283.4,409.7,289.9z"/>
							<path id="_Path_37" class="st6" d="M432.5,267.2c-5.6,9.3-13.5,17.1-22.8,22.7c2.2,0,15.5-2.5,24.8,7.9
								C435.4,297.9,448.9,267.8,432.5,267.2z"/>
						</g>
						<path id="_Path_38" class="st18" d="M441.1,297l9.2-18.5c0,0,10.9,6,17.3,26c4.4,13.9,15.8,61,15.8,61h-37.2
							C446.2,365.6,434.5,324.1,441.1,297z"/>
						<g id="_Group_31">
							<g id="_Group_32">
								
									<ellipse id="_Path_39" transform="matrix(0.3505 -0.9365 0.9365 0.3505 40.7174 523.9961)" class="st50" cx="398.2" cy="232.6" rx="5.9" ry="8.7"/>
								<g id="_Group_33">
									<path id="_Path_40" class="st48" d="M446.8,229.9c-2.6,17.1-18.2,29.6-31.4,27.5c-13.1-2-17.4-17.3-16.6-34.3
										c0-0.2,0-0.4,0-0.6c0.4-8.2,2.4-14.2,5.4-18.6c5.6-8.1,14.7-10.1,23.3-8.7c4.5,0.7,8.5,2.9,11.6,6.2
										c0.9,0.9,1.7,1.9,2.4,2.9C446.2,210.9,448.3,220.1,446.8,229.9z"/>
								</g>
								
									<ellipse id="_Path_41" transform="matrix(0.9746 -0.2238 0.2238 0.9746 -41.2036 105.7913)" class="st50" cx="446.2" cy="234.7" rx="8.7" ry="5.9"/>
								<path class="st51" d="M443.5,207c2.2,4.7,4.8,16.2,3.3,21.5l-3.6,11.2c-2.8,9.5-15.2,18.2-25,17.9
									c5.3-1.3,11.7-4.6,14.6-8.8c4.6-6.8,5.5-18.2,5-23.3s-4.2-10.6-5.9-12.1s-7.1-1.6-17.2-3.7c-5.6-1.1-13.8,2.9-13.8,2.9
									c-1-5.2,8.6-13.6,11.7-15.4c5.1,1.4,17.5,4.7,23.2,5.5C438.3,203.1,440.9,204.7,443.5,207z"/>
							</g>
						</g>
					</g>
				</g>
			</g>
			
				<radialGradient id="SVGID_00000065052241507025926740000005514619859155217556_" cx="352.9613" cy="321.9073" r="5.36" gradientTransform="matrix(0.97 7.000000e-02 7.000000e-02 -1 36.71 533.54)" gradientUnits="userSpaceOnUse">
				<stop  offset="0" style="stop-color:#E98C4D"/>
				<stop  offset="0.84" style="stop-color:#E98C4D;stop-opacity:0"/>
			</radialGradient>
			<path style="opacity:0.4;fill:url(#SVGID_00000065052241507025926740000005514619859155217556_);enable-background:new    ;" d="
				M398.1,229.8c0,0-3.8,0.7-1.1,5.5c2.1,3.9,3.8,3.4,5,3.4c2.2,0,5.8-1.5,6-4.5S402.8,230.1,398.1,229.8z"/>
			
				<radialGradient id="SVGID_00000091714844352629615430000000355979548000443561_" cx="80.1938" cy="270.4081" r="5.36" gradientTransform="matrix(0.92 -0.33 -0.31 -0.94 443.22 514.92)" gradientUnits="userSpaceOnUse">
				<stop  offset="0" style="stop-color:#E98C4D"/>
				<stop  offset="0.84" style="stop-color:#E98C4D;stop-opacity:0"/>
			</radialGradient>
			<path style="opacity:0.4;fill:url(#SVGID_00000091714844352629615430000000355979548000443561_);enable-background:new    ;" d="
				M429.2,233.2c0,0-3.2,2.1,1,5.5c3.4,2.7,4.8,1.6,5.9,1.1c2.1-0.9,4.8-3.7,3.8-6.6S433.5,231.6,429.2,233.2z"/>
			
				<radialGradient id="SVGID_00000140717166456376008740000002331807168225705088_" cx="320.3669" cy="328.5641" r="7.14" gradientTransform="matrix(0.97 -2.000000e-02 -1.000000e-02 -1 110.75 549.79)" gradientUnits="userSpaceOnUse">
				<stop  offset="0" style="stop-color:#E98C4D"/>
				<stop  offset="0.84" style="stop-color:#E98C4D;stop-opacity:0"/>
			</radialGradient>
			<path style="opacity:0.4;fill:url(#SVGID_00000140717166456376008740000002331807168225705088_);enable-background:new    ;" d="
				M413.9,209.9c0,0-4.9,1.4-0.9,7.4c3.2,4.9,5.4,4.1,7,4c3-0.3,7.5-2.6,7.5-6.7S420.1,209.8,413.9,209.9z"/>
			<g id="_Group_34">
				<g id="_Group_35">
					<path id="_Path_42" class="st55" d="M426.5,230.6c0,0-2.2-9.6,3.5-11.1s9.5,5.5,8.9,7.4S435,234.4,426.5,230.6z"/>
					<path id="_Path_43" class="st5" d="M426.7,231.7c-0.9-1.2-1.2-2.9-0.8-5.1s1.6-4.2,3.8-4.8c5.7-1.5,9.4,4.9,8.8,6.8
						c-0.9,2.7-3.4,4.6-6.2,4.9C429.7,233.7,427.8,233.1,426.7,231.7z"/>
					<g id="_Group_36">
						<path id="_Path_44" class="st6" d="M426.1,228.8c0.9,2.4,3.5,3.6,5.9,2.8c0,0,0.1,0,0.1-0.1c2.5-1,3.7-3.7,2.8-6.2
							c-0.9-2.4-3.5-3.6-5.9-2.7c0,0-0.1,0-0.1,0C426.5,223.5,425.2,226.3,426.1,228.8z"/>
						<path id="_Path_45" class="st56" d="M427.7,228.1c0.5,1.5,2.2,2.3,3.7,1.8c0,0,0.1,0,0.1,0c1.6-0.6,2.3-2.4,1.8-3.9
							c-0.5-1.5-2.2-2.3-3.7-1.8c0,0-0.1,0-0.1,0C427.9,224.8,427.1,226.5,427.7,228.1z"/>
					</g>
					<path id="_Path_46" class="st57" d="M429.7,221.7c5.7-1.5,9.4,4.9,8.8,6.8c-0.7,2.1-2.4,3.8-4.5,4.5c1.7-1.3,5-4.2,2.4-7
						c-3.4-3.7-7.7-3.5-9.5-0.4c-0.5,1-0.9,2-1.2,3.1C425.7,226,426.4,222.6,429.7,221.7z"/>
					<g id="_Group_37">
						<path id="_Path_47" class="st56" d="M425.6,227.8c0.1-0.5,0.2-0.9,0.3-1.4c0.1-0.5,0.3-1,0.5-1.4c0.3-0.5,0.6-1.1,1-1.5
							c0.1-0.1,0.2-0.2,0.4-0.3l0.2-0.2l0.2-0.1l0.4-0.2l0.5-0.2l0.2-0.1h0.2l0.5-0.1c0.4,0,0.7,0,1.1,0l1.1,0.1l0.6,0.1l0.5,0.2
							c0.8,0.3,1.5,0.6,2.1,1.1c0.7,0.5,1.2,1.1,1.6,1.9c0.2,0.4,0.3,0.8,0.5,1.2c0.1,0.4,0.1,0.8,0.1,1.2c-0.1,0.8-0.3,1.5-0.8,2.2
							c-0.4,0.6-0.9,1.1-1.4,1.5c-0.5,0.4-1,0.7-1.5,1l-0.6,0.4l-0.6,0.3c-0.3,0.2-0.6,0.3-0.8,0.4l-0.3,0.1h0.3
							c0.3,0,0.6-0.1,0.9-0.1l0.6-0.1l0.7-0.2c0.3-0.1,0.5-0.2,0.8-0.3s0.6-0.3,0.9-0.4c0.7-0.4,1.3-0.9,1.8-1.5
							c0.7-0.8,1.1-1.8,1.2-2.8c0.1-0.6,0-1.2-0.1-1.8c-0.1-0.6-0.3-1.1-0.6-1.7c-0.5-1-1.2-1.8-2-2.4c-0.8-0.6-1.6-1-2.5-1.3
							l-0.7-0.2l-0.6-0.1l-1.3-0.1c-0.4,0-0.8,0.1-1.2,0.1l-0.6,0.2l-0.3,0.1l-0.3,0.1l-0.5,0.3l-0.5,0.4l-0.2,0.2l-0.2,0.2
							c-0.1,0.1-0.3,0.3-0.4,0.4c-0.4,0.6-0.8,1.2-1,1.9c-0.2,0.5-0.3,1.1-0.4,1.7c0,0.4,0,0.7,0,1.1
							C425.6,227.7,425.6,227.8,425.6,227.8z"/>
					</g>
				</g>
			</g>
			
				<ellipse transform="matrix(6.766698e-02 -0.9977 0.9977 6.766698e-02 169.5921 640.6968)" class="st58" cx="427.6" cy="229.6" rx="1.9" ry="1.8"/>
			
				<ellipse transform="matrix(6.766698e-02 -0.9977 0.9977 6.766698e-02 179.0545 642.1179)" class="st58" cx="433.1" cy="225.3" rx="1.2" ry="1.1"/>
			<g id="_Group_38">
				<g id="_Group_39">
					<path id="_Path_48" class="st55" d="M410.2,229.5c0,0,3.5-9.1-1.9-11.4s-10.2,4.2-9.9,6.1S401.2,232.1,410.2,229.5z"/>
					<path id="_Path_49" class="st5" d="M409.8,230.5c1-1,1.6-2.7,1.5-5s-1-4.4-3.1-5.3c-5.4-2.3-10,3.6-9.6,5.6
						c0.6,2.8,2.7,5,5.5,5.7C406.6,232.1,408.5,231.8,409.8,230.5z"/>
					<g id="_Group_40">
						<path id="_Path_50" class="st6" d="M410.8,227.7c-1.2,2.3-4,3.1-6.2,1.9c0,0-0.1,0-0.1-0.1c-2.3-1.3-3.1-4.2-1.9-6.5
							c1.2-2.3,4-3.1,6.2-1.9c0,0,0.1,0,0.1,0.1C411.1,222.5,412,225.4,410.8,227.7z"/>
						<path id="_Path_51" class="st56" d="M409.4,226.9c-0.8,1.5-2.6,2-4.1,1.2c-1.5-0.8-2-2.7-1.2-4.2c0.8-1.4,2.5-2,4-1.2
							c0,0,0.1,0,0.1,0C409.6,223.6,410.2,225.4,409.4,226.9z"/>
					</g>
					<path id="_Path_52" class="st57" d="M408.1,220.2c-5.4-2.3-10,3.6-9.6,5.6c0.4,2.2,1.9,4.1,3.9,5.1c-1.5-1.5-4.4-4.9-1.4-7.3
						c3.9-3.2,8.1-2.5,9.5,0.9c0.4,1,0.7,2.1,0.7,3.2C411.5,225.1,411.3,221.6,408.1,220.2z"/>
					<g id="_Group_41">
						<path id="_Path_53" class="st56" d="M411.4,226.8c0-0.5,0-1-0.1-1.4c-0.1-0.5-0.2-1-0.4-1.5c-0.2-0.6-0.5-1.1-0.8-1.6
							c-0.1-0.1-0.2-0.2-0.3-0.4l-0.2-0.2l-0.2-0.1l-0.4-0.3l-0.4-0.2l-0.2-0.1l-0.2-0.1l-0.5-0.2c-0.4-0.1-0.7-0.1-1.1-0.2h-1.1
							l-0.6,0.1l-0.6,0.1c-0.8,0.1-1.6,0.4-2.3,0.8c-0.7,0.4-1.4,1-1.9,1.6c-0.2,0.3-0.4,0.7-0.6,1.1c-0.1,0.4-0.2,0.8-0.3,1.2
							c0,0.8,0.1,1.6,0.5,2.2c0.3,0.6,0.7,1.2,1.2,1.7c0.4,0.4,0.9,0.8,1.3,1.2l0.6,0.4l0.5,0.4c0.3,0.2,0.6,0.4,0.8,0.5l0.3,0.2
							l-0.3-0.1c-0.3-0.1-0.6-0.2-0.8-0.2l-0.6-0.2l-0.7-0.3c-0.2-0.1-0.5-0.3-0.8-0.4s-0.5-0.3-0.8-0.6c-0.6-0.5-1.2-1.1-1.6-1.7
							c-0.6-0.9-0.8-1.9-0.8-3c0-0.6,0.1-1.2,0.3-1.8c0.2-0.6,0.5-1.1,0.8-1.6c0.6-0.9,1.4-1.6,2.4-2.1c0.8-0.5,1.7-0.8,2.7-0.9
							l0.7-0.1h0.6l1.3,0.1c0.4,0.1,0.8,0.2,1.2,0.3l0.6,0.2l0.3,0.1l0.3,0.2l0.5,0.3l0.4,0.4l0.2,0.2l0.2,0.2
							c0.1,0.2,0.2,0.3,0.3,0.5c0.3,0.6,0.6,1.3,0.7,2c0.1,0.6,0.1,1.1,0.1,1.7c0,0.4,0,0.7-0.1,1.1
							C411.4,226.7,411.4,226.8,411.4,226.8z"/>
					</g>
				</g>
			</g>
			
				<ellipse transform="matrix(6.766698e-02 -0.9977 0.9977 6.766698e-02 149.0056 614.5995)" class="st58" cx="403.4" cy="227.6" rx="1.9" ry="1.8"/>
			
				<ellipse transform="matrix(6.766698e-02 -0.9977 0.9977 6.766698e-02 157.6066 617.4613)" class="st58" cx="409.2" cy="224.4" rx="1.2" ry="1.1"/>
			<path class="st55" d="M412.9,232.8c1.1,1,2.5,1.6,4,1.8c1.5,0.3,3-0.2,4-1.2c0,0,0.9,1.1,0.3,2c-1.1,1.1-2.5,1.9-4,2.4
				C416.5,237.8,411.2,235.2,412.9,232.8z"/>
			
				<ellipse transform="matrix(6.766698e-02 -0.9977 0.9977 6.766698e-02 156.1848 634.3444)" class="st59" cx="417.5" cy="233.6" rx="0.6" ry="1.3"/>
			<path class="st60" d="M415.3,234.6c-0.2-0.1-0.4-0.2-0.7-0.2c-0.4,0-0.7,0.1-0.7,0.3s0.3,0.2,0.5,0.3c0.1,0.1,0.3,0.2,0.4,0.3
				c0.2,0.1,0.3,0.2,0.4,0.3c0.2,0.2,0.4,0.4,0.5,0.4s0.1-0.4-0.1-0.8C415.6,234.9,415.5,234.7,415.3,234.6z"/>
			<path class="st60" d="M420.5,234.7c0-0.1-0.3-0.2-0.6-0.2c-0.2,0-0.4,0.1-0.6,0.2c-0.2,0.1-0.3,0.3-0.4,0.5
				c-0.2,0.3-0.3,0.6-0.2,0.7s0.3-0.1,0.5-0.2c0.1-0.1,0.3-0.1,0.4-0.2c0.1-0.1,0.2-0.2,0.4-0.3C420.3,235,420.5,234.8,420.5,234.7z
				"/>
			<path class="st60" d="M414,234.9l-0.5-0.6c-0.1-0.1-0.1-0.2-0.2-0.2c0-0.1-0.1-0.1-0.1-0.2c0-0.2,0-0.4,0.1-0.6
				c0.2-0.5,0.8-0.8,0.8-0.9s-0.2,0-0.4,0c-0.3,0.1-0.6,0.3-0.8,0.5c-0.3,0.3-0.4,0.7-0.4,1.1c0,0.2,0.1,0.4,0.2,0.6
				c0.1,0.1,0.2,0.2,0.3,0.4l0.7,0.5c0.5,0.4,1,0.7,1.1,0.6S414.5,235.4,414,234.9z"/>
			<path class="st60" d="M421.7,234.6c0,0,0-0.1-0.1-0.4c0-0.1-0.1-0.3-0.2-0.4c-0.1-0.1-0.1-0.2-0.2-0.4c-0.3-0.5-0.7-0.9-0.7-0.8
				s0.1,0.6,0.3,1.1l0.1,0.4c0,0.1,0,0.2,0,0.3v0.3c0,0,0,0.1,0,0.1c0,0.2-0.2,0.3-0.3,0.4c-0.4,0.3-0.8,0.6-0.7,0.8s0.5,0,1-0.2
				c0.3-0.1,0.5-0.3,0.7-0.6C421.7,234.9,421.7,234.7,421.7,234.6z"/>
			<path class="st60" d="M419.7,232.9c0-0.1-0.5-0.5-1.1-0.7c-0.8-0.4-1.7-0.4-2.5-0.1c-0.6,0.1-1.2,0.4-1.2,0.6s0.6,0,1.2,0
				c0.8,0.1,1.5,0.1,2.3,0.1C419.1,232.9,419.7,233,419.7,232.9z"/>
			<path class="st60" d="M430.1,219.7c0,0-0.6,0.3-1.1,0.6c-0.7,0.5-1.3,1-1.9,1.7c-0.4,0.5-0.7,1.1-0.8,1c0.1-0.4,0.3-0.8,0.5-1.2
				c0.5-0.8,1.2-1.4,2-1.7C429.3,219.9,429.7,219.8,430.1,219.7z"/>
			<path class="st60" d="M429.2,219.1c0,0-0.5,0.3-1,0.7c-0.6,0.5-1.1,1.1-1.5,1.7c-0.3,0.5-0.5,1-0.6,1c0-0.4,0.1-0.8,0.4-1.1
				c0.3-0.7,0.9-1.4,1.6-1.8C428.4,219.3,428.8,219.1,429.2,219.1z"/>
			<path class="st60" d="M411.7,222.9c0,0-0.2-0.7-0.5-1.3c-0.4-0.9-0.8-1.7-1.3-2.5c-0.4-0.6-0.9-1.1-0.9-1.1
				c0.4,0.3,0.8,0.6,1.1,1c0.6,0.7,1.1,1.6,1.4,2.6C411.6,222,411.7,222.5,411.7,222.9z"/>
			<path class="st60" d="M411.5,220.5c0,0-0.2-0.3-0.4-0.6s-0.4-0.6-0.4-0.6s-0.1-0.3-0.3-0.6s-0.4-0.6-0.3-0.6s0.3,0.2,0.5,0.5
				c0.3,0.3,0.6,0.8,0.7,1.2C411.5,220,411.6,220.2,411.5,220.5z"/>
			<path class="st56" d="M400.9,216.2c0.1,0,0.3,0,0.4-0.1c1-0.3,1.8-0.8,2.8-1c1.2-0.2,2.4-0.3,3.7-0.1c1.1,0.1,2.7,0.8,3.7,0.3
				c1.2-0.6,1.5-2.8,0-3.3c-0.1,0.3-0.7,1.1-0.6,1.3c0-0.4,0.1-1.4-0.1-1.6s-1.2-0.3-1.5-0.3c-1.1-0.1-2.2,0-3.2,0.2
				c-2.4,0.3-4.5,1.6-6,3.5C399.1,216.1,400.1,216.3,400.9,216.2z"/>
			<path class="st61" d="M408,211.4v0.1c-0.2,0.6-0.3,1.2-0.3,1.2s-0.2,0.6-0.3,1.2c-0.1,0.4-0.2,0.9-0.3,1.1H407
				c0-0.4,0-0.8,0.1-1.1c0.1-0.6,0.2-1.2,0.2-1.2s0.2-0.6,0.4-1.2L408,211.4L408,211.4z M406,214.1c0-0.4,0.1-0.9,0.2-1.3
				c0.1-0.4,0.2-0.8,0.4-1.2h-0.3c-0.2,0.4-0.3,0.7-0.4,1.1c-0.1,0.5-0.1,0.9-0.1,1.4c0,0.3,0,0.6,0.1,0.9h0.2
				C406,214.7,406,214.4,406,214.1L406,214.1z M411.2,212.5c-0.1,0.5-0.2,1-0.3,1.4c-0.2,0.5-0.4,1.1-0.7,1.6l0,0h0.3
				c0.3-0.5,0.6-1,0.8-1.5c0,0,0.1-0.2,0.1-0.6c0.1-0.4,0.1-0.8,0.1-1.2c0-0.1,0-0.1,0-0.2h0C411.4,212.2,411.3,212.3,411.2,212.5
				L411.2,212.5z M401.7,215.3c0-0.3,0-0.7,0-1c0-0.3,0-0.7,0.1-1l0,0l-0.3,0.2c0,0.2-0.1,0.5-0.1,0.7c0,0.3,0,0.7,0.1,1
				c0,0.2,0.1,0.5,0.2,0.7h0.1C401.8,215.8,401.7,215.5,401.7,215.3L401.7,215.3z M408.6,212.7c0,0,0.1-0.7,0.2-1.3h-0.2
				c-0.2,0.6-0.4,1.2-0.4,1.2c-0.2,0.7-0.3,1.4-0.4,2.2C408.2,214.1,408.4,213.4,408.6,212.7L408.6,212.7z M403.3,212.7
				c0-0.1,0-0.2,0.1-0.3l-0.3,0.1l0,0c-0.3,0.7-0.4,1.5-0.2,2.2c0,0.2,0.1,0.5,0.2,0.7l0.1-0.1c0-0.2-0.1-0.4-0.1-0.6
				C403.1,214.1,403.1,213.4,403.3,212.7L403.3,212.7z"/>
			<path class="st61" d="M404.1,215.2c1.2-0.2,2.4-0.3,3.7-0.1c1.1,0.1,2.7,0.8,3.7,0.3c0.8-0.4,1.1-1.4,0.9-2.2
				c-0.4,1-1.9,1.4-3.4,0.9c-1.9-0.6-4.6,0.6-6.8,0.6c-0.9,0-1-0.4-0.9-1c-0.5,0.4-1,0.9-1.4,1.4c-0.8,1,0.2,1.2,1,1.1
				c0.1,0,0.3,0,0.4-0.1C402.2,215.9,403.1,215.4,404.1,215.2z"/>
			<path class="st56" d="M437.5,218.7c-0.1,0-0.3-0.1-0.4-0.1c-0.9-0.4-1.7-1-2.7-1.4c-1.2-0.4-2.4-0.6-3.6-0.6
				c-1.1,0-2.8,0.5-3.7-0.2c-1.1-0.8-1.1-2.9,0.5-3.2c0.2,0.5,0.4,0.9,0.5,1.4c0.1-0.4,0.1-1.4,0.4-1.6s1.2-0.1,1.5-0.1
				c1.1,0.1,2.1,0.3,3.2,0.6c2.3,0.6,4.3,2.2,5.5,4.2C439.3,218.8,438.3,218.9,437.5,218.7z"/>
			<path class="st61" d="M431.1,215.9c-0.1,0.2-0.1,0.5-0.2,0.7h-0.1c0-0.2,0.1-0.5,0.1-0.7l0.1-1.1l0.2-1.1l0.1-0.6h0.2
				c0,0.2,0,0.4,0,0.6c0,0.6-0.1,1.1-0.1,1.1S431.2,215.3,431.1,215.9z M434.7,217.3c0.1-0.2,0.2-0.7,0.4-1.1
				c0.2-0.6,0.6-1.2,0.6-1.2l0.1-0.3l-0.3-0.2l-0.2,0.3c-0.2,0.4-0.4,0.8-0.5,1.3C434.7,216.5,434.6,216.8,434.7,217.3L434.7,217.3z
				 M436.2,215c-0.3,0.5-0.5,1-0.5,1s-0.2,0.6-0.4,1.2c0,0.1-0.1,0.2-0.1,0.4l0.2,0.1l0.1-0.4c0.2-0.6,0.5-1.1,0.5-1.1
				s0.1-0.4,0.4-1L436.2,215z M428.1,216.3c-0.2-0.4-0.3-0.8-0.4-1.3c-0.1-0.4-0.2-0.9-0.2-1.3c0-0.2,0-0.4,0-0.6l-0.2,0.1
				c0,0.2-0.1,0.3-0.1,0.5c0,0.5,0,0.9,0.1,1.4c0.1,0.4,0.3,0.9,0.5,1.3l0.1,0.3h0.2L428.1,216.3z M429.6,215.7l-0.1-1.3l-0.2-1.3
				c0-0.1,0-0.2,0-0.3H429c0,0.1,0,0.2,0,0.4c0,0.6,0.1,1.3,0.1,1.3s0.1,0.6,0.2,1.3c0.1,0.4,0.2,0.7,0.2,0.9h0.1
				C429.6,216.4,429.6,216,429.6,215.7L429.6,215.7z M432.3,215.4c0,0,0.1-0.7,0.2-1.4c0-0.2,0.1-0.5,0.1-0.7l-0.2-0.1
				c0,0.2-0.1,0.5-0.1,0.7c-0.1,0.7-0.3,1.4-0.3,1.4s-0.1,0.6-0.3,1.3h0.3C432.1,216,432.3,215.4,432.3,215.4L432.3,215.4z"/>
			<path class="st61" d="M437.5,218.7c0.7,0.2,1.8,0.1,1.1-1c-0.4-0.8-1-1.5-1.7-2.1c0.3,0.7,0.7,2,0,1.9c-1-0.2-2.9-2.1-6.5-1.9
				c-2.9,0.2-3.8-0.9-4-1.4c-0.2,0.8,0.1,1.6,0.7,2.1c1,0.7,2.6,0.2,3.7,0.2c1.2,0,2.4,0.3,3.6,0.6c1,0.3,1.8,0.9,2.7,1.4
				C437.3,218.6,437.4,218.6,437.5,218.7z"/>
			<path class="st62" d="M412.2,245.1c0.4,1.5,2.2,1,3.4,0.9s2.2-0.1,3.4-0.1s2.1,0.1,3.2,0.1c0.7,0,1.5,0.2,2.1-0.3
				c1.1-1.2-0.4-3.3-1.4-4c-1.3-0.9-2.9-1.4-4.5-1.4c-1.4,0-2.9,0.4-4.1,1.1C413.2,242.2,411.9,243.6,412.2,245.1L412.2,245.1z"/>
			<g>
				<defs>
					<path id="SVGID_00000052788600294485046520000004464125919728010921_" d="M412.2,245.1c0.4,1.5,2.2,1,3.4,0.9s2.2-0.1,3.4-0.1
						s2.1,0.1,3.2,0.1c0.7,0,1.5,0.2,2.1-0.3c1.1-1.2-0.4-3.3-1.4-4c-1.3-0.9-2.9-1.4-4.5-1.4c-1.4,0-2.9,0.4-4.1,1.1
						C413.2,242.2,411.9,243.6,412.2,245.1L412.2,245.1z"/>
				</defs>
				<clipPath id="SVGID_00000116934176329928012910000000906525872624366256_">
					<use xlink:href="#SVGID_00000052788600294485046520000004464125919728010921_"  style="overflow:visible;"/>
				</clipPath>
				<g style="clip-path:url(#SVGID_00000116934176329928012910000000906525872624366256_);">
					<path class="st64" d="M412.6,246.5c0.2,0,0.8-0.8,1-0.9c0.7-0.6,1.5-1,2.3-1.3c1.6-0.6,3.5-0.6,5.1,0.2c0.5,0.2,3,1.6,2.8,2.4
						C423.7,247.1,412.7,246.5,412.6,246.5z"/>
					<path class="st5" d="M423.5,241c0,0-5.8-2.7-10.4,0C413.1,241,419.4,242.9,423.5,241"/>
				</g>
			</g>
			<path class="st5" d="M423.5,241"/>
			<path class="st65" d="M396,208l4.3,4.3c0,0,2-8,19.2-5.5s-15.9-16-19.6-14S392.9,200.7,396,208z"/>
			<path class="st66" d="M440.7,208.4c0,0-16.9,1.9-25.5-3.6s-15.9-8-18.1-5c-2.1,2.8,6-0.9,3.9,12.4c-1.2,7.9-1.6,23.7-1.9,24.4
				c-0.1-4.7-1.6-16.6-3.1-19.6c-4.6-8.9-11.9-15.7-2.5-29.1c5.8-8.2,15.6-12.1,20.1-7.9c14.9,13.6,35.3-4.1,35.4,18.4
				c0,0,10,7.7-0.2,30.2c-2.3,0-3,2.8-3,4.2l-1.9,4C437.9,228,439.1,211.7,440.7,208.4z"/>
		</g>
	</g>
</g>
</svg>
