<?xml version="1.0" encoding="utf-8"?>
<!-- Generator: Adobe Illustrator 27.5.0, SVG Export Plug-In . SVG Version: 6.00 Build 0)  -->
<svg version="1.1" id="Layer_1" xmlns="http://www.w3.org/2000/svg" xmlns:xlink="http://www.w3.org/1999/xlink" x="0px" y="0px"
	 viewBox="0 0 685 430.2" style="enable-background:new 0 0 685 430.2;" xml:space="preserve">
<style type="text/css">
	.st0{fill:none;}
	.st1{fill:#E2E8F5;}
	.st2{fill:#FFFAFB;}
	.st3{fill:#B1C0E2;}
	.st4{fill:#FFFFFF;}
	.st5{fill:#9DACC6;}
	.st6{fill:#6A61AF;}
	.st7{fill:#F1F2F3;}
	.st8{fill:#CFD8E8;}
	.st9{fill:#EDF1F9;}
	.st10{fill:#222A48;}
	.st11{clip-path:url(#SVGID_00000039822887458252183890000003660975811307759256_);}
	.st12{fill:#ABC4C8;}
	.st13{fill:#5B4E99;}
	.st14{fill:#7A9297;}
	.st15{fill:#48417C;}
	.st16{fill:#00000F;}
	.st17{fill:#141A33;}
	.st18{fill:#030822;}
	.st19{fill:#C83C4A;}
	.st20{fill:#DA5252;}
	.st21{fill:#EC6957;}
	.st22{fill:#D84743;}
	.st23{fill:#F2DDDC;}
	.st24{fill:#EA5A50;}
	.st25{fill:#AC3C31;}
	.st26{fill:#F6F5F4;}
	.st27{fill:#9E9BA5;}
	.st28{fill:#3C3C6B;}
	.st29{fill:#F08A71;}
	.st30{fill:#DF7668;}
	.st31{opacity:0.2;fill:#C14A44;enable-background:new    ;}
	.st32{fill:#2C3049;}
	.st33{fill:#3A3F57;}
	.st34{fill:#242942;}
	.st35{clip-path:url(#SVGID_00000057132771643270625230000000245846980755152310_);}
	.st36{fill:url(#SVGID_00000121274056633539615480000015446140539878633865_);}
	.st37{opacity:0.21;fill:#231F20;enable-background:new    ;}
	.st38{opacity:0.66;fill:#FFFFFF;enable-background:new    ;}
	.st39{fill:#BF875B;}
	.st40{clip-path:url(#SVGID_00000097479918395222597750000001332045536651815847_);}
	.st41{fill:url(#SVGID_00000111898891572554116740000005686111271818515352_);}
	.st42{fill:#EF9D95;}
	.st43{fill:#3B3A3A;}
	.st44{fill:#242525;}
</style>
<g>
	<g id="Layer_2_00000139264566703506550670000002004703992441466764_">
		<g id="OBJECTS">
			<rect y="-55" class="st0" width="685" height="485.2"/>
			<path class="st1" d="M252.6,383.6c-38.7-0.1-70.1-31.5-70.2-70.2l0,0c0.1-38.7,31.5-70.1,70.2-70.2l0,0
				c16.4,0,29.6-13.3,29.7-29.7l0,0c0-16.4-13.3-29.6-29.7-29.7h-3.5c-17-0.1-30.8-13.8-30.9-30.9l0,0c0.1-17,13.8-30.8,30.9-30.9
				h10.8c6.6,0,12-5.4,12-12l0,0c0-6.6-5.4-12-12-12h-8c-4.6,0-8.3-3.7-8.3-8.3l0,0c0-4.6,3.7-8.3,8.3-8.3h53.5c7.2,0,13-5.8,13-13
				l0,0c0-7.2-5.8-13-13-13h-16c-4.6,0-8.3-3.7-8.3-8.3l0,0c0-4.6,3.7-8.3,8.3-8.3h234.4c6,0,10.8,4.9,10.8,10.8l0,0
				c0,6-4.9,10.8-10.8,10.8h-16.4c-9.4,0-17,7.6-17,17l0,0c0,9.4,7.6,17,17,17H571c6,0,10.8,4.9,10.8,10.8l0,0
				c-0.1,5.9-4.9,10.7-10.8,10.7h-10.4c-8.7,0-15.7,7-15.7,15.7l0,0c0,8.7,7,15.7,15.7,15.7h14.1c22.2,0.1,40.2,18,40.3,40.3l0,0
				c-0.1,22.2-18.1,40.2-40.3,40.3h-4.6c-21.4,0.1-38.7,17.4-38.7,38.7l0,0c0.1,21.4,17.4,38.7,38.7,38.7h10c21.5,0.1,39,17.5,39,39
				l0,0c-0.1,21.5-17.5,39-39,39H252.6V383.6z M551.6,60.5c6,0,10.8-4.8,10.8-10.8s-4.8-10.8-10.8-10.8s-10.8,4.8-10.8,10.8
				C540.8,55.6,545.6,60.5,551.6,60.5L551.6,60.5z M228.7,98c4.6,0,8.3-3.7,8.3-8.3s-3.7-8.3-8.3-8.3s-8.3,3.7-8.3,8.3l0,0
				C220.4,94.3,224.1,98,228.7,98z"/>
			<rect x="476.9" y="223.4" class="st1" width="51.4" height="160.2"/>
			<path class="st2" d="M476.9,383.6V236.4h27.2c5.6,0,10.1,4.5,10.1,10.1v137L476.9,383.6z"/>
			<path class="st3" d="M523.6,223.4h69.8c-5.8,3.1-12.2,4.6-18.7,4.6h-4.6c-21.4,0.1-38.7,17.4-38.7,38.7l0,0
				c0.1,21.4,17.4,38.7,38.7,38.7h10c21.5,0.1,39,17.5,39,39l0,0c-0.1,21.5-17.5,39-39,39h-56.5V223.4z"/>
			<path class="st1" d="M534.5,383.6V281.8c6.1,14.3,20.1,23.6,35.7,23.6h10c21.5,0.1,39,17.5,39,39l0,0c-0.1,21.5-17.5,39-39,39
				L534.5,383.6z M534.5,251.6v-5.1c0-5.6,4.5-10.1,10.1-10.1h1.5C541,240.5,537,245.7,534.5,251.6z"/>
			<path class="st4" d="M599.7,219.3H475.4c-2.6,0-4.8,2.2-4.8,4.8l0,0c0,2.6,2.2,4.8,4.8,4.8h86.4c2.7-0.6,5.5-0.9,8.2-0.9h4.6
				C583.8,228,592.6,224.9,599.7,219.3z"/>
			<rect x="412.8" y="56.8" class="st5" width="63.5" height="59.7"/>
			<rect x="410.8" y="54.3" class="st3" width="63.5" height="59.7"/>
			<path class="st3" d="M377.9,38.8v344.7H252.6c-38.7-0.1-70.1-31.5-70.2-70.2l0,0c0.1-38.7,31.5-70.1,70.2-70.2l0,0
				c16.4,0,29.6-13.3,29.7-29.7l0,0c0-16.4-13.3-29.6-29.7-29.7h-3.5c-17-0.1-30.8-13.8-30.9-30.9l0,0c0.1-17,13.8-30.8,30.9-30.9
				h10.8c6.6,0,12-5.4,12-12l0,0c0-6.6-5.4-12-12-12h-8c-4.6,0-8.3-3.7-8.3-8.3l0,0c0-4.6,3.7-8.3,8.3-8.3h53.5c7.2,0,13-5.8,13-13
				l0,0c0-7.2-5.8-13-13-13h-16c-4.6,0-8.3-3.7-8.3-8.3l0,0c0-4.6,3.7-8.3,8.3-8.3L377.9,38.8z M228.7,98c4.6,0,8.3-3.7,8.3-8.3
				s-3.7-8.3-8.3-8.3s-8.3,3.7-8.3,8.3l0,0C220.4,94.3,224.1,98,228.7,98z"/>
			<path class="st6" d="M366,38.8v3.6h11.9v0.3h-32.2v11.7h32.2v0.4H366v11.7h11.9v0.3h-32.2v11.7h32.2v0.4H366v11.7h11.9V91h-32.2
				v11.7h32.2v0.4H366v11.7h11.9v0.4h-32.2v11.7h32.2v0.4H366V139h11.9v0.4h-32.2v11.7h32.2v0.4H366v11.7h11.9v0.3h-32.2v11.7h32.2
				v0.3H366v11.7h11.9v0.3h-32.2v11.7h32.2v0.4H366v11.7h11.9v0.4h-32.2v11.7h32.2v0.4H366v11.7h11.9v0.4h-32.2v11.7h32.2v0.4H366
				v11.7h11.9v0.4h-32.2v11.7h32.2v0.4H366v11.7h11.9v0.4h-32.2V296h32.2v0.4H366v11.7h11.9v0.4h-32.2V319h32.2v0.4H366V331h11.9
				v0.4h-32.2V343h32.2v0.4H366V355h11.9v0.4h-32.2V367h32.2v0.4H366V379h11.9v0.4h-32.2v4.1h-0.4v-4.1H305v4.1h-0.4v-4.1h-40.2v4.1
				H264v-4.1h-35.2l-1-0.4h15.9v-11.6h-35.9l-0.4-0.4h16.1v-11.7h-27.1l-0.3-0.4h7.1v-11.7h-14.1L189,343h34.6v-11.7h-38.8l-0.1-0.4
				h18.6v-11.7h-20.6c0-0.1,0-0.2,0-0.4h0.3v-11.7h-0.3v-0.4h20.6V295h-18.5l0.1-0.4h38.7v-11.7h-34.3l0.2-0.4h13.9v-11.7h-6.7
				l0.3-0.4h26.7v-11.7h-15.5l0.4-0.4h35.3v-11.7h-14.5l1-0.4h33.8v-6l0.4-0.2v6.1h40.2v-11.7h-31.9l0.4-0.4h11.2v-11.7h-3.8
				l0.1-0.4h23.9v-11.7h-22.5c0-0.1,0-0.2,0-0.4h2.3v-11.7h-5.9l-0.2-0.4h26.4V187H266l-0.7-0.4h19.1V175h-40.2v8.4l-0.4-0.1V175
				h-16.3l-0.4-0.4H264V163h-40.2v7.8l-0.4-0.5V163h-3.7l-0.1-0.4h24.1V151h-25.6c0-0.1,0-0.2,0-0.4h5.3v-11.7h-2l0.2-0.4h22.1
				v-11.7h-11.3l0.6-0.4h31v-5.3l0.4-0.1v5.4h40.2v-11.7h-33.8l0.1-0.4h13.4v-11.7h-14.9l-0.3-0.4h35.5V90.5h-40.2v8.2l-0.4-0.1v-8
				h-20.4c0-0.1,0-0.2,0-0.4h0.2v-2.6c0.1-0.4,0.2-0.8,0.4-1.2v3.7h40.2v-9h0.4v9H325V78.4h-11.7l0.5-0.4h31.5V66.3h-26.9
				c0-0.1,0-0.2,0-0.3h6.6V54.3h-38.7c-0.3-0.1-0.5-0.2-0.8-0.4h19.2V42.8h-22.3l0.2-0.3h1.8v-1.9l0.4-0.3v2.1H325v-3.6h0.4v3.6
				h40.2v-3.6C365.6,38.8,366,38.8,366,38.8z M236.9,90.8c0-0.1,0-0.2,0-0.4h-16.5c0,0.1,0,0.2,0,0.4h3.1v5.4l0.4,0.3v-5.7H236.9z
				 M365.6,367.4h-40.2v11.7h40.2V367.4z M325,367.4h-40.2v11.7H325V367.4L325,367.4z M284.4,367.4h-40.2v11.7h40.2V367.4
				L284.4,367.4z M345.3,355.4h-40.2V367h40.2V355.4L345.3,355.4z M304.7,355.4h-40.2V367h40.2V355.4L304.7,355.4z M264.1,355.4
				h-40.2V367h40.2V355.4L264.1,355.4z M365.6,343.4h-40.2V355h40.2V343.4L365.6,343.4z M325,343.4h-40.2V355H325V343.4L325,343.4z
				 M284.4,343.4h-40.2V355h40.2V343.4L284.4,343.4z M243.9,343.4h-40.2V355h40.2V343.4L243.9,343.4z M345.3,331.4h-40.2V343h40.2
				V331.4L345.3,331.4z M304.7,331.4h-40.2V343h40.2V331.4L304.7,331.4z M264.1,331.4h-40.2V343h40.2V331.4L264.1,331.4z
				 M365.6,319.4h-40.2V331h40.2V319.4L365.6,319.4z M325,319.4h-40.2V331H325V319.4L325,319.4z M284.4,319.4h-40.2V331h40.2V319.4
				L284.4,319.4z M243.9,319.4h-40.2V331h40.2V319.4L243.9,319.4z M345.3,307.4h-40.2v11.7h40.2V307.4L345.3,307.4z M304.7,307.4
				h-40.2v11.7h40.2V307.4L304.7,307.4z M264.1,307.4h-40.2v11.7h40.2V307.4L264.1,307.4z M223.6,307.4h-40.2v11.7h40.2V307.4
				L223.6,307.4z M365.6,295.4h-40.2v11.7h40.2V295.4L365.6,295.4z M325,295.4h-40.2v11.7H325V295.4L325,295.4z M284.4,295.4h-40.2
				v11.7h40.2V295.4L284.4,295.4z M243.8,295.4h-40.2v11.7h40.2V295.4L243.8,295.4z M345.3,283.4h-40.2v11.7h40.2V283.4L345.3,283.4
				z M304.7,283.4h-40.2v11.7h40.2V283.4L304.7,283.4z M264.1,283.4h-40.2v11.7h40.2V283.4L264.1,283.4z M365.6,271.4h-40.2v11.7
				h40.2v-11.9V271.4z M325,271.4h-40.2v11.7H325v-11.9V271.4z M284.4,271.4h-40.2v11.7h40.2v-11.9V271.4z M243.8,271.4h-40.2v11.7
				h40.2v-11.9V271.4z M345.3,259.4h-40.2v11.7h40.2v-11.9V259.4z M304.7,259.4h-40.2v11.7h40.2v-11.9V259.4z M264.1,259.4h-40.2
				v11.7h40.2v-11.9V259.4z M365.6,247.4h-40.2v11.7h40.2v-11.9V247.4z M325,247.4h-40.2v11.7H325v-11.9V247.4z M284.4,247.4h-40.2
				v11.7h40.2v-11.9V247.4z M345.3,235.4h-40.2v11.7h40.2v-11.9V235.4z M365.6,223.4h-40.2v11.7h40.2v-12V223.4z M325,223.4h-40.2
				v11.7H325v-12V223.4z M345.3,211.4h-40.2v11.7h40.2v-12V211.4z M365.6,199.4h-40.2v11.7h40.2v-12V199.4z M325,199.4h-40.2v11.7
				H325v-12V199.4z M345.3,187.4h-40.2v11.3h40.2V187V187.4z M365.6,175.4h-40.2v11.7h40.2V175V175.4z M325,175h-40.2v11.7H325V175z
				 M345.3,163h-40.2v11.7h40.2V163L345.3,163z M304.7,163h-40.2v11.7h40.2V163L304.7,163z M365.6,151h-40.2v11.7h40.2V151
				L365.6,151z M325,151h-40.2v11.7H325V151z M284.4,151h-40.2v11.7h40.2V151L284.4,151z M345.3,139h-40.2v11.6h40.2V139L345.3,139z
				 M304.7,139h-40.2v11.6h40.2V139L304.7,139z M264.1,139h-40.2v11.6h40.2V139L264.1,139z M365.6,127h-40.2v11.7h40.2V127
				L365.6,127z M325,127h-40.2v11.7H325V127L325,127z M284.4,127h-40.2v11.7h40.2V127L284.4,127z M345.3,115h-40.2v11.7h40.2v-11.8
				V115z M365.6,103h-40.2v11.7h40.2v-11.8V103z M325,103h-40.2v11.7H325v-11.8V103z M345.3,91h-40.2v11.7h40.2V90.9V91z M365.6,79
				h-40.2v11.7h40.2V78.9V79z M365.6,55h-40.2v11.7h40.2V54.8V55z M345.3,43h-40.2v11.7h40.2V43z"/>
			<path class="st7" d="M419.5,74.7h0.2c0.1,0,0.2,0.1,0.3,0.2v0.6h3.1v-0.9c0-0.1,0.1-0.2,0.3-0.2h3.3c0.1,0,0.3,0.1,0.3,0.2v2.1
				h1.3v-0.9c0-0.1,0-0.1,0.1-0.2c0.1,0,0.1-0.1,0.2-0.1h1.2c0.1,0,0.3,0.1,0.3,0.2V84h1.2c0.1,0,0.1,0,0.2,0.1c0,0,0.1,0.1,0.1,0.2
				V86h1v-0.4c0-0.1,0.1-0.2,0.3-0.2h0.6c0.1,0,0.2,0.1,0.3,0.2v-8.2c0-0.1,0.1-0.2,0.2-0.2l0.3-0.1l0,0c0-0.1,0-0.2,0-0.2
				c0-0.3,0-0.5,0-0.8c0-0.1,0.1-0.2,0.3-0.2h0.4v-4.7c0-0.1,0.1-0.2,0.3-0.2l0,0h0.5v-2c0-0.1,0.1-0.2,0.3-0.2h0.2
				c0-0.1,0-0.3,0-0.4c0-0.5,0-1,0-1.5c0-0.1,0-0.1,0.1-0.2c0.1,0,0.1-0.1,0.2-0.1h4c0.1,0,0.3,0.1,0.3,0.2v1.9c0.1,0,0.3,0,0.4,0.1
				c0.1,0,0.1,0.1,0.1,0.2v1.8h0.5c0.1,0,0.3,0.1,0.3,0.2l0,0v4.7h0.5c0.1,0,0.3,0.1,0.3,0.2l0,0v1h0.2c0.1,0,0.3,0.1,0.3,0.2v18.4
				h2V81.1c0-0.1,0-0.2,0-0.3s0-0.2,0.1-0.3s0.2-0.1,0.3-0.1l0,0v-1c0-0.1,0.1-0.2,0.3-0.2h0.4c0-0.2,0-0.3,0-0.5c0-0.5,0-1,0-1.5
				c0-0.2,0-0.3,0-0.5c0-0.1,0.1-0.2,0.2-0.3l0,0v-0.1c0-0.1,0-0.3,0-0.4c0-0.1,0-0.3,0-0.4c0-0.1,0.1-0.2,0.3-0.2h2
				c0.1,0,0.2,0,0.2,0.1c0-0.3,0-0.7,0-1c0-0.1,0.1-0.2,0.3-0.2h2.1c0.1,0,0.3,0.1,0.3,0.2v1.9l0,0c0.1,0,0.2,0.1,0.3,0.2
				c0.1,0,0.1,0.1,0.1,0.2v2.5h0.4c0.1,0,0.2,0.1,0.2,0.2l0.1,1l0.1,0.1c0.1,0.1,0.2,0.2,0.2,0.3l0,0v12.5h1.9v-1.9
				c0-0.1,0-0.1,0.1-0.2c0.1,0,0.1-0.1,0.2-0.1h0.7c0.1,0,0.2,0.1,0.3,0.2v1.9h1.3c0.1,0,0.2,0.1,0.3,0.2V94h0.2v-1.3
				c0-0.1,0.1-0.2,0.3-0.2h1.9c0.1,0,0.3,0.1,0.3,0.2c0,0.2,0,0.4,0,0.6h0.1h1.8c0.1,0,0.3,0.1,0.3,0.2V94l0,0
				c0-0.1,0.1-0.2,0.1-0.2c0-0.2,0-0.4,0-0.6c0-0.2,0-0.5,0-0.8c0-0.1,0.1-0.2,0.3-0.2h1.5V63.6h1v40.6h-46L419.5,74.7z"/>
			<path class="st3" d="M571.4,126.8c-8.7-8.8-15.1,2.4-14.2,13.6c0.8,10.7,10,47.3,8.3,62.7h3.5
				C577.7,183.3,582.5,138.1,571.4,126.8z"/>
			<path class="st2" d="M567.8,203.1c8.4-31.1-2.2-74.2-2.3-74.3c-0.1-0.3-0.3-0.4-0.6-0.4c-0.3,0.1-0.4,0.3-0.4,0.6
				c0,0.1,10.7,43.2,2.2,74.1H567.8z"/>
			<path class="st4" d="M550,146.2c-9.1-4.8-11.4,5.7-7.9,14.5c3,7.2,16,28.6,20.9,42.4h4.6C568.1,184.1,560.8,151.9,550,146.2z"/>
			<path class="st8" d="M566,203.1c-3-25.7-20.1-53.7-20.2-53.8c-0.1-0.2-0.3-0.3-0.5-0.2s-0.3,0.3-0.2,0.5c0,0,0,0.1,0.1,0.1
				c0.1,0.1,17,27.9,20.1,53.3h0.7V203.1z"/>
			<path class="st8" d="M588.6,158.4c8.8-3.9,10.3,6.1,6.3,14c-2.7,5.3-12.2,19-18.7,30.6h-7.4C571.4,185.5,579.5,162.4,588.6,158.4
				z"/>
			<path class="st2" d="M571.5,203.1c6.3-21.3,20.8-41.4,20.8-41.5c0.1-0.2,0.3-0.3,0.5-0.2s0.3,0.3,0.2,0.5c0,0,0,0.1-0.1,0.1
				c-0.1,0.1-14.4,20-20.7,41L571.5,203.1z"/>
			<path class="st5" d="M557.5,196.1h25.9c0.8,0,1.4,0.6,1.4,1.4v6.4c0,0.8-0.6,1.4-1.4,1.4h-25.9c-0.8,0-1.4-0.6-1.4-1.4v-6.4
				C556.1,196.7,556.7,196.1,557.5,196.1z"/>
			<polygon class="st5" points="562,201.3 579,201.3 583.5,205.3 579.8,219.3 570.5,219.3 561.2,219.3 557.5,205.3 			"/>
			<polygon class="st3" points="583.5,205.3 582.7,208.2 558.3,208.2 557.5,205.3 			"/>
			<polygon class="st5" points="533.3,201.3 514.2,201.3 522.5,219.3 541.7,219.3 			"/>
			<polygon class="st3" points="498.8,182.4 538,182.4 529.1,219.3 489.9,219.3 			"/>
			<polygon class="st4" points="503.6,189.2 529.9,189.2 524.3,212.5 498,212.5 			"/>
			<polygon class="st1" points="520.1,212.5 498,212.5 501.3,198.8 504.5,196.7 515.5,206.5 			"/>
			<polygon class="st9" points="526.3,204.2 524.3,212.5 498,212.5 498.6,210 518.1,196.9 			"/>
			<path class="st4" d="M588.5,280.6L588.5,280.6c2.7,0,4.8,2.2,4.8,4.8l0,0c0,2.7-2.2,4.8-4.8,4.8l0,0c-2.7,0-4.8-2.2-4.8-4.8l0,0
				C583.7,282.8,585.8,280.7,588.5,280.6z"/>
			<path class="st4" d="M533.8,293.9h13.3c1,0,1.9-0.8,1.9-1.8l0,0l0,0c0-1-0.8-1.8-1.8-1.8h-18c-2.7,0-4.8-2.2-4.8-4.8l0,0
				c0-2.7,2.2-4.8,4.8-4.8h46.7c2.7,0,4.8,2.2,4.8,4.8l0,0c0,2.7-2.2,4.8-4.8,4.8h-16.3c-1,0-1.8,0.8-1.8,1.8l0,0
				c0,1,0.8,1.8,1.8,1.8h6.3c2,0,3.7,1.7,3.7,3.7l0,0c0,2-1.7,3.7-3.7,3.7h-10.4c-4.1,0-7.4,3.3-7.4,7.4v3.4c0,1-0.8,1.7-1.7,1.7
				l0,0c-1,0-1.7-0.8-1.7-1.7v-6.4c0-2.4-1.9-4.3-4.3-4.3h-6.5c-2,0-3.7-1.7-3.7-3.7l0,0C530.1,295.6,531.7,294,533.8,293.9z"/>
			<circle class="st4" cx="322.7" cy="193.3" r="1"/>
			<circle class="st4" cx="475.1" cy="170.3" r="1"/>
			<circle class="st4" cx="396" cy="106.8" r="1"/>
			<circle class="st4" cx="315" cy="235.8" r="1"/>
			<circle class="st4" cx="458.7" cy="241.5" r="1"/>
			<circle class="st4" cx="476.7" cy="134.2" r="1"/>
			<circle class="st4" cx="301.2" cy="115.9" r="1"/>
			<circle class="st4" cx="502.2" cy="129.1" r="2.1"/>
			<circle class="st4" cx="453.8" cy="154" r="2.1"/>
			<circle class="st4" cx="362.5" cy="97.2" r="2.1"/>
			<circle class="st4" cx="325.2" cy="138.9" r="2.1"/>
			<circle class="st4" cx="345.3" cy="243.1" r="2.1"/>
			<circle class="st4" cx="458.7" cy="242.7" r="2.1"/>
			<path class="st10" d="M415.1,122.8c-4.9,4.5-8.1,10.5-9.1,17.1c-1.4,10.3,8.1,22.9,8.1,22.9L415.1,122.8z"/>
			<g>
				<g>
					<defs>
						<rect id="SVGID_1_" x="131" y="91.9" width="432.4" height="293.3"/>
					</defs>
					<clipPath id="SVGID_00000086677013595990132270000015342233090994217863_">
						<use xlink:href="#SVGID_1_"  style="overflow:visible;"/>
					</clipPath>
					<g style="clip-path:url(#SVGID_00000086677013595990132270000015342233090994217863_);">
						<path class="st3" d="M158.8,235.7L158.8,235.7c0.9,0,1.6,0.7,1.6,1.6v3c0,0.9-0.7,1.6-1.6,1.6l0,0c-0.9,0-1.6-0.7-1.6-1.6v-3
							C157.2,236.5,157.9,235.7,158.8,235.7z"/>
						<path class="st3" d="M158.8,243L158.8,243c0.9,0,1.6,0.7,1.6,1.6v3c0,0.9-0.7,1.6-1.6,1.6l0,0c-0.9,0-1.6-0.7-1.6-1.6v-3
							C157.2,243.7,157.9,243,158.8,243z"/>
						<path class="st3" d="M158.8,250.1L158.8,250.1c0.9,0,1.6,0.7,1.6,1.6v3c0,0.9-0.7,1.6-1.6,1.6l0,0c-0.9,0-1.6-0.7-1.6-1.6v-3
							C157.2,250.8,157.9,250.1,158.8,250.1z"/>
						<path class="st12" d="M158.8,257.3L158.8,257.3c0.9,0,1.6,0.7,1.6,1.6v3c0,0.9-0.7,1.6-1.6,1.6l0,0c-0.9,0-1.6-0.7-1.6-1.6v-3
							C157.2,258,157.9,257.3,158.8,257.3z"/>
						<path class="st12" d="M158.8,264.4L158.8,264.4c0.9,0,1.6,0.7,1.6,1.6v3c0,0.9-0.7,1.6-1.6,1.6l0,0c-0.9,0-1.6-0.7-1.6-1.6v-3
							C157.2,265.1,157.9,264.4,158.8,264.4z"/>
						<path class="st12" d="M158.8,271.5L158.8,271.5c0.9,0,1.6,0.7,1.6,1.6v3c0,0.9-0.7,1.6-1.6,1.6l0,0c-0.9,0-1.6-0.7-1.6-1.6v-3
							C157.2,272.3,157.9,271.5,158.8,271.5z"/>
						<path class="st12" d="M158.8,278.7L158.8,278.7c0.9,0,1.6,0.7,1.6,1.6v3c0,0.9-0.7,1.6-1.6,1.6l0,0c-0.9,0-1.6-0.7-1.6-1.6v-3
							C157.2,279.4,157.9,278.7,158.8,278.7z"/>
						<path class="st12" d="M158.8,285.8L158.8,285.8c0.9,0,1.6,0.7,1.6,1.6v3c0,0.9-0.7,1.6-1.6,1.6l0,0c-0.9,0-1.6-0.7-1.6-1.6v-3
							C157.2,286.5,157.9,285.8,158.8,285.8z"/>
						<path class="st4" d="M159.9,290.1c0.7,0,1.2,0.5,1.4,1.1l3.9,12.4c0.2,0.4,0,0.8-0.4,1c-0.1,0-0.2,0.1-0.3,0.1h-11.3
							c-0.4,0-0.8-0.3-0.8-0.7c0-0.1,0-0.2,0.1-0.3l3.9-12.4c0.2-0.6,0.8-1,1.4-1.1h2.1V290.1z"/>
						<path class="st13" d="M189.1,243.3h4.2c1,0,1.8,0.8,1.8,1.8v384.2c0,1-0.8,1.8-1.8,1.8h-4.2c-1,0-1.8-0.8-1.8-1.8V245.1
							C187.2,244.1,188,243.3,189.1,243.3z"/>
						<path class="st13" d="M185.4,210H197c2.8,0,5.1,2.3,5.1,5v32.6c0,2.8-2.3,5-5.1,5h-11.6c-2.8,0-5.1-2.3-5.1-5V215
							C180.3,212.3,182.6,210,185.4,210z"/>
						<path class="st14" d="M185.4,614.8H197c2.8,0,5.1,2.3,5.1,5v22.5c0,2.8-2.3,5-5.1,5h-11.6c-2.8,0-5.1-2.3-5.1-5v-22.5
							C180.3,617.1,182.6,614.8,185.4,614.8z"/>
						<path class="st14" d="M213.3,650H169c-2.4,0-4.3-2-4.3-4.3l0,0c0-2.4,1.9-4.3,4.3-4.4h44.3c2.4,0,4.3,1.9,4.3,4.3l0,0
							C217.7,648,215.7,650,213.3,650z"/>
						<path class="st1" d="M191.2,160.7h20.5c3.4,0.2,6.4,2.5,7.5,5.7l20.6,65.2c1,3.1-0.8,5.7-3.9,5.7h-89.5
							c-3.1,0-4.9-2.6-3.9-5.7l20.6-65.2c1.1-3.2,4.1-5.5,7.5-5.7L191.2,160.7L191.2,160.7z"/>
						<path class="st3" d="M230.8,203.1l2.4,7.4h-83.9l2.4-7.4H230.8z M234.6,215l4.7,14.9h-96.2l4.7-14.9H234.6z"/>
						<circle class="st1" cx="158.8" cy="242.5" r="0.9"/>
						<circle class="st1" cx="158.8" cy="249.6" r="0.9"/>
						<circle class="st1" cx="158.8" cy="256.7" r="0.9"/>
						<circle class="st14" cx="158.8" cy="263.9" r="0.9"/>
						<circle class="st14" cx="158.8" cy="271" r="0.9"/>
						<circle class="st14" cx="158.8" cy="278.2" r="0.9"/>
						<circle class="st14" cx="158.8" cy="285.3" r="0.9"/>
						<path class="st13" d="M344.9,370.7h21.8c9.7,0,16.3-3.2,24.6-17.6l18.8-32.5c0,0,7.2-11.8,25.5-11.8h55c7.1,0,21,1,25.7,12.3
							s22.9,55.5,22.9,55.5l-34.7,2.7l-33.3,56.6c0,0-45.9,3.7-55,2.6s-44-3.1-44-3.1L344.9,370.7z"/>
						<path class="st15" d="M418.6,223.7c-4.8,1.5-9.2,4.3-12.6,8c-3.3,3.6-39.9,72.8-42.8,77.5s-4.3,17,0.1,25.1s30.3,54,30.3,54
							l9.9-14.7c0,0-20.7-45.9-21.6-48.2s-1.2-4.5,1.4-8s28.2-34.4,28.2-34.4S429.9,239.2,418.6,223.7z"/>
						<path class="st16" d="M441.4,452.8h1.5c1.1,0,2.1,0.9,2.1,2.1l0,0V640c0,1.1-0.9,2.1-2.1,2.1h-1.5c-1.1,0-2.1-0.9-2.1-2.1
							V454.9C439.3,453.7,440.2,452.8,441.4,452.8z"/>
						<path class="st17" d="M439.3,447.5h5.7c4.3,0,7.7,3.5,7.7,7.7v7.5c0,4.3-3.5,7.7-7.7,7.7h-5.7c-4.3,0-7.7-3.5-7.7-7.7v-7.5
							C431.6,451,435,447.5,439.3,447.5z"/>
						<path class="st17" d="M437.4,630.8h9.4c2.3,0,4.1,1.8,4.1,4.1v3c0,2.3-1.8,4.1-4.1,4.1h-9.4c-2.3,0-4.1-1.8-4.1-4.1v-3
							C433.3,632.6,435.2,630.8,437.4,630.8z"/>
						<path class="st18" d="M417.3,636.4H467c3.5,0,6.3,2.8,6.3,6.3v4.7c0,3.5-2.8,6.3-6.3,6.3h-49.7c-3.5,0-6.3-2.8-6.3-6.3v-4.7
							C410.9,639.2,413.8,636.4,417.3,636.4z"/>
						<path class="st18" d="M481.7,451.4L481.7,451.4c0-3-2.4-5.4-5.5-5.5H408c-3,0-5.4,2.4-5.5,5.5l0,0c0,3,2.4,5.4,5.5,5.5h68.3
							C479.3,456.8,481.7,454.4,481.7,451.4z"/>
						<path class="st16" d="M496.4,449.1L496.4,449.1c0-1.7-1.4-3.1-3.1-3.1H391c-1.7,0-3.1,1.4-3.1,3.1l0,0c0,1.7,1.4,3.1,3.1,3.1
							h102.3C495,452.2,496.4,450.8,496.4,449.1z"/>
						<path class="st19" d="M423.9,437.2h69.3c3.3,0,6,2.7,6,6l0,0c0,3.3-2.7,6-6,6h-69.3c-3.3,0-6-2.7-6-6l0,0l0,0
							C417.9,439.9,420.6,437.2,423.9,437.2z"/>
						<path class="st20" d="M384.4,437.2h59.1c3.3,0,6,2.7,6,6l0,0c0,3.3-2.7,6-6,6l0,0h-59.1c-3.3,0-6-2.7-6-6l0,0l0,0
							C378.4,439.9,381.1,437.2,384.4,437.2z"/>
						<path class="st15" d="M507.4,321.1c4,9.5,17.5,42.2,21.7,52.5h5.6c2,0,3.8,1.2,4.6,3.1c0,0-18.3-44.2-22.9-55.5
							s-18.6-12.3-25.7-12.3h-8.9C488.8,308.8,502.7,309.8,507.4,321.1z"/>
						<path class="st21" d="M320.5,380.6c-2.7,0.4-5.3-1.5-5.6-4.3s1.5-5.3,4.3-5.6c0.4-0.1,0.9-0.1,1.3,0h26.7
							c2.1,0,3.9,1.3,4.6,3.2l26.9,59.5h90.4l32.4-57.2c0.9-1.5,2.5-2.5,4.3-2.5h28.8c2.7-0.4,5.3,1.5,5.6,4.3
							c0.4,2.7-1.5,5.3-4.3,5.6c-0.4,0.1-0.9,0.1-1.3,0h-26l-32.2,56.9c-0.8,1.7-2.6,2.8-4.5,2.9h-96.4c-2,0-3.8-1.1-4.5-2.9
							l-27-59.7L320.5,380.6z"/>
						<path class="st16" d="M339.4,597c0,0-31.4-148.2-32.9-164.9c-1.5-16-10.4-39.1,91.7-55c4.3-0.7,7.6-5,12.3-5.7
							c0,0,81.3,3.9,90.2,7.5s-14.5,34.2-90.6,41.4s-56.6,32.9-56.6,32.9s2.7,136.2,4.5,143.4S346.8,607.5,339.4,597z"/>
						<path class="st18" d="M414,363.3c-3.5,1.5-9.4,15-13.7,16.5c-17.1,6.3-38.9,13-49.2,20c-11,7.5-15.6,18.4-18.9,27.1
							c-4.4,11.4-56.2,130.7-59.2,135.7s6.1,13,9.7,14.9s8.5-4.9,8.5-4.9s65.3-111.8,84.2-139.3l80.8,0.1c0,0,25.9-4.2,40-22.5
							c15.2-19.7,2.7-67.7-4-68.3c-12.7-1.2-52-7.4-72.3,2.6C407.5,351.1,419.5,363.4,414,363.3z"/>
						<path class="st16" d="M414,363.3c-3.5,1.6-9.4,15-13.7,16.5l-4.2,1.5c0,0,42-9.3,54.5,4.6s11.1,34.5-28.7,35.9s-46,1.4-51.6,0
							s-48.5,84.9-59.7,97.1c-4.3,4.7-10.9,2.7-17.5-1.5c-10.4,23.6-19,43.1-20.2,45c-3,5,6.1,13,9.7,14.9s8.5-4.9,8.5-4.9
							s65.3-111.8,84.2-139.3l80.8,0.1c0,0,25.9-4.2,40-22.5c15.2-19.7,2.7-67.7-4-68.3c-12.7-1.2-52-7.4-72.3,2.6
							C407.5,351.1,419.5,363.4,414,363.3z"/>
						<path class="st22" d="M266.7,559.9l13,6.7c1.1,0.6,1.5,1.9,1,2.9l-4.9,9.5c-0.6,1.1-1.9,1.5-2.9,1l-13-6.7
							c-1.1-0.6-1.5-1.9-0.9-2.9l4.9-9.5C264.3,559.8,265.6,559.3,266.7,559.9L266.7,559.9z"/>
						<path class="st23" d="M287.7,592c0.1,0.6,0.3,1.1,0.5,1.7c0.2,0.4-2.2,4.7-2.4,5.1c-0.8,1.8-2.4,2.9-4.2,2l-11-5.7l6.5-8.5
							l6.3-1.5L287.7,592z"/>
						<path class="st22" d="M278.3,547.7l12,6.1c1.3,0.7,1.9,2.3,1.2,3.7L281,577.9c-0.7,1.3-2.3,1.9-3.7,1.2l-12-6.1
							c-1.3-0.7-1.9-2.3-1.2-3.7l10.5-20.4C275.3,547.5,276.9,547,278.3,547.7L278.3,547.7z"/>
						<path class="st21" d="M278.9,586.2c1.2-0.9,3,1.1,4.6-1.1c5.8-7.5,12.9-23.8,12-24.3l-6.2-3.2c-0.7-0.4,0.2,0.6-3.5,1
							c-3-1.5-8.9,7.3-14.4,10.8c-3.1,2-3.2,1.7-4.6,1l-1.7-0.9c-1.1-0.6-4.2-0.9,0.3-4.3s8.7-6.7,9.7-8.6s0.2-5.5-0.4-6.5
							s-3.3-0.6-4.1-0.3c-0.9,0.4-1.6,1.1-2,2.1l-3.3,6.5c-0.8,1.5-13.9,6.5-15.8,10.2l-2.1,4c-0.4,0.7-0.5,1.5-0.4,2.3
							c0,0.4,0,0.9,0,1.3l27.8,14.3C276.7,589.5,278.1,588,278.9,586.2z"/>
						<path class="st24" d="M287.7,592l6-11.8c1-1.8-0.2-4.1,1.1-6.7l4.1-8c0.5-0.9-0.9-3.5-1.6-3.9l-6.2-3.2c0,0,0.9,3.8,0.9,4.2
							c0,0.7-2.7,5.2-4,7.8s0,5.3-0.4,6l-2.1,4c-0.8,1.7-4.3,4.8-9.6,1.7s-3.1-5.4-10.1-9l-10.8-5.5c-1-0.4-1.7-1.1-2.1-2.1
							c-1.4,0.6-2.6,1.7-3.4,3l-2.1,4c-0.4,0.7-0.5,1.6-0.3,2.3c0.1,0.5,0.1,0.9,0.1,1.4l30.1,15.5c0-1,0.3-2.1,0.7-3l0.3-1.5
							c1.1-0.3,2.3-0.1,3.2,0.5l4.2,2.1C286.5,590.5,287.1,591.2,287.7,592L287.7,592z"/>
						<path class="st4" d="M278.5,587.3c0,0,1.2,1.8,1.4,2.2s-2.2,4.7-2.4,5.1c-0.9,0.9-2,1.5-3.2,1.9c-0.6,0.1-1.3,0-1.9-0.3
							l-25.1-12.9l-3.2-1.7c-0.8-0.4-1.1-1.3-0.7-2.1l1.9-3.8c0.3-0.7,1.8-0.8,1.8-0.8s2.1,2.7,5.1,2.2s5.7-0.5,8.2,2
							S270.3,591,278.5,587.3z"/>
						<path class="st23" d="M278.5,587.3c0,0,1.2,1.8,1.4,2.2s-2.2,4.7-2.4,5.1c-0.9,0.9-2,1.5-3.2,1.9c-0.6,0.1-1.3,0-1.9-0.3
							l-18.6-9.5c-1.6-1.6-3.1-3-3.1-3l17.6,9c2.3,1.2,4,1,4.4,0.2l1.7-3.4c0.1-0.4,0.1-0.9-0.1-1.3
							C275.8,588.1,277.2,587.8,278.5,587.3z"/>
						<path class="st16" d="M260.6,586.6c1.5,2.3,3.4,4.3,5.4,6.1l-18.7-9.6l-3.2-1.7c-0.8-0.4-1.1-1.3-0.7-2.1l0.3-0.6
							c0,0,2.1,2.9,5.1,2.2S256.6,581.1,260.6,586.6z"/>
						<path class="st4" d="M264.1,563.8c-0.3-0.3-0.2-0.6,0.2-0.8c0.4-0.2,0.8-0.1,1.1,0.2l3.9,4.1l6.7,1.4c0.4,0.1,0.7,0.4,0.6,0.7
							c-0.2,0.3-0.6,0.5-1,0.4l-4.8-1l2.8,2.9c0.3,0.3,0.2,0.6-0.2,0.8c-0.4,0.2-0.8,0.1-1.1-0.2l-3.9-4.1l-6.7-1.4
							c-0.4-0.1-0.7-0.4-0.6-0.7c0.2-0.3,0.6-0.5,1-0.4l4.8,1L264.1,563.8L264.1,563.8z M285.4,559.6l-6.7-1.4l-3.9-4.1
							c-0.3-0.3-0.8-0.3-1.1-0.2c-0.4,0.2-0.5,0.5-0.2,0.8l2.8,2.9l-4.8-1c-0.4-0.1-0.8,0.1-1,0.4c-0.1,0.3,0.1,0.6,0.6,0.7l6.7,1.4
							l3.9,4.1c0.3,0.3,0.8,0.3,1.1,0.2c0.4-0.2,0.5-0.5,0.2-0.8l-2.8-2.9l4.8,1c0.4,0.1,0.8-0.1,1-0.4
							C286.1,560,285.8,559.7,285.4,559.6L285.4,559.6z M280.7,564.1l-6.7-1.4l-3.9-4.1c-0.3-0.3-0.8-0.3-1.1-0.2
							c-0.4,0.2-0.5,0.5-0.2,0.8l2.8,2.9l-4.8-1c-0.4-0.1-0.8,0.1-1,0.4c-0.1,0.3,0.1,0.6,0.6,0.7l6.7,1.4l3.9,4.1
							c0.3,0.3,0.8,0.3,1.1,0.2c0.4-0.2,0.5-0.5,0.2-0.8l-2.8-2.9l4.8,1c0.4,0.1,0.8-0.1,1-0.4C281.4,564.5,281.2,564.2,280.7,564.1
							z"/>
						<path class="st25" d="M461.6,189.5l-0.1,7.4c0,0,0.5,15.7,0.6,17.3s0.9,2.3,2.9,3.6c2.8,4.3-4.1,23.2-9.4,24s-30-0.7-31.7-2
							c-1.2-0.9,10.9-17.4,10.1-20.1c1-0.2,2-0.7,2.8-1.3c5.1-4.5,4.1-16.6,0.2-20.9C434,194.4,461.6,189.5,461.6,189.5z"/>
						<path class="st26" d="M417.9,246.9c4.4-2.6,7-0.5,12,4.1s9.6,4.1,12.3,5.1s4.1,44.5-13.2,51.3c-6.4,2.5-10.5,0-13.2-5.1
							C411,293.1,406.5,253.6,417.9,246.9z"/>
						<path class="st1" d="M499.3,364c-2.1,4.7-9.1,8.6-17.6,11.5c-12.6-4.9-34,2.6-50.2,1.9c-18.4-0.9-25.9-5.1-25.9-5.1l-1.2,0.8
							c-0.5-0.3-0.9-0.8-1.3-1.3l0,0c-2.1-3.2-1.1-8-0.2-12.2c1.5-7.6,7.9-2.3,5.1-38.5s-12.4-97.8,26.4-102.4c0,0-0.4,0.9-1,2.5
							l1.6,0.1c0,0-3.5,11,3.8,14.6s15.2-1.5,18.7-5.7c0.4-0.6,1.1-0.9,1.8-0.9c2.4-3.1,5.1-6.3,8-9.5c8.2,1.3,21.3,7.3,21.3,7.3
							c6.6,2.9,13.8,9,15.1,15.6c1.8,9.4-7.6,41.1-14,61.6C478.8,338.6,505.3,350.4,499.3,364z"/>
						<path class="st27" d="M437.8,247.5c0,0-17.7,67.5-20.4,81c-0.2,2.2,0.3,4.3,1.4,6.2c1.9,3.4,8,14.7,9,16s1.7,0.4,2.9-0.8
							s9.1-9.4,10.4-10.9c0.7-0.9,1.4-2,1.3-5.1c-0.4-18.8-2-36-1-56.3c0.5-11,1.3-21.5,2.4-28.5l5.5-5.5l-2.4-4.9
							c-2.1-1.1-4.4-1.6-6.8-1.5c-2,0.1-3.9,1.2-4.9,3L437.8,247.5z"/>
						<path class="st27" d="M414.7,375.3c-3.2-0.6-6.2-1.6-9.1-3l-1.2,0.8c-0.5-0.3-0.9-0.8-1.3-1.3l0,0c-2.1-3.2-1.1-8-0.2-12.2
							c1.5-7.6,7.9-2.3,5.1-38.5c-2.5-32.3-10.4-85.1,15.7-99.1c5.8,4,9.3,10.6,9.2,21l-0.5,2.4c-0.7,0.7-1.4,1.5-2,2.3
							c-0.2,0.4-4.3,48.4-4.3,48.4L414.7,375.3z"/>
						<path class="st13" d="M436.2,247.5c0,0-17.7,67.5-20.4,81c-0.2,2.2,0.3,4.3,1.4,6.2c1.9,3.4,8,14.7,9,16s1.7,0.4,2.9-0.8
							s9.1-9.4,10.4-10.9c0.7-0.9,1.4-2,1.3-5.1c-0.4-18.8-2-36-1-56.3c0.5-11,1.3-21.5,2.4-28.5l-1.5-5.9
							C440.8,243.3,436.3,245.4,436.2,247.5z"/>
						<path class="st15" d="M429.2,350c1.2-1.1,9.1-9.4,10.4-10.9c0.7-0.9,1.4-2,1.3-5.1c-0.4-18.8-2-36-1-56.3
							c0.5-11,1.3-21.5,2.4-28.5l-1.1-4.3l-2.4,1.2l-0.8,1.2c0.6,0.6,1.1,1.3,1.5,2c0.5,1.1-3,36.8-3.8,45.2s-1.8,40.9-1.7,43
							S429.2,350,429.2,350z"/>
						<path class="st15" d="M427.4,281.5c-4.9,19-10.2,40.1-11.5,47c-0.2,2.2,0.3,4.3,1.4,6.2c0.6,1,1.5,2.7,2.6,4.7l6.3-43.4
							C426.2,296.1,426.7,289.7,427.4,281.5z"/>
						<path class="st13" d="M433.7,240.4l2.5,7.2c2.1-0.7,4.5-0.1,6,1.6l5.5-5.5l-2.4-4.9c-2.1-1.1-4.4-1.6-6.8-1.5
							C436.6,237.4,434.7,238.6,433.7,240.4z"/>
						<path class="st15" d="M439.6,247.5c1,0.3,2,0.9,2.6,1.7l5.5-5.5l-2.4-4.9c-2.1-1.1-4.4-1.6-6.8-1.5c-0.3,0-0.5,0.1-0.8,0.1
							l-0.1,0.3c1.3,0.9,2.6,1.8,3.8,2.9C442.3,241.5,439.6,247.5,439.6,247.5L439.6,247.5z"/>
						<path class="st4" d="M468,218c1.1,0.7,2.1,1.5,3.1,2.4c0.5,1,0.5,2.2,0,3.2c-0.7,1.9-19.1,24.9-19.1,24.9s-0.6,0.8-1.4-0.1
							s-8-11.4-8-11.4l23-19.7C466.2,216.6,467.3,217.6,468,218z"/>
						<path class="st4" d="M437.1,218.1L437.1,218.1c-1.7-0.5-4.9,0.1-6,1.2c-3.3,3.1-0.5,22.3,0.4,25.5l0,0
							c0.5,0.5,1.2,0.6,1.8,0.3c1-0.6,6.6-8.7,6.6-8.7C439.2,234.8,432.7,226.7,437.1,218.1z"/>
						<path class="st15" d="M469.6,219.1c0,0-26,55.2-28.9,81.1s18.5,80,19.9,83s28.4,15.8,41,15.8c0,0,2-0.1,2.5-0.6s2.4-2.7,3-3.5
							c0.9-1.3,1.1-2.9,0.6-4.4c-0.6-2.1-13.1-67.8-14.7-76.4s10-53.8,11.7-62.2S508.9,228.1,469.6,219.1z"/>
						<path class="st13" d="M463.3,233.1c-7.9,18.1-20.6,49.4-22.6,67.2c-0.2,1.6-0.3,3.3-0.3,4.9c3.1-7.4,5.8-11.9,11.1-17.2
							c4.8-4.8,11.7-11.1,15.8-14.5c6.3-5.2,14.2-10.3,13.1-16.1s-4.9-23.1-4.9-23.1L463.3,233.1z"/>
						<path class="st22" d="M457.9,433.3h17.6l29-54l34.6,1.4l-34,59.7c-0.8,1.7-2.6,2.8-4.5,2.9h-42.7L457.9,433.3L457.9,433.3z"/>
						<path class="st21" d="M455.4,433.3h13.8l32.4-57.2c0.9-1.5,2.5-2.5,4.3-2.5h28.8c2.7-0.4,5.3,1.5,5.6,4.3
							c0.4,2.7-1.5,5.3-4.3,5.6c-0.4,0.1-0.9,0.1-1.3,0h-26l-32.2,56.9c-0.8,1.7-2.6,2.8-4.5,2.9h-16.6L455.4,433.3L455.4,433.3z"/>
						<path class="st15" d="M431.1,219.3c0,0-5.2,67.5-6.6,75.5s-13,71.9-14,76.6s-14.4,6.1-14.4,6.1s7.6-63.1,7.7-64.9
							s0.3-48.7,0.3-54.4s6.7-26.8,7.8-29.1S420.3,221.4,431.1,219.3z"/>
						<path class="st13" d="M429.7,237.4c-1.6,20.6-4.2,52.1-5.2,57.5c-0.3,1.5-0.9,5-1.7,9.7c0,0-7.1-53.3-6.6-55.2s8.7-17,8.7-17
							L429.7,237.4z"/>
						<path class="st3" d="M431.1,219.3c0,0-0.9,11-2,24.7c-3.7-4.9-8.4-11.4-7.9-12.2c0.9-1.4,7-11.8,7.1-11.8
							C429.2,219.7,430.2,219.5,431.1,219.3z"/>
						<path class="st3" d="M477.8,221.3c0,0.1,4,17.1,4.1,18.4c0.1,1-19.4,11.3-27.8,15.7c7.6-19.4,15.5-36.2,15.5-36.2
							C472.5,219.8,475.2,220.5,477.8,221.3z"/>
						<path class="st15" d="M494.9,228.7c4.5,2.4,8.2,6,10.9,10.3c2.6,4.2,32.3,82.6,34.2,87.7s1,17.5-4.9,24.6
							c-2.4,2.9-9.5,11.2-17,20.1c-6.7,7.9-18.6,7.3-27.9,7.9c6.6-9.4,27.3-38.5,28.5-40.2c1.3-2.1,2.1-4.2,0.2-8.1
							s-27.2-44.8-27.2-44.8S480.9,241.7,494.9,228.7z"/>
						<path class="st28" d="M540.6,337c-0.6,5-2.3,10.4-5.5,14.3c-2.6,3.1-10.6,12.5-18.7,22.1c-1.1,1.3-8.2,8.1-14.5,8.1
							c-0.4,0-10.8-2.6-11.3-2.8l6-8.4c6-0.3,20.1-1.1,20.8-2c0.9-1.1,16.2-17.6,19.3-21.9C538.5,343.6,539.9,340.4,540.6,337z"/>
						<path class="st28" d="M495.6,292.6L495.6,292.6l-1.1-19.9c8.7,14.3,21.6,38.5,24.3,44.2c5.1,10.8,5.5,16.8,5.5,18.5
							s-1.3,0.7-2.2,1.2s-6.2,6.4-6.2,6.4c1.5-2.1,2.5-3.5,2.7-3.9c1.3-2.1,2.1-4.2,0.2-8.1C517.4,328,502.8,304.3,495.6,292.6z"/>
						<path class="st28" d="M464.5,386.2l0.2,0.1c1.7,0.4,16.6,11.6,29.7,11.8l7.4-16.6c-4-5.8-3.8-13.5,0.4-19.2
							c-3.8-19.7-8.3-43.3-9.2-48.2c-0.8-4.5,1.9-18.9,5-32.9l-3.5-8.5c0,0-7.3,31.4-8.1,33.8s-12.9,0.2-14.4,0.1s10.4,4.5,12.6,5.5
							s6.1,40.6,5.9,44S465.8,385,464.5,386.2z"/>
						<path class="st28" d="M421,222.5c-5,5.4-13.2,16.6-16.6,34c0,0.1-0.1,0.2-0.1,0.3c0.8-5.1,2-10.2,3.6-15.1
							c2.7-6.5,6.3-12.6,10.9-18C419.4,223.3,420.1,222.9,421,222.5z"/>
						<path class="st28" d="M495.3,278.4c0,0.3-0.2,0.5-0.5,0.5s-0.5-0.2-0.5-0.5c0-0.1-0.8-34,7.4-44.6l0.6,0.6
							C494.5,244.4,495.3,278.2,495.3,278.4z"/>
						<path class="st29" d="M484,367.7h12.3c3.5,0,6.4,2.9,6.4,6.4l0,0c0,3.5-2.9,6.4-6.4,6.4H484c-3.5,0-6.4-2.9-6.4-6.4l0,0
							C477.6,370.5,480.5,367.7,484,367.7z"/>
						<circle class="st25" cx="415.1" cy="174.4" r="10.2"/>
						<circle class="st25" cx="484.9" cy="174.4" r="10.2"/>
						<path class="st30" d="M447.7,112.7L447.7,112.7c19.2,0.1,34.8,15.6,34.9,34.9v31.7c-0.1,19.2-15.6,34.8-34.9,34.9l0,0
							c-19.2-0.1-34.8-15.6-34.9-34.9v-31.7C412.9,128.3,428.5,112.8,447.7,112.7z"/>
						<path class="st31" d="M461.9,115.8L461.9,115.8c12.6,5.7,20.6,18.1,20.6,31.8v31.7c-0.1,19.2-15.6,34.8-34.9,34.9l0,0
							c-4.3,0-8.5-0.8-12.5-2.3c34.1,0.3,37.9-22.9,37.9-42.3c-0.4-6.8-7.6-11.4-11-17.6c-2.6-5.1-4.1-10.7-4.5-16.4
							c0,0-17.9,6.1-24.4,6.8c-17.3,1.9-20.2,1.3-20.2,1.3c1-4.8,3.7-18.1,8-18.1c15.4-0.2,26.9-7,34.8-8.6l5.8-1.2l0.2,0.1
							C461.6,115.8,461.6,115.8,461.9,115.8z"/>
					</g>
				</g>
			</g>
			<path class="st17" d="M231.1,385.3h150.3c2.6,0,4.8-2.1,4.8-4.8l0,0c0-2.6-2.1-4.8-4.8-4.8H231.1c-2.6,0-4.8,2.1-4.8,4.8l0,0
				C226.3,383.2,228.5,385.3,231.1,385.3z"/>
			<path class="st18" d="M231.1,385.3h150.3c1.6,0,3.1-0.9,4-2.2c-0.9-1.4-2.4-2.2-4-2.2H231.1c-1.6,0-3.1,0.9-4,2.2
				C228,384.5,229.5,385.3,231.1,385.3z"/>
			<path class="st18" d="M227.4,375.8h120.2c3,0.1,5.5-2.3,5.5-5.3c0-0.3,0-0.6-0.1-1l-9.6-77.9c-0.5-3.5-3.5-6.1-7-6.2H216.3
				c-3-0.1-5.5,2.3-5.5,5.3c0,0.3,0,0.6,0.1,1l9.6,77.9C220.9,373,223.8,375.7,227.4,375.8z"/>
			<path class="st32" d="M227.4,375.8h116.7c3,0.1,5.5-2.3,5.5-5.3c0-0.3,0-0.6-0.1-1l-9.6-77.9c-0.5-3.5-3.5-6.1-7-6.2H216.3
				c-3-0.1-5.5,2.3-5.5,5.3c0,0.3,0,0.6,0.1,1l9.6,77.9C220.9,373.1,223.8,375.7,227.4,375.8z"/>
			<path class="st33" d="M233.8,375.8h12l94.8-79.6l-0.6-4.6c-0.2-1.4-0.7-2.6-1.6-3.7L233.8,375.8z M324.7,285.4l-103.4,86.8
				c-0.5-0.8-0.8-1.7-0.9-2.7l-1.5-12.1l85.8-72H324.7z"/>
			<path class="st32" d="M354.1,385.3h27.3c2.6,0,4.8-2.1,4.8-4.8l0,0c0-2.6-2.1-4.8-4.8-4.8h-27.3c-2.6,0-4.8,2.1-4.8,4.8l0,0
				C349.3,383.2,351.5,385.3,354.1,385.3z"/>
			<path class="st16" d="M228.7,373.4h125.1c1.3,0,2.4,1.1,2.4,2.4l0,0c0,1.3-1.1,2.4-2.4,2.4H228.7c-1.3,0-2.4-1.1-2.4-2.4l0,0
				C226.3,374.5,227.4,373.4,228.7,373.4z"/>
			<path class="st34" d="M277.7,318.6c6.8,0.1,12.4,5.3,13.2,12c0.8,5.8-3.4,11.2-9.2,11.9c-0.5,0.1-1.1,0.1-1.6,0.1
				c-6.8-0.1-12.4-5.3-13.2-12c-0.8-5.8,3.4-11.2,9.2-11.9C276.7,318.6,277.2,318.6,277.7,318.6z"/>
			<path class="st16" d="M588.9,405.4h-23.6c-3.6,0-6.6,3-6.6,6.6l0,0c0,3.6,3,6.6,6.6,6.6h9.9c2.9,0,5.2,2.3,5.2,5.2l0,0
				c0,2.9-2.3,5.2-5.2,5.2h-474c-2.9,0-5.2-2.3-5.2-5.2l0,0c0-2.9,2.3-5.2,5.2-5.2h9.4c3.6,0,6.6-3,6.6-6.6l0,0c0-3.6-3-6.6-6.6-6.6
				H89c-5.8,0-10.4-4.7-10.5-10.4l0,0c0-5.8,4.7-10.4,10.5-10.5h499.9c5.8,0,10.4,4.7,10.4,10.5l0,0
				C599.3,400.8,594.6,405.4,588.9,405.4L588.9,405.4z M589.3,429c2.9,0,5.2-2.3,5.2-5.2s-2.3-5.2-5.2-5.2s-5.2,2.3-5.2,5.2l0,0
				C584.1,426.7,586.4,429,589.3,429L589.3,429z"/>
			<path class="st16" d="M475.7,161.6c0-0.1,0.1-0.2,0.1-0.3c0.4-1.7-1.2-4.1-2.3-5.3c-1.5-1.7-3.4-3-5.5-3.7c-1.9-0.7-3.9-1-5.8-1
				c-0.9-0.1-1.9,0.2-2.7,0.7c-1.4,1-1.8,3.2,0.1,3.8c1.6,0.6,3.4,0.9,5,1.4c2,0.7,3.9,1.6,5.8,2.6
				C471.3,160.3,474.8,163.2,475.7,161.6z"/>
			<path class="st4" d="M453.1,174.6c-0.5,1.3,1.5,4.2,2.3,5.1c6.3,7,21.2-2,17.6-11.1c0,0-2.9-7.2-7.9-5.9s-8.2,3.3-9.3,5.3
				C454.8,170.1,453.9,172.4,453.1,174.6z"/>
			<g>
				<g>
					<defs>
						<path id="SVGID_00000065759709362058739830000009608519490275836340_" d="M453.1,174.6c-0.5,1.3,1.5,4.2,2.3,5.1
							c6.3,7,21.2-2,17.6-11.1c0,0-2.9-7.2-7.9-5.9s-8.2,3.3-9.3,5.3C454.8,170.1,453.9,172.4,453.1,174.6z"/>
					</defs>
					<clipPath id="SVGID_00000136406902841167241740000018006875718752878482_">
						<use xlink:href="#SVGID_00000065759709362058739830000009608519490275836340_"  style="overflow:visible;"/>
					</clipPath>
					<g style="clip-path:url(#SVGID_00000136406902841167241740000018006875718752878482_);">
						
							<linearGradient id="SVGID_00000093866598612004807180000004732699103618131389_" gradientUnits="userSpaceOnUse" x1="-469.409" y1="249.4438" x2="-465.399" y2="263.0338" gradientTransform="matrix(1 0 0 1 928.04 -82)">
							<stop  offset="0" style="stop-color:#3C3C6B"/>
							<stop  offset="1" style="stop-color:#5B4E99"/>
						</linearGradient>
						
							<ellipse style="fill:url(#SVGID_00000093866598612004807180000004732699103618131389_);" cx="460.3" cy="173.1" rx="7.8" ry="9.1"/>
						<ellipse class="st16" cx="460.5" cy="173.2" rx="4.1" ry="4.6"/>
						<path class="st37" d="M453,175.2c0,0,0.1,0.9,0.6,0.8s6.4-11,11.8-9.7s8,5.6,8.2,5.4s-1-6-2.1-6.7s-10.2-2.3-10.2-2.3
							l-5.6,5.6L453,175.2z"/>
						<path class="st38" d="M468.8,173.6c0,0-7.6-1.3-7-0.4s5.7,4.1,6.5,3.9S470.2,173.8,468.8,173.6z"/>
					</g>
				</g>
			</g>
			<path class="st16" d="M474,170.6c-0.5-6.1-5.4-10.1-11.5-8.6s-9.7,7.9-9.8,13.8c0,0.2,0.4,0.4,0.5,0.1c1.7-3.9,2.9-8.1,6.7-10.6
				c6-3.8,10.6,0.2,13.8,5.3C473.7,170.8,474,170.8,474,170.6z"/>
			<path class="st39" d="M452.4,168.9c1.5-4,3.9-6.7,8.2-7.6c0.1-0.1,0.2-0.2,0.2-0.4c0-0.1-0.1-0.2-0.2-0.2
				C456.4,160.9,452.2,164.5,452.4,168.9C452.2,169,452.3,169,452.4,168.9C452.3,169,452.4,168.9,452.4,168.9L452.4,168.9z"/>
			<path class="st16" d="M410.6,161.6c0-0.1-0.1-0.2-0.1-0.3c-0.4-1.7,1.2-4.1,2.3-5.3c1.5-1.7,3.4-3,5.5-3.7c1.9-0.7,3.9-1,5.8-1
				c0.9-0.1,1.9,0.2,2.7,0.7c1.4,1,1.8,3.2-0.1,3.8c-1.6,0.6-3.4,0.9-5,1.4c-2,0.7-3.9,1.6-5.8,2.6
				C415,160.3,411.4,163.2,410.6,161.6z"/>
			<path class="st4" d="M433.1,174.6c0.5,1.3-1.5,4.2-2.3,5.1c-6.3,7-21.2-2-17.6-11.1c0,0,2.9-7.2,7.9-5.9s8.1,3.3,9.3,5.3
				C431.4,170.1,432.4,172.3,433.1,174.6z"/>
			<g>
				<g>
					<defs>
						<path id="SVGID_00000070815485857556155850000014543177462157890447_" d="M433.1,174.6c0.5,1.3-1.5,4.2-2.3,5.1
							c-6.3,7-21.2-2-17.6-11.1c0,0,2.9-7.2,7.9-5.9s8.1,3.3,9.3,5.3C431.4,170.1,432.4,172.3,433.1,174.6z"/>
					</defs>
					<clipPath id="SVGID_00000124120623606504984640000008834451984196273312_">
						<use xlink:href="#SVGID_00000070815485857556155850000014543177462157890447_"  style="overflow:visible;"/>
					</clipPath>
					<g style="clip-path:url(#SVGID_00000124120623606504984640000008834451984196273312_);">
						
							<linearGradient id="SVGID_00000099643336252270344120000015551725855063072422_" gradientUnits="userSpaceOnUse" x1="-6582.3325" y1="249.4507" x2="-6578.3325" y2="263.0407" gradientTransform="matrix(-1 0 0 1 -6154.6699 -82)">
							<stop  offset="0" style="stop-color:#3C3C6B"/>
							<stop  offset="1" style="stop-color:#5B4E99"/>
						</linearGradient>
						
							<ellipse style="fill:url(#SVGID_00000099643336252270344120000015551725855063072422_);" cx="426" cy="173.1" rx="7.8" ry="9.1"/>
						<ellipse class="st16" cx="425.7" cy="173.2" rx="4.1" ry="4.6"/>
						<path class="st37" d="M433.3,175.2c0,0-0.1,0.9-0.6,0.8s-6.4-11-11.8-9.7s-8,5.6-8.2,5.4s1-6,2.1-6.7s10.2-2.3,10.2-2.3
							l5.6,5.6L433.3,175.2z"/>
						<path class="st38" d="M417.5,173.6c0,0,7.6-1.3,7-0.4s-5.7,4.1-6.5,3.9S416.1,173.8,417.5,173.6z"/>
					</g>
				</g>
			</g>
			<path class="st16" d="M412.7,170.7c3.2-5.1,7.7-9.2,13.8-5.3c3.8,2.4,5.1,6.7,6.7,10.6c0.1,0.2,0.5,0.1,0.5-0.1
				c-0.1-6-3.8-12.3-9.8-13.8s-11,2.5-11.5,8.6C412.3,170.8,412.6,170.8,412.7,170.7z"/>
			<path class="st39" d="M434,168.9c0.1-4.4-4-8-8.3-8.2c-0.2,0-0.3,0.2-0.3,0.3s0.1,0.2,0.2,0.2c4.3,0.9,6.8,3.6,8.2,7.6
				C433.9,169,433.9,169,434,168.9C434,169,434,168.9,434,168.9L434,168.9z"/>
			<path class="st42" d="M439,186.1c0,0,2.3-3,4.1-0.9S443.5,185,439,186.1z"/>
			<path class="st25" d="M436.8,187.7c-2,1.8-0.1,6.2,2.6,5.3c0.1,0,0.2-0.2,0.1-0.3c0,0,0-0.1-0.1-0.1c-0.9-0.3-1.7-0.8-2.3-1.5
				c-0.5-1-0.6-2.2-0.1-3.2c0-0.1,0-0.1-0.1-0.2C436.9,187.7,436.9,187.7,436.8,187.7z"/>
			<path class="st25" d="M443.2,193c1,0,2-0.4,2.8-1.1c0.4-0.4-0.1-1.1-0.6-0.8c-0.4,0.3-0.7,0.5-1.1,0.7c-0.4,0.1-0.8,0.3-1.2,0.5
				c-0.2,0.1-0.2,0.3-0.1,0.5C442.9,192.9,443.1,193,443.2,193L443.2,193z"/>
			<path class="st25" d="M434.6,201.2c2.4,0.5,5.2-0.1,7.6-0.1c3.1,0,6.2-0.1,9.2-0.4c0.1,0,0.3-0.1,0.3-0.3c0-0.1-0.1-0.2-0.2-0.3
				c-5.5-1.6-11.4-1.5-16.9,0.3C434.3,200.5,434.2,201.1,434.6,201.2L434.6,201.2z"/>
			<path class="st10" d="M463.8,123.7c0,0-2.3,15.5,1,21.2c5.2,9.2,20.8,13,17.8,31.7c-0.7,4.2,16.2-12,14.4-34.2
				c-1.9-21.9-17.5-29.6-20-31.1c0,0-16.8-14.5-33.6-11.2s-31.8,16.6-32.6,21.2s6.8,11.5,3.7,18.2c12.8,0.4,24.9-5.7,32.2-16.2
				c-1.4,4.8-4.5,8.9-8.7,11.6C438,135,451.4,136.7,463.8,123.7z"/>
			<path class="st10" d="M440.4,137.3c10.8-2.2,20.4-8.6,26.5-17.8c0.3-0.4,0.9,0,0.8,0.4c-3.8,10-17.2,16.4-27.2,17.6
				C440.4,137.5,440.4,137.5,440.4,137.3C440.2,137.4,440.3,137.3,440.4,137.3z"/>
			<path class="st10" d="M463,125.5c0-0.1,0.2-0.1,0.2,0c0.2,3.6,0.1,7.2-0.1,10.8c-0.5,6.8,0.4,10.5,5.7,15.1
				c5.9,5,13.3,8.7,17.8,15.2c0.2,0.2,0.1,0.5-0.1,0.7c-0.2,0.1-0.5,0.1-0.6-0.1c-3.7-3.8-7.7-7.3-12.1-10.4
				c-3.5-2.5-7.4-5.1-10-8.6C459.3,142,462.6,132.6,463,125.5z"/>
			<path class="st10" d="M415.6,140.9c14.1-1.6,30-8.9,32.6-24.4c0-0.2,0.2-0.3,0.4-0.3c0.2,0,0.3,0.2,0.3,0.4
				c-0.3,15.1-19.8,25.5-33.3,24.5C415.5,141,415.5,141,415.6,140.9C415.5,140.9,415.5,140.9,415.6,140.9z"/>
			<path class="st10" d="M413.7,138.9c1.7-7.3-8-12.9-3.6-19.8c4-6.3,12.1-10.2,18.5-13.5c0.3-0.1,0.5,0.3,0.2,0.5
				c-6.1,3.7-17.3,9-17.9,16.9c-0.3,4.2,1.6,6.6,2.8,10.4c0.7,1.8,0.8,3.8,0.2,5.6C414,139.2,413.7,139.1,413.7,138.9z"/>
			<path class="st10" d="M421.3,106.6c10-6,21.5-11.4,33.5-8.9c8.3,1.7,21.3,7.7,24.5,16.2c0.2,0.5-0.4,1.2-1,0.8
				c-7.4-6.4-15.8-12-25.5-14c-11.1-2.3-21.4,1.7-31.2,6.6C421.1,107.4,420.9,106.8,421.3,106.6z"/>
			<path class="st10" d="M446.3,93.4c13.7-1.2,31.1,9.2,35,22.8c0.1,0.4-0.5,0.7-0.8,0.3c-8.1-11.6-19.4-22-34.2-22.6
				c-0.2,0-0.3-0.1-0.3-0.3C446,93.6,446.1,93.5,446.3,93.4L446.3,93.4z"/>
			<path class="st10" d="M494.8,167.2c3.4-10.2,4.7-20.9,1.5-31.6c-3.5-11.9-11.5-19.5-21.8-25.1c-0.3-0.1-0.1-0.6,0.2-0.4
				c23.6,8.7,29.4,35.9,20.6,57.4C495.1,167.7,494.7,167.5,494.8,167.2z"/>
			<path class="st13" d="M121.8,222.6c15.3-15.6,26.6,4.2,25.1,24c-1.5,18.8-17.7,83.3-14.7,110.5H126
				C110.7,322.4,102.2,242.5,121.8,222.6z"/>
			<path class="st3" d="M128.2,357.2c-14.8-54.9,3.9-130.7,4-131c0.1-0.5,0.5-0.8,1-0.8c0.5,0.1,0.8,0.5,0.8,1c0,0.1,0,0.1,0,0.2
				c-0.1,0.3-18.8,76.2-3.9,130.6L128.2,357.2z"/>
			<path class="st3" d="M159.5,256.9c16.1-8.5,20.2,10.1,13.9,25.5c-5.2,12.8-28.2,50.5-36.9,74.8h-8.2
				C127.6,323.6,140.5,267,159.5,256.9z"/>
			<path class="st15" d="M131.3,357.2c5.3-45.3,35.5-94.6,35.6-94.8c0.2-0.3,0.7-0.5,1-0.2s0.5,0.7,0.2,1l0,0
				c-0.1,0.2-30.1,49.1-35.4,94H131.3z"/>
			<path class="st1" d="M91.4,278.4c-15.6-6.8-18.1,10.8-11.2,24.7c4.7,9.4,21.6,33.5,33,54h13C121.8,326.1,107.6,285.5,91.4,278.4z
				"/>
			<path class="st3" d="M121.6,357.2c-11.1-37.6-36.6-73-36.7-73.1c-0.2-0.3-0.6-0.5-0.9-0.3s-0.5,0.6-0.3,0.9
				c0,0.1,0.1,0.1,0.1,0.1c0.1,0.1,25.3,35.2,36.4,72.3L121.6,357.2L121.6,357.2z"/>
			<path class="st32" d="M111.6,356.9h26.3c0.9,0,1.6,0.7,1.6,1.6v7.5c0,0.9-0.7,1.6-1.6,1.6h-26.3c-0.9,0-1.7-0.7-1.7-1.6v-7.5
				C110,357.6,110.7,356.9,111.6,356.9z"/>
			<polygon class="st32" points="133.5,363 116,363 111.4,367.7 115.2,384.1 124.8,384.1 134.4,384.1 138.1,367.7 			"/>
			<polygon class="st16" points="111.4,367.7 112.2,371 137.4,371 138.1,367.7 			"/>
			<path class="st43" d="M528.4,370.5h-47.9c-4,0-7.2,3.2-7.2,7.2s3.2,7.2,7.2,7.2h47.9c4,0,7.2-3.2,7.2-7.2
				S532.4,370.5,528.4,370.5L528.4,370.5z"/>
			<path class="st4" d="M421.3,371.3h61.2c3.5,0,6.3,2.8,6.3,6.3l0,0c0,3.5-2.8,6.3-6.3,6.3h-61.2V371.3z"/>
			<path class="st44" d="M421.3,370.5c-0.5,0-0.8,0.4-0.8,0.8c0,0.5,0.4,0.8,0.8,0.8h61.2c3,0,5.5,2.5,5.5,5.5s-2.5,5.5-5.5,5.5
				h-61.2c-0.5,0-0.8,0.4-0.8,0.8c0,0.5,0.4,0.8,0.8,0.8h61.2c4,0,7.2-3.2,7.2-7.2s-3.2-7.2-7.2-7.2L421.3,370.5z"/>
			<path class="st44" d="M526.2,377.6c0-3.9-3.2-7.1-7.2-7.2h6.2c4,0,7.2,3.2,7.2,7.2s-3.2,7.2-7.2,7.2H519
				C523,384.8,526.2,381.6,526.2,377.6z"/>
			<path class="st44" d="M517.2,377.6c0-3.9-3.2-7.1-7.2-7.2h6.2c4,0,7.2,3.2,7.2,7.2s-3.2,7.2-7.2,7.2H510
				C513.9,384.8,517.1,381.6,517.2,377.6L517.2,377.6z"/>
			<path class="st1" d="M433.9,357.9h41.9c3.5,0,6.3,2.8,6.3,6.3s-2.8,6.3-6.3,6.3l0,0h-41.9c-3.5,0-6.3-2.8-6.3-6.3
				C427.6,360.7,430.4,357.9,433.9,357.9z"/>
			<path class="st4" d="M527.7,358.6h-53.6c-3.1,0-5.5,2.5-5.5,5.5l0,0c0,3.1,2.5,5.5,5.5,5.5h53.6V358.6z"/>
			<path class="st3" d="M527.7,357.9c0.4,0,0.7,0.3,0.7,0.7c0,0.4-0.3,0.7-0.7,0.7h-53.6c-2.7,0-4.8,2.2-4.8,4.8
				c0,2.7,2.2,4.8,4.8,4.8h53.6c0.4,0,0.7,0.3,0.7,0.7c0,0.4-0.3,0.7-0.7,0.7h-53.6c-3.5,0-6.3-2.8-6.3-6.3s2.8-6.3,6.3-6.3
				L527.7,357.9z"/>
			<path class="st3" d="M435.8,364.2c0-3.5,2.8-6.3,6.3-6.3h-5.5c-3.5,0-6.3,2.8-6.3,6.3s2.8,6.3,6.3,6.3h5.5
				C438.6,370.4,435.8,367.6,435.8,364.2L435.8,364.2z"/>
			<path class="st3" d="M443.7,364.2c0-3.5,2.8-6.3,6.3-6.3h-5.5c-3.5,0-6.3,2.8-6.3,6.3s2.8,6.3,6.3,6.3h5.5
				C446.5,370.4,443.7,367.6,443.7,364.2L443.7,364.2z"/>
			<path class="st4" d="M524.7,322.6c-1,1.2-10.5,6.5-10.5,6.5l3.5,49.9c0,0,0.1,5.3,6.1,5.3h19.4c6,0,6.1-5.3,6.1-5.3l3.5-49.9
				c0,0-9.5-5.3-10.5-6.5H524.7z"/>
			<path class="st15" d="M515.1,339.6h37c0.7,0,1.3,0.6,1.3,1.3v0.1l-2.2,31.3c0,0.7-0.6,1.2-1.3,1.2h-32.6c-0.7,0-1.2-0.5-1.3-1.2
				l-2.2-31.3C513.7,340.3,514.3,339.7,515.1,339.6C515,339.6,515,339.6,515.1,339.6L515.1,339.6z"/>
			<path class="st4" d="M520.1,319.2H547c3.3,0,5.9,2.7,5.9,5.9l0,0c-0.1,3.2-2.7,5.9-5.9,5.9h-26.9c-3.3,0-5.9-2.7-5.9-5.9l0,0
				C514.3,321.8,516.9,319.2,520.1,319.2z"/>
			<path class="st15" d="M513.4,325.1h40.2c1.8,0,3.3,1.5,3.3,3.3l0,0c0,1.8-1.5,3.3-3.3,3.3h-40.2c-1.8,0-3.3-1.5-3.3-3.3l0,0
				C510.1,326.6,511.6,325.1,513.4,325.1z"/>
			<path class="st16" d="M533.6,369c6.9,0,12.5-5.6,12.5-12.5s-5.6-12.4-12.5-12.4s-12.5,5.6-12.5,12.4
				C521.1,363.4,526.7,369,533.6,369z"/>
			<path class="st2" d="M533.6,367.5c6.1,0,11-4.9,11-11s-4.9-11-11-11s-11,4.9-11,11l0,0C522.6,362.6,527.5,367.5,533.6,367.5z"/>
			<path class="st16" d="M533.6,347.8L533.6,347.8c2.9,0,5.3,2.4,5.3,5.3v7c0,2.2-1.4,4.2-3.5,5v-5.6c0-1.9-0.3-2.2-1-2.9l-0.3-0.3
				c-0.2-0.2-0.4-0.3-0.5-0.5c-0.7-0.6-1.4-1.2-1.4-3.5V348C532.5,347.8,533.1,347.7,533.6,347.8L533.6,347.8z M534.3,365.3v-5.9
				c0-1.5-0.2-1.7-0.7-2.1l-0.4-0.4c-0.2-0.1-0.3-0.3-0.5-0.4c-0.9-0.7-1.8-1.5-1.8-4.2v-3.8c-1.6,0.9-2.7,2.7-2.7,4.6v7
				c0,2.9,2.4,5.3,5.3,5.3l0,0C533.8,365.4,534.1,365.4,534.3,365.3L534.3,365.3z"/>
			<path class="st28" d="M554.5,326.2c0,1.2-0.6,2.2-1.6,2.8c-0.5,0.3-1.1,0.5-1.7,0.5H511c-0.2,0-0.4,0-0.6-0.1
				c0.4,1.4,1.7,2.3,3.2,2.3h40.2c1.8,0,3.3-1.5,3.3-3.3c0-1.6-1.1-3-2.7-3.3C554.4,325.5,554.5,325.8,554.5,326.2z"/>
			<path class="st3" d="M550.2,320.1c-1,2.2-3.1,3.6-5.4,3.6H518c-1.1,0-2.2-0.3-3.2-0.9c-0.3,0.7-0.5,1.5-0.5,2.3H553
				C552.9,323.1,551.9,321.2,550.2,320.1z"/>
			<path class="st3" d="M546.7,334.6c0.8,0,1.5,0.7,1.5,1.5v0.1l-0.2,3.5h4.3l0.6-7.9h-38.3l0.2,2.9L546.7,334.6z M545.1,373.5
				l-0.4,5.7c0,0.7-0.6,1.3-1.4,1.3h-25.2c0.5,1.5,2,3.6,5.8,3.6h19.4c6,0,6.1-5.3,6.1-5.3l0.4-5.3L545.1,373.5L545.1,373.5z"/>
			<path class="st28" d="M548,341l-2.2,31.3c0,0.7-0.6,1.2-1.3,1.2h5.3c0.7,0,1.2-0.5,1.3-1.2l2.3-31.3c0-0.4-0.1-0.7-0.3-1
				c-0.2-0.2-0.5-0.4-0.8-0.4h-5.4C547.5,339.6,548,340.2,548,341C548,340.9,548,341,548,341z"/>
		</g>
	</g>
</g>
</svg>
