<?xml version="1.0" encoding="utf-8"?>
<!-- Generator: Adobe Illustrator 27.5.0, SVG Export Plug-In . SVG Version: 6.00 Build 0)  -->
<svg version="1.1" id="Layer_1" xmlns="http://www.w3.org/2000/svg" xmlns:xlink="http://www.w3.org/1999/xlink" x="0px" y="0px"
	 viewBox="0 0 685 457.2" style="enable-background:new 0 0 685 457.2;" xml:space="preserve">
<style type="text/css">
	.st0{fill:none;}
	.st1{clip-path:url(#SVGID_00000158742137006959257470000015762970437851391149_);fill:#E2E8F5;}
	.st2{clip-path:url(#SVGID_00000020359383161715729850000000325430671119980700_);}
	.st3{fill:#C7EBFF;}
	.st4{fill:#B1C0E2;}
	.st5{fill:#80D2FF;}
	.st6{fill:#3D98CC;}
	.st7{fill:#9FAFCC;}
	.st8{fill:#A6DFFF;}
	.st9{fill:#EDF9FF;}
	.st10{fill:#E2E8F5;}
	.st11{clip-path:url(#SVGID_00000074435240070796256240000005354668729242344873_);}
	.st12{clip-path:url(#SVGID_00000137104205037685008650000005220360946971486137_);}
	.st13{clip-path:url(#SVGID_00000141432545096935917330000010230730476249358005_);}
	.st14{clip-path:url(#SVGID_00000098932151739463151220000016349381611496737926_);fill:#FFFFFF;}
	.st15{clip-path:url(#SVGID_00000095301515271333304280000018433848525966230413_);}
	.st16{clip-path:url(#SVGID_00000106111621232958505730000014920424278117190537_);}
	.st17{fill:#E68D45;}
	.st18{fill:#FDB477;}
	.st19{fill:#FFFFFF;}
	.st20{clip-path:url(#SVGID_00000114795886495070818620000007982817546409995148_);fill:#FFFFFF;}
	.st21{clip-path:url(#SVGID_00000047058537896384516430000009069760157895806089_);fill:#FFFFFF;}
	.st22{clip-path:url(#SVGID_00000009588661741885039820000004786870663359481009_);}
	.st23{fill:#3AA1A1;}
	.st24{fill:#48C6C6;}
	.st25{fill:#241F3C;}
	.st26{fill:#2E8080;}
	.st27{fill:#493F7A;}
	.st28{fill:#51DEDE;}
	.st29{clip-path:url(#SVGID_00000160898605116324029990000000576259937944711072_);fill:#FFFFFF;}
	.st30{clip-path:url(#SVGID_00000047059179835968334200000007673538819893812864_);fill:#FFFFFF;}
	.st31{clip-path:url(#SVGID_00000166650389549162713780000016406796922743097745_);}
	.st32{fill:#6369CC;}
	.st33{fill:#5B4E99;}
	.st34{fill:#312A52;}
	.st35{fill:#299999;}
	.st36{fill:#61C6FF;}
	.st37{fill:#E6F9FF;}
	.st38{fill:#42377A;}
	.st39{fill:#332C57;}
	.st40{fill:#3F366B;}
	.st41{fill:#FDFDFF;}
	.st42{fill:#82EDED;}
	.st43{clip-path:url(#SVGID_00000093871069504006973710000003979083140412226189_);}
	.st44{fill:#F8E8D8;}
	.st45{fill:url(#SVGID_00000121966363339724569810000006367253035472678036_);}
	.st46{fill:#302624;}
	.st47{fill:#63281F;}
	.st48{opacity:0.16;fill:#722F27;enable-background:new    ;}
	.st49{fill:#330E00;}
	.st50{fill:url(#SVGID_00000110434968992451051450000014245651538487226510_);}
	.st51{fill:#BA5A35;}
	.st52{fill:#DD7E52;}
	.st53{fill:url(#SVGID_00000182520178261405118110000002224049427110746041_);}
	.st54{fill:url(#SVGID_00000074420531309344457580000000336398477754457529_);}
	.st55{fill:#E58C7A;}
	.st56{opacity:0.4;fill:url(#SVGID_00000040533190906322990910000000839981137040566191_);enable-background:new    ;}
	.st57{opacity:0.4;fill:url(#SVGID_00000100361810220745589730000006915459636534665611_);enable-background:new    ;}
	.st58{opacity:0.4;fill:url(#SVGID_00000068671451912667359570000007395380230739892127_);enable-background:new    ;}
	.st59{opacity:0.42;fill:#E98C4D;enable-background:new    ;}
	.st60{fill:url(#XMLID_00000021102776214967772740000015431218789575665570_);}
	.st61{fill:#00000F;}
	.st62{opacity:0.2;fill:#320033;enable-background:new    ;}
	.st63{opacity:0.45;fill:#CA6633;enable-background:new    ;}
	.st64{fill:url(#XMLID_00000047739571061816475800000017438944408722799750_);}
	.st65{fill:#CC6A44;}
	.st66{opacity:0.45;fill:#E98C4D;enable-background:new    ;}
	.st67{fill:#DA774E;}
	.st68{fill:#181D3B;}
	.st69{fill:#6C293E;}
	.st70{opacity:0.45;fill:#6C293E;enable-background:new    ;}
	.st71{fill:#F4A9C4;}
	.st72{fill:#CC6942;}
	.st73{fill-rule:evenodd;clip-rule:evenodd;fill:#00000F;}
</style>
<g>
	<rect y="-27.6" class="st0" width="685" height="485.2"/>
	<g>
		<g>
			<defs>
				<path id="SVGID_1_" d="M504.8,412.4c41.9,0,76.1-34.3,76.1-76.1l0,0c0-41.9-34.3-76.1-76.1-76.1l0,0
					c-17.7,0-32.2-14.5-32.2-32.2l0,0c0-17.7,14.5-32.2,32.2-32.2h3.8c18.4,0,33.5-15.1,33.5-33.5l0,0c0-18.4-15.1-33.5-33.5-33.5
					h-11.8c-7.2,0-13-5.9-13-13l0,0c0-7.2,5.9-13,13-13h8.6c4.9,0,9-4,9-9l0,0c0-4.9-4-9-9-9h-58c-7.8,0-14.1-6.4-14.1-14.1l0,0
					c0-7.8,6.4-14.1,14.1-14.1h17.4c4.9,0,9-4,9-9l0,0c0-4.9-4-9-9-9H210.6c-6.5,0-11.7,5.3-11.7,11.7l0,0c0,6.5,5.3,11.7,11.7,11.7
					h17.8c10.1,0,18.4,8.3,18.4,18.4l0,0c0,10.1-8.3,18.4-18.4,18.4h-68.9c-6.5,0-11.7,5.3-11.7,11.7l0,0c0,6.5,5.3,11.7,11.7,11.7
					h11.3c9.3,0,17,7.6,17,17l0,0c0,9.3-7.6,17-17,17h-15.3c-24,0-43.7,19.6-43.7,43.7l0,0c0,24,19.6,43.7,43.7,43.7h5
					c23.1,0,42,18.9,42,42l0,0c0,23.1-18.9,42-42,42h-10.8c-23.3,0-42.3,19.1-42.3,42.3l0,0c0,23.3,19.1,42.3,42.3,42.3
					C270.2,412.4,384.3,412.4,504.8,412.4L504.8,412.4z M180.6,62.1c-6.5,0-11.7-5.3-11.7-11.7c0-6.5,5.3-11.7,11.7-11.7
					c6.5,0,11.7,5.3,11.7,11.7C192.4,56.8,187.1,62.1,180.6,62.1L180.6,62.1z M530.7,102.8c-5,0-9-4-9-9s4-9,9-9s9,4,9,9
					S535.7,102.8,530.7,102.8z"/>
			</defs>
			<clipPath id="SVGID_00000050653791669701784600000013025404494998436747_">
				<use xlink:href="#SVGID_1_"  style="overflow:visible;"/>
			</clipPath>
			
				<rect x="-596.3" y="-185.3" style="clip-path:url(#SVGID_00000050653791669701784600000013025404494998436747_);fill:#E2E8F5;" width="1547.6" height="773.8"/>
		</g>
		<g>
			<defs>
				<path id="SVGID_00000098185242877240501490000000389368884817686665_" d="M504.8,412.4c41.9,0,76.1-34.3,76.1-76.1l0,0
					c0-41.9-34.3-76.1-76.1-76.1l0,0c-17.7,0-32.2-14.5-32.2-32.2l0,0c0-17.7,14.5-32.2,32.2-32.2h3.8c18.4,0,33.5-15.1,33.5-33.5
					l0,0c0-18.4-15.1-33.5-33.5-33.5h-11.8c-7.2,0-13-5.9-13-13l0,0c0-7.2,5.9-13,13-13h8.6c4.9,0,9-4,9-9l0,0c0-4.9-4-9-9-9h-58
					c-7.8,0-14.1-6.4-14.1-14.1l0,0c0-7.8,6.4-14.1,14.1-14.1h17.4c4.9,0,9-4,9-9l0,0c0-4.9-4-9-9-9H210.6
					c-6.5,0-11.7,5.3-11.7,11.7l0,0c0,6.5,5.3,11.7,11.7,11.7h17.8c10.1,0,18.4,8.3,18.4,18.4l0,0c0,10.1-8.3,18.4-18.4,18.4h-68.9
					c-6.5,0-11.7,5.3-11.7,11.7l0,0c0,6.5,5.3,11.7,11.7,11.7h11.3c9.3,0,17,7.6,17,17l0,0c0,9.3-7.6,17-17,17h-15.3
					c-24,0-43.7,19.6-43.7,43.7l0,0c0,24,19.6,43.7,43.7,43.7h5c23.1,0,42,18.9,42,42l0,0c0,23.1-18.9,42-42,42h-10.8
					c-23.3,0-42.3,19.1-42.3,42.3l0,0c0,23.3,19.1,42.3,42.3,42.3C270.2,412.4,384.3,412.4,504.8,412.4L504.8,412.4z M180.6,62.1
					c-6.5,0-11.7-5.3-11.7-11.7c0-6.5,5.3-11.7,11.7-11.7c6.5,0,11.7,5.3,11.7,11.7C192.4,56.8,187.1,62.1,180.6,62.1L180.6,62.1z
					 M530.7,102.8c-5,0-9-4-9-9s4-9,9-9s9,4,9,9S535.7,102.8,530.7,102.8z"/>
			</defs>
			<clipPath id="SVGID_00000108288225459877123770000008167144354222061197_">
				<use xlink:href="#SVGID_00000098185242877240501490000000389368884817686665_"  style="overflow:visible;"/>
			</clipPath>
			<g style="clip-path:url(#SVGID_00000108288225459877123770000008167144354222061197_);">
				<g>
					<g>
						<g>
							<path class="st3" d="M593.7,71.3c0,0-10.6,2-23.7,2c-5.2,0-10.1-0.3-14-0.7c-1.6-0.2-1.6-2.4,0-2.6c3.9-0.4,8.8-0.7,14-0.7
								C583.1,69.3,593.7,71.3,593.7,71.3z"/>
							<path class="st3" d="M593.7,71.3c0,0,2.6-11.3,8-24.2c1.9-4.7,4-9,5.8-12.5c0.7-1.4,2.9-0.5,2.4,1c-1.2,3.8-2.8,8.4-4.8,13.2
								C599.7,61.6,593.7,71.3,593.7,71.3z"/>
							<path class="st3" d="M593.7,71.2c0,0,8.1,7.7,16.3,18.7c3.1,4.2,5.8,8.3,7.9,11.7c0.8,1.4-1,2.7-2.1,1.5
								c-2.6-3-5.6-6.6-8.7-10.7C598.9,81.4,593.7,71.2,593.7,71.2z"/>
							<ellipse class="st3" cx="593.7" cy="71.3" rx="4.3" ry="4.7"/>
						</g>
						<polygon class="st3" points="601.8,74.6 593.7,75.8 593.7,66.6 601.8,67.8 						"/>
						<ellipse class="st3" cx="601.7" cy="71.2" rx="1.4" ry="3.4"/>
					</g>
					<polygon class="st3" points="602.4,266.2 593.5,266.2 596,73.9 599.2,73.9 					"/>
				</g>
				<g>
					<g>
						<g>
							<path class="st4" d="M493.5,91.4c0,0,9.7-1.1,21.3-0.3c4.6,0.3,8.9,0.9,12.3,1.4c1.4,0.2,1,2.2-0.4,2.2
								c-3.5,0.1-7.9,0.1-12.5-0.2C502.6,93.7,493.5,91.4,493.5,91.4z"/>
							<path class="st4" d="M493.5,91.4c0,0-4,9.6-10.7,20.5c-2.4,4-4.9,7.5-7,10.5c-0.9,1.2-2.6,0.3-2-1c1.7-3.2,3.8-7.1,6.2-11.1
								C486.7,99.4,493.5,91.4,493.5,91.4z"/>
							<path class="st4" d="M493.5,91.4c0,0-6-7.1-11.7-17.2c-2.1-3.8-3.9-7.5-5.3-10.6c-0.5-1.2,1.3-2.3,2.1-1.2
								c1.9,2.7,4,6.1,6.1,9.8C490.4,82.3,493.5,91.4,493.5,91.4z"/>
							<ellipse class="st4" cx="495.3" cy="91.4" rx="4" ry="4.3"/>
						</g>
						<polygon class="st4" points="502.8,94.5 495.3,95.6 495.3,87.1 502.8,88.2 						"/>
						<ellipse class="st4" cx="502.7" cy="91.4" rx="1.3" ry="3.2"/>
					</g>
					<polygon class="st4" points="503.3,272.2 495.1,272.2 497.4,93.8 500.3,93.8 					"/>
				</g>
				<g>
					<path class="st4" d="M506.2,220.6h-8.8v-21.9c0-6,4.9-10.9,10.9-10.9h26.8v8.8h-26.8c-1.1,0-2,0.9-2,2v22H506.2z"/>
					<g>
						<g>
							<path class="st5" d="M474.5,272.1v-48.4c0-1.7,1.4-3.1,3.1-3.1h36.5c1.7,0,3.1,1.4,3.1,3.1v48.4H474.5z"/>
							<g>
								<rect x="489.8" y="229.9" class="st6" width="1.8" height="10.4"/>
								<rect x="487.2" y="229.9" class="st6" width="1.8" height="10.4"/>
								<rect x="484.6" y="229.9" class="st6" width="1.8" height="10.4"/>
								<rect x="481.9" y="229.9" class="st6" width="1.8" height="10.4"/>
								<rect x="479.3" y="229.9" class="st6" width="1.8" height="10.4"/>
							</g>
						</g>
						<rect x="472.8" y="260.9" class="st5" width="48.8" height="11.3"/>
					</g>
				</g>
				<g>
					<path class="st4" d="M547,268.9L547,268.9c18.9,0,34.2-15.3,34.2-34.2V131c0-18.9-15.3-34.2-34.2-34.2l0,0
						c-18.9,0-34.2,15.3-34.2,34.2v103.7C512.7,253.5,528.1,268.9,547,268.9z"/>
					<g>
						<rect x="509.1" y="228.2" class="st6" width="76.8" height="5.2"/>
						<rect x="578.1" y="231.3" class="st6" width="3.8" height="40.8"/>
						<rect x="512.8" y="231.3" class="st6" width="3.8" height="40.8"/>
					</g>
					<path class="st7" d="M512.3,144.3h69c0.8,0,1.5-0.7,1.5-1.5l0,0c0-0.8-0.7-1.5-1.5-1.5h-69c-0.8,0-1.5,0.7-1.5,1.5l0,0
						C510.8,143.7,511.5,144.3,512.3,144.3z"/>
					<path class="st7" d="M512.3,178.9h69c0.8,0,1.5-0.7,1.5-1.5l0,0c0-0.8-0.7-1.5-1.5-1.5h-69c-0.8,0-1.5,0.7-1.5,1.5l0,0
						C510.8,178.2,511.5,178.9,512.3,178.9z"/>
					<path class="st8" d="M512.3,213.5h69c0.8,0,1.5-0.7,1.5-1.5l0,0c0-0.8-0.7-1.5-1.5-1.5h-69c-0.8,0-1.5,0.7-1.5,1.5l0,0
						C510.8,212.8,511.5,213.5,512.3,213.5z"/>
					<rect x="562.5" y="146.9" class="st9" width="11.2" height="27.6"/>
					<path class="st9" d="M573.7,218.4v23.2c0,3.1-2.5,5.6-5.6,5.6l0,0c-3.1,0-5.6-2.5-5.6-5.6v-23.2L573.7,218.4L573.7,218.4z"/>
					<rect x="562.5" y="183.2" class="st9" width="11.2" height="25.6"/>
					<path class="st9" d="M562.5,140v-18.7c0-3.1,2.5-5.6,5.6-5.6l0,0c3.1,0,5.6,2.5,5.6,5.6V140H562.5z"/>
					<g>
						<rect x="509.1" y="228.2" class="st6" width="76.8" height="5.2"/>
						<rect x="578.1" y="231.3" class="st6" width="3.8" height="40.8"/>
						<rect x="512.8" y="231.3" class="st6" width="3.8" height="40.8"/>
					</g>
					<rect x="522.6" y="150.5" class="st9" width="12.2" height="12.5"/>
					<rect x="539.7" y="158.8" class="st9" width="12.2" height="12.5"/>
				</g>
				<g>
					<rect x="606.3" y="122" class="st5" width="5.7" height="17.5"/>
					<rect x="578.6" y="192.8" class="st5" width="5.7" height="17.5"/>
					<path class="st5" d="M588.4,206.2h-5.9v-8.8h5.9c2,0,3.7-1.7,3.7-3.7v-54.2c0-6.9,5.6-12.6,12.6-12.6h4.9v8.8h-4.9
						c-2,0-3.7,1.7-3.7,3.7v54.2C600.9,200.6,595.3,206.2,588.4,206.2z"/>
				</g>
				<g>
					<g>
						<path class="st3" d="M645.2,268.9L645.2,268.9c18.9,0,34.2-15.3,34.2-34.2V131c0-18.9-15.3-34.2-34.2-34.2l0,0
							c-18.9,0-34.2,15.3-34.2,34.2v103.7C611,253.5,626.3,268.9,645.2,268.9z"/>
						<path class="st8" d="M610.5,144.3h69c0.8,0,1.5-0.7,1.5-1.5l0,0c0-0.8-0.7-1.5-1.5-1.5h-69c-0.8,0-1.5,0.7-1.5,1.5l0,0
							C609,143.7,609.7,144.3,610.5,144.3z"/>
						<path class="st8" d="M610.5,178.9h69c0.8,0,1.5-0.7,1.5-1.5l0,0c0-0.8-0.7-1.5-1.5-1.5h-69c-0.8,0-1.5,0.7-1.5,1.5l0,0
							C609,178.2,609.7,178.9,610.5,178.9z"/>
						<path class="st8" d="M610.5,213.5h69c0.8,0,1.5-0.7,1.5-1.5l0,0c0-0.8-0.7-1.5-1.5-1.5h-69c-0.8,0-1.5,0.7-1.5,1.5l0,0
							C609,212.8,609.7,213.5,610.5,213.5z"/>
						<rect x="660.8" y="146.9" class="st9" width="11.2" height="27.6"/>
						<path class="st9" d="M672,218.4v23.2c0,3.1-2.5,5.6-5.6,5.6l0,0c-3.1,0-5.6-2.5-5.6-5.6v-23.2L672,218.4L672,218.4z"/>
						<rect x="660.8" y="183.2" class="st9" width="11.2" height="25.6"/>
						<path class="st9" d="M660.8,140v-18.7c0-3.1,2.5-5.6,5.6-5.6l0,0c3.1,0,5.6,2.5,5.6,5.6V140H660.8z"/>
					</g>
					<g>
						<rect x="607.6" y="228.2" class="st6" width="76.8" height="5.2"/>
						<rect x="676.6" y="231.3" class="st6" width="3.8" height="40.8"/>
						<rect x="611.2" y="231.3" class="st6" width="3.8" height="40.8"/>
					</g>
				</g>
				<g>
					<path class="st4" d="M421.2,251.1h-6.6l0.3-73.2c0-4.7,3.9-8.5,8.6-8.5H442v6.6h-18.5c-1.1,0-1.9,0.9-1.9,1.9L421.2,251.1z"/>
					<g>
						<path class="st4" d="M442.8,272.9L442.8,272.9c9.1,0,16.5-7.4,16.5-16.5V127.7c0-9.1-7.4-16.5-16.5-16.5l0,0
							c-9.1,0-16.5,7.4-16.5,16.5v128.7C426.3,265.5,433.7,272.9,442.8,272.9z"/>
						<rect x="434.9" y="107.6" class="st4" width="15.9" height="6.7"/>
						<circle class="st4" cx="426.3" cy="110.1" r="6"/>
						<rect x="429.9" y="108.9" class="st4" width="6.3" height="2.6"/>
						<path class="st4" d="M438,105.6h9.7c0.5,0,1-0.4,1-1l0,0c0-0.5-0.4-1-1-1H438c-0.5,0-1,0.4-1,1l0,0
							C437,105.2,437.4,105.6,438,105.6z"/>
						<rect x="441.8" y="105.3" class="st4" width="1.9" height="3.3"/>
						<rect x="406" y="248.6" class="st4" width="59.3" height="25.4"/>
						<circle class="st10" cx="426.3" cy="110" r="4.2"/>
					</g>
					<rect x="448.3" y="129.9" class="st10" width="3.4" height="114.5"/>
					<rect x="412.4" y="202.9" class="st4" width="10.9" height="22.3"/>
				</g>
				<g>
					<path class="st5" d="M409.5,219.3v-9.7c0-0.5-0.4-1-1-1l0,0c-0.5,0-1,0.4-1,1v9.7c0,0.5,0.4,1,1,1l0,0
						C409.1,220.3,409.5,219.9,409.5,219.3z"/>
					<rect x="409.2" y="213.6" class="st5" width="3.3" height="1.9"/>
					<rect x="411.9" y="209.8" class="st5" width="1.8" height="9.6"/>
				</g>
				<g>
					<g>
						<g>
							<g>
								<path class="st5" d="M-303.6,245.3c-0.3,0-0.5-0.2-0.5-0.5v-80.1c0-0.3,0.2-0.5,0.5-0.5s0.5,0.2,0.5,0.5v80.1
									C-303.1,245-303.3,245.3-303.6,245.3z"/>
								<path class="st5" d="M-313.7,245.3c-0.3,0-0.5-0.2-0.5-0.5v-80.1c0-0.3,0.2-0.5,0.5-0.5s0.5,0.2,0.5,0.5v80.1
									C-313.2,245-313.5,245.3-313.7,245.3z"/>
								<path class="st5" d="M-313.7,245c-0.1,0-0.3,0-0.3-0.1c-0.2-0.2-0.2-0.5,0-0.7l9.3-9.1h-9.1l-0.3-0.8l9.4-9.1h-9.1l-0.3-0.8
									l9.4-9.1h-9l-0.3-0.8l9.3-9h-9l-0.3-0.8l9.4-9.1h-9l-0.3-0.8l9.3-9h-9l-0.3-0.8l9.4-9.1h-9l-0.3-0.8l9.3-9.1h-9
									c-0.3,0-0.5-0.2-0.5-0.5s0.2-0.5,0.5-0.5h10.2l0.3,0.8l-9.3,9.1h9l0.3,0.8l-9.4,9.1h9l0.3,0.8l-9.3,9h9l0.3,0.8l-9.4,9.1h9
									l0.3,0.8l-9.3,9h9l0.3,0.8l-9.4,9.1h9.1l0.3,0.8l-9.4,9.1h9.1l0.3,0.8l-10.2,9.9C-313.4,244.9-313.5,245-313.7,245z"/>
							</g>
							<g>
								<path class="st5" d="M-295.1,172.7c-0.1,0-0.1,0-0.2-0.1s-0.2-0.2-0.2-0.3v-5.6l-9.4,5.9c-0.1,0.1-0.3,0.1-0.4,0
									s-0.2-0.2-0.2-0.3v-5.6c-0.3,0.2-0.6,0.4-0.9,0.6c-2.9,1.8-5.6,3.4-8.3,5.3c-0.1,0.1-0.3,0.1-0.4,0s-0.2-0.2-0.2-0.3v-5.6
									c-2.6,1.7-5.6,3.6-9.4,5.9c-0.1,0.1-0.3,0.1-0.4,0s-0.2-0.2-0.2-0.3v-5.5c-1.3,0.9-2.7,1.7-4,2.5c-1.8,1-3.6,2.1-5.2,3.3
									c-0.1,0.1-0.3,0.1-0.4,0s-0.2-0.2-0.2-0.3v-5.6c-1,0.6-2.1,1.3-3.1,1.9c-2.1,1.3-4.3,2.6-6.2,4c-0.1,0.1-0.3,0.1-0.4,0
									s-0.2-0.2-0.2-0.3v-5.6c-1,0.7-2.1,1.3-3.1,2c-2,1.3-4.1,2.6-6.2,3.9c-0.2,0.1-0.4,0.1-0.5-0.1c-0.1-0.2-0.1-0.4,0.1-0.5
									c2.1-1.4,4.2-2.7,6.2-3.9c1.2-0.8,2.5-1.5,3.7-2.3c0.1-0.1,0.3-0.1,0.4,0s0.2,0.2,0.2,0.3v5.5c1.8-1.2,3.8-2.4,5.7-3.6
									c1.2-0.7,2.5-1.5,3.7-2.3c0.1-0.1,0.3-0.1,0.4,0s0.2,0.2,0.2,0.3v5.5c1.5-1.1,3.1-2,4.7-2.9c1.5-0.9,3.1-1.8,4.6-2.8
									c0.1-0.1,0.3-0.1,0.4,0s0.2,0.2,0.2,0.3v5.6c3.8-2.3,6.8-4.2,9.4-5.9c0.1-0.1,0.3-0.1,0.4,0s0.2,0.2,0.2,0.3v5.5
									c2.5-1.7,5.1-3.3,7.8-4.9c0.5-0.3,1-0.6,1.5-0.9c0.1-0.1,0.3-0.1,0.4,0s0.2,0.2,0.2,0.3v5.6l9.4-5.9c0.1-0.1,0.3-0.1,0.4,0
									s0.2,0.2,0.2,0.3v5.6c2.5-1.5,5.3-3.2,8.4-5.3c0.2-0.1,0.4-0.1,0.5,0.1c0.1,0.2,0.1,0.4-0.1,0.5c-3.3,2.2-6.3,4.1-9,5.7
									C-294.9,172.7-295,172.7-295.1,172.7z"/>
								<path class="st5" d="M-320.3,172.7c-11.4,0-22.9,0-34.2,0c-0.2,0-0.4-0.2-0.4-0.4s0.2-0.4,0.4-0.4l0,0c22.6,0,45.5,0,68,0
									v-5.5c-19.2,0.1-38.8,0.1-58.1,0c-0.2,0-0.4-0.2-0.4-0.4s0.2-0.4,0.4-0.4l0,0c19.5,0.1,39.1,0.1,58.5,0l0,0
									c0.1,0,0.2,0,0.3,0.1c0.1,0.1,0.1,0.2,0.1,0.3v6.2c0,0.2-0.2,0.4-0.4,0.4C-297.4,172.7-308.9,172.7-320.3,172.7z"/>
								<path class="st5" d="M-354.1,192.9c-0.2,0-0.4-0.2-0.4-0.4v-20.3c0-0.2,0.2-0.4,0.4-0.4c0.2,0,0.4,0.2,0.4,0.4v20.3
									C-353.7,192.8-353.9,192.9-354.1,192.9z"/>
							</g>
							<rect x="-317.1" y="162" class="st5" width="17" height="14.8"/>
							<path class="st5" d="M-303.5,165.6c-0.2,0-0.3-0.1-0.4-0.2l-9.2-23.9v22.8c0,0.2-0.2,0.4-0.4,0.4s-0.4-0.2-0.4-0.4v-24.8
								l0.7-0.1l9.9,25.8c0.1,0.2,0,0.4-0.2,0.5C-303.4,165.5-303.5,165.6-303.5,165.6z"/>
							<path class="st5" d="M-313.4,161.7c-0.1,0-0.2,0-0.2-0.1c-0.2-0.1-0.2-0.4-0.1-0.5l4.9-6.9h-4.6c-0.2,0-0.4-0.2-0.4-0.4
								s0.2-0.4,0.4-0.4h5.3l0.3,0.6l-5.3,7.5C-313.1,161.7-313.3,161.7-313.4,161.7z"/>
						</g>
					</g>
					<g>
						<polygon class="st5" points="-270.8,311.2 -270.8,279.9 -291.4,221.4 -291.4,187 -335.2,187 -335.2,221.4 -355.8,279.9 
							-355.8,311.2 						"/>
						<rect x="-337.9" y="186.8" class="st5" width="48.5" height="2"/>
					</g>
					<polygon class="st5" points="-122.3,309.3 -122.3,222.7 -167.1,189 -210.1,222.7 -300.3,222.7 -300.3,309.3 					"/>
					<rect x="-290.8" y="246.6" class="st5" width="19" height="17.9"/>
					<rect x="-290.8" y="275.4" class="st5" width="19" height="32.1"/>
					<rect x="-270.8" y="275.4" class="st5" width="19" height="32.1"/>
					<rect x="-199.6" y="275.4" class="st5" width="19" height="32.1"/>
					<rect x="-179.6" y="275.4" class="st5" width="19" height="32.1"/>
					<rect x="-150.4" y="275.4" class="st5" width="19" height="32.1"/>
					<rect x="-197.2" y="246.6" class="st5" width="19" height="17.9"/>
					<rect x="-173.8" y="246.6" class="st5" width="19" height="17.9"/>
					<rect x="-150.4" y="246.6" class="st5" width="19" height="17.9"/>
					<polygon class="st5" points="-251,226.3 -281.4,226.3 -279.6,189.9 -278.6,171.4 -277.2,142.9 -255.1,142.9 -253.7,171.4 
						-252.8,189.9 					"/>
					<rect x="-279.6" y="142.7" class="st5" width="27.4" height="1.8"/>
					<polygon class="st5" points="-253.7,171.4 -252.8,189.9 -279.6,189.9 -278.6,171.4 					"/>
					<g>
						<polygon class="st5" points="-206.9,226.3 -242.9,226.3 -241.1,189.9 -240.2,171.4 -238,127.5 -211.8,127.5 -209.6,171.4 
							-208.7,189.9 						"/>
						<rect x="-240.4" y="127.4" class="st5" width="31.5" height="1.8"/>
						<polygon class="st5" points="-208.7,189.9 -241.1,189.9 -240.2,171.4 -209.6,171.4 						"/>
					</g>
				</g>
				<g>
					<g>
						<g>
							<g>
								<path class="st4" d="M199.1,269.1c-0.2,0-0.3-0.1-0.3-0.3v-53.3c0-0.2,0.1-0.3,0.3-0.3s0.3,0.1,0.3,0.3v53.3
									C199.5,268.9,199.3,269.1,199.1,269.1z"/>
								<path class="st4" d="M192.4,269.1c-0.2,0-0.3-0.1-0.3-0.3v-53.3c0-0.2,0.1-0.3,0.3-0.3s0.3,0.1,0.3,0.3v53.3
									C192.7,268.9,192.6,269.1,192.4,269.1z"/>
								<path class="st4" d="M192.4,268.9c-0.1,0-0.2,0-0.2-0.1c-0.1-0.1-0.1-0.3,0-0.5l6.2-6h-6l-0.2-0.6l6.3-6.1h-6l-0.2-0.6
									l6.2-6.1h-6l-0.2-0.6l6.2-6h-6l-0.2-0.6l6.2-6.1h-6l-0.2-0.6l6.2-6h-6l-0.2-0.6l6.2-6.1h-6l-0.2-0.6l6.2-6h-6
									c-0.2,0-0.3-0.1-0.3-0.3s0.1-0.3,0.3-0.3h6.8l0.2,0.6l-6.2,6h6l0.2,0.6l-6.2,6.1h6l0.2,0.6l-6.2,6h6l0.2,0.6l-6.2,6.1h6
									l0.2,0.6l-6.2,6h6l0.2,0.6l-6.2,6.1h6l0.2,0.6l-6.3,6.1h6l0.2,0.6l-6.8,6.6C192.6,268.9,192.5,268.9,192.4,268.9z"/>
							</g>
							<g>
								<path class="st4" d="M204.8,220.8h-0.1c-0.1,0-0.1-0.1-0.1-0.2v-3.7l-6.2,3.9c-0.1,0-0.2,0.1-0.3,0c-0.1,0-0.1-0.1-0.1-0.2
									v-3.7c-0.2,0.1-0.4,0.3-0.6,0.4c-1.9,1.2-3.7,2.3-5.5,3.5c-0.1,0.1-0.2,0.1-0.3,0c-0.1,0-0.1-0.1-0.1-0.2v-3.7
									c-1.7,1.1-3.7,2.4-6.2,3.9c-0.1,0-0.2,0.1-0.3,0c-0.1,0-0.1-0.1-0.1-0.2v-3.7c-0.9,0.6-1.8,1.1-2.7,1.6
									c-1.2,0.7-2.4,1.4-3.5,2.2c-0.1,0.1-0.2,0.1-0.3,0c-0.1,0-0.1-0.1-0.1-0.2v-3.7c-0.7,0.4-1.4,0.9-2.1,1.3
									c-1.4,0.8-2.8,1.7-4.1,2.6c-0.1,0.1-0.2,0.1-0.3,0c-0.1,0-0.1-0.1-0.1-0.2v-3.7c-0.7,0.4-1.4,0.9-2.1,1.3
									c-1.3,0.8-2.7,1.7-4.1,2.6c-0.1,0.1-0.3,0-0.4-0.1c-0.1-0.1,0-0.3,0.1-0.4c1.4-0.9,2.8-1.8,4.1-2.6c0.8-0.5,1.7-1,2.5-1.5
									c0.1,0,0.2-0.1,0.3,0c0.1,0,0.1,0.1,0.1,0.2v3.7c1.2-0.8,2.5-1.6,3.8-2.4c0.8-0.5,1.6-1,2.4-1.5c0.1-0.1,0.2-0.1,0.3,0
									c0.1,0,0.1,0.1,0.1,0.2v3.7c1-0.7,2.1-1.4,3.1-2s2.1-1.2,3-1.9c0.1-0.1,0.2-0.1,0.3,0c0.1,0,0.1,0.1,0.1,0.2v3.7
									c2.5-1.6,4.5-2.8,6.2-3.9c0.1-0.1,0.2-0.1,0.3,0s0.1,0.1,0.1,0.2v3.7c1.7-1.1,3.4-2.2,5.2-3.3c0.3-0.2,0.7-0.4,1-0.6
									c0.1,0,0.2-0.1,0.3,0c0.1,0,0.1,0.1,0.1,0.2v3.7l6.2-3.9c0.1,0,0.2-0.1,0.3,0c0.1,0,0.1,0.1,0.1,0.2v3.7
									c1.7-1,3.5-2.2,5.6-3.5c0.1-0.1,0.3,0,0.4,0.1c0.1,0.1,0,0.3-0.1,0.4c-2.2,1.5-4.2,2.7-6,3.8
									C204.9,220.8,204.8,220.8,204.8,220.8z"/>
								<path class="st4" d="M188,220.8c-7.6,0-15.2,0-22.8,0c-0.1,0-0.3-0.1-0.3-0.3c0-0.1,0.1-0.3,0.3-0.3l0,0c15,0,30.3,0,45.3,0
									v-3.6c-12.8,0.1-25.8,0.1-38.7,0c-0.1,0-0.3-0.1-0.3-0.3c0-0.1,0.1-0.3,0.3-0.3l0,0c13,0.1,26,0.1,38.9,0l0,0
									c0.1,0,0.1,0,0.2,0.1c0,0,0.1,0.1,0.1,0.2v4.1c0,0.1-0.1,0.3-0.3,0.3C203.2,220.8,195.6,220.8,188,220.8z"/>
								<path class="st4" d="M165.5,234.3c-0.1,0-0.3-0.1-0.3-0.3v-13.5c0-0.1,0.1-0.3,0.3-0.3c0.1,0,0.3,0.1,0.3,0.3V234
									C165.8,234.1,165.6,234.3,165.5,234.3z"/>
							</g>
							<rect x="190.1" y="213.7" class="st4" width="11.3" height="9.9"/>
							<path class="st4" d="M199.2,216c-0.1,0-0.2-0.1-0.2-0.2l-6.1-15.9v15.2c0,0.1-0.1,0.3-0.3,0.3c-0.1,0-0.3-0.1-0.3-0.3v-16.5
								l0.5-0.1l6.6,17.1C199.5,215.8,199.4,216,199.2,216L199.2,216z"/>
							<path class="st4" d="M192.6,213.5c-0.1,0-0.1,0-0.1,0c-0.1-0.1-0.1-0.2-0.1-0.4l3.3-4.6h-3.1c-0.1,0-0.3-0.1-0.3-0.3
								s0.1-0.3,0.3-0.3h3.6l0.2,0.4l-3.6,5C192.8,213.5,192.7,213.5,192.6,213.5z"/>
						</g>
					</g>
					<g>
						<polygon class="st4" points="220.9,312.9 220.9,292.1 207.2,253.2 207.2,230.3 178.1,230.3 178.1,253.2 164.4,292.1 
							164.4,312.9 						"/>
						<rect x="176.3" y="230.2" class="st4" width="32.3" height="1.3"/>
					</g>
					<polygon class="st4" points="319.7,311.7 319.7,254.1 289.9,231.7 261.3,254.1 201.3,254.1 201.3,311.7 					"/>
					<rect x="207.6" y="269.9" class="st4" width="12.6" height="11.9"/>
					<rect x="207.6" y="289.2" class="st4" width="12.6" height="21.4"/>
					<rect x="220.9" y="289.2" class="st4" width="12.6" height="21.4"/>
					<rect x="268.3" y="289.2" class="st4" width="12.6" height="21.4"/>
					<rect x="281.6" y="289.2" class="st4" width="12.6" height="21.4"/>
					<rect x="301" y="289.2" class="st4" width="12.6" height="21.4"/>
					<rect x="269.9" y="269.9" class="st4" width="12.6" height="11.9"/>
					<rect x="285.4" y="269.9" class="st4" width="12.6" height="11.9"/>
					<rect x="301" y="269.9" class="st4" width="12.6" height="11.9"/>
					<polygon class="st4" points="234.1,256.5 213.9,256.5 215.1,232.2 215.7,220 216.7,201 231.4,201 232.3,220 232.9,232.2 					
						"/>
					<rect x="215.1" y="200.8" class="st4" width="18.3" height="1.2"/>
					<polygon class="st4" points="232.3,220 232.9,232.2 215.1,232.2 215.7,220 					"/>
					<g>
						<polygon class="st4" points="263.5,256.5 239.5,256.5 240.7,232.2 241.3,220 242.8,190.7 260.2,190.7 261.6,220 262.3,232.2 
													"/>
						<rect x="241.2" y="190.6" class="st4" width="20.9" height="1.2"/>
						<polygon class="st4" points="262.3,232.2 240.7,232.2 241.3,220 261.6,220 						"/>
					</g>
				</g>
			</g>
		</g>
		<g>
			<defs>
				<path id="SVGID_00000003073746755485615130000005181840867538498978_" d="M504.8,412.4c41.9,0,76.1-34.3,76.1-76.1l0,0
					c0-41.9-34.3-76.1-76.1-76.1l0,0c-17.7,0-32.2-14.5-32.2-32.2l0,0c0-17.7,14.5-32.2,32.2-32.2h3.8c18.4,0,33.5-15.1,33.5-33.5
					l0,0c0-18.4-15.1-33.5-33.5-33.5h-11.8c-7.2,0-13-5.9-13-13l0,0c0-7.2,5.9-13,13-13h8.6c4.9,0,9-4,9-9l0,0c0-4.9-4-9-9-9h-58
					c-7.8,0-14.1-6.4-14.1-14.1l0,0c0-7.8,6.4-14.1,14.1-14.1h17.4c4.9,0,9-4,9-9l0,0c0-4.9-4-9-9-9H210.6
					c-6.5,0-11.7,5.3-11.7,11.7l0,0c0,6.5,5.3,11.7,11.7,11.7h17.8c10.1,0,18.4,8.3,18.4,18.4l0,0c0,10.1-8.3,18.4-18.4,18.4h-68.9
					c-6.5,0-11.7,5.3-11.7,11.7l0,0c0,6.5,5.3,11.7,11.7,11.7h11.3c9.3,0,17,7.6,17,17l0,0c0,9.3-7.6,17-17,17h-15.3
					c-24,0-43.7,19.6-43.7,43.7l0,0c0,24,19.6,43.7,43.7,43.7h5c23.1,0,42,18.9,42,42l0,0c0,23.1-18.9,42-42,42h-10.8
					c-23.3,0-42.3,19.1-42.3,42.3l0,0c0,23.3,19.1,42.3,42.3,42.3C270.2,412.4,384.3,412.4,504.8,412.4L504.8,412.4z M180.6,62.1
					c-6.5,0-11.7-5.3-11.7-11.7c0-6.5,5.3-11.7,11.7-11.7c6.5,0,11.7,5.3,11.7,11.7C192.4,56.8,187.1,62.1,180.6,62.1L180.6,62.1z
					 M530.7,102.8c-5,0-9-4-9-9s4-9,9-9s9,4,9,9S535.7,102.8,530.7,102.8z"/>
			</defs>
			<clipPath id="SVGID_00000073702745006638086340000014889191242672278445_">
				<use xlink:href="#SVGID_00000003073746755485615130000005181840867538498978_"  style="overflow:visible;"/>
			</clipPath>
			<g style="clip-path:url(#SVGID_00000073702745006638086340000014889191242672278445_);">
				<g>
					<g>
						<path class="st4" d="M298.7,137.1c0,0-10.5,2-23.5,2c-5.2,0-10-0.3-13.9-0.7c-1.5-0.2-1.5-2.4,0-2.6c3.9-0.4,8.7-0.7,13.9-0.7
							C288.2,135.1,298.7,137.1,298.7,137.1z"/>
						<path class="st4" d="M298.7,137.1c0,0,2.6-11.2,7.9-24.1c1.9-4.7,4-8.9,5.7-12.4c0.7-1.4,2.9-0.5,2.4,1
							c-1.2,3.8-2.8,8.3-4.8,13.1C304.7,127.5,298.7,137.1,298.7,137.1z"/>
						<path class="st4" d="M298.7,137c0,0,8,7.6,16.1,18.6c3.1,4.2,5.7,8.2,7.8,11.6c0.8,1.3-1,2.7-2.1,1.5
							c-2.6-2.9-5.6-6.6-8.6-10.7C303.9,147.1,298.7,137,298.7,137z"/>
						<ellipse class="st4" cx="298.7" cy="137.1" rx="4.3" ry="4.6"/>
					</g>
					<polygon class="st4" points="306.8,140.4 298.7,141.6 298.7,132.4 306.8,133.6 					"/>
					<ellipse class="st4" cx="306.7" cy="137" rx="1.4" ry="3.4"/>
				</g>
				<polygon class="st4" points="307.4,330.6 298.6,330.6 301,139.6 304.1,139.6 				"/>
			</g>
		</g>
		<g>
			<defs>
				<path id="SVGID_00000127738230698048144580000005266193029102923691_" d="M504.8,412.4c41.9,0,76.1-34.3,76.1-76.1l0,0
					c0-41.9-34.3-76.1-76.1-76.1l0,0c-17.7,0-32.2-14.5-32.2-32.2l0,0c0-17.7,14.5-32.2,32.2-32.2h3.8c18.4,0,33.5-15.1,33.5-33.5
					l0,0c0-18.4-15.1-33.5-33.5-33.5h-11.8c-7.2,0-13-5.9-13-13l0,0c0-7.2,5.9-13,13-13h8.6c4.9,0,9-4,9-9l0,0c0-4.9-4-9-9-9h-58
					c-7.8,0-14.1-6.4-14.1-14.1l0,0c0-7.8,6.4-14.1,14.1-14.1h17.4c4.9,0,9-4,9-9l0,0c0-4.9-4-9-9-9H210.6
					c-6.5,0-11.7,5.3-11.7,11.7l0,0c0,6.5,5.3,11.7,11.7,11.7h17.8c10.1,0,18.4,8.3,18.4,18.4l0,0c0,10.1-8.3,18.4-18.4,18.4h-68.9
					c-6.5,0-11.7,5.3-11.7,11.7l0,0c0,6.5,5.3,11.7,11.7,11.7h11.3c9.3,0,17,7.6,17,17l0,0c0,9.3-7.6,17-17,17h-15.3
					c-24,0-43.7,19.6-43.7,43.7l0,0c0,24,19.6,43.7,43.7,43.7h5c23.1,0,42,18.9,42,42l0,0c0,23.1-18.9,42-42,42h-10.8
					c-23.3,0-42.3,19.1-42.3,42.3l0,0c0,23.3,19.1,42.3,42.3,42.3C270.2,412.4,384.3,412.4,504.8,412.4L504.8,412.4z M180.6,62.1
					c-6.5,0-11.7-5.3-11.7-11.7c0-6.5,5.3-11.7,11.7-11.7c6.5,0,11.7,5.3,11.7,11.7C192.4,56.8,187.1,62.1,180.6,62.1L180.6,62.1z
					 M530.7,102.8c-5,0-9-4-9-9s4-9,9-9s9,4,9,9S535.7,102.8,530.7,102.8z"/>
			</defs>
			<clipPath id="SVGID_00000175300410763275906320000009276574054313783204_">
				<use xlink:href="#SVGID_00000127738230698048144580000005266193029102923691_"  style="overflow:visible;"/>
			</clipPath>
			<g style="clip-path:url(#SVGID_00000175300410763275906320000009276574054313783204_);">
				<g>
					<g>
						<path class="st4" d="M252,167.9c0,0,9.6-1.1,21.2-0.3c4.6,0.3,8.8,0.9,12.2,1.4c1.4,0.2,1,2.2-0.4,2.2
							c-3.5,0.1-7.8,0.1-12.4-0.2C261,170.3,252,167.9,252,167.9z"/>
						<path class="st4" d="M252,167.9c0,0-4,9.5-10.6,20.3c-2.4,3.9-4.8,7.5-6.9,10.4c-0.8,1.2-2.6,0.3-2-1c1.7-3.2,3.7-7,6.2-11
							C245.3,175.9,252,167.9,252,167.9z"/>
						<path class="st4" d="M252,168c0,0-6-7.1-11.6-17c-2.1-3.8-3.9-7.4-5.3-10.5c-0.5-1.2,1.3-2.3,2.1-1.2c1.9,2.7,4,6,6.1,9.7
							C248.9,158.9,252,168,252,168z"/>
						<ellipse class="st4" cx="253.8" cy="168" rx="4" ry="4.3"/>
					</g>
					<polygon class="st4" points="261.2,171 253.8,172.1 253.8,163.7 261.2,164.8 					"/>
					<ellipse class="st4" cx="261.1" cy="167.9" rx="1.3" ry="3.2"/>
				</g>
				<polygon class="st4" points="261.8,347.5 253.6,347.5 255.9,170.4 258.8,170.4 				"/>
			</g>
		</g>
		<g>
			<defs>
				<path id="SVGID_00000145044436938747988210000002623972312446106778_" d="M504.8,412.4c41.9,0,76.1-34.3,76.1-76.1l0,0
					c0-41.9-34.3-76.1-76.1-76.1l0,0c-17.7,0-32.2-14.5-32.2-32.2l0,0c0-17.7,14.5-32.2,32.2-32.2h3.8c18.4,0,33.5-15.1,33.5-33.5
					l0,0c0-18.4-15.1-33.5-33.5-33.5h-11.8c-7.2,0-13-5.9-13-13l0,0c0-7.2,5.9-13,13-13h8.6c4.9,0,9-4,9-9l0,0c0-4.9-4-9-9-9h-58
					c-7.8,0-14.1-6.4-14.1-14.1l0,0c0-7.8,6.4-14.1,14.1-14.1h17.4c4.9,0,9-4,9-9l0,0c0-4.9-4-9-9-9H210.6
					c-6.5,0-11.7,5.3-11.7,11.7l0,0c0,6.5,5.3,11.7,11.7,11.7h17.8c10.1,0,18.4,8.3,18.4,18.4l0,0c0,10.1-8.3,18.4-18.4,18.4h-68.9
					c-6.5,0-11.7,5.3-11.7,11.7l0,0c0,6.5,5.3,11.7,11.7,11.7h11.3c9.3,0,17,7.6,17,17l0,0c0,9.3-7.6,17-17,17h-15.3
					c-24,0-43.7,19.6-43.7,43.7l0,0c0,24,19.6,43.7,43.7,43.7h5c23.1,0,42,18.9,42,42l0,0c0,23.1-18.9,42-42,42h-10.8
					c-23.3,0-42.3,19.1-42.3,42.3l0,0c0,23.3,19.1,42.3,42.3,42.3C270.2,412.4,384.3,412.4,504.8,412.4L504.8,412.4z M180.6,62.1
					c-6.5,0-11.7-5.3-11.7-11.7c0-6.5,5.3-11.7,11.7-11.7c6.5,0,11.7,5.3,11.7,11.7C192.4,56.8,187.1,62.1,180.6,62.1L180.6,62.1z
					 M530.7,102.8c-5,0-9-4-9-9s4-9,9-9s9,4,9,9S535.7,102.8,530.7,102.8z"/>
			</defs>
			<clipPath id="SVGID_00000149345276242192237970000010972519998841451446_">
				<use xlink:href="#SVGID_00000145044436938747988210000002623972312446106778_"  style="overflow:visible;"/>
			</clipPath>
			<g style="clip-path:url(#SVGID_00000149345276242192237970000010972519998841451446_);">
				<g>
					<defs>
						<rect id="SVGID_00000135665224836030396770000007196628589383402406_" x="-596.3" y="-185.3" width="1547.6" height="773.8"/>
					</defs>
					<clipPath id="SVGID_00000036216257124976107230000001951286601273257110_">
						<use xlink:href="#SVGID_00000135665224836030396770000007196628589383402406_"  style="overflow:visible;"/>
					</clipPath>
					<path style="clip-path:url(#SVGID_00000036216257124976107230000001951286601273257110_);fill:#FFFFFF;" d="M1025,135.8
						c-2.5-13.3-9.1-24.9-18.3-33.5c0,0-21.2-21.5-54.2-16C924,91,903.9,115.5,902,143c-21.7-8.4-46-11-70.6-6.4
						c-45.6,8.6-81.1,40.1-96.9,80.3c-9.4-2.1-19.5-2.4-29.6-0.5c-24.1,4.5-43.3,20.4-53,41c-17.6-25-48.8-38.8-80.8-32.8
						c-14.1,2.7-26.7,8.8-36.9,17.5c-9.5-6.7-21.1-10.6-33.5-10.6c-17,0-32.2,7.2-42.9,18.8c-27.3-38.7-75.5-60.2-125.1-50.8
						c-38.1,7.2-68.9,30.9-86.2,62.4c-8.5-4.4-18.1-6.8-28.3-6.8c-26.6,0-49.3,16.8-58.1,40.3c-14.5-4.2-30.2-5.2-46-2.2
						c-16.1,3-30.6,9.8-42.7,19.2c-10.2-51.6-55.7-90.5-110.3-90.5c-47,0-87.2,28.8-104,69.7c-13.2-19.5-35.5-32.2-60.8-32.2
						c-13.3,0-25.9,3.6-36.7,9.8c-21.5-33.9-59.3-56.3-102.4-56.3c-16.9,0-33.1,3.5-47.7,9.8c-7.5-29.3-34.1-50.9-65.7-50.9
						c-8.5,0-16.5,1.6-24,4.4c2.6-9.3,4.1-19,4.1-29.1c0-58.4-47.3-105.7-105.7-105.7c-58.4,0-105.7,47.3-105.7,105.7
						c0,32.2,14.4,61,37,80.4v361.4h1657.3V192.3C1021.5,178.2,1029.1,157.3,1025,135.8z"/>
				</g>
			</g>
		</g>
		<g>
			<defs>
				<path id="SVGID_00000006681027428960506570000012598643467537257661_" d="M504.8,412.4c41.9,0,76.1-34.3,76.1-76.1l0,0
					c0-41.9-34.3-76.1-76.1-76.1l0,0c-17.7,0-32.2-14.5-32.2-32.2l0,0c0-17.7,14.5-32.2,32.2-32.2h3.8c18.4,0,33.5-15.1,33.5-33.5
					l0,0c0-18.4-15.1-33.5-33.5-33.5h-11.8c-7.2,0-13-5.9-13-13l0,0c0-7.2,5.9-13,13-13h8.6c4.9,0,9-4,9-9l0,0c0-4.9-4-9-9-9h-58
					c-7.8,0-14.1-6.4-14.1-14.1l0,0c0-7.8,6.4-14.1,14.1-14.1h17.4c4.9,0,9-4,9-9l0,0c0-4.9-4-9-9-9H210.6
					c-6.5,0-11.7,5.3-11.7,11.7l0,0c0,6.5,5.3,11.7,11.7,11.7h17.8c10.1,0,18.4,8.3,18.4,18.4l0,0c0,10.1-8.3,18.4-18.4,18.4h-68.9
					c-6.5,0-11.7,5.3-11.7,11.7l0,0c0,6.5,5.3,11.7,11.7,11.7h11.3c9.3,0,17,7.6,17,17l0,0c0,9.3-7.6,17-17,17h-15.3
					c-24,0-43.7,19.6-43.7,43.7l0,0c0,24,19.6,43.7,43.7,43.7h5c23.1,0,42,18.9,42,42l0,0c0,23.1-18.9,42-42,42h-10.8
					c-23.3,0-42.3,19.1-42.3,42.3l0,0c0,23.3,19.1,42.3,42.3,42.3C270.2,412.4,384.3,412.4,504.8,412.4L504.8,412.4z M180.6,62.1
					c-6.5,0-11.7-5.3-11.7-11.7c0-6.5,5.3-11.7,11.7-11.7c6.5,0,11.7,5.3,11.7,11.7C192.4,56.8,187.1,62.1,180.6,62.1L180.6,62.1z
					 M530.7,102.8c-5,0-9-4-9-9s4-9,9-9s9,4,9,9S535.7,102.8,530.7,102.8z"/>
			</defs>
			<clipPath id="SVGID_00000044893603711089375310000016727163202661122202_">
				<use xlink:href="#SVGID_00000006681027428960506570000012598643467537257661_"  style="overflow:visible;"/>
			</clipPath>
			<g style="clip-path:url(#SVGID_00000044893603711089375310000016727163202661122202_);">
				<g>
					<defs>
						<rect id="SVGID_00000098218750549122249720000017829674904430271678_" x="-596.3" y="-185.3" width="1547.6" height="773.8"/>
					</defs>
					<clipPath id="SVGID_00000182507699995112436600000006248825936531591610_">
						<use xlink:href="#SVGID_00000098218750549122249720000017829674904430271678_"  style="overflow:visible;"/>
					</clipPath>
					<g style="clip-path:url(#SVGID_00000182507699995112436600000006248825936531591610_);">
						<g>
							<rect x="-434.8" y="348.3" class="st17" width="48.5" height="42.6"/>
							<rect x="-449.4" y="348.3" class="st18" width="48.5" height="42.6"/>
							<g>
								<rect x="-426.3" y="348.3" class="st19" width="5.2" height="8.6"/>
							</g>
							<g>
								<rect x="-440.1" y="383" class="st17" width="5" height="4.8"/>
								<rect x="-447.1" y="383" class="st17" width="5" height="4.8"/>
								<rect x="-433" y="383" class="st17" width="5" height="4.8"/>
							</g>
						</g>
						<g>
							<rect x="-336.2" y="348.3" class="st17" width="48.5" height="42.6"/>
							<rect x="-350.9" y="348.3" class="st18" width="48.5" height="42.6"/>
							<g>
								<rect x="-327.8" y="348.3" class="st19" width="5.2" height="8.6"/>
							</g>
							<g>
								<rect x="-341.5" y="383" class="st17" width="5" height="4.8"/>
								<rect x="-348.5" y="383" class="st17" width="5" height="4.8"/>
								<rect x="-334.5" y="383" class="st17" width="5" height="4.8"/>
							</g>
						</g>
						<g>
							<rect x="773.1" y="348.3" class="st17" width="48.5" height="42.6"/>
							<rect x="758.5" y="348.3" class="st18" width="48.5" height="42.6"/>
							<g>
								<rect x="781.5" y="348.3" class="st19" width="5.2" height="8.6"/>
							</g>
							<g>
								<rect x="767.8" y="383" class="st17" width="5" height="4.8"/>
								<rect x="760.8" y="383" class="st17" width="5" height="4.8"/>
								<rect x="774.8" y="383" class="st17" width="5" height="4.8"/>
							</g>
						</g>
						<g>
							<rect x="871.6" y="348.3" class="st17" width="48.5" height="42.6"/>
							<rect x="857" y="348.3" class="st18" width="48.5" height="42.6"/>
							<g>
								<rect x="880" y="348.3" class="st19" width="5.2" height="8.6"/>
							</g>
							<g>
								<rect x="866.3" y="383" class="st17" width="5" height="4.8"/>
								<rect x="859.3" y="383" class="st17" width="5" height="4.8"/>
								<rect x="873.4" y="383" class="st17" width="5" height="4.8"/>
							</g>
						</g>
						<g>
							<rect x="-533.3" y="348.3" class="st17" width="48.5" height="42.6"/>
							<rect x="-547.9" y="348.3" class="st18" width="48.5" height="42.6"/>
							<g>
								<rect x="-524.9" y="348.3" class="st19" width="5.2" height="8.6"/>
							</g>
							<g>
								<rect x="-538.6" y="383" class="st17" width="5" height="4.8"/>
								<rect x="-545.6" y="383" class="st17" width="5" height="4.8"/>
								<rect x="-531.5" y="383" class="st17" width="5" height="4.8"/>
							</g>
						</g>
						<g>
							<rect x="-634" y="348.3" class="st17" width="48.5" height="42.6"/>
							<rect x="-648.7" y="348.3" class="st18" width="48.5" height="42.6"/>
							<g>
								<rect x="-625.6" y="348.3" class="st19" width="5.2" height="8.6"/>
							</g>
							<g>
								<rect x="-639.3" y="383" class="st17" width="5" height="4.8"/>
								<rect x="-646.3" y="383" class="st17" width="5" height="4.8"/>
								<rect x="-632.3" y="383" class="st17" width="5" height="4.8"/>
							</g>
						</g>
					</g>
				</g>
				<g>
					<defs>
						<rect id="SVGID_00000003810916504786205350000011031565745440714650_" x="-596.3" y="-185.3" width="1547.6" height="773.8"/>
					</defs>
					<clipPath id="SVGID_00000130620297805157750590000001170002350293552296_">
						<use xlink:href="#SVGID_00000003810916504786205350000011031565745440714650_"  style="overflow:visible;"/>
					</clipPath>
					<path style="clip-path:url(#SVGID_00000130620297805157750590000001170002350293552296_);fill:#FFFFFF;" d="M83,494.1
						c-37.6-19.1-86.7-14-86.7-14s-22.4-24.1-74.8-21.9c-52.3,2.2-62,24.7-62,24.7s-28.4-13.5-82.2-12.3
						c-53.8,1.1-67.3,16.3-67.3,16.3s-9-4.5-59.8-5.6c-37.6-0.8-54.3,8.2-60.5,12.9H83V494.1z"/>
				</g>
				<g>
					<defs>
						<rect id="SVGID_00000130609372073199147420000005815023949575165331_" x="-596.3" y="-185.3" width="1547.6" height="773.8"/>
					</defs>
					<clipPath id="SVGID_00000160156618048538106140000005132205389785690790_">
						<use xlink:href="#SVGID_00000130609372073199147420000005815023949575165331_"  style="overflow:visible;"/>
					</clipPath>
					<path style="clip-path:url(#SVGID_00000160156618048538106140000005132205389785690790_);fill:#FFFFFF;" d="M-747.2,499.7
						h361.9c0-67.2-118.3-49.5-118.3-49.5s-14.7-21.2-43-39.8c-28.3-18.6-83.9-10.8-83.9-10.8s-0.9-24.1-40.9-45.2
						c-24.7-13-53.3-11.5-75.7-9.4L-747.2,499.7L-747.2,499.7z"/>
				</g>
				<g>
					<defs>
						<rect id="SVGID_00000026127415154420443260000005789526335347399585_" x="-596.3" y="-185.3" width="1547.6" height="773.8"/>
					</defs>
					<clipPath id="SVGID_00000174589726720947237420000014393753093190576036_">
						<use xlink:href="#SVGID_00000026127415154420443260000005789526335347399585_"  style="overflow:visible;"/>
					</clipPath>
					<g style="clip-path:url(#SVGID_00000174589726720947237420000014393753093190576036_);">
						<g>
							<g>
								<polygon class="st23" points="655.4,392.1 655.4,460 641.8,460 641.8,381.6 								"/>
								<rect x="655.4" y="392.1" class="st24" width="39.2" height="67.9"/>
								<g>
									<path class="st25" d="M660.8,432.4v-13.1c0-1.5,1.2-2.6,2.6-2.6h23.1c1.5,0,2.6,1.2,2.6,2.6v13.1c0,1.5-1.2,2.6-2.6,2.6
										h-23.1C662,435.1,660.8,433.9,660.8,432.4z M663.5,416.9c-1.3,0-2.4,1.1-2.4,2.4v13.1c0,1.3,1.1,2.4,2.4,2.4h23.1
										c1.3,0,2.4-1.1,2.4-2.4v-13.1c0-1.3-1.1-2.4-2.4-2.4H663.5z"/>
									<path class="st26" d="M678.9,419.5h-8c-0.3,0-0.5-0.2-0.5-0.5l0,0c0-0.3,0.2-0.5,0.5-0.5h8c0.3,0,0.5,0.2,0.5,0.5l0,0
										C679.4,419.3,679.2,419.5,678.9,419.5z"/>
								</g>
								<polygon class="st27" points="641.8,381.6 655.4,392.1 655.4,402 655.3,402 641.8,391 								"/>
								<rect x="655.4" y="392.1" class="st27" width="39.2" height="9.9"/>
							</g>
							<g>
								<polygon class="st23" points="654.6,396.8 631.7,378.7 631.7,370 654.6,387.3 								"/>
								<rect x="654.7" y="387.3" class="st24" width="50" height="9.5"/>
								<polygon class="st28" points="631.7,370 632.1,370 679.3,370 704.7,387.3 654.7,387.3 								"/>
								<g>
									<polygon class="st19" points="661.6,375.8 645.1,375.8 641.5,373.3 658,373.3 									"/>
									<polygon class="st19" points="672.1,375.8 664.7,375.8 661.2,373.3 668.5,373.3 									"/>
									<polygon class="st19" points="666.5,379.3 650,379.3 646.5,376.8 663,376.8 									"/>
									<polygon class="st19" points="677,379.3 669.6,379.3 666.1,376.8 673.5,376.8 									"/>
									<polygon class="st19" points="671.5,382.8 654.9,382.8 651.4,380.3 667.9,380.3 									"/>
									<polygon class="st19" points="682,382.8 674.6,382.8 671,380.3 678.4,380.3 									"/>
									<polygon class="st19" points="682.5,375.8 675.2,375.8 671.6,373.3 679,373.3 									"/>
									<polygon class="st19" points="687.5,379.3 680.1,379.3 676.6,376.8 683.9,376.8 									"/>
									<polygon class="st19" points="692.4,382.8 685.1,382.8 681.5,380.3 688.9,380.3 									"/>
								</g>
							</g>
						</g>
						<rect x="637.3" y="455.7" class="st27" width="63.8" height="4.2"/>
					</g>
				</g>
				<g>
					<defs>
						<rect id="SVGID_00000059306337982421966800000017579457448469747616_" x="-596.3" y="-185.3" width="1547.6" height="773.8"/>
					</defs>
					<clipPath id="SVGID_00000094580189153949348260000009651864338968437920_">
						<use xlink:href="#SVGID_00000059306337982421966800000017579457448469747616_"  style="overflow:visible;"/>
					</clipPath>
				</g>
				<g>
					<defs>
						<rect id="SVGID_00000061447202698315165840000003370881736625392021_" x="-596.3" y="-185.3" width="1547.6" height="773.8"/>
					</defs>
					<clipPath id="SVGID_00000005957986999164129220000007626717251957363878_">
						<use xlink:href="#SVGID_00000061447202698315165840000003370881736625392021_"  style="overflow:visible;"/>
					</clipPath>
					<path style="clip-path:url(#SVGID_00000005957986999164129220000007626717251957363878_);fill:#FFFFFF;" d="M877.7,479.3
						c-55.3-17.6-127.6-12.9-127.6-12.9s-33-22.2-110.1-20.2c-77,2.1-91.3,22.8-91.3,22.8s-41.8-12.4-121.1-11.4
						c-79.2,1-99,15-99,15s-13.2-4.1-88-5.2c-55.4-0.8-80,7.5-89.1,11.9L877.7,479.3L877.7,479.3z"/>
				</g>
				<g>
					<defs>
						<rect id="SVGID_00000122701694333046079700000005446715007057041067_" x="-596.3" y="-185.3" width="1547.6" height="773.8"/>
					</defs>
					<clipPath id="SVGID_00000182488823507256470250000013983925306530976416_">
						<use xlink:href="#SVGID_00000122701694333046079700000005446715007057041067_"  style="overflow:visible;"/>
					</clipPath>
					<path style="clip-path:url(#SVGID_00000182488823507256470250000013983925306530976416_);fill:#FFFFFF;" d="M1067.3,478.4
						C1032.1,462.9,986,467,986,467s-21-19.6-70.1-17.7c-49.1,1.8-58.2,20-58.2,20s-26.7-10.9-77.2-10s-63.1,13.2-63.1,13.2
						s-8.4-3.6-56.1-4.5c-35.3-0.7-51,6.6-56.8,10.5h462.8V478.4z"/>
				</g>
				<g>
					<defs>
						<rect id="SVGID_00000150784446295206522120000015682218548647291544_" x="-596.3" y="-185.3" width="1547.6" height="773.8"/>
					</defs>
					<clipPath id="SVGID_00000009567354977974196180000011428125449361503364_">
						<use xlink:href="#SVGID_00000150784446295206522120000015682218548647291544_"  style="overflow:visible;"/>
					</clipPath>
					<g style="clip-path:url(#SVGID_00000009567354977974196180000011428125449361503364_);">
						<g>
							<g>
								<polygon class="st23" points="-490.7,417.8 -490.7,485.7 -504.3,485.7 -504.3,407.3 								"/>
								<rect x="-490.7" y="417.8" class="st24" width="39.2" height="67.9"/>
								<g>
									<path class="st25" d="M-485.3,458.2V445c0-1.5,1.2-2.6,2.6-2.6h23.1c1.5,0,2.6,1.2,2.6,2.6v13.1c0,1.5-1.2,2.6-2.6,2.6
										h-23.1C-484.1,460.8-485.3,459.6-485.3,458.2z M-482.6,442.6c-1.3,0-2.4,1.1-2.4,2.4v13.1c0,1.3,1.1,2.4,2.4,2.4h23.1
										c1.3,0,2.4-1.1,2.4-2.4V445c0-1.3-1.1-2.4-2.4-2.4H-482.6z"/>
									<path class="st26" d="M-467.2,445.2h-8c-0.3,0-0.5-0.2-0.5-0.5l0,0c0-0.3,0.2-0.5,0.5-0.5h8c0.3,0,0.5,0.2,0.5,0.5l0,0
										C-466.7,445-466.9,445.2-467.2,445.2z"/>
								</g>
								<polygon class="st27" points="-504.3,407.3 -490.7,417.8 -490.7,427.7 -490.8,427.7 -504.3,416.7 								"/>
								<rect x="-490.7" y="417.8" class="st27" width="39.2" height="9.9"/>
							</g>
							<g>
								<polygon class="st23" points="-491.5,422.5 -514.4,404.4 -514.4,395.8 -491.5,413.1 								"/>
								<rect x="-491.4" y="413.1" class="st24" width="50" height="9.5"/>
								<polygon class="st28" points="-514.4,395.8 -514,395.8 -466.8,395.8 -441.4,413.1 -491.4,413.1 								"/>
								<g>
									<polygon class="st19" points="-484.5,401.6 -501,401.6 -504.6,399 -488.1,399.1 									"/>
									<polygon class="st19" points="-474,401.6 -481.4,401.6 -484.9,399.1 -477.6,399.1 									"/>
									<polygon class="st19" points="-479.6,405.1 -496.1,405 -499.6,402.5 -483.1,402.6 									"/>
									<polygon class="st19" points="-469.1,405.1 -476.5,405.1 -480,402.6 -472.6,402.6 									"/>
									<polygon class="st19" points="-474.7,408.6 -491.2,408.5 -494.7,406 -478.2,406.1 									"/>
									<polygon class="st19" points="-464.1,408.6 -471.5,408.6 -475.1,406.1 -467.7,406.1 									"/>
									<polygon class="st19" points="-463.6,401.6 -470.9,401.6 -474.5,399.1 -467.1,399.1 									"/>
									<polygon class="st19" points="-458.6,405.1 -466,405.1 -469.5,402.6 -462.2,402.6 									"/>
									<polygon class="st19" points="-453.7,408.6 -461,408.6 -464.6,406.1 -457.2,406.1 									"/>
								</g>
							</g>
						</g>
						<rect x="-508.8" y="481.5" class="st27" width="63.8" height="4.2"/>
					</g>
				</g>
			</g>
		</g>
	</g>
	<g>
		<g>
			<g>
				
					<rect x="245.2" y="188.3" transform="matrix(1.940002e-02 -0.9998 0.9998 1.940002e-02 63.5257 453.1415)" class="st27" width="35.2" height="11.7"/>
				<g>
					<g>
						
							<rect x="260.3" y="227.2" transform="matrix(8.554993e-03 -1 1 8.554993e-03 27.5563 493.7776)" class="st27" width="4.9" height="11.6"/>
						
							<rect x="259.1" y="233.5" transform="matrix(8.554837e-03 -1 1 8.554837e-03 23.4945 497.6693)" class="st27" width="7.3" height="7"/>
						
							<rect x="260.3" y="227.2" transform="matrix(8.554993e-03 -1 1 8.554993e-03 27.5563 493.7776)" class="st27" width="4.9" height="11.6"/>
						<g>
							<path class="st27" d="M256.7,242.2L256.7,242.2L256.7,242.2L256.7,242.2L256.7,242.2l0.9-0.8c1.3-1.3,3.1-2,4.9-1.9l0,0
								c1.8,0,3.6,0.7,4.9,2l0.9,0.8l0,0l0,0l0,0l0,0v5.8l0,0l-0.9,0.8c-1.3,1.2-3.1,1.9-4.9,1.9h-0.1c-1.8,0-3.5-0.7-4.8-2
								l-0.9-0.8l0,0V242.2z"/>
							
								<rect x="260" y="246.1" transform="matrix(8.553862e-03 -1 1 8.553862e-03 10.6948 509.651)" class="st27" width="4.7" height="6.6"/>
						</g>
						<polygon class="st27" points="263.7,243.9 263.6,263.7 262.2,265 260.9,263.7 261,243.8 						"/>
					</g>
					<g>
						<polygon class="st32" points="255.8,232.9 269.8,233 277,225.3 248.7,225 						"/>
					</g>
					<g>
						<polygon class="st32" points="270.6,203 255.5,202.8 247.8,208.1 278.2,208.3 						"/>
					</g>
					
						<rect x="253.7" y="200.2" transform="matrix(8.554650e-03 -1 1 8.554650e-03 44.3181 477.4254)" class="st27" width="18.5" height="32.3"/>
				</g>
			</g>
			<g>
				
					<rect x="200.4" y="156" transform="matrix(2.861357e-02 -0.9996 0.9996 2.861357e-02 18.1758 383.1567)" class="st27" width="11.7" height="52.4"/>
				<g>
					<path class="st32" d="M217.8,195.2l44.1,1.4c6.8,0.2,12.4-5.1,12.6-11.9l0,0c0.2-6.8-5.1-12.4-11.9-12.6l-44.1-1.4
						c-6.8-0.2-12.4,5.1-12.6,11.9l0,0C205.8,189.3,211.1,195,217.8,195.2z"/>
					<g>
						<g>
							<path class="st27" d="M257.8,182c-1.2,2.5,0,5.5,2.5,6.7s5.5,0,6.7-2.5s0-5.5-2.5-6.7S259,179.5,257.8,182z"/>
						</g>
					</g>
					<g>
						<g>
							<path class="st27" d="M212.8,181.1c-1.2,2.5,0,5.5,2.5,6.7s5.5,0,6.7-2.5s0-5.5-2.5-6.7C216.9,177.5,213.9,178.6,212.8,181.1
								z"/>
						</g>
					</g>
				</g>
			</g>
			<rect x="218" y="52" class="st27" width="11.7" height="52.4"/>
			<path class="st32" d="M212.1,38.4v15.9c0,6.5,5.2,11.7,11.7,11.7l0,0c6.5,0,11.7-5.2,11.7-11.7V38.4H212.1z"/>
			<g>
				<path class="st27" d="M217.6,51.6c-1.5,3.5,0.1,7.5,3.6,9s7.5-0.1,9-3.6s-0.1-7.5-3.6-9S219.1,48.1,217.6,51.6z"/>
			</g>
			<g>
				<path class="st32" d="M198.3,189.5l39.3-71.8c6-11,2-24.8-9-30.8l0,0c-11-6-24.8-2-30.8,9l-39.3,71.8c-6,11-2,24.8,9,30.8l0,0
					C178.5,204.6,192.3,200.5,198.3,189.5z"/>
				<g>
					<g>
						<path class="st27" d="M208.2,113.8c4,5,11.3,5.8,16.3,1.8s5.8-11.3,1.8-16.3S215,93.5,210,97.5S204.2,108.8,208.2,113.8z"/>
					</g>
					<g>
						<path class="st27" d="M169.3,185.8c3.9,5,11.3,5.9,16.3,2s5.9-11.3,2-16.3s-11.3-5.9-16.3-2
							C166.3,173.5,165.4,180.8,169.3,185.8z"/>
					</g>
				</g>
			</g>
		</g>
	</g>
	<g>
		<g>
			<rect x="454.1" y="48.9" class="st27" width="9.2" height="41.1"/>
			
				<rect x="497.6" y="109" transform="matrix(0.4674 -0.884 0.884 0.4674 175.5826 518.5717)" class="st27" width="41.1" height="9.2"/>
			
				<rect x="493.1" y="147.9" transform="matrix(0.9999 -1.084718e-02 1.084718e-02 0.9999 -1.7246 5.4079)" class="st27" width="9.2" height="27.6"/>
			<path class="st32" d="M449.5,39.4v11.2c0,5.1,4.1,9.2,9.2,9.2l0,0c5.1,0,9.2-4.1,9.2-9.2V39.4H449.5z"/>
			<g>
				<path class="st27" d="M456.6,45.7c-2.7,1.2-4,4.3-2.8,7.1c1.2,2.7,4.3,4,7.1,2.8c2.7-1.2,4-4.3,2.8-7.1
					C462.5,45.8,459.3,44.5,456.6,45.7z"/>
			</g>
			<g>
				<path class="st32" d="M529.3,107.7l-64.2,2.3c-9.8,0.4-18.1-7.3-18.5-17.2l0,0c-0.4-9.8,7.3-18.1,17.2-18.5L528,72
					c9.8-0.4,18.1,7.3,18.5,17.2l0,0C546.8,99,539.1,107.3,529.3,107.7z"/>
				<g>
					<g>
						<path class="st27" d="M460.6,83.5c-4.6,2.1-6.6,7.5-4.4,12.1c2.1,4.6,7.5,6.6,12.1,4.4c4.6-2.1,6.6-7.5,4.4-12.1
							C470.6,83.4,465.1,81.4,460.6,83.5z"/>
					</g>
					<g>
						<path class="st27" d="M524.7,81.7c-4.5,2.2-6.5,7.6-4.3,12.2c2.2,4.5,7.6,6.5,12.2,4.3c4.5-2.2,6.5-7.6,4.3-12.2
							C534.7,81.5,529.3,79.5,524.7,81.7z"/>
					</g>
				</g>
				<g>
					<path class="st32" d="M462.2,87.8c-2.4,1.1-3.4,3.9-2.3,6.3s3.9,3.4,6.3,2.3s3.4-3.9,2.3-6.3C467.5,87.7,464.6,86.7,462.2,87.8
						z"/>
				</g>
				<g>
					<path class="st32" d="M526.4,85.8c-2.4,1.2-3.5,4.1-2.3,6.5s4.1,3.5,6.5,2.3s3.5-4.1,2.3-6.5C531.7,85.7,528.8,84.7,526.4,85.8
						z"/>
				</g>
			</g>
			<g>
				<path class="st32" d="M522.6,126.4l-16.1,30.7c-2.5,4.7-8.3,6.5-13,4.1l0,0c-4.7-2.5-6.5-8.3-4.1-13l16.1-30.7
					c2.5-4.7,8.3-6.5,13-4.1l0,0C523.2,115.9,525.1,121.7,522.6,126.4z"/>
				<g>
					<g>
						<path class="st27" d="M493.8,152.3c-0.2,2.2,1.4,4.1,3.6,4.3s4.1-1.4,4.3-3.6c0.2-2.2-1.4-4.1-3.6-4.3
							C496,148.5,494,150.1,493.8,152.3z"/>
					</g>
				</g>
				<g>
					<g>
						<path class="st27" d="M510.7,121.1c-0.2,2.2,1.4,4.1,3.6,4.3s4.1-1.4,4.3-3.6c0.2-2.2-1.4-4.1-3.6-4.3
							C512.8,117.3,510.8,118.9,510.7,121.1z"/>
					</g>
				</g>
			</g>
			<g>
				<g>
					<path class="st27" d="M541.8,193.9v37.7c-0.3,2.4-1.8,3.5-4.6,3.1v-40.8L541.8,193.9L541.8,193.9z"/>
					<polygon class="st27" points="552.7,193.9 539.5,207 539.5,193.9 					"/>
				</g>
				<g>
					<path class="st27" d="M458,193.9v40.8c-2.8,0.4-4.3-0.6-4.6-3.1v-37.7L458,193.9L458,193.9z"/>
					<polygon class="st27" points="456.8,193.9 456.8,207 443.6,193.9 					"/>
				</g>
				<g>
					<path class="st32" d="M491.7,171.3h11.2c2,1.6,3.3,4.1,3.3,6.9V190h-17.8v-11.8C488.4,175.4,489.7,172.9,491.7,171.3z"/>
					<path class="st32" d="M444.4,194.5h107.4c1.7,0,3-1.3,3-3l0,0c0-1.7-1.3-3-3-3H444.4c-1.7,0-3,1.3-3,3l0,0
						C441.3,193.2,442.7,194.5,444.4,194.5z"/>
					<circle class="st27" cx="497.3" cy="179.4" r="5.4"/>
					<circle class="st4" cx="497.3" cy="179.4" r="2.6"/>
				</g>
			</g>
		</g>
	</g>
	<g>
		<g>
			<path class="st32" d="M301.4,252.5H286v-45.9c0-12.1,9.9-22,22-22h66.3c12.1,0,22,9.9,22,22v24.7h-15.4v-24.7
				c0-3.7-3-6.6-6.6-6.6H308c-3.7,0-6.6,3-6.6,6.6V252.5z"/>
			<rect x="372.6" y="227.3" class="st32" width="31.9" height="4.1"/>
			<rect x="277.6" y="248.5" class="st32" width="31.9" height="4.1"/>
		</g>
		<rect x="141.2" y="256.2" class="st33" width="57.6" height="158.5"/>
		<g>
			<path class="st32" d="M156.2,414.6h114.4V238.9c0-2.8-2.3-5-5-5H161.2c-2.8,0-5,2.3-5,5V414.6z"/>
			<g>
				<rect x="251.5" y="370.7" class="st34" width="3.9" height="31.2"/>
				<rect x="243.8" y="370.7" class="st34" width="3.9" height="31.2"/>
				<rect x="236.3" y="370.7" class="st34" width="3.9" height="31.2"/>
				<rect x="228.6" y="370.7" class="st34" width="3.9" height="31.2"/>
				<rect x="221" y="370.7" class="st34" width="3.9" height="31.2"/>
				<rect x="213.4" y="370.7" class="st34" width="3.9" height="31.2"/>
				<rect x="205.7" y="370.7" class="st34" width="3.9" height="31.2"/>
			</g>
			<rect x="161.8" y="231.3" class="st33" width="104.4" height="2.4"/>
			<path class="st4" d="M168.6,348.3h90c2.7,0,4.9-2.2,4.9-4.9V247c0-2.7-2.2-4.9-4.9-4.9h-90c-2.7,0-4.9,2.2-4.9,4.9v96.4
				C163.7,346.1,165.8,348.3,168.6,348.3z"/>
			<g>
				<path class="st33" d="M179.5,283.5h69.1c1.2,0,2.2-1,2.2-2.2v-23.2c0-1.2-1-2.2-2.2-2.2h-69.1c-1.2,0-2.2,1-2.2,2.2v23.2
					C177.2,282.6,178.2,283.5,179.5,283.5z"/>
				<g>
					<g>
						<rect x="221.9" y="275.6" class="st10" width="5.9" height="3.9"/>
						<rect x="221.9" y="271" class="st10" width="5.9" height="3.9"/>
						<rect x="221.9" y="266.4" class="st10" width="5.9" height="3.9"/>
						<rect x="221.9" y="261.7" class="st10" width="5.9" height="3.9"/>
					</g>
					<g>
						<rect x="215" y="275.6" class="st10" width="5.9" height="3.9"/>
						<rect x="215" y="271" class="st10" width="5.9" height="3.9"/>
						<rect x="215" y="266.4" class="st10" width="5.9" height="3.9"/>
					</g>
					<g>
						<rect x="194.2" y="275.6" class="st10" width="5.9" height="3.9"/>
						<rect x="194.2" y="271" class="st10" width="5.9" height="3.9"/>
						<rect x="194.2" y="266.4" class="st10" width="5.9" height="3.9"/>
					</g>
					<g>
						<rect x="208" y="275.6" class="st10" width="5.9" height="3.9"/>
						<rect x="208" y="271" class="st10" width="5.9" height="3.9"/>
						<rect x="208" y="266.4" class="st10" width="5.9" height="3.9"/>
						<rect x="208" y="261.7" class="st10" width="5.9" height="3.9"/>
					</g>
					<g>
						<rect x="201.2" y="275.6" class="st10" width="5.9" height="3.9"/>
						<rect x="235.8" y="275.6" class="st10" width="5.9" height="3.9"/>
						<rect x="201.2" y="271" class="st10" width="5.9" height="3.9"/>
					</g>
					<g>
						<rect x="228.8" y="275.6" class="st10" width="5.9" height="3.9"/>
						<rect x="228.8" y="271" class="st10" width="5.9" height="3.9"/>
					</g>
					<g>
						<rect x="187.4" y="275.6" class="st10" width="5.9" height="3.9"/>
						<rect x="187.4" y="271" class="st10" width="5.9" height="3.9"/>
					</g>
				</g>
				<g>
					<g>
						<circle class="st10" cx="192" cy="307.5" r="12.3"/>
						<g>
							<g>
								<path class="st33" d="M200.5,300.3l-4.2,4c0.7,0.9,1.2,2.1,1.2,3.3h5.8C203.2,304.7,202.1,302.2,200.5,300.3z"/>
							</g>
							<g>
								<path class="st33" d="M199.5,299.3c-1.9-1.7-4.5-2.8-7.3-2.9l0.1,5.8c1.1,0.1,2.1,0.5,3,1.1L199.5,299.3z"/>
							</g>
							<g>
								<path class="st33" d="M184.3,299.4l4.1,4c0.7-0.6,1.6-1,2.5-1.2l-0.1-5.8C188.4,296.7,186.1,297.8,184.3,299.4z"/>
							</g>
							<g>
								<path class="st33" d="M180.8,307.5h5.8c0-1.1,0.4-2.2,1-3.1l-4.1-4C181.8,302.3,180.8,304.8,180.8,307.5z"/>
							</g>
						</g>
					</g>
					<path class="st34" d="M192.6,307.8L192.6,307.8c0.1-0.3-0.1-0.7-0.4-0.8l-6.6-2.2c-0.3-0.1-0.7,0.1-0.8,0.4l0,0
						c-0.1,0.3,0.1,0.7,0.4,0.8l6.6,2.2C192.1,308.3,192.4,308.2,192.6,307.8z"/>
				</g>
				<g>
					<g>
						<circle class="st10" cx="234.5" cy="307.5" r="12.3"/>
						<g>
							<g>
								<path class="st33" d="M243,300.3l-4.2,4c0.7,0.9,1.2,2.1,1.2,3.3h5.8C245.7,304.7,244.7,302.2,243,300.3z"/>
							</g>
							<g>
								<path class="st33" d="M242,299.3c-1.9-1.7-4.5-2.8-7.3-2.9l0.1,5.8c1.1,0.1,2.1,0.5,3,1.1L242,299.3z"/>
							</g>
							<g>
								<path class="st33" d="M226.8,299.4l4.1,4c0.7-0.6,1.6-1,2.5-1.2l-0.1-5.8C230.9,296.7,228.6,297.8,226.8,299.4z"/>
							</g>
							<g>
								<path class="st33" d="M223.3,307.5h5.8c0-1.1,0.4-2.2,1-3.1l-4.1-4C224.3,302.3,223.3,304.8,223.3,307.5z"/>
							</g>
						</g>
					</g>
					<path class="st34" d="M234.3,307.9L234.3,307.9c0.3,0.1,0.7,0,0.9-0.4l2.4-6.5c0.1-0.3,0-0.7-0.4-0.9l0,0
						c-0.3-0.1-0.7,0-0.9,0.4l-2.4,6.5C233.8,307.4,233.9,307.8,234.3,307.9z"/>
					<circle class="st7" cx="213.2" cy="299.5" r="1.5"/>
					<circle class="st24" cx="213.2" cy="304.8" r="1.5"/>
					<circle class="st24" cx="213.2" cy="310" r="1.5"/>
					<circle class="st24" cx="213.2" cy="315.2" r="1.5"/>
				</g>
			</g>
			<path class="st24" d="M241.9,335.3L241.9,335.3c2.1,0,3.8-1.7,3.8-3.8l0,0c0-2.1-1.7-3.8-3.8-3.8l0,0c-2.1,0-3.8,1.7-3.8,3.8l0,0
				C238.1,333.6,239.8,335.3,241.9,335.3z"/>
			<path class="st24" d="M230.4,335.3L230.4,335.3c2.1,0,3.8-1.7,3.8-3.8l0,0c0-2.1-1.7-3.8-3.8-3.8l0,0c-2.1,0-3.8,1.7-3.8,3.8l0,0
				C226.6,333.6,228.3,335.3,230.4,335.3z"/>
			<path class="st35" d="M219,335.3L219,335.3c2.1,0,3.8-1.7,3.8-3.8l0,0c0-2.1-1.7-3.8-3.8-3.8l0,0c-2.1,0-3.8,1.7-3.8,3.8l0,0
				C215.2,333.6,216.9,335.3,219,335.3z"/>
			<path class="st32" d="M207.5,335.3L207.5,335.3c2.1,0,3.8-1.7,3.8-3.8l0,0c0-2.1-1.7-3.8-3.8-3.8l0,0c-2.1,0-3.8,1.7-3.8,3.8l0,0
				C203.7,333.6,205.4,335.3,207.5,335.3z"/>
			<path class="st32" d="M196.1,335.3L196.1,335.3c2.1,0,3.8-1.7,3.8-3.8l0,0c0-2.1-1.7-3.8-3.8-3.8l0,0c-2.1,0-3.8,1.7-3.8,3.8l0,0
				C192.3,333.6,194,335.3,196.1,335.3z"/>
			<path class="st33" d="M184.6,335.3L184.6,335.3c2.1,0,3.8-1.7,3.8-3.8l0,0c0-2.1-1.7-3.8-3.8-3.8l0,0c-2.1,0-3.8,1.7-3.8,3.8l0,0
				C180.8,333.6,182.5,335.3,184.6,335.3z"/>
		</g>
		<g>
			<g>
				<path class="st32" d="M383.7,86.6h8.7c0.7,0,1.2-0.6,1.2-1.2l0,0c0-0.7-0.6-1.2-1.2-1.2h-8.7c-0.7,0-1.2,0.6-1.2,1.2l0,0
					C382.5,86,383,86.6,383.7,86.6z"/>
				<path class="st32" d="M383.7,91.1h8.7c0.7,0,1.2-0.6,1.2-1.2l0,0c0-0.7-0.6-1.2-1.2-1.2h-8.7c-0.7,0-1.2,0.6-1.2,1.2l0,0
					C382.5,90.5,383,91.1,383.7,91.1z"/>
				<path class="st32" d="M383.7,95.6h8.7c0.7,0,1.2-0.6,1.2-1.2l0,0c0-0.7-0.6-1.2-1.2-1.2h-8.7c-0.7,0-1.2,0.6-1.2,1.2l0,0
					C382.5,95,383,95.6,383.7,95.6z"/>
				<path class="st32" d="M383.7,100.1h8.7c0.7,0,1.2-0.6,1.2-1.2l0,0c0-0.7-0.6-1.2-1.2-1.2h-8.7c-0.7,0-1.2,0.6-1.2,1.2l0,0
					C382.5,99.5,383,100.1,383.7,100.1z"/>
			</g>
			<g>
				<path class="st32" d="M358.2,73.5L358.2,73.5c10.3,0,18.6,8.3,18.6,18.6s-8.3,18.6-18.6,18.6c-3.1,0-6-0.8-8.6-2.1l8.6-16.5
					V73.5z"/>
				<path class="st33" d="M349.6,108.6c-5.9-3.1-10-9.3-10-16.5h18.5L349.6,108.6z"/>
				<path class="st4" d="M358.2,73.5v18.6h-18.5C339.6,81.9,347.9,73.5,358.2,73.5z"/>
			</g>
		</g>
		<g>
			<g>
				<rect x="270.6" y="252.9" class="st4" width="68" height="155.3"/>
				<rect x="270.8" y="275.3" class="st36" width="68" height="0.7"/>
				<rect x="270.8" y="345.7" class="st36" width="68" height="0.7"/>
				<g>
					<path class="st37" d="M276.2,281.8c-0.9,0-1.6,0.7-1.6,1.6V338c0,0.9,0.7,1.6,1.6,1.6h56.3c0.9,0,1.6-0.7,1.6-1.6v-54.6
						c0-0.9-0.7-1.6-1.6-1.6H276.2z"/>
					<path class="st38" d="M297.5,290.3h16c1,0,1.8-0.8,1.8-1.8l0,0c0-1-0.8-1.8-1.8-1.8h-16c-1,0-1.8,0.8-1.8,1.8l0,0
						C295.7,289.5,296.5,290.3,297.5,290.3z"/>
				</g>
				<polygon class="st39" points="273.8,252.9 274.3,407.7 270.6,407.7 270.6,252.9 				"/>
			</g>
			<circle class="st40" cx="317.8" cy="316.7" r="1.5"/>
			<circle class="st40" cx="313.3" cy="316.7" r="1.5"/>
			<circle class="st40" cx="308.8" cy="316.7" r="1.5"/>
			<circle class="st40" cx="304.2" cy="316.7" r="1.5"/>
			<circle class="st40" cx="299.7" cy="316.7" r="1.5"/>
			<circle class="st40" cx="295.1" cy="316.7" r="1.5"/>
			<circle class="st40" cx="290.6" cy="316.7" r="1.5"/>
		</g>
		<g>
			<path class="st33" d="M512.4,412.4H337.5V239.7c0-5,4-9,9-9h156.9c5,0,9,4,9,9V412.4z"/>
			<g>
				<path class="st32" d="M358.1,307.2h55.4c2.2,0,4.1-1.8,4.1-4.1V251c0-2.2-1.8-4.1-4.1-4.1h-55.4c-2.2,0-4.1,1.8-4.1,4.1v52.1
					C354,305.4,355.8,307.2,358.1,307.2z"/>
				<rect x="400.2" y="279.8" class="st41" width="6" height="17.4"/>
				<rect x="391.8" y="277.2" class="st41" width="6" height="20"/>
				<rect x="383.4" y="271.9" class="st41" width="6" height="25.3"/>
				<rect x="375" y="268.1" class="st41" width="6" height="29"/>
				<rect x="366.7" y="260.1" class="st41" width="6" height="37"/>
			</g>
			<g>
				<path class="st32" d="M497,306.5h-64.3c-3.3,0-5.9-2.6-5.9-5.9v-47.7c0-3.3,2.6-5.9,5.9-5.9H497c3.3,0,5.9,2.6,5.9,5.9v47.7
					C502.9,303.9,500.2,306.5,497,306.5z"/>
				<g>
					<path class="st19" d="M494.3,264h-58.2c-0.1,0-0.1-0.1-0.1-0.1c0-0.1,0.1-0.1,0.1-0.1h58.2c0.1,0,0.1,0.1,0.1,0.1
						C494.5,263.9,494.4,264,494.3,264z"/>
					<path class="st19" d="M494.3,283.9h-58.2c-0.1,0-0.1-0.1-0.1-0.1l0.1-0.1h58.2c0.1,0,0.1,0.1,0.1,0.1S494.4,283.9,494.3,283.9z
						"/>
					<path class="st19" d="M494.3,274.2h-58.2c-0.1,0-0.1-0.1-0.1-0.1c0-0.1,0.1-0.1,0.1-0.1h58.2c0.1,0,0.1,0.1,0.1,0.1
						C494.5,274.2,494.4,274.2,494.3,274.2z"/>
					<path class="st19" d="M494.3,294.1h-58.5l-0.1-35.6c0-0.2,0.1-0.3,0.3-0.3l0,0c0.2,0,0.3,0.1,0.3,0.3l0.1,35h58
						c0.2,0,0.3,0.1,0.3,0.3S494.5,294.1,494.3,294.1z"/>
					<path class="st19" d="M484.7,267.5l-21.4,20.6l-11-9.8L436,293.5c-0.1,0.1-0.1,0.3,0,0.4s0.1,0.1,0.2,0.1s0.1,0,0.2-0.1
						l15.9-14.9l11,9.8l21.4-20.6L484.7,267.5L484.7,267.5z"/>
				</g>
				<circle class="st19" cx="452.2" cy="278.7" r="1.5"/>
				<circle class="st19" cx="463.4" cy="288.3" r="1.5"/>
				<circle class="st19" cx="484.8" cy="267.7" r="1.5"/>
			</g>
			<g>
				<g>
					<rect x="451.2" y="330.4" class="st33" width="14.7" height="81.5"/>
					<g>
						<rect x="463.4" y="330.4" class="st32" width="44.7" height="81.5"/>
					</g>
				</g>
				<g>
					<rect x="342.8" y="327.3" class="st42" width="14.7" height="84.6"/>
					<g>
						<rect x="355" y="330.4" class="st24" width="44.7" height="81.5"/>
						<g>
							<g>
								<path class="st42" d="M358.9,393.7v13.1h6.7l1-1.5h20.2l1,1.5h8.2v-13.1H358.9z"/>
							</g>
						</g>
						<g>
							<g>
								<path class="st42" d="M358.9,374.8V388h6.7l1-1.5h20.2l1,1.5h8.2v-13.1h-37.1V374.8z"/>
							</g>
						</g>
						<g>
							<g>
								<path class="st42" d="M358.9,356v13.1h6.7l1-1.5h20.2l1,1.5h8.2V356H358.9z"/>
							</g>
						</g>
						<g>
							<g>
								<path class="st42" d="M358.9,337.1v13.1h6.7l1-1.5h20.2l1,1.5h8.2v-13.1H358.9z"/>
							</g>
						</g>
					</g>
				</g>
				<rect x="355" y="327.4" class="st32" width="153.1" height="3.3"/>
				<g>
					<g>
						<path class="st4" d="M466.9,393.7v13.1h6.7l1-1.5h20.2l1,1.5h8.2v-13.1H466.9z"/>
					</g>
				</g>
				<g>
					<g>
						<path class="st4" d="M466.9,374.8V388h6.7l1-1.5h20.2l1,1.5h8.2v-13.1h-37.1V374.8z"/>
					</g>
				</g>
				<g>
					<g>
						<path class="st4" d="M466.9,356v13.1h6.7l1-1.5h20.2l1,1.5h8.2V356H466.9z"/>
					</g>
				</g>
				<g>
					<g>
						<path class="st4" d="M466.9,337.1v13.1h6.7l1-1.5h20.2l1,1.5h8.2v-13.1H466.9z"/>
					</g>
				</g>
			</g>
		</g>
	</g>
	<g>
		<g>
			<g>
				<defs>
					<rect id="SVGID_00000104666800080829515660000014555834514184297345_" x="171.3" y="117.3" width="319" height="295.2"/>
				</defs>
				<clipPath id="SVGID_00000161610446032510185020000015053883297436490409_">
					<use xlink:href="#SVGID_00000104666800080829515660000014555834514184297345_"  style="overflow:visible;"/>
				</clipPath>
				<g style="clip-path:url(#SVGID_00000161610446032510185020000015053883297436490409_);">
					<g>
						<path class="st44" d="M385.1,279.2c6.6,6.9,22.3,58.4,26.6,74c4.3,15.6,6.5,27.8,1.2,36.8S385,358.9,385,358.9l-5.4-43.5
							L385.1,279.2z"/>
						
							<linearGradient id="SVGID_00000160190779502948449050000012660821712438988193_" gradientUnits="userSpaceOnUse" x1="373.2936" y1="101.2605" x2="389.4995" y2="98.2752" gradientTransform="matrix(1 0 0 -1 0 432)">
							<stop  offset="0" style="stop-color:#CFD4D8"/>
							<stop  offset="1" style="stop-color:#CFD4D8;stop-opacity:0"/>
						</linearGradient>
						<path style="fill:url(#SVGID_00000160190779502948449050000012660821712438988193_);" d="M385.1,279.2
							c6.6,6.9,22.3,58.4,26.6,74c4.3,15.6,6.5,27.8,1.2,36.8S385,358.9,385,358.9l-5.4-43.5L385.1,279.2z"/>
						<g>
							<g>
								<path class="st46" d="M258.1,747.2l3.2-17.1l19.5,2.8l-1.1,16.1c0,0-3.7,7.2-13.9,7.4C255.6,756.5,258.1,747.2,258.1,747.2z
									"/>
								<polygon class="st46" points="345.2,736.3 344.5,750.2 348.3,759.3 364.4,754.2 367.9,743.9 369,727.8 								"/>
								<path class="st46" d="M405.1,760c-5-2.5-20.9-7.3-32-16.1c-1.2-1-2.8-1.3-4.3-1c0,0-0.8,0.2-0.9,0.2c0,0-1.4,7.5-9.6,10.1
									c-5.5,1.8-13.8-2.9-13.8-2.9L343,770h63.5c1.3-0.7,1.7-2,1.7-2S411.5,763.1,405.1,760z"/>
								<path class="st47" d="M278.5,422.7c0,0-9.8,125.1-10.8,136.5s-13,180.8-13,180.8c15,5.9,31.2,1.4,31.2,1.4l26.3-170.8
									l17.3-91.1l5.8-1.6c0,0,2,110.9,2,110.3c0-0.6,2.5,148.9,2.5,148.9c14.6,7.4,34.8-0.6,34.8-0.6s6.3-145,8.1-153.4
									c1.8-8.5,2.3-171.1,2.3-171.1L278.5,422.7z"/>
								<path class="st48" d="M275.6,460.3c26.6,7.2,75.9,13.6,109.3-5.7c0.1-10.2,0.1-19.2,0.1-26.4l-107.7,9.4
									C276.9,443.8,276.3,451.7,275.6,460.3z"/>
								<g id="XMLID_2086_">
									<path id="XMLID_2087_" class="st49" d="M379.7,411.4c-0.8-3.1-1.5-5-1.5-5l-95.1,3.9c0,0-0.3,1.9-0.9,5.3
										c0.5,0.7,0.9,1.1,0.9,1.1C325.6,434,356.3,434,379.7,411.4z"/>
								</g>
								<path class="st44" d="M262.2,330.5l16.7,61.2l-8.5,57.2c0,0,75.3,28.6,122.5-2.2l-9.7-127.8L262.2,330.5z"/>
								<g id="XMLID_2082_">
									<g id="XMLID_2084_">
										<path id="XMLID_2085_" class="st33" d="M377.4,273.4c10.1,4.2,18.3,16.2,5.8,45.5l-4.3,90.4c0,0,4.8,13.9,1.8,16.9
											c-23.4,22.7-54.2,22.7-96.7,5.4c0,0-2.2-2.8-2.5-4c-1.6-6.1,3.6-23.3,3.6-23.3l-23.7-73.8c0,0-27.6-31-12.1-42.5
											C273.6,269.8,337.4,256.6,377.4,273.4z"/>
									</g>
								</g>
								
									<linearGradient id="SVGID_00000062178636500465060900000007182301823503919028_" gradientUnits="userSpaceOnUse" x1="304.1846" y1="78.7612" x2="401.9888" y2="-38.945" gradientTransform="matrix(1 0 0 -1 0 432)">
									<stop  offset="0" style="stop-color:#403972"/>
									<stop  offset="1" style="stop-color:#403972;stop-opacity:0"/>
								</linearGradient>
								<path style="fill:url(#SVGID_00000062178636500465060900000007182301823503919028_);" d="M387.3,372.6
									c-4.9,5.8-9.4,12-13.4,18.5c-6.5-0.8-13-1.6-19.5-2.4c-0.1,0-0.2,0-0.3,0c-4-15.3-21.9-83.8-26-99.4c1.5-2,3.4-3.5,4.9-5.5
									c2.5,2.4,5.5,4,9,4.1c2.7-0.6,2.8-9,2.8-9l0.5-12.6c0-0.1-0.1-0.1-0.1-0.2c-0.7-0.1-1.9-0.2-2.5-0.2l-41.2,4.6
									c0.1,0.5-1.5,3.9-1.2,4.9c2.4,7,10.1,17.1,11.6,17.4c1.8,0.3,6.4-5,7-6.7c0.9,0.9,2.6,3.4,3.5,4.3c0.5,11-1.2,74.8-1.3,98.5
									c-9.1-8.3-15.6-17.6-22.8-27.6c6.2,16.5,4.3,18.5,10.5,35.1c-16.1-18.8-30.9-65.1-46.9-84L279,392l-8.5,57.2
									c0,0,75.3,28.6,122.5-2.2L387.3,372.6z M345.7,406.6c1.3-2.4,2.9-5.2,4.5-7.8c5.6,1.7,11.1,3.4,16.7,5.2
									c-1.9,3.9-3.6,8-5.2,12.1C356.2,413.1,350.9,410,345.7,406.6z"/>
								<g id="XMLID_1613_">
									<g id="XMLID_1614_">
										<path class="st51" d="M332.3,272.7c-4,2.3-12.3,3.5-16.7,3.6c-6.7,0.2-4-3.7-6.2-4.3l-21.6-50l39.1,17.6l0.1,1.7
											L332.3,272.7z"/>
									</g>
								</g>
								<path class="st10" d="M351.7,392l-23.3-104.8l6.1-6.8l-10.3-6.3l-7.9,7.3l7.4,6.5c0,0-0.8,81.6,0.3,107.2l15.9,17.7
									L351.7,392z"/>
								<g id="XMLID_1430_">
									<g id="XMLID_1431_">
										<path class="st33" d="M303.9,259.3c0,0,15.7,15.1,19.8,14.4c4-0.7,6.1-15.8,6.1-15.8s14.4,4.1,16.1,6.1
											c1.8,2-2.5,21.7-4.4,22.6c-4,2-16-11.4-18.1-9.7c-2.2,1.7-8.4,13.1-10.4,12.9s-18.2-16.2-17.3-22.1
											C296.5,261.9,303.9,259.3,303.9,259.3z"/>
									</g>
								</g>
								<path class="st52" d="M273.6,195.4c0,0-13.5-3.1-11.6,13.1c1.9,16.1,13.6,16.5,17,17.2c0,0,6.4,28.7,41.9,26
									c35.5-2.8,29.6-30.2,29.4-48.4c-0.3-18.2,1.8-49.8-21.4-52.1C305.4,148.7,265.1,142.2,273.6,195.4z"/>
								<path class="st46" d="M275.5,750c-7.7-7.2-14.5-1.1-14.5-1.1l-2.9-1.7c-4.2,6.3-12.4,13.9-13.4,17.7
									c-1.9,7.1,1.5,15.3,12.9,15.3c11.1,0,21.8-6.8,23-12.3c0.7-3.3-0.5-12.2-0.8-18.8L275.5,750z"/>
								<g>
									
										<linearGradient id="SVGID_00000053526204607049947560000005300969222503581837_" gradientUnits="userSpaceOnUse" x1="285.6292" y1="-129.272" x2="281.7911" y2="-323.733" gradientTransform="matrix(1 0 0 -1 0 432)">
										<stop  offset="0" style="stop-color:#302624;stop-opacity:0.5"/>
										<stop  offset="0.9947" style="stop-color:#302624;stop-opacity:0"/>
									</linearGradient>
									<path style="fill:url(#SVGID_00000053526204607049947560000005300969222503581837_);" d="M312.3,570.6l0.5-2.7
										c-5.7,20-13.7,47.1-15.2,47.2c-2.3,0.1-25-3.5-26-6.5c-0.4-1.3-2.4-21.7-4.3-44C265,595.9,254.8,740,254.8,740
										c15,5.9,31.2,1.4,31.2,1.4L312.3,570.6z"/>
									
										<linearGradient id="SVGID_00000134207471074011240740000017359811936894860980_" gradientUnits="userSpaceOnUse" x1="358.6057" y1="-130.7123" x2="354.7676" y2="-325.1737" gradientTransform="matrix(1 0 0 -1 0 432)">
										<stop  offset="0" style="stop-color:#302624;stop-opacity:0.5"/>
										<stop  offset="0.9947" style="stop-color:#302624;stop-opacity:0"/>
									</linearGradient>
									<path style="fill:url(#SVGID_00000134207471074011240740000017359811936894860980_);" d="M374.8,736.5c0,0,0-0.1,0-0.3
										v-0.1c0-0.2,0-0.3,0-0.6c0-0.6,0.1-1.6,0.1-2.7c0-0.3,0-0.6,0-0.9c0-0.5,0-1.1,0.1-1.7c0-0.2,0-0.5,0-0.7
										c0.1-1.4,0.1-2.9,0.2-4.6c0-0.3,0-0.6,0-0.9c0-1,0.1-2,0.1-3.1c0,0,0,0,0-0.1c0.1-1.1,0.1-2.3,0.2-3.5c0-0.2,0-0.4,0-0.6
										c0.1-3,0.3-6.3,0.4-9.8c0-0.3,0-0.7,0-1c0.3-6,0.6-12.6,0.9-19.5c0-0.1,0-0.2,0-0.4c0.1-2.6,0.2-5.3,0.4-7.9
										c0-0.1,0-0.2,0-0.3c1-22.2,2.2-46.5,3.3-65c0,0,0,0,0-0.1c0.3-4.6,0.5-8.9,0.7-12.6c-4.6,3.4-12.5,8.7-15.7,8.6
										c-4.7-0.2-20.4-12.9-21.3-18.6c-0.7-4.5-6.1-47.2-8.2-64.2c0.5,29.9,1.1,62.8,1.2,62.5c0,0,0,0.2,0,0.6c0,0.1,0,0.2,0,0.3
										c0,1.7,0.1,5.8,0.2,11.6c0,0.3,0,0.7,0,1c0,2.1,0.1,4.4,0.1,6.9c0,0.8,0,1.7,0,2.6c0.1,3.5,0.1,7.3,0.2,11.3
										c0,0.5,0,1,0,1.5c0.7,44,1.9,113.1,1.9,113.1c2.7,1.4,5.7,2.2,8.6,2.7c1,0.2,2,0.3,3,0.3c1,0.1,2,0.1,2.9,0.1
										c1,0,1.9,0,2.9-0.1c0.9-0.1,1.9-0.1,2.8-0.2c0.9-0.1,1.8-0.2,2.7-0.4c1.3-0.2,2.5-0.4,3.7-0.7c0.8-0.2,1.5-0.3,2.2-0.5
										C372.4,737.4,374.8,736.5,374.8,736.5L374.8,736.5z"/>
								</g>
							</g>
						</g>
						<path class="st44" d="M415.6,378.8c-0.6,12-8.6,22.3-11.6,23.4s-122.1-19.3-122.1-19.3s73.9-25.2,90.7-25.2s20.3,0.7,20.3,0.7
							L415.6,378.8z"/>
						<path class="st44" d="M415.6,378.8c-0.6,12-8.6,22.3-11.6,23.4s-122.1-19.3-122.1-19.3s73.9-25.2,90.7-25.2s20.3,0.7,20.3,0.7
							L415.6,378.8z"/>
						<path class="st55" d="M359,353.7c0,0,10.1-6.4,12.6-6.2c2.5,0.2,10.5,8.1,11.1,11.4c0,0-19.5-1.8-22.8-0.4
							C356.6,359.9,359,353.7,359,353.7z"/>
						<path class="st33" d="M269.5,330.4l10.9,37.8c16.8-9.6,78.8-19.1,78.8-19.1L374,372c-47.9,27.6-97.4,41.6-110,38.2
							c-9-2.4-23.5-62.2-25.8-80.5s0.1-32.5,8.9-39.5C252.3,285.9,269.5,330.4,269.5,330.4z"/>
						<path class="st55" d="M298.6,361.5c-3.9-3-7.6-6.3-11.5-9.3c-3-2.4-6.3-4.8-9.9-4.8c-4.6,0.1-6.5,4.1-10.4,5.5
							c-1.3,0.5-2.8,1.5-2.8,3.1c0,1.3,1,2.3,2.1,2.5c1.1,0.3,2.2-0.4,3,0.4c0.7,0.6,0.5,2.5,1.1,3.4c1.2,1.7,3.2,0.9,4.7,2.6
							c1.9,2.1,1.8,4.2,4.9,4c2-0.1,3.9-1.5,5.8-2.2C287.4,366,297.4,360.6,298.6,361.5z"/>
					</g>
					<g>
						<path class="st52" d="M236.6,398.6c0,0-5.6-4.4-9.3-5.3s-8.1,1.4-13.2-1.1c-5.1-2.4-9.1,3.6-12.2-3.7
							c-3.1-7.3,0.9-6.7-4.2-8.7c-5.2-2-0.7-8-0.7-8s-6.8-2.6-6.5-7.3c0.3-4.7,7.2-2.6,23.1,0.5c0,0,6.5-5,8.6-2.4
							c3.5,4.4,9.6,15.5,9.6,15.5l14.7,10L236.6,398.6z"/>
						<path class="st52" d="M436.1,385.5c0,0,5-5.1,8.6-6.4c3.6-1.4,8.2,0.3,13-2.8c4.8-3.1,9.5,2.4,11.6-5.3
							c2.1-7.7-1.8-6.5,3.1-9.2c4.9-2.6-0.3-8-0.3-8s6.4-3.5,5.5-8.1s-7.5-1.7-22.8,3.5c0,0-7.1-4.1-8.8-1.3
							c-2.9,4.8-7.5,16.7-7.5,16.7l-13.2,11.8L436.1,385.5z"/>
						<path class="st52" d="M462.6,352.2c0,0,2.4-3.8,2.6-9.2c0.2-5.4-3.1-12.5-6-4.5c-2.9,7.9-6.4,9.3-7.1,12.9
							C451.3,354.9,462.6,352.2,462.6,352.2z"/>
						<polygon class="st10" points="202.6,302.5 456.3,285.8 467.9,461.8 214.2,477.6 						"/>
						<path class="st19" d="M207.3,306.1l249-20.3l2.3,169.8c0,0-241.4,19.5-240.4,18.4C219.3,472.8,207.3,306.1,207.3,306.1z"/>
						<path class="st52" d="M470.2,344.2c-13.2,2.4-26.2,11.2-13,13.2c0,0-11.6,10.1,2.7,9.4c0,0-11.3,12.2,5.1,8.5L470.2,344.2z"/>
						<path class="st52" d="M205.9,369.2c0,0-2.9-3.5-3.7-8.8c-0.9-5.3,1.4-12.8,5.4-5.3s7.6,8.4,8.7,11.8
							C217.4,370.3,205.9,369.2,205.9,369.2z"/>
						<path class="st52" d="M197.3,362.1c13.4,0.7,27.4,7.7,14.6,11.4c0,0,12.8,8.5-1.5,9.7c0,0,12.8,10.6-3.9,9.1L197.3,362.1z"/>
					</g>
					<g>
						<polygon class="st32" points="267.3,316.2 262.7,317.5 278.8,443.9 407.2,428.7 406.6,423.8 282.2,440.7 						"/>
						<path class="st32" d="M333.5,449.5c0.1,2,0.2,4,0.3,6l30-3.4l-1.7-6L333.5,449.5z"/>
						<path class="st32" d="M283.2,455.5v5.8l32.6-3.7c-0.4-1.9-0.8-3.9-1.3-5.8L283.2,455.5z"/>
						<path class="st32" d="M384.2,442.3c-2.1-0.1-3.8,1.7-3.8,3.9c0,2.2,1.6,4,3.7,4.1s3.8-1.7,3.8-3.9
							C388,444.2,386.3,442.4,384.2,442.3z"/>
						<path class="st32" d="M396.1,440.9c-2.1-0.1-3.8,1.7-3.8,3.9c0,2.2,1.6,4,3.7,4.1s3.8-1.7,3.8-3.9
							C399.9,442.8,398.2,441,396.1,440.9z"/>
						<path class="st32" d="M380.6,340.4l-7,26.4l-13.2-27.4c0,0-28.7,67.9-28.1,69.1s-17-32.2-17-32.2l-28.5,55.6l29.1-46.4
							l17.6,28.6l26.8-64.4L375,376l9.4-34.6l5.8,1.4l-1.4-18.3l-15.2,14.1L380.6,340.4z"/>
					</g>
				</g>
			</g>
		</g>
		<g>
			
				<radialGradient id="SVGID_00000142856022031853319810000002793973818220901556_" cx="502.8091" cy="385.9175" r="8.0725" gradientTransform="matrix(0.9678 -8.970747e-02 -9.233855e-02 -0.9957 -154.0826 647.4033)" gradientUnits="userSpaceOnUse">
				<stop  offset="0" style="stop-color:#E98C4D"/>
				<stop  offset="0.8441" style="stop-color:#E98C4D;stop-opacity:0"/>
			</radialGradient>
			<path style="opacity:0.4;fill:url(#SVGID_00000142856022031853319810000002793973818220901556_);enable-background:new    ;" d="
				M290.1,212.1c0,0-5.4,2-0.4,8.4c4.1,5.2,6.4,4.2,8.3,3.9c3.3-0.5,8.3-3.6,7.8-8.2C305.4,211.6,297,211.5,290.1,212.1z"/>
			
				<radialGradient id="SVGID_00000031913628706850561890000016050518593716752283_" cx="517.9367" cy="336.7514" r="8.072" gradientTransform="matrix(0.8557 -0.4699 -0.4615 -0.8825 57.7961 752.9996)" gradientUnits="userSpaceOnUse">
				<stop  offset="0" style="stop-color:#E98C4D"/>
				<stop  offset="0.8441" style="stop-color:#E98C4D;stop-opacity:0"/>
			</radialGradient>
			<path style="opacity:0.4;fill:url(#SVGID_00000031913628706850561890000016050518593716752283_);enable-background:new    ;" d="
				M337,209.7c0,0-4.3,4,2.9,7.9c5.7,3.2,7.5,1.3,9.1,0.3c2.9-1.8,6.3-6.6,4.1-10.7C351,203.1,343.2,206.3,337,209.7z"/>
			
				<radialGradient id="SVGID_00000085959639231958760800000007661692484840203455_" cx="535.5527" cy="412.6452" r="10.7691" gradientTransform="matrix(0.9568 -0.1721 -0.1725 -0.9849 -122.8092 684.4619)" gradientUnits="userSpaceOnUse">
				<stop  offset="0" style="stop-color:#E98C4D"/>
				<stop  offset="0.8441" style="stop-color:#E98C4D;stop-opacity:0"/>
			</radialGradient>
			<path style="opacity:0.4;fill:url(#SVGID_00000085959639231958760800000007661692484840203455_);enable-background:new    ;" d="
				M308.7,178.7c0,0-7,3.2,0.4,11.2c6,6.5,9,4.8,11.4,4.2c4.4-1.1,10.6-5.7,9.5-11.8C329.1,176.3,317.9,177.1,308.7,178.7z"/>
			<g>
				<g>
					<g id="XMLID_430_">
						<g id="XMLID_431_">
							<path id="XMLID_440_" class="st59" d="M332.4,206.5c0,0-5.6-13.7,2.5-17.4c8.1-3.6,15.5,5.9,15.1,9
								C349.6,201,346.1,210,332.4,206.5z"/>
							<path id="XMLID_439_" class="st19" d="M333,208c-1.6-1.5-2.5-4-2.4-7.4c0-3.4,1.3-6.7,4.5-8.1c8.1-3.6,15.2,5,14.7,8
								c-0.7,4.3-4,7.7-8.1,8.8C338,210.2,335,209.8,333,208z"/>
							<g id="XMLID_435_">
								
									<linearGradient id="XMLID_00000182496889209801942710000001698569531180244400_" gradientUnits="userSpaceOnUse" x1="330.5331" y1="231.85" x2="344.701" y2="231.85" gradientTransform="matrix(1 0 0 -1 0 432)">
									<stop  offset="0" style="stop-color:#3C3C6B"/>
									<stop  offset="1" style="stop-color:#5B4E99"/>
								</linearGradient>
								<path id="XMLID_437_" style="fill:url(#XMLID_00000182496889209801942710000001698569531180244400_);" d="M331.5,203.8
									c1.9,3.4,6.2,4.6,9.7,2.6c3.4-2,4.6-6.4,2.7-9.9c-1.9-3.4-6.2-4.6-9.7-2.6C330.7,196,329.5,200.4,331.5,203.8z"/>
								<path id="XMLID_436_" class="st61" d="M333.6,202.5c1.2,2.2,4,2.9,6.1,1.6c2.2-1.3,2.9-4.1,1.7-6.3c-1.2-2.2-4-2.9-6.1-1.6
									C333.1,197.5,332.4,200.3,333.6,202.5z"/>
							</g>
							<path id="XMLID_434_" class="st62" d="M335.1,192.4c8.1-3.6,15.2,5,14.7,8c-0.3,1.8-1.7,5.7-5.7,7.8
								c2.2-2.3,6.4-7.5,1.9-11.1c-6-4.7-12.3-3.4-14.2,1.7c-0.6,1.6-0.9,3.3-1,4.9C330.2,199.8,330.4,194.5,335.1,192.4z"/>
							<g id="XMLID_432_">
								<path id="XMLID_433_" class="st61" d="M330.5,202.5c0,0-0.1-0.8,0.1-2.1c0.1-0.7,0.2-1.4,0.5-2.3c0.3-0.8,0.7-1.7,1.2-2.5
									c0.1-0.2,0.3-0.4,0.5-0.5l0.2-0.3l0.3-0.2c0.2-0.2,0.4-0.3,0.6-0.5c0.2-0.1,0.4-0.2,0.7-0.4l0.3-0.2l0.4-0.1
									c0.2-0.1,0.5-0.2,0.7-0.3c0.5-0.1,1.1-0.2,1.6-0.3c0.6,0,1.1,0,1.7-0.1c0.3,0,0.6,0,0.9,0.1l0.9,0.1
									c1.2,0.2,2.4,0.6,3.5,1.2c1.1,0.6,2.1,1.4,2.9,2.4c0.4,0.5,0.7,1,0.9,1.6c0.2,0.6,0.4,1.2,0.4,1.8c0.1,1.2-0.2,2.4-0.6,3.4
									c-0.5,1-1.1,1.9-1.8,2.6c-0.7,0.7-1.3,1.3-1.9,1.8c-0.3,0.2-0.6,0.5-0.9,0.7s-0.5,0.4-0.8,0.5c-0.5,0.3-0.9,0.6-1.1,0.7
									c-0.3,0.2-0.4,0.3-0.4,0.3s0.2,0,0.4-0.1c0.3-0.1,0.7-0.2,1.3-0.4c0.3-0.1,0.6-0.2,0.9-0.3s0.7-0.3,1-0.5
									c0.4-0.2,0.7-0.4,1.1-0.6c0.4-0.3,0.8-0.5,1.2-0.9c0.8-0.7,1.6-1.5,2.3-2.7c0.7-1.1,1.2-2.7,1.1-4.5c0-0.9-0.2-1.8-0.5-2.7
									s-0.8-1.6-1.3-2.3c-1-1.4-2.3-2.4-3.6-3.1c-1.3-0.7-2.7-1.1-4.1-1.3c-0.3,0-0.7-0.1-1-0.1s-0.6,0-0.9,0
									c-0.7,0.1-1.3,0.1-2,0.2c-0.6,0.2-1.2,0.3-1.8,0.5c-0.3,0.1-0.6,0.3-0.8,0.4l-0.4,0.2l-0.4,0.3c-0.3,0.2-0.5,0.4-0.7,0.5
									c-0.2,0.2-0.4,0.4-0.6,0.7c-0.1,0.1-0.2,0.2-0.3,0.3c-0.1,0.1-0.2,0.3-0.3,0.4c-0.2,0.3-0.3,0.5-0.5,0.7
									c-0.5,1-0.9,2.1-1,3.1s-0.2,1.9-0.1,2.6c0,0.7,0.1,1.3,0.2,1.6C330.4,202.3,330.5,202.5,330.5,202.5z"/>
							</g>
						</g>
					</g>
					
						<ellipse transform="matrix(0.9957 -9.228183e-02 9.228183e-02 0.9957 -17.4647 31.6853)" class="st63" cx="333.9" cy="204.7" rx="2.8" ry="2.9"/>
					
						<ellipse transform="matrix(0.9957 -9.228382e-02 9.228382e-02 0.9957 -16.7151 32.3079)" class="st63" cx="341" cy="196.9" rx="1.7" ry="1.8"/>
				</g>
			</g>
			<g>
				<g>
					<g id="XMLID_407_">
						<g id="XMLID_420_">
							<path id="XMLID_429_" class="st59" d="M307.9,208.7c0,0,3-14.5-5.6-16.6s-14.2,8.7-13.2,11.5
								C290.1,206.6,295.2,214.7,307.9,208.7z"/>
							<path id="XMLID_428_" class="st19" d="M307.6,210.3c1.3-1.8,1.7-4.4,1-7.8c-0.7-3.4-2.5-6.3-6-7.1c-8.6-2.1-14,7.7-13,10.6
								c1.4,4.1,5.4,6.8,9.5,7.1C303.1,213.5,306,212.5,307.6,210.3z"/>
							<g id="XMLID_424_">
								
									<linearGradient id="XMLID_00000121969606474785119020000013190695162121808542_" gradientUnits="userSpaceOnUse" x1="294.5136" y1="228.45" x2="308.7354" y2="228.45" gradientTransform="matrix(1 0 0 -1 0 432)">
									<stop  offset="0" style="stop-color:#3C3C6B"/>
									<stop  offset="1" style="stop-color:#5B4E99"/>
								</linearGradient>
								<path id="XMLID_426_" style="fill:url(#XMLID_00000121969606474785119020000013190695162121808542_);" d="M308.4,206
									c-1.3,3.7-5.3,5.6-9,4.3c-3.7-1.4-5.7-5.5-4.4-9.2c1.3-3.7,5.3-5.6,9-4.3C307.6,198.1,309.6,202.2,308.4,206z"/>
								<path id="XMLID_425_" class="st61" d="M306.1,205.1c-0.8,2.4-3.4,3.6-5.8,2.7c-2.4-0.9-3.7-3.5-2.8-5.9
									c0.8-2.4,3.4-3.6,5.8-2.7C305.6,200.1,306.9,202.7,306.1,205.1z"/>
							</g>
							<path id="XMLID_423_" class="st62" d="M302.6,195.4c-8.6-2.1-14,7.7-13,10.6c0.6,1.7,2.7,5.3,7,6.7
								c-2.6-1.8-7.7-6.2-3.9-10.5c5-5.7,11.4-5.6,14.3-0.9c0.9,1.4,1.5,3.1,1.9,4.6C308.8,201.8,307.7,196.7,302.6,195.4z"/>
							<g id="XMLID_421_">
								<path id="XMLID_422_" class="st61" d="M309.1,204.5c0,0-0.1-0.8-0.5-2.1c-0.2-0.6-0.5-1.4-0.9-2.2s-1-1.5-1.6-2.2
									c-0.2-0.2-0.4-0.3-0.6-0.5l-0.3-0.2l-0.3-0.2c-0.2-0.1-0.4-0.2-0.6-0.4c-0.2-0.1-0.5-0.2-0.7-0.2l-0.4-0.1l-0.4-0.1
									c-0.3,0-0.5-0.1-0.8-0.1c-0.5,0-1.1,0-1.6,0c-0.5,0.1-1.1,0.2-1.7,0.3c-0.3,0.1-0.6,0.2-0.9,0.2L297,197
									c-1.1,0.4-2.2,1-3.2,1.8s-1.8,1.7-2.4,2.9c-0.3,0.6-0.5,1.2-0.6,1.8s-0.2,1.2-0.1,1.8c0.1,1.2,0.6,2.3,1.3,3.2
									c0.7,0.9,1.4,1.7,2.2,2.3c0.8,0.6,1.6,1.1,2.2,1.5c0.4,0.2,0.7,0.4,1,0.5s0.6,0.3,0.9,0.4c0.5,0.2,0.9,0.4,1.2,0.5
									c0.3,0.1,0.4,0.2,0.4,0.2s-0.2,0-0.5,0s-0.7,0-1.3-0.2c-0.3-0.1-0.6-0.1-0.9-0.2c-0.3-0.1-0.7-0.2-1.1-0.3s-0.8-0.3-1.2-0.4
									c-0.4-0.2-0.9-0.4-1.3-0.7c-0.9-0.5-1.9-1.2-2.8-2.2s-1.7-2.5-1.9-4.2c-0.1-0.9-0.1-1.8,0-2.7s0.4-1.7,0.8-2.5
									c0.8-1.5,1.8-2.8,3-3.7s2.5-1.6,3.8-2c0.3-0.1,0.7-0.2,1-0.3s0.6-0.1,0.9-0.2c0.7-0.1,1.3-0.1,2-0.2c0.6,0,1.3,0,1.9,0.2
									c0.3,0.1,0.6,0.2,0.9,0.2l0.4,0.1l0.4,0.2c0.3,0.1,0.6,0.3,0.8,0.4c0.3,0.2,0.5,0.4,0.7,0.5c0.1,0.1,0.2,0.2,0.4,0.3
									c0.1,0.1,0.2,0.2,0.3,0.3c0.2,0.2,0.4,0.4,0.6,0.6c0.7,0.9,1.2,1.9,1.6,2.9c0.3,0.9,0.5,1.8,0.6,2.5s0.1,1.3,0.1,1.6
									C309.1,204.3,309.1,204.5,309.1,204.5z"/>
							</g>
						</g>
					</g>
					
						<ellipse transform="matrix(0.9957 -9.229725e-02 9.229725e-02 0.9957 -17.882 28.3247)" class="st63" cx="297.3" cy="207.5" rx="2.8" ry="2.9"/>
					
						<ellipse transform="matrix(0.9957 -9.228382e-02 9.228382e-02 0.9957 -17.2831 29.0236)" class="st63" cx="305.2" cy="201.4" rx="1.7" ry="1.8"/>
				</g>
			</g>
			<g>
				<path class="st65" d="M314.3,212.8c0,0,2.2,1.7,6.4,1.7c4.1,0,5.7-2.8,5.7-2.8s1.7,1.4,0.9,2.9c-0.8,1.5-4.3,4.3-5.4,4.5
					C320.8,219.4,312.3,216.7,314.3,212.8z"/>
				
					<ellipse transform="matrix(0.9957 -9.228040e-02 9.228040e-02 0.9957 -18.2657 30.5563)" class="st66" cx="321.3" cy="212.8" rx="2" ry="0.9"/>
				<g>
					<path class="st51" d="M318.2,214.8c0,0-0.5-0.2-1.1-0.1c-0.5,0.1-1,0.4-0.9,0.5c0.1,0.2,0.5,0.2,0.9,0.4s0.7,0.4,0.7,0.4
						s0.4,0.1,0.7,0.3c0.4,0.2,0.7,0.5,0.8,0.5c0.1-0.1,0-0.7-0.3-1.2C318.7,215.1,318.2,214.8,318.2,214.8z"/>
					<path class="st51" d="M326,213.8c0-0.2-0.5-0.2-0.9-0.1c-0.4,0.1-0.8,0.4-0.8,0.4s-0.3,0.4-0.5,0.8c-0.2,0.5-0.3,1-0.1,1
						c0.1,0.1,0.4-0.2,0.7-0.4c0.3-0.2,0.6-0.4,0.6-0.4s0.2-0.3,0.5-0.6C325.8,214.2,326.1,214,326,213.8z"/>
					<path class="st51" d="M316.4,215.6c-0.4-0.3-0.7-0.6-1-0.8c-0.2-0.2-0.3-0.3-0.3-0.3s-0.1-0.1-0.2-0.2c-0.1-0.2-0.1-0.6,0-0.9
						c0.3-0.8,1-1.4,0.9-1.6c0-0.1-0.3,0-0.6,0.2c-0.3,0.2-0.7,0.5-1,1s-0.4,1.2-0.3,1.7c0.1,0.6,0.4,0.8,0.4,0.8s0.2,0.3,0.6,0.4
						c0.3,0.2,0.7,0.4,1.1,0.6c0.8,0.4,1.6,0.8,1.7,0.6C317.8,216.9,317.1,216.2,316.4,215.6z"/>
					<path class="st51" d="M327.7,213.3c0,0,0-0.1-0.2-0.5c-0.1-0.2-0.2-0.4-0.3-0.5c-0.1-0.2-0.2-0.3-0.4-0.5
						c-0.5-0.6-1.2-1.1-1.3-1c-0.1,0.1,0.3,0.8,0.7,1.5c0.1,0.2,0.2,0.4,0.2,0.5c0.1,0.2,0.1,0.3,0.1,0.4c0,0.3,0.1,0.5,0.1,0.5
						s0,0.1,0.1,0.2c0,0.1-0.1,0.4-0.3,0.7c-0.5,0.5-1,1.2-0.9,1.3s0.7-0.2,1.4-0.6c0.3-0.2,0.7-0.6,0.8-1.1
						C327.9,213.6,327.7,213.3,327.7,213.3z"/>
					<path class="st51" d="M324.4,211.3c0-0.2-0.8-0.6-1.8-0.8c-0.9-0.2-1.9-0.2-1.9-0.2s-0.9,0.2-1.8,0.6c-0.9,0.4-1.7,1-1.6,1.1
						c0.1,0.2,0.9-0.1,1.8-0.2c0.9-0.1,1.7-0.2,1.7-0.2s0.8-0.2,1.7-0.2C323.5,211.4,324.4,211.5,324.4,211.3z"/>
				</g>
			</g>
			<g>
				<g>
					<path class="st67" d="M335.2,189.4c0,0.1-0.8,0.6-1.5,1.2c-0.7,0.6-1.3,1.4-1.3,1.4s-0.6,0.7-1.1,1.5s-0.8,1.7-0.9,1.7
						s0.1-1,0.5-1.9s1-1.7,1-1.7s0.7-0.8,1.5-1.4C334.3,189.7,335.2,189.3,335.2,189.4z"/>
				</g>
				<g>
					<path class="st67" d="M333.7,188.7c0,0.1-0.7,0.6-1.3,1.2c-0.6,0.6-1,1.4-1,1.4s-0.5,0.7-0.8,1.5c-0.4,0.8-0.5,1.7-0.6,1.6
						c-0.1,0,0-0.9,0.3-1.8c0.3-0.9,0.8-1.7,0.8-1.7s0.5-0.8,1.2-1.3C332.8,189,333.6,188.6,333.7,188.7z"/>
				</g>
				<g>
					<path class="st67" d="M308.5,198.6c-0.1,0-0.5-1-1-1.9s-1.2-1.7-1.2-1.7s-0.6-0.9-1.4-1.6c-0.7-0.8-1.6-1.4-1.5-1.5
						c0-0.1,1,0.5,1.8,1.2s1.5,1.6,1.5,1.6s0.7,0.9,1.1,1.9C308.3,197.5,308.6,198.6,308.5,198.6z"/>
				</g>
				<g>
					<path class="st67" d="M307.8,195c-0.1,0-0.4-0.4-0.7-0.8c-0.3-0.4-0.7-0.8-0.7-0.8s-0.3-0.4-0.6-0.8c-0.3-0.4-0.7-0.8-0.6-0.8
						c0-0.1,0.5,0.2,0.9,0.6c0.4,0.3,0.8,0.7,0.8,0.7s0.3,0.4,0.6,0.9C307.7,194.4,307.8,194.9,307.8,195z"/>
				</g>
			</g>
			<g>
				<g>
					<path class="st68" d="M291.8,188.6c0.2-0.1,0.4-0.2,0.6-0.3c1.2-0.9,2.3-2,3.6-2.7c1.5-0.9,3.5-1.5,5.2-1.9
						c1.6-0.4,4.3-0.1,5.5-1.4c1.4-1.5,0.8-4.6-1.6-4.6c0,0.5-0.4,1.9-0.3,2.2c-0.2-0.5-0.5-2-1-2.3s-1.8,0.2-2.3,0.3
						c-1.6,0.4-3.1,1.1-4.5,1.8c-3.4,1.8-5.9,4.5-7,7.8C289.3,189.3,290.8,189.1,291.8,188.6z"/>
				</g>
				<path class="st61" d="M299.7,178.4c0,0.1,0,0.1,0,0.2c0,0.9,0.1,1.8,0.1,1.8s0,0.9,0.1,1.8c0,0.7,0.1,1.4,0.1,1.7h-0.1
					c-0.1-0.3-0.3-1-0.4-1.7c-0.2-0.9-0.2-1.9-0.2-1.9s0-0.9,0.1-1.9l0,0C299.5,178.5,299.6,178.5,299.7,178.4z M298.1,183.2
					c-0.2-1-0.3-2-0.3-2s-0.1-1,0-1.9c-0.1,0.1-0.3,0.1-0.4,0.2c-0.1,0.9-0.1,1.8-0.1,1.8s0.1,1.1,0.5,2.1c0.2,0.5,0.4,0.9,0.5,1.2
					c0.1,0,0.1-0.1,0.2-0.1C298.4,184.1,298.2,183.6,298.1,183.2z M304.9,178.4c0.2,1.1,0.2,2.2,0.2,2.2s0.1,1.3-0.3,2.6
					c0,0,0,0,0,0.1c0.2,0,0.3-0.1,0.4-0.1c0.4-1.2,0.4-2.5,0.4-2.5s0-0.3-0.1-0.8s-0.2-1.2-0.4-1.8c0-0.1-0.1-0.2-0.1-0.2h-0.1
					C305,177.8,304.9,178.1,304.9,178.4z M292.5,186.9c-0.3-0.7-0.5-1.4-0.5-1.4s-0.2-0.7-0.4-1.4l0,0c-0.1,0.2-0.2,0.3-0.3,0.5
					c0.1,0.6,0.2,1.1,0.2,1.1s0.2,0.7,0.6,1.4c0.2,0.4,0.4,0.7,0.6,0.9c0.1,0,0.1-0.1,0.2-0.1C292.9,187.6,292.7,187.2,292.5,186.9z
					 M301.1,179.9c0,0-0.1-1-0.2-1.9c-0.1,0-0.2,0.1-0.3,0.1c0,0.9,0,1.9,0,1.9s0.4,3.3,0.5,3.3
					C301.3,183.3,301.1,179.9,301.1,179.9z M293.6,182.4c0-0.1,0-0.3,0-0.4c-0.1,0.1-0.3,0.2-0.4,0.4l0,0c-0.1,0.9,0.1,1.7,0.1,1.7
					s0.2,0.8,0.6,1.6c0.2,0.3,0.4,0.6,0.6,0.9c0.1,0,0.1-0.1,0.2-0.1c-0.1-0.3-0.3-0.6-0.4-0.9c-0.3-0.8-0.4-1.6-0.4-1.6
					S293.6,183.2,293.6,182.4z"/>
				<path class="st61" d="M295.9,185.6c1.5-0.9,3.5-1.5,5.2-1.9c1.6-0.4,4.3-0.1,5.5-1.4c0.9-0.9,1-2.6,0.3-3.6
					c-0.1,1.6-2,2.8-4.5,2.9c-3,0.1-6.3,3-9.5,4.2c-1.3,0.5-1.7-0.1-1.7-1c-0.5,0.9-1,1.8-1.3,2.7c-0.6,1.8,0.9,1.6,1.9,1.1
					c0.2-0.1,0.4-0.2,0.6-0.3C293.6,187.4,294.6,186.3,295.9,185.6z"/>
			</g>
			<g>
				<g>
					<path class="st69" d="M345.4,183.6c-0.2-0.1-0.4-0.2-0.6-0.2c-1.3-0.7-2.5-1.6-3.9-2.2c-1.6-0.6-3.7-1-5.4-1.2
						c-1.7-0.1-4.2,0.5-5.6-0.6c-1.6-1.3-1.4-4.5,0.9-4.8c0.1,0.5,0.7,1.8,0.6,2.2c0.1-0.5,0.2-2.1,0.7-2.4c0.4-0.3,1.8-0.1,2.3-0.1
						c1.6,0.2,3.2,0.6,4.7,1.2c3.6,1.3,6.5,3.6,8.1,6.7C348,183.9,346.5,183.9,345.4,183.6z"/>
				</g>
				<path class="st69" d="M335.9,179c-0.1,0.4-0.2,0.7-0.3,1c0,0,0,0-0.1,0s-0.1,0-0.2,0c0-0.3,0.1-0.7,0.2-1.1
					c0.1-0.8,0.2-1.7,0.2-1.7s0.2-0.8,0.3-1.6c0.1-0.3,0.1-0.7,0.2-0.9c0.1,0,0.2,0,0.2,0.1c0,0.3,0,0.6,0,0.9
					c-0.1,0.8-0.2,1.7-0.2,1.7S336.1,178.1,335.9,179z M341.2,181.3c0.1-0.3,0.4-1,0.7-1.6c0.4-0.9,0.9-1.8,0.9-1.8s0.1-0.2,0.2-0.4
					c-0.1-0.1-0.3-0.2-0.4-0.3c-0.2,0.3-0.3,0.4-0.3,0.4s-0.5,0.9-0.8,1.9c-0.2,0.7-0.4,1.3-0.5,1.7
					C341.1,181.2,341.1,181.3,341.2,181.3z M343.6,178c-0.4,0.7-0.8,1.5-0.8,1.5s-0.3,0.9-0.6,1.8c-0.1,0.2-0.1,0.4-0.2,0.6
					c0.1,0.1,0.2,0.1,0.3,0.2c0.1-0.2,0.2-0.4,0.2-0.6c0.4-0.9,0.7-1.7,0.7-1.7s0.3-0.7,0.6-1.4C343.8,178.1,343.7,178,343.6,178z
					 M331.4,179.4c-0.3-1-0.5-2-0.5-2s-0.2-1-0.2-2c0-0.3,0-0.6,0.1-0.8c-0.1,0-0.2,0-0.3,0.1c-0.1,0.2-0.1,0.5-0.1,0.7
					c-0.1,1.1,0.1,2.1,0.1,2.1s0.2,1,0.7,2c0.1,0.2,0.1,0.3,0.2,0.4c0.1,0,0.2,0,0.4,0C331.6,179.8,331.5,179.6,331.4,179.4z
					 M333.6,178.5c-0.1-1-0.1-1.9-0.1-1.9s-0.1-1-0.2-1.9c0-0.2,0-0.3,0-0.5c-0.1,0-0.2,0-0.3,0c0,0.2,0,0.4,0,0.5c0,1,0,2,0,2
					s0.1,1,0.3,1.9c0.1,0.5,0.2,1.1,0.3,1.4c0.1,0,0.1,0,0.2,0C333.6,179.6,333.6,179.1,333.6,178.5z M337.7,178.4
					c0,0,0.3-1,0.5-2.1c0.1-0.4,0.1-0.7,0.2-1.1c-0.1,0-0.2-0.1-0.3-0.1c-0.1,0.3-0.2,0.7-0.3,1.1c-0.3,1-0.6,2-0.6,2
					s-0.2,0.9-0.5,1.9c0.1,0,0.3,0,0.4,0.1C337.4,179.2,337.7,178.4,337.7,178.4z"/>
				<path class="st70" d="M345.4,183.6c1.1,0.3,2.6,0.3,1.7-1.4c-0.6-1.2-1.4-2.3-2.4-3.3c0.4,1,0.9,3-0.2,2.8
					c-1.4-0.3-4.3-3.4-9.7-3.3c-4.4,0.1-5.6-1.6-6-2.3c-0.4,1.1,0,2.5,0.9,3.3c1.4,1.1,3.9,0.4,5.6,0.6c1.8,0.1,3.8,0.5,5.4,1.2
					c1.4,0.6,2.6,1.5,3.9,2.2C345,183.4,345.2,183.5,345.4,183.6z"/>
			</g>
		</g>
		<g>
			
				<ellipse transform="matrix(0.9998 -1.868602e-02 1.868602e-02 0.9998 -4.5144 6.0445)" class="st66" cx="321.2" cy="244.6" rx="1.7" ry="1"/>
			<path class="st69" d="M302.2,222c0,0,5.9,6.3,17.3,6c11.4-0.3,16.8-6.2,16.8-6.2s-3.1,18-16.4,18.2
				C304.9,240.3,302.2,222,302.2,222z"/>
			<path class="st71" d="M308.8,235.6c2.6,2.6,6.2,4.5,11.1,4.5c4.3-0.1,7.5-2,9.9-4.6C319.9,230.2,311.5,233.9,308.8,235.6z"/>
			<path class="st19" d="M333.7,223.9c-2.7,1.7-7.4,4-14.2,4.2c-7.5,0.2-12.7-2.5-15.3-4.4c-0.1,0.8,1.7,9.3,14.5,9.3
				C329,233,332.6,226.6,333.7,223.9z"/>
			<g>
				<g>
					<path class="st51" d="M303.4,220c0.2,0.1,0.2,0.9-0.3,1.6c-0.4,0.7-1.1,1.2-1.1,1.2s-0.8,0.3-1.6,0.3c-0.8,0-1.6-0.3-1.5-0.6
						c0-0.3,0.7-0.4,1.2-0.7s1-0.7,1-0.7s0.5-0.2,1.1-0.5C302.6,220.4,303.1,219.9,303.4,220z"/>
				</g>
				<g>
					<path class="st51" d="M339.3,222c0.1,0.2-0.6,0.7-1.4,0.7s-1.6-0.3-1.6-0.3s-0.7-0.5-1-1.3s-0.2-1.6,0.1-1.6
						c0.3,0,0.6,0.5,1,0.8s0.9,0.5,0.9,0.5s0.3,0.4,0.8,0.6C338.5,221.7,339.2,221.8,339.3,222z"/>
				</g>
			</g>
			<path class="st51" d="M336.4,221.8c0,0.1-0.8,0.8-2.3,1.8s-3.5,2.1-5.7,2.9c-2.2,0.8-4.5,1.4-6.3,1.6s-2.9,0.3-2.9,0.3
				s-1.2,0-3-0.2c-1.8-0.2-4.1-0.8-6.3-1.6c-2.2-0.8-4.3-1.8-5.7-2.9c-1.4-1.1-2.1-2.1-2-2.1c0.1-0.1,0.9,0.8,2.3,1.7
				s3.5,1.8,5.7,2.5c2.2,0.6,4.4,1.1,6.1,1.3c1.7,0.1,2.8,0.1,2.8,0.1s1.1,0,2.8-0.1c1.7-0.2,3.9-0.6,6.1-1.3s4.3-1.7,5.8-2.5
				C335.4,222.3,336.4,221.7,336.4,221.8z"/>
			<path class="st19" d="M319.9,240c5-0.1,8.5-2.6,11-5.8c-0.4,0-0.9,0.1-1.5,0.3c-6.9,3-11.3,3.3-16.3,1.3c-2.4-1-4.1-1.2-5.2-1.2
				C310.6,237.7,314.4,240.1,319.9,240z"/>
			<path class="st62" d="M333.7,223.9c-2.7,1.7-7.4,4-14.2,4.2c-7.5,0.2-12.7-2.5-15.3-4.4c-0.1,0.4,0.3,2.6,2.2,4.7
				c-0.3-1-0.5-2.2,0.5-1.9c1.8,0.4,5.9,3,12.6,2.9s9.7-3.5,10.7-2.3c0.4,0.5,0.2,1.3-0.3,2.2C332.1,227.4,333.2,225.2,333.7,223.9z
				"/>
			<path class="st62" d="M328.1,235.1c0.1,0.3,0.1,0.6-0.2,1.2c-1.1,2.2-8.1,4-12.8,2.3c-3.1-1.1-3.8-2.6-3.8-3.5
				c-1.4-0.4-2.5-0.5-3.3-0.5c2.7,3.1,6.5,5.4,12,5.3c5-0.1,8.5-2.6,11-5.8c-0.4,0-0.9,0.1-1.5,0.3
				C329,234.8,328.6,234.9,328.1,235.1z"/>
			<path class="st51" d="M323.2,241.4c0.1,0.1-0.5,0.6-1.2,0.9s-1.5,0.4-1.5,0.4s-0.8,0-1.5-0.2s-1.3-0.6-1.3-0.7s0.7,0.2,1.4,0.3
				c0.7,0.1,1.4,0,1.4,0s0.7,0,1.3-0.2C322.6,241.7,323.2,241.3,323.2,241.4z"/>
		</g>
		<path class="st72" d="M282.4,159.7l24.2-8.2c14-4.8,29.3,2.7,34.2,16.7l5.7,13.4c0.6,1.7,1.3,5,2.1,9c-5.2-0.6-10.5-1.7-14.6-3.9
			c-1.5-0.8-3.1-1.6-5-2.5c-4.7-2.2-9-5.7-13.6-9.4c-5-4.1-10.2-8.2-16.7-11.6c-4.1-1.3-8.2-1.2-12.8,0.4c-1.7,0.6-3.5,1.4-5.3,2.3
			c0.9,7.5,2,26.5-4.7,46l-1.5,4.4c-1.9-3.7-4-8-6.3-13l-1.1-11.6c-0.6-6.2,0.4-12.5,2.8-18.3C271.8,168.4,275.3,162.1,282.4,159.7z
			"/>
		<g>
			<path class="st68" d="M258.6,189.6c-0.3-1.2-0.7-2.5-1-3.7c-7.2-24.1,3.8-30.2,11.3-31.7c-0.2-4.2,0-18.1,11.4-24.4
				c16.6-9.2,77.7-15.2,86.9,56.2c0,0-20.8,1.9-31-3.6c-1.6-0.9-3.3-1.7-5.3-2.6c-8.9-4.2-17.1-14.3-30.4-21.1
				c-6.1-2.1-13-1.8-21.7,2.7c-1.8,0.9-2.8,2.8-2.6,4.8c0.7,7.7,1.4,26-4.8,44.1c0,0-4.2-6.9-6.7-11.3c-1.2-2.1-2.7-4.1-4.2-6.1
				C259.7,192,258.8,190.7,258.6,189.6z"/>
		</g>
		<path class="st61" d="M301.4,131.1c-23.7,0.4-31.6,13.3-31.7,13.4c1.3-5.2,4.1-11.1,10.5-14.6c11.3-6.3,43.5-11.1,65.7,9.4
			C345.8,139.1,321.3,130.8,301.4,131.1z"/>
		<path class="st61" d="M257,183.9c-6-22.5,4.6-28.3,11.8-29.7C268.8,154.2,253,165.6,257,183.9z"/>
	</g>
	<path class="st73" d="M516.1,433.1h-23.6c-3.6,0-6.6,3-6.6,6.6l0,0c0,3.6,3,6.6,6.6,6.6h9.9c2.9,0,5.2,2.4,5.2,5.2l0,0
		c0,2.9-2.4,5.2-5.2,5.2h-352c-2.9,0-5.2-2.4-5.2-5.2l0,0c0-2.9,2.4-5.2,5.2-5.2h9.4c3.6,0,6.6-3,6.6-6.6l0,0c0-3.6-3-6.6-6.6-6.6
		h-21.6c-5.7,0-10.4-4.7-10.4-10.4l0,0c0-5.7,4.7-10.4,10.4-10.4h377.9c5.7,0,10.4,4.7,10.4,10.4l0,0
		C526.5,428.4,521.8,433.1,516.1,433.1L516.1,433.1z M516.5,456.7c2.9,0,5.2-2.3,5.2-5.2c0-2.9-2.3-5.2-5.2-5.2s-5.2,2.3-5.2,5.2
		C511.2,454.4,513.6,456.7,516.5,456.7z"/>
</g>
</svg>
