<?xml version="1.0" encoding="utf-8"?>
<!-- Generator: Adobe Illustrator 27.5.0, SVG Export Plug-In . SVG Version: 6.00 Build 0)  -->
<svg version="1.1" id="Layer_1" xmlns="http://www.w3.org/2000/svg" xmlns:xlink="http://www.w3.org/1999/xlink" x="0px" y="0px"
	 viewBox="0 0 685.1 470.2" style="enable-background:new 0 0 685.1 470.2;" xml:space="preserve">
<style type="text/css">
	.st0{fill:none;}
	.st1{fill-rule:evenodd;clip-rule:evenodd;fill:#E3F3FD;}
	.st2{fill-rule:evenodd;clip-rule:evenodd;fill:#C3E5F3;}
	.st3{fill:#90A9D5;}
	.st4{fill:#D1EBF8;}
	.st5{fill:#E6E4EB;}
	.st6{fill:#AFDAEC;}
	.st7{fill-rule:evenodd;clip-rule:evenodd;fill:#0E1632;}
	.st8{fill:#0E1632;}
	.st9{fill-rule:evenodd;clip-rule:evenodd;fill:#FFFFFF;}
	.st10{fill-rule:evenodd;clip-rule:evenodd;fill:#1A293D;}
	.st11{fill:#0C0E0E;}
	.st12{fill-rule:evenodd;clip-rule:evenodd;fill:#05304B;}
	.st13{fill-rule:evenodd;clip-rule:evenodd;fill:#D9F1F9;}
	.st14{fill-rule:evenodd;clip-rule:evenodd;fill:#0076BD;}
	.st15{fill-rule:evenodd;clip-rule:evenodd;fill:#AC3C31;}
	.st16{fill-rule:evenodd;clip-rule:evenodd;fill:#3A405C;}
	.st17{fill-rule:evenodd;clip-rule:evenodd;fill:#DF7668;}
	.st18{opacity:0.2;fill-rule:evenodd;clip-rule:evenodd;fill:#C14A44;enable-background:new    ;}
	.st19{fill-rule:evenodd;clip-rule:evenodd;fill:#E68392;}
	.st20{fill-rule:evenodd;clip-rule:evenodd;fill:#F2F0F0;}
	.st21{fill-rule:evenodd;clip-rule:evenodd;fill:#0D435E;}
	.st22{fill-rule:evenodd;clip-rule:evenodd;fill:#15536B;}
	.st23{fill:#FFFFFF;}
	.st24{fill-rule:evenodd;clip-rule:evenodd;fill:#01020E;}
	.st25{fill-rule:evenodd;clip-rule:evenodd;fill:#00000F;}
	.st26{fill:#222A48;}
	.st27{fill:#AC3C31;}
	.st28{fill:#ED978E;}
	.st29{opacity:0.45;fill:#E98C4D;enable-background:new    ;}
	.st30{fill:#6C293E;}
	.st31{fill:#F4A9C4;}
	.st32{fill:#DA774E;}
	.st33{opacity:0.2;fill:#320033;enable-background:new    ;}
	.st34{fill:#3F3632;}
	.st35{clip-path:url(#SVGID_00000065771458453612320320000017287748852805772977_);}
	.st36{fill:#F28B60;}
	.st37{opacity:0.4;fill:url(#SVGID_00000057851097079858156960000013977610603478940837_);enable-background:new    ;}
	.st38{opacity:0.4;fill:url(#SVGID_00000118356111234575351600000006302571239731666091_);enable-background:new    ;}
	.st39{opacity:0.4;fill:url(#SVGID_00000057860307300424642790000008439717062313381294_);enable-background:new    ;}
	.st40{opacity:0.42;fill:#E98C4D;enable-background:new    ;}
	.st41{opacity:0.45;fill:#6C293E;enable-background:new    ;}
	.st42{fill:#6E2E1C;}
	.st43{fill:#252626;}
	.st44{fill:#F3FBFF;}
	.st45{fill:#05304B;}
	.st46{fill-rule:evenodd;clip-rule:evenodd;fill:#F3FBFF;}
	.st47{fill:#C3E5F3;}
	.st48{fill-rule:evenodd;clip-rule:evenodd;fill:#252626;}
	.st49{fill-rule:evenodd;clip-rule:evenodd;fill:#DFF0F2;}
	.st50{fill-rule:evenodd;clip-rule:evenodd;fill:#0C0E0E;}
	.st51{fill-rule:evenodd;clip-rule:evenodd;fill:#AFD6E2;}
	.st52{opacity:0.2;fill:#C14A44;enable-background:new    ;}
</style>
<g>
	<g id="Layer_2_00000142175713022403894360000005918558943424500875_">
		<g id="OBJECTS">
			<rect x="0.1" y="-15" class="st0" width="685" height="485.2"/>
			<path class="st1" d="M157,313.1H99.9C69,313.3,44.1,338.2,44,369.1l0,0c0.1,30.8,25,55.8,55.9,55.9h483.2
				c49.8,0,90.5-40.8,90.5-90.5l0,0c0-49.8-40.8-90.5-90.5-90.5l0,0c-21.1-0.1-38.2-17.2-38.3-38.3l0,0
				c0.1-21.1,17.2-38.2,38.3-38.3h46.1c22-0.1,39.7-17.8,39.8-39.8l0,0c-0.1-22-17.8-39.7-39.8-39.8h-58.3
				c-8.6,0-15.5-6.9-15.5-15.5l0,0c0-8.6,6.9-15.5,15.5-15.5h10.3c5.9,0,10.7-4.8,10.7-10.7l0,0c0-5.9-4.8-10.7-10.7-10.7h-67.4
				c-14.2,0-15.8,16.8-51.6,16.8H358.8c-7.7,0-14,6.3-14,14l0,0c0,7.7,6.3,14,14,14h13.4c11.2,0,20.2,9.1,20.2,20.2l0,0
				c0,11.2-9.1,20.2-20.2,20.2H352c-54.5,0-62.2,14.2-71.7,42.5s-59.1,30.6-59.1,30.6h-67.7c-16.8,0-30.4,13.7-30.5,30.5l0,0
				c0,16.8,13.7,30.4,30.5,30.5h3.5c16.2,0,29.3,13.1,29.3,29.3l0,0C186.2,300,173.1,313.1,157,313.1z M611.2,56.7
				c-5.9,0-10.7-4.8-10.7-10.7c0-5.9,4.8-10.7,10.7-10.7c5.9,0,10.7,4.8,10.7,10.7C621.9,51.9,617.1,56.7,611.2,56.7
				C611.2,56.7,611.2,56.7,611.2,56.7z"/>
			<path class="st2" d="M161.8,425h4.9v-29.7l18.6,18.6L174.1,425h4.6l8.9-8.9l8.9,8.9h4.6l-11.2-11.2l18.6-18.6V425h4.9V193.6h-4.9
				v5.6l-5.6-5.6h-4.6l10.2,10.2v0.3L187.6,225l-20.9-20.9v-0.3l10.3-10.3h-4.6l-5.6,5.6v-5.6h-4.9v61.3c1.7,0.3,3.3,0.7,4.9,1.3
				v-0.8l1.4,1.4c7.3,3,13.1,8.8,16.1,16.1l1.1,1.1l-0.5,0.5c0.4,1.2,0.7,2.4,1,3.6l1.8-1.8l20.9,20.9v0.3l-20.9,20.9l-11.9-11.9
				c-0.8,0.7-1.7,1.4-2.6,2l12.2,12.2l-18.6,18.6v-27.7c-1.6,0.6-3.2,1-4.9,1.3L161.8,425L161.8,425z M166.7,385.8v-37.1l18.6,18.6
				L166.7,385.8L166.7,385.8z M166.7,245.9v-37.1l18.6,18.6L166.7,245.9L166.7,245.9z M208.5,208.8v37.1l-18.6-18.6L208.5,208.8
				L208.5,208.8z M208.5,255.4v37.1l-18.6-18.6L208.5,255.4L208.5,255.4z M208.5,302v37.1l-18.6-18.6L208.5,302L208.5,302z
				 M208.5,348.6v37.1l-18.6-18.6L208.5,348.6L208.5,348.6z M166.7,250.5l20.9-20.9l20.9,20.9v0.3l-20.9,20.9l-20.9-20.9V250.5z
				 M166.7,343.7l20.9-20.9l20.9,20.9v0.3l-20.9,20.9L166.7,344V343.7L166.7,343.7z M166.7,390.4l20.9-20.9l20.9,20.9v0.3
				l-20.9,20.9l-20.9-20.9V390.4z"/>
			<path class="st2" d="M504.2,425h4.9v-29.7l18.6,18.6L516.5,425h4.6l8.9-8.9l8.9,8.9h4.6l-11.2-11.2l18.6-18.6V425h4.9V232.4
				c-1.8-1.9-3.5-3.9-4.9-6.1v19.6l-18.6-18.6l13.4-13.4c-0.3-1.3-0.5-2.7-0.7-4L530,225l-20.9-20.9v-0.3L530,183l15.5,15.5
				c0.2-1.3,0.5-2.5,0.9-3.7l-14.1-14.1l18.6-18.6V185c1.4-2.2,3.1-4.3,4.9-6.1V75.5c-0.2-1.1-0.4-2.2-0.4-3.3l0,0
				c0-1.1,0.1-2.2,0.4-3.3V35.3h-4.9v24l-18.6-18.6l5.4-5.4h-4.6l-3.1,3.1l-3.1-3.1h-4.6l5.4,5.4l-18.6,18.6V36
				c-1.7,0.5-3.4,1.3-4.9,2.3V425z M509.1,385.8v-37.1l18.6,18.6L509.1,385.8L509.1,385.8z M509.1,339.1V302l18.6,18.6L509.1,339.1
				L509.1,339.1z M509.1,292.5v-37.1l18.6,18.6L509.1,292.5L509.1,292.5z M509.1,245.9v-37.1l18.6,18.6L509.1,245.9L509.1,245.9z
				 M509.1,199.2v-37.1l18.6,18.6L509.1,199.2L509.1,199.2z M509.1,152.6v-37.1l18.6,18.5L509.1,152.6L509.1,152.6z M509.1,106V68.8
				l18.6,18.6L509.1,106L509.1,106z M550.8,68.9V106l-18.6-18.6L550.8,68.9L550.8,68.9z M550.8,115.5v37.1L532.3,134L550.8,115.5
				L550.8,115.5z M550.8,255.4v37.1l-18.6-18.6L550.8,255.4z M550.8,302v37.1l-18.6-18.6L550.8,302L550.8,302z M550.8,348.6v37.1
				l-18.6-18.6L550.8,348.6z M509.1,63.9L530,43.1L550.9,64v0.3L530,85.1l-20.9-20.9V63.9L509.1,63.9z M509.1,110.6L530,89.7
				l20.9,20.9v0.3L530,131.7l-20.9-20.9L509.1,110.6L509.1,110.6z M509.1,157.2l20.9-20.9l20.9,20.9v0.3L530,178.4l-20.9-20.9
				L509.1,157.2L509.1,157.2z M509.1,250.5l20.9-20.9l20.9,20.9v0.3L530,271.6l-20.9-20.9L509.1,250.5L509.1,250.5z M509.1,297.1
				l20.9-20.9l20.9,20.9v0.3L530,318.2l-20.9-20.9L509.1,297.1L509.1,297.1z M509.1,343.7l20.9-20.9l20.9,20.9v0.3L530,364.9
				L509.1,344V343.7L509.1,343.7z M509.1,390.4l20.9-20.9l20.9,20.9v0.3L530,411.5l-20.9-20.9L509.1,390.4z"/>
			<path class="st2" d="M144.5,313.1h-7.2v8.9l-8.8-8.8h-6.8l15.6,15.6v0.4L106.5,360l-30.8-30.8v-0.4l14.9-14.9
				c-3.1,0.5-6.2,1.3-9.2,2.4l-5.7,5.7v-3.4c-2.5,1.2-4.9,2.6-7.2,4.2v92.6c2.3,1.6,4.7,3,7.2,4.2v-14.8l20.1,20.1
				c1.3,0.1,2.7,0.1,4,0.1h3l-27.1-27.1v-0.4l30.8-30.8l30.8,30.8v0.4L110.2,425h6.8l20.3-20.3V425h7.2L144.5,313.1L144.5,313.1z
				 M144.5,195c-7.2,2.3-13.3,7.1-17.2,13.6l9.9-9.9v51.2c2.2,1.4,4.7,2.6,7.2,3.4V195L144.5,195z M75.8,390.7V336l27.3,27.4
				L75.8,390.7z M137.3,336v54.7l-27.3-27.4L137.3,336z"/>
			<path class="st2" d="M573.1,425h7.2v-20.3l18.8,18.8c1.9-0.3,3.8-0.8,5.6-1.2l-24.4-24.4v-0.4l30.7-30.8l30.8,30.8v0.4
				l-16.6,16.6c8.9-4.7,17-10.8,23.9-18.2V272.5c-3.1-3.3-6.4-6.4-10-9.2l-28,27.9l-30.7-30.7v-0.4l15.3-15.3c-2-0.3-4-0.5-6.2-0.6
				l-9.2,9.2v-9.5c-2.4-0.2-4.9-0.6-7.2-1.2V425z M573.1,168.7c2.4-0.6,4.8-1.1,7.2-1.2v-37.6l27.3,27.4l-10.1,10.1h6.8l6.7-6.7
				l6.7,6.7h6.8l-10.1-10.1l27.3-27.4v35.4c2.5-0.8,4.9-1.9,7.2-3.2V93.1c-2.3-1.3-4.7-2.4-7.2-3.3v26.1l-27.3-27.3l0.8-0.8h-8.4
				l0.8,0.8l-27.3,27.3V87.7h-7.2L573.1,168.7L573.1,168.7z M573.1,56.7h8.1c0.5,0,0.9,0,1.4-0.1l-2.3-2.3V54l11.1-11.1
				c-0.5-1.6-1.4-3.1-2.5-4.3l-8.5,8.5V35.3h-7.2V56.7L573.1,56.7z M580.3,390.7V336l27.3,27.4L580.3,390.7L580.3,390.7z M580.3,322
				v-54.7l27.3,27.4L580.3,322L580.3,322z M641.8,267.3V322l-27.3-27.4L641.8,267.3L641.8,267.3z M641.8,336v54.7l-27.3-27.4
				L641.8,336L641.8,336z M580.3,122.7L611,91.9l30.8,30.8v0.4L611,153.8l-30.8-30.8L580.3,122.7L580.3,122.7z M580.3,328.8L611,298
				l30.8,30.8v0.4L611,360l-30.8-30.8L580.3,328.8z"/>
			<path class="st3" d="M133.9,336h49.2c2,0,3.6,1.6,3.6,3.6v34.7c0,2-1.6,3.6-3.6,3.6h-49.2c-2,0-3.6-1.6-3.6-3.6v-34.7
				C130.3,337.6,131.9,336,133.9,336z"/>
			<path class="st4" d="M166.2,336h49.2c2,0,3.6,1.6,3.6,3.6v34.7c0,2-1.6,3.6-3.6,3.6h-49.2c-2,0-3.6-1.6-3.6-3.6v-34.7
				C162.6,337.6,164.2,336,166.2,336z"/>
			<path class="st3" d="M172.6,349.8H209c1.1,0,2.1,0.9,2.1,2.1V362c0,1.1-0.9,2.1-2.1,2.1h-36.4c-1.1,0-2.1-0.9-2.1-2.1v-10.1
				C170.5,350.8,171.4,349.8,172.6,349.8z"/>
			<path class="st5" d="M175.2,352.2h17.9c0.2,0,0.4,0.2,0.4,0.5v2.2c0,0.2-0.2,0.5-0.4,0.5h-17.9c-0.2,0-0.4-0.2-0.4-0.5v-2.2
				C174.7,352.5,174.9,352.2,175.2,352.2z"/>
			<path class="st5" d="M175.2,357.2h8.9c0.2,0,0.4,0.2,0.4,0.5v2.2c0,0.2-0.2,0.5-0.4,0.5h-8.9c-0.2,0-0.4-0.2-0.4-0.5v-2.2
				C174.7,357.4,174.9,357.2,175.2,357.2z"/>
			<path class="st6" d="M166.1,377.9h58.9c2.4,0,4.3,1.9,4.3,4.3v41.6c0,2.4-1.9,4.3-4.3,4.3h-58.9c-2.4,0-4.3-1.9-4.3-4.3v-41.6
				C161.8,379.9,163.7,377.9,166.1,377.9z"/>
			<path class="st4" d="M127.4,377.9h58.9c2.4,0,4.3,1.9,4.3,4.3v41.6c0,2.4-1.9,4.3-4.3,4.3h-58.9c-2.4,0-4.3-1.9-4.3-4.3v-41.6
				C123.1,379.9,125,377.9,127.4,377.9z"/>
			<path class="st3" d="M135.1,394.5h43.6c1.4,0,2.5,1.1,2.5,2.5v12.1c0,1.4-1.1,2.5-2.5,2.5h-43.6c-1.4,0-2.5-1.1-2.5-2.5V397
				C132.6,395.6,133.7,394.5,135.1,394.5z"/>
			<path class="st5" d="M154.1,397.4h21.5c0.3,0,0.5,0.2,0.5,0.5v2.6c0,0.3-0.2,0.5-0.5,0.5h-21.5c-0.3,0-0.5-0.2-0.5-0.5v-2.6
				C153.6,397.6,153.8,397.4,154.1,397.4z"/>
			<path class="st5" d="M165,403.3h10.6c0.3,0,0.5,0.2,0.5,0.5v2.6c0,0.3-0.2,0.5-0.5,0.5H165c-0.3,0-0.5-0.2-0.5-0.5v-2.6
				C164.5,403.5,164.7,403.3,165,403.3z"/>
			<path class="st2" d="M23.9,232.1c6.2-6.2,16.3-6.2,22.5,0c6.2,6.2,6.2,16.3,0,22.5c-6.2,6.2-16.3,6.2-22.5,0
				c-4.5-4.5-5.9-11.4-3.4-17.3C21.2,235.3,22.4,233.6,23.9,232.1z M29.6,230c-7.4,3-10.9,11.5-7.9,18.9s11.5,10.9,18.9,7.9
				s10.9-11.5,7.9-18.9c-2.2-5.4-7.5-9-13.4-9C33.2,228.9,31.3,229.3,29.6,230z M27.8,218.3c-3,0.9-5.9,2.3-8.4,4.2
				c-0.8,0.6-1.7,1.3-2.4,2.1c-0.3,0.3-0.6,0.4-1,0.4c-0.3,0-0.7,0-1-0.2c-2.3-1.4-4.8-2.7-7.1-4.1c-0.1-0.1-0.2-0.1-0.3-0.1
				c-0.1,0-0.3,0-0.4,0c-0.1,0-0.3,0.1-0.4,0.2c-0.1,0.1-0.2,0.2-0.3,0.3c-1.7,2.6-3.4,5.9-5,8.6c-0.1,0.1-0.1,0.2-0.1,0.4
				c0,0.1,0,0.3,0,0.4c0,0.1,0.1,0.3,0.2,0.4c0.1,0.1,0.2,0.2,0.3,0.3c2.1,1.4,4.8,2.8,7,4.1c0.3,0.2,0.6,0.5,0.7,0.8
				c0,0.1,0.1,0.2,0.1,0.4h0.1L9.7,237c-0.1,0.5-0.2,1-0.3,1.5c-0.1,0.5-0.2,1-0.2,1.6c-0.1,0.5-0.1,1.1-0.1,1.6s0,1,0,1.6
				s0,1.1,0,1.6s0.1,1,0.1,1.6s0.1,1.1,0.2,1.6s0.2,1,0.3,1.5c0.2,0.8-0.2,1.5-0.9,1.9L2.6,255l0,0l-0.7,0.4
				c-0.1,0.1-0.2,0.2-0.3,0.3c-0.1,0.1-0.1,0.2-0.2,0.4c0,0.1,0,0.3,0,0.4c0,0.1,0.1,0.3,0.1,0.4l4.6,8l0,0l0.4,0.6
				c0.1,0.1,0.2,0.2,0.3,0.3c0.1,0.1,0.2,0.1,0.4,0.2c0.1,0,0.3,0,0.4,0c0.1,0,0.2-0.1,0.4-0.1c2.2-1.4,4.7-2.7,7-4.1
				c0.6-0.4,1.5-0.3,2,0.2l0,0c0.8,0.7,1.6,1.4,2.4,2.1c2.5,1.9,5.4,3.3,8.5,4.2c0.7,0.2,1.2,0.9,1.2,1.6v8.1c0,0.1,0,0.3,0.1,0.4
				c0.1,0.3,0.3,0.4,0.5,0.5c0.1,0,0.2,0.1,0.4,0.1h10c0.1,0,0.3,0,0.4-0.1c0.1-0.1,0.2-0.1,0.3-0.2c0.1-0.1,0.2-0.2,0.2-0.3
				c0.1-0.1,0.1-0.2,0.1-0.4v-8c0-0.8,0.5-1.4,1.3-1.6c1-0.3,2-0.6,2.9-1c1-0.4,1.9-0.9,2.8-1.4c1.8-1.1,3.5-2.3,5.1-3.8
				c0.6-0.5,1.4-0.6,2.1-0.2l7,4c0.1,0.1,0.2,0.1,0.4,0.1c0.1,0,0.3,0,0.4,0c0.1,0,0.3-0.1,0.4-0.2c0.1-0.1,0.2-0.2,0.3-0.3
				c1.7-2.9,3.3-5.8,5-8.6c0.1-0.1,0.1-0.2,0.1-0.4c0-0.1,0-0.3,0-0.4c0-0.1-0.1-0.3-0.2-0.4c-0.1-0.1-0.2-0.2-0.3-0.3l-7-4.1
				c-0.3-0.2-0.6-0.5-0.7-0.8c0-0.1-0.1-0.2-0.1-0.3h-0.2l0.2-0.8c0.1-0.5,0.2-1,0.3-1.5s0.2-1,0.2-1.6s0.1-1.1,0.1-1.6s0-1,0-1.6
				s0-1.1,0-1.6s-0.1-1-0.1-1.6s-0.2-1.1-0.2-1.6s-0.2-1-0.3-1.5c-0.2-0.7,0.2-1.5,0.8-1.9l7-4c0.1-0.1,0.2-0.2,0.3-0.3
				c0.1-0.1,0.1-0.2,0.2-0.4c0-0.1,0-0.3,0-0.4c0-0.1-0.1-0.3-0.1-0.4c-1.7-2.5-3.4-5.9-5-8.6c-0.1-0.1-0.2-0.2-0.3-0.3
				c-0.1-0.1-0.2-0.1-0.4-0.2c-0.1,0-0.3,0-0.4,0c-0.1,0-0.3,0.1-0.4,0.1l-7,4.1c-0.3,0.2-0.7,0.3-1.1,0.2c-0.4,0-0.7-0.2-1-0.5
				c-1.5-1.5-3.2-2.7-5-3.8c-1.8-1.1-3.8-1.9-5.8-2.5c-0.7-0.2-1.2-0.9-1.2-1.6v-8.1c0-0.1,0-0.3-0.1-0.4c-0.1-0.1-0.1-0.2-0.2-0.3
				c-0.2-0.2-0.4-0.3-0.7-0.3h-10c-0.1,0-0.3,0-0.4,0.1c-0.1,0.1-0.2,0.1-0.3,0.2c-0.2,0.2-0.3,0.4-0.3,0.7v8.1
				c0,0.8-0.5,1.4-1.3,1.6L27.8,218.3z M24.3,218c-3.1,1.3-5.9,3.2-8.3,5.5c0,0-0.1,0-0.1,0.1c0,0-0.1,0-0.1,0l-7.1-4.1
				c-0.3-0.1-0.6-0.2-0.9-0.3c-0.6-0.1-1.3,0.1-1.8,0.5c-0.3,0.2-0.5,0.4-0.6,0.7c-1.7,2.8-3.3,5.8-5,8.6c-0.2,0.3-0.3,0.6-0.3,0.9
				c-0.1,0.7,0.1,1.3,0.5,1.8c0.2,0.3,0.4,0.5,0.7,0.6c2.3,1.4,4.7,2.7,7,4.1c0,0,0.1,0.1,0.1,0.1c0,0,0,0.1,0,0.1l-0.2,0.7l0,0
				c-0.1,0.3-0.1,0.7-0.2,1c-0.1,0.6-0.2,1.1-0.2,1.7s-0.1,1.1-0.2,1.7c0,0.6-0.1,1.1-0.1,1.7c0,0.5,0,1.1,0.1,1.7s0.1,1.1,0.2,1.7
				s0.2,1.1,0.2,1.7c0.1,0.6,0.2,1.1,0.4,1.6c0,0,0,0.1,0,0.1c0,0-0.1,0.1-0.1,0.1c-2.6,1.4-5.2,3-7.8,4.5l0.1,0.1l-0.1,0.1
				c-0.4,0.5-0.5,1.2-0.5,1.8c0,0.3,0.1,0.6,0.3,0.9l5.4,9.3l0.1-0.1L6,267c0.5,0.4,1.2,0.6,1.8,0.5c0.3,0,0.6-0.1,0.9-0.3
				c2.3-1.2,4.8-2.8,7.1-4.1c0,0,0.1,0,0.1,0c0,0,0.1,0,0.1,0c1.6,1.5,3.4,2.9,5.4,4c1.9,1.1,4,2,6.1,2.6c0,0,0.1,0,0.1,0.1
				c0,0,0,0.1,0,0.1v8.1c0,0.7,0.3,1.3,0.7,1.8c0.2,0.2,0.5,0.4,0.8,0.5c0.3,0.1,0.6,0.2,1,0.2h10c0.3,0,0.6-0.1,1-0.2
				c0.3-0.1,0.6-0.3,0.8-0.5c0.2-0.2,0.4-0.5,0.5-0.8c0.1-0.3,0.2-0.6,0.2-1V270c0,0,0-0.1,0-0.1c0,0,0.1-0.1,0.1-0.1l0,0
				c3.2-0.9,6.2-2.4,8.9-4.5c0.9-0.7,1.7-1.4,2.5-2.2c0,0,0.1,0,0.1,0c0,0,0.1,0,0.1,0l7,4.1c0.3,0.2,0.6,0.3,0.9,0.3
				c0.3,0,0.7,0,1-0.1c0.6-0.2,1.2-0.6,1.5-1.1c1.8-3,3.6-6.2,5.4-9.3l-0.1-0.1c0-0.1,0-0.2,0-0.2c0-0.3,0-0.7-0.1-1
				c-0.1-0.3-0.2-0.6-0.4-0.9c-0.2-0.3-0.4-0.5-0.7-0.6l-7-4.1c0,0-0.1-0.1-0.1-0.1c0,0,0-0.1,0-0.1l0.2-0.7l0,0
				c0.1-0.3,0.1-0.6,0.2-0.9c0.1-0.6,0.2-1.1,0.2-1.7s0.1-1.1,0.2-1.7s0-1.1,0-1.7s0-1.1,0-1.7s-0.1-1.1-0.2-1.7s-0.2-1.1-0.2-1.7
				s-0.2-1.1-0.3-1.6c0,0,0-0.1,0-0.1c0,0,0.1-0.1,0.1-0.1l7-4.1c0.3-0.2,0.5-0.4,0.7-0.6c0.6-0.8,0.7-1.9,0.2-2.7
				c-1.7-3.1-3.6-6.2-5.4-9.3l-0.1,0.1l-0.2-0.1c-0.5-0.4-1.2-0.6-1.8-0.5c-0.3,0-0.6,0.1-0.9,0.3l-0.5,0.3l0,0l-6.5,3.8
				c0,0-0.1,0-0.1,0c0,0-0.1,0-0.1-0.1l0,0c-3.2-3.1-7.2-5.4-11.5-6.6c0,0-0.1,0-0.1-0.1c0,0,0-0.1,0-0.1v-8.1
				c0-0.7-0.3-1.3-0.7-1.8c-0.2-0.2-0.5-0.4-0.8-0.5c-0.3-0.1-0.6-0.2-1-0.2h-10c-0.3,0-0.6,0.1-1,0.2c-0.3,0.1-0.6,0.3-0.8,0.5
				c-0.5,0.5-0.7,1.1-0.7,1.8v8.1c0,0,0,0.1,0,0.1c0,0-0.1,0.1-0.1,0.1l0,0C26.4,217.2,25.3,217.5,24.3,218z"/>
			<path class="st2" d="M89.2,265.7c2.6-2.6,6.9-2.6,9.5,0c2.6,2.6,2.6,6.9,0,9.5s-6.9,2.6-9.5,0c-1.3-1.3-2-3-2-4.8
				C87.2,268.7,87.9,267,89.2,265.7z M90.7,259c-0.9,0.3-1.8,0.7-2.7,1.1c-0.8,0.5-1.6,1.1-2.3,1.8c-0.1,0.1-0.3,0.2-0.5,0.1
				l-3.1-1.8l0,0c-0.4-0.2-0.8,0-1,0.3l0,0l-2.2,3.8c-0.2,0.4-0.1,0.8,0.3,1.1l0,0l3.1,1.8c0.2,0.1,0.2,0.3,0.2,0.5l0,0
				c-0.5,1.9-0.5,3.9,0,5.8c0,0.2,0,0.4-0.2,0.5l-3.1,1.8l0,0c-0.4,0.2-0.5,0.7-0.3,1.1l2.2,3.9l0,0c0.2,0.4,0.7,0.5,1.1,0.3l0,0
				l3.1-1.8c0.2-0.1,0.4-0.1,0.5,0.1c0.7,0.7,1.5,1.3,2.3,1.8c0.8,0.5,1.7,0.9,2.7,1.1c0.2,0,0.3,0.2,0.3,0.4v3.7
				c0,0.4,0.3,0.8,0.8,0.8h4.5c0.4,0,0.8-0.3,0.8-0.8c0,0,0,0,0,0v-3.6c0-0.2,0.1-0.4,0.3-0.4c0.9-0.3,1.8-0.6,2.6-1.1
				c0.8-0.5,1.6-1.1,2.3-1.8c0.1-0.1,0.4-0.1,0.5,0l3.1,1.8c0.4,0.2,0.8,0.1,1.1-0.3l0,0l2.2-3.8l0,0c0.2-0.4,0.1-0.8-0.3-1.1
				l-3.1-1.8c-0.2-0.1-0.2-0.3-0.2-0.5l0,0c0.5-1.9,0.5-3.9,0-5.8c0-0.2,0-0.4,0.2-0.5l3.1-1.8c0.4-0.2,0.5-0.7,0.3-1.1l0,0
				l-2.2-3.8l0,0c-0.2-0.4-0.7-0.5-1.1-0.3l0,0l-3.2,1.7c-0.2,0.1-0.4,0.1-0.5-0.1c-0.7-0.7-1.5-1.3-2.3-1.7
				c-0.8-0.5-1.7-0.9-2.7-1.2c-0.2,0-0.3-0.2-0.3-0.4V255c0-0.4-0.3-0.8-0.8-0.8h-4.4c-0.4,0-0.8,0.4-0.8,0.8v3.6
				C91,258.8,90.9,259,90.7,259z"/>
			<path class="st2" d="M230.8,166.2c0.1-0.6-0.4-1.2-1-1.3c-0.6-0.1-1.2,0.4-1.3,1c0,0.1,0,0.1,0,0.2v2.7h-2.7
				c-0.6-0.1-1.2,0.4-1.3,1c-0.1,0.6,0.4,1.2,1,1.3c0.1,0,0.1,0,0.2,0h2.7v2.7c0.1,0.6,0.6,1.1,1.3,1c0.6-0.1,1-0.5,1-1v-2.7h2.7
				c0.6-0.1,1.1-0.6,1-1.3c-0.1-0.6-0.5-1-1-1h-2.7V166.2z"/>
			<path class="st2" d="M305.3,77.7c2.6-2.6,6.9-2.6,9.5,0c2.6,2.6,2.6,6.9,0,9.5c-2.6,2.6-6.9,2.6-9.5,0c-1.3-1.3-2-3-2-4.8
				C303.3,80.6,304,78.9,305.3,77.7z M306.8,71c-0.9,0.3-1.8,0.6-2.6,1.1c-0.8,0.5-1.6,1.1-2.3,1.8c-0.1,0.1-0.3,0.2-0.5,0.1
				l-3.1-1.9l0,0c-0.4-0.2-0.8,0-1,0.3l0,0l-2.2,3.8c-0.2,0.4-0.1,0.8,0.3,1.1l0,0l3.1,1.8c0.2,0.1,0.2,0.3,0.2,0.5l0,0
				c-0.1,0.5-0.2,0.9-0.3,1.4c-0.1,1-0.1,1.9,0,2.9c0.1,0.5,0.1,1,0.3,1.4c0,0.2,0,0.4-0.2,0.5l-3.1,1.8l0,0
				c-0.4,0.2-0.5,0.7-0.3,1.1l2.2,3.8l0,0c0.2,0.4,0.7,0.5,1.1,0.3l0,0l3.1-1.8c0.2-0.1,0.4-0.1,0.5,0.1c0.7,0.7,1.5,1.3,2.3,1.8
				c0.8,0.5,1.7,0.9,2.7,1.1c0.2,0.1,0.3,0.2,0.3,0.4v3.6c0,0.4,0.3,0.8,0.8,0.8h4.4c0.4,0,0.8-0.3,0.8-0.8v-3.6
				c0-0.2,0.1-0.4,0.3-0.4c0.9-0.3,1.8-0.6,2.6-1.1c0.8-0.5,1.6-1.1,2.3-1.8c0.1-0.1,0.4-0.1,0.5,0l3.1,1.8c0.4,0.2,0.8,0.1,1.1-0.3
				l0,0l2.2-3.8l0,0c0.2-0.4,0.1-0.8-0.3-1.1l-3.1-1.8c-0.2-0.1-0.2-0.3-0.2-0.5l0,0c0.5-1.9,0.5-3.9,0-5.8c0-0.2,0-0.4,0.2-0.5
				l3.2-1.8c0.4-0.2,0.5-0.7,0.3-1.1l0,0l-2.3-3.8l0,0c-0.2-0.4-0.6-0.5-1-0.3l0,0l-3.1,1.8c-0.2,0.1-0.4,0.1-0.5-0.1
				c-0.7-0.7-1.5-1.2-2.4-1.7c-0.8-0.5-1.7-0.9-2.7-1.1c-0.2,0-0.3-0.2-0.3-0.4v-3.6c0-0.4-0.3-0.8-0.8-0.8h-4.4
				c-0.4,0-0.8,0.3-0.8,0.8v3.6C307,70.7,306.9,70.9,306.8,71L306.8,71z"/>
			<path class="st2" d="M681.2,60.5c0.1-0.6-0.4-1.2-1-1.3c-0.6-0.1-1.2,0.4-1.3,1c0,0.1,0,0.1,0,0.2v2.7h-2.7
				c-0.6-0.1-1.2,0.4-1.3,1c-0.1,0.6,0.4,1.2,1,1.3c0.1,0,0.1,0,0.2,0h2.7v2.7c-0.1,0.6,0.4,1.2,1,1.3c0.6,0.1,1.2-0.4,1.3-1
				c0-0.1,0-0.1,0-0.2v-2.7h2.7c0.6-0.1,1.1-0.6,1-1.3c-0.1-0.6-0.5-1-1-1h-2.7V60.5z"/>
			<path class="st2" d="M6.8,362.3c0.1-0.6-0.4-1.2-1-1.3s-1.2,0.4-1.3,1c0,0.1,0,0.1,0,0.2v2.7H1.8c-0.6-0.1-1.2,0.4-1.3,1
				s0.4,1.2,1,1.3c0.1,0,0.1,0,0.2,0h2.7v2.7c0.1,0.6,0.6,1.1,1.3,1c0.6-0.1,1-0.5,1-1v-2.7h2.7c0.6-0.1,1.1-0.6,1-1.3
				c-0.1-0.6-0.5-1-1-1H6.8V362.3z"/>
			<path class="st2" d="M379.2,138.8c2.6-2.6,6.9-2.6,9.5,0s2.6,6.9,0,9.5c-2.6,2.6-6.9,2.6-9.5,0c-1.3-1.3-2-3-2-4.8
				C377.2,141.8,377.9,140.1,379.2,138.8z M380.6,132.1c-1.9,0.5-3.6,1.5-5,2.9c-0.1,0.1-0.3,0.2-0.5,0.1l-3.1-1.8l0,0
				c-0.4-0.2-0.8,0-1,0.3l0,0l-2.2,3.8c-0.2,0.4-0.1,0.8,0.3,1.1l0,0l3.1,1.8c0.2,0.1,0.2,0.3,0.2,0.5l0,0c-0.1,0.5-0.2,0.9-0.3,1.4
				c-0.1,1-0.1,1.9,0,2.9c0.1,0.5,0.1,1,0.3,1.4c0,0.2,0,0.4-0.2,0.5l-3.2,1.8l0,0c-0.4,0.2-0.5,0.7-0.3,1.1l2.2,3.8l0,0
				c0.2,0.4,0.7,0.5,1.1,0.3l0,0l3.1-1.8c0.2-0.1,0.4-0.1,0.5,0.1c0.7,0.7,1.5,1.3,2.3,1.8c0.8,0.5,1.7,0.9,2.7,1.1
				c0.2,0.1,0.3,0.2,0.3,0.4v3.6c0,0.4,0.3,0.8,0.8,0.8h4.4c0.4,0,0.8-0.3,0.8-0.8v-3.6c0-0.2,0.1-0.4,0.3-0.4
				c0.9-0.3,1.8-0.6,2.6-1.1c0.8-0.5,1.6-1.1,2.3-1.8c0.2-0.1,0.4-0.1,0.5,0l3.1,1.8c0.4,0.2,0.8,0.1,1.1-0.3l0,0l2.2-3.8l0,0
				c0.2-0.4,0.1-0.8-0.3-1.1l-3.1-1.8c-0.2-0.1-0.2-0.3-0.2-0.5l0,0c0.1-0.5,0.2-0.9,0.3-1.4c0.1-1,0.1-1.9,0-2.9
				c-0.1-0.5-0.1-1-0.3-1.4c0-0.2,0-0.4,0.2-0.5l3.1-1.8c0.4-0.2,0.5-0.7,0.3-1.1l0,0l-2.2-3.8l0,0c-0.2-0.4-0.7-0.5-1.1-0.3l0,0
				l-3.1,1.8c-0.2,0.1-0.4,0.1-0.5-0.1c-0.7-0.7-1.5-1.3-2.3-1.7c-0.8-0.5-1.7-0.9-2.7-1.1c-0.2,0-0.3-0.2-0.3-0.4v-3.7
				c0-0.4-0.3-0.8-0.8-0.8h-4.4c-0.4,0-0.8,0.3-0.8,0.8v3.6C380.9,131.9,380.8,132.1,380.6,132.1L380.6,132.1z"/>
			<path class="st2" d="M333.5,134.9c0.1-0.6-0.4-1.2-1-1.3c-0.6-0.1-1.2,0.4-1.3,1c0,0.1,0,0.1,0,0.2v2.7h-2.7
				c-0.6,0.1-1.1,0.6-1,1.3c0.1,0.6,0.5,1,1,1h2.7v2.7c0.1,0.6,0.6,1.1,1.3,1c0.6-0.1,1-0.5,1-1V140h2.7c0.6-0.1,1.1-0.6,1-1.3
				c-0.1-0.6-0.5-1-1-1h-2.7V134.9z"/>
			<path class="st2" d="M338.3,263c-0.1-0.6-0.6-1.1-1.3-1c-0.6,0.1-1,0.5-1,1v2.7h-2.7c-0.6,0.1-1.1,0.6-1,1.3c0.1,0.6,0.5,1,1,1
				h2.7v2.7c-0.1,0.6,0.4,1.2,1,1.3s1.2-0.4,1.3-1c0-0.1,0-0.1,0-0.2v-2.7h2.7c0.6,0.1,1.2-0.4,1.3-1s-0.4-1.2-1-1.3
				c-0.1,0-0.1,0-0.2,0h-2.7L338.3,263z"/>
			<path class="st2" d="M236.9,205.7c0.1-0.6-0.4-1.2-1-1.3c-0.6-0.1-1.2,0.4-1.3,1c0,0.1,0,0.1,0,0.2v2.7h-2.7
				c-0.6-0.1-1.2,0.4-1.3,1c-0.1,0.6,0.4,1.2,1,1.3c0.1,0,0.1,0,0.2,0h2.7v2.7c-0.1,0.6,0.4,1.2,1,1.3c0.6,0.1,1.2-0.4,1.3-1
				c0-0.1,0-0.1,0-0.2v-2.7h2.7c0.6-0.1,1.1-0.6,1-1.3c-0.1-0.6-0.5-1-1-1h-2.7V205.7z"/>
			<path class="st2" d="M621.5,198.8c-0.1-0.6-0.6-1.1-1.3-1c-0.6,0.1-1,0.5-1,1v2.7h-2.7c-0.6-0.1-1.2,0.4-1.3,1
				c-0.1,0.6,0.4,1.2,1,1.3c0.1,0,0.1,0,0.2,0h2.7v2.7c-0.1,0.6,0.4,1.2,1,1.3c0.6,0.1,1.2-0.4,1.3-1c0-0.1,0-0.1,0-0.2v-2.7h2.7
				c0.6,0.1,1.2-0.4,1.3-1c0.1-0.6-0.4-1.2-1-1.3c-0.1,0-0.1,0-0.2,0h-2.7V198.8z"/>
			<path class="st7" d="M503.8,113.4c-0.3,0.4-0.7,0.4-1.1,0.2s-0.4-0.7-0.2-1.1c10.6-14.9,31.3-18.3,46.1-7.7
				c14.9,10.6,18.3,31.3,7.7,46.1c-10.6,14.9-31.3,18.3-46.1,7.7c-6.4-4.6-11-11.3-12.9-18.9c-0.1-0.4,0.2-0.8,0.6-0.9
				c0.4-0.1,0.8,0.2,0.9,0.6c4.2,16.9,21.3,27.2,38.2,23c16.9-4.2,27.2-21.3,23-38.2c-4.2-16.9-21.3-27.2-38.2-23
				C514.6,103,508.2,107.3,503.8,113.4L503.8,113.4z"/>
			<path class="st7" d="M544.7,117.2c-0.9,0.8-3.2,3.2-4.8,8.4c1.3,0.9,4.9,3.6,3.2,6.5l-7,12.1c-1.7,2.8-5.8,1.1-7.2,0.4
				c-3.7,3.9-4.7,7.2-4.9,8.3c1.9,1.1,4.2,1.6,6.4,1.4c2-0.2,3.9-1.2,5.1-2.9l13.6-23.5c0.8-1.9,0.8-4-0.1-5.8
				C548.1,120.1,546.6,118.4,544.7,117.2L544.7,117.2z M538.5,125.8c1.9-6.9,5.3-9.6,5.7-9.8c0.2-0.2,0.5-0.2,0.8-0.1
				c2.3,1.3,4.2,3.3,5.3,5.7c1,2.2,1,4.8,0,7l-13.6,23.5c-1.4,2-3.6,3.3-6.1,3.5c-2.7,0.3-5.3-0.3-7.6-1.7c-0.2-0.1-0.4-0.4-0.4-0.6
				c0,0,0.4-4.6,5.7-9.9c0.2-0.2,0.6-0.3,0.8-0.1c0,0,4.5,2.6,5.8,0.3l7-12.1c1.3-2.2-2.8-4.7-3.1-4.9
				C538.6,126.4,538.4,126.1,538.5,125.8L538.5,125.8z"/>
			<path class="st8" d="M503.1,136.8v-2.7l6.2-6.4c1.4-1.4,2.1-2.7,2.1-3.6c0.1-1.2-0.9-2.3-2.1-2.4c-0.1,0-0.2,0-0.2,0
				c-1.3,0-2.6,0.8-3,2.1l-3-1.8c1-2.4,3.4-3.9,6-3.8c1.6,0,3.1,0.5,4.2,1.6c1.2,1,1.8,2.6,1.8,4.1c0,1.9-1,3.8-3,5.8l-3.5,3.6h6.8
				v3.4L503.1,136.8z"/>
			<path class="st8" d="M530.5,130.4v3.3h-1.9v3.1h-3.6v-3.1h-8.6v-3.3l6-11.7h3.8l-6,11.7h4.7v-4.3h3.6v4.3H530.5z"/>
			<path class="st2" d="M416.3,73h45.1c3.9,0,7,3.1,7,7v39.3c0,0.4-0.3,0.8-0.8,0.8c-0.2,0-0.4-0.1-0.6-0.2l-12-12h-38.7
				c-3.9,0-7-3.1-7-7V80C409.3,76.1,412.4,73,416.3,73z"/>
			<path class="st9" d="M411,68.4h45c4.4,0,8,3.6,8,8v39.3c0,0.7-0.4,1.3-1.1,1.6l0,0c-0.6,0.3-1.4,0.1-1.9-0.4l-11.7-11.7H411
				c-4.4,0-8-3.6-8-8V76.4C403,72,406.6,68.4,411,68.4L411,68.4z M456,70.3h-45c-3.4,0-6.1,2.7-6.1,6.1v20.8c0,3.4,2.7,6.1,6.1,6.1
				h39.2l12,12V76.4C462.2,73,459.4,70.3,456,70.3L456,70.3z"/>
			<path class="st9" d="M410.6,76.2c-0.3,0.1-0.5-0.1-0.6-0.4c-0.1-0.3,0.1-0.5,0.4-0.6c0.1,0,0.1,0,0.2,0h45.8
				c0.3-0.1,0.5,0.1,0.6,0.4c0.1,0.3-0.1,0.5-0.4,0.6c-0.1,0-0.1,0-0.2,0H410.6z"/>
			<path class="st9" d="M410.6,81.2c-0.3,0.1-0.5-0.1-0.6-0.4c-0.1-0.3,0.1-0.5,0.4-0.6c0.1,0,0.1,0,0.2,0h4.9
				c0.3,0.1,0.5,0.3,0.4,0.6c0,0.2-0.2,0.4-0.4,0.4H410.6z M421.9,81.2c-0.3-0.1-0.5-0.3-0.4-0.6c0-0.2,0.2-0.4,0.4-0.4h34.5
				c0.3-0.1,0.5,0.1,0.6,0.4c0.1,0.3-0.1,0.5-0.4,0.6c-0.1,0-0.1,0-0.2,0H421.9z"/>
			<path class="st9" d="M410.6,86.1c-0.3,0.1-0.5-0.1-0.6-0.4c-0.1-0.3,0.1-0.5,0.4-0.6c0.1,0,0.1,0,0.2,0h45.8
				c0.3-0.1,0.5,0.1,0.6,0.4c0.1,0.3-0.1,0.5-0.4,0.6c-0.1,0-0.1,0-0.2,0H410.6z"/>
			<path class="st9" d="M423.3,92.8c-0.3,0.1-0.5-0.1-0.6-0.4c-0.1-0.3,0.1-0.5,0.4-0.6c0.1,0,0.1,0,0.2,0h33.1
				c0.3-0.1,0.5,0.1,0.6,0.4c0.1,0.3-0.1,0.5-0.4,0.6c-0.1,0-0.1,0-0.2,0H423.3z"/>
			<path class="st9" d="M438.1,98.2c-0.3-0.1-0.5-0.3-0.4-0.6c0-0.2,0.2-0.4,0.4-0.4h18.3c0.3-0.1,0.5,0.1,0.6,0.4
				c0.1,0.3-0.1,0.5-0.4,0.6c-0.1,0-0.1,0-0.2,0H438.1z"/>
			<path class="st9" d="M427.6,98.2c-0.3,0.1-0.5-0.1-0.6-0.4c-0.1-0.3,0.1-0.5,0.4-0.6c0.1,0,0.1,0,0.2,0h6.5
				c0.3-0.1,0.5,0.1,0.6,0.4c0.1,0.3-0.1,0.5-0.4,0.6c-0.1,0-0.1,0-0.2,0H427.6z"/>
			<path class="st10" d="M321,131.8h-45.1c-4.4,0-8,3.6-8,8V179c0,0.7,0.4,1.3,1.1,1.6l0,0c0.6,0.3,1.4,0.1,1.9-0.4l11.7-11.7H321
				c4.4,0,8-3.6,8-8v-20.8C329,135.3,325.4,131.7,321,131.8L321,131.8z M275.9,133.6H321c3.4,0,6.1,2.7,6.1,6.1v20.8
				c0,3.4-2.7,6.1-6.1,6.1h-39.2l-12,12v-38.9C269.8,136.4,272.5,133.6,275.9,133.6L275.9,133.6z"/>
			<path class="st10" d="M321.3,139.5c0.3-0.1,0.5-0.3,0.4-0.6c0-0.2-0.2-0.4-0.4-0.4h-45.8c-0.3-0.1-0.5,0.1-0.6,0.4
				c-0.1,0.3,0.1,0.5,0.4,0.6c0.1,0,0.1,0,0.2,0H321.3z"/>
			<path class="st10" d="M321.3,144.5c0.3-0.1,0.5-0.3,0.4-0.6c0-0.2-0.2-0.4-0.4-0.4h-4.9c-0.3,0.1-0.5,0.3-0.4,0.6
				c0,0.2,0.2,0.4,0.4,0.4H321.3z M310,144.5c0.3-0.1,0.5-0.3,0.4-0.6c0-0.2-0.2-0.4-0.4-0.4h-34.5c-0.3-0.1-0.5,0.1-0.6,0.4
				c-0.1,0.3,0.1,0.5,0.4,0.6c0.1,0,0.1,0,0.2,0H310z"/>
			<path class="st10" d="M321.3,149.4c0.3-0.1,0.5-0.3,0.4-0.6c0-0.2-0.2-0.4-0.4-0.4h-45.8c-0.3-0.1-0.5,0.1-0.6,0.4
				c-0.1,0.3,0.1,0.5,0.4,0.6c0.1,0,0.1,0,0.2,0H321.3z"/>
			<path class="st10" d="M308.6,156.2c0.3-0.1,0.5-0.3,0.4-0.6c0-0.2-0.2-0.4-0.4-0.4h-33.1c-0.3-0.1-0.5,0.1-0.6,0.4
				c-0.1,0.3,0.1,0.5,0.4,0.6c0.1,0,0.1,0,0.2,0H308.6z"/>
			<path class="st10" d="M293.8,161.5c0.3,0.1,0.5-0.1,0.6-0.4c0.1-0.3-0.1-0.5-0.4-0.6c-0.1,0-0.1,0-0.2,0h-18.3
				c-0.3-0.1-0.5,0.1-0.6,0.4c-0.1,0.3,0.1,0.5,0.4,0.6c0.1,0,0.1,0,0.2,0H293.8z"/>
			<path class="st10" d="M304.3,161.5c0.3-0.1,0.5-0.3,0.4-0.6c0-0.2-0.2-0.4-0.4-0.4h-6.5c-0.3-0.1-0.5,0.1-0.6,0.4
				c-0.1,0.3,0.1,0.5,0.4,0.6c0.1,0,0.1,0,0.2,0H304.3z"/>
			<path class="st11" d="M316.6,320.8c0,0-7.1-91.5-7.1-109.6s11.2-37.2,28.4-41.4c11.1-2.7,15.2-3,23.5-1.8s17.8,6.3,24.2,12.7
				c14.6,14.4,38,71.4,23.6,143.7L316.6,320.8z"/>
			<path d="M323.6,320.4c0,0-10-121.7,2.6-128s47.3,39.3,47.3,39.3s19.4,58,18.2,95.2L323.6,320.4z"/>
			<path class="st12" d="M197.2,292.2c7.8,4.2,12.1,9.2,17.5,16.4c11.9,16.1,16.5,28.4,30,42.9c5,5.3,29.5-36.7,32.4-42.2
				c0.5-1.1,2.9-6.3,5-4.6c1,0.8,4.3,4.1,6.4,5.2s4.7,0.5,5.2,3.6c-5.6,20.7-30.4,86.9-59.8,65.1c-20.9-15.4-36.5-39.2-39.1-42.6
				c-9.7-12.5-3.4-25-7.7-33.9l0,0l-0.3-0.6l-0.1-0.2l-0.2-0.4l0,0l-0.2-0.4l-0.1-0.2l-0.1-0.1l0,0c-1.8-4.1-1.9-5.8-1.9-5.8
				l4.1,4.5L197.2,292.2z"/>
			<path class="st13" d="M114.3,308.8l13.7-17.3l3-2.6l30.4-11.4l14.1,2.2l0,0c0,0,14,6.8,15.2,6.8c0.2,0,0.4-0.1,0.6-0.2l8.3,23.8
				c0,0,5,34.6,5.8,36.9s1.3,35.5-1.3,40.3s-0.4,12.1-10.5,15.2s-31.6,9.1-46-6.2s-17.5-23.8-21.1-28.9S114.3,308.8,114.3,308.8z"/>
			<path class="st12" d="M171.7,299.2l0.8,1.5c0,0,12,36.4,11.6,65.6s-15.2,4.2-15,1.8s2.9-50,0.3-67.2
				C169.5,300.8,169.7,298.5,171.7,299.2z"/>
			<path class="st12" d="M178.4,281.3c0,0,11.7,27.9,7.3,59.8c-2.6,19.2-7.2,38.1-13.7,56.4l-2.2,28h40.4
				c0.3-11.3,0.7-20.8,1.3-27.2C214.6,362.8,224.4,287.5,178.4,281.3z"/>
			<path class="st14" d="M178.4,281.3c0,0,11.7,27.9,7.3,59.8c-1.5,10.5-3.5,20.8-6.1,31.1l0,0l1.1,4.9
				c8.7-20.4,22.1-71.9,21.8-72.1s-8.3-0.8-8.3-0.8c1.9-1.9,4.2-2.8,3.7-3.7s-11.7-15.3-13.9-18.1
				C182.2,281.9,180.3,281.5,178.4,281.3z"/>
			<path class="st12" d="M183.9,425.5c-0.4-7.4-0.8-12.7-1-15.1c-4.5-51.8-2.2-86.4-37-127.4c-8.1,1.6-22.8,9.2-22.8,9.2
				c-6.4,3.4-12.6,8.8-13.7,16.2c-1.5,10.6,10,47.2,17.1,70.2c3.1,9.9,3.4,26.9,2.4,46.8L183.9,425.5z"/>
			<path class="st15" d="M150.2,248.8l0.4,8.3v19.6c0,1.2-1.2,3-3.2,4.6c3.1,3.3,10.6,11,15.3,11.8c6.1,0.9,13-1.8,14.8-3.2
				c1.2-1,1.3-6.5,2.1-9.5c-0.6-0.2,0.1,0-0.5-0.2c-1.4-0.4-2.7-1.2-3.8-2.2c-2.8-3.1-2.7-16.9,0.1-20.5S150.2,248.8,150.2,248.8z"
				/>
			<path class="st2" d="M172.9,289.2l-3.4-1.9c0,0-0.3,3.8-0.7,3.9s-0.9-2.4-2.4-3.3s-5.4,4.5-5.4,4.5s1.5,4.2,3.6,4.5
				s8.5,1,8.6-0.9S172.9,289.2,172.9,289.2z"/>
			<path class="st12" d="M168.5,293.8c-2-0.2-3.9-0.8-5.6-1.8c-1.4-1-3.2-0.8-4.4,0.4l2.4,2.8l0.2,1.2c0,0,3.6-0.6,5.9,1
				S168.5,293.8,168.5,293.8z"/>
			<path class="st9" d="M148.9,277.3c0,0,4.3,7.7,15.7,9.7c1.6,0.3,4.5,3.2,2.4,2.8s-6.7,8.5-7.4,11.9s-14.4-14.2-15.2-19.6
				C144.5,282.1,146.7,277.9,148.9,277.3z"/>
			<path class="st12" d="M173.3,294c-0.7-0.5-1.5-0.9-2.4-1c-1.1,0-3,0-3.8,0.7c-0.8,0.8-1.5,1.8-1.8,2.9c-0.1,0.5,3.2,3.7,4.2,4.2
				s2.1-0.3,3.1-0.2S174,295.1,173.3,294z"/>
			<path class="st9" d="M174.7,277.1c0,0,0.9,6.8-4.5,9.3c-0.6,0.3-0.9,1-0.6,1.6c0.1,0.2,0.2,0.3,0.4,0.5c1.2,1.4,3,6.7,3.5,9.1
				s7.2-9.7,6.8-17.2C180.3,280.4,176.6,277.6,174.7,277.1z"/>
			<path class="st12" d="M123.1,292.2c-7.8,4.2-12.2,9.2-17.5,16.4c-11.9,16.1-16.5,28.4-30,42.9c-5,5.3-29.5-36.7-32.3-42.2
				c-0.5-1.1-2.9-6.3-5-4.6c-1,0.8-4.3,4.1-6.4,5.2s-4.7,0.5-5.2,3.6c5.6,20.7,30.4,86.9,59.8,65.1c20.9-15.4,36.4-39.2,39.1-42.6
				c9.7-12.5,3.4-25,7.7-33.9l0,0l0.3-0.6l0.1-0.2l0.2-0.4l0,0l0.2-0.4l0.1-0.2l0.1-0.1l0,0c1.8-4.1,1.9-5.8,1.9-5.8l-4.1,4.5
				L123.1,292.2z"/>
			<path class="st14" d="M198.8,236.1c0,0.9,0.7,1.6,1.6,1.6c0.9,0,1.6-0.7,1.6-1.6c0,0,0,0,0,0v-42.6c0-6.3-2.7-12.2-7.6-16.3
				c-4.1-3.4-10.2-5.9-19.2-6.1c-10.4-0.3-21.7,0.5-30.4,4.1c-9,3.7-15.3,10.4-15.3,21.9v36.2c0,0.9,0.7,1.6,1.6,1.6
				c0.9,0,1.6-0.7,1.6-1.6c0,0,0,0,0,0v-36.2c0-9.9,5.5-15.7,13.4-19c8.2-3.4,19-4.2,29.1-3.9c8.2,0.2,13.7,2.4,17.3,5.4
				c4.1,3.4,6.4,8.5,6.4,13.9L198.8,236.1z"/>
			<path class="st16" d="M209,240.8h-1.3c-1.7,0-3.2,1.4-3.2,3.2l0,0c0,1.7,1.4,3.2,3.2,3.2h1.3c1.7,0,3.2-1.4,3.2-3.2l0,0
				C212.2,242.2,210.7,240.8,209,240.8z"/>
			<path class="st14" d="M195.8,256.5c6.9,0,12.6-5.6,12.6-12.6l0,0c0-6.9-5.6-12.6-12.6-12.6V256.5z"/>
			<path class="st8" d="M195.8,228.6L195.8,228.6c1.2,0,2.2,1,2.2,2.2V257c0,1.2-1,2.2-2.2,2.2h0c-1.2,0-2.2-1-2.2-2.2v-26.2
				C193.6,229.6,194.6,228.6,195.8,228.6z"/>
			<path class="st17" d="M168.5,188.3L168.5,188.3c-16.8-0.6-30.9,12.4-31.6,29.1l-1.1,27.6c-0.6,16.8,12.4,30.9,29.1,31.6l0,0
				c16.8,0.6,30.9-12.4,31.6-29.1l1.1-27.6C198.2,203.1,185.2,189,168.5,188.3z"/>
			<path class="st14" d="M129.5,197.2v36.1c0,0.9,0.7,1.6,1.6,1.6c0.9,0,1.6-0.7,1.6-1.6c0,0,0,0,0,0v-36.1H129.5z"/>
			<path class="st16" d="M122.7,240.8h1.3c1.7,0,3.2,1.4,3.2,3.2l0,0c0,1.7-1.4,3.2-3.2,3.2h-1.3c-1.7,0-3.2-1.4-3.2-3.2l0,0
				C119.5,242.2,120.9,240.8,122.7,240.8z"/>
			<path class="st14" d="M135.9,256.5c-6.9,0-12.6-5.6-12.6-12.6l0,0c0-6.9,5.6-12.6,12.6-12.6V256.5z"/>
			<path class="st7" d="M135.9,228.6L135.9,228.6c1.2,0,2.2,1,2.2,2.2V257c0,1.2-1,2.2-2.2,2.2l0,0c-1.2,0-2.2-1-2.2-2.2v-26.1
				C133.6,229.6,134.6,228.6,135.9,228.6z"/>
			<path class="st14" d="M181.4,391.3c-3.1-41.7-5.2-72.6-35.6-108.3c-2.5,0.5-4.9,1.3-7.2,2.2c0.8,3.8,3.4,16.5,3.6,18.8
				c0.2,0.3,0.4,0.5,0.8,0.5c0.6,0.1,8.4-1.2,8.4-1.2s-9.4,6.2-9.9,6.6s39.5,81.6,39.5,81.6L181.4,391.3z"/>
			<path class="st17" d="M43.4,302.4c0.8-4,4.6-13,5.5-14c1.2-1.3-5.2-5.1-7.5,1c0,0-3,4-4.2,3.4s-3.4-16.3-3.6-18.2
				s-2.9-2.1-3.5-1.5s0,3,0.1,6.6s0.3,5.8,0,6.2c-0.9,1-5.2-12.2-6.7-13.1c-1-0.5-4,0.8-3.9,2.6s4.9,12.6,5.1,14.2s-0.8,0.7-1.5-0.1
				s-7.1-11.6-8-12.1s-3.7,1.1-3,2.9s6.7,12.6,6.7,13.5s-0.7,0.8-2.7-0.6s-5.9-4.3-7.1-4c-0.7,0-1.7,2.2,0.1,4s6,6.5,6.5,7.2
				c2.9,4,4.3,8.5,7,11.4c1,1,2.2,1.9,3.6,2.4C35.2,317.2,41.8,310.8,43.4,302.4z"/>
			<path class="st18" d="M22.3,311c0.2,0.2,0.4,0.5,0.6,0.7c0.9,1,2,1.7,3.3,2.2l0.3,0.1c4.9,2,10.5,0.4,13.6-4
				c1.7-2.2,2.8-4.9,3.3-7.6l0.1-0.3C39.7,310.4,30.9,313.7,22.3,311z"/>
			<path class="st19" d="M285,242c2.7-1,4.7-3.2,5.4-6c1.1-4.6,10.6-2.2,10.9-0.9s1.4,3.2,1.1,5.6c-0.3,2.4,1,3.2,1,3.2
				c-6.6,4-7.5,0.1-14.8,5.8C286.3,251.5,285.5,244.9,285,242z"/>
			<path class="st14" d="M320,284.8l-4.9-7.2c0,0-30.7,10.1-46.4,4.5s20.1-30.1,22.6-32.9s-2.3-4.4-3.5-6.4s-1.6-4.8-3.1-4.4
				s-38.7,25.9-40.1,49.4s57.9,26.8,63.7,23.7S320,284.8,320,284.8z"/>
			<path class="st12" d="M320,284.8l-4.9-7.2c-5.3,1.6-10.6,3-16,4.1c-3,6.1-7.9,13.4-15.2,16.5c-13.4,5.7-34.4,2.4-39.2-10.5
				c-1.4,23.5,57.9,26.8,63.7,23.7S320,284.8,320,284.8z M264.7,277.7L264.7,277.7c-1.3-7.9,14.5-20.6,16.3-27.1
				c0.7-3,0-6.1-1.9-8.5c1.8-1.4,3.6-2.6,5.6-3.7c1.5-0.3,1.8,2.3,3.1,4.4s6.1,3.7,3.5,6.4C289.3,251.5,264.4,268.7,264.7,277.7
				L264.7,277.7z"/>
			<path class="st20" d="M284.2,237.3c-1.1,0.7-2.2,1.4-3.3,2.2c-0.7,0.7,1.1,4.6,3,8s3.9,5.1,4.5,5.2s2.2-1.3,2.2-1.3L284.2,237.3z
				"/>
			<path class="st21" d="M314.2,199.6c-1.1,0.4-31.3,26.2-33.1,27.6s-1.4,2.7,0.7,6.7s6.5,11.9,7.6,14.2c0.8,1.8,2.7,3.8,4.3,3.9
				c0.5,0,3.5,0.5,3.9,0.2c1.6-1.5,28.8-26.8,29.3-27.5s1.7-2.6-0.6-6.4c-2.2-3.6-3.1-5.9-8.7-16.2c-0.3-0.6,1.9-2,1.2-2.3
				C317.3,199.2,315.7,199.2,314.2,199.6z"/>
			<path class="st12" d="M317.7,199.8c-1.1,0.4-31.3,26.2-33.1,27.6s-1.4,2.7,0.7,6.7s6.5,11.9,7.6,14.2s3.9,4.9,5.5,3.4
				s31.5-26.1,31.9-26.8s1.7-2.6-0.6-6.4c-2.2-3.6-3.1-5.9-8.7-16.2C320.4,201,319.3,199.2,317.7,199.8z"/>
			<path class="st12" d="M298.7,251.4c3.5-3.1,31.1-25.9,31.6-26.5s1.7-2.6-0.6-6.4c-2.2-3.6-3.1-5.9-8.7-16.2
				c-0.3-0.5-0.6-1.1-1-1.5c-5.6,4.4-30.3,25.5-32,26.8c-1.8,1.4-1.4,2.7,0.7,6.7s6.5,11.9,7.6,14.2
				C296.9,249.6,297.7,250.6,298.7,251.4z"/>
			<path class="st21" d="M293.7,237.1c-0.5-0.8-1.5-1.1-2.3-0.7c-0.1,0.1-0.2,0.1-0.3,0.2c-0.9,0.7-1.3,1.9-0.8,3
				c0.5,0.8,1.5,1.1,2.3,0.7c0.1-0.1,0.2-0.1,0.3-0.2C293.9,239.4,294.2,238.2,293.7,237.1z"/>
			<path class="st21" d="M325.3,218c-0.1-0.1-2.5-4.7-2.6-4.9s0-0.3,0.2-0.4s0.7-0.5,0.8-0.7s0.4-0.2,0.5,0s2.5,4.7,2.5,4.8
				c0.1,0.2,0,0.3-0.2,0.4c-0.2,0.2-0.3,0.3-0.9,0.7C325.5,218,325.4,218.1,325.3,218z"/>
			<path class="st21" d="M322.1,211.9c-0.1-0.1-0.6-1.2-0.7-1.3s0-0.3,0.2-0.4s0.7-0.5,0.8-0.6s0.4-0.2,0.5,0s0.6,1.2,0.6,1.2
				c0.1,0.2,0,0.3-0.2,0.4c-0.2,0.1-0.3,0.3-0.9,0.8C322.3,212,322.2,212,322.1,211.9z"/>
			<path class="st22" d="M315.5,206c-0.8,0.3-22.6,18.9-24,20s-1.1,2.1,0.5,5.1s5.1,9.2,5.9,11c0.8,1.8,3,3.8,4.2,2.6
				s22.8-18.9,23.1-19.4s1.3-2-0.5-5s-2.4-4.5-6.7-12.5C317.6,206.9,316.8,205.5,315.5,206z"/>
			<path class="st9" d="M292.9,229.2C292.9,229.3,292.8,229.3,292.9,229.2c-0.1,0.1-0.1,0.1-0.1,0c0,0,0,0,0,0
				c-0.1-0.3,0-0.6,0.2-0.8c0.1-0.1,0.2-0.1,0.4-0.1c0.1,0,0.3,0.1,0.3,0.2c0.1,0.3,0.1,0.6,0,0.9c0.2-0.1,0.5-0.1,0.7,0
				c0.2,0.1,0.4,0.4,0.3,0.6c0,0,0,0.1,0,0.1c-0.1,0.2-0.3,0.4-0.5,0.5c-0.2,0.1-0.4,0.2-0.6,0.1c-0.2-0.1-0.3-0.4-0.1-0.9
				c-0.2,0.1-0.3,0.1-0.5,0.1c0,0-0.1-0.1,0-0.1c0,0,0,0,0,0c0.2,0,0.4,0,0.6-0.1v-0.1c0.2-0.4,0.2-0.7,0.1-0.9
				c0-0.1-0.1-0.1-0.2-0.1c-0.1,0-0.2,0-0.3,0.1C292.8,228.8,292.7,229,292.9,229.2L292.9,229.2z M298.5,239.5c0,0,0,0.1,0,0.1
				c0,0-0.1,0-0.1,0c0,0,0,0,0,0c-0.3-0.4-0.3-0.9,0-1.3c0.1-0.1,0.2-0.2,0.3-0.2c0.1-0.1,0.2-0.1,0.3-0.1l0,0
				c0.2,0,0.4,0.2,0.5,0.4l0.1,0.4c0.2,0.6,0.5,1.2,1,1.7c0-0.2,0-0.4,0.1-0.6l0,0c0.1-0.2,0.1-0.4,0.2-0.6l0.3-0.6l0,0
				c0,0,0.1-0.1,0.1-0.1c0.1,0,0.2,0,0.2,0c0.1,0,0.1,0.1,0.2,0.1c0.1,0.1,0.2,0.2,0.3,0.4c0.1,0.1,0.1,0.2,0.1,0.4l0,0
				c0,0.3-0.1,0.6-0.3,0.9c-0.1,0.2-0.2,0.4-0.4,0.5h-0.1l0,0c-0.2,0-0.4,0-0.6-0.1v0.5c0,0.1-0.2,0.3-0.4,0.3c-0.1,0-0.2,0-0.3,0
				c-0.1,0-0.2,0-0.3-0.1c-0.3-0.2-0.4-0.5-0.3-0.9c0-0.1,0-0.2,0-0.3s0-0.2,0-0.3c0,0,0-0.1,0-0.1s0.1,0,0.1,0c0,0,0,0,0,0.1
				c0,0.1,0,0.2,0,0.3s0,0.2,0,0.4c0,0.4,0.1,0.6,0.2,0.7c0.1,0,0.1,0.1,0.2,0.1c0.1,0,0.1,0,0.2,0c0.2,0,0.3-0.1,0.3-0.2l0-0.6
				c-0.5-0.5-0.9-1.1-1.1-1.8l-0.1-0.4c0-0.2-0.2-0.3-0.4-0.3c-0.1,0-0.2,0-0.2,0.1c-0.1,0-0.2,0.1-0.2,0.2c-0.2,0.4-0.2,0.8,0,1.2
				L298.5,239.5z M300.8,240.5c0.2,0.1,0.4,0.2,0.6,0.1l0,0c0.2-0.1,0.3-0.3,0.4-0.4c0.1-0.2,0.2-0.5,0.2-0.8l0,0
				c0-0.1,0-0.2-0.1-0.3c-0.1-0.1-0.1-0.2-0.2-0.3c0,0-0.1-0.1-0.1-0.1c0,0-0.1,0-0.1,0c0,0,0,0,0,0.1l0,0l-0.3,0.6
				c-0.1,0.2-0.2,0.4-0.2,0.6l0,0C300.9,240.1,300.8,240.3,300.8,240.5L300.8,240.5z M300.9,239.9L300.9,239.9
				C300.8,239.9,300.9,239.9,300.9,239.9C300.9,239.9,300.9,239.9,300.9,239.9z M296.7,233.5C296.7,233.5,296.8,233.5,296.7,233.5
				c0.1,0,0.1,0,0.1,0c0,0,0,0.1,0,0.1l0,0l-0.2,0.2l0.6,0.9l0.2,0.2l0.3-0.3v-0.1c0.1-0.1,0.1-0.1,0.2-0.1c0.1-0.3,0.2-0.6,0.3-0.9
				h0.1c-0.1,0.3-0.2,0.6-0.3,0.9l0,0v0.1c-0.1,0.2-0.2,0.5-0.4,0.6h-0.1l0,0l-0.1-0.1c-0.3,0.3-0.6,0.7-0.7,0.9c0,0,0,0.1-0.1,0.1
				c0,0-0.1,0-0.1-0.1c-0.1-0.4-0.4-0.8-0.6-1.2l-0.2-0.3c-0.1-0.1,0.1-0.4,0.4-0.6l0.3-0.2l-0.1-0.1c0,0,0-0.1,0.1-0.1
				c0,0,0,0,0.1,0l0.1,0.1L296.7,233.5L296.7,233.5z M296.4,233.9l-0.3,0.2c-0.2,0.2-0.4,0.4-0.4,0.4l0.2,0.3
				c0.3,0.3,0.5,0.7,0.6,1.1c0.1-0.1,0.4-0.5,0.7-0.9l-0.2-0.2C296.8,234.5,296.6,234.1,296.4,233.9L296.4,233.9z M297.8,234.6
				L297.8,234.6l-0.3,0.4l0.1,0.1C297.6,234.9,297.7,234.8,297.8,234.6L297.8,234.6z M296,233.2C296,233.2,295.9,233.2,296,233.2
				c-0.1-0.1,0-0.2,0-0.2c0,0,0,0,0,0c0.3,0,0.6,0,0.8,0c0.6,0,1.4-0.1,1.4,0.1l0,0L296,233.2L296,233.2z M296.9,233.2H296
				C296.3,233.3,296.6,233.3,296.9,233.2z M298.1,233.2c-0.4,0-0.8,0-1.3,0H298.1z M298.1,233.2L298.1,233.2z M298.1,233.6
				c0-0.1,0.1-0.3,0.1-0.4L298.1,233.6z M293.5,229.6c-0.2,0.6-0.2,0.8,0,0.9c0.2,0,0.3,0,0.4-0.1c0.2-0.1,0.3-0.2,0.4-0.4
				c0.1-0.2,0.1-0.4-0.1-0.5c0,0,0,0-0.1,0C293.9,229.4,293.7,229.4,293.5,229.6L293.5,229.6z"/>
			<path class="st14" d="M389.3,284c-16.7-12.6-32-10.7-55.6-13c-12.4,0.8-19.9,7.5-24.2,17.6v0.1v0.1l-0.1,0.2v0.1l0,0l0,0v0.1
				l-0.1,0.3v0.1v0.1l0,0v0.1v0.1l-0.1,0.2v0.1l0,0l0,0.1v0.1l-0.1,0.3v0.1l0,0v0.1l-0.2,0.5l0,0v0v0.1l-0.1,0.4v0.1
				c-0.1,0.4-0.2,0.7-0.4,1.1v0.1l0,0l-0.2,0.6l0,0c-7.6,17.8-20.4,25.1-3.7,47.8l0.1,0.1l0,0v0.5c1.6,39.1-1.2,55.7-3.2,88h83.5
				c-6.5-24.9-17-48.1-15.3-69.2C371.6,327,398,315,389.3,284z"/>
			<path class="st12" d="M347.5,272.1l-0.6,5.4c0,0,32.8-0.5,32.6,19.2s-15,29.6-25.3,39c-11.2,6.6-54.9-1.2-55.8-3.2
				c0,0.1,0,0.3,0,0.4c1.5,3,3.3,5.9,5.4,8.6l0.1,0.1l0,0v0.5c0,1.2,0.1,2.3,0.1,3.5l0,0c24.6-1.5,47.1,3.2,53.1,30.6
				c2.9,13.3-2.8,36.7-10,53.9h37c-6.5-24.9-17-48.1-15.3-69.2c2.8-34,29.1-46,20.4-77C376,274,363.7,273.1,347.5,272.1z"/>
			<path class="st14" d="M389.1,283.4c8.8,12.4,35.5,52.6,42.5,37.4c10.3-17.2,23.5-32.7,27-40.1c0.8-1.8,4.5,3.3,5.7,3.7
				c1.8,0.7,5.8,0.4,5.1,2.2c-4.6,12.4-28.2,56.3-31.3,60.1c-8.6,10.5-21.3,6.1-28.1,0.4c-9.4-7.8-21.3-17-31.5-28.6L389.1,283.4z"
				/>
			<path class="st12" d="M386.6,281.3c3.1,4.4,5.7,7.7,9.2,12.6c-3.5,6.9-2.8,32.3,5.9,41c29.3,29.4,44.8-8.6,56.8-34.9
				c4.4-9.8,0.5-12.3-1.9-15.1c0.2-0.4,2.1-4.5,2.6-4.8c3.6-1.7,13.4,4,12.1,6.2c-4.6,12.4-30.6,59.2-33.7,63
				c-4.9,5.9-12.1,8.8-21.9,2.8c-15.3-9.2-33.4-29.2-37.3-33.6L386.6,281.3z"/>
			<path class="st15" d="M355.9,240.6l-1.4,7.7l-2.4,18.3c-0.3,2.4,1.4,6.9,8.4,8.2c5.7,1-6.7,11-21,10.4
				c-12.6-1.5-18.9-7.3-17.7-10.5c1.5-0.1,8-3.2,9-4c3-2.5,2.6-21.5,0.4-25.2S355.9,240.6,355.9,240.6z"/>
			<path class="st17" d="M377,228.6l-1.5,9.5c-2.7,16.5-18.1,27.7-34.6,25.1l0,0c-16.5-2.7-27.7-18.1-25.1-34.6l3.7-23.7l0,0
				c0,0,3-16,18.1-19.7S380.2,204.1,377,228.6z"/>
			<path class="st18" d="M377,228.6l-1.5,9.5c-2.7,16.5-18.1,27.7-34.6,25.1l0,0c22.6,2.4,35.4-30.3,26.2-47.9
				c-3-5.7-25.5-24.2-25.5-24.2c-3.7,0.3-7.4,1.1-11,2.3c-5.9,2-9.7,7.6-9.7,7.6s1-6,7.1-11.3s14.5-5.3,14.5-5.3s13.4,8.9,18.6,9.1
				C371,201.9,378.8,214.9,377,228.6z"/>
			<path class="st17" d="M287.6,221.4c3.1-1.8,3.7-3.2,5.2-0.9s6.6,1.1,5.5-0.8c-1.6-2.8-1.3-2.6,0.2-2c4,1.4,7.6-0.6,5.1-3.5
				c0,0,4.4,1.2,5.3-0.7s-1.1-4-1.1-4s-0.1-1.1,0.6-1.2c1-0.1,1.6,2,3.7,0.7c1.2-0.8-0.3-4.8-2.1-5.5s-6.7-1-8.1-0.4
				s-1.8,2.9-1.8,2.9c-3.3-0.5-4.9,0.4-5.2,3.5c-0.1,1.1-2.9,0.7-3.8,2.1c-0.5,0.8,1,4.1-0.8,4S288.3,218.1,287.6,221.4z"/>
			<path class="st17" d="M455.2,273.7c-0.8-4-4.6-13-5.5-14c-1.2-1.3,5.2-5.1,7.5,1c0,0,3,4,4.2,3.4s3.4-16.3,3.6-18.2
				s2.9-2.1,3.5-1.5s0,3-0.1,6.6s-0.3,5.8,0,6.2c0.9,1,5.2-12.2,6.7-13.1c1-0.5,4,0.8,3.8,2.6s-4.9,12.6-5.1,14.2s0.8,0.7,1.5-0.1
				s7.1-11.6,8-12.1s3.7,1.1,3,2.9s-6.7,12.6-6.7,13.5s0.7,0.8,2.7-0.6s5.9-4.3,7.1-4c0.7,0,1.7,2.2,0,4s-6,6.5-6.5,7.2
				c-2.9,4-4.3,8.5-7,11.4c-1,1.1-2.3,1.9-3.6,2.3C463.4,288.5,456.8,282,455.2,273.7z"/>
			<path class="st18" d="M476.3,282.2c-0.2,0.2-0.4,0.5-0.6,0.7c-0.9,1-2,1.7-3.3,2.2l-0.3,0.1c-4.9,2-10.5,0.4-13.6-4
				c-1.7-2.2-2.8-4.9-3.3-7.6l-0.1-0.3C458.9,281.6,467.7,284.9,476.3,282.2z"/>
			<path class="st12" d="M47.7,166.4h54.7c4,0,7.2,3.2,7.2,7.2v51c0,0.4-0.4,0.8-0.8,0.8c-0.2,0-0.4-0.1-0.6-0.2L96,212.9H47.7
				c-4,0-7.2-3.2-7.2-7.2v-32C40.5,169.7,43.7,166.4,47.7,166.4z"/>
			<circle class="st23" cx="58.9" cy="189.7" r="4"/>
			<circle class="st23" cx="75.1" cy="189.7" r="4"/>
			<circle class="st23" cx="91.2" cy="189.7" r="4"/>
			<path class="st14" d="M479.4,171.7h-54.7c-4,0-7.2,3.2-7.2,7.2v51c0,0.4,0.4,0.8,0.8,0.8c0.2,0,0.4-0.1,0.6-0.2l12.3-12.3h48.3
				c4,0,7.2-3.2,7.2-7.2v-32C486.6,175,483.4,171.7,479.4,171.7z"/>
			<circle class="st23" cx="468.1" cy="194.9" r="4"/>
			<circle class="st23" cx="452" cy="194.9" r="4"/>
			<circle class="st23" cx="435.9" cy="194.9" r="4"/>
			<polygon class="st24" points="241,425.7 205.4,425.7 205.4,412.5 235,412.5 			"/>
			<polygon class="st14" points="168.8,425.7 228.9,425.7 235,412.5 174.9,412.5 			"/>
			<path class="st9" d="M178.4,417.5c-0.4,0-0.7,0.2-1,0.4c-0.3,0.3-0.6,0.7-0.8,1.1c-0.5,1-0.3,1.5,0.5,1.5c0.2,0,0.5,0,0.7-0.1
				c0.2-0.1,0.5-0.1,0.8-0.2l-0.6,1.2c-0.5,0.2-1.1,0.3-1.6,0.3c-0.8,0-1.3-0.2-1.5-0.7c-0.2-0.7-0.1-1.4,0.3-2c0.2-0.5,0.6-1,1-1.4
				c0.4-0.4,0.8-0.8,1.3-1c0.5-0.2,1-0.3,1.5-0.3c0.5,0,1,0.1,1.5,0.4l-0.9,1.1c-0.2-0.1-0.3-0.2-0.5-0.2
				C178.8,417.5,178.6,417.5,178.4,417.5L178.4,417.5z M182.8,421.7h1.6l0.7-5.3h-1.9l-4.1,5.3h1.6l0.7-1h1.7L182.8,421.7
				L182.8,421.7z M183.2,419.6h-1.1c0.6-0.8,1-1.4,1.2-1.7l0.4-0.6c0,0.1-0.1,0.4-0.1,0.7s-0.1,0.5-0.1,0.7L183.2,419.6L183.2,419.6
				z M185.5,421.7l2.4-5.3h1.4l-1.9,4.1h2l-0.5,1.1L185.5,421.7z M190.4,421.7l2.4-5.3h1.4l-1.9,4.1h2l-0.5,1.1L190.4,421.7z
				 M200.8,417.5c-0.4,0-0.7,0.2-1,0.4c-0.3,0.3-0.6,0.7-0.8,1.1c-0.5,1-0.3,1.5,0.5,1.5c0.2,0,0.5,0,0.7-0.1
				c0.2-0.1,0.5-0.1,0.8-0.2l-0.6,1.2c-0.5,0.2-1.1,0.3-1.6,0.3c-0.8,0-1.3-0.2-1.5-0.7c-0.2-0.7-0.1-1.4,0.3-2c0.2-0.5,0.6-1,1-1.4
				c0.4-0.4,0.8-0.8,1.3-1c0.5-0.2,1-0.3,1.5-0.3c0.5,0,1,0.1,1.5,0.4l-0.9,1.1c-0.2-0.1-0.3-0.2-0.5-0.2
				C201.2,417.5,201,417.5,200.8,417.5L200.8,417.5z M205.1,421.7l0.5-1.2h-1.7l0.4-1h1.6l0.5-1.1h-1.6l0.4-0.8h1.7l0.5-1.1h-3.1
				l-2.4,5.3L205.1,421.7z M211.6,421.7h-1.9l-0.2-3.7l0,0c-0.2,0.6-0.4,1-0.5,1.3l-1.1,2.4h-1.3l2.4-5.3h1.9l0.2,3.7l0,0
				c0.2-0.5,0.4-1,0.5-1.3l1.1-2.4h1.3L211.6,421.7L211.6,421.7z M215.7,421.7h-1.4l1.9-4.1h-1.3l0.5-1.2h4l-0.5,1.2h-1.3
				L215.7,421.7L215.7,421.7z M221.4,421.7l0.5-1.2h-1.7l0.4-1h1.6l0.5-1.1h-1.6l0.4-0.8h1.7l0.5-1.1h-3.1l-2.4,5.3L221.4,421.7z
				 M225.2,419.8l-0.9,1.9h-1.4l2.4-5.3h1.7c1.4,0,1.9,0.5,1.4,1.5c-0.3,0.6-0.9,1.1-1.5,1.4l0.5,2.3h-1.6l-0.2-1.9L225.2,419.8z
				 M225.7,418.7h0.3c0.4,0,0.8-0.3,1-0.7c0.2-0.4,0-0.5-0.5-0.5h-0.3L225.7,418.7z"/>
			<path class="st25" d="M619,446.6h-23.6c-3.6,0-6.6,3-6.6,6.6l0,0c0,3.6,3,6.6,6.6,6.6h9.9c2.9,0,5.2,2.3,5.2,5.2l0,0
				c0,2.9-2.3,5.2-5.2,5.2h-534c-2.9,0-5.3-2.3-5.3-5.2c0,0,0,0,0,0l0,0c0-2.9,2.3-5.2,5.2-5.2h9.4c3.6,0,6.6-3,6.6-6.6l0,0
				c0-3.6-3-6.6-6.6-6.6H59.1c-5.8,0-10.4-4.7-10.5-10.4l0,0c0-5.8,4.7-10.4,10.5-10.5H619c5.8,0,10.4,4.7,10.4,10.5l0,0
				C629.4,441.9,624.8,446.6,619,446.6z M619.4,470.2c2.9,0,5.2-2.3,5.2-5.2s-2.3-5.2-5.2-5.2c-2.9,0-5.2,2.3-5.2,5.2v0
				C614.2,467.9,616.5,470.2,619.4,470.2L619.4,470.2z"/>
			<path class="st26" d="M315.2,209c0-0.1-0.1-0.2-0.1-0.3c-0.4-1.5,1.1-3.6,2-4.6c1.3-1.5,2.9-2.6,4.8-3.2c1.6-0.6,3.4-0.9,5.1-0.9
				c0.8-0.1,1.6,0.1,2.4,0.6c1.2,0.9,1.6,2.8-0.1,3.3c-1.4,0.5-2.9,0.8-4.4,1.3c-1.7,0.6-3.4,1.4-5,2.2
				C319.1,207.8,316,210.4,315.2,209z"/>
			<path class="st26" d="M317,218.9c5.6-5.7,13.9-3.6,17.9,2.7c0.1,0.1,0.2,0.1,0.3,0.1c0.1,0,0.1-0.1,0.1-0.2
				c-1.2-7.7-16.2-11.1-18.5-2.6c0,0.1,0,0.1,0.1,0.2C316.9,218.9,317,218.9,317,218.9L317,218.9z"/>
			<path class="st27" d="M335.5,217c-0.8-3.8-5-6-8.7-5.3c-0.3,0.1-0.2,0.6,0.1,0.6c3.9,0,6.3,1.7,8.5,4.8
				C335.4,217.1,335.4,217.1,335.5,217C335.5,217,335.5,217,335.5,217L335.5,217z"/>
			<path class="st28" d="M341.7,228.6c0,0,2-2.6,3.6-0.8S345.7,227.6,341.7,228.6z"/>
			<path class="st27" d="M339.9,230.1c-1.7,1.6-0.1,5.4,2.3,4.6c0.1,0,0.1-0.2,0.1-0.3c0,0-0.1-0.1-0.1-0.1c-0.8-0.3-1.5-0.7-2-1.4
				c-0.5-0.9-0.5-1.9-0.1-2.8C340.1,230.1,340,230,339.9,230.1C339.9,230,339.9,230,339.9,230.1L339.9,230.1z"/>
			<path class="st27" d="M345.4,234.7c0.9,0,1.8-0.4,2.4-1c0.4-0.3-0.1-1-0.5-0.7c-0.3,0.2-0.7,0.4-1,0.6c-0.4,0.1-0.7,0.3-1.1,0.5
				c-0.1,0.1-0.2,0.3-0.1,0.5C345.2,234.6,345.3,234.6,345.4,234.7L345.4,234.7z"/>
			<path class="st26" d="M372.2,209c0-0.1,0.1-0.2,0.1-0.3c0.4-1.5-1.1-3.6-2-4.6c-1.3-1.5-2.9-2.6-4.8-3.2
				c-1.6-0.6-3.4-0.9-5.1-0.9c-0.8-0.1-1.6,0.1-2.4,0.6c-1.2,0.9-1.6,2.8,0.1,3.3c1.4,0.5,2.9,0.8,4.4,1.3c1.7,0.6,3.4,1.4,5,2.2
				C368.4,207.8,371.5,210.4,372.2,209z"/>
			<path class="st26" d="M370.7,218.8c-2.4-8.5-17.3-5.1-18.5,2.6c0,0.1,0,0.2,0.2,0.2c0.1,0,0.2,0,0.2-0.1c4-6.2,12.4-8.4,17.9-2.7
				c0.1,0.1,0.1,0,0.2,0C370.7,218.9,370.7,218.8,370.7,218.8L370.7,218.8z"/>
			<path class="st27" d="M352.1,217c2.2-3.1,4.6-4.8,8.5-4.8c0.3,0,0.4-0.5,0.1-0.6c-3.6-0.7-8,1.5-8.7,5.3
				C352,217,352.1,217,352.1,217C352.1,217,352.1,217,352.1,217L352.1,217z"/>
			
				<ellipse transform="matrix(0.9998 -1.867394e-02 1.867394e-02 0.9998 -4.7309 6.5043)" class="st29" cx="345.9" cy="256.6" rx="1.3" ry="0.8"/>
			<path class="st30" d="M331,238.8c0,0,4.7,4.9,13.6,4.7s13.2-4.9,13.2-4.9s-2.4,14.2-12.9,14.3C333.1,253.2,331,238.8,331,238.8z"
				/>
			<path class="st31" d="M336.1,249.5c2.3,2.4,5.5,3.6,8.8,3.5c3-0.1,5.8-1.4,7.8-3.6C347.5,246.5,341.3,246.5,336.1,249.5z"/>
			<path class="st23" d="M355.8,240.3c-3.3,2.1-7.2,3.3-11.2,3.3c-4.3,0.2-8.5-1-12-3.4c-0.1,0.6,1.3,7.3,11.4,7.3
				C352.1,247.5,354.9,242.4,355.8,240.3z"/>
			<g>
				<path class="st32" d="M331.9,237.3c0.2,0.1,0.1,0.7-0.2,1.2c-0.4,0.8-1.2,1.3-2.1,1.2c-0.6,0-1.2-0.3-1.2-0.5s0.5-0.3,1-0.6
					c0.5-0.4,1-0.7,1.6-0.9C331.3,237.6,331.7,237.2,331.9,237.3z"/>
				<path class="st32" d="M360.1,238.8c0.1,0.2-0.5,0.6-1.1,0.6c-0.9,0.1-1.8-0.4-2-1.3c-0.3-0.6-0.1-1.2,0-1.2s0.5,0.4,0.8,0.6
					c0.5,0.2,0.9,0.5,1.4,0.9C359.5,238.6,360,238.6,360.1,238.8z"/>
			</g>
			<path class="st32" d="M357.9,238.6c-0.6,0.5-1.2,1-1.9,1.4c-1.4,0.9-2.9,1.7-4.5,2.3c-1.6,0.6-3.2,1-4.9,1.3
				c-0.8,0.1-1.5,0.2-2.3,0.2c-0.8,0-1.6,0-2.3-0.1c-1.7-0.2-3.3-0.6-4.9-1.2c-1.6-0.5-3.1-1.3-4.5-2.3c-0.6-0.4-1.2-1-1.6-1.6
				c0.1-0.1,0.7,0.6,1.8,1.3c1.4,0.9,2.9,1.5,4.5,1.9c1.6,0.5,3.2,0.8,4.8,1c0.7,0.1,1.5,0.1,2.2,0.1c0.7,0,1.5,0,2.2-0.1
				c1.6-0.2,3.2-0.5,4.8-1c1.6-0.5,3.1-1.2,4.5-1.9C356.5,239.3,357.2,238.9,357.9,238.6z"/>
			<path class="st23" d="M344.9,253c3.4-0.1,6.6-1.8,8.6-4.5c-0.4,0-0.8,0.1-1.1,0.3c-5.4,2.4-8.9,2.6-12.8,1
				c-1.3-0.6-2.7-0.9-4.1-0.9C337.8,251.6,341.3,253.1,344.9,253z"/>
			<path class="st33" d="M355.8,240.3c-3.3,2.1-7.2,3.3-11.2,3.3c-4.3,0.2-8.5-1-12-3.4c0.2,1.4,0.8,2.7,1.7,3.7
				c-0.3-0.8-0.4-1.7,0.4-1.5c1.4,0.3,4.6,2.4,9.9,2.3s7.6-2.8,8.4-1.8c0.3,0.4,0.1,1.1-0.2,1.7
				C354.1,243.4,355.1,241.9,355.8,240.3z"/>
			<path class="st33" d="M351.4,249.1c0.1,0.3,0,0.7-0.2,1c-0.9,1.8-6.4,3.1-10.1,1.8c-2.5-0.9-3-2-3-2.8c-0.8-0.3-1.7-0.4-2.6-0.4
				c2.3,2.8,5.8,4.3,9.4,4.2c3.4-0.1,6.6-1.8,8.6-4.5c-0.4,0-0.8,0.1-1.1,0.3L351.4,249.1z"/>
			<path class="st32" d="M347.5,254c0,0-0.4,0.5-0.9,0.7c-0.7,0.4-1.6,0.5-2.3,0.2c-0.4-0.1-0.7-0.3-1-0.6c0-0.1,0.5,0.2,1.1,0.2
				c0.7,0,1.4,0,2.1-0.2C347,254.3,347.5,254,347.5,254z"/>
			<path class="st34" d="M182.4,257.1c-0.8-3-4.5-2-6.8-1.9s-4.5,0.2-6.8,0.1s-4.2-0.3-6.4-0.3c-1.4,0-3.1-0.5-4.1,0.7
				c-2.3,2.4,0.8,6.5,2.8,8c2.6,1.8,5.7,2.8,8.9,2.9c2.9,0.1,5.7-0.7,8.1-2.2c2.2-1.4,4.9-4.2,4.3-7L182.4,257.1z"/>
			<g>
				<defs>
					<path id="SVGID_1_" d="M182.4,257.1c-0.8-3-4.5-2-6.8-1.9s-4.5,0.2-6.8,0.1s-4.2-0.3-6.4-0.3c-1.4,0-3.1-0.5-4.1,0.7
						c-2.3,2.4,0.8,6.5,2.8,8c2.6,1.8,5.7,2.8,8.9,2.9c2.9,0.1,5.7-0.7,8.1-2.2c2.2-1.4,4.9-4.2,4.3-7L182.4,257.1z"/>
				</defs>
				<clipPath id="SVGID_00000124863082122395018600000017722469043537098929_">
					<use xlink:href="#SVGID_1_"  style="overflow:visible;"/>
				</clipPath>
				<g style="clip-path:url(#SVGID_00000124863082122395018600000017722469043537098929_);">
					<path class="st36" d="M178.9,265.2c0,0-9.2-5.9-16.6-0.3c-5.1,4.6,12.8,4.4,12.8,4.4L178.9,265.2z"/>
				</g>
			</g>
			<path class="st23" d="M175.6,255.2c-2.2,0.1-4.5,0.2-6.8,0.1c-2.1,0-4.2-0.3-6.4-0.3c-1.4,0-3.1-0.5-4.1,0.7c0,0,7.7,4,23.4,0.1
				C180.4,254.4,177.5,255.1,175.6,255.2z"/>
			
				<radialGradient id="SVGID_00000052807066628070060110000006693145364647337910_" cx="212.4857" cy="213.98" r="7.14" gradientTransform="matrix(0.97 0 0 -1 -57.04 461.01)" gradientUnits="userSpaceOnUse">
				<stop  offset="0" style="stop-color:#E98C4D"/>
				<stop  offset="0.84" style="stop-color:#E98C4D;stop-opacity:0"/>
			</radialGradient>
			<path style="opacity:0.4;fill:url(#SVGID_00000052807066628070060110000006693145364647337910_);enable-background:new    ;" d="
				M143.6,241.5c0,0-5,1.3-1,7.4c3.2,4.9,5.3,4.2,7,4.1c3-0.2,7.6-2.5,7.6-6.5S149.8,241.5,143.6,241.5z"/>
			
				<radialGradient id="SVGID_00000165923772158023845250000014655553812391031438_" cx="-252.7781" cy="-733.9333" r="7.14" gradientTransform="matrix(0.9 -0.39 -0.38 -0.92 144.21 -529.16)" gradientUnits="userSpaceOnUse">
				<stop  offset="0" style="stop-color:#E98C4D"/>
				<stop  offset="0.84" style="stop-color:#E98C4D;stop-opacity:0"/>
			</radialGradient>
			<path style="opacity:0.4;fill:url(#SVGID_00000165923772158023845250000014655553812391031438_);enable-background:new    ;" d="
				M185.2,243.3c0,0-4.1,3.1,1.9,7.2c4.8,3.3,6.5,1.8,8,1c2.7-1.4,6.1-5.3,4.5-9.1S190.9,240.8,185.2,243.3z"/>
			
				<radialGradient id="SVGID_00000073703947895738588430000011124562258267405247_" cx="173.5618" cy="35.7379" r="9.52" gradientTransform="matrix(0.97 -8.000000e-02 -8.000000e-02 -1 5.74 272.16)" gradientUnits="userSpaceOnUse">
				<stop  offset="0" style="stop-color:#E98C4D"/>
				<stop  offset="0.84" style="stop-color:#E98C4D;stop-opacity:0"/>
			</radialGradient>
			<path style="opacity:0.4;fill:url(#SVGID_00000073703947895738588430000011124562258267405247_);enable-background:new    ;" d="
				M162.8,213.7c0,0-6.4,2.2-0.5,9.9c4.8,6.2,7.5,5,9.7,4.7c4-0.6,9.8-4.1,9.4-9.6S171,213,162.8,213.7z"/>
			<path class="st40" d="M164.9,244.1c1.6,1.2,3.5,1.9,5.4,2c2,0.3,4-0.5,5.2-2c0,0,1.3,1.4,0.5,2.6c-1.4,1.6-3.2,2.8-5.1,3.5
				C170.1,250.4,162.8,247.4,164.9,244.1z"/>
			
				<ellipse transform="matrix(1.396295e-03 -1 1 1.396295e-03 -73.9229 415.4996)" class="st29" cx="171.1" cy="244.8" rx="0.8" ry="1.8"/>
			<path class="st32" d="M168.2,246.2c-0.3-0.1-0.6-0.2-0.9-0.2c-0.5,0-0.9,0.2-0.9,0.4s0.4,0.2,0.7,0.4c0.2,0.1,0.4,0.3,0.6,0.4
				c0.2,0.1,0.4,0.2,0.6,0.3c0.3,0.2,0.6,0.5,0.7,0.5s0.1-0.6-0.1-1C168.6,246.7,168.4,246.4,168.2,246.2z"/>
			<path class="st32" d="M175.2,246c0-0.2-0.4-0.2-0.8-0.2c-0.3,0-0.5,0.1-0.8,0.3c-0.2,0.2-0.4,0.4-0.5,0.7
				c-0.2,0.4-0.3,0.8-0.2,0.9s0.4-0.1,0.7-0.3c0.2-0.1,0.4-0.2,0.6-0.3c0.1-0.2,0.3-0.3,0.5-0.5C174.9,246.3,175.2,246.1,175.2,246z
				"/>
			<path class="st32" d="M166.6,246.8l-0.8-0.8c-0.1-0.1-0.2-0.2-0.2-0.3c-0.1-0.1-0.1-0.1-0.1-0.2c-0.1-0.3,0-0.6,0.1-0.8
				c0.3-0.6,1-1.2,0.9-1.3s-0.2,0-0.5,0.1c-0.4,0.2-0.7,0.4-1,0.8c-0.3,0.4-0.5,1-0.4,1.5c0,0.3,0.1,0.5,0.3,0.8
				c0.1,0.2,0.3,0.3,0.5,0.4l0.9,0.6c0.7,0.4,1.4,0.8,1.5,0.7S167.1,247.4,166.6,246.8z"/>
			<path class="st32" d="M176.7,245.6c0,0,0-0.1-0.1-0.5c-0.1-0.2-0.1-0.3-0.2-0.5c-0.1-0.1-0.2-0.3-0.3-0.5c-0.4-0.6-1-1.1-1.1-1
				s0.2,0.8,0.4,1.4l0.2,0.5c0,0.1,0.1,0.2,0.1,0.4v0.4c0,0.1,0,0.1,0,0.2c0,0.2-0.2,0.4-0.3,0.6c-0.5,0.4-1,0.9-0.9,1.1
				s0.6-0.1,1.3-0.4c0.4-0.2,0.7-0.5,0.8-0.9C176.7,246.1,176.7,245.9,176.7,245.6z"/>
			<path class="st32" d="M174,243.6c0-0.1-0.7-0.6-1.5-0.8c-1.1-0.4-2.2-0.4-3.3,0c-0.8,0.3-1.5,0.7-1.5,0.9s0.8,0,1.6,0
				c0.5,0,1,0,1.5,0c0.5,0,1-0.1,1.5,0C173.1,243.7,173.9,243.8,174,243.6z"/>
			<path class="st32" d="M186.1,229.5c0,0.1-0.8,0.4-1.4,0.9c-0.9,0.7-1.7,1.5-2.4,2.4c-0.5,0.7-0.9,1.5-0.9,1.4
				c0.1-0.6,0.3-1.1,0.6-1.6c0.6-1,1.4-1.9,2.5-2.5C185,229.8,185.5,229.6,186.1,229.5z"/>
			<path class="st32" d="M184.8,228.7c0,0.1-0.6,0.4-1.2,1c-0.7,0.7-1.4,1.5-1.9,2.4c-0.4,0.7-0.6,1.4-0.7,1.4
				c0-0.5,0.1-1.1,0.4-1.6c0.4-1,1.1-1.9,2-2.5C183.8,229.1,184.3,228.9,184.8,228.7z"/>
			<path class="st32" d="M161.9,235.4c-0.1,0-0.3-0.9-0.8-1.7c-0.6-1.1-1.2-2.2-2-3.2c-0.6-0.7-1.3-1.4-1.2-1.4
				c0.6,0.3,1.1,0.7,1.5,1.2c0.9,0.9,1.6,2,2,3.3C161.7,234.1,161.8,234.8,161.9,235.4z"/>
			<path class="st32" d="M161.5,232.2c-0.1,0-0.3-0.4-0.5-0.8s-0.5-0.7-0.5-0.7s-0.2-0.4-0.5-0.8s-0.5-0.7-0.5-0.8s0.4,0.2,0.8,0.6
				c0.5,0.4,0.8,1,1,1.6C161.4,231.5,161.5,231.8,161.5,232.2z"/>
			<path class="st26" d="M146.6,223.6c0.2-0.1,0.4-0.1,0.5-0.2c1.2-0.6,2.2-1.5,3.4-2.1c1.5-0.6,3.1-1,4.7-1.2
				c1.5-0.2,3.8,0.3,4.9-0.7c1.4-1.2,1.1-4-1-4.2c-0.2,0.6-0.4,1.3-0.5,1.9c-0.1-0.5-0.3-1.8-0.7-2.1s-1.6,0-2,0
				c-1.4,0.2-2.8,0.6-4.1,1.2c-3,1.1-5.5,3.3-6.9,6.2C144.4,224,145.7,223.9,146.6,223.6z"/>
			<path class="st41" d="M154.6,215.4v0.1c-0.1,0.8-0.1,1.6-0.1,1.6s-0.1,0.8-0.1,1.6c0,0.6,0,1.2,0,1.5h-0.1
				c-0.1-0.5-0.2-1-0.2-1.5c-0.1-0.8,0-1.7,0-1.7s0.1-0.8,0.2-1.6l0,0L154.6,215.4z M152.7,219.4c-0.1-0.6-0.1-1.2-0.1-1.8
				c0-0.6,0.1-1.1,0.1-1.7l-0.4,0.1c-0.1,0.5-0.2,1-0.2,1.5c0,0.6,0.1,1.2,0.2,1.9c0.1,0.4,0.2,0.8,0.4,1.1l0.2-0.1
				C152.8,220.1,152.8,219.8,152.7,219.4L152.7,219.4z M159.1,215.8c0.1,0.6,0.1,1.3,0,1.9c0,0.8-0.2,1.5-0.5,2.2l0,0l0.4-0.1
				c0.3-0.7,0.5-1.4,0.6-2.2c0,0,0-0.3,0-0.8c0-0.5-0.1-1.1-0.2-1.6v-0.2h-0.1C159.3,215.3,159.2,215.6,159.1,215.8L159.1,215.8z
				 M147.5,222.1c-0.1-0.4-0.2-0.8-0.3-1.3c-0.1-0.4-0.2-0.8-0.2-1.3l0,0c-0.1,0.1-0.2,0.3-0.4,0.4c0,0.3,0,0.7,0.1,1
				c0.1,0.4,0.2,0.9,0.4,1.3c0.1,0.3,0.3,0.6,0.5,0.9l0.1-0.1C147.7,222.8,147.6,222.5,147.5,222.1L147.5,222.1z M155.7,216.8
				c0,0,0-0.9,0-1.7l-0.3,0.1c-0.1,0.8-0.1,1.6-0.1,1.6c0,1,0,2,0.1,2.9C155.5,218.8,155.6,217.8,155.7,216.8L155.7,216.8z
				 M148.8,218.3c0-0.1,0-0.2,0-0.4l-0.4,0.3l0,0c-0.2,1-0.1,2.1,0.3,3c0.1,0.3,0.3,0.6,0.4,0.8l0.2-0.1c-0.1-0.3-0.2-0.5-0.3-0.8
				C148.8,220.2,148.7,219.2,148.8,218.3L148.8,218.3z"/>
			<path class="st41" d="M150.6,221.3c1.5-0.6,3.1-1,4.7-1.2c1.5-0.2,3.8,0.3,4.9-0.7c0.9-0.8,1.1-2.1,0.6-3.2
				c-0.3,1.4-2,2.3-4.2,2.1c-2.7-0.2-5.9,2-8.7,2.8c-1.2,0.3-1.5-0.2-1.4-1c-0.6,0.7-1,1.5-1.4,2.3c-0.7,1.5,0.6,1.5,1.6,1.2
				c0.2-0.1,0.4-0.1,0.5-0.2C148.3,222.7,149.4,221.9,150.6,221.3z"/>
			<path class="st30" d="M194.6,222.7c-0.2-0.1-0.4-0.1-0.5-0.2c-1.2-0.6-2.2-1.4-3.5-1.9c-1.5-0.6-3.1-0.9-4.8-1
				c-1.5-0.1-3.7,0.5-5-0.5c-1.4-1.1-1.3-4,0.8-4.3c0.3,0.6,0.4,1.3,0.6,1.9c0.1-0.5,0.2-1.8,0.6-2.1s1.6-0.1,2-0.1
				c1.4,0.2,2.8,0.5,4.2,1c3.1,1,5.6,3.1,7.1,5.9C197,223,195.6,223,194.6,222.7z"/>
			<path class="st30" d="M186.2,218.6c-0.1,0.3-0.2,0.6-0.3,0.9h-0.2c0-0.3,0.1-0.6,0.1-1l0.2-1.5l0.3-1.5l0.1-0.8h0.2
				c0,0.2,0,0.5,0,0.8c0,0.8-0.1,1.5-0.1,1.5S186.4,217.9,186.2,218.6z M190.9,220.6c0.1-0.3,0.3-0.9,0.6-1.4
				c0.4-0.8,0.8-1.6,0.8-1.6l0.2-0.4l-0.4-0.2l-0.2,0.4c-0.3,0.5-0.5,1.1-0.7,1.7c-0.2,0.5-0.3,1-0.4,1.5L190.9,220.6z M193.1,217.7
				c-0.4,0.7-0.7,1.3-0.7,1.3s-0.3,0.8-0.5,1.6c0,0.2-0.1,0.3-0.1,0.5l0.2,0.1l0.2-0.5c0.3-0.8,0.7-1.5,0.7-1.5s0.2-0.6,0.5-1.2
				L193.1,217.7z M182.3,219c-0.2-0.6-0.3-1.1-0.4-1.7c-0.1-0.6-0.2-1.2-0.2-1.8c0-0.2,0-0.5,0.1-0.7l-0.3,0.1
				c-0.1,0.2-0.1,0.4-0.1,0.6c-0.1,0.6,0,1.3,0.1,1.9c0.1,0.6,0.3,1.2,0.6,1.8l0.2,0.4h0.3C182.4,219.4,182.3,219.2,182.3,219z
				 M184.2,218.3l-0.1-1.7l-0.2-1.7c0-0.1,0-0.3,0-0.4h-0.3c0,0.1,0,0.3,0,0.5c0,0.9,0,1.7,0,1.7s0.1,0.9,0.2,1.7
				c0.1,0.5,0.2,0.9,0.3,1.3h0.2C184.2,219.2,184.2,218.8,184.2,218.3L184.2,218.3z M187.8,218.1c0,0,0.2-0.9,0.4-1.9
				c0.1-0.3,0.1-0.6,0.1-0.9l-0.2-0.1c-0.1,0.3-0.1,0.6-0.2,0.9c-0.2,0.9-0.5,1.8-0.5,1.8s-0.2,0.8-0.5,1.7l0.4,0.1
				C187.6,218.9,187.8,218.1,187.8,218.1L187.8,218.1z"/>
			<path class="st41" d="M194.6,222.7c1,0.3,2.3,0.3,1.5-1.2c-0.5-1.1-1.3-2-2.1-2.9c0.3,0.9,0.8,2.7-0.1,2.5
				c-1.3-0.3-3.8-3-8.6-2.9c-3.9,0.1-5-1.4-5.3-2c-0.3,1,0,2.2,0.8,2.9c1.2,1,3.5,0.4,5,0.5c1.6,0.1,3.2,0.4,4.8,1
				c1.2,0.5,2.3,1.3,3.5,1.9C194.3,222.6,194.5,222.6,194.6,222.7z"/>
			<path class="st26" d="M196.4,235.5c-0.9-0.7-2-1.2-3.1-1.6c-0.7-0.2-1.5-0.4-2.2-0.5c1.7-0.5,3.2-0.7,3.2-0.9s-2.3-0.5-4.5-0.1
				c-1,0.2-2,0.5-3,0.8c-0.8,0.3-1.3,0.5-1.3,0.5c-1.4,0.8-2.6,1.7-3.7,2.8c-0.8,0.8-1.5,1.7-1.9,2.7c-0.3,0.9-0.3,1.5-0.2,1.5
				s0.3-0.5,0.8-1.2c0.1-0.1,0.2-0.3,0.3-0.4c0,0.1,0,0.1,0,0.1s0.4-0.5,1-1.1c0.8-0.7,1.6-1.3,2.6-1.8c0.9-0.5,1.9-0.8,2.9-1
				c0.4-0.1,0.8-0.1,1-0.2h0.4c0.5-0.1,0.9-0.2,1.4-0.2c2.1-0.2,4.2,0.2,6.1,1c0.8,0.4,1.3,0.7,1.4,0.6S197.2,236.1,196.4,235.5z"/>
			<path class="st26" d="M144.9,235.5c0.9-0.7,2-1.2,3.1-1.5c0.7-0.2,1.5-0.4,2.2-0.5c-1.7-0.5-3.2-0.7-3.2-0.9s2.3-0.5,4.5-0.1
				c1,0.2,2,0.5,3,0.8c0.8,0.3,1.3,0.5,1.3,0.5c1.4,0.8,2.6,1.7,3.7,2.8c0.8,0.8,1.5,1.7,1.9,2.7c0.3,0.9,0.3,1.5,0.2,1.5
				s-0.3-0.5-0.8-1.2c-0.1-0.1-0.2-0.3-0.3-0.4c0,0.1,0,0.1,0,0.1s-0.4-0.5-1-1.1c-0.8-0.7-1.6-1.3-2.6-1.8c-0.9-0.5-1.9-0.8-2.9-1
				c-0.4-0.1-0.8-0.1-1-0.2h-0.4c-0.5-0.1-0.9-0.2-1.4-0.2c-2.1-0.2-4.2,0.2-6.1,1c-0.8,0.4-1.3,0.7-1.4,0.6
				S144.1,236.1,144.9,235.5z"/>
			<g>
				<path class="st32" d="M186.4,238.8c0,0.1-0.8,0.3-1.5,0.6c-0.9,0.4-1.9,0.9-2.8,1.5c-0.6,0.4-1.2,1-1.3,0.9
					c0.3-0.5,0.6-0.9,1.1-1.2c0.8-0.7,1.8-1.3,2.8-1.6C185.3,238.8,185.8,238.7,186.4,238.8z"/>
			</g>
			<g>
				<path class="st32" d="M184.7,241.3c0,0.1-0.3,0.1-0.5,0.2c-0.3,0.1-0.7,0.2-1,0.3c-0.3,0.1-0.5,0.2-0.6,0.1s0.2-0.3,0.4-0.4
					c0.3-0.3,0.7-0.4,1.1-0.3C184.4,241.2,184.7,241.3,184.7,241.3z"/>
			</g>
			<g>
				<path class="st32" d="M161.8,242.3c-0.4-0.3-0.7-0.6-1.1-0.9c-0.5-0.5-1.1-0.9-1.1-0.9s-0.5-0.5-1.1-0.9
					c-0.4-0.3-0.8-0.5-1.1-0.9c0.5,0.1,0.9,0.3,1.3,0.6c0.9,0.4,1.6,1.1,2.2,1.8C161.3,241.4,161.6,241.8,161.8,242.3z"/>
			</g>
			<g>
				<path class="st32" d="M161.1,243.2c-0.1,0-0.3-0.3-0.6-0.5c-0.4-0.3-0.9-0.6-1.4-0.8c-0.4-0.1-0.8-0.2-0.8-0.3s0.4-0.1,0.9-0.1
					c0.6,0.1,1.2,0.4,1.5,0.9C161,242.8,161.1,243.2,161.1,243.2z"/>
			</g>
			<path class="st42" d="M206.8,198.2c0.3-19.8-26.3-23.8-26.3-23.8c-21.6-2.6-32.4,1.6-36.2,9.2c-5.5-1.5-13.6-1.8-19.3,7.5
				c-9.2,14.8,5.3,26.9-6.4,38.3c0,0,9.8,10.9,20.5,2.9c6-4.5,6.4-14.4,6.9-23.7c2.3,8,8,18,25.2,18.2c26.3,0.3,26.7,11.7,26.7,11.7
				c4.2-1.8,8.2-4.2,11.7-7.1C226.4,217.8,206.8,198.2,206.8,198.2z"/>
			<path class="st11" d="M206.8,198.2c0.3-19.8-26.3-23.8-26.3-23.8c-21.6-2.6-32.4,1.6-36.2,9.2c-5.5-1.5-13.6-1.8-19.3,7.5
				c-9.2,14.8,5.3,26.9-6.4,38.3c0,0,9.8,10.9,20.5,2.9c6-4.5,6.4-14.4,6.9-23.7c2.3,8,8,18,25.2,18.2c26.3,0.3,26.7,11.7,26.7,11.7
				c4.2-1.8,8.2-4.2,11.7-7.1C226.4,217.8,206.8,198.2,206.8,198.2z"/>
			<path class="st43" d="M144.3,183.5c3.7-7.6,14.6-11.8,36.2-9.2c0,0,26.6,4,26.3,23.8c0,0-5.4-14.6-21.1-18.5
				S158,175.5,144.3,183.5z"/>
			<path class="st43" d="M121.9,206c-0.5-4.7-0.2-9.6,3-15c5.7-9.2,13.8-9,19.3-7.5C144.3,183.5,126.7,184,121.9,206z"/>
			<path class="st43" d="M342.2,184.8c14.9,13.6,26,21.1,30,37.9c2,8.3,3.4,16.8,5,25.2c2,10.6,4,21.3,5.8,32
				c7.1,4.3,8.6,7.2,8.6,7.2c-2.6-14.3-5.4-28.6-8.2-42.9c-2-9.8-3-20.2-7.1-29.3c-9-19.9-16.6-25-33.6-30.8c-0.2,0-0.5,0.1-0.5,0.3
				C342.1,184.5,342.1,184.7,342.2,184.8L342.2,184.8z"/>
			<path class="st2" d="M653.9,436.1c-0.1-0.6-0.6-1.1-1.3-1c-0.6,0.1-1,0.5-1,1v2.7h-2.7c-0.6-0.1-1.2,0.4-1.3,1
				c-0.1,0.6,0.4,1.2,1,1.3c0.1,0,0.1,0,0.2,0h2.7v2.7c0.1,0.6,0.6,1.1,1.3,1c0.6-0.1,1-0.5,1-1v-2.7h2.7c0.6,0.1,1.2-0.4,1.3-1
				c0.1-0.6-0.4-1.2-1-1.3c-0.1,0-0.1,0-0.2,0h-2.7V436.1z"/>
			<path class="st12" d="M653.6,255.2c-4.7-17.8-21.3-8-28.3,7.2s-23.3,74.5-37.3,89.8c-5.4,6-3.8,6.5,1.2,3.5
				C614,341.3,660.1,279.6,653.6,255.2z"/>
			<path class="st14" d="M584.6,356.8c-0.2,0.8,0.6,0.8,2,0.2c37.8-32,57.8-103.4,57.9-103.6c0.1-0.4-0.2-0.8-0.6-0.9
				c-0.4-0.1-0.7,0.1-0.9,0.5C643,253.3,622.6,325.7,584.6,356.8z"/>
			<path class="st14" d="M611.7,264.7c-8.2-12.9-19-1-20.8,12.9s0.3,65.2-7,81c-2.8,6.1-1.4,6.1,1.9,2.5
				C602,343.2,623.1,282.5,611.7,264.7z"/>
			<path class="st12" d="M582.4,363c0.1,0.7,0.7,0.5,1.7-0.3c22-35,20-97,19.9-97.2c0-0.3-0.3-0.6-0.6-0.6c-0.3,0-0.6,0.3-0.6,0.6
				c0,0,0,0,0,0C602.8,265.8,604.9,328.6,582.4,363z"/>
			<path class="st14" d="M652.6,308.7c14.3,1.5,8.8,15.4-2.1,22.8s-54.6,27-64.7,39.7c-3.9,4.9-4.5,3.7-2.9-0.5
				C591,349.7,633,306.6,652.6,308.7z"/>
			<path class="st12" d="M582.7,374.3c-0.6,0.2-0.7-0.4-0.4-1.5c20-33,72.7-57.2,72.9-57.3c0.3-0.1,0.6,0.2,0.7,0.5
				c0,0.2,0,0.4-0.2,0.5C655.4,316.6,602,341.1,582.7,374.3z"/>
			<path class="st44" d="M499.5,316.9h52.3c2.5,0,4.6,2.1,4.6,4.6c0,0,0,0,0,0v89.9c0,2.5-2.1,4.6-4.6,4.6h-52.3
				c-2.5,0-4.6-2.1-4.6-4.6v-89.9C494.9,319,496.9,316.9,499.5,316.9C499.5,316.9,499.5,316.9,499.5,316.9z"/>
			<path class="st23" d="M552.9,316.9h42.3c2.1,0,3.9,1.7,3.9,3.9v91.3c0,2.1-1.7,3.9-3.9,3.9h-42.3c-2.1,0-3.9-1.7-3.9-3.9v-91.3
				C549,318.7,550.8,316.9,552.9,316.9z"/>
			<path class="st9" d="M484.4,354.5h54.2c0-9.7,10.5-10.8,10.5-10.8h-54.2C494.9,343.8,484.4,344.9,484.4,354.5z"/>
			<path class="st45" d="M494.9,400h56.1c1.7,0,3,1.4,3,3v19.7c0,1.7-1.4,3-3,3h-56.1c-1.7,0-3-1.4-3-3v-19.7
				C491.9,401.4,493.2,400,494.9,400z"/>
			<path class="st14" d="M549.2,400h12.3c0.3,0,3.3,0.1,5,3.8c1.8,3.8,1.6,7.7,6.8,7.7h2.2c5.2,0,5.1-3.9,6.8-7.7s4.7-3.8,5-3.8H599
				c1.7,0,3,1.3,3,3v19.7c0,1.7-1.3,3-3,3l0,0h-49.9c-1.7,0-3-1.3-3-3l0,0v-19.6C546.1,401.4,547.4,400,549.2,400
				C549.1,400,549.1,400,549.2,400z"/>
			<path class="st9" d="M484.4,388.5h54.2c0-9.7,10.5-10.8,10.5-10.8h-54.2C494.9,377.7,484.4,378.8,484.4,388.5z"/>
			<path class="st2" d="M607.8,372.3h-49.2c0-9.7-9.6-10.8-9.6-10.8h49.2C598.3,361.5,607.8,362.6,607.8,372.3z"/>
			<path class="st46" d="M556.9,327.7h37.7c0.9,0,1.7,0.7,1.7,1.7l0,0c0,0.9-0.7,1.7-1.7,1.7h-37.7c-0.9,0-1.7-0.7-1.7-1.7l0,0
				C555.2,328.4,556,327.7,556.9,327.7z"/>
			<path class="st46" d="M556.9,346h37.7c0.9,0,1.7,0.7,1.7,1.7l0,0c0,0.9-0.7,1.7-1.7,1.7h-37.7c-0.9,0-1.7-0.7-1.7-1.7l0,0
				C555.2,346.7,556,346,556.9,346z"/>
			<path class="st46" d="M556.9,384.3h37.7c0.9,0,1.7,0.7,1.7,1.7l0,0c0,0.9-0.7,1.7-1.7,1.7h-37.7c-0.9,0-1.7-0.7-1.7-1.7l0,0
				C555.2,385.1,556,384.3,556.9,384.3z"/>
			<path class="st2" d="M502.9,326.3h36.5c0.9,0,1.6,0.7,1.6,1.7l0,0c0,0.9-0.7,1.7-1.7,1.7h-36.5c-0.9,0-1.7-0.7-1.7-1.7l0,0
				C501.2,327.1,502,326.3,502.9,326.3z"/>
			<path class="st47" d="M502.9,367.6h36.5c0.9,0,1.7,0.7,1.7,1.7v0c0,0.9-0.7,1.7-1.7,1.7h-36.5c-0.9,0-1.7-0.7-1.7-1.7v0
				C501.2,368.4,502,367.6,502.9,367.6z"/>
			<path class="st2" d="M502.9,394.1h36.5c0.9,0,1.7,0.7,1.7,1.7l0,0c0,0.9-0.7,1.7-1.7,1.7h-36.5c-0.9,0-1.7-0.7-1.7-1.7l0,0
				C501.2,394.8,502,394.1,502.9,394.1z"/>
			<path class="st44" d="M472.7,359.9h31.6c1.5,0,2.8,1.2,2.8,2.8v54.4c0,1.5-1.2,2.8-2.8,2.8h-31.6c-1.5,0-2.8-1.2-2.8-2.8v-54.4
				C469.9,361.1,471.2,359.9,472.7,359.9z"/>
			<path class="st23" d="M505,359.9h25.6c1.3,0,2.3,1,2.3,2.3v55.3c0,1.3-1,2.3-2.3,2.3H505c-1.3,0-2.3-1-2.3-2.3v-55.3
				C502.7,360.9,503.7,359.9,505,359.9z"/>
			<path class="st9" d="M463.6,382.7h32.8c0-5.9,6.3-6.5,6.3-6.5h-32.8C469.9,376.1,463.6,376.8,463.6,382.7z"/>
			<path class="st45" d="M469.9,410.2h33.9c1,0,1.8,0.8,1.8,1.8v11.9c0,1-0.8,1.8-1.8,1.8h-33.9c-1,0-1.8-0.8-1.8-1.8V412
				C468.1,411,468.9,410.2,469.9,410.2z"/>
			<path class="st14" d="M502.8,410.2h7.5c1.4,0.1,2.5,1,3,2.3c1.1,2.3,1,4.6,4.1,4.6h1.4c3.2,0,3.1-2.4,4.1-4.6
				c0.5-1.3,1.6-2.2,3-2.3h7.1c1,0,1.8,0.8,1.8,1.8v11.9c0,1-0.8,1.8-1.8,1.8h-30.1c-1,0-1.8-0.8-1.8-1.8V412
				C501,411,501.8,410.2,502.8,410.2z"/>
			<path class="st9" d="M463.6,403.2h32.8c0-5.9,6.3-6.5,6.3-6.5h-32.8C469.9,396.7,463.6,397.3,463.6,403.2z"/>
			<path class="st2" d="M538.3,393.4h-29.8c0-5.9-5.8-6.5-5.8-6.5h29.8C532.5,386.9,538.3,387.5,538.3,393.4z"/>
			<path class="st46" d="M507.4,366.4h22.8c0.6,0,1,0.4,1,1l0,0c0,0.6-0.4,1-1,1h-22.8c-0.6,0-1-0.4-1-1l0,0
				C506.4,366.9,506.9,366.4,507.4,366.4z"/>
			<path class="st46" d="M507.4,377.5h22.8c0.6,0,1,0.4,1,1l0,0c0,0.6-0.4,1-1,1h-22.8c-0.6,0-1-0.4-1-1l0,0
				C506.4,377.9,506.9,377.5,507.4,377.5z"/>
			<path class="st46" d="M507.4,400.7h22.8c0.6,0,1,0.4,1,1l0,0c0,0.6-0.4,1-1,1h-22.8c-0.6,0-1-0.4-1-1l0,0
				C506.4,401.1,506.9,400.7,507.4,400.7z"/>
			<path class="st47" d="M474.8,365.6h22.1c0.6,0,1,0.4,1,1l0,0c0,0.6-0.5,1-1,1h-22.1c-0.6,0-1-0.4-1-1l0,0
				C473.8,366,474.2,365.6,474.8,365.6z"/>
			<path class="st47" d="M474.8,390.6h22.1c0.6,0,1,0.4,1,1l0,0c0,0.6-0.5,1-1,1h-22.1c-0.6,0-1-0.4-1-1l0,0
				C473.8,391,474.2,390.6,474.8,390.6z"/>
			<path class="st2" d="M474.8,406.6h22.1c0.6,0,1,0.4,1,1l0,0c0,0.6-0.4,1-1,1h-22.1c-0.6,0-1-0.4-1-1l0,0
				C473.8,407,474.2,406.6,474.8,406.6z"/>
			<path class="st48" d="M118,278.5l43.3,0.2c0.6,0,1,0.4,1,1v4.5c0,0.6-0.4,1-1,1L118,285c-0.6,0-1-0.4-1-1v-4.5
				C117,278.9,117.4,278.5,118,278.5L118,278.5z M160.2,280.7l-41.2-0.2v2.5l41.2,0.2V280.7z"/>
			<path class="st48" d="M61.2,343.1l57.1-65.1c0.3-0.4,1-0.5,1.4-0.1c0,0,0,0,0.1,0l3.4,3c0.4,0.3,0.5,1,0.1,1.4c0,0,0,0,0,0.1
				l-57.1,65.1c-0.3,0.4-1,0.5-1.4,0.1c0,0,0,0-0.1,0l-3.4-3C60.9,344.2,60.8,343.6,61.2,343.1C61.2,343.1,61.2,343.1,61.2,343.1
				L61.2,343.1z M119.2,280.1l-55.8,63.6l1.8,1.6l55.8-63.6L119.2,280.1z"/>
			<circle class="st11" cx="119.3" cy="281.8" r="5.8"/>
			<path class="st48" d="M61.2,343.4l40.2,76.8c0.2,0.5,0.8,0.7,1.3,0.5c0,0,0,0,0.1,0l4-2.1c0.5-0.2,0.7-0.8,0.5-1.3c0,0,0,0,0-0.1
				L67,340.3c-0.2-0.5-0.8-0.7-1.3-0.5c0,0,0,0-0.1,0l-4,2.1C61.1,342.2,60.9,342.8,61.2,343.4C61.2,343.4,61.2,343.4,61.2,343.4
				L61.2,343.4z M102.7,418.3l-39.2-74.9l2.2-1.1l39.2,74.9L102.7,418.3z"/>
			<circle class="st11" cx="103.2" cy="416.6" r="5.8"/>
			<circle class="st11" cx="65.1" cy="343.6" r="5.8"/>
			<path class="st43" d="M51.5,417.1h80.3c4,0,7.3,3.3,7.3,7.3l0,0c0,4-3.3,7.3-7.3,7.3H51.5c-4,0-7.3-3.3-7.3-7.3l0,0
				C44.2,420.4,47.4,417.1,51.5,417.1z"/>
			<path class="st11" d="M80.1,417.1h80.3c4,0,7.3,3.3,7.3,7.3l0,0c0,4-3.3,7.3-7.3,7.3H80.1c-4,0-7.3-3.3-7.3-7.3l0,0
				C72.8,420.4,76,417.1,80.1,417.1z"/>
			<path class="st9" d="M152,293.2h21.2c6.2,0,11.1-5,11.2-11.2h-43.5C140.8,288.2,145.8,293.2,152,293.2z"/>
			<path class="st49" d="M152.4,291h12.7c3.7,0,6.7-3,6.7-6.7h-26.1C145.7,288,148.7,291,152.4,291z"/>
			<path class="st48" d="M144.9,276.9h35.4c4.7,0,8.5,3.8,8.5,8.5h-52.5C136.3,280.8,140.1,276.9,144.9,276.9z"/>
			<path class="st50" d="M144.9,276.9H161c4.7,0,8.5,3.8,8.5,8.5h-33.2C136.3,280.8,140.1,276.9,144.9,276.9z"/>
			<path class="st47" d="M260.2,415h168.6c3,0,5.4,2.4,5.4,5.4l0,0c0,3-2.4,5.4-5.4,5.4l0,0H260.2c-3,0-5.4-2.4-5.4-5.4l0,0l0,0
				C254.9,417.4,257.3,415,260.2,415L260.2,415L260.2,415z"/>
			<path class="st51" d="M429.1,425.8H260.5c-1.9,0-3.6-1-4.7-2.5c0.9-1.6,2.6-2.5,4.4-2.5h168.6c1.9,0,3.6,1,4.7,2.5
				C432.6,424.8,430.9,425.8,429.1,425.8z"/>
			<path class="st51" d="M432.6,415H297.8c-3.6,0-6.5-2.9-6.6-6.5c0-0.2,0-0.4,0-0.5l5.5-87.3c0.3-3.9,3.5-6.9,7.5-7H439
				c3.6,0,6.5,2.8,6.6,6.4c0,0.2,0,0.4,0,0.6l-5.5,87.3C439.8,411.9,436.6,414.9,432.6,415z"/>
			<path class="st46" d="M432.6,415H301.8c-3.6,0-6.5-2.9-6.6-6.5c0-0.2,0-0.4,0-0.5l5.5-87.3c0.3-3.9,3.5-6.9,7.5-7H439
				c3.6,0,6.5,2.8,6.6,6.4c0,0.2,0,0.4,0,0.6l-5.5,87.3C439.8,411.9,436.6,414.9,432.6,415z"/>
			<path class="st13" d="M425.5,415H412l-111.6-89.2l0.3-5.1c0.1-1.5,0.7-2.9,1.6-4.1L425.5,415z M317.5,313.7L439.2,411
				c0.5-0.9,0.8-1.9,0.9-3l0.9-13.6l-101-80.8L317.5,313.7z"/>
			<path class="st9" d="M291.2,425.8h-30.6c-3,0-5.4-2.4-5.7-5.4l0,0c-0.2-2.8,1.9-5.1,4.6-5.3c0.1,0,0.2,0,0.4,0h30.6
				c3,0,5.4,2.4,5.7,5.4l0,0c0.2,2.8-1.9,5.1-4.6,5.3C291.4,425.7,291.3,425.8,291.2,425.8z"/>
			<path class="st13" d="M431.3,417.7H291c-1.5,0-2.7-1.2-2.8-2.7l0,0c-0.1-1.4,0.9-2.6,2.3-2.7c0.1,0,0.1,0,0.2,0H431
				c1.5,0,2.7,1.2,2.8,2.7l0,0c0.1,1.4-0.9,2.6-2.3,2.7C431.5,417.7,431.4,417.7,431.3,417.7z"/>
			<path class="st52" d="M197.1,224.2c-0.1-10.1-7.3-18.8-17.2-20.8c-5-5.3-10.2-10.3-15.8-15c-14.2,1.5-25.5,12.7-27.2,26.9
				c-1,2.4-1.5,5-1.6,7.7v15.6l0.6-0.2l-0.3,6.6c-0.6,16.8,12.4,30.9,29.1,31.6c1.1,0,2.3,0,3.4,0c-21.4-0.2-22.2-24.8-22.2-35.2
				c0-5.4,3.3-11.1,7.3-15.5c4.7,3.1,10.7,4.7,17.8,4.8c20.7,0.2,22.6,7.7,22.6,7.7c0,2,1.6,3.8,3.6,4L197.1,224.2z"/>
		</g>
	</g>
</g>
</svg>
