<?xml version="1.0" encoding="utf-8"?>
<!-- Generator: Adobe Illustrator 27.5.0, SVG Export Plug-In . SVG Version: 6.00 Build 0)  -->
<svg version="1.1" id="Layer_1" xmlns="http://www.w3.org/2000/svg" xmlns:xlink="http://www.w3.org/1999/xlink" x="0px" y="0px"
	 viewBox="0 0 685 447.2" style="enable-background:new 0 0 685 447.2;" xml:space="preserve">
<style type="text/css">
	.st0{fill:none;}
	.st1{fill-rule:evenodd;clip-rule:evenodd;fill:#E2E8F5;}
	.st2{fill-rule:evenodd;clip-rule:evenodd;fill:#B1C0E2;}
	.st3{fill-rule:evenodd;clip-rule:evenodd;fill:#BFCCE8;}
	.st4{fill-rule:evenodd;clip-rule:evenodd;fill:#9EB1D9;}
	.st5{fill-rule:evenodd;clip-rule:evenodd;fill:#FFFFFF;}
	.st6{fill-rule:evenodd;clip-rule:evenodd;fill:#5B4E99;}
	.st7{fill-rule:evenodd;clip-rule:evenodd;fill:#AC3C31;}
	.st8{fill-rule:evenodd;clip-rule:evenodd;fill:#0E1632;}
	.st9{fill:#AC3C31;}
	.st10{fill-rule:evenodd;clip-rule:evenodd;fill:#DF7668;}
	.st11{fill:#222A48;}
	.st12{fill:#00000F;}
	.st13{fill-rule:evenodd;clip-rule:evenodd;fill:#48417C;}
	.st14{opacity:0.2;fill-rule:evenodd;clip-rule:evenodd;fill:#C14A44;enable-background:new    ;}
	.st15{fill-rule:evenodd;clip-rule:evenodd;fill:#3C3C6B;}
	.st16{fill-rule:evenodd;clip-rule:evenodd;fill:#01020E;}
	.st17{opacity:0.4;fill:url(#SVGID_1_);enable-background:new    ;}
	.st18{opacity:0.4;fill:url(#SVGID_00000070825849179977314720000011032540044487607734_);enable-background:new    ;}
	.st19{opacity:0.4;fill:url(#SVGID_00000074441120211939917060000005831144603781232787_);enable-background:new    ;}
	.st20{opacity:0.42;fill:#E98C4D;enable-background:new    ;}
	.st21{fill:#FFFFFF;}
	.st22{fill:url(#_Path_3_00000111183693119157745280000001432698919490065819_);}
	.st23{opacity:0.2;fill:#320033;enable-background:new    ;}
	.st24{opacity:0.45;fill:#CA6633;enable-background:new    ;}
	.st25{fill:url(#_Path_9_00000155835261855908998880000015154749026420978332_);}
	.st26{opacity:0.45;fill:#E98C4D;enable-background:new    ;}
	.st27{fill:#DA774E;}
	.st28{fill:#171D33;}
	.st29{opacity:0.2;fill:#C14A44;enable-background:new    ;}
	.st30{opacity:0.4;fill:url(#SVGID_00000026124799415511297170000013807154987504172166_);enable-background:new    ;}
	.st31{opacity:0.4;fill:url(#SVGID_00000154418278053187824650000004087978514297001101_);enable-background:new    ;}
	.st32{opacity:0.4;fill:url(#SVGID_00000068665280380942594210000006150979374201905553_);enable-background:new    ;}
	.st33{fill:url(#_Path_15_00000122710074310092440070000016484159400791445688_);}
	.st34{fill:url(#_Path_21_00000103948277477426147990000017684968319062316682_);}
	.st35{opacity:0.5;fill:#AC3C31;enable-background:new    ;}
	.st36{fill:#E8887E;}
	.st37{opacity:0.4;}
	.st38{fill:#6C293E;}
	.st39{opacity:0.25;fill:#FA8C89;enable-background:new    ;}
	.st40{fill:#E52749;}
	.st41{fill:#D5795C;}
	.st42{opacity:0.15;fill:#6D233C;enable-background:new    ;}
	.st43{opacity:0.45;fill:#E52749;enable-background:new    ;}
	.st44{fill:#ED897E;}
	.st45{fill:#3F3632;}
	.st46{clip-path:url(#SVGID_00000079475799897947068150000006101661752700053430_);}
	.st47{fill:#E86234;}
	.st48{fill:#3C3C6B;}
	.st49{fill:#383D5D;}
	.st50{fill:#48417C;}
	.st51{fill:#C9C4D1;}
	.st52{fill-rule:evenodd;clip-rule:evenodd;fill:#383D5D;}
	.st53{fill:#F4F4F7;}
	.st54{fill-rule:evenodd;clip-rule:evenodd;fill:#F4F4F7;}
	.st55{fill:#E0DEE1;}
	.st56{fill-rule:evenodd;clip-rule:evenodd;fill:#ACADBB;}
	.st57{fill:#E6E4EB;}
</style>
<g>
	<g id="Layer_2_00000054961592680363531260000012017210768921294778_">
		<g id="OBJECTS">
			<rect y="-38" class="st0" width="685" height="485.2"/>
			<path class="st1" d="M203.5,402.9h443.7c15.9-0.1,28.8-13,28.9-28.9l0,0c-0.1-15.9-13-28.8-28.9-28.9h-12
				c-51.6,0-93.8-42.2-93.8-93.8s-42.2-93.8-93.8-93.8h-77.1c-6.1,0-11-4.9-11-11l0,0c0-6.1,4.9-11,11-11h49.1
				c8.5,0,15.4-6.9,15.4-15.5l0,0c0-8.5-6.9-15.4-15.4-15.4H358c-17.1,0-31-13.9-31.1-31.1c-0.1-17.1-13.9-31-31.1-31.1H128.4
				C111,42.7,96.9,56.9,96.8,74.3l0,0c0.1,17.4,14.2,31.6,31.6,31.6h47.5c9.9,0.1,17.8,8.1,17.9,17.9l0,0c0,9.9-8,17.9-17.9,17.9
				h0.1c-19.6,0.1-35.4,15.9-35.4,35.4s-15.9,35.4-35.4,35.4c-52.3,0-95.1,42.8-95.1,95.1l0,0c0,52.3,42.8,95.1,95.1,95.1
				L203.5,402.9z M48.8,105.9c-17.4-0.1-31.6-14.2-31.6-31.6l0,0c0-17.5,14.2-31.6,31.6-31.7l0,0c17.4,0.1,31.6,14.2,31.6,31.6l0,0
				C80.4,91.7,66.3,105.9,48.8,105.9L48.8,105.9z"/>
			<path class="st2" d="M535,217.6c-1.1-2.8-2.3-5.5-3.7-8.2h-84.5c-0.7,0-1,0.6-0.6,1.3l3,5.6c0.4,0.7,1.2,1.2,2,1.3L535,217.6z"/>
			<path class="st2" d="M538.5,228.6c-0.7-2.8-1.5-5.5-2.5-8.2h-89.2c-0.7,0-1,0.6-0.6,1.3l3,5.6c0.4,0.7,1.2,1.2,2,1.3L538.5,228.6
				z"/>
			<path class="st2" d="M540.6,239.5c-0.4-2.8-0.8-5.5-1.4-8.2h-92.3c-0.7,0-1,0.6-0.6,1.3l3,5.6c0.4,0.7,1.2,1.2,2,1.3L540.6,239.5
				z"/>
			<path class="st2" d="M541.4,250.5c0-2.8-0.1-5.5-0.4-8.2h-94.1c-0.7,0-1,0.6-0.6,1.3l3,5.6c0.4,0.7,1.2,1.2,2,1.3L541.4,250.5z"
				/>
			<path class="st2" d="M541.9,261.5c-0.3-2.7-0.5-5.4-0.5-8.2h-94.5c-0.7,0-1,0.6-0.6,1.3l3,5.6c0.4,0.7,1.2,1.2,2,1.3L541.9,261.5
				z"/>
			<path class="st2" d="M462,212.4c0-0.5-0.4-0.8-0.8-0.8c-0.5,0-0.8,0.4-0.8,0.8v71.8c0,0.5,0.4,0.8,0.8,0.8c0.5,0,0.8-0.4,0.8-0.8
				V212.4z"/>
			<path class="st2" d="M457.9,303.3c0,1.8,1.5,3.3,3.3,3.3s3.3-1.5,3.3-3.3v-19.2c0-1.8-1.5-3.3-3.3-3.3s-3.3,1.5-3.3,3.3V303.3z"
				/>
			<path class="st2" d="M295.5,56.1H188.6c-0.8,0-1,0.6-0.6,1.4l3,5.8c0.4,0.8,1.2,1.3,2.1,1.4h107c0.8,0,1-0.6,0.6-1.4l-3.1-5.8
				C297.2,56.7,296.4,56.1,295.5,56.1z"/>
			<path class="st2" d="M295.5,67.5H188.6c-0.8,0-1,0.6-0.6,1.4l3,5.8c0.4,0.8,1.2,1.3,2.1,1.4h107c0.8,0,1-0.6,0.6-1.4l-3.1-5.8
				C297.2,68.1,296.4,67.5,295.5,67.5z"/>
			<path class="st2" d="M204.3,59.2c0-0.5-0.4-0.9-0.9-0.9s-0.9,0.4-0.9,0.9v74.4c0,0.5,0.4,0.9,0.9,0.9s0.9-0.4,0.9-0.9V59.2z"/>
			<path class="st2" d="M200,153.5c0,1.9,1.5,3.4,3.4,3.4c1.9,0,3.4-1.5,3.4-3.4l0,0v-19.9c0-1.9-1.5-3.4-3.4-3.4
				c-1.9,0-3.4,1.5-3.4,3.4V153.5z"/>
			<path class="st2" d="M113.4,211.7c-2.7,0.7-5.5,1-8.3,1c-12.1,0-24.1,2.3-35.4,6.9h48c0.8-0.1,1.5-0.5,1.9-1.3l2.8-5.3
				c0.4-0.7,0.1-1.3-0.6-1.3L113.4,211.7z"/>
			<path class="st2" d="M63.7,222.2c-4.6,2.3-9.1,4.9-13.3,7.9h67.3c0.8-0.1,1.5-0.5,1.9-1.3l2.8-5.3c0.4-0.7,0.1-1.3-0.6-1.3
				L63.7,222.2z"/>
			<path class="st2" d="M46.8,232.7c-3.1,2.4-6.1,5.1-8.9,7.9h79.8c0.8-0.1,1.5-0.5,1.9-1.3l2.8-5.3c0.4-0.7,0.1-1.3-0.6-1.3H46.8z"
				/>
			<path class="st2" d="M35.4,243.3c-2.3,2.5-4.5,5.1-6.5,7.9h88.9c0.8-0.1,1.5-0.5,1.9-1.3l2.8-5.3c0.4-0.7,0.1-1.3-0.6-1.3
				L35.4,243.3z"/>
			<path class="st2" d="M26.9,253.8c-1.8,2.5-3.4,5.1-4.9,7.9h95.7c0.8-0.1,1.5-0.5,1.9-1.3l2.8-5.3c0.4-0.7,0.1-1.3-0.6-1.3H26.9z"
				/>
			<path class="st2" d="M107.4,215.6c0-1,0.4-1.9,0.8-1.9s0.8,0.8,0.8,1.9v159.8c0,1-0.4,1.9-0.8,1.9s-0.8-0.8-0.8-1.9V215.6z"/>
			<path class="st2" d="M111.3,395.6c0,1.8-1.4,3.2-3.2,3.2s-3.2-1.4-3.2-3.2v-18.4c0-1.8,1.4-3.2,3.2-3.2s3.2,1.4,3.2,3.2V395.6z"
				/>
			<path class="st2" d="M23.1,264.3h98.7c0.7,0,1,0.6,0.6,1.3l-2.8,5.3c-0.4,0.7-1.1,1.2-1.9,1.3H19c-0.7,0-1-0.6-0.6-1.3l2.8-5.3
				C21.6,264.8,22.3,264.4,23.1,264.3z"/>
			<path class="st2" d="M23.1,274.8h98.7c0.7,0,1,0.6,0.6,1.3l-2.8,5.3c-0.4,0.7-1.1,1.2-1.9,1.3H19c-0.7,0-1-0.6-0.6-1.3l2.8-5.3
				C21.6,275.4,22.3,274.9,23.1,274.8z"/>
			<path class="st2" d="M23.1,285.3h98.7c0.7,0,1,0.6,0.6,1.3l-2.8,5.3c-0.4,0.7-1.1,1.2-1.9,1.3H19c-0.7,0-1-0.6-0.6-1.3l2.8-5.3
				C21.6,285.9,22.3,285.4,23.1,285.3z"/>
			<path class="st2" d="M23.1,295.9h98.7c0.7,0,1,0.6,0.6,1.3l-2.8,5.3c-0.4,0.7-1.1,1.2-1.9,1.3H19c-0.7,0-1-0.6-0.6-1.3l2.8-5.3
				C21.6,296.4,22.3,295.9,23.1,295.9z"/>
			<path class="st2" d="M23.1,306.4h98.7c0.7,0,1,0.6,0.6,1.3l-2.8,5.4c-0.4,0.7-1.1,1.2-1.9,1.3H19c-0.7,0-1-0.6-0.6-1.3l2.8-5.3
				C21.6,307,22.3,306.5,23.1,306.4z"/>
			<path class="st2" d="M23.1,316.9h98.7c0.7,0,1,0.6,0.6,1.3l-2.8,5.3c-0.4,0.7-1.1,1.2-1.9,1.3H19c-0.7,0-1-0.6-0.6-1.3l2.8-5.3
				C21.6,317.5,22.3,317,23.1,316.9z"/>
			<path class="st2" d="M23.1,327.4h98.7c0.7,0,1,0.6,0.6,1.3l-2.8,5.3c-0.4,0.7-1.1,1.2-1.9,1.3H19c-0.7,0-1-0.6-0.6-1.3l2.8-5.3
				C21.6,328,22.3,327.5,23.1,327.4z"/>
			<path class="st2" d="M23.1,337.9h98.7c0.7,0,1,0.6,0.6,1.3l-2.8,5.3c-0.4,0.7-1.1,1.2-1.9,1.3H19c-0.7,0-1-0.6-0.6-1.3l2.8-5.3
				C21.6,338.5,22.3,338,23.1,337.9z"/>
			<path class="st3" d="M140.7,93.6c-0.9,2.4-2.6,4.4-4.8,5.7c-1.1,0.7-2.3,1.2-3.5,1.6c-0.5,0.2-1.1-0.1-1.3-0.6
				c-0.1-0.2-0.1-0.3,0-0.5c0.1-1.1,0.1-2.2,0-3.2c-0.1-0.6-0.2-1.2-0.4-1.8c-11.1-1.5-18.8-11.7-17.3-22.8
				c1.5-11.1,11.7-18.8,22.8-17.3s18.8,11.7,17.3,22.8C152.4,84.8,147.6,90.9,140.7,93.6L140.7,93.6z"/>
			<path class="st4" d="M501.1,304.9h34.7c0.8,0,1.5,0.3,2.1,0.8c0.2,0.1,0.3,0.2,0.4,0.3c0.1,0.1,0.1,0.2,0.1,0.3
				c0.4,0.6,0.7,1.3,0.7,2v20.4c0,0.9-0.4,1.7-1,2.3l0,0c-0.6,0.6-1.4,1-2.3,1h-34.7c-1.8,0-3.3-1.5-3.3-3.3v-20.5
				c0-0.7,0.2-1.4,0.6-2c0-0.1,0.1-0.2,0.1-0.2c0.1-0.1,0.2-0.2,0.4-0.3C499.6,305.2,500.3,304.9,501.1,304.9z"/>
			<path class="st5" d="M499.8,303.4h34.7c0.8,0,1.5,0.3,2.1,0.8c0.2,0.1,0.3,0.2,0.4,0.3c0.1,0.1,0.1,0.2,0.1,0.3
				c0.4,0.6,0.7,1.3,0.7,2v20.4c0,0.9-0.4,1.7-1,2.3l0,0c-0.6,0.6-1.4,1-2.3,1h-34.7c-1.8,0-3.3-1.5-3.3-3.3v-20.5
				c0-0.7,0.2-1.4,0.6-2c0-0.1,0.1-0.2,0.1-0.3c0.1-0.1,0.2-0.2,0.4-0.3C498.3,303.6,499.1,303.4,499.8,303.4L499.8,303.4z
				 M535,328.3l-13.7-10.5l-3.4,2.6l0,0l-0.1,0.1h-0.2h-0.1l0,0h-0.1h-0.3H517l0,0h-0.1h-0.2l-0.1-0.1l0,0l-3.4-2.6l-13.8,10.5
				c0.1,0.1,0.3,0.1,0.5,0.1h34.7C534.8,328.4,534.9,328.4,535,328.3L535,328.3z M522.5,316.9l13.4,10.2v-20.4L522.5,316.9
				L522.5,316.9z M498.5,327.1l13.4-10.2l-13.4-10.2V327.1L498.5,327.1z M517.2,318.4l17-13h-34L517.2,318.4z"/>
			<path class="st5" d="M139,91.8c-0.9,2.4-2.6,4.4-4.8,5.7c-1.1,0.7-2.3,1.2-3.5,1.6c-0.5,0.2-1.1-0.1-1.3-0.6c0,0,0-0.1,0-0.1
				c0-0.1,0-0.3,0-0.4c0.1-1.1,0.1-2.2,0-3.2c-0.1-0.6-0.2-1.2-0.4-1.8c-11.1-1.5-18.8-11.7-17.3-22.8c1.5-11.1,11.7-18.8,22.8-17.3
				s18.8,11.7,17.3,22.8C150.7,83,145.9,89.1,139,91.8L139,91.8z M131.5,96.5c2.6-1,4.7-3.2,5.7-5.8c0.1-0.3,0.3-0.6,0.6-0.7
				c9.4-3.4,14.3-13.8,10.8-23.2s-13.8-14.3-23.2-10.8s-14.3,13.8-10.8,23.2c2.4,6.5,8.3,11.2,15.2,11.8c0.4,0,0.8,0.3,0.9,0.7
				c0.3,0.9,0.5,1.9,0.7,2.8C131.4,95.2,131.5,95.8,131.5,96.5z"/>
			<path class="st5" d="M139.3,62.4c-0.6-1.3-1.6-2.4-2.8-3.1c-1.5,1.5-2.5,3.3-3,5.4c0.8,0.6,3.1,2.3,2.1,4.2l-4.5,7.8
				c-1.1,1.8-3.7,0.7-4.6,0.3c-1.5,1.4-2.6,3.3-3.1,5.3c1.2,0.7,2.7,1,4.1,0.9c1.3-0.1,2.5-0.8,3.3-1.8l8.7-15.1
				C139.9,64.9,139.8,63.5,139.3,62.4z"/>
			<path class="st5" d="M268.4,125.6c10.5,0,18.9-8.5,18.9-18.9c0-10.5-8.5-18.9-18.9-18.9c-10.5,0-18.9,8.5-18.9,18.9v0
				C249.5,117.1,258,125.6,268.4,125.6z"/>
			<path class="st5" d="M268.4,171.2c10.5,0,18.9-8.5,18.9-18.9c0-10.5-8.5-18.9-18.9-18.9c-10.5,0-18.9,8.5-18.9,18.9v0
				C249.5,162.7,258,171.2,268.4,171.2z"/>
			<path class="st4" d="M269.3,146.5c1.1-4,3.1-5.5,3.3-5.7c0.1-0.1,0.3-0.1,0.4,0c1.4,0.7,2.4,1.9,3.1,3.3c0.6,1.3,0.6,2.8,0,4.1
				l-7.9,13.6c-0.8,1.2-2.1,1.9-3.5,2c-1.5,0.1-3.1-0.2-4.4-1c-0.1-0.1-0.2-0.2-0.2-0.4c0,0,0.2-2.6,3.3-5.7
				c0.1-0.1,0.3-0.2,0.5-0.1c0,0,2.6,1.5,3.4,0.2l4-7c0.8-1.3-1.6-2.7-1.8-2.9C269.4,146.8,269.3,146.6,269.3,146.5z"/>
			<path class="st4" d="M303,95.6c-0.4,0-0.7-0.4-0.7-0.8c0-0.3,0.3-0.6,0.7-0.7h23.9c0.4,0,0.7,0.4,0.7,0.8c0,0.3-0.3,0.6-0.7,0.7
				H303z"/>
			<path class="st4" d="M303.2,100.2c-0.4,0-0.8-0.2-0.8-0.7c0-0.4,0.2-0.8,0.7-0.8c0.1,0,0.1,0,0.2,0h9.2c0.4,0,0.8,0.2,0.8,0.7
				c0,0.4-0.2,0.8-0.7,0.8c-0.1,0-0.1,0-0.2,0H303.2z"/>
			<path class="st4" d="M303,105.2c-0.4,0-0.8-0.2-0.8-0.7c0-0.4,0.2-0.8,0.7-0.8c0.1,0,0.1,0,0.2,0h9.6c0.4,0,0.8,0.2,0.8,0.7
				c0,0.4-0.2,0.8-0.7,0.8c-0.1,0-0.1,0-0.2,0H303z"/>
			<path class="st4" d="M303,109.6c-0.4,0-0.8-0.2-0.8-0.7c0-0.4,0.2-0.8,0.7-0.8c0.1,0,0.1,0,0.2,0h19.1c0.4,0,0.7,0.4,0.7,0.8
				c0,0.3-0.3,0.6-0.7,0.7H303z"/>
			<path class="st4" d="M302.5,114.2c-0.1,0-0.2-0.3-0.2-0.8s0.1-0.8,0.2-0.8h8.5c0.1,0,0.2,0.3,0.2,0.8s-0.1,0.8-0.2,0.8H302.5z"/>
			<path class="st4" d="M303,119.2c-0.4,0-0.8-0.2-0.8-0.7c0-0.4,0.2-0.8,0.7-0.8c0.1,0,0.1,0,0.2,0h30.7c0.4,0,0.8,0.2,0.8,0.7
				c0,0.4-0.2,0.8-0.7,0.8c-0.1,0-0.1,0-0.2,0H303z"/>
			<path class="st4" d="M303,141.2c-0.4,0-0.7-0.4-0.7-0.8c0-0.3,0.3-0.6,0.7-0.7h23.9c0.4,0,0.7,0.4,0.7,0.8c0,0.3-0.3,0.6-0.7,0.7
				H303z"/>
			<path class="st4" d="M303.2,145.9c-0.4,0-0.8-0.2-0.8-0.7c0-0.4,0.2-0.8,0.7-0.8c0.1,0,0.1,0,0.2,0h9.2c0.4,0,0.8,0.2,0.8,0.7
				c0,0.4-0.2,0.8-0.7,0.8c-0.1,0-0.1,0-0.2,0H303.2z"/>
			<path class="st4" d="M303,150.8c-0.4,0-0.8-0.2-0.8-0.7c0-0.4,0.2-0.8,0.7-0.8c0.1,0,0.1,0,0.2,0h9.6c0.4,0,0.8,0.2,0.8,0.7
				c0,0.4-0.2,0.8-0.7,0.8c-0.1,0-0.1,0-0.2,0H303z"/>
			<path class="st4" d="M303,155.2c-0.4,0-0.8-0.2-0.8-0.7c0-0.4,0.2-0.8,0.7-0.8c0.1,0,0.1,0,0.2,0h19.1c0.4,0,0.7,0.4,0.7,0.8
				c0,0.3-0.3,0.6-0.7,0.7H303z"/>
			<path class="st4" d="M303,159.8c-0.4,0-0.8-0.2-0.8-0.7c0-0.4,0.2-0.8,0.7-0.8c0.1,0,0.1,0,0.2,0h30.7c0.4,0,0.8,0.2,0.8,0.7
				c0,0.4-0.2,0.8-0.7,0.8c-0.1,0-0.1,0-0.2,0H303z"/>
			<path class="st4" d="M302.4,164.8c-0.1,0-0.1-0.3-0.1-0.8s0.1-0.8,0.1-0.8h6.1c0.1,0,0.1,0.3,0.1,0.8s-0.1,0.8-0.1,0.8H302.4z"/>
			<path class="st4" d="M261.1,121.2l-1.6-1.6c-0.2,0.1-0.3,0.2-0.5,0.4C259.6,120.5,260.4,120.9,261.1,121.2z"/>
			<path class="st4" d="M261.1,121.2l-1.6-1.6c-0.2,0.1-0.3,0.2-0.5,0.4C259.6,120.5,260.4,120.9,261.1,121.2z"/>
			<path class="st4" d="M275.6,121.2l1.6-1.6c0.2,0.1,0.3,0.2,0.5,0.4C277.1,120.5,276.4,120.9,275.6,121.2z"/>
			<path class="st4" d="M275.6,121.2l1.6-1.6c0.2,0.1,0.3,0.2,0.5,0.4C277.1,120.5,276.4,120.9,275.6,121.2z"/>
			<path class="st6" d="M274,118.4h0.1l0,0c1.1,0.3,2.1,0.7,3.1,1.2c0.2,0.1,0.3,0.2,0.5,0.4c-5.7,3.8-13.1,3.8-18.8,0
				c0.1-0.2,0.3-0.3,0.5-0.4c1-0.5,2-0.9,3.1-1.2l0,0h0.1l0,0c0.8-0.2,1.5-0.3,2.3-0.3l3.3,0.5h0.1l3.3-0.5
				C272.5,118.1,273.3,118.2,274,118.4L274,118.4z"/>
			<path class="st7" d="M271.1,110.8l-0.1,1.9v4.3c0.1,0.4,0.4,0.8,0.7,1c-2.4,2.6-4.3,2.6-6.7,0c0.4-0.2,0.6-0.6,0.7-1v-4.4
				l-0.1-1.9c0,0,1.3,0.2,2.7,0.6C269.7,111,271.1,110.8,271.1,110.8z"/>
			<path class="st8" d="M259.7,100.3c-0.2,0.5-0.4,1-0.4,1.6c0,0.8,1.6,1.1,2.2,1.1s15.5,0.6,15.5,0.6c0.3,0,0.5-0.3,0.5-0.5
				c0-0.4-2.6-6-2.6-6L259.7,100.3z"/>
			<circle class="st9" cx="260.2" cy="107.5" r="2.4"/>
			<circle class="st9" cx="276.6" cy="107.5" r="2.4"/>
			<path class="st10" d="M268.4,92.4L268.4,92.4c4.5,0,8.1,3.7,8.2,8.2v7.4c0,4.5-3.7,8.1-8.2,8.2l0,0c-4.5,0-8.1-3.7-8.2-8.2v-7.4
				C260.3,96.1,263.9,92.5,268.4,92.4z"/>
			<path class="st8" d="M275.6,100.5v2.5c0,1,0.2,1.3,0.7,1.7c0,0-0.3,1,0.2,1.2c0-0.3,0.2-0.6,0.4-0.8v-6.2c-0.4,0.5-0.9,0.8-1.4,1
				C275.6,100.1,275.7,100.3,275.6,100.5z"/>
			<path class="st8" d="M261.3,100.1v1.9c0,0.7-0.1,0.9-0.5,1.2c0,0-0.1,0.6-0.5,0.8l-0.4-4.9c0.4,0.3,0.9,0.5,1.4,0.6
				C261.3,99.8,261.3,99.9,261.3,100.1z"/>
			<path class="st8" d="M277.5,103c-0.5-0.6-1.2-1.1-1.9-1.5l0,0l0,0l-0.2-0.1c-0.8-0.4-1.5-1.1-1.9-1.9c-0.7,0.5-3.5,0.4-4.5,0.4
				h-0.4l0,0c-4.7-0.2-9.2,0.9-9.2,2.1c-4-8.5,6.1-16.7,15-7.4C279.1,94.8,278.7,99.6,277.5,103z"/>
			<path class="st3" d="M181.6,202.9c6-6,15.7-6,21.7,0c6,6,6,15.7,0,21.7c-6,6-15.7,6-21.7,0c-4.4-4.4-5.7-11-3.3-16.7
				C179,206.1,180.2,204.4,181.6,202.9z M187.1,200.9c-7.2,2.9-10.6,11.1-7.6,18.3c2.9,7.2,11.1,10.6,18.3,7.6
				c7.2-2.9,10.6-11.1,7.6-18.3c-2.2-5.2-7.3-8.7-12.9-8.7C190.6,199.9,188.8,200.2,187.1,200.9z M185.4,189.6c-1,0.3-1.9,0.6-2.8,1
				c-2.8,1.2-5.4,2.9-7.6,5c-0.5,0.5-1.3,0.6-1.9,0.2c-2.2-1.3-4.6-2.6-6.8-3.9c-0.1-0.1-0.2-0.1-0.3-0.1c-0.1,0-0.3,0-0.4,0
				c-0.1,0-0.2,0.1-0.4,0.2c-0.1,0.1-0.2,0.2-0.2,0.3c-1.6,2.5-3.3,5.7-4.8,8.3c-0.1,0.1-0.1,0.2-0.1,0.4c0,0.1,0,0.3,0,0.4
				c0,0.1,0.1,0.2,0.2,0.3c0.1,0.1,0.2,0.2,0.3,0.2c2,1.3,4.6,2.7,6.8,3.9c0.3,0.2,0.5,0.4,0.7,0.8c0,0.1,0.1,0.2,0.1,0.3h0.1
				l-0.2,0.6c-0.1,0.5-0.2,1-0.3,1.5c-0.1,0.5-0.2,1-0.2,1.5c-0.1,0.5-0.1,1-0.1,1.5s0,1,0,1.5s0,1.1,0,1.5s0.1,1,0.1,1.5
				s0.1,1,0.2,1.5s0.2,1,0.3,1.5c0.2,0.7-0.2,1.5-0.8,1.8l-6,3.5l0,0l-0.7,0.4c-0.1,0.1-0.2,0.1-0.3,0.2c-0.1,0.1-0.1,0.2-0.2,0.3
				c0,0.1,0,0.3,0,0.4c0,0.1,0.1,0.2,0.1,0.4l4.4,7.7l0,0l0.4,0.6c0.1,0.1,0.1,0.2,0.2,0.3c0.1,0.1,0.2,0.1,0.4,0.2
				c0.1,0,0.3,0,0.4,0c0.1,0,0.2-0.1,0.4-0.1c2.1-1.4,4.6-2.6,6.8-3.9c0.6-0.4,1.4-0.3,1.9,0.2l0,0c0.7,0.7,1.5,1.4,2.3,2
				c0.8,0.6,1.7,1.2,2.6,1.7c0.9,0.5,1.8,1,2.7,1.4c0.9,0.4,1.9,0.7,2.9,1c0.7,0.2,1.2,0.8,1.2,1.5v7.9c0,0.1,0,0.3,0.1,0.4
				c0,0.1,0.1,0.2,0.2,0.3c0.2,0.2,0.4,0.3,0.7,0.3h9.6c0.1,0,0.3,0,0.4-0.1c0.2-0.1,0.4-0.3,0.5-0.5c0-0.1,0.1-0.2,0.1-0.4v-7.9
				c0-0.7,0.5-1.4,1.2-1.6c1.9-0.6,3.8-1.4,5.6-2.4c0.9-0.5,1.7-1.1,2.6-1.7c0.8-0.6,1.6-1.3,2.3-2c0.5-0.5,1.4-0.6,2-0.2l6.7,3.9
				c0.1,0.1,0.2,0.1,0.4,0.1c0.1,0,0.3,0,0.4,0c0.1,0,0.2-0.1,0.3-0.2c0.1-0.1,0.2-0.2,0.2-0.3c1.6-2.8,3.2-5.5,4.8-8.3
				c0.1-0.1,0.1-0.2,0.1-0.4c0-0.1,0-0.3,0-0.4c0-0.1-0.1-0.2-0.2-0.4c-0.1-0.1-0.2-0.2-0.3-0.2l-6.8-3.9c-0.3-0.2-0.5-0.4-0.7-0.8
				c0-0.1-0.1-0.2-0.1-0.3h-0.2l0.2-0.7c0.1-0.5,0.2-1,0.3-1.5s0.2-1,0.2-1.5s0.1-1,0.1-1.5s0-1,0-1.5s0-1.1,0-1.5s-0.1-1-0.1-1.5
				s-0.1-1-0.2-1.5s-0.2-1-0.3-1.5c-0.1-0.4-0.1-0.7,0.1-1.1c0.2-0.3,0.4-0.6,0.7-0.8l6.7-3.9c0.1-0.1,0.2-0.1,0.3-0.2
				c0.1-0.1,0.1-0.2,0.2-0.4c0-0.1,0-0.3,0-0.4c0-0.1-0.1-0.2-0.1-0.4c-1.6-2.4-3.3-5.7-4.8-8.3c-0.1-0.1-0.1-0.2-0.2-0.3
				c-0.1-0.1-0.2-0.1-0.3-0.2c-0.1,0-0.3,0-0.4,0c-0.1,0-0.2,0.1-0.4,0.1l-6.8,3.9c-0.3,0.2-0.7,0.2-1,0.2c-0.3,0-0.7-0.2-0.9-0.4
				c-0.7-0.7-1.5-1.4-2.3-2c-0.8-0.6-1.7-1.1-2.6-1.5c-0.9-0.5-1.8-1-2.7-1.4c-0.9-0.4-1.9-0.7-2.9-1c-0.7-0.2-1.2-0.8-1.2-1.6v-7.9
				c0-0.1,0-0.3-0.1-0.4c0-0.1-0.1-0.2-0.2-0.3c-0.1-0.1-0.2-0.2-0.3-0.2c-0.1,0-0.2-0.1-0.4-0.1h-9.6c-0.1,0-0.3,0-0.4,0.1
				c-0.4,0.2-0.6,0.5-0.6,0.9v7.8c0,0.4-0.1,0.7-0.4,1C186.1,189.3,185.8,189.5,185.4,189.6L185.4,189.6z M182,189.3
				c-1,0.4-1.9,0.9-2.9,1.4c-1.9,1.1-3.6,2.4-5.2,3.9c0,0-0.1,0-0.1,0c0,0-0.1,0-0.1,0l-6.9-4c-0.3-0.1-0.6-0.2-0.9-0.3
				c-0.3,0-0.6,0-0.9,0.1c-0.3,0.1-0.6,0.2-0.8,0.4c-0.3,0.2-0.5,0.4-0.6,0.7c-1.7,2.7-3.2,5.6-4.8,8.3c-0.2,0.3-0.3,0.6-0.3,0.9
				c0,0.3,0,0.6,0.1,0.9c0.1,0.3,0.2,0.6,0.4,0.8c0.2,0.3,0.4,0.5,0.7,0.6c2.2,1.4,4.6,2.6,6.8,3.9c0,0,0.1,0.1,0.1,0.1
				c0,0,0,0.1,0,0.1l-0.2,0.6l0,0c-0.1,0.3-0.1,0.6-0.2,0.9c-0.1,0.5-0.2,1.1-0.2,1.6c-0.1,0.5-0.1,1.1-0.1,1.6
				c0,0.6-0.1,1.1-0.1,1.6s0,1.1,0.1,1.6s0.1,1.1,0.1,1.6s0.1,1.1,0.2,1.6s0.2,1.1,0.3,1.6c0,0,0,0.1,0,0.1c0,0,0,0.1-0.1,0.1
				c-2.5,1.3-5,2.9-7.5,4.3l0.1,0.1l-0.1,0.1c-0.4,0.5-0.6,1.1-0.5,1.8c0,0.3,0.1,0.6,0.3,0.9l5.2,9l0.1-0.1l0.2,0.1
				c0.5,0.4,1.1,0.6,1.8,0.5c0.3,0,0.6-0.1,0.9-0.3c2.3-1.2,4.6-2.6,6.8-3.9c0,0,0.1,0,0.1,0c0,0,0.1,0,0.1,0
				c2.3,2.3,5.1,4.1,8.1,5.3c1,0.4,2,0.8,3,1.1c0,0,0.1,0,0.1,0.1c0,0,0,0.1,0,0.1v7.9c0,0.3,0.1,0.6,0.2,0.9
				c0.1,0.3,0.3,0.6,0.5,0.8c0.2,0.2,0.5,0.4,0.8,0.5c0.3,0.1,0.6,0.2,0.9,0.2h9.6c0.3,0,0.6-0.1,0.9-0.2c0.3-0.1,0.6-0.3,0.8-0.5
				c0.2-0.2,0.4-0.5,0.5-0.8c0.1-0.3,0.2-0.6,0.2-0.9v-7.9c0,0,0-0.1,0-0.1c0,0,0.1-0.1,0.1-0.1l0,0c2.1-0.6,4-1.4,5.9-2.5
				c1.9-1.1,3.6-2.4,5.2-3.9c0,0,0.1,0,0.1,0c0,0,0.1,0,0.1,0l6.8,3.9c0.3,0.2,0.6,0.3,0.9,0.3c0.6,0.1,1.3-0.1,1.8-0.5
				c0.2-0.2,0.4-0.4,0.6-0.7c1.8-2.9,3.5-6,5.2-9l-0.1,0c0-0.1,0-0.2,0-0.2c0-0.3,0-0.6-0.1-0.9c-0.1-0.3-0.2-0.6-0.4-0.8
				c-0.2-0.2-0.4-0.5-0.7-0.6l-6.8-3.9c0,0-0.1-0.1-0.1-0.1c0,0,0-0.1,0-0.1l0.2-0.7l0,0c0.1-0.3,0.1-0.6,0.2-0.9
				c0.1-0.5,0.2-1.1,0.2-1.6s0.1-1.1,0.1-1.6s0.1-1.1,0.1-1.6s0-1.1-0.1-1.6s-0.1-1.1-0.1-1.6s-0.1-1.1-0.2-1.6s-0.2-1.1-0.3-1.6
				c0,0,0-0.1,0-0.1c0,0,0.1-0.1,0.1-0.1l6.8-3.9c0.3-0.2,0.5-0.4,0.7-0.6c0.2-0.3,0.3-0.5,0.4-0.8c0.2-0.6,0.2-1.2,0-1.7
				c-1.6-3-3.5-6-5.2-9l-0.1,0.1l-0.2-0.1c-0.3-0.2-0.5-0.3-0.8-0.4c-0.3-0.1-0.6-0.1-0.9-0.1c-0.3,0-0.6,0.1-0.9,0.3l-0.5,0.3l0,0
				l-6.3,3.6c0,0-0.1,0-0.1,0c0,0-0.1,0-0.1-0.1l0,0c-1.6-1.5-3.3-2.8-5.1-3.9c-1.9-1.1-3.9-1.9-5.9-2.5c0,0-0.1,0-0.1-0.1
				c0,0,0-0.1,0-0.1v-7.9c0-1.3-1.1-2.4-2.4-2.4h-9.6c-0.3,0-0.6,0.1-0.9,0.2c-0.3,0.1-0.6,0.3-0.8,0.5c-0.4,0.4-0.7,1.1-0.7,1.7
				v7.8c0,0,0,0.1,0,0.1c0,0-0.1,0.1-0.1,0.1l0,0C184.1,188.5,183,188.9,182,189.3L182,189.3z"/>
			<path class="st3" d="M161.1,342c2.5-2.5,6.7-2.5,9.2,0c2.5,2.5,2.5,6.7,0,9.2c-2.5,2.5-6.7,2.5-9.2,0c-1.2-1.2-1.9-2.9-1.9-4.6
				C159.2,344.9,159.9,343.2,161.1,342z M162.5,335.5c-0.9,0.3-1.7,0.6-2.6,1.1c-0.8,0.5-1.6,1-2.2,1.7c-0.1,0.1-0.3,0.1-0.5,0.1
				l-3-1.8l0,0c-0.2-0.1-0.4-0.1-0.6-0.1c-0.2,0.1-0.4,0.2-0.5,0.4l0,0l-2.2,3.7c-0.2,0.4-0.1,0.8,0.3,1l0,0l3,1.7
				c0.2,0.1,0.2,0.3,0.2,0.4l0,0c-0.5,1.8-0.5,3.7,0,5.6c0,0.2,0,0.4-0.2,0.5l-3,1.7l0,0c-0.3,0.2-0.5,0.6-0.3,1l2.1,3.7l0,0
				c0.2,0.3,0.6,0.5,1,0.3l0,0l3-1.7c0.2-0.1,0.4-0.1,0.5,0.1c1.4,1.3,3,2.3,4.8,2.8c0.2,0,0.3,0.2,0.3,0.4v3.5
				c0,0.4,0.3,0.8,0.8,0.8h4.3c0.4,0,0.7-0.3,0.8-0.8V358c0-0.2,0.1-0.3,0.3-0.4c1.8-0.5,3.4-1.5,4.8-2.8c0.1-0.1,0.4-0.1,0.5,0
				l3,1.7c0.4,0.2,0.8,0.1,1-0.3l0,0l2.1-3.7l0,0c0.2-0.4,0.1-0.8-0.3-1l-3-1.8c-0.2-0.1-0.2-0.3-0.2-0.4l0,0
				c0.1-0.5,0.2-0.9,0.2-1.4c0.2-1.4,0.1-2.8-0.2-4.2c0-0.2,0-0.4,0.2-0.5l3-1.7c0.3-0.2,0.5-0.6,0.3-1l0,0l-2.1-3.7l0,0
				c-0.2-0.3-0.6-0.5-1-0.3l0,0l-3,1.8c-0.2,0.1-0.4,0.1-0.5-0.1c-1.3-1.3-3-2.3-4.8-2.8c-0.2,0-0.3-0.2-0.3-0.4v-3.5
				c0-0.4-0.3-0.7-0.8-0.8h-4.3c-0.4,0-0.8,0.3-0.8,0.8v3.5C162.7,335.4,162.6,335.5,162.5,335.5L162.5,335.5z"/>
			<path class="st2" d="M357.7,28.7h34.7c0.8,0,1.5,0.3,2.1,0.8c0.2,0.1,0.3,0.2,0.4,0.3c0,0.1,0.1,0.2,0.1,0.3
				c0.4,0.6,0.7,1.3,0.6,2v20.3c0,0.9-0.4,1.7-1,2.3l0,0c-0.6,0.6-1.4,1-2.3,1h-34.6c-1.8,0-3.3-1.5-3.3-3.3V31.9
				c0-0.7,0.2-1.4,0.6-2c0-0.1,0.1-0.2,0.1-0.2c0.1-0.1,0.2-0.2,0.4-0.3C356.2,28.9,356.9,28.6,357.7,28.7L357.7,28.7z M392.9,53.6
				L379.1,43l-3.4,2.6l0,0l-0.1,0.1h-0.2h-0.1l0,0h-0.1h-0.3h-0.1l0,0h-0.1h-0.2l-0.1-0.1l0,0L371,43l-13.8,10.6
				c0.1,0.1,0.3,0.1,0.5,0.1h34.7C392.6,53.6,392.7,53.6,392.9,53.6L392.9,53.6z M380.3,42.1l13.4,10.2V31.9L380.3,42.1z
				 M356.4,52.3l13.4-10.2l-13.4-10.2V52.3z M375,43.6l17-13h-34L375,43.6z"/>
			<path class="st2" d="M42.9,133.8c0.6-2.4,1.7-4.7,3.1-6.8c0.6-0.9,1.3-1.6,2.2-2.3c0.2-0.2,0.5-0.3,0.8-0.3l0,0
				c0.3,0,0.6,0,0.8,0.2c1.1,0.7,2.1,1.5,3,2.4c0.8,0.9,1.5,1.9,2,3c0.5,1.1,0.7,2.3,0.8,3.6c0,1.2-0.2,2.3-0.8,3.3l0,0l-12,20.8
				c-0.6,1-1.4,1.8-2.4,2.4c-1.1,0.6-2.3,1-3.5,1.1c-1.2,0.1-2.4,0.1-3.6-0.2c-1.3-0.3-2.5-0.8-3.6-1.4c-0.2-0.1-0.4-0.3-0.6-0.6
				l0,0c-0.1-0.2-0.2-0.5-0.2-0.8l0,0c0.2-1.7,0.8-3.3,1.7-4.7c1-1.7,2.1-3.2,3.5-4.5c0.4-0.5,1.1-0.6,1.7-0.2
				c0.1,0,3.3,1.9,4.1,0.5l6.2-10.6c0.3-0.6-0.1-1.3-0.7-1.9c-0.5-0.5-1.1-1-1.8-1.4C43.1,135,42.8,134.4,42.9,133.8L42.9,133.8z
				 M47.3,127.9c-1.3,1.9-2.3,3.9-2.9,6.1c0.7,0.4,1.4,1,2,1.6c1,1,1.8,2.4,1,3.8l-6.2,10.7c-1.5,2.4-5.4,0.5-6.1,0.1
				c-1.2,1.2-2.3,2.6-3.2,4.1c-0.7,1.2-1.2,2.5-1.5,3.9c1,0.5,2,0.9,3.1,1.2c1,0.2,2,0.3,3.1,0.2c1-0.1,2-0.4,2.9-0.9
				c0.8-0.4,1.4-1,1.9-1.8l12-20.8l0,0c0.4-0.8,0.6-1.7,0.6-2.6c0-1-0.2-2.1-0.6-3c-0.4-0.9-1-1.8-1.7-2.6c-0.8-0.8-1.7-1.5-2.6-2
				C48.4,126.6,47.8,127.2,47.3,127.9L47.3,127.9z"/>
			<path class="st3" d="M628,374.5c0.1-0.6-0.4-1.2-1-1.2s-1.2,0.4-1.2,1c0,0.1,0,0.1,0,0.2v2.6h-2.6c-0.6,0.1-1.1,0.6-1,1.2
				c0.1,0.5,0.5,1,1,1h2.6v2.6c-0.1,0.6,0.4,1.2,1,1.2s1.2-0.4,1.2-1c0-0.1,0-0.1,0-0.2v-2.6h2.6c0.6-0.1,1.1-0.6,1-1.2
				c-0.1-0.5-0.5-1-1-1H628V374.5z"/>
			<path class="st3" d="M270,221.4c0-0.6-0.5-1.1-1.1-1.1c-0.6,0-1.1,0.5-1.1,1.1v2.6h-2.6c-0.6,0-1.1,0.5-1.1,1.1
				c0,0.6,0.5,1.1,1.1,1.1h2.6v2.6c0,0.6,0.5,1.1,1.1,1.1c0.6,0,1.1-0.5,1.1-1.1v-2.6h2.6c0.6,0,1.1-0.5,1.1-1.1
				c0-0.6-0.5-1.1-1.1-1.1c0,0,0,0,0,0H270V221.4z"/>
			<path class="st3" d="M146,237.9c0.1-0.6-0.4-1.2-1-1.2c-0.6-0.1-1.2,0.4-1.2,1c0,0.1,0,0.1,0,0.2v2.6h-2.6
				c-0.6,0-1.1,0.5-1.1,1.1c0,0.6,0.5,1.1,1.1,1.1h2.6v2.6c-0.1,0.6,0.4,1.2,1,1.2c0.6,0.1,1.2-0.4,1.2-1c0-0.1,0-0.1,0-0.2v-2.6
				h2.6c0.6,0,1.1-0.5,1.1-1.1c0-0.6-0.5-1.1-1.1-1.1H146V237.9z"/>
			<path class="st3" d="M271.2,17.7c0.1-0.6-0.4-1.2-1-1.2c-0.6-0.1-1.2,0.4-1.2,1c0,0.1,0,0.1,0,0.2v2.6h-2.6
				c-0.6,0.1-1.1,0.6-1,1.2c0.1,0.5,0.5,1,1,1h2.6v2.6c0.1,0.6,0.6,1.1,1.2,1c0.5-0.1,1-0.5,1-1v-2.6h2.6c0.6,0.1,1.2-0.4,1.2-1
				c0.1-0.6-0.4-1.2-1-1.2c-0.1,0-0.1,0-0.2,0h-2.6L271.2,17.7z"/>
			<path class="st3" d="M97.9,121.1c0.1-0.6-0.4-1.2-1-1.2c-0.6-0.1-1.2,0.4-1.2,1c0,0.1,0,0.1,0,0.2v2.6H93c-0.6,0-1.1,0.5-1.1,1.1
				c0,0.6,0.5,1.1,1.1,1.1h2.6v2.6c-0.1,0.6,0.4,1.2,1,1.2c0.6,0.1,1.2-0.4,1.2-1c0-0.1,0-0.1,0-0.2V126h2.6c0.6,0,1.1-0.5,1.1-1.1
				c0-0.6-0.5-1.1-1.1-1.1h-2.6V121.1z"/>
			<path class="st3" d="M80.2,11c0.1-0.6-0.4-1.2-1-1.2s-1.2,0.4-1.2,1c0,0.1,0,0.1,0,0.2v2.6h-2.6c-0.6,0-1.1,0.5-1.1,1.1
				c0,0.6,0.5,1.1,1.1,1.1h2.6v2.6c0.1,0.6,0.6,1.1,1.2,1c0.5-0.1,1-0.5,1-1v-2.6h2.6c0.6,0,1.1-0.5,1.1-1.1c0-0.6-0.5-1.1-1.1-1.1
				h-2.6V11z"/>
			<path class="st3" d="M20.7,226.1c0.1-0.6-0.4-1.2-1-1.2c-0.6-0.1-1.2,0.4-1.2,1c0,0.1,0,0.1,0,0.2v2.6h-2.6
				c-0.6,0-1.1,0.5-1.1,1.1c0,0.6,0.5,1.1,1.1,1.1h2.6v2.6c0.1,0.6,0.6,1.1,1.2,1c0.5-0.1,1-0.5,1-1V231h2.6c0.6,0,1.1-0.5,1.1-1.1
				c0-0.6-0.5-1.1-1.1-1.1c0,0,0,0,0,0h-2.6V226.1z"/>
			<path class="st3" d="M561,132.5c0.1-0.6-0.4-1.2-1-1.2s-1.2,0.4-1.2,1c0,0.1,0,0.1,0,0.2v2.6h-2.6c-0.6,0-1.1,0.5-1.1,1.1
				c0,0.6,0.5,1.1,1.1,1.1h2.6v2.7c-0.1,0.6,0.4,1.2,1,1.2s1.2-0.4,1.2-1c0-0.1,0-0.1,0-0.2v-2.6h2.6c0.6,0,1.1-0.5,1.1-1.1
				c0-0.6-0.5-1.1-1.1-1.1H561V132.5z"/>
			<path class="st3" d="M574.9,278c0.1-0.6-0.4-1.2-1-1.2s-1.2,0.4-1.2,1c0,0.1,0,0.1,0,0.2v2.6H570c-0.6,0-1.1,0.5-1.1,1.1
				c0,0.6,0.5,1.1,1.1,1.1h2.6v2.6c-0.1,0.6,0.4,1.2,1,1.2s1.2-0.4,1.2-1c0-0.1,0-0.1,0-0.2v-2.6h2.6c0.6,0,1.1-0.5,1.1-1.1
				c0-0.6-0.5-1.1-1.1-1.1h-2.6V278z"/>
			<path class="st5" d="M299,180.9c0-0.6-0.5-1.1-1.1-1.1c-0.6,0-1.1,0.5-1.1,1.1c0,0,0,0,0,0v2.6h-2.6c-0.6-0.1-1.2,0.4-1.2,1
				c-0.1,0.6,0.4,1.2,1,1.2c0.1,0,0.1,0,0.2,0h2.6v2.6c0,0.6,0.5,1.1,1.1,1.1c0.6,0,1.1-0.5,1.1-1.1c0,0,0,0,0,0v-2.6h2.6
				c0.6-0.1,1.1-0.6,1-1.2c-0.1-0.5-0.5-1-1-1H299V180.9z"/>
			<path class="st5" d="M218,98.6c0.1-0.6-0.4-1.2-1-1.2s-1.2,0.4-1.2,1c0,0.1,0,0.1,0,0.2v2.6h-2.6c-0.6-0.1-1.2,0.4-1.2,1
				s0.4,1.2,1,1.2c0.1,0,0.1,0,0.2,0h2.6v2.6c0.1,0.6,0.6,1.1,1.2,1c0.5-0.1,1-0.5,1-1v-2.6h2.6c0.6,0.1,1.2-0.4,1.2-1
				s-0.4-1.2-1-1.2c-0.1,0-0.1,0-0.2,0H218V98.6z"/>
			<path class="st5" d="M364.8,116.4c0-0.6-0.5-1.1-1.1-1.1c-0.6,0-1.1,0.5-1.1,1.1c0,0,0,0,0,0v2.6h-2.6c-0.6-0.1-1.2,0.4-1.2,1
				c-0.1,0.6,0.4,1.2,1,1.2c0.1,0,0.1,0,0.2,0h2.6v2.6c0,0.6,0.5,1.1,1.1,1.1c0.6,0,1.1-0.5,1.1-1.1v-2.6h2.6c0.6-0.1,1.1-0.6,1-1.2
				c-0.1-0.5-0.5-1-1-1h-2.6V116.4z"/>
			<path class="st5" d="M436.9,344.1c0.1-0.6-0.4-1.2-1-1.2c-0.6-0.1-1.2,0.4-1.2,1c0,0.1,0,0.1,0,0.2v2.6h-2.6
				c-0.6-0.1-1.2,0.4-1.2,1c-0.1,0.6,0.4,1.2,1,1.2c0.1,0,0.1,0,0.2,0h2.6v2.6c-0.1,0.6,0.4,1.2,1,1.2c0.6,0.1,1.2-0.4,1.2-1
				c0-0.1,0-0.1,0-0.2V349h2.6c0.6-0.1,1.1-0.6,1-1.2c-0.1-0.5-0.5-1-1-1h-2.6V344.1z"/>
			<path class="st5" d="M590,342.9c0.1-0.6-0.4-1.2-1-1.2s-1.2,0.4-1.2,1c0,0.1,0,0.1,0,0.2v2.6h-2.6c-0.6-0.1-1.2,0.4-1.2,1
				c-0.1,0.6,0.4,1.2,1,1.2c0.1,0,0.1,0,0.2,0h2.6v2.6c-0.1,0.6,0.4,1.2,1,1.2s1.2-0.4,1.2-1c0-0.1,0-0.1,0-0.2v-2.6h2.6
				c0.6-0.1,1.1-0.6,1-1.2c-0.1-0.5-0.5-1-1-1H590V342.9z"/>
			<path class="st11" d="M433.4,249.5l8-7.9c2.6-5,4-9.8,2.8-15.3c-2.1-8.8,4.1-19.6-1.7-29.6c-4.5-7.8-10.9-7.6-15.2-6.3
				c-3-6.4-11.5-10-28.5-7.8c0,0-21,3.4-20.8,20.1c0,0-15.5,16.6-2.2,28c0,0,2.8,16.6,9.5,19.9C388.6,252,416.9,249.9,433.4,249.5z"
				/>
			<path class="st12" d="M403,185.2c20.6-1.2,24.3,5.3,24.3,5.3c-3-6.4-11.5-10-28.5-7.8c0,0-19.8,3.2-20.7,18.7
				C378,201.3,384.3,186.3,403,185.2z"/>
			<path class="st12" d="M444.9,210.8L444.9,210.8c0.4-4.6,0.3-9.4-2.4-13.9c-4.5-7.8-10.9-7.6-15.2-6.3
				C427.2,190.5,443,192.1,444.9,210.8z"/>
			<path class="st13" d="M475.2,272.6c4.8,1.9,9.1,4.9,12.3,8.9c3.1,3.7,40.7,75.8,43.1,80.5s2.4,16.5-3.3,23.9
				c-2.2,2.8-8.6,10.8-15.5,19.4h-22.5c8.2-12.3,18.9-28.3,19.6-29.6c1.2-2.1,1.9-4.2-0.4-7.7s-32.4-40.3-32.4-40.3
				S461.3,286.2,475.2,272.6z"/>
			<path class="st1" d="M435.6,266.8c0,0,37.9,5.4,39.6,5.8s4.4,4.2,5.9,6.8s3.2,39.6,4.1,50s-2.5,55.6-1.5,67.7
				c0.2,2,0.5,4.9,0.9,8.2H371.1c-1.5-13.4-11.6-55.4-12.4-65.5c-0.9-10.4-5.1-47.2-4.1-50s3.2-7,4.7-7.7s38.5-12.2,38.5-12.2
				l19,2.1L435.6,266.8z"/>
			<path class="st5" d="M435.6,266.8l6.3,0.9c-0.2,1-0.6,1.8-1.3,2.6c-14.7,16.9-29.8,18.1-47.1,3.9c-0.8-0.6-1.4-1.4-1.7-2.3l6-1.9
				l19,2.1L435.6,266.8z"/>
			<path class="st7" d="M429,230.3l0.3,9.4l1.8,22.2c0.1,1.4,1.8,3.3,4.5,4.9c-12.4,14.2-23.2,15.1-37.8,3.1c2.5-2,3.8-4.1,3.6-5.6
				l-1.8-22.2l-1.2-9.4c0,0,7.6,0.6,15.5,1.7C421.5,232.1,429,230.3,429,230.3z"/>
			<path class="st13" d="M438.7,267.2c0,0-4.4,19-4.7,22.8s-5.5,42.7-4.9,49.3c0.2,3,6.2,33.3,12.6,65.9h51.7
				c-1.3-7.9-2.4-14.8-2.9-18.7c-2.1-13.9-3.5-42.8-3-60.7s-4-44.6-4.5-47.2s-5.6-5.7-7.2-6.3L438.7,267.2z"/>
			<path class="st6" d="M433.1,298.2c-1.5,12.8-4.4,36.2-4,41.1c0,0,25.1-27.4,24.8-30.1s-10.6-22.8-10.6-22.8
				S438.8,291.5,433.1,298.2z"/>
			<path class="st4" d="M437.5,267.1c0,0,1.1-1,1.5-1s7.2,2.3,7.2,2.3s10,15.6,10.1,17.6s-24.4,22.1-24.4,22.1l2.2-18.4
				c0,0,3.6-18,4.7-22.4L437.5,267.1z"/>
			<path class="st13" d="M359.7,282c-4.4,2.6-8.1,6.3-10.7,10.8c-2.4,4.2-27.8,81.4-29.4,86.4s0.3,16.7,7.1,23l3.3,3h28.1
				c-7.5-8-14.2-15.2-14.9-16c-1.6-1.9-2.5-3.8-0.9-7.7s25.4-45,25.4-45S375.6,293.2,359.7,282z"/>
			<path class="st13" d="M394.8,270.8c0,0,7.4,18,8.4,21.7s12.4,41.2,12.9,47.8c0.2,2.9-0.6,32.5-1.7,64.9h-51.1
				c0-3.4,0-6.2-0.1-8.2c-0.2-14.1-3.5-42.8-6.9-60.4s-3.3-44.6-3.2-47.3s4.6-6.5,6-7.4L394.8,270.8z"/>
			<path class="st6" d="M405.4,300.4c3.6,12.4,10.2,35,10.6,40c0,0-29.3-22.9-29.3-25.6s6.8-24.2,6.8-24.2S398.6,294.8,405.4,300.4z
				"/>
			<path class="st4" d="M396,270.5c-0.5-0.3-1.1-0.6-1.7-0.8c-0.4,0-6.8,3.4-6.8,3.4s-7.3,17-7.1,19s27.7,17.8,27.7,17.8l-5.1-17.8
				c0,0-6.5-17.2-8.3-21.4L396,270.5z"/>
			<path class="st7" d="M382.1,236l-0.6,0.1l0,0c-4.1,1.2-6.5,5.6-5.2,9.7c1.2,4.1,5.6,6.5,9.7,5.2c4.1-1.2,6.5-5.6,5.2-9.7
				c-0.5-1.7-1.6-3.2-3.1-4.2c0.4,2.3,0.3,5.1-2.6,5.7l-0.3-4.5c-0.2-1.5-1.5-2.5-2.9-2.4C382.2,236,382.1,236,382.1,236z"/>
			<path class="st7" d="M438.2,230.9h0.6l0,0c4.3,0.5,7.4,4.4,6.9,8.7s-4.4,7.4-8.7,6.9c-4.3-0.5-7.4-4.4-6.9-8.7
				c0.2-1.8,1-3.5,2.3-4.7c0,2.3,0.6,5.1,3.6,5.1l-0.5-4.5c-0.1-1.5,1.1-2.7,2.5-2.8C438.1,230.9,438.1,230.9,438.2,230.9z"/>
			<path class="st10" d="M406.6,194.6L406.6,194.6c-14.7,1.4-25.5,14.3-24.2,29l2.2,24.2c1.4,14.7,14.3,25.5,29,24.2l0,0
				c14.7-1.4,25.5-14.3,24.2-29l-2.2-24.2C434.2,204.2,421.2,193.4,406.6,194.6z"/>
			<path class="st14" d="M384,211.8c-1.5,3.8-2,7.9-1.6,11.9l2.2,24.2c1.3,13.7,12.7,24.2,26.5,24.3c-15.5-1.2-18.3-19.5-19.5-29.1
				s3.4-10.8,4.9-11.3c0.8-0.3,11.3-1.2,18.6-3c5.6-1.4,11.3-8.8,11.3-8.8s3.1,8.2,6.2,12.2c1.5,1.8,3.2,3.5,5,5l-0.7-6l0.1-6
				l-5-6.5c0,0,1.7,0.1,3.7,0c-0.2-1.7-0.5-3.4-1-5c-3.1-1-6-2.3-8.8-4c-5.9-3.8-34.2,1-38.8,1C385.9,210.8,384.9,211.2,384,211.8z"
				/>
			<path class="st11" d="M508.1,96.9c0,0-11.4-9.3-0.2-31.1c10.3-20.1,23.9-24.5,39.6-23c15.2,1.5,20.8,16.1,21,20.7
				c0,0,15.1,3.4,14.2,19.4s-18.8,32.4-18.8,32.4l-44.5-4.8L508.1,96.9z"/>
			<path class="st11" d="M517.2,102.6c0,0-6.5-10.6-4.6-23.2l14.4,1.2L517.2,102.6z"/>
			<path class="st11" d="M566,110.6c0,0,9.5-8,11.8-20.5l-14.1-3.4L566,110.6z"/>
			<path class="st12" d="M526.3,49.7c15.1-6.6,32.8-1.1,41.5,12.9l0.6,1c-0.1-4.6-5.8-19.2-21-20.7c-14.4-1.4-27,2.2-37,18.4
				C514.7,56.2,520.2,52.2,526.3,49.7z"/>
			<path class="st12" d="M568.3,62.2l-0.4,0.4l0.5,0.4C568.3,62.8,568.3,62.5,568.3,62.2z"/>
			<path class="st12" d="M569.7,64c3.3,2.6,10.2,9,12.9,18C582.8,69.6,573.2,65.2,569.7,64z"/>
			<path class="st15" d="M500.5,270.4l-3.5,31.1c0,0,5.4,72.9,8,103.8h39.8l0.9-124.1L500.5,270.4z"/>
			<path class="st15" d="M521.6,297.4l-1.8,11l3.5,96.9h48.5c0.8-6.7,1.5-12.4,2.1-16.6c3.6-25.5,4.9-60.9,4.9-69.3
				s-9.7-20.8-13.1-21.7S521.6,297.4,521.6,297.4z"/>
			<path class="st13" d="M505.4,147.8c0,0-1.6-3.1-3-2.5s-45.1,65.1-46.6,70.7s-0.9,15.4,7.6,29.1s26.6,47.2,27.3,47.9
				s10.6-6,11.6-7.9c0,0,0.4-0.6-0.2-1.9s-22.2-52.4-23.6-56.1s37.1-49.2,39-52.9S526.4,151.5,505.4,147.8z"/>
			<path class="st1" d="M540.6,129.3l-19.1,13.6c0,0-13.6,53.4-13.7,55.8s-5.3,31.9-5.3,31.9s19.1,7.6,21.8,0.3s33.4-59.5,34.9-67.6
				s-2.1-27.6-3.9-29.7S540.6,129.3,540.6,129.3z"/>
			<path class="st13" d="M521.3,138.3c0,0-17.3,6.1-18.9,7s-10.9,35-11.7,38.2s4.3,61.6,4.3,66.7s-6.5,69.6-6.7,70.7
				c-0.2,1,0.5,2,1.5,2.2c0.2,0,0.3,0,0.5,0c1.5,0,18.5-32,19.9-35.6s-3-58.5-3-58.5l11.6-78.6L521.3,138.3z"/>
			<path class="st6" d="M572.7,146.9c0,0,24.8,25,25.7,26.5s-24.9,86.9-25.2,90.9s12.7,62,13.2,63.5c0,0.5-0.1,1.1-0.4,1.5
				c-0.5,0.8-1.2,1.4-2,1.8c-0.5,0.4-61.2-9.4-66.1-12.4s-15.3-50.2-15.3-56.6s3.7-30.8,3.7-30.8l29.9-50.6
				C536.2,180.9,557.7,148.5,572.7,146.9z"/>
			<path class="st13" d="M568.8,143c0,0,28.7,28.9,29.7,30.4s-24.9,86.9-25.2,90.9s12.7,62,13.2,63.5c0,0.5-0.1,1.1-0.4,1.5
				c-0.5,0.8-1.2,1.4-2,1.8c-0.3,0.2-16.4-2.3-32.7-5.2c14.1-20.4,13.4-54.1,12.2-56.2c-1.4-2.4-9-7.5-7.8-7.9s8.9-0.6,9.5-2.5
				s11.4-62.4,11.4-62.4l7.3-4.9c0,0,3.2-23.5,1-27s-17.4-16.4-17.5-16.6C569.1,147.7,567,143.2,568.8,143z"/>
			<path class="st6" d="M595,169.6c2.3,1.9,4.5,4,6.3,6.4c2.6,3.4,35,71.1,35.6,77.4s-1.7,17-13.4,30.5s-37.4,47.1-38.2,47.8
				s-10.5-8.4-11.4-10.6c0,0-0.4-0.8,0.5-2s33.5-53.6,35.5-57.4s-32.2-60.3-33.5-64.7S571.3,170.1,595,169.6z"/>
			<path class="st7" d="M558.7,105.5c0.2,9.5-2.3,19.2-1.7,28.7c0.1,1.9,1,2.6,3.4,4.1c3.3,4.9-5.7,20.4-11.7,21.4
				c-0.4,0.1-10.1-7.5-16.9-9.3c-3.5-0.9-6.4,3.6-6.7,3.4c-1.4-1,1.6-9.1,0.6-12.1c1.2-0.3,2.3-3,3.1-3.8c5.5-5.1,3.7-17.9-0.8-22.7
				C524.8,111.6,558.7,105.5,558.7,105.5z"/>
			<path class="st5" d="M565,142c-0.8,2.1-19.1,26.6-19.1,26.6s-0.7,0.9-1.6-0.2S532,151.5,532,151.5l25.1-18.7l-0.6-4.3
				C556.9,128.1,565.7,139.9,565,142z"/>
			<path class="st5" d="M531.3,134.1C531.3,134.1,531.3,134.1,531.3,134.1c-8.7-0.6-10,23.7-8.5,28.5c0,0,5.2-8,8.8-11.1
				C533.3,149.9,528.2,139,531.3,134.1z"/>
			<path class="st2" d="M562.8,135.1c0,0-32.1,39.8-34.4,43.1s-19.7,44.4-22.1,53.2c0,0,26.8-33.5,30.6-36.6s17.8-14.7,17.8-14.7
				c0.2-0.4,0.3-0.9,0.2-1.3c-0.2-0.5-4.1-9.4-4.1-9.4s11.7,1.7,12.7,1.7s6.3-26.1,6.5-26.9S562.8,135.1,562.8,135.1z"/>
			<path class="st2" d="M531.4,134c0,0-8.5,2-9.8,2.7s-12.1,18.7-12.4,20.2c-0.1,0.4,0.1,0.8,0.5,1c1.1,0.6,2.1,1.2,3.1,1.9
				c0.2,0.2-3.8,0.7-3.8,0.7s-0.5,0.2-0.4,0.9s-1.4,67.5-1.4,67.5s13.2-73.9,15.2-78.7s7.2-12.6,7.2-12.6L531.4,134z"/>
			<circle class="st9" cx="517" cy="99.3" r="7.6"/>
			<circle class="st9" cx="567.5" cy="99" r="7.6"/>
			<path class="st10" d="M539.6,52.9L539.6,52.9c14.2-0.1,26,12.6,26.1,28.1l0.1,25.7c0.1,15.5-11.5,28.3-25.8,28.4l0,0
				c-14.2,0.1-26-12.6-26.1-28.1l-0.1-25.7C513.8,65.8,525.4,53,539.6,52.9z"/>
			<path class="st14" d="M564.7,73.3c0.7,2.5,1,5.1,1,7.6l0.1,25.7c0.1,14.3-9.7,26.2-22.4,28.1l-2.2,0.2l0,0
				c14.2-1.4,17.2-20,17.2-25.6V94.9c0-2.1-7.5-6.9-9.5-10.9c-1.3-2.9-2.1-6.1-2.4-9.3c0,0-10.5,0-17.4,3.2
				c-8.2,3.8-15.3,10.9-15.3,10.9v-7.5c-0.1-7.8,2.9-15.3,8.4-20.9c13,2.5,34.5,6.8,36,7.8C559,68.7,561.7,70.8,564.7,73.3z"/>
			<path class="st11" d="M343.3,361.2c0,0-4.2-79.4-3.4-100.8c1.1-28.7-14.1-69.2-59.6-52.5c0,0-10.4,9-15.2,16.5
				c-4.2,6.5-7.9,42.3-5.2,123.3l71.2,2.4c0,0,0.5,2.8,4,6.1C337.4,358.4,340.3,360.1,343.3,361.2z"/>
			<path class="st12" d="M330.5,344.6c0,0,1.1-89.6-2.9-99.3c-1.4-3.4-42.5-5.5-42.5-5.5l-0.2,89.2L330.5,344.6z"/>
			<path class="st12" d="M266.3,237.3c4.1-16.9,15.9-26.1,29.8-33c-5.4,0.5-10.8,1.8-15.9,3.7c0,0-10.4,5.6-15.2,16.5
				c-3.1,7-10.9,27.3-8.2,108.3h7.1c0.3-5,0.5-10.1,0.5-15.1C265.1,291.5,260.1,262.9,266.3,237.3z"/>
			<path class="st1" d="M276.6,287.8c9.7,3,23,6.7,34.5,12.4c0.8,0.4-0.8,3.4-0.1,3.9c1.8,1.2,3.5,2.5,5,4.1
				c5.4,5.3,16.3,46.8,15.3,50.9c-1.6,6.6-15.3,24.9-15.3,24.9c-2.7,5.3-6.1,13-9.5,21.3h-68.4c4.8-15.5,6.5-26,6.7-35.5l0,0
				c3.6-32.2-13.6-39.2-13.6-39.2l17.9-42.1c7-2.5,20.9-1.5,20.9-1.5C273.6,287,273.3,286.8,276.6,287.8z"/>
			<path class="st2" d="M306.6,405.2h-9.7c1.8-4.8,10.2-27.6,12-32.5c-8.1-1.4-19.3-3.4-21.3-3.8s-9.6,3.8-9.6,3.8l0.8-4.9l-8.1,8.2
				l13.9-25.9c0,0,22.7,5.1,27.5,6s1.9,0.2,2.8,0.1c2.7-7.5-1.7-9.6-1.2-13.3s0.7-39,0.7-39c2.9,1.5,4.2,4.8,5.9,10
				c1.1,3.4,6.9,25.9,9.3,39.2c0.6,3.2,1,5.5,1.3,7.4C325.5,374.4,313.4,388.1,306.6,405.2z"/>
			<path class="st7" d="M293.5,249l-3.4,10.3c0,0-5.2,24.3-6.4,27.4c-0.4,1.1-1.8,1.4-3.9,1.4c3,4.3,8.9,11,17.4,12.6
				c5.4,1,9.2,0,11.8-1.5c-1.8-1-3.6-2.1-3.5-3c0.1-8.3,1.5-22.9,6-25.6C316.7,267.5,293.5,249,293.5,249z"/>
			<path class="st5" d="M281.5,288c-1.6,0.1-3.3,0.1-4.9-0.2c2.9,4,6.6,7.3,10.9,9.8c13.4,8.5,19.9,3.9,21.9,1.7
				c-1.2-0.6-2.3-1.3-3.3-2.1l0,0C293.7,303.3,281.5,288,281.5,288L281.5,288z"/>
			<path class="st6" d="M310.6,299.9c0,0,5.4,53.9,4.7,58.4s-9.2,27-16.6,46.9h12.8c2.5-4.9,4.5-8.7,4.8-9.6
				c0.2-0.6,1.1-2.3,2.3-4.6c2.2-4.1,5.5-9.8,7.9-13.9c7.9-12.9,7.8-9.9,5.1-25c-2.4-13.3-9.8-37.9-10.8-41.4
				C319.2,305.6,312,299.5,310.6,299.9z"/>
			<path class="st13" d="M309.9,374.9c-1.8,4.9-3.8,10.5-5.9,16.3c2.7,0.1,5.5,0.5,8.1,1.2c3.9,1.5,4.3,3.3,4.3,3.3
				c0.2-0.6,1.1-2.3,2.3-4.6c2.2-4.1,5.5-9.8,7.9-13.9c2.4-3.9,4-6.3,5.1-8.2c-1.5,1.3-3.9,3.3-5.1,3.7
				C325.2,373,314.2,374.4,309.9,374.9z"/>
			<path class="st6" d="M274.6,286.7c0,0,9.8,47.6,11.2,61.4s-3,23.7-7.9,34.1c-1.6,3.5-6.9,12.4-13.4,23h-30.2l3.2-74.7l-8.7-2
				c0.5-3.8,0.9-6.9,1.2-9l17.1-30.2C247.2,289.3,253.6,284,274.6,286.7z"/>
			<path class="st13" d="M256.2,309.6c-4.8,19.4-1.5,27.4-1.5,27.4l2.6-12.1c0,0,2.4,17.8,5.2,20.1c1.4,1.1,17.4,4.2,23.5,5.3
				c0.3,6.8-0.7,13.6-3,19.9c-4.3,0.4-30.3-3.2-31.6,5.2c-0.6,4.2-0.5-9.3-0.5-9.3l-1.5,39.1h-15l3.2-74.7l-8.7-2v-0.2v-0.2V328
				v-0.2l0,0v-0.2v-0.2v-0.2v-0.2v-0.2v-0.2v-0.2l0,0v-0.2v-0.2v-0.2l0,0V326v-0.2l0,0v-0.2l0,0v-0.2l0,0v-0.2l0,0v-0.2l0,0V325l0,0
				v-0.1l0,0v-0.1l0,0v-0.1l0,0v-0.1l0,0v-0.1l0,0v-0.1l0,0v-0.1l0,0v-0.1l0,0v-0.1l0,0v-0.1l0,0v-0.1l0,0v-0.1l0,0v-0.1l0,0V323
				l0,0v-0.1l0,0v-0.1l0,0v-0.1l0,0v-0.1l0,0v-0.1l0,0v-0.1l0,0V322l0,0v-0.1l0,0v-0.1l0,0v-0.1l0,0v-0.1l0,0v-0.1l0,0v-0.1l0,0
				v-0.1l0,0V321l0,0v-0.1l0,0v-0.1l0,0v-0.1l0,0v-0.1l0,0v-0.1l0,0v-0.1l0,0v-0.1l0,0v-0.1l0,0V320l0,0v-0.1l0,0v-0.1l0,0v-0.1l0,0
				v-0.1l0,0v-0.1l9.2-16.4L256.2,309.6z"/>
			<path class="st6" d="M232.3,310.4c-5.5,15.1-7,67-2.5,94.9h24.3c-9.9-55.3,10.9-94.8,6.4-108.9C253.1,274,236,300.4,232.3,310.4z
				"/>
			<circle class="st9" cx="325.8" cy="262.4" r="7.7"/>
			<path class="st7" d="M272.7,249.2h-0.6l0,0c-4.2,0.5-7.3,4.4-6.7,8.6s4.4,7.3,8.6,6.7s7.3-4.4,6.7-8.6c-0.2-1.8-1-3.4-2.3-4.6
				c0,2.3-0.6,5.1-3.5,5.1l0.5-4.4c0.1-1.5-1.1-2.7-2.5-2.8C272.7,249.2,272.7,249.2,272.7,249.2z"/>
			<path class="st10" d="M292.8,229.6c-3.8,4.1-15.3,15.3-15.9,21.2l-2.5,10c-1.5,14.6,9.1,27.6,23.6,29.1l0,0
				c14.6,1.5,27.6-9.1,29.1-23.6l0.5-18c-6.5-8.2-15.1-14.7-24.8-18.6C295.3,226.1,292.8,229.6,292.8,229.6z"/>
			<path class="st13" d="M307.8,298.4c0,0,6.9,56.6,6.8,58.5s-2,10.7-2,10.7s3.3-5.6,4.1-10.2s3-36,3-36l-3.7-2l3.4-0.2l-5.6-17.6
				c-0.4-0.7-0.9-1.3-1.5-1.8c-0.9-0.5-4.1-2.1-4.2-2.1c-0.4-0.1-0.9,0-1.3,0.1L307.8,298.4z"/>
			<path class="st13" d="M274.6,286.7c0,0,9.8,47.6,11.2,61.4c0.5,5.1,0.2,10.3-0.9,15.3c1.8-14.1-18.1-47.4-18.1-47.4l5.2-2.5
				l-6.9-3.1c0,0,3.2-17.9,3.4-20.9s-1.3-3.5-1.5-3.5C269.3,286.1,271.8,286.3,274.6,286.7z"/>
			<path class="st16" d="M78.1,426.2h8.6c3.5,0,6.3-2.8,6.3-6.2c0,0,0,0,0,0l0,0c0-3.4-2.8-6.2-6.2-6.2H64c-2.7,0-4.9-2.2-5-4.9l0,0
				c0-2.7,2.2-4.9,5-4.9h600.1c2.7,0,4.9,2.2,5,5l0,0c0,2.7-2.2,4.9-5,4.9h-31.2c-3.4,0-6.2,2.8-6.2,6.2l0,0c0,3.4,2.8,6.2,6.2,6.2
				h7.3c5.5,0,9.9,4.4,9.9,9.9l0,0c0,5.5-4.4,9.9-9.9,9.9H78.1c-5.5,0-9.9-4.4-9.9-9.9l0,0C68.2,430.7,72.7,426.2,78.1,426.2
				L78.1,426.2z M50.6,403.9c2.7,0,5,2.2,5,5c0,2.7-2.2,4.9-5,4.9s-4.9-2.2-5-4.9S47.9,403.9,50.6,403.9
				C50.6,403.9,50.6,403.9,50.6,403.9z"/>
			
				<radialGradient id="SVGID_1_" cx="758.5735" cy="138.5102" r="6.55" gradientTransform="matrix(0.97 -0.1 -0.1 -0.99 -327.95 469.84)" gradientUnits="userSpaceOnUse">
				<stop  offset="0" style="stop-color:#E98C4D"/>
				<stop  offset="0.84" style="stop-color:#E98C4D;stop-opacity:0"/>
			</radialGradient>
			<path class="st17" d="M386.7,254.1c0,0-4.4,1.6-0.2,6.8c3.4,4.2,5.3,3.3,6.8,3.1c2.7-0.5,6.7-3,6.3-6.7S392.3,253.5,386.7,254.1z
				"/>
			
				<radialGradient id="SVGID_00000141438225661401793020000016342904004775352247_" cx="819.5499" cy="-804.4818" r="6.55" gradientTransform="matrix(0.85 -0.48 -0.47 -0.88 -644.2 -59.24)" gradientUnits="userSpaceOnUse">
				<stop  offset="0" style="stop-color:#E98C4D"/>
				<stop  offset="0.84" style="stop-color:#E98C4D;stop-opacity:0"/>
			</radialGradient>
			<path style="opacity:0.4;fill:url(#SVGID_00000141438225661401793020000016342904004775352247_);enable-background:new    ;" d="
				M424.8,251.8c0,0-3.4,3.3,2.4,6.4c4.7,2.5,6.1,1,7.4,0.1c2.3-1.5,5-5.4,3.2-8.7S429.7,249,424.8,251.8z"/>
			
				<radialGradient id="SVGID_00000093873826070447701680000005813591014888480407_" cx="827.1481" cy="-24.1549" r="8.73" gradientTransform="matrix(0.96 -0.18 -0.18 -0.98 -385.81 357.74)" gradientUnits="userSpaceOnUse">
				<stop  offset="0" style="stop-color:#E98C4D"/>
				<stop  offset="0.84" style="stop-color:#E98C4D;stop-opacity:0"/>
			</radialGradient>
			<path style="opacity:0.4;fill:url(#SVGID_00000093873826070447701680000005813591014888480407_);enable-background:new    ;" d="
				M401.5,226.9c0,0-5.7,2.7,0.5,9.1c4.9,5.2,7.4,3.8,9.3,3.3c3.5-0.9,8.5-4.7,7.6-9.6S409,225.5,401.5,226.9z"/>
			<g id="_Group_">
				<g id="_Group_2">
					<path id="_Path_" class="st20" d="M421,249.2c0,0-4.6-11.1,1.9-14.1s12.6,4.7,12.3,7.1S432,251.9,421,249.2z"/>
					<path id="_Path_2" class="st21" d="M421.5,250.4c-1.3-1.2-2-3.2-2-6s1-5.4,3.6-6.6c6.5-3,12.3,4,12,6.4
						c-0.6,3.4-3.1,6.2-6.5,7.2C425.5,252.2,423.1,251.9,421.5,250.4z"/>
					<g id="_Group_3">
						
							<linearGradient id="_Path_3_00000142892683975047719660000014354317728802425990_" gradientUnits="userSpaceOnUse" x1="419.4" y1="167.9977" x2="430.88" y2="167.9977" gradientTransform="matrix(1 0 0 -1 0 412)">
							<stop  offset="0" style="stop-color:#3C3C6B"/>
							<stop  offset="1" style="stop-color:#5B4E99"/>
						</linearGradient>
						<path id="_Path_3" style="fill:url(#_Path_3_00000142892683975047719660000014354317728802425990_);" d="M420.2,247
							c1.5,2.7,5,3.6,7.7,2.1c0.1,0,0.1-0.1,0.2-0.1c2.7-1.7,3.6-5.2,2.1-8c-1.5-2.7-5-3.6-7.7-2.1c-0.1,0-0.1,0.1-0.2,0.1
							C419.6,240.7,418.6,244.2,420.2,247z"/>
						<path id="_Path_4" class="st12" d="M421.9,245.9c1,1.7,3.1,2.3,4.9,1.4c0,0,0.1-0.1,0.1-0.1c1.7-1.1,2.3-3.3,1.3-5.1
							c-1-1.7-3.1-2.3-4.8-1.4c-0.1,0-0.1,0.1-0.2,0.1C421.5,241.9,420.9,244.2,421.9,245.9z"/>
					</g>
					<path id="_Path_5" class="st23" d="M423.1,237.8c6.5-3,12.3,4,12,6.4c-0.5,2.7-2.1,5.1-4.5,6.4c1.8-1.9,5.2-6.1,1.5-9
						c-4.9-3.7-10-2.7-11.5,1.5c-0.5,1.3-0.7,2.6-0.8,4C419.1,243.8,419.2,239.5,423.1,237.8z"/>
					<g id="_Group_4">
						<path id="_Path_6" class="st12" d="M419.4,246c0-0.6,0-1.2,0.1-1.7c0.1-0.6,0.2-1.3,0.4-1.9c0.2-0.7,0.6-1.4,1-2
							c0.1-0.2,0.2-0.3,0.4-0.5l0.2-0.2l0.2-0.2l0.5-0.4l0.5-0.3l0.3-0.2l0.3-0.1l0.6-0.2c0.4-0.1,0.9-0.2,1.3-0.3l1.4-0.1h0.8
							l0.7,0.1c1,0.1,1.9,0.5,2.8,0.9c0.9,0.5,1.7,1.1,2.3,2c0.3,0.4,0.6,0.8,0.8,1.3c0.2,0.5,0.3,0.9,0.4,1.4
							c0.1,0.9-0.1,1.9-0.5,2.8c-0.4,0.8-0.8,1.5-1.4,2.1c-0.5,0.5-1,1-1.6,1.5l-0.7,0.6l-0.6,0.5c-0.4,0.3-0.7,0.5-0.9,0.6
							l-0.3,0.2l0.4-0.1c0.3-0.1,0.7-0.2,1-0.3l0.7-0.3l0.8-0.4c0.3-0.2,0.6-0.4,0.9-0.5s0.6-0.4,1-0.7c0.7-0.6,1.4-1.4,1.9-2.2
							c0.6-1.1,1-2.4,0.9-3.7c0-0.7-0.2-1.5-0.5-2.1c-0.2-0.7-0.6-1.3-1-1.9c-0.8-1-1.8-1.9-3-2.5c-1-0.5-2.2-0.9-3.3-1l-0.8-0.1
							h-0.8c-0.6,0-1.1,0.1-1.6,0.2c-0.5,0.1-1,0.3-1.5,0.4l-0.7,0.3l-0.3,0.2l-0.3,0.2l-0.6,0.4c-0.2,0.2-0.4,0.4-0.5,0.5l-0.2,0.3
							l-0.2,0.3c-0.1,0.2-0.3,0.4-0.4,0.6c-0.4,0.8-0.7,1.6-0.8,2.5c-0.1,0.7-0.1,1.4-0.1,2.1c0,0.4,0.1,0.9,0.2,1.3
							C419.3,245.8,419.4,246,419.4,246z"/>
					</g>
				</g>
			</g>
			
				<ellipse transform="matrix(0.9948 -0.1023 0.1023 0.9948 -23.1209 44.4739)" class="st24" cx="422.2" cy="247.7" rx="2.2" ry="2.3"/>
			
				<ellipse transform="matrix(0.9948 -0.1023 0.1023 0.9948 -22.4372 45.026)" class="st24" cx="427.9" cy="241.3" rx="1.4" ry="1.4"/>
			<g id="_Group_5">
				<g id="_Group_6">
					<path id="_Path_7" class="st20" d="M401.1,251.2c0,0,2.3-11.8-4.7-13.4s-11.4,7.2-10.6,9.5S390.8,256.2,401.1,251.2z"/>
					<path id="_Path_8" class="st21" d="M400.9,252.5c1-1.5,1.3-3.6,0.8-6.3s-2.1-5.1-4.9-5.7c-7-1.6-11.3,6.4-10.4,8.7
						c1.3,3.3,4.3,5.5,7.8,5.7C397.3,255.1,399.6,254.3,400.9,252.5z"/>
					<g id="_Group_7">
						
							<linearGradient id="_Path_9_00000038389662249158445830000013900932683333305748_" gradientUnits="userSpaceOnUse" x1="390.22" y1="164.9334" x2="401.75" y2="164.9334" gradientTransform="matrix(1 0 0 -1 0 412)">
							<stop  offset="0" style="stop-color:#3C3C6B"/>
							<stop  offset="1" style="stop-color:#5B4E99"/>
						</linearGradient>
						<path id="_Path_9" style="fill:url(#_Path_9_00000038389662249158445830000013900932683333305748_);" d="M401.5,249
							c-1,3-4.1,4.6-7.1,3.6c-0.1,0-0.1,0-0.2-0.1c-3-1.1-4.6-4.4-3.7-7.4c1-3,4.1-4.6,7.1-3.6c0.1,0,0.1,0,0.2,0.1
							C400.8,242.7,402.4,245.9,401.5,249z"/>
						<path id="_Path_10" class="st12" d="M399.6,248.3c-0.6,1.9-2.6,2.9-4.5,2.3c0,0-0.1,0-0.1,0c-1.9-0.7-3-2.8-2.4-4.8
							c0.6-1.9,2.6-2.9,4.5-2.3c0,0,0.1,0,0.1,0C399.2,244.2,400.2,246.3,399.6,248.3z"/>
					</g>
					<path id="_Path_11" class="st23" d="M396.8,240.5c-7-1.6-11.3,6.4-10.4,8.7c1,2.6,3.1,4.5,5.7,5.4c-2.1-1.5-6.3-5-3.2-8.5
						c4-4.6,9.2-4.6,11.6-0.9c0.7,1.2,1.2,2.4,1.5,3.7C401.8,245.6,400.8,241.4,396.8,240.5z"/>
					<g id="_Group_8">
						<path id="_Path_12" class="st12" d="M402,247.7c-0.1-0.6-0.2-1.1-0.4-1.7c-0.2-0.6-0.4-1.2-0.7-1.7c-0.4-0.7-0.8-1.3-1.4-1.8
							c-0.1-0.1-0.3-0.2-0.5-0.4l-0.2-0.2l-0.3-0.1l-0.5-0.3l-0.6-0.2l-0.3-0.1h-0.3l-0.6-0.1c-0.4,0-0.9,0-1.3,0l-1.4,0.2l-0.7,0.2
							l-0.7,0.2c-0.9,0.3-1.8,0.8-2.6,1.5c-0.8,0.6-1.5,1.4-1.9,2.4c-0.2,0.5-0.4,0.9-0.5,1.4c-0.1,0.5-0.1,1-0.1,1.5
							c0.1,0.9,0.5,1.8,1,2.6c0.5,0.7,1.1,1.3,1.8,1.8c0.6,0.4,1.2,0.8,1.8,1.2l0.8,0.4l0.7,0.3c0.4,0.2,0.8,0.3,1,0.4l0.4,0.1h-0.4
							c-0.4,0-0.7-0.1-1.1-0.1l-0.8-0.1l-0.9-0.2c-0.3-0.1-0.6-0.2-1-0.3s-0.7-0.3-1.1-0.5c-0.9-0.4-1.6-1-2.3-1.8
							c-0.9-1-1.4-2.1-1.6-3.4c-0.1-0.7-0.1-1.5,0-2.2c0.1-0.7,0.3-1.4,0.6-2.1c0.6-1.2,1.4-2.2,2.4-3.1c0.9-0.7,1.9-1.3,3-1.7
							l0.8-0.2l0.8-0.1c0.6-0.1,1.1-0.1,1.6-0.1c0.5,0,1,0.1,1.5,0.1l0.7,0.2l0.4,0.1l0.4,0.1l0.7,0.3l0.6,0.4l0.3,0.2l0.3,0.3
							c0.2,0.2,0.3,0.3,0.5,0.5c0.6,0.7,1,1.5,1.3,2.3c0.2,0.6,0.4,1.3,0.5,2c0.1,0.4,0.1,0.9,0.1,1.3
							C402,247.6,402,247.7,402,247.7z"/>
					</g>
				</g>
			</g>
			
				<ellipse transform="matrix(0.9948 -0.1023 0.1023 0.9948 -23.54 41.4559)" class="st24" cx="392.5" cy="250.3" rx="2.2" ry="2.3"/>
			
				<ellipse transform="matrix(0.9948 -0.1023 0.1023 0.9948 -22.9916 42.0812)" class="st24" cx="398.9" cy="245.3" rx="1.4" ry="1.4"/>
			<path class="st20" d="M406.3,254.5c1.5,1,3.3,1.4,5.2,1.3c1.8,0.1,3.6-0.8,4.6-2.3c0,0,1.4,1.1,0.7,2.4c-1.1,1.6-2.6,2.8-4.3,3.7
				C411.6,259.7,404.7,257.6,406.3,254.5z"/>
			
				<ellipse transform="matrix(0.9948 -0.1023 0.1023 0.9948 -23.8593 43.4739)" class="st26" cx="412" cy="254.4" rx="1.6" ry="0.7"/>
			<path class="st27" d="M409.5,256c-0.3-0.1-0.6-0.1-0.9-0.1c-0.4,0-0.8,0.3-0.7,0.5s0.4,0.2,0.7,0.3c0.2,0.1,0.4,0.2,0.5,0.3
				c0.2,0.1,0.4,0.1,0.6,0.2c0.3,0.2,0.5,0.4,0.7,0.4s0-0.5-0.2-0.9C410,256.4,409.7,256.2,409.5,256z"/>
			<path class="st27" d="M415.9,255.1c0-0.1-0.4-0.2-0.8-0.1c-0.2,0.1-0.5,0.2-0.7,0.3c-0.2,0.2-0.3,0.4-0.4,0.7
				c-0.2,0.4-0.2,0.8-0.1,0.9s0.4-0.2,0.6-0.4c0.2-0.1,0.3-0.2,0.5-0.3c0.1-0.2,0.3-0.3,0.4-0.5
				C415.6,255.5,415.9,255.3,415.9,255.1z"/>
			<path class="st27" d="M408.1,256.7l-0.8-0.7c-0.1-0.1-0.2-0.2-0.2-0.3c-0.1-0.1-0.1-0.1-0.1-0.2c-0.1-0.2-0.1-0.5,0-0.8
				c0.2-0.6,0.8-1.2,0.7-1.3s-0.2,0-0.5,0.1c-0.3,0.2-0.6,0.5-0.8,0.8c-0.2,0.4-0.3,0.9-0.2,1.4c0.1,0.2,0.2,0.5,0.3,0.7
				c0.1,0.1,0.3,0.3,0.5,0.4l0.9,0.5c0.7,0.3,1.3,0.6,1.4,0.5S408.7,257.2,408.1,256.7z"/>
			<path class="st27" d="M417.2,254.7c0,0,0-0.1-0.2-0.4c-0.1-0.2-0.2-0.3-0.3-0.4c-0.1-0.1-0.2-0.3-0.3-0.4c-0.5-0.5-1-0.9-1.1-0.8
				s0.3,0.7,0.5,1.2l0.2,0.4c0.1,0.1,0.1,0.2,0.1,0.3l0.1,0.4c0,0,0,0.1,0,0.1c0,0.2-0.1,0.4-0.3,0.5c-0.4,0.4-0.8,1-0.7,1.1
				s0.6-0.1,1.1-0.5c0.3-0.2,0.6-0.5,0.7-0.9C417.2,255.2,417.3,255,417.2,254.7z"/>
			<path class="st27" d="M414.5,253.2c0-0.1-0.7-0.5-1.5-0.6c-1-0.3-2.1-0.1-3,0.4c-0.7,0.3-1.3,0.8-1.3,0.9s0.8-0.1,1.5-0.2
				c0.9-0.1,1.9-0.2,2.8-0.3C413.8,253.2,414.5,253.3,414.5,253.2z"/>
			<path class="st27" d="M423.1,235.3c0,0.1-0.6,0.5-1.2,1c-0.7,0.7-1.4,1.5-1.9,2.4c-0.4,0.7-0.6,1.4-0.7,1.4
				c0-0.5,0.2-1.1,0.4-1.5c0.4-1,1.1-1.9,2-2.5C422.1,235.7,422.6,235.4,423.1,235.3z"/>
			<path class="st27" d="M421.9,234.7c0,0-0.5,0.5-1,1c-0.6,0.7-1.1,1.5-1.5,2.3c-0.3,0.6-0.4,1.3-0.5,1.3c-0.1-0.5,0-1,0.1-1.4
				c0.3-1,0.8-1.8,1.6-2.5C420.9,235.2,421.4,234.9,421.9,234.7z"/>
			<path class="st27" d="M401.6,243c-0.1,0-0.4-0.8-0.9-1.5c-0.6-1-1.3-1.9-2.1-2.7c-0.6-0.6-1.3-1.1-1.3-1.2c0.5,0.2,1,0.6,1.5,1
				c0.9,0.7,1.7,1.7,2.2,2.8C401.3,241.9,401.5,242.4,401.6,243z"/>
			<path class="st27" d="M400.9,240.1c0,0-0.3-0.3-0.6-0.6s-0.5-0.6-0.5-0.6s-0.2-0.3-0.5-0.6s-0.6-0.6-0.5-0.7s0.4,0.2,0.7,0.4
				c0.5,0.3,0.9,0.8,1.1,1.3C400.8,239.6,401,240,400.9,240.1z"/>
			<path class="st28" d="M387.2,237.2c0.2,0,0.3-0.1,0.5-0.2c1.1-0.5,2-1.3,3.2-1.8c1.4-0.5,2.9-0.8,4.4-0.9
				c1.3-0.1,3.4,0.5,4.5-0.4c1.3-1,1.2-3.6-0.7-3.9c-0.2,0.6-0.4,1.1-0.5,1.8c-0.1-0.4-0.2-1.7-0.5-2s-1.5-0.1-1.9,0
				c-1.3,0.1-2.6,0.5-3.8,0.9c-2.8,0.9-5.2,2.8-6.6,5.4C385,237.4,386.3,237.4,387.2,237.2z"/>
			<path class="st12" d="M394.7,229.9v0.1c-0.1,0.7-0.1,1.5-0.1,1.5s-0.1,0.7-0.2,1.5c0,0.5-0.1,1.1-0.1,1.4h-0.1
				c-0.1-0.5-0.1-0.9-0.1-1.4c0-0.8,0-1.5,0-1.5s0.1-0.8,0.3-1.5l0,0L394.7,229.9z M392.9,233.5c0-0.5,0-1.1,0-1.6
				c0-0.5,0.1-1,0.2-1.6l-0.4,0.1c-0.1,0.5-0.2,0.9-0.3,1.4c0,0.6,0,1.1,0.1,1.7c0.1,0.3,0.2,0.7,0.3,1h0.2
				C393,234.2,392.9,233.9,392.9,233.5L392.9,233.5z M398.9,230.5c0,0.6,0,1.2-0.1,1.8c-0.1,0.7-0.2,1.4-0.5,2l0,0h0.4
				c0.3-0.6,0.5-1.3,0.6-2c0,0,0-0.3,0-0.7c0-0.5,0-1-0.1-1.5v-0.2h-0.1C399,230.1,398.9,230.3,398.9,230.5L398.9,230.5z M388,235.8
				c-0.1-0.4-0.2-0.8-0.2-1.2c-0.1-0.4-0.1-0.8-0.1-1.2l0,0c0,0-0.2,0.2-0.3,0.4c0,0.3,0,0.6,0,0.9c0.1,0.4,0.2,0.8,0.3,1.2
				c0.1,0.3,0.2,0.6,0.4,0.8l0.1-0.1C388.1,236.4,388,236.1,388,235.8z M395.7,231.3c0,0,0-0.8,0-1.6h-0.3c-0.1,0.7-0.2,1.5-0.2,1.5
				c-0.1,0.9-0.1,1.8,0,2.7C395.4,233.1,395.6,232.2,395.7,231.3L395.7,231.3z M389.4,232.4c0-0.1,0-0.2,0-0.3l-0.4,0.2l0,0
				c-0.2,0.9-0.2,1.9,0.2,2.7c0.1,0.3,0.2,0.5,0.4,0.8l0.2-0.1c-0.1-0.3-0.2-0.5-0.2-0.8C389.3,234.1,389.3,233.2,389.4,232.4
				L389.4,232.4z"/>
			<path class="st12" d="M390.8,235.2c1.4-0.5,2.9-0.8,4.4-0.9c1.3-0.1,3.4,0.5,4.5-0.4c0.8-0.7,1.1-1.9,0.7-2.9
				c-0.3,1.3-2,2-3.9,1.8c-2.5-0.3-5.4,1.6-8.1,2.2c-1.1,0.2-1.4-0.3-1.3-1c-0.5,0.6-1,1.3-1.4,2c-0.7,1.4,0.5,1.4,1.4,1.1
				c0.2,0,0.3-0.1,0.5-0.2C388.7,236.4,389.7,235.6,390.8,235.2z"/>
			<path class="st28" d="M431.8,232.5c-0.2,0-0.3,0-0.5-0.1c-1.2-0.3-2.3-0.9-3.5-1.1c-1.5-0.2-3-0.2-4.5,0
				c-1.3,0.2-3.3,1.1-4.5,0.5c-1.5-0.7-1.9-3.3-0.1-4c0.1,0.3,0.9,1.3,0.9,1.6c0-0.4-0.2-1.7,0.1-2s1.4-0.4,1.8-0.4
				c1.3-0.1,2.6-0.1,3.9,0.1c2.9,0.3,5.6,1.7,7.5,4C434,232.3,432.8,232.6,431.8,232.5z"/>
			<path class="st12" d="M423.5,230.5c0,0.3,0,0.6-0.1,0.9h0h-0.1c0-0.2,0-0.6,0-0.9l-0.1-1.4v-1.4c0-0.3,0-0.5,0-0.8h0.2
				c0,0.2,0.1,0.5,0.1,0.8c0.1,0.7,0.1,1.4,0.1,1.4S423.5,229.8,423.5,230.5z M428.1,231.4c0.1-0.3,0.1-0.8,0.3-1.4
				c0.2-0.8,0.4-1.6,0.4-1.6l0.1-0.4l-0.4-0.2c-0.1,0.2-0.1,0.4-0.1,0.4c-0.2,0.6-0.3,1.1-0.4,1.7c-0.1,0.5-0.1,0.9-0.1,1.4
				L428.1,231.4z M429.5,228.4c-0.2,0.7-0.4,1.3-0.4,1.3s-0.1,0.8-0.2,1.5c0,0.2,0,0.3,0,0.5l0.2,0.1l0.1-0.5
				c0.1-0.7,0.3-1.5,0.3-1.5s0.1-0.6,0.2-1.2L429.5,228.4z M420,231.6c-0.3-0.5-0.5-1-0.7-1.5c-0.2-0.5-0.4-1-0.5-1.5
				c0-0.2-0.1-0.4-0.1-0.7l-0.2,0.1c0,0.2,0,0.4,0,0.6c0.1,0.6,0.2,1.1,0.4,1.7c0.2,0.5,0.5,1,0.9,1.5l0.2,0.3h0.3L420,231.6z
				 M421.6,230.6l-0.4-1.5l-0.5-1.5c0-0.1-0.1-0.3-0.1-0.4h-0.3c0,0.1,0,0.3,0.1,0.4c0.1,0.8,0.4,1.5,0.4,1.5s0.2,0.8,0.5,1.5
				c0.2,0.4,0.3,0.8,0.5,1.1h0.1C421.8,231.4,421.7,231,421.6,230.6L421.6,230.6z M424.8,229.7c0,0,0-0.9,0-1.7c0-0.3,0-0.6-0.1-0.9
				h-0.2c0,0.3,0,0.6,0,0.9c0,0.9-0.1,1.7-0.1,1.7s0,0.8-0.1,1.6h0.3C424.8,230.4,424.8,229.7,424.8,229.7L424.8,229.7z"/>
			<path class="st12" d="M431.8,232.5c0.9,0.1,2.1-0.2,1.1-1.4c-0.7-0.8-1.5-1.6-2.5-2.2c0.5,0.8,1.2,2.2,0.4,2.2c-1.2,0-4-2-8.2-1
				c-3.5,0.8-4.7-0.3-5.1-0.8c-0.1,1,0.4,1.9,1.3,2.4c1.3,0.6,3.2-0.3,4.5-0.5c1.5-0.2,3-0.2,4.5,0c1.2,0.2,2.3,0.8,3.5,1.1
				C431.5,232.4,431.7,232.5,431.8,232.5z"/>
			<g>
				<path class="st27" d="M420.5,260.7c0,0-0.3,0.4-1,0.9c-0.8,0.6-1.6,1.1-2.5,1.5c-0.9,0.4-1.8,0.7-2.7,1
					c-0.8,0.2-1.3,0.3-1.3,0.3s-0.5,0.1-1.3,0.1c-1,0.1-1.9,0-2.9-0.1c-1-0.1-1.9-0.4-2.8-0.8c-0.4-0.2-0.8-0.4-1.1-0.7
					c0.4,0.1,0.8,0.2,1.2,0.4c0.9,0.3,1.8,0.5,2.7,0.5c1.3,0.1,2.7,0,4-0.2c1.3-0.2,2.7-0.5,3.9-1c0.9-0.3,1.7-0.7,2.5-1.2
					C419.7,261.1,420.1,260.9,420.5,260.7z"/>
			</g>
			<g>
				<path class="st27" d="M421.7,261.3c0,0.1-0.3,0.1-0.5,0.1c-0.4-0.1-0.7-0.3-0.8-0.7c-0.1-0.3-0.1-0.5,0-0.5s0.1,0.2,0.3,0.4
					c0.2,0.2,0.4,0.4,0.6,0.6C421.5,261.2,421.7,261.2,421.7,261.3z"/>
				<path class="st27" d="M405.5,261.6c0.1,0,0,0.3-0.1,0.5c-0.1,0.2-0.2,0.4-0.3,0.5c-0.1,0.1-0.3,0.2-0.5,0.3
					c-0.2,0.1-0.3,0.1-0.5,0.1c-0.1,0,0.1-0.3,0.4-0.4c0.1-0.1,0.2-0.1,0.2-0.2l0.1-0.1c0.1-0.1,0.2-0.2,0.3-0.4
					C405.4,261.8,405.5,261.6,405.5,261.6z"/>
				<path class="st27" d="M415.1,265.7c0.1,0-0.2,0.4-0.6,0.6c-0.2,0.1-0.4,0.1-0.5,0.2l-0.2,0.1c-0.3,0-0.6,0-0.9,0
					c-0.5,0-0.8-0.4-0.8-0.4c0.3,0.1,0.5,0.1,0.8,0.1c0.3,0,0.5-0.1,0.8-0.1h0.2c0.2,0,0.3,0,0.5-0.1
					C414.7,266,415,265.7,415.1,265.7z"/>
			</g>
			<path class="st29" d="M283.1,285c-0.8-8.9-1.1-17.8-0.8-26.7c0.6-9.3,6.9-17.9,14.3-24.3c9.3,1,21,4.3,24.2,6.9
				c-8.1-8.9-20.7-13.9-26.7-13.9C294.2,227,266.1,257.6,283.1,285z"/>
			
				<radialGradient id="SVGID_00000181080477114271857170000015107241906791639477_" cx="69.2896" cy="138.1048" r="6.43" gradientTransform="matrix(0.97 8.000000e-02 8.000000e-02 -1 207.79 399.98)" gradientUnits="userSpaceOnUse">
				<stop  offset="0" style="stop-color:#FA0034"/>
				<stop  offset="0.84" style="stop-color:#FA0034;stop-opacity:0"/>
			</radialGradient>
			<path style="opacity:0.4;fill:url(#SVGID_00000181080477114271857170000015107241906791639477_);enable-background:new    ;" d="
				M280.2,260.8c0,0-4.5,0.8-1.5,6.5c2.5,4.7,4.5,4.2,6,4.2c2.7,0,7-1.6,7.3-5.3S285.7,261.3,280.2,260.8z"/>
			
				<radialGradient id="SVGID_00000153675427479584615200000017456744638394395837_" cx="183.5343" cy="-538.5108" r="6.43" gradientTransform="matrix(0.92 -0.31 -0.3 -0.95 -7.04 -185.2)" gradientUnits="userSpaceOnUse">
				<stop  offset="0" style="stop-color:#FA0034"/>
				<stop  offset="0.84" style="stop-color:#FA0034;stop-opacity:0"/>
			</radialGradient>
			<path style="opacity:0.4;fill:url(#SVGID_00000153675427479584615200000017456744638394395837_);enable-background:new    ;" d="
				M317.3,265.5c0,0-3.9,2.5,1.1,6.6c4.1,3.3,5.7,2.1,7.1,1.5c2.5-1,5.8-4.3,4.7-7.8S322.6,263.7,317.3,265.5z"/>
			
				<radialGradient id="SVGID_00000077284899169266214660000016853124309233824419_" cx="139.6957" cy="31.6" r="8.57" gradientTransform="matrix(0.97 0 0 -1 171.66 276.05)" gradientUnits="userSpaceOnUse">
				<stop  offset="0" style="stop-color:#F5D0A2"/>
				<stop  offset="0.84" style="stop-color:#F5D0A2;stop-opacity:0"/>
			</radialGradient>
			<path style="opacity:0.4;fill:url(#SVGID_00000077284899169266214660000016853124309233824419_);enable-background:new    ;" d="
				M299.5,237.3c0,0-6,1.5-1.2,8.9c3.8,5.9,6.4,5,8.4,4.9c3.6-0.2,9.1-3,9.1-7.9S306.9,237.3,299.5,237.3z"/>
			<g id="_Group_9">
				<g id="_Group_10">
					<path id="_Path_13" class="st9" d="M314.1,262.3c0,0-2.4-11.5,4.4-13.2s11.3,6.8,10.5,9.1S324.3,267,314.1,262.3z"/>
					<path id="_Path_14" class="st21" d="M314.4,263.6c-1.1-1.4-1.4-3.5-0.9-6.2s2-5,4.7-5.7c6.9-1.7,11.2,6.1,10.4,8.4
						c-1.2,3.2-4.1,5.5-7.5,5.8C318,266.1,315.7,265.3,314.4,263.6z"/>
					<g id="_Group_11">
						
							<linearGradient id="_Path_15_00000137100998488890692720000010714764139654202541_" gradientUnits="userSpaceOnUse" x1="313.4499" y1="153.8739" x2="324.7699" y2="153.8739" gradientTransform="matrix(1 0 0 -1 0 412)">
							<stop  offset="0" style="stop-color:#3C3C6B"/>
							<stop  offset="1" style="stop-color:#5B4E99"/>
						</linearGradient>
						<path id="_Path_15" style="fill:url(#_Path_15_00000137100998488890692720000010714764139654202541_);" d="M313.8,260.1
							c1,2.9,4.1,4.4,7,3.4c0.1,0,0.1,0,0.2-0.1c3-1.1,4.5-4.4,3.5-7.4c-1-2.9-4.2-4.4-7-3.4c-0.1,0-0.1,0-0.2,0.1
							C314.3,253.9,312.7,257.1,313.8,260.1z"/>
						<path id="_Path_16" class="st12" d="M315.6,259.4c0.6,1.8,2.6,2.8,4.5,2.2c0,0,0.1,0,0.1,0c1.9-0.7,2.8-2.8,2.2-4.7
							c-0.6-1.8-2.6-2.8-4.4-2.2c0,0-0.1,0-0.1,0C316,255.4,315,257.5,315.6,259.4z"/>
					</g>
					<path id="_Path_17" class="st23" d="M318.2,251.7c6.9-1.7,11.2,6.1,10.4,8.4c-0.9,2.5-3,4.5-5.5,5.4c2.1-1.5,6.1-5,3-8.4
						c-4-4.5-9.1-4.4-11.4-0.7c-0.7,1.1-1.1,2.4-1.4,3.7C313.3,256.8,314.2,252.7,318.2,251.7z"/>
					<g id="_Group_12">
						<path id="_Path_18" class="st12" d="M313.2,258.9c0.1-0.6,0.2-1.1,0.4-1.7c0.2-0.6,0.4-1.2,0.7-1.7c0.3-0.7,0.8-1.3,1.3-1.8
							c0.1-0.1,0.3-0.2,0.5-0.4l0.2-0.2l0.2-0.1l0.5-0.3l0.6-0.2l0.3-0.1h0.3l0.6-0.1c0.4,0,0.9,0,1.3,0l1.3,0.2l0.7,0.2l0.7,0.2
							c0.9,0.3,1.8,0.8,2.5,1.4c0.8,0.6,1.5,1.4,1.9,2.3c0.2,0.4,0.4,0.9,0.5,1.4c0.1,0.5,0.1,1,0.1,1.4c-0.1,0.9-0.5,1.8-1,2.6
							c-0.5,0.7-1.1,1.3-1.8,1.8c-0.6,0.4-1.2,0.8-1.8,1.2l-0.8,0.4l-0.7,0.3c-0.4,0.2-0.8,0.3-1,0.4l-0.4,0.1h0.4
							c0.3,0,0.7-0.1,1-0.1l0.7-0.1l0.9-0.2c0.3-0.1,0.6-0.2,1-0.4s0.7-0.3,1-0.5c0.8-0.5,1.6-1.1,2.2-1.8c0.8-1,1.3-2.1,1.5-3.4
							c0.1-0.7,0.1-1.4,0-2.2c-0.1-0.7-0.3-1.4-0.7-2c-0.6-1.2-1.4-2.2-2.4-3c-0.9-0.7-1.9-1.2-3-1.6l-0.8-0.2l-0.7-0.1
							c-0.6-0.1-1-0.1-1.5-0.1c-0.5,0-1,0.1-1.5,0.1l-0.7,0.2l-0.4,0.1l-0.3,0.2l-0.7,0.3l-0.6,0.4l-0.3,0.2l-0.2,0.3
							c-0.2,0.2-0.3,0.3-0.5,0.5c-0.5,0.7-0.9,1.5-1.2,2.3c-0.2,0.6-0.4,1.3-0.5,2c-0.1,0.4-0.1,0.9-0.1,1.3
							C313.2,258.8,313.2,258.9,313.2,258.9z"/>
					</g>
				</g>
			</g>
			
				<ellipse transform="matrix(8.419963e-02 -0.9964 0.9964 8.419963e-02 28.7572 553.5674)" class="st24" cx="315.5" cy="261.1" rx="2.3" ry="2.2"/>
			
				<ellipse transform="matrix(7.974522e-02 -0.9968 0.9968 7.974522e-02 43.3932 554.2881)" class="st24" cx="321.9" cy="253.6" rx="1.4" ry="1.4"/>
			<g id="_Group_13">
				<g id="_Group_14">
					<path id="_Path_19" class="st9" d="M294.6,260.7c0,0,4.4-10.9-2.1-13.8s-12.4,4.8-12,7.2S283.8,263.6,294.6,260.7z"/>
					<path id="_Path_20" class="st21" d="M294.1,261.9c1.3-1.2,2-3.2,1.9-5.9s-1.1-5.3-3.7-6.4c-6.5-2.9-12,4.1-11.7,6.5
						c0.6,3.4,3.2,6.1,6.5,6.9C290.2,263.7,292.6,263.3,294.1,261.9z"/>
					<g id="_Group_15">
						
							<linearGradient id="_Path_21_00000152231613665127105350000004140365116770197648_" gradientUnits="userSpaceOnUse" x1="284.7812" y1="156.31" x2="296.0588" y2="156.31" gradientTransform="matrix(1 0 0 -1 0 412)">
							<stop  offset="0" style="stop-color:#3C3C6B"/>
							<stop  offset="1" style="stop-color:#5B4E99"/>
						</linearGradient>
						<path id="_Path_21" style="fill:url(#_Path_21_00000152231613665127105350000004140365116770197648_);" d="M295.4,258.6
							c-1.5,2.7-4.8,3.7-7.5,2.2c-0.1,0-0.1-0.1-0.2-0.1c-2.7-1.6-3.7-5.1-2.2-7.8c1.5-2.7,4.8-3.7,7.5-2.2c0.1,0,0.1,0.1,0.2,0.1
							C295.9,252.3,296.9,255.8,295.4,258.6z"/>
						<path id="_Path_22" class="st12" d="M293.7,257.6c-0.9,1.7-3.1,2.3-4.8,1.4c0,0-0.1,0-0.1-0.1c-1.7-1-2.4-3.2-1.4-5
							c0.9-1.7,3.1-2.3,4.8-1.4c0,0,0.1,0,0.1,0.1C294,253.6,294.6,255.8,293.7,257.6z"/>
					</g>
					<path id="_Path_23" class="st23" d="M292.4,249.5c-6.5-2.9-12,4.1-11.7,6.5c0.5,2.7,2.2,4.9,4.6,6.2c-1.8-1.8-5.2-5.9-1.6-8.8
						c4.7-3.8,9.8-2.8,11.3,1.3c0.5,1.2,0.7,2.5,0.8,3.9C296.3,255.4,296.1,251.2,292.4,249.5z"/>
					<g id="_Group_16">
						<path id="_Path_24" class="st12" d="M296.1,257.5c0-0.6,0-1.1-0.1-1.7c-0.1-0.6-0.2-1.2-0.4-1.8c-0.2-0.7-0.6-1.4-1-2
							c-0.1-0.1-0.2-0.3-0.4-0.4l-0.2-0.2l-0.2-0.2l-0.5-0.4l-0.5-0.3l-0.3-0.1l-0.3-0.1l-0.6-0.2c-0.4-0.1-0.9-0.1-1.3-0.2h-1.4
							l-0.8,0.1l-0.7,0.1c-1,0.2-1.9,0.5-2.8,1c-0.9,0.5-1.7,1.1-2.3,1.9c-0.3,0.4-0.5,0.8-0.7,1.3c-0.2,0.5-0.3,0.9-0.3,1.4
							c-0.1,0.9,0.1,1.9,0.5,2.7c0.4,0.8,0.9,1.5,1.4,2.1c0.5,0.5,1,1,1.6,1.5l0.7,0.5l0.6,0.4c0.4,0.3,0.7,0.5,0.9,0.6l0.3,0.2
							l-0.4-0.1c-0.3-0.1-0.7-0.2-1-0.3l-0.7-0.3l-0.8-0.4c-0.3-0.1-0.6-0.3-0.9-0.5s-0.6-0.4-0.9-0.7c-0.7-0.6-1.4-1.3-1.9-2.1
							c-0.6-1.1-1-2.3-0.9-3.6c0-0.7,0.2-1.4,0.4-2.1c0.2-0.7,0.6-1.3,1-1.9c0.8-1,1.7-1.9,2.9-2.5c1-0.5,2.1-0.9,3.2-1.1l0.8-0.1
							h0.8c0.6,0,1,0.1,1.5,0.1c0.5,0.1,1,0.2,1.5,0.4l0.7,0.3l0.3,0.2l0.3,0.2l0.6,0.4c0.2,0.2,0.4,0.4,0.5,0.5l0.2,0.3l0.2,0.3
							c0.1,0.2,0.3,0.4,0.4,0.6c0.4,0.8,0.7,1.6,0.8,2.5c0.1,0.7,0.1,1.3,0.1,2c0,0.4-0.1,0.9-0.1,1.3
							C296.1,257.3,296.1,257.5,296.1,257.5z"/>
					</g>
				</g>
			</g>
			
				<ellipse transform="matrix(8.419963e-02 -0.9964 0.9964 8.419963e-02 3.8766 521.4371)" class="st24" cx="285.6" cy="258.6" rx="2.3" ry="2.2"/>
			
				<ellipse transform="matrix(8.419963e-02 -0.9964 0.9964 8.419963e-02 15.2019 525.5689)" class="st24" cx="293.5" cy="254.5" rx="1.4" ry="1.4"/>
			<path class="st35" d="M301.1,266.7c1.3,1.2,3,2,4.8,2.2c1.8,0.4,3.6-0.1,4.9-1.4c0,0,1.1,1.4,0.3,2.4c-1.4,1.3-3,2.3-4.9,2.8
				C305.2,272.8,298.9,269.5,301.1,266.7z"/>
			
				<ellipse transform="matrix(8.419963e-02 -0.9964 0.9964 8.419963e-02 13.9551 550.6477)" class="st36" cx="306.5" cy="267.7" rx="0.7" ry="1.6"/>
			<path class="st9" d="M303.8,268.8c-0.2-0.1-0.5-0.2-0.8-0.2c-0.4,0-0.8,0.1-0.8,0.3s0.4,0.2,0.6,0.4c0.2,0.1,0.3,0.3,0.5,0.4
				c0.2,0.1,0.4,0.2,0.5,0.3c0.2,0.2,0.5,0.5,0.6,0.5s0.1-0.5-0.1-1C304.2,269.3,304.1,269,303.8,268.8z"/>
			<path class="st9" d="M310.1,269.1c0-0.1-0.4-0.2-0.7-0.2c-0.2,0-0.5,0.1-0.7,0.2c-0.2,0.2-0.4,0.4-0.5,0.6
				c-0.2,0.3-0.3,0.7-0.2,0.8s0.4-0.1,0.6-0.2c0.2-0.1,0.3-0.2,0.5-0.2c0.1-0.1,0.3-0.3,0.5-0.4
				C309.9,269.4,310.2,269.3,310.1,269.1z"/>
			<path class="st9" d="M302.4,269.2l-0.6-0.8c-0.1-0.1-0.1-0.2-0.2-0.3c-0.1-0.1-0.1-0.1-0.1-0.2c0-0.3,0-0.5,0.1-0.7
				c0.3-0.6,1-1,0.9-1.1s-0.2,0-0.5,0c-0.4,0.1-0.7,0.3-0.9,0.6c-0.3,0.4-0.5,0.8-0.5,1.3c0,0.2,0.1,0.5,0.2,0.7
				c0.1,0.2,0.2,0.3,0.4,0.4l0.8,0.6c0.6,0.4,1.2,0.9,1.3,0.7S302.8,269.8,302.4,269.2z"/>
			<path class="st9" d="M311.5,269c0,0,0-0.1-0.1-0.5c0-0.2-0.1-0.3-0.2-0.5c-0.1-0.1-0.1-0.3-0.2-0.4c-0.3-0.6-0.8-1-0.9-1
				s0.1,0.7,0.3,1.3l0.1,0.4c0,0.1,0.1,0.2,0.1,0.3v0.4c0,0,0,0.1,0,0.1c-0.1,0.2-0.2,0.4-0.4,0.5c-0.4,0.4-1,0.8-0.9,0.9
				s0.6,0,1.2-0.3c0.4-0.1,0.6-0.4,0.8-0.7C311.5,269.4,311.5,269.2,311.5,269z"/>
			<path class="st9" d="M309.2,267c0-0.1-0.6-0.6-1.3-0.8c-0.9-0.5-2-0.5-3-0.2c-0.7,0.2-1.4,0.5-1.4,0.7s0.8,0.1,1.5,0.1
				c0.9,0.1,1.8,0.2,2.8,0.2C308.5,266.9,309.2,267.1,309.2,267z"/>
			<g class="st37">
				<path class="st38" d="M279.2,236.6l-0.1,1.5c0,0.2,0.3,0.2,0.3,0l0-1.5C279.4,236.6,279.2,236.5,279.2,236.6L279.2,236.6z"/>
			</g>
			<path class="st9" d="M318.7,249.3c0,0.1-0.7,0.3-1.4,0.7c-0.8,0.6-1.6,1.2-2.3,2c-0.5,0.6-0.9,1.3-0.9,1.2c0.1-0.5,0.4-1,0.7-1.4
				c0.6-0.9,1.4-1.6,2.4-2C317.7,249.5,318.2,249.4,318.7,249.3z"/>
			<path class="st9" d="M317.6,248.5c0,0.1-0.6,0.4-1.2,0.8c-0.7,0.6-1.3,1.3-1.9,2c-0.4,0.6-0.6,1.2-0.7,1.2c0-0.5,0.2-0.9,0.5-1.4
				c0.4-0.9,1.1-1.6,2-2.1C316.7,248.8,317.2,248.6,317.6,248.5z"/>
			<path class="st9" d="M296.5,252.8c-0.1,0-0.2-0.8-0.5-1.6c-0.4-1-0.9-2-1.5-3c-0.5-0.7-1-1.3-1-1.4c0.5,0.3,0.9,0.7,1.2,1.2
				c0.8,0.9,1.3,1.9,1.6,3.1C296.5,251.7,296.6,252.2,296.5,252.8z"/>
			<path class="st9" d="M296.4,249.9c-0.1,0-0.2-0.4-0.4-0.7s-0.4-0.7-0.4-0.7s-0.2-0.4-0.4-0.7s-0.4-0.7-0.4-0.7s0.4,0.2,0.6,0.6
				c0.4,0.4,0.7,0.9,0.8,1.5C296.4,249.3,296.5,249.6,296.4,249.9z"/>
			<path class="st12" d="M325,253c0.3,0.6,1.2,0.6,1.8,0.5c0.8-0.2,1.5-0.8,1.8-1.6c0.3-0.5,0.1-1.1-0.4-1.4
				c-0.5-0.3-1.1-0.1-1.4,0.4l0,0c-0.3,0.3-0.5,0.6-0.8,0.9c-0.3,0.3-0.7,0.4-0.9,0.7C324.9,252.7,324.9,252.9,325,253L325,253z"/>
			<path class="st12" d="M327,255.2c0.2,0.7,1,0.9,1.6,0.9c0.9,0,1.6-0.4,2.1-1.2c0.4-0.4,0.3-1.1-0.1-1.4c-0.4-0.4-1.1-0.3-1.4,0.1
				c-0.3,0.3-0.6,0.5-1,0.7c-0.3,0.2-0.7,0.2-1,0.5C327.1,254.9,327,255.1,327,255.2L327,255.2z"/>
			<path class="st12" d="M328.5,258c0.1,0.6,0.8,0.8,1.3,0.8c0.7,0.1,1.4-0.2,1.8-0.8c0.3-0.4,0.2-0.9-0.2-1.2
				c-0.3-0.2-0.7-0.2-0.9,0c-0.3,0.2-0.6,0.3-0.9,0.5c-0.3,0.2-0.6,0.1-0.9,0.3C328.6,257.8,328.5,257.9,328.5,258L328.5,258z"/>
			<path class="st12" d="M285.3,249.7c-0.4,0.6-1.3,0.4-1.9,0.2c-0.8-0.3-1.4-1-1.5-1.9c-0.2-0.5,0.1-1.1,0.6-1.3
				c0.5-0.2,1.1,0.1,1.3,0.6c0.2,0.4,0.4,0.7,0.7,1c0.2,0.3,0.6,0.5,0.8,0.9C285.4,249.4,285.4,249.6,285.3,249.7L285.3,249.7z"/>
			<path class="st12" d="M282.9,251.5c-0.3,0.6-1.2,0.7-1.8,0.6c-0.8-0.1-1.6-0.7-1.8-1.5c-0.3-0.5-0.1-1.1,0.4-1.4s1.1-0.1,1.4,0.4
				c0.3,0.3,0.6,0.6,0.9,0.9c0.3,0.3,0.7,0.3,1,0.7C283,251.3,283,251.4,282.9,251.5L282.9,251.5z"/>
			<path class="st12" d="M280.9,254.1c-0.2,0.5-0.9,0.6-1.4,0.6c-0.7,0-1.3-0.5-1.6-1.1c-0.2-0.4,0-0.9,0.4-1.1
				c0.3-0.2,0.7-0.1,0.9,0.2c0.2,0.2,0.5,0.4,0.8,0.6c0.3,0.2,0.6,0.2,0.8,0.5C281,253.8,281,254,280.9,254.1L280.9,254.1z"/>
			<path class="st39" d="M295.1,274.1c0,0,6.2-0.2,8,3.4c0,0,2.9-2.7,8.4-0.1c0,0-4,6.3-9.2,5.7
				C297.3,282.5,295.1,274.1,295.1,274.1z"/>
			<path class="st40" d="M295.1,273.9c0,0,6.2-0.1,8,3.3c0,0,2.9-2.5,8.3,0c0,0-3.9,5.9-9.1,5.2
				C297.4,281.7,295.1,273.9,295.1,273.9z"/>
			<g>
				<path class="st41" d="M295.8,272.2c0.1,0.3,0.1,0.6-0.1,0.9c-0.2,0.6-0.8,1-1.5,1.1c-0.3,0.1-0.6,0-0.9-0.1c0-0.1,0.5,0,0.8-0.1
					c0.5-0.2,0.9-0.6,1.2-1C295.7,272.6,295.7,272.2,295.8,272.2z"/>
			</g>
			<g>
				<path class="st41" d="M311.8,277c-0.4,0.4-0.8,0.7-1.2,0.9c-1,0.5-2,0.9-3.1,1.1c-1.1,0.2-2.2,0.3-3.4,0.2c-0.5,0-1-0.1-1.5-0.2
					c-0.5-0.1-1-0.2-1.5-0.4c-1.1-0.3-2.1-0.8-3-1.4c-1-0.6-1.8-1.4-2.4-2.3c-0.3-0.4-0.5-0.9-0.6-1.4c0.1,0,0.3,0.5,0.9,1.2
					c0.7,0.8,1.5,1.5,2.5,2c0.9,0.5,2,0.9,3,1.2c0.5,0.1,0.9,0.2,1.4,0.3c0.5,0.1,0.9,0.2,1.4,0.2c1.1,0.1,2.1,0.1,3.2,0
					c1.1-0.1,2.1-0.4,3.1-0.8C310.9,277.3,311.3,277.1,311.8,277z"/>
			</g>
			<g>
				<path class="st41" d="M313.2,278.1c0,0.1-0.4,0.1-0.8-0.1c-0.5-0.2-0.9-0.7-1-1.3c-0.1-0.4,0-0.8,0.1-0.8s0.1,0.4,0.2,0.7
					c0.2,0.4,0.5,0.8,0.9,1.1C312.9,278,313.2,278.1,313.2,278.1z"/>
			</g>
			<path class="st42" d="M302.8,278.4c2.8,0.7,5.8,0.3,8.4-1.1l0.2-0.2c-5.5-2.5-8.3,0-8.3,0c-1.8-3.4-8-3.3-8-3.3
				S296.1,277.2,302.8,278.4z"/>
			
				<ellipse transform="matrix(0.1116 -0.9937 0.9937 0.1116 -9.2906 551.2589)" class="st43" cx="303.7" cy="280.8" rx="0.6" ry="1"/>
			<path class="st42" d="M307.4,276c0.5,0.4,1.1,1,0.8,1.5c-0.5,0.8-5.9,1.2-8.7-1c-1.5-1.2-1.4-1.9-0.9-2.3
				c-1.1-0.3-2.3-0.4-3.5-0.4c0.7,2.2,1.7,4.2,3.1,6c-0.4-1.5-0.2-2.9,1.8-1.6c3.2,2,5.5,0.7,6.8,1.4c0.5,0.3,0.3,1-0.2,1.8
				c1.9-1.1,3.5-2.6,4.8-4.3C310.2,276.6,308.8,276.2,307.4,276z"/>
			<path class="st28" d="M296,241.6c-0.1,0.1-0.5-0.1-1-0.4c-0.6-0.3-1.3-0.5-2-0.6c-0.7-0.1-1.3-0.1-2,0c-0.3,0-0.6,0.1-0.9,0.2
				c-0.3,0-0.6,0.1-0.9,0.2c-0.7,0.2-1.4,0.4-2,0.7c-1.5,0.6-2.9,1.5-3,1.3s1-1.4,2.5-2.4c0.7-0.5,1.4-0.8,2.1-1.1
				c0.4-0.1,0.7-0.3,1.1-0.4c0.4-0.1,0.8-0.1,1.1-0.1c0.8,0,1.7,0.2,2.5,0.5c0.8,0.3,1.5,0.7,2.1,1.2
				C295.8,241.1,296.1,241.5,296,241.6z"/>
			<path class="st28" d="M315.9,243.3c0.1,0.1,0.5,0,1-0.2c0.7-0.2,1.4-0.3,2.1-0.3c0.7,0,1.4,0.1,2,0.3c0.3,0.1,0.6,0.2,0.9,0.3
				c0.3,0.1,0.6,0.2,0.9,0.3c0.7,0.3,1.3,0.6,1.9,1c1.3,0.9,2.6,2,2.8,1.8s-0.8-1.5-2-2.7c-0.6-0.6-1.2-1.1-1.9-1.5
				c-0.3-0.2-0.7-0.4-1-0.5c-0.4-0.1-0.7-0.2-1.1-0.3c-0.8-0.1-1.7-0.1-2.5,0c-0.8,0.1-1.6,0.5-2.3,0.9
				C316.1,242.8,315.9,243.2,315.9,243.3z"/>
			<ellipse class="st43" cx="305" cy="277.8" rx="1" ry="0.6"/>
			<path class="st12" d="M513.7,88.6c0-0.1-0.1-0.2-0.1-0.2c-0.3-1.2,0.9-2.9,1.6-3.8c1.1-1.2,2.4-2.1,3.9-2.6
				c1.3-0.5,2.7-0.7,4.2-0.7c0.7,0,1.3,0.1,1.9,0.5c1,0.7,1.3,2.2,0,2.7c-1.2,0.4-2.4,0.6-3.6,1c-1.4,0.5-2.8,1.1-4.1,1.8
				C516.8,87.7,514.3,89.8,513.7,88.6z"/>
			<path class="st12" d="M515.1,96.8c4.8-4.4,11.1-2.8,14.6,2.2c0.1,0.1,0.4,0.1,0.4-0.1c-0.7-6.5-13.7-9.4-15.2-2.2
				c0,0.1,0,0.1,0.1,0.2C515,96.8,515.1,96.8,515.1,96.8L515.1,96.8z"/>
			<path class="st9" d="M530.2,95.2c-0.5-3.2-4.2-5-7.1-4.4c-0.3,0.1-0.2,0.6,0.1,0.6c1.5,0,2.9,0.3,4.2,1.1
				C528.4,93.2,529.4,94.2,530.2,95.2C530.1,95.3,530.2,95.3,530.2,95.2L530.2,95.2z"/>
			<path class="st44" d="M534.3,107c0,0,1.7-2.1,2.9-0.6S537.6,106.2,534.3,107z"/>
			<path class="st9" d="M532.8,108.1c-1.4,1.3-0.1,4.4,1.9,3.8c0.1,0,0.1-0.1,0.1-0.2c0,0,0-0.1-0.1-0.1c-0.6-0.2-1.2-0.6-1.7-1.1
				c-0.4-0.7-0.4-1.6-0.1-2.3C533,108.2,532.9,108.1,532.8,108.1C532.9,108.1,532.8,108.1,532.8,108.1L532.8,108.1L532.8,108.1z"/>
			<path class="st9" d="M537.4,111.9c0.7,0,1.5-0.3,2-0.8c0.3-0.3-0.1-0.8-0.4-0.6c-0.3,0.2-0.5,0.3-0.8,0.5
				c-0.3,0.1-0.6,0.2-0.9,0.4c-0.1,0.1-0.2,0.3-0.1,0.4C537.2,111.9,537.3,111.9,537.4,111.9L537.4,111.9z"/>
			<path class="st12" d="M560.3,88.6c0-0.1,0.1-0.2,0.1-0.2c0.3-1.2-0.9-2.9-1.6-3.8c-1.1-1.2-2.4-2.1-3.9-2.6
				c-1.3-0.5-2.7-0.7-4.2-0.7c-0.7,0-1.3,0.1-1.9,0.5c-1,0.7-1.3,2.2,0,2.7c1.2,0.4,2.4,0.6,3.6,1c1.4,0.5,2.8,1.1,4.1,1.8
				C557.2,87.7,559.7,89.8,560.3,88.6z"/>
			<path class="st12" d="M559.1,96.6c-1.6-7.2-14.5-4.3-15.2,2.2c0,0.2,0.3,0.2,0.4,0.1c3.5-5,9.8-6.6,14.6-2.2c0.1,0.1,0.1,0,0.2,0
				C559.1,96.7,559.1,96.7,559.1,96.6L559.1,96.6z"/>
			<path class="st9" d="M543.8,95.3c0.7-1.1,1.7-2.1,2.8-2.8c1.3-0.7,2.7-1.1,4.2-1.1c0.3,0,0.4-0.5,0.1-0.6
				C547.9,90.2,544.2,92,543.8,95.3C543.8,95.3,543.8,95.3,543.8,95.3L543.8,95.3z"/>
			<path class="st45" d="M550.8,117.5c-0.8-3-4.5-2-6.8-1.9s-4.5,0.2-6.8,0.1s-4.2-0.3-6.4-0.3c-1.4,0-3.1-0.5-4.2,0.7
				c-2.3,2.4,0.8,6.5,2.8,8c2.6,1.8,5.7,2.8,8.9,2.9c2.9,0.1,5.7-0.7,8.1-2.2c2.2-1.4,4.9-4.2,4.3-7L550.8,117.5z"/>
			<g>
				<defs>
					<path id="SVGID_00000031185513050330063860000017380985224716009363_" d="M550.8,117.5c-0.8-3-4.5-2-6.8-1.9s-4.5,0.2-6.8,0.1
						s-4.2-0.3-6.4-0.3c-1.4,0-3.1-0.5-4.2,0.7c-2.3,2.4,0.8,6.5,2.8,8c2.6,1.8,5.7,2.8,8.9,2.9c2.9,0.1,5.7-0.7,8.1-2.2
						c2.2-1.4,4.9-4.2,4.3-7L550.8,117.5z"/>
				</defs>
				<clipPath id="SVGID_00000045619289226707728840000017825736142857015178_">
					<use xlink:href="#SVGID_00000031185513050330063860000017380985224716009363_"  style="overflow:visible;"/>
				</clipPath>
				<g style="clip-path:url(#SVGID_00000045619289226707728840000017825736142857015178_);">
					<path class="st47" d="M547.3,125.6c0,0-9.2-5.9-16.7-0.3c-5.1,4.6,12.8,4.4,12.8,4.4L547.3,125.6z"/>
				</g>
			</g>
			<path class="st21" d="M544,115.6c-2.2,0.1-4.5,0.2-6.8,0.1c-2.1,0-4.2-0.3-6.4-0.3c-1.4,0-3.1-0.5-4.2,0.7c0,0,7.7,4,23.4,0.1
				C548.8,114.8,545.9,115.5,544,115.6z"/>
			<path class="st11" d="M571.3,80.6c1.7-10.8-9.6-25-20.4-26.7l-15.8-2.2c-11.5-1.9-22.4,8.8-24.4,20.3l2.7,14.6
				c0,0,4.8-14.4,35.6-15.6c0,0,1.6,16.1,17,23.1L571.3,80.6z"/>
			<path class="st11" d="M442.7,220.2L429.2,199l-20.5-6l-11.3,1.7l-13.6,8.6l-4.5,24.2c3.8,2.6,5,14.7,5,14.7s2-14.2,23-14.4
				c13.8-0.2,18.4-9.2,20.2-15.6c0.4,7.5,1,12.1,5.5,16.1c2.7,2.4,7,2.7,9.8,2.9L442.7,220.2z"/>
			<path class="st11" d="M294.3,227.2c0,0-14.8,17.6-11.8,36.8c14.3,38.7-3.7,63,1.5,98.1c0,0-6.3-3.9-11-17.1s-1.9-28.3-1.9-28.3
				c-1.2-4.4-1.5-9.1-1.1-13.6c1.1-10.7,2.7-49.5,3.4-59.1S294.3,227.2,294.3,227.2z"/>
			<path class="st12" d="M273.5,243.9c-0.7,9.6-2.3,48.4-3.4,59.1c-0.8,7.6-1.2,13.9-1.2,13.9s-0.5,14.8,4.2,28
				c0.1,0.4,0.3,0.7,0.4,1.1c-0.1-6.5-0.3-12.9-0.3-19.3C273.1,292.5,274,236.8,273.5,243.9z"/>
			<rect x="544.3" y="357.8" class="st48" width="9" height="11.2"/>
			<path class="st8" d="M548.7,360.1c-1.1,0-2,0.9-2,2v2.6h-2.3v-6.2h7.7c0.4,0,0.9,0,1.3,0.1v1.4L548.7,360.1z"/>
			<rect x="566.9" y="357.8" class="st48" width="9" height="11.2"/>
			<path class="st6" d="M581.6,392.5h-42.7c-0.8,0-1.4-0.6-1.4-1.3c0-0.1,0-0.2,0-0.3l4-24.4c0.2-0.9,1-1.6,1.9-1.6h33.6
				c0.9,0,1.7,0.7,1.9,1.6l4,24.4c0.2,0.7-0.3,1.5-1.1,1.6C581.8,392.5,581.7,392.5,581.6,392.5z"/>
			<path class="st8" d="M560.1,391h-22.7c-1.1,0.1-2.1,0.7-2.8,1.6l-3.3,4.3H589l-3.3-4.3c-0.7-0.9-1.7-1.5-2.8-1.6H560.1z"/>
			<path class="st13" d="M545.1,367.4c0.2-0.9,1-1.6,1.9-1.6h31.8c-0.3-0.6-1-1-1.7-1h-33.6c-0.9,0-1.7,0.7-1.9,1.6l-4,24.4
				c0,0,0,0.1,0,0.1h3.7l3.6-22L545.1,367.4L545.1,367.4z M570.6,378.6c0,6.3-5.1,11.4-11.4,11.4c-6.3,0-11.4-5.1-11.4-11.4
				c0-6.3,5.1-11.4,11.4-11.4S570.6,372.3,570.6,378.6C570.6,378.6,570.6,378.6,570.6,378.6z"/>
			<path class="st49" d="M532.6,396.2h55.1c0.9,0,1.6,0.7,1.6,1.6v4.5c0,0.9-0.7,1.6-1.6,1.6h-55.1c-0.9,0-1.6-0.7-1.6-1.6v-4.5
				C531,397,531.7,396.2,532.6,396.2z"/>
			<path class="st5" d="M560.2,389.2c-6.3,0-11.4-5.1-11.4-11.4s5.1-11.4,11.4-11.4c6.3,0,11.4,5.1,11.4,11.4
				C571.6,384.1,566.5,389.2,560.2,389.2z"/>
			<path class="st6" d="M560.2,383.3c-3,0-5.5-2.5-5.5-5.5c0-3,2.5-5.5,5.5-5.5c3,0,5.5,2.5,5.5,5.5
				C565.7,380.9,563.3,383.3,560.2,383.3z"/>
			<path class="st15" d="M554.7,377.4c0,0.1,0,0.2,0,0.4c0,0.6,0.1,1.2,0.3,1.8h5.2c0.6,0,1.1-0.5,1.1-1.1s-0.5-1.1-1.1-1.1
				c0,0,0,0,0,0H554.7z"/>
			<circle class="st50" cx="560.2" cy="377.8" r="2.7"/>
			<circle class="st51" cx="560.2" cy="369.3" r="1.2"/>
			
				<ellipse transform="matrix(0.7071 -0.7071 0.7071 0.7071 -100.6044 500.8167)" class="st51" cx="554.2" cy="371.8" rx="1.2" ry="1.2"/>
			
				<ellipse transform="matrix(0.7071 -0.7071 0.7071 0.7071 -109.085 504.3334)" class="st51" cx="554.2" cy="383.8" rx="1.2" ry="1.2"/>
			<circle class="st51" cx="560.2" cy="386.3" r="1.2"/>
			
				<ellipse transform="matrix(0.7071 -0.7071 0.7071 0.7071 -105.5253 512.7865)" class="st51" cx="566.2" cy="383.8" rx="1.2" ry="1.2"/>
			<circle class="st51" cx="568.7" cy="377.8" r="1.2"/>
			
				<ellipse transform="matrix(0.7071 -0.7071 0.7071 0.7071 -97.0404 509.2717)" class="st51" cx="566.2" cy="371.8" rx="1.2" ry="1.2"/>
			<path class="st8" d="M560.2,378.9c0.6,0,1.1-0.5,1.1-1.1s-0.5-1.1-1.1-1.1c0,0,0,0,0,0h-8.5c-0.6,0-1.1,0.5-1.1,1.1
				c0,0.6,0.5,1.1,1.1,1.1H560.2z"/>
			<path class="st52" d="M545.8,358.6c-6,0-8,3.9-8,6.9l-1,1.7h-12.6l-0.9-0.9v-4.2c0-1.6-0.3-10.8,13.9-10.8h46.1
				c14.2,0,13.9,9.2,13.9,10.8v4.2l-0.9,0.9h-12.7l-1-1.7c0-3.1-2-6.9-8-6.9H545.8z"/>
			<path class="st5" d="M582.3,365.5H598c0.6,0.1,1,0.6,1,1.2v5.9c0,0.6-0.4,1.1-1,1.2h-15.7c-0.6-0.1-1-0.6-1-1.2v-5.9
				C581.2,366.1,581.7,365.6,582.3,365.5z"/>
			<path class="st8" d="M571.3,360.1c-1.1,0-2,0.9-2,2v2.6h-2.3v-6.2h7.8c0.4,0,0.9,0,1.3,0.1v1.4L571.3,360.1z"/>
			<path class="st8" d="M533.1,399.9c0,0.9,0.7,1.6,1.6,1.6h54.6v0.8c0,0.3-0.1,0.5-0.2,0.8h-57.9c-0.1-0.2-0.2-0.5-0.2-0.8v-4.5
				c0-0.3,0.1-0.7,0.3-0.9l0,0l0.1-0.1c0.3-0.4,0.8-0.6,1.3-0.6h0.5L533.1,399.9L533.1,399.9z"/>
			<path class="st8" d="M560.3,358.6h-14.4c-0.5,0-1.1,0-1.6,0.1c-4.7,0.6-6.4,4.1-6.4,6.8h-4l0-0.1c0-3.5,2.3-7.9,9.1-7.9h32.8
				c6.8,0,9.1,4.4,9.1,7.9l0,0.1h-2.3c0-2.8-1.7-6.4-6.7-6.9c-0.4,0-0.9-0.1-1.3-0.1H560.3z"/>
			<path class="st53" d="M586.5,366.7h9.7c0.3,0,0.6,0.3,0.6,0.6v3c0,0.3-0.3,0.6-0.6,0.6h-9.7c-0.3,0-0.6-0.3-0.6-0.6v-3
				C585.9,367,586.2,366.7,586.5,366.7z"/>
			<path class="st54" d="M583.1,366.3v4.8c0,0.6,0.4,1.1,1,1.2H599v0.2c0,0.6-0.4,1.1-1,1.2h-15.7c-0.6-0.1-1-0.6-1-1.2v-5.9
				c0-0.6,0.4-1.1,1-1.2h0.9V366.3z"/>
			<path class="st5" d="M522.5,365.5h15.7c0.6,0.1,1,0.6,1,1.2v5.9c0,0.6-0.4,1.1-1,1.2h-15.7c-0.6-0.1-1-0.6-1-1.2v-5.9
				C521.5,366.1,521.9,365.6,522.5,365.5z"/>
			<path class="st53" d="M526.8,366.7h9.7c0.3,0,0.6,0.3,0.6,0.6v3c0,0.3-0.3,0.6-0.6,0.6h-9.7c-0.3,0-0.6-0.3-0.6-0.6v-3
				C526.2,367,526.5,366.7,526.8,366.7z"/>
			<path class="st54" d="M523.4,366.3v4.8c0,0.6,0.4,1.1,1,1.2h14.8v0.2c0,0.6-0.4,1.1-1,1.2h-15.7c-0.6-0.1-1-0.6-1-1.2v-5.9
				c0-0.6,0.4-1.1,1-1.2h0.9V366.3z"/>
			<path class="st3" d="M311.2,287.5H444c1.8,0.1,3.3,1.3,3.7,3l16.9,83.5c0.1,0.6,0.1,1.3-0.2,1.8c-0.5,1-2.9,3.5-3.5,3.5
				L332.8,374c-1.7-0.2-3.2-1.4-3.7-3l-22.7-79.8c1-1.2,2.2-2.2,3.4-3.3C310.2,287.7,310.7,287.5,311.2,287.5z"/>
			<path class="st5" d="M308.4,290.3h132.8c1.8,0.1,3.3,1.3,3.7,3l16.9,83.5c0.3,1.3-0.4,2.6-1.7,3c-0.2,0.1-0.5,0.1-0.7,0.1H326.6
				c-1.8-0.1-3.3-1.3-3.7-3L306,293.3c-0.3-1.3,0.4-2.6,1.7-3C308,290.3,308.2,290.3,308.4,290.3z"/>
			<path class="st1" d="M342.4,325.2h58.5c1.3,0.1,2.5,1,2.8,2.3l7.2,38.9c0.2,1-0.4,2-1.4,2.3c-0.2,0-0.3,0.1-0.5,0.1h-58.5
				c-1.3-0.1-2.5-1-2.8-2.3l-7.2-38.9c-0.2-1,0.4-2,1.4-2.3C342.1,325.3,342.2,325.2,342.4,325.2z"/>
			<path class="st3" d="M373.5,344.5h17.2c1.6-0.1,3,1.2,3.1,2.8c0,0.4,0,0.7-0.1,1l-11.9,49.2c-0.6,2.2-2.5,3.7-4.8,3.9h-17.2
				c-1.6,0.1-3-1.2-3.1-2.8c0-0.4,0-0.7,0.1-1l11.9-49.2C369.3,346.2,371.3,344.6,373.5,344.5z"/>
			<path class="st5" d="M367.6,344.5h17.2c1.6-0.1,3,1.2,3.1,2.8c0,0.4,0,0.7-0.1,1l-11.9,49.2c-0.6,2.2-2.5,3.7-4.8,3.9h-17.2
				c-1.6,0.1-3-1.2-3.1-2.8c0-0.4,0-0.7,0.1-1l11.9-49.2C363.4,346.2,365.3,344.6,367.6,344.5z"/>
			<path class="st5" d="M331.7,407.5H409c2.5,0,4.6-2.1,4.6-4.6l0,0c0-2.5-2.1-4.6-4.6-4.6h-77.3c-2.5,0-4.6,2.1-4.6,4.6l0,0
				C327.1,405.5,329.1,407.5,331.7,407.5z"/>
			<path class="st3" d="M393.5,407.5h28.9c2.5,0,4.6-2.1,4.6-4.6l0,0c0-2.5-2.1-4.6-4.6-4.6h-28.9c-2.5,0-4.6,2.1-4.6,4.6l0,0
				C388.9,405.5,391,407.5,393.5,407.5z"/>
			<path class="st1" d="M324.1,297.6h0.7c0.6,0,1.1,0.5,1.2,1.1l3.3,17.6c0.1,0.5-0.2,0.9-0.6,1c-0.1,0-0.1,0-0.2,0h-0.7
				c-0.6,0-1.1-0.5-1.2-1.1l-3.2-17.6c-0.1-0.5,0.2-0.9,0.6-1C323.9,297.7,324,297.6,324.1,297.6z"/>
			<path class="st1" d="M329.6,297.6h0.7c0.6,0,1.1,0.5,1.2,1.1l3.3,17.6c0.1,0.5-0.2,0.9-0.6,1c-0.1,0-0.1,0-0.2,0h-0.7
				c-0.6,0-1.1-0.5-1.2-1.1l-3.3-17.6c-0.1-0.5,0.2-0.9,0.6-1C329.5,297.7,329.6,297.6,329.6,297.6z"/>
			<path class="st1" d="M335.2,297.6h0.7c0.6,0,1.1,0.5,1.2,1.1l3.3,17.6c0.1,0.5-0.2,0.9-0.6,1c-0.1,0-0.1,0-0.2,0h-0.7
				c-0.6,0-1.1-0.5-1.2-1.1l-3.3-17.6c-0.1-0.5,0.2-0.9,0.6-1C335.1,297.7,335.1,297.6,335.2,297.6z"/>
			<path class="st1" d="M340.8,297.6h0.7c0.6,0,1.1,0.5,1.2,1.1l3.2,17.6c0.1,0.5-0.2,0.9-0.6,1c-0.1,0-0.1,0-0.2,0h-0.7
				c-0.6,0-1.1-0.5-1.2-1.1l-3.3-17.6c-0.1-0.5,0.2-0.9,0.6-1C340.6,297.7,340.7,297.6,340.8,297.6z"/>
			<path class="st1" d="M346.4,297.6h0.7c0.6,0,1.1,0.5,1.2,1.1l3.3,17.6c0.1,0.5-0.2,0.9-0.6,1c-0.1,0-0.1,0-0.2,0H350
				c-0.6,0-1.1-0.5-1.2-1.1l-3.3-17.6c-0.1-0.5,0.2-0.9,0.6-1C346.2,297.7,346.3,297.6,346.4,297.6z"/>
			<path class="st1" d="M352,297.6h0.7c0.6,0,1.1,0.5,1.2,1.1l3.3,17.6c0.1,0.5-0.2,0.9-0.6,1c-0.1,0-0.1,0-0.2,0h-0.7
				c-0.6,0-1.1-0.5-1.2-1.1l-3.3-17.6c-0.1-0.5,0.2-0.9,0.6-1C351.8,297.7,351.9,297.6,352,297.6z"/>
			<path class="st1" d="M357.5,297.6h0.7c0.6,0,1.1,0.5,1.2,1.1l3.3,17.6c0.1,0.5-0.2,0.9-0.6,1c-0.1,0-0.1,0-0.2,0h-0.7
				c-0.6,0-1.1-0.5-1.2-1.1l-3.3-17.6c-0.1-0.5,0.2-0.9,0.6-1C357.4,297.7,357.5,297.6,357.5,297.6z"/>
			<path class="st1" d="M363.1,297.6h0.7c0.6,0,1.1,0.5,1.2,1.1l3.3,17.6c0.1,0.5-0.2,0.9-0.6,1c-0.1,0-0.1,0-0.2,0h-0.7
				c-0.6,0-1.1-0.5-1.2-1.1l-3.3-17.6c-0.1-0.5,0.2-0.9,0.6-1C363,297.7,363.1,297.6,363.1,297.6z"/>
			<path class="st1" d="M368.7,297.6h0.7c0.6,0,1.1,0.5,1.2,1.1l3.3,17.6c0.1,0.5-0.2,0.9-0.6,1c-0.1,0-0.1,0-0.2,0h-0.7
				c-0.6,0-1.1-0.5-1.2-1.1l-3.3-17.6c-0.1-0.5,0.2-0.9,0.6-1C368.6,297.7,368.6,297.6,368.7,297.6z"/>
			<path class="st1" d="M374.3,297.6h0.7c0.6,0,1.1,0.5,1.2,1.1l3.3,17.6c0.1,0.5-0.2,0.9-0.6,1c-0.1,0-0.1,0-0.2,0H378
				c-0.6,0-1.1-0.5-1.2-1.1l-3.3-17.6c-0.1-0.5,0.2-0.9,0.6-1C374.2,297.7,374.2,297.7,374.3,297.6z"/>
			<path class="st1" d="M379.9,297.6h0.7c0.6,0,1.1,0.5,1.2,1.1l3.3,17.6c0.1,0.5-0.2,0.9-0.6,1c-0.1,0-0.1,0-0.2,0h-0.7
				c-0.6,0-1.1-0.5-1.2-1.1l-3.3-17.6c-0.1-0.5,0.2-0.9,0.6-1C379.7,297.7,379.8,297.6,379.9,297.6z"/>
			<path class="st1" d="M385.5,297.6h0.7c0.6,0,1.1,0.5,1.2,1.1l3.3,17.6c0.1,0.5-0.2,0.9-0.6,1c-0.1,0-0.1,0-0.2,0h-0.7
				c-0.6,0-1.1-0.5-1.2-1.1l-3.3-17.6c-0.1-0.5,0.2-0.9,0.6-1C385.3,297.7,385.4,297.6,385.5,297.6z"/>
			<path class="st1" d="M391,297.6h0.7c0.6,0,1.2,0.4,1.3,1.1l3.3,17.6c0.1,0.5-0.2,0.9-0.6,1c-0.1,0-0.1,0-0.2,0h-0.7
				c-0.6,0-1.1-0.5-1.2-1.1l-3.3-17.6c-0.1-0.5,0.2-0.9,0.6-1C390.9,297.7,390.9,297.7,391,297.6z"/>
			<path class="st1" d="M396.6,297.6h0.7c0.6,0,1.1,0.5,1.2,1.1l3.3,17.6c0.1,0.5-0.2,0.9-0.6,1c-0.1,0-0.1,0-0.2,0h-0.7
				c-0.6,0-1.1-0.5-1.2-1.1l-3.3-17.6c-0.1-0.5,0.2-0.9,0.6-1C396.5,297.7,396.5,297.6,396.6,297.6z"/>
			<path class="st1" d="M402.2,297.6h0.7c0.6,0,1.1,0.5,1.2,1.1l3.3,17.6c0.1,0.5-0.2,0.9-0.6,1c-0.1,0-0.1,0-0.2,0h-0.7
				c-0.6,0-1.1-0.5-1.2-1.1l-3.3-17.6c-0.1-0.5,0.2-0.9,0.6-1C402,297.7,402.1,297.6,402.2,297.6z"/>
			<path class="st1" d="M407.8,297.6h0.7c0.6,0,1.1,0.5,1.2,1.1l3.3,17.6c0.1,0.5-0.2,0.9-0.6,1c-0.1,0-0.1,0-0.2,0h-0.7
				c-0.6,0-1.1-0.5-1.2-1.1l-3.3-17.6c-0.1-0.5,0.2-0.9,0.6-1C407.6,297.7,407.7,297.6,407.8,297.6z"/>
			<path class="st1" d="M413.4,297.6h0.7c0.6,0,1.1,0.5,1.2,1.1l3.3,17.6c0.1,0.5-0.2,0.9-0.6,1c-0.1,0-0.1,0-0.2,0H417
				c-0.6,0-1.1-0.5-1.2-1.1l-3.2-17.6c-0.1-0.5,0.2-0.9,0.6-1C413.2,297.7,413.3,297.6,413.4,297.6z"/>
			<path class="st1" d="M418.9,297.6h0.7c0.6,0,1.1,0.5,1.2,1.1l3.3,17.6c0.1,0.5-0.2,0.9-0.6,1c-0.1,0-0.1,0-0.2,0h-0.7
				c-0.6,0-1.1-0.5-1.2-1.1l-3.3-17.6c-0.1-0.5,0.2-0.9,0.6-1C418.8,297.7,418.9,297.6,418.9,297.6z"/>
			<path class="st1" d="M424.5,297.6h0.7c0.6,0,1.1,0.5,1.2,1.1l3.3,17.6c0.1,0.5-0.2,0.9-0.6,1c-0.1,0-0.1,0-0.2,0h-0.7
				c-0.6,0-1.1-0.5-1.2-1.1l-3.3-17.6c-0.1-0.5,0.2-0.9,0.6-1C424.4,297.7,424.4,297.6,424.5,297.6z"/>
			<rect x="135.9" y="393.8" class="st55" width="83.6" height="7.7"/>
			<path class="st5" d="M209.2,394.5c-0.9,0.1-1.7-0.6-1.8-1.5c-0.1-0.9,0.6-1.7,1.5-1.8c0.1,0,0.2,0,0.3,0h59
				c1.7,0,3.4,0.7,4.6,1.9l0,0c2.5,2.6,2.4,6.7-0.1,9.2c-1.2,1.2-2.8,1.8-4.5,1.8h-59c-0.9,0.1-1.7-0.6-1.8-1.5
				c-0.1-0.9,0.6-1.7,1.5-1.8c0.1,0,0.2,0,0.3,0h2.7c0.5-0.3,0.9-0.7,1.3-1.1c0.8-0.7,1.2-1.6,1.2-2.6c-0.2-1-0.7-2-1.6-2.6
				L209.2,394.5z"/>
			<path class="st56" d="M135.9,394.5c-0.9,0.1-1.7-0.6-1.8-1.5c-0.1-0.9,0.6-1.7,1.5-1.8c0.1,0,0.2,0,0.3,0h74
				c1.7,0,3.4,0.7,4.6,1.9l0,0c2.5,2.6,2.4,6.7-0.1,9.2c-1.2,1.2-2.8,1.8-4.5,1.8h-74c-0.9,0.1-1.7-0.6-1.8-1.5
				c-0.1-0.9,0.6-1.7,1.5-1.8c0.1,0,0.2,0,0.3,0h74c1.7,0,3.2-1.4,3.2-3.2c0-1.7-1.4-3.2-3.2-3.2L135.9,394.5z"/>
			<rect x="195.6" y="379.2" class="st57" width="70.1" height="9.3"/>
			<path class="st6" d="M208.1,380c1.1,0,2-0.9,2-2s-0.9-2-2-2h-54.4c-2.1,0-4.1,0.8-5.5,2.3l0,0c-3.1,3.1-3,8.1,0,11.1
				c1.5,1.5,3.4,2.3,5.5,2.3h54.4c1.1,0,2-0.9,2-2s-0.9-2-2-2h-3.3c-0.6-0.4-1.1-0.9-1.6-1.4c-0.9-0.8-1.5-2-1.5-3.2
				c0.2-1.3,0.9-2.4,1.9-3.1L208.1,380z"/>
			<path class="st13" d="M265.6,380c1.1,0,2-0.9,2-2s-0.9-2-2-2h-58.5c-2.1,0-4.1,0.8-5.5,2.3l0,0c-3.1,3.1-3,8.1,0,11.1
				c1.5,1.5,3.4,2.3,5.5,2.3h58.5c1.1,0,2-0.9,2-2s-0.9-2-2-2h-58.5c-2.1,0-3.8-1.7-3.8-3.8c0-2.1,1.7-3.8,3.8-3.8L265.6,380z"/>
			<rect x="168.1" y="363.2" class="st57" width="45.5" height="9.5"/>
			<path class="st8" d="M200.8,364c-1.1-0.1-2-1.1-1.9-2.2c0.1-1,0.9-1.8,1.9-1.9h33.5c2.1,0,4.2,0.9,5.7,2.4l0,0
				c3.2,3.1,3.3,8.1,0.2,11.3c-1.5,1.6-3.7,2.5-5.9,2.4h-33.5c-1.1-0.1-2-1.1-1.9-2.2c0.1-1,0.9-1.8,1.9-1.9h3.4
				c0.6-0.4,1.1-0.9,1.6-1.4c0.9-0.8,1.5-2,1.5-3.2c-0.2-1.3-0.9-2.5-1.9-3.2H200.8z"/>
			<path class="st52" d="M168.1,364c-1.1,0.1-2.1-0.8-2.2-1.9c-0.1-1.1,0.8-2.1,1.9-2.2c0.1,0,0.2,0,0.3,0h33.6
				c2.1,0,4.2,0.9,5.7,2.4l0,0c3.2,3.1,3.3,8.1,0.2,11.3c-1.5,1.6-3.7,2.5-5.9,2.4h-33.6c-1.1,0.1-2.1-0.8-2.2-1.9
				c-0.1-1.1,0.8-2.1,1.9-2.2c0.1,0,0.2,0,0.3,0h33.6c2.2-0.1,3.8-2,3.7-4.1c-0.1-2-1.7-3.6-3.7-3.7L168.1,364z"/>
			<path class="st1" d="M154.4,392.2h-39.2c-3.2,0-5.9,2.6-5.9,5.9c0,3.2,2.6,5.9,5.9,5.9h39.2c3.2,0,5.9-2.6,5.9-5.9
				C160.3,394.8,157.6,392.2,154.4,392.2L154.4,392.2z"/>
			<path class="st5" d="M66.7,392.9h50.1c2.9,0,5.2,2.3,5.2,5.2l0,0c0,2.9-2.3,5.2-5.2,5.2H66.7V392.9z"/>
			<path class="st3" d="M66.7,392.2c-0.4,0-0.7,0.3-0.7,0.7s0.3,0.7,0.7,0.7l0,0h50.1c2.5,0,4.5,2,4.5,4.5s-2,4.5-4.5,4.5H66.7
				c-0.4,0-0.7,0.3-0.7,0.7s0.3,0.7,0.7,0.7l0,0h50.1c3.2,0,5.9-2.6,5.9-5.9c0-3.2-2.6-5.9-5.9-5.9l0,0L66.7,392.2z"/>
			<path class="st3" d="M152.6,398.1c0-3.2-2.6-5.9-5.9-5.9h5.1c3.2,0,5.9,2.6,5.9,5.9c0,3.2-2.6,5.9-5.9,5.9h-5.1
				C150,403.9,152.6,401.3,152.6,398.1L152.6,398.1z"/>
			<path class="st3" d="M145.2,398.1c0-3.2-2.6-5.9-5.9-5.9h5.1c3.2,0,5.9,2.6,5.9,5.9c0,3.2-2.6,5.9-5.9,5.9h-5.1
				C142.6,403.9,145.2,401.3,145.2,398.1L145.2,398.1z"/>
			<path class="st6" d="M77,382h34.3c2.8,0,5.1,2.3,5.1,5.1s-2.3,5.1-5.1,5.1H77c-2.8,0-5.1-2.3-5.1-5.1S74.2,382,77,382L77,382z"/>
			<path class="st5" d="M153.8,382.5h-43.9c-2.5,0-4.5,2-4.5,4.5l0,0c0,2.5,2,4.5,4.5,4.5h43.9V382.5z"/>
			<path class="st13" d="M153.8,382c0.3,0,0.6,0.3,0.6,0.6s-0.3,0.6-0.6,0.6h-43.9c-2.2,0.1-3.8,2-3.7,4.1c0.1,2,1.7,3.6,3.7,3.7
				h43.9c0.3,0,0.6,0.3,0.5,0.7c0,0.3-0.2,0.5-0.5,0.5h-43.9c-2.8,0-5.1-2.3-5.1-5.1s2.3-5.1,5.1-5.1l0,0H153.8z"/>
			<path class="st13" d="M78.6,387.1c0-2.8,2.3-5.1,5.1-5.1h-4.5c-2.8,0-5.1,2.3-5.1,5.1s2.3,5.1,5.1,5.1h4.5
				C80.9,392.3,78.6,390,78.6,387.1L78.6,387.1z"/>
			<path class="st13" d="M85.1,387.1c0-2.8,2.3-5.1,5.1-5.1h-4.5c-2.8,0-5.1,2.3-5.1,5.1s2.3,5.1,5.1,5.1h4.5
				C87.4,392.3,85.1,390,85.1,387.1L85.1,387.1z"/>
		</g>
	</g>
</g>
</svg>
