<?xml version="1.0" encoding="utf-8"?>
<!-- Generator: Adobe Illustrator 27.5.0, SVG Export Plug-In . SVG Version: 6.00 Build 0)  -->
<svg version="1.1" id="Layer_1" xmlns="http://www.w3.org/2000/svg" xmlns:xlink="http://www.w3.org/1999/xlink" x="0px" y="0px"
	 viewBox="0 0 685 438.2" style="enable-background:new 0 0 685 438.2;" xml:space="preserve">
<style type="text/css">
	.st0{fill:none;}
	.st1{clip-path:url(#SVGID_00000137852316633217987970000007353592974078627489_);}
	.st2{fill:#EBF4F4;}
	
		.st3{opacity:0.3;clip-path:url(#SVGID_00000115496810623250205360000006578843813212701346_);fill:#EBF4F4;enable-background:new    ;}
	
		.st4{opacity:0.4;clip-path:url(#SVGID_00000041280666049645812030000018089174798662367895_);fill:#EBF4F4;enable-background:new    ;}
	
		.st5{opacity:0.4;clip-path:url(#SVGID_00000103976627380111892200000007334187724951540921_);fill:#EBF4F4;enable-background:new    ;}
	.st6{opacity:0.2;fill:url(#SVGID_00000114763204692583291730000005919110528563133078_);enable-background:new    ;}
	.st7{opacity:0.6;fill:#F6F6F6;enable-background:new    ;}
	.st8{opacity:0.6;}
	.st9{fill:#F6F6F6;}
	.st10{fill-rule:evenodd;clip-rule:evenodd;fill:#00000F;}
	.st11{fill:#2A0404;}
	.st12{fill-rule:evenodd;clip-rule:evenodd;fill:#E9695B;}
	.st13{fill-rule:evenodd;clip-rule:evenodd;fill:#E8685B;}
	.st14{fill-rule:evenodd;clip-rule:evenodd;fill:#F4AD85;}
	.st15{clip-path:url(#SVGID_00000043419349045064810940000014549718885823123615_);}
	.st16{opacity:0.1;fill:#661E32;enable-background:new    ;}
	.st17{fill:#C0C293;}
	.st18{fill:#9FA178;}
	.st19{fill:#3D3C1F;}
	.st20{fill:#FF4E55;}
	.st21{fill:#DF7668;}
	.st22{opacity:0.2;fill:#DF7668;enable-background:new    ;}
	.st23{fill:#661E32;}
	.st24{opacity:0.3;fill:#661E32;enable-background:new    ;}
	.st25{opacity:0.5;fill:#B3252F;enable-background:new    ;}
	.st26{opacity:0.2;fill:#B3252F;enable-background:new    ;}
	.st27{fill:#BB0004;}
	.st28{opacity:0.4;}
	.st29{opacity:0.3;fill:#B3252F;enable-background:new    ;}
	.st30{fill:#7D7D58;}
	.st31{opacity:0.5;fill:#7D7D58;enable-background:new    ;}
	.st32{fill:#FFFFFF;}
	.st33{opacity:0.2;fill:url(#SVGID_00000109013135047152579500000008594995284153982365_);enable-background:new    ;}
	.st34{opacity:0.2;fill:url(#SVGID_00000005256993747606138830000005305262686240433853_);enable-background:new    ;}
	.st35{opacity:0.2;}
	.st36{fill:url(#SVGID_00000182524995175794022110000017238077422860141720_);}
	.st37{fill:url(#SVGID_00000117635295184003051940000000601976112489813668_);}
	.st38{fill-rule:evenodd;clip-rule:evenodd;fill:#EE9073;}
	.st39{opacity:0.4;fill:url(#SVGID_00000139260469033654835580000012139851102968281743_);enable-background:new    ;}
	.st40{opacity:0.5;fill:#F5D0A2;enable-background:new    ;}
	.st41{fill:#D5795C;}
	.st42{opacity:0.4;fill:url(#SVGID_00000034812144924346430130000011973191071230866085_);enable-background:new    ;}
	.st43{opacity:0.4;fill:url(#SVGID_00000163060609268110809470000010236242484400649861_);enable-background:new    ;}
	.st44{opacity:0.4;fill:url(#SVGID_00000047749896501207725760000014226999382708249787_);enable-background:new    ;}
	.st45{fill:#3F1F13;}
	.st46{opacity:0.4;fill:url(#SVGID_00000089537422680445728600000012170519389732544694_);enable-background:new    ;}
	.st47{opacity:0.4;fill:url(#SVGID_00000015333864365529655070000001087478744285541036_);enable-background:new    ;}
	.st48{fill:#6D233C;}
	.st49{fill:#E52749;}
	.st50{opacity:0.15;}
	.st51{opacity:0.15;fill:#6D233C;enable-background:new    ;}
	.st52{opacity:0.45;fill:#E52749;enable-background:new    ;}
	.st53{fill:#320033;}
	.st54{fill:url(#SVGID_00000170988199095691635760000005594731637255915658_);}
	.st55{fill:url(#SVGID_00000132767944842433736440000000697788437137559480_);}
	.st56{opacity:0.57;fill:#FFFFFF;enable-background:new    ;}
	.st57{fill:url(#SVGID_00000142153512506793345880000007193558440861861031_);}
	.st58{opacity:0.2;fill:url(#SVGID_00000022559172745127239360000016502252525004511663_);enable-background:new    ;}
	.st59{opacity:0.57;fill:url(#SVGID_00000057869698021982739890000005311290056874688681_);enable-background:new    ;}
	.st60{opacity:0.5;}
	.st61{fill:url(#SVGID_00000067215329622035285540000009434369595842309519_);}
	.st62{fill:url(#SVGID_00000083802365476427922190000006731111959346809220_);}
	.st63{fill:url(#SVGID_00000054964585260342636520000003557053443723348103_);}
	.st64{fill:url(#SVGID_00000033345106934861228950000010219952891714012042_);}
	.st65{fill:#F4AD85;}
	.st66{fill:#E8685B;}
	.st67{fill:#37354B;}
	.st68{fill:#160101;}
	.st69{fill:#C8DEE1;}
	.st70{fill:#7A9297;}
</style>
<g>
	<rect y="-47.3" class="st0" width="685" height="485.2"/>
	<g>
		<g>
			<g>
				<defs>
					<path id="SVGID_1_" d="M194.3,386.1c-38.6,0-70.2-31.6-70.2-70.2l0,0c0-38.6,31.6-70.2,70.2-70.2l0,0
						c16.3,0,29.7-13.4,29.7-29.7l0,0c0-16.3-13.4-29.7-29.7-29.7h-3.5c-17,0-30.9-13.9-30.9-30.9l0,0c0-17,13.9-30.9,30.9-30.9
						h10.8c6.6,0,12-5.4,12-12l0,0c0-6.6-5.4-12-12-12h-8c-4.6,0-8.3-3.7-8.3-8.3l0,0c0-4.6,3.7-8.3,8.3-8.3h53.5
						c7.2,0,13-5.9,13-13l0,0c0-7.2-5.9-13-13-13h-16c-4.6,0-8.3-3.7-8.3-8.3l0,0c0-4.6,3.7-8.3,8.3-8.3h234.4
						c6,0,10.8,4.9,10.8,10.8l0,0c0,5.9-4.9,10.8-10.8,10.8h-16.4c-9.4,0-17,7.7-17,17l0,0c0,9.4,7.7,17,17,17h63.5
						c6,0,10.8,4.9,10.8,10.8l0,0c0,6-4.9,10.8-10.8,10.8h-10.4c-8.6,0-15.7,7.1-15.7,15.7l0,0c0,8.6,7.1,15.7,15.7,15.7h14.1
						c22.1,0,40.3,18.1,40.3,40.3l0,0c0,22.1-18.1,40.3-40.3,40.3h-4.6c-21.3,0-38.7,17.4-38.7,38.7l0,0c0,21.3,17.4,38.7,38.7,38.7
						h10c21.5,0,39.1,17.6,39.1,39.1l0,0c0,21.5-17.6,39.1-39.1,39.1C410.7,386.1,305.4,386.1,194.3,386.1L194.3,386.1z M493.3,63
						c6,0,10.8-4.8,10.8-10.8s-4.8-10.8-10.8-10.8s-10.8,4.8-10.8,10.8C482.4,58.2,487.3,63,493.3,63L493.3,63z M170.4,100.6
						c4.6,0,8.3-3.7,8.3-8.3S175,84,170.4,84s-8.3,3.7-8.3,8.3C162.1,96.9,165.8,100.6,170.4,100.6z"/>
				</defs>
				<clipPath id="SVGID_00000047773216097313729580000003465683209756436884_">
					<use xlink:href="#SVGID_1_"  style="overflow:visible;"/>
				</clipPath>
				<g style="clip-path:url(#SVGID_00000047773216097313729580000003465683209756436884_);">
					<g>
						<g>
							<rect id="SVGID_3_" x="105.4" y="34.7" class="st2" width="500" height="500"/>
						</g>
						<g>
							<defs>
								<rect id="SVGID_00000027592697943253867390000009220567398665838731_" x="105.4" y="34.7" width="500" height="500"/>
							</defs>
							<clipPath id="SVGID_00000065773636225906043920000003110383936035365004_">
								<use xlink:href="#SVGID_00000027592697943253867390000009220567398665838731_"  style="overflow:visible;"/>
							</clipPath>
							
								<path style="opacity:0.3;clip-path:url(#SVGID_00000065773636225906043920000003110383936035365004_);fill:#EBF4F4;enable-background:new    ;" d="
								M693.2,137.1C628.7,394.8,120.9,202.6,4.3,512.7V50.3l688.9-67.8V137.1z"/>
						</g>
						<g>
							<defs>
								<rect id="SVGID_00000109736609735070336450000003580342181416058005_" x="105.4" y="34.7" width="500" height="500"/>
							</defs>
							<clipPath id="SVGID_00000168081403879477473790000017647404078094648242_">
								<use xlink:href="#SVGID_00000109736609735070336450000003580342181416058005_"  style="overflow:visible;"/>
							</clipPath>
							
								<path style="opacity:0.4;clip-path:url(#SVGID_00000168081403879477473790000017647404078094648242_);fill:#EBF4F4;enable-background:new    ;" d="
								M4.3,204C68.7,461.7,483.8-3.1,693.2,233.3v-305H4.3V204z"/>
						</g>
						<g>
							<defs>
								<rect id="SVGID_00000119091980428263155690000005604015299102292100_" x="105.4" y="34.7" width="500" height="500"/>
							</defs>
							<clipPath id="SVGID_00000158739749083847732360000012034709536586094758_">
								<use xlink:href="#SVGID_00000119091980428263155690000005604015299102292100_"  style="overflow:visible;"/>
							</clipPath>
							
								<path style="opacity:0.4;clip-path:url(#SVGID_00000158739749083847732360000012034709536586094758_);fill:#EBF4F4;enable-background:new    ;" d="
								M641.8,7.2c-116,276-467.1-66.5-732,230.5l56.8-304.3l726.5-201.3L641.8,7.2z"/>
						</g>
					</g>
					
						<linearGradient id="SVGID_00000030463315202638326790000002514904205855595948_" gradientUnits="userSpaceOnUse" x1="355.4" y1="26.2" x2="355.4" y2="260.6" gradientTransform="matrix(1 0 0 -1 0 394)">
						<stop  offset="0" style="stop-color:#FFFFFF"/>
						<stop  offset="0.2323" style="stop-color:#D0D9DA"/>
						<stop  offset="0.4568" style="stop-color:#ABBABD"/>
						<stop  offset="0.6641" style="stop-color:#90A4A8"/>
						<stop  offset="0.848" style="stop-color:#80979B"/>
						<stop  offset="0.9893" style="stop-color:#7A9297"/>
					</linearGradient>
					
						<path style="opacity:0.2;fill:url(#SVGID_00000030463315202638326790000002514904205855595948_);enable-background:new    ;" d="
						M605.4,178.1v189.7h-500V188h37.4v7.2h2v2.5h2.2v2.8h3.5l7.4,5v7.1h4.7v-31.5h28.5v36l9.2-4.1l10.8,4.8V204h8.9v-2.5h0.9v-9.6
						h24.8v-0.4h0.8v-8l1.5-1.2h25.9l1.5,1.2v27.8l2.4-1.3l9.7-5.1l2.7,1.4v-1.1l1.2,0.7v1l4.6,2.4l4.6-2.4v-1l1.2-0.7v1.1l2.7-1.4
						l9.7,5.1l2.4,1.3v-14.1h-0.8v-15.3h0.8v-13.3l1.5-1.2H344l1.5,1.2v8h0.8v0.3H371v24.5h0.9v2.5h8.9v13.2l19.9-0.1v-83.6h28.5
						v79.1h4.7v-7.1l7.4-5h3.5v-2.8h2.2v-2.5h2.1v-21.8H481v61.4h11.1v-19.3l-0.5-0.4c0.3-0.2,0.6-0.5,1-0.7
						c0.4-0.3,0.7-0.5,1.1-0.7c2.5-1.4,5.5-2.4,8.7-2.7c0,0,0.2,0,0.3,0c0.1,0,0.2,0,0.3,0h0.1c0.5-0.1,1.1-0.1,1.8-0.1
						c5.1,0,9.7,1.4,13.1,3.9h-0.3v1.2v18.6l5.4,3.5l1.1-30.5h4.8v-7.4h2.2v-1.5h2.1V198h17.6v0.6h2.1v1.5h2.2v24.1h19.1v-0.6h1.2
						v0.6h5.5l4,3.5V178h20.4V178.1z"/>
					<path class="st7" d="M180,84.8c-1.2,0-2.2,0.5-3.1,1.2c-0.6-5.1-4.9-9-10.2-9c-4.5,0-8.4,3-9.7,7.1c-1.3-2.1-3.5-3.5-6.1-3.5
						c-3.4,0-6.2,2.3-6.9,5.5c-0.7-0.6-1.7-1-2.7-1c-2.4,0-4.3,1.9-4.3,4.3c0,0.5,0.1,0.9,0.2,1.4h7.3h0.9h11.8h0.2h18.3h0.7h7.9
						c0.1-0.4,0.2-0.9,0.2-1.4C184.6,86.9,182.6,84.8,180,84.8z"/>
					<path class="st7" d="M570.4,72.5c-2,0-3.8,0.8-5.1,2c-1-8.5-8.2-15.1-17-15.1c-7.6,0-14,5-16.2,11.8c-2.1-3.5-5.9-5.9-10.3-5.9
						c-5.6,0-10.3,3.9-11.6,9.2c-1.2-1-2.8-1.6-4.5-1.6c-4,0-7.2,3.2-7.2,7.2c0,0.8,0.2,1.6,0.4,2.3H511h1.5h19.7h0.4h30.5h1.2h13.3
						c0.2-0.7,0.4-1.5,0.4-2.3C578.1,76,574.7,72.5,570.4,72.5z"/>
					<path class="st7" d="M220.6,149c-1.2,0-2.2,0.5-3.1,1.2c-0.6-5.1-4.9-9-10.2-9c-4.5,0-8.4,3-9.7,7.1c-1.3-2.1-3.5-3.5-6.1-3.5
						c-3.4,0-6.2,2.3-6.9,5.5c-0.7-0.6-1.7-1-2.7-1c-2.4,0-4.3,1.9-4.3,4.3c0,0.5,0.1,1,0.2,1.4h7.3h0.9h11.8h0.2h18.3h0.7h7.9
						c0.1-0.4,0.2-0.9,0.2-1.4C225.2,151.1,223.1,149,220.6,149z"/>
					<g class="st8">
						<path class="st9" d="M379.6,140.1c-1,0-1.9,0.4-2.5,1c-1.1-2.2-4.3-3.9-8.3-3.9c-2.4,0-4.7,0.6-6.2,1.6c-1-2-3.1-3.4-5.5-3.4
							c-1.7,0-3.2,0.6-4.3,1.7c-2.2-3.3-6.7-5.6-12-5.6c-3.7,0-7,1-9.5,2.8c-2-5.5-7.2-9.5-13.4-9.5c-6.2,0-11.4,3.8-13.5,9.2
							c-1-0.5-2.1-0.8-3.4-0.8c-4.4,0-8,3.5-8.1,8c0,0.7,0.1,1.5,0.3,2.2l10.8,0.1h4.6l18.9,0.2h3.9l19.8,0.2h2.6l6.5,0.1h2.5
							l13,0.1h1.3h6.1V144C383.2,141.8,381.6,140.2,379.6,140.1z"/>
					</g>
					<g class="st8">
						<path class="st9" d="M551.4,142.8c-0.8,0-1.5,0.3-2,0.8c-0.9-1.8-3.5-3.1-6.7-3.1c-2,0-3.8,0.5-5,1.3
							c-0.8-1.6-2.5-2.7-4.4-2.7c-1.4,0-2.6,0.5-3.5,1.4c-1.8-2.7-5.5-4.5-9.7-4.5c-3,0-5.7,0.9-7.6,2.3c-1.6-4.4-5.9-7.6-10.9-7.6
							s-9.2,3.1-10.9,7.5c-0.8-0.4-1.7-0.6-2.7-0.6c-3.6,0-6.5,2.9-6.5,6.5c0,0.6,0.1,1.2,0.3,1.7h8.7h3.7h15.3h3.2h16h2.1h5.2h2
							h10.5h1.1h4.9C554.4,144.1,553.1,142.8,551.4,142.8z"/>
					</g>
				</g>
			</g>
		</g>
		<path class="st10" d="M535.3,407h-23.6c-3.6,0-6.6,3-6.6,6.6l0,0c0,3.6,3,6.6,6.6,6.6h9.9c2.9,0,5.2,2.4,5.2,5.2l0,0
			c0,2.9-2.4,5.2-5.2,5.2h-352c-2.9,0-5.2-2.4-5.2-5.2l0,0c0-2.9,2.4-5.2,5.2-5.2h9.4c3.6,0,6.6-3,6.6-6.6l0,0c0-3.6-3-6.6-6.6-6.6
			h-21.6c-5.7,0-10.4-4.7-10.4-10.4l0,0c0-5.7,4.7-10.4,10.4-10.4h377.9c5.7,0,10.4,4.7,10.4,10.4l0,0
			C545.8,402.3,541.1,407,535.3,407L535.3,407z M535.7,430.6c2.9,0,5.2-2.3,5.2-5.2c0-2.9-2.3-5.2-5.2-5.2s-5.2,2.3-5.2,5.2
			C530.5,428.2,532.9,430.6,535.7,430.6z"/>
		<g>
			<path class="st11" d="M254.1,228.2c0,0-1.3,20.4,3,28.7c8.1,15.5,27.9,12.7,27.9,12.7l-1.5,0.9c0,0-21.1,2.7-28.7-16.8
				c-5.4-13.9-4.7-36.4-4.7-36.4L254.1,228.2z"/>
			<path class="st11" d="M250.3,224.2c0,0,15,43.4,38.9,45.4c32.4,2.7,45.6-63,45.6-63L250.3,224.2z"/>
		</g>
		<ellipse class="st12" cx="325.6" cy="204.8" rx="11.2" ry="12.6"/>
		<path class="st13" d="M308.4,220.1v9.1c0,0,0.8,18.6,0.9,21.4c0.1,1.4,1.4,3.3,3.7,4.9c-3.2,3.8-11.1,12.6-16.2,13.6
			c-6.6,1.3-14.3-1.3-16.3-2.9c-1.4-1.1-1.8-7-2.7-10.3c0.6-0.2-0.1,0,0.5-0.2c1.6-0.6,3.1-1.4,4-2.6c3-3.5,2.2-18.6-1.1-22.4
			C278.1,226.9,308.4,220.1,308.4,220.1z"/>
		<path class="st14" d="M296.4,138.8c18.3,0,26.7,40.1,28,40.6l-2.9,29.2c0,18.3-20.9,34.3-39.2,34.3l0,0
			c-18.3,0-33.3-14.9-33.3-33.2l-0.1-30.2C253.7,145.7,296.4,138.8,296.4,138.8z"/>
		<g>
			<g>
				<defs>
					<rect id="SVGID_00000077301082478279680340000018089967176012361397_" x="196.8" y="114.1" width="340" height="272"/>
				</defs>
				<clipPath id="SVGID_00000091722091872883638960000010886874841355268277_">
					<use xlink:href="#SVGID_00000077301082478279680340000018089967176012361397_"  style="overflow:visible;"/>
				</clipPath>
				<g style="clip-path:url(#SVGID_00000091722091872883638960000010886874841355268277_);">
					<path class="st16" d="M482.3,680.3c0,16.9-55.9,30.6-124.9,30.6s-124.9-13.7-124.9-30.6c0-16.9,55.9-30.6,124.9-30.6
						S482.3,663.4,482.3,680.3z"/>
					<g>
						<g>
							<g>
								<path class="st17" d="M462.3,289.1c-39.9-6-118.3-42.2-159.4-33.3L276.3,282c-1.5,1.5,24,51.3,26.1,55.1
									c12.9,23.4,25.5,49,44.4,68.1c10,10.1,19.4,20.3,31.5,27.4c15.6,9.3,36.4,12.7,53,4c3.1-1.6,5.4-4.8,8.2-7.2
									c8-7.1,12.6-14.2,17.7-23.2c6.2-11,18.8-19.6,29.5-26c38-22.7,52.5-63.7,40-115.8C526.6,264.6,509.5,296.2,462.3,289.1z"/>
								<path class="st18" d="M457.8,296.1c-39.9-6-113.8-49.3-155-40.3L276.2,282c-1.5,1.5,24,51.3,26.1,55.1
									c12.9,23.4,25.5,49,44.4,68.1c10,10.1,19.4,20.3,31.5,27.4c15.6,9.3,36.4,12.7,53,4c3.1-1.6,5.4-4.8,8.2-7.2
									c8-7.1,12.6-14.2,17.7-23.2c6.2-11,18.8-19.6,29.5-26c38-22.7,52.5-63.7,40-115.8C526.6,264.6,505,303.3,457.8,296.1z"/>
								<path class="st19" d="M522,270.8c-10.8,13.5-39.4,43.7-76.3,38.1c-39.9-6-101.7-62.1-142.8-53.2l-26.6,26.2
									c3.7,6.3,13.3,26.8,23.3,49.8c1.4,2.8,2.4,4.7,2.8,5.3c12.9,23.4,25.5,49,44.4,68.1c10,10.1,19.4,20.3,31.5,27.4
									c15.6,9.3,36.4,12.7,53,4c3.1-1.6,5.4-4.8,8.2-7.2c0.2-0.2,0.3-0.3,0.5-0.5c7.8-10.4,13.1-18.9,19.8-26.7
									c6.7-9.1,17.5-16.4,26.9-21.9c38-22.7,52.5-63.7,40-115.8C526.6,264.6,525.1,267.3,522,270.8z"/>
							</g>
							<g class="st8">
								<path class="st20" d="M334.9,266.4c-0.6-0.3-0.8-0.5-0.8-0.6c0,0,0.3,0.1,0.9,0.5c0.6,0.3,1.4,0.8,2.5,1.4s2.3,1.3,3.8,2.2
									c1.5,0.9,3,2,4.8,3.1c7,4.5,15.9,11.3,24.7,18.1c2.2,1.7,4.4,3.3,6.6,5c2.2,1.6,4.4,3.2,6.5,4.7c4.3,2.9,8.4,5.5,12,7.7
									c0.9,0.5,1.7,1,2.6,1.5c0.8,0.4,1.6,0.9,2.4,1.2c1.5,0.8,2.8,1.5,3.9,2c2.2,1,3.5,1.5,3.5,1.5s0.3,0.1,0.9,0.4
									s1.5,0.7,2.6,1.1s2.5,1,4.1,1.6s3.4,1.1,5.4,1.7c7.9,2.4,18.9,4.5,30,4.8c11.1,0.4,22.2-0.8,30.4-2.4
									c4.1-0.8,7.5-1.5,9.8-2.2c1.2-0.3,2.1-0.5,2.7-0.7c0.6-0.1,1-0.2,1-0.2s-0.3,0.1-1,0.3c-0.6,0.2-1.5,0.5-2.7,0.8
									c-2.3,0.7-5.7,1.5-9.8,2.4c-8.2,1.7-19.3,3-30.5,2.7c-11.2-0.1-22.3-2.2-30.3-4.5c-2-0.6-3.9-1.1-5.5-1.7s-3-1.1-4.1-1.5
									c-1.2-0.4-2-0.8-2.6-1.1c-0.6-0.3-0.9-0.4-0.9-0.4s-1.3-0.6-3.5-1.6c-1.1-0.5-2.4-1.3-3.9-2c-0.8-0.4-1.6-0.8-2.4-1.3
									s-1.7-1-2.6-1.6c-3.6-2.2-7.7-4.8-12-7.8c-2.1-1.5-4.3-3.1-6.5-4.7c-2.2-1.7-4.4-3.4-6.6-5.1c-8.8-6.9-17.5-13.8-24.4-18.4
									c-1.7-1.2-3.3-2.3-4.7-3.2c-1.4-0.9-2.7-1.6-3.8-2.3C336.2,267.2,335.4,266.7,334.9,266.4z M459.1,369.3c-0.6,0-1.6,0-2.8,0
									c-1.2,0.1-2.6,0-4.3-0.1c-0.8,0-1.7-0.1-2.7-0.1c-0.9-0.1-1.9-0.2-2.9-0.3c-8.2-0.7-18.9-3.1-29.1-7.2
									c-10.2-4-19.7-9.5-26.5-14c-3.4-2.2-6.2-4.2-8.2-5.6c-1.9-1.4-3-2.2-3-2.2s-1.1-0.8-3-2.3c-1.9-1.4-4.6-3.5-7.8-6.1
									c-6.4-5.2-14.6-12.5-22.4-20.1c-7.9-7.6-15.5-15.5-21.1-21.5c-2.8-3-5.2-5.5-6.8-7.2c-0.8-0.9-1.5-1.5-1.9-2
									s-0.7-0.7-0.7-0.7s0.2,0.3,0.6,0.8s1,1.2,1.8,2.1c1.6,1.8,3.9,4.3,6.7,7.4c5.5,6.1,13,14.1,20.9,21.8
									c7.8,7.7,15.9,15.1,22.3,20.3c3.2,2.6,5.9,4.8,7.8,6.2c1.9,1.5,3,2.3,3,2.3s1.1,0.8,3.1,2.2c1.9,1.4,4.8,3.3,8.3,5.6
									c6.9,4.5,16.5,9.9,26.8,13.9c10.2,4,21.1,6.4,29.3,6.9c8.2,0.6,13.7-0.1,13.7-0.1C460.1,369.4,459.8,369.3,459.1,369.3z
									 M513.8,339.3c-3.1,2.1-7.3,5-12,7c-4.6,2.1-9.3,3.8-13,4.6c-1.8,0.5-3.4,0.7-4.5,0.9c-1.1,0.2-1.7,0.3-1.7,0.3
									s-0.6,0.1-1.7,0.2s-2.6,0.4-4.5,0.5c-3.8,0.4-8.8,0.5-13.9,0.4s-10.1-0.5-13.9-0.8c-1.9-0.2-3.5-0.3-4.6-0.4
									s-1.7-0.1-1.7-0.1s0.6,0.1,1.7,0.3c1.1,0.1,2.7,0.3,4.6,0.6c3.8,0.4,8.8,1,13.9,1.2s10.2,0.2,14-0.1
									c1.9-0.1,3.5-0.4,4.6-0.5s1.7-0.2,1.7-0.2s0.6-0.1,1.7-0.3c1.1-0.2,2.7-0.5,4.5-1c3.7-0.9,8.5-2.7,13.1-4.9
									c4.6-2.2,8.8-5.2,11.9-7.4c1.5-1.2,2.7-2.2,3.6-2.9c0.8-0.7,1.3-1.1,1.3-1.2c0,0-0.6,0.3-1.4,1
									C516.5,337.3,515.3,338.2,513.8,339.3z M514.2,287.8c-0.9,0.5-2.2,1.3-3.8,2.2c-3.1,1.9-7.3,4.3-11.6,6.7
									c-4.3,2.3-8.6,4.5-12,5.9c-1.6,0.8-3.1,1.3-4.1,1.7c-1,0.4-1.6,0.6-1.6,0.6s-0.6,0.2-1.6,0.6c-1,0.3-2.4,0.9-4.2,1.4
									c-3.5,1.1-8.2,2.2-13,3c-4.8,0.7-9.7,0.8-13.3,0.7c-1.8,0-3.3-0.2-4.4-0.2c-1.1-0.1-1.7-0.1-1.7,0c0,0,0.6,0.1,1.7,0.3
									c1.1,0.1,2.6,0.4,4.4,0.4c3.7,0.2,8.6,0.2,13.4-0.4c4.9-0.6,9.7-1.7,13.2-2.8c1.8-0.5,3.2-1,4.2-1.4c1-0.3,1.6-0.5,1.6-0.5
									s0.6-0.2,1.6-0.6s2.4-0.9,4.1-1.7c3.4-1.5,7.7-3.7,12-6.1c4.2-2.4,8.4-5,11.5-7c1.5-1,2.8-1.8,3.7-2.4s1.4-1,1.4-1
									C515.6,287,515.1,287.3,514.2,287.8z M303.5,316.4c-0.4-1.3-0.7-2.5-0.9-3.4c-0.3-0.9-0.5-1.7-0.6-2.2s-0.2-0.8-0.2-0.8
									s0,0.3,0.1,0.8s0.3,1.3,0.5,2.2c0.2,0.9,0.4,2.1,0.8,3.4s0.9,2.8,1.4,4.4c2.2,6.3,6,14.4,10.5,22.2
									c4.5,7.7,9.4,15.1,13,20.8c1.8,2.8,3.4,5.1,4.5,6.7s1.7,2.5,1.7,2.5s0.6,0.9,1.7,2.5c1.2,1.6,2.8,3.8,4.8,6.5
									c4,5.4,9.5,12.4,15.4,19.1c3,3.3,6,6.6,8.9,9.6c3,2.9,5.8,5.6,8.2,7.9c2.5,2.2,4.7,4,6.1,5.2c0.7,0.6,1.3,1.1,1.7,1.4
									c0.4,0.3,0.6,0.5,0.6,0.5s-0.2-0.2-0.6-0.6s-0.9-0.9-1.7-1.5c-1.4-1.3-3.5-3.2-6-5.4c-2.4-2.3-5.1-5.1-8.1-8
									c-2.8-3.1-5.8-6.3-8.8-9.7c-5.8-6.8-11.2-13.8-15.1-19.2c-1.9-2.7-3.6-5-4.7-6.6s-1.7-2.5-1.7-2.5s-0.6-0.9-1.7-2.5
									s-2.7-3.9-4.5-6.7c-3.7-5.6-8.7-12.9-13.2-20.6c-4.6-7.6-8.5-15.6-10.8-21.9C304.4,319.1,303.9,317.7,303.5,316.4z
									 M414.7,422c-4.4-1.5-8.8-3.4-11.9-5c-1.6-0.8-2.8-1.5-3.7-2c-0.9-0.5-1.4-0.8-1.4-0.8s-0.5-0.3-1.4-0.8s-2.2-1.2-3.6-2.2
									c-3-1.9-6.8-4.6-10.6-7.4c-3.7-2.9-7.4-5.8-10.2-8.1c-1.4-1.1-2.5-2.1-3.3-2.7s-1.3-1-1.3-1s0.4,0.4,1.1,1.2
									c0.8,0.7,1.8,1.7,3.2,2.9c2.6,2.4,6.2,5.4,9.9,8.4c3.7,2.9,7.6,5.7,10.5,7.6c1.5,1,2.8,1.7,3.6,2.3c0.9,0.5,1.4,0.9,1.4,0.9
									s0.5,0.3,1.4,0.8s2.2,1.2,3.8,2c3.2,1.6,7.6,3.4,12.1,4.8c4.6,1.3,9.2,2.2,12.8,2.4c1.8,0.2,3.3,0.1,4.3,0.2
									c1,0,1.6,0,1.6,0c0-0.1-2.4-0.2-5.9-0.6C423.8,424.4,419.2,423.4,414.7,422z"/>
								<path class="st18" d="M334.9,266.4c-0.6-0.3-0.8-0.5-0.8-0.6c0,0,0.3,0.1,0.9,0.5c0.6,0.3,1.4,0.8,2.5,1.4s2.3,1.3,3.8,2.2
									c1.5,0.9,3,2,4.8,3.1c7,4.5,15.9,11.3,24.7,18.1c2.2,1.7,4.4,3.3,6.6,5c2.2,1.6,4.4,3.2,6.5,4.7c4.3,2.9,8.4,5.5,12,7.7
									c0.9,0.5,1.7,1,2.6,1.5c0.8,0.4,1.6,0.9,2.4,1.2c1.5,0.8,2.8,1.5,3.9,2c2.2,1,3.5,1.5,3.5,1.5s0.3,0.1,0.9,0.4
									s1.5,0.7,2.6,1.1s2.5,1,4.1,1.6s3.4,1.1,5.4,1.7c7.9,2.4,18.9,4.5,30,4.8c11.1,0.4,22.2-0.8,30.4-2.4
									c4.1-0.8,7.5-1.5,9.8-2.2c1.2-0.3,2.1-0.5,2.7-0.7c0.6-0.1,1-0.2,1-0.2s-0.3,0.1-1,0.3c-0.6,0.2-1.5,0.5-2.7,0.8
									c-2.3,0.7-5.7,1.5-9.8,2.4c-8.2,1.7-19.3,3-30.5,2.7c-11.2-0.1-22.3-2.2-30.3-4.5c-2-0.6-3.9-1.1-5.5-1.7s-3-1.1-4.1-1.5
									c-1.2-0.4-2-0.8-2.6-1.1c-0.6-0.3-0.9-0.4-0.9-0.4s-1.3-0.6-3.5-1.6c-1.1-0.5-2.4-1.3-3.9-2c-0.8-0.4-1.6-0.8-2.4-1.3
									s-1.7-1-2.6-1.6c-3.6-2.2-7.7-4.8-12-7.8c-2.1-1.5-4.3-3.1-6.5-4.7c-2.2-1.7-4.4-3.4-6.6-5.1c-8.8-6.9-17.5-13.8-24.4-18.4
									c-1.7-1.2-3.3-2.3-4.7-3.2c-1.4-0.9-2.7-1.6-3.8-2.3C336.2,267.2,335.4,266.7,334.9,266.4z M459.1,369.3c-0.6,0-1.6,0-2.8,0
									c-1.2,0.1-2.6,0-4.3-0.1c-0.8,0-1.7-0.1-2.7-0.1c-0.9-0.1-1.9-0.2-2.9-0.3c-8.2-0.7-18.9-3.1-29.1-7.2
									c-10.2-4-19.7-9.5-26.5-14c-3.4-2.2-6.2-4.2-8.2-5.6c-1.9-1.4-3-2.2-3-2.2s-1.1-0.8-3-2.3c-1.9-1.4-4.6-3.5-7.8-6.1
									c-6.4-5.2-14.6-12.5-22.4-20.1c-7.9-7.6-15.5-15.5-21.1-21.5c-2.8-3-5.2-5.5-6.8-7.2c-0.8-0.9-1.5-1.5-1.9-2
									s-0.7-0.7-0.7-0.7s0.2,0.3,0.6,0.8s1,1.2,1.8,2.1c1.6,1.8,3.9,4.3,6.7,7.4c5.5,6.1,13,14.1,20.9,21.8
									c7.8,7.7,15.9,15.1,22.3,20.3c3.2,2.6,5.9,4.8,7.8,6.2c1.9,1.5,3,2.3,3,2.3s1.1,0.8,3.1,2.2c1.9,1.4,4.8,3.3,8.3,5.6
									c6.9,4.5,16.5,9.9,26.8,13.9c10.2,4,21.1,6.4,29.3,6.9c8.2,0.6,13.7-0.1,13.7-0.1C460.1,369.4,459.8,369.3,459.1,369.3z
									 M513.8,339.3c-3.1,2.1-7.3,5-12,7c-4.6,2.1-9.3,3.8-13,4.6c-1.8,0.5-3.4,0.7-4.5,0.9c-1.1,0.2-1.7,0.3-1.7,0.3
									s-0.6,0.1-1.7,0.2s-2.6,0.4-4.5,0.5c-3.8,0.4-8.8,0.5-13.9,0.4s-10.1-0.5-13.9-0.8c-1.9-0.2-3.5-0.3-4.6-0.4
									s-1.7-0.1-1.7-0.1s0.6,0.1,1.7,0.3c1.1,0.1,2.7,0.3,4.6,0.6c3.8,0.4,8.8,1,13.9,1.2s10.2,0.2,14-0.1
									c1.9-0.1,3.5-0.4,4.6-0.5s1.7-0.2,1.7-0.2s0.6-0.1,1.7-0.3c1.1-0.2,2.7-0.5,4.5-1c3.7-0.9,8.5-2.7,13.1-4.9
									c4.6-2.2,8.8-5.2,11.9-7.4c1.5-1.2,2.7-2.2,3.6-2.9c0.8-0.7,1.3-1.1,1.3-1.2c0,0-0.6,0.3-1.4,1
									C516.5,337.3,515.3,338.2,513.8,339.3z M514.2,287.8c-0.9,0.5-2.2,1.3-3.8,2.2c-3.1,1.9-7.3,4.3-11.6,6.7
									c-4.3,2.3-8.6,4.5-12,5.9c-1.6,0.8-3.1,1.3-4.1,1.7c-1,0.4-1.6,0.6-1.6,0.6s-0.6,0.2-1.6,0.6c-1,0.3-2.4,0.9-4.2,1.4
									c-3.5,1.1-8.2,2.2-13,3c-4.8,0.7-9.7,0.8-13.3,0.7c-1.8,0-3.3-0.2-4.4-0.2c-1.1-0.1-1.7-0.1-1.7,0c0,0,0.6,0.1,1.7,0.3
									c1.1,0.1,2.6,0.4,4.4,0.4c3.7,0.2,8.6,0.2,13.4-0.4c4.9-0.6,9.7-1.7,13.2-2.8c1.8-0.5,3.2-1,4.2-1.4c1-0.3,1.6-0.5,1.6-0.5
									s0.6-0.2,1.6-0.6s2.4-0.9,4.1-1.7c3.4-1.5,7.7-3.7,12-6.1c4.2-2.4,8.4-5,11.5-7c1.5-1,2.8-1.8,3.7-2.4s1.4-1,1.4-1
									C515.6,287,515.1,287.3,514.2,287.8z M303.5,316.4c-0.4-1.3-0.7-2.5-0.9-3.4c-0.3-0.9-0.5-1.7-0.6-2.2s-0.2-0.8-0.2-0.8
									s0,0.3,0.1,0.8s0.3,1.3,0.5,2.2c0.2,0.9,0.4,2.1,0.8,3.4s0.9,2.8,1.4,4.4c2.2,6.3,6,14.4,10.5,22.2
									c4.5,7.7,9.4,15.1,13,20.8c1.8,2.8,3.4,5.1,4.5,6.7s1.7,2.5,1.7,2.5s0.6,0.9,1.7,2.5c1.2,1.6,2.8,3.8,4.8,6.5
									c4,5.4,9.5,12.4,15.4,19.1c3,3.3,6,6.6,8.9,9.6c3,2.9,5.8,5.6,8.2,7.9c2.5,2.2,4.7,4,6.1,5.2c0.7,0.6,1.3,1.1,1.7,1.4
									c0.4,0.3,0.6,0.5,0.6,0.5s-0.2-0.2-0.6-0.6s-0.9-0.9-1.7-1.5c-1.4-1.3-3.5-3.2-6-5.4c-2.4-2.3-5.1-5.1-8.1-8
									c-2.8-3.1-5.8-6.3-8.8-9.7c-5.8-6.8-11.2-13.8-15.1-19.2c-1.9-2.7-3.6-5-4.7-6.6s-1.7-2.5-1.7-2.5s-0.6-0.9-1.7-2.5
									s-2.7-3.9-4.5-6.7c-3.7-5.6-8.7-12.9-13.2-20.6c-4.6-7.6-8.5-15.6-10.8-21.9C304.4,319.1,303.9,317.7,303.5,316.4z
									 M414.7,422c-4.4-1.5-8.8-3.4-11.9-5c-1.6-0.8-2.8-1.5-3.7-2c-0.9-0.5-1.4-0.8-1.4-0.8s-0.5-0.3-1.4-0.8s-2.2-1.2-3.6-2.2
									c-3-1.9-6.8-4.6-10.6-7.4c-3.7-2.9-7.4-5.8-10.2-8.1c-1.4-1.1-2.5-2.1-3.3-2.7s-1.3-1-1.3-1s0.4,0.4,1.1,1.2
									c0.8,0.7,1.8,1.7,3.2,2.9c2.6,2.4,6.2,5.4,9.9,8.4c3.7,2.9,7.6,5.7,10.5,7.6c1.5,1,2.8,1.7,3.6,2.3c0.9,0.5,1.4,0.9,1.4,0.9
									s0.5,0.3,1.4,0.8s2.2,1.2,3.8,2c3.2,1.6,7.6,3.4,12.1,4.8c4.6,1.3,9.2,2.2,12.8,2.4c1.8,0.2,3.3,0.1,4.3,0.2
									c1,0,1.6,0,1.6,0c0-0.1-2.4-0.2-5.9-0.6C423.8,424.4,419.2,423.4,414.7,422z"/>
							</g>
						</g>
						<g>
							<g>
								<g>
									<g>
										<path class="st21" d="M347.1,599.4c-3.7,1.6-7.7,2.6-11.8,3h-0.5c-0.8,0.1-1.6,0.1-2.4,0.1c3.8,5,7.4,9.6,10.6,13.8
											c0,0,2.2,11.8,7.8,25.3c2.1,10.3,2.2,25.6,7.2,24.9c3-0.4,5.2-10.5,6.9-19.5c1.3-6.5,0.4-8.1-4.2-16
											c0,0,11.8,12.5,12.3,10.4s-7.4-15.6-21.8-29.6C351.1,612,349.6,606.9,347.1,599.4z"/>
										<path class="st22" d="M347.1,599.4c-1.7,0.7-3.5,1.3-5.3,1.8c0.9,4.7,1.1,9.4,0.3,14c0.3,0.4,0.6,0.8,0.9,1.2
											c0,0,0.4,1.9,1.1,4.9c2.6,0.9,4.9,2.4,6.8,4.6c5,5.8,5,14.3,0.6,20.2c1.5,9.8,2.1,21.1,6.4,20.4c3-0.4,5.2-10.5,6.9-19.5
											c1.3-6.5,0.4-8.1-4.2-16c0,0,11.8,12.5,12.3,10.4s-7.4-15.6-21.8-29.6C351.1,612,349.6,606.9,347.1,599.4z"/>
									</g>
									<g>
										<path class="st23" d="M355.6,665.5c-2.7-3.6-3.1-15.1-4.8-23.4c1.7,2.3,4.6,5.8,7,2.7c4.2-5.3-6.3-32.1-6.7-32.8
											c14.4,13.9,22.3,27.4,21.8,29.6c-0.5,2.1-12.3-10.4-12.3-10.4c4.7,7.8,5.5,9.4,4.2,16c-1.8,9-4,19-6.9,19.5
											C357.1,666.8,356.3,666.3,355.6,665.5z"/>
										<path class="st24" d="M354.5,663.2c1.3-1,2.4-2.2,3.4-3.6c0.6-1.2,1.2-2.5,1.9-3.7c1.4-3.9,1.1-8.3-0.7-12.1
											c-0.1-0.3-0.3-0.6-0.5-0.9c1.6-8-7.1-30.3-7.4-30.9c2,2,3.9,3.9,5.7,5.8c-0.1,3.9,1.1,7.8,3.8,10.9l0.1,0.1
											c2.3,2.7,5.4,4.4,8.7,5.1c2.5,3.9,3.7,6.7,3.5,7.6c-0.5,2.1-12.3-10.4-12.3-10.4c4.7,7.8,5.5,9.4,4.2,16
											c-1.8,9-4,19-6.9,19.5c-0.8,0.1-1.6-0.3-2.3-1.1C355.2,664.9,354.8,664.1,354.5,663.2z"/>
									</g>
								</g>
								<g>
									<path class="st20" d="M249.7,400.3c-1.6,1.3,0.8,68.1,4,92.4c3.2,24.1,2.9,32.9,18.6,53.5c15.7,20.6,59.2,65.9,59.2,65.9
										s17.1,1.5,21-17.6c0,0-38.7-52.9-51.9-68c-13.2-15.2,1-54.8-9.3-81.2C281.1,418.9,255.5,395.4,249.7,400.3z"/>
									<path class="st25" d="M249.7,400.3c-1.6,1.3,0.8,68.1,4,92.4c3.2,24.1,2.9,32.9,18.6,53.5c15.7,20.6,59.2,65.9,59.2,65.9
										s17.1,1.5,21-17.6c0,0-38.7-52.9-51.9-68c-13.2-15.2,1-54.8-9.3-81.2C281.1,418.9,255.5,395.4,249.7,400.3z"/>
									<path class="st26" d="M300.6,526.5c-6.7-7.7-6.2-20-6-29.5c0.3-12.2,0.5-24.2,0.1-36.4c-0.6-5.4-1.6-10.6-3.5-15.4
										c-10.3-26.4-35.8-49.9-41.7-45c-0.6,0.5-0.6,10.2-0.3,23.3c3.3-1.5,6.7-1.4,11.6,1.2c14.4,7.6,22.6,26.9,20.8,42.8
										c-2,17.6,0.5,36.5-7.5,53.1c-1.6,3.3-4.2,7.2-8.4,7.2c-4.6,0-5.9-4.2-7.3-6.9c0.4,5.8,3.8,10.4,6.8,15.2
										c0.2,0.4,0.5,0.8,0.8,1.2c0.4,0.6,0.8,1.2,1.2,1.9c0.4,0.6,0.8,1.2,1.2,1.8c0.4,0.5,0.7,1,1.1,1.5c0.8,1.2,1.7,2.3,2.6,3.6
										c15.7,20.6,59.2,65.9,59.2,65.9s17.1,1.5,21-17.6C352.5,594.6,313.8,541.7,300.6,526.5z"/>
									<g>
										<path class="st27" d="M266.5,537.4c-0.9-1.6-1.9-3.3-2.8-5.1c-1-1.7-1.5-3.7-2.2-5.4c-0.3-0.9-0.7-1.7-1-2.5
											c-0.2-0.8-0.4-1.6-0.6-2.3c-0.7-2.9-1.2-4.8-1.2-4.8s-1.6-7.7-2.7-15.7c-0.6-4-1.1-7.9-1.7-10.9c-0.5-3-0.9-4.9-1.1-4.9
											c-0.1,0,0,2,0.4,5c0.3,3,0.7,7,1.1,10.9c0.7,8,2.2,15.9,2.2,15.9s0.6,1.9,1.4,4.9c0.2,0.7,0.4,1.5,0.7,2.3
											c0.3,0.8,0.7,1.6,1.1,2.5c0.8,1.7,1.4,3.7,2.5,5.4s2.1,3.4,3.1,5c0.9,1.6,2.3,2.8,3.2,4c2,2.3,3.3,3.8,3.4,3.7
											s-1.1-1.7-2.9-4.1C268.6,540.3,267.3,539,266.5,537.4z"/>
										<path class="st27" d="M269.7,521.3c-2-5.6-3.6-11.3-4.5-15.7s-1.4-7.3-1.4-7.3s-0.5-2.9-1.1-7.4
											c-0.6-4.4-1.2-10.4-1.8-16.3c-0.5-6-1.1-11.9-1.5-16.4c-0.2-2.2-0.5-4.1-0.6-5.4c-0.2-1.3-0.3-2-0.4-2s-0.1,0.8,0,2.1
											c0.1,1.3,0.2,3.2,0.3,5.4c0.2,4.5,0.6,10.5,0.9,16.5c0.4,6,0.9,12,1.4,16.5s1,7.5,1,7.5s0.5,3,1.5,7.4s2.7,10.2,4.9,15.8
											c2.3,5.6,5.2,10.9,7.8,14.6c1.2,1.9,2.5,3.3,3.3,4.3s1.3,1.6,1.4,1.5s-1.7-2.5-4.1-6.3
											C274.6,532.1,271.9,526.8,269.7,521.3z"/>
										<path class="st27" d="M332.3,604c-2-2.8-4.6-6.5-7.3-10.2c-5.6-7.2-11.1-14.4-11.1-14.4s-6.1-6.8-12.2-13.5
											c-3.3-3.2-6.6-6.3-9-8.7c-2.5-2.3-4.2-3.8-4.3-3.8c-0.1,0.1,1.4,1.8,3.8,4.3c2.3,2.5,5.5,5.7,8.6,9
											c5.9,6.9,11.7,13.8,11.7,13.8s5.7,7,11.5,14c2.8,3.6,5.6,7.1,7.7,9.8s3.6,4.4,3.7,4.3C335.5,608.7,334.2,606.8,332.3,604z
											"/>
									</g>
								</g>
								<g>
									<g>
										<path class="st21" d="M319.3,609.3h-19.8c0.9,11.1,1.8,22.1,2.6,32.5c0,0-13.4,20-14.4,28.9c-6,5.5-19.9,10.4-15.4,12.4
											c2.7,1.2,15,0.4,23.1-4.5c5.5-3.3,6.6-8.9,10.7-15.4c0,0,1,17.9,2.5,16.4s7-18.4,2.5-37.2
											C311.1,642.5,315.6,626.8,319.3,609.3z"/>
										<path class="st22" d="M319.3,609.3h-5.4c-1.7,8.3-4.5,16.4-9.2,24.2c-0.9,1.4-1.8,2.6-2.9,3.6c0.1,1.6,0.3,3.2,0.4,4.8
											c0,0-0.6,1-1.7,2.6c5.4,9.1,1.3,23.8-12.3,24.1c-0.2,0.8-0.4,1.6-0.4,2.3c-6,5.5-19.9,10.4-15.4,12.4
											c2.7,1.2,15,0.4,23.1-4.5c5.5-3.3,6.6-8.9,10.7-15.4c0,0,1,17.9,2.5,16.4s7-18.4,2.5-37.2
											C311.1,642.5,315.6,626.8,319.3,609.3z"/>
									</g>
									<g>
										<g>
											<path class="st23" d="M292.2,672.9c-4.1,2.4-4.9,0.3-4.9-1.7c-6.2,5.3-19.3,10.1-15,12c2.7,1.2,15,0.4,23.1-4.5
												c5.5-3.3,6.6-8.9,10.7-15.4c0,0,1,17.9,2.5,16.4s7-18.4,2.5-37.2C309.6,657.3,299.2,668.9,292.2,672.9z"/>
										</g>
										<g class="st28">
											<path class="st24" d="M312.4,650c-0.3-2.4-0.7-5-1.3-7.5c-1.1,11.2-7.4,20.6-13.4,26.2c-0.7,2.5-2.1,4.8-3.9,6.7
												c-2.9,2.9-6.9,4.5-11,4.5c-2.3,0-4.7-0.5-6.8-1.5c-3.6,2.1-5.9,3.8-3.7,4.8c2.7,1.2,15,0.4,23.1-4.5
												c5.5-3.3,6.6-8.9,10.7-15.4c0,0,1,17.9,2.5,16.4c0.7-0.7,2.2-4.5,3.2-10.3C308,663.8,308.2,655.4,312.4,650z"/>
										</g>
									</g>
								</g>
								<g>
									<g>
										<path class="st20" d="M249.7,400.2c-0.9,5.1,1.9,2.7,4,6.7c8.9,17.3,35.7,24.9,37.1,44.4c1.2,17,3,37.1,3,54.1
											c0,10.8-0.7,31,0.7,44.6c1.4,13.7,3.6,75.6,3.6,75.6s18.2,7.4,24-6.2c0,0,15.6-60.7,13.4-94.6c0,0,1.4-38.2,3.6-63.4
											c2.2-25.2,10.8-56.2-15.1-81.4c-25.9-25.2-61.2-14.4-61.2-14.4C259.5,375.2,251.7,388.4,249.7,400.2z"/>
										<path class="st25" d="M249.7,400.2c-0.9,5.1,1.9,2.7,4,6.7c8.9,17.3,35.7,24.9,37.1,44.4c1.2,17,3,37.1,3,54.1
											c0,10.8-0.7,31,0.7,44.6c1.4,13.7,3.6,75.6,3.6,75.6s18.2,7.4,24-6.2c0,0,15.6-60.7,13.4-94.6c0,0,1.4-38.2,3.6-63.4
											c2.2-25.2,10.8-56.2-15.1-81.4c-25.9-25.2-61.2-14.4-61.2-14.4C259.5,375.2,251.7,388.4,249.7,400.2z"/>
										<path class="st26" d="M324,380.2c-25.9-25.2-61.2-14.4-61.2-14.4c-3.3,9.4-11.1,22.7-13.1,34.4c-0.9,5.1,1.9,2.7,4,6.7
											c6.4,12.5,22.1,19.9,30.9,30.4c1.7-7.4,9.9-13,17-13c10.3,0,16,7.9,17.2,17.2c8.2,62.1-8.1,123.8-6.6,185.7
											c4-0.7,7.7-2.9,9.9-7.9c0,0,15.6-60.7,13.4-94.6c0,0,1.4-38.2,3.6-63.4C341.3,436.3,349.9,405.4,324,380.2z"/>
										<g>
											<path class="st27" d="M284.9,438.9c-0.9-1.1-1.4-1.8-1.4-1.8s-0.6-0.7-1.4-1.9c-0.8-1.1-1.9-2.6-2.9-4.2
												s-1.8-3.3-2.3-4.6c-0.4-1.3-0.6-2.3-0.5-2.3s0.4,0.8,1,2.1c0.6,1.2,1.5,2.8,2.6,4.3c1,1.5,2.2,2.9,3.1,4s1.5,1.8,1.5,1.8
												s0.5,0.8,1.4,1.9c0.8,1.1,1.8,2.7,2.7,4.3c0.9,1.7,1.6,3.4,1.9,4.8s0.4,2.3,0.3,2.3s-0.4-0.9-0.8-2.1
												c-0.5-1.3-1.3-2.9-2.2-4.4C286.8,441.4,285.8,439.9,284.9,438.9z"/>
											<path class="st27" d="M303.1,537.7c0.1-1.2,0.1-2.6,0.2-4.3c0.2-1.6,0.4-3.5,0.6-5.5c0.3-4,1.1-8.7,1.7-13.7
												c0.3-2.5,0.6-5.1,1-7.7c0.2-1.3,0.3-2.6,0.5-4c0.2-1.3,0.2-2.7,0.3-4c0.2-2.7,0.4-5.3,0.6-8c0.1-2.6,0.3-5.2,0.4-7.8
												c0.3-5,0.6-9.7,0.8-13.7c0.1-2,0.2-3.9,0.3-5.5c0.1-1.6,0.2-3.1,0.4-4.2c0.2-1.2,0.3-2.1,0.4-2.7s0.2-0.9,0.2-0.9
												s0,0.3-0.1,1c-0.1,0.6-0.2,1.5-0.3,2.7c-0.2,1.2-0.2,2.6-0.3,4.2c-0.1,1.6-0.1,3.5-0.2,5.5c-0.2,4-0.3,8.7-0.6,13.8
												c-0.1,2.5-0.2,5.1-0.3,7.8c-0.2,2.6-0.3,5.3-0.5,8c-0.1,1.3-0.1,2.7-0.3,4c-0.1,1.3-0.3,2.7-0.4,4
												c-0.3,2.6-0.6,5.2-0.9,7.7c-0.6,5-1.3,9.6-1.6,13.7c-0.2,2-0.4,3.8-0.5,5.5c-0.1,1.6-0.1,3.1-0.2,4.2
												c-0.1,2.3-0.1,3.7-0.1,3.7s-0.1,1.3,0,3.7c0.1,2.3,0.1,5.7,0.3,9.7c0.4,8,0.9,18.8,1.4,29.5c0.3,5.4,0.4,10.7,0.4,15.7
												c0.1,5,0.2,9.7,0.2,13.7s0.1,7.4,0.1,9.7c0,1.2,0,2.1,0,2.7c0,0.6,0,1,0,1s-0.1-0.3-0.1-1c0-0.6-0.1-1.5-0.1-2.7
												c-0.1-2.3-0.2-5.7-0.4-9.7c-0.1-4-0.3-8.7-0.4-13.7c-0.2-5-0.3-10.4-0.6-15.7c-0.6-10.7-1.3-21.4-1.7-29.4
												c-0.2-4-0.3-7.4-0.4-9.7c-0.1-2.4,0-3.7,0-3.7S303,540.1,303.1,537.7z"/>
											<path class="st27" d="M293.6,516.6c0-1.4-0.2-2.5-0.3-3.3c-0.1-0.8-0.1-1.3-0.1-1.3s0.2,0.4,0.3,1.2
												c0.2,0.8,0.4,2,0.5,3.3c0.3,2.8,0.4,6.5,0.4,10.2s-0.2,7.4,0,10.2c0.3,2.8,0.5,4.6,0.5,4.6s0,0.5,0.1,1.3s0.1,2,0.3,3.3
												c0.4,2.8,0.8,6.4,1.5,10.1c0.6,3.7,1.2,7.3,1.6,10.1s0.6,4.6,0.6,4.6c-0.1,0-0.5-1.8-1.1-4.5s-1.3-6.4-2.1-10
												c-0.8-3.6-1.3-7.4-1.8-10.1c-0.3-1.4-0.3-2.5-0.4-3.4c-0.1-0.8-0.1-1.3-0.1-1.3s-0.1-1.9-0.3-4.7
												c-0.1-2.8,0.1-6.5,0.3-10.2C293.7,523,293.8,519.3,293.6,516.6z"/>
											<path class="st27" d="M331.3,542.6c0.2-1.6,0.5-3.4,0.6-5.4s0.3-4.1,0.4-6.2c0.4-8.5,0.9-17,0.9-17s0-0.5,0.1-1.5
												c0.1-0.9,0.1-2.3,0.4-3.8c0.4-3.2,1.1-7.4,1.7-11.6c0.6-4.2,1.2-8.4,1.4-11.6c0.1-1.6,0.1-2.9,0.2-3.8
												c0-0.9,0.1-1.5,0.1-1.5s0.1,0.5,0.2,1.5c0,0.9,0.2,2.3,0.1,3.9c0,3.2-0.4,7.4-0.9,11.7c-0.5,4.2-1.1,8.4-1.4,11.6
												c-0.2,1.6-0.2,2.9-0.3,3.8c-0.1,0.9-0.1,1.5-0.1,1.5s-0.2,2.1-0.4,5.3c-0.2,3.2-0.5,7.4-0.9,11.7
												c-0.2,2.1-0.4,4.2-0.6,6.2s-0.6,3.8-0.8,5.4c-0.3,1.6-0.5,2.9-0.7,3.8c-0.2,0.9-0.3,1.4-0.4,1.4c0,0,0-0.5,0.1-1.5
												C330.9,545.5,331.1,544.2,331.3,542.6z"/>
										</g>
									</g>
									<path class="st18" d="M327.4,383.8c0.6,0.7,1.1,1.3,1.7,2c0.3,0.3,0.5,0.6,0.8,1c0.5,0.7,1,1.4,1.5,2.1
										c0.2,0.3,0.4,0.5,0.6,0.8c0.7,1,1.3,1.9,1.9,2.9l0.1,0.1c0.5,0.9,1.1,1.9,1.5,2.8c0.1,0.3,0.3,0.5,0.4,0.8
										c0.4,0.7,0.7,1.5,1,2.2c0.1,0.3,0.2,0.6,0.4,0.8c0.3,0.8,0.7,1.6,1,2.4c0.1,0.2,0.1,0.4,0.2,0.6c0.4,1,0.7,2.1,1,3.1l0,0
										c-3.9,2.3-7.9,4.4-12,6.3c-18.3,8.2-41.1-5.5-55.3-19.9c-4.7,2.7-19,22.1-23.8,20.4c-0.2-6.8,1.7-10.4,2.2-11.7l11.8-33.4
										l0,0c0.7-0.7,1.5-1.3,2.5-1.7c3.2-0.7,9.7-1.9,17.7-1.7c0.8,0,1.5,0,2.3,0.1c0.1,0,0.2,0,0.3,0
										c13.5,0.8,26.4,5.6,36.6,14.5c0.8,0.7,1.5,1.3,2.2,2c0.9,0.9,1.8,1.8,2.7,2.7C326.9,383.2,327.2,383.5,327.4,383.8z"/>
								</g>
							</g>
							<g>
								<g>
									<path class="st20" d="M261.9,257.9c0,0-7.9,13.2-11.3,18.4c-3.5,5.3-45.8,43.6-44.7,51.2c1,7.6,19,46,39.5,52.8
										c0,0,5.1-13.8,13.7-17.6c0,0-19.6-21-27.5-33.3c0,0,34.6-19.6,39.8-27C276.4,295,280.3,269.9,261.9,257.9z"/>
									<path class="st29" d="M261.9,257.9c0,0-7.9,13.2-11.3,18.4c-3.5,5.3-45.8,43.6-44.7,51.2c1,7.6,19,46,39.5,52.8
										c0,0,5.1-13.8,13.7-17.6c0,0-19.6-21-27.5-33.3c0,0,34.6-19.6,39.8-27C276.4,295,280.3,269.9,261.9,257.9z"/>
									<path class="st29" d="M229.2,355.7c-4.9-6-5.9-15.1-0.7-22.1c1-1.3,2.2-2.4,3.5-3.3c-0.2-0.3-0.4-0.6-0.5-0.8
										c0,0,34.6-19.6,39.8-27c4.9-7.2,8.8-30.9-7.6-43.3c12,27.5-23.5,73.5-50.4,66.2c-2-0.5-3.8-1.5-5.4-2.9
										c-1.4,2.2-2.2,4-2.1,5.1c1,7.6,19,46,39.5,52.8c0,0,1.7-4.6,4.8-9.3C242.3,367.9,235.2,363,229.2,355.7z"/>
								</g>
								<g>
									<g>
										<path class="st27" d="M271.8,269.2c0.1,0,0.6,1.2,1.3,3c0.3,0.9,0.7,2,1.1,3.2c0.3,1.2,0.8,2.5,1,3.9
											c0.1,0.7,0.3,1.3,0.3,2c0.1,0.7,0.1,1.4,0.2,2c0.1,1.3,0,2.6,0,3.6c-0.1,1.1-0.2,2-0.2,2.6s-0.1,1-0.1,1s-0.1,0.3-0.2,1
											c-0.1,0.6-0.2,1.5-0.6,2.5c-0.5,2.1-1.5,4.8-2.9,7.2c-1.4,2.4-3.1,4.5-4.5,5.9s-2.4,2.3-2.4,2.2c-0.1-0.1,0.8-1.1,2.1-2.6
											c1.3-1.5,2.9-3.6,4.2-6c1.3-2.4,2.1-5,2.6-6.9c0.3-1,0.3-1.9,0.5-2.4c0.1-0.6,0.2-0.9,0.2-0.9s0.1-0.3,0.1-0.9
											c0.1-0.6,0.2-1.4,0.3-2.5c0.1-2,0.1-4.8-0.3-7.4C273.6,274.2,271.6,269.3,271.8,269.2z"/>
									</g>
									<g>
										<path class="st27" d="M232,329.1c0,0.1-0.4,0.5-1.3,0.9c-0.8,0.4-1.9,0.8-3,1c-2.2,0.5-4.5,0.6-4.5,0.6s-0.6,0-1.4-0.1
											c-0.8-0.1-2-0.2-3-0.5c-1.1-0.2-2.2-0.6-2.9-1c-0.8-0.4-1.2-0.9-1.1-0.9c0.1-0.1,0.5,0.2,1.3,0.4c0.8,0.2,1.8,0.5,2.9,0.6
											c1.1,0.1,2.2,0.1,3,0.1s1.4,0,1.4,0s2.2,0.1,4.4-0.2c1.1-0.1,2.2-0.3,3-0.6C231.5,329.3,232,329,232,329.1z"/>
									</g>
								</g>
							</g>
							<g>
								<g>
									<g>
										<path class="st17" d="M302.4,247.7c0,0,11.2,5.4,19.1,6.5s19.8,0.4,20.2,1.4c0.4,1.1-7.6,36.4-14,49
											c-6.5,12.6-22.3,40-22.3,40s31.7,42.1,33.1,43.6c1.4,1.4-8.6,11.9-23.4,13.7c-14.8,1.8-30.6-0.7-44.3-32.4
											c0,0-7.6,32-23.4,32.8c0,0,6.5-61.6,10.1-70.2c0,0-9.7-15.5-10.1-27c-0.4-11.5,14.4-27,15.5-36.4s-1.3-10.4-1.3-10.4
											l15-2.9l13.3-7.9L302.4,247.7z"/>
										<path class="st29" d="M268.3,282.5c-0.9-1.7-1.7-3.5-2.3-5.5C266.5,278.9,267.3,280.7,268.3,282.5z"/>
										<path class="st18" d="M247.4,305c-0.1-2,0.3-4.1,1-6.3c2.8,2.5,5.9,4.7,9.5,6.3c11.5,5.2,22.9,6.9,35.3,4.2
											c16.1-3.6,27.7-15.3,31.3-29.4c5.2-0.4,7.9-1,12.5-3.2c-2.7,10.4-6.2,22-9.4,28.1c-6.5,12.6-22.3,40-22.3,40
											s31.7,42.1,33.1,43.6c1.4,1.4-8.6,11.9-23.4,13.7l0,0c-4.9-20.3-14.5-38.8-34.3-49.8c-8.6-4.7-18.5-5.1-27-1.7
											c1.3-8.7,2.6-15.8,3.7-18.3C257.4,332,247.7,316.5,247.4,305z"/>
										<g>
											<g>
												<path class="st30" d="M260.3,334.5c0,0-0.3-0.5-0.9-1.3s-1.5-2-2.6-3.4c-2.1-2.9-4.6-6.9-6.3-11.2
													c-1.8-4.3-2.5-9-2.4-12.4c0-0.9,0.1-1.7,0.1-2.4c0.1-0.7,0.2-1.3,0.3-1.8s0.2-0.9,0.2-1.1c0.1-0.3,0.1-0.4,0.1-0.4
													s0.1-0.6,0.3-1.5c0.2-0.5,0.3-1.1,0.6-1.7c0.2-0.7,0.6-1.4,0.9-2.2c1.4-3.2,3.8-7.2,6.3-11.2c2.4-4,4.8-8.2,5.9-11.6
													c0.3-0.8,0.5-1.6,0.7-2.3c0.2-0.7,0.3-1.3,0.4-1.8c0.1-1,0.2-1.6,0.1-1.6s-0.4,2.3-1.7,5.6c-1.2,3.3-3.7,7.3-6.2,11.2
													c-2.6,3.9-5.1,7.9-6.6,11.2c-0.3,0.8-0.7,1.6-0.9,2.3c-0.2,0.7-0.5,1.3-0.6,1.8c-0.3,1-0.4,1.6-0.4,1.6s0,0.1-0.1,0.4
													s-0.2,0.7-0.2,1.2c-0.1,0.5-0.1,1.2-0.2,1.9c0,0.7-0.1,1.6-0.1,2.5c0,3.6,0.9,8.4,2.8,12.8c1.9,4.4,4.5,8.4,6.7,11.2
													c1.1,1.4,2.1,2.5,2.8,3.3C259.9,334.1,260.3,334.5,260.3,334.5z"/>
											</g>
											<g>
												<path class="st30" d="M300.9,353.4c0.1,0,0.6-1.6,1.6-4c0.9-2.4,2.5-5.5,4.1-8.6c1.7-3,3.5-6,4.9-8.2s2.3-3.6,2.3-3.6
													s0.9-1.5,2.3-3.7s3.2-5.2,4.9-8.2c1.7-3,3.3-6.1,4.3-8.5c0.6-1.2,0.9-2.2,1.2-2.9c0.3-0.7,0.4-1.1,0.3-1.2
													c-0.1,0-0.8,1.5-2,3.9c-1.2,2.3-2.9,5.3-4.7,8.3c-1.8,2.9-3.7,5.8-5.1,8s-2.4,3.6-2.4,3.6s-0.9,1.5-2.3,3.7
													c-1.3,2.2-3.1,5.3-4.7,8.4c-1.5,3.1-2.9,6.3-3.7,8.8c-0.5,1.2-0.7,2.3-0.9,3C300.9,353,300.8,353.4,300.9,353.4z"/>
											</g>
										</g>
										<path class="st25" d="M291.1,247.4l11.4,0.3c0,0,0,0,0.1,0l0,0c0.1,0,0.2,0.1,0.3,0.1h0.1c0.1,0.1,0.3,0.1,0.5,0.2h0.1
											c0.2,0.1,0.4,0.2,0.7,0.3c0,0,0,0,0.1,0c0.3,0.1,0.6,0.2,0.9,0.4h0.1c0.2,0.1,0.5,0.2,0.8,0.3c5,5.3-1.2,12.3-1.6,12.9
											c0,0-27.8,22.8-29,18.5s-1.2-9.4,2.2-16.6C279.8,259.4,284.7,251.1,291.1,247.4z"/>
										<g>
											<path class="st18" d="M302.6,247.8c0.1,0,0.2,0.1,0.3,0.1h0.1c0.1,0.1,0.3,0.1,0.5,0.2h0.1c0.2,0.1,0.4,0.2,0.7,0.3
												c0,0,0,0,0.1,0c0.3,0.1,0.6,0.2,0.9,0.4h0.1c0.3,0.1,0.6,0.3,1,0.4c0.1,0,0.1,0,0.2,0.1c0.3,0.1,0.7,0.3,1.1,0.5
												c0.1,0,0.1,0.1,0.2,0.1c0.4,0.2,0.8,0.3,1.2,0.5c0.1,0,0.1,0,0.2,0.1c0.4,0.2,0.9,0.3,1.4,0.5c2.2,9.3,2.7,32.7,2.4,39.5
												l-19.1-2.2c0,0,10.1,9.7,8.3,12.6c-1.8,2.8-15.6,18.8-20.2,31.3c-2.3,6.2-6.5,25.4-6.5,25.4l-3.4,14.5
												c-0.4-0.9-0.9-1.9-1.3-2.9c0,0-0.3,1.3-0.9,3.3c-3.1-16.2-13.6-66.7-12.8-72c0.5-3.3,9.7-11.8,9.7-11.8l-8.4-1
												c0,0,11.9-23.5,21.7-34.8l9.7-5.8l12.6,0.4C302.4,247.7,302.5,247.8,302.6,247.8L302.6,247.8z"/>
											<g>
												<path class="st31" d="M266.9,288.8l-8.5-0.9c0,0,0.8-1.6,2.2-4.2l7.8,1.6C268.4,285.4,268.5,286.4,266.9,288.8z"/>
												<path class="st31" d="M269.5,367.6l3.4-14.5c0,0,4.2-19.2,6.5-25.4c4.6-12.6,18.4-28.5,20.2-31.3
													c0.2-0.3,0.2-0.8,0.2-1.3c1.8,2.4,3.1,4.8,2.3,6c-1.8,2.8-15.6,18.8-20.2,31.3c-2.3,6.2-6.5,25.4-6.5,25.4l-3.4,14.5
													c-0.4-0.9-0.9-1.9-1.3-2.9c0,0-0.3,1.3-0.9,3.3c-0.4-2.1-0.9-4.7-1.5-7.8C268.7,365.8,269.1,366.7,269.5,367.6z"/>
												<path class="st31" d="M290.9,284.9l19.4,1c0.3-5.9-0.1-24.7-1.7-35.5c0.1,0,0.2,0.1,0.3,0.1c0.1,0,0.1,0,0.2,0.1
													c0.4,0.2,0.9,0.3,1.4,0.5c2.2,9.3,2.7,32.7,2.4,39.5l-18.8-2.2C291.8,285.8,290.9,284.9,290.9,284.9z"/>
											</g>
											<g>
												<g>
													<path class="st30" d="M305.6,402.1c0,0-0.4-0.1-1-0.1c-0.7-0.1-1.6-0.1-2.8-0.4c-2.4-0.5-5.8-1.5-9.4-3.7
														c-1.8-1.1-3.7-2.4-5.3-4.2c-1.7-1.7-3.3-3.7-5-5.7c-0.8-1-1.7-2.1-2.5-3.1c-0.8-1.1-1.6-2.2-2.3-3.4
														c-0.7-1.2-1.3-2.4-2-3.7c-0.6-1.3-1.2-2.6-1.7-3.8c-4.3-10.4-5-21.9-4.6-30.3c0.1-4.2,0.5-7.7,0.8-10.2
														c0.2-2.5,0.4-3.9,0.4-3.9s0.2-1.4,0.5-3.8s0.8-5.9,1.3-10.2c0.3-2.1,0.5-4.4,0.8-6.8s0.6-4.9,1.2-7.5
														c0.2-1.3,0.6-2.6,0.9-3.9l0.2-1l0.1-0.4l0,0l0.1-0.1c0.6-0.4,1.2-0.8,1.7-1.2c1.1-0.8,2.3-1.6,3.4-2.5s2.2-1.8,3.3-2.7
														c1.1-0.9,2.2-1.8,3.2-2.8c1-0.9,2.1-1.9,3.1-2.8c1.1-0.9,2-2,2.9-3c1-1,1.8-2.1,2.6-3.1c3.3-4.2,5.9-8.4,7.9-12.2
														c1-1.9,1.9-3.6,2.6-5.2s1.3-2.9,1.8-4.1c0.4-1.2,0.8-2.1,1-2.7s0.3-1,0.3-1s-0.2,0.3-0.5,0.9s-0.7,1.5-1.1,2.6
														c-0.5,1.1-1.2,2.5-1.9,4c-0.8,1.5-1.7,3.3-2.7,5.1c-2.1,3.7-4.8,7.8-8,12c-0.8,1-1.7,2.1-2.6,3c-0.9,1-1.8,2-2.9,2.9
														c-1,0.9-2.1,1.8-3.1,2.8c-1,0.9-2.1,1.9-3.2,2.7c-1.1,0.9-2.2,1.7-3.3,2.6c-1.1,0.8-2.3,1.6-3.4,2.4
														c-0.6,0.4-1.1,0.8-1.7,1.2l-0.3,0.2c-0.1,0-0.1,0.1-0.2,0.1l-0.1,0.2l-0.2,0.6l-0.3,1c-0.3,1.3-0.7,2.6-0.9,3.9
														c-0.6,2.6-1,5.2-1.3,7.6s-0.6,4.7-0.9,6.8c-0.6,4.2-1,7.7-1.4,10.1c-0.3,2.4-0.5,3.9-0.5,3.9s-0.2,1.4-0.4,3.9
														c-0.2,2.5-0.6,6-0.7,10.3c-0.4,8.5,0.4,20.2,4.9,30.7c0.6,1.3,1.2,2.6,1.8,3.9c0.7,1.2,1.4,2.5,2.1,3.7
														s1.6,2.3,2.4,3.4c0.9,1.1,1.7,2.1,2.6,3.1c1.8,2,3.4,4,5.1,5.7c1.7,1.8,3.7,3.1,5.5,4.2c3.7,2.2,7.2,3.1,9.7,3.5
														c1.2,0.3,2.2,0.2,2.9,0.3C305.2,402.1,305.6,402.1,305.6,402.1z"/>
												</g>
												<g>
													<path class="st30" d="M274.5,296.6c0.1,0,0.1-1.3,0.2-3.2c0.1-1.9-0.1-4.5-0.1-7.1c0-1.3,0-2.6,0-3.8
														c0-1.2,0.1-2.3,0.2-3.3c0.1-0.9,0.1-1.7,0.2-2.3c0.1-0.5,0.1-0.9,0.1-0.9s0-0.3,0.1-0.9c0-0.6,0.2-1.3,0.4-2.3
														c0.3-1.9,1-4.3,1.8-6.7c1.7-4.8,4.1-9.4,3.9-9.5c-0.1,0-0.8,1.1-1.7,2.7c-0.9,1.7-2.1,4-3.1,6.4s-1.8,4.9-2.2,6.8
														c-0.2,1-0.4,1.7-0.5,2.3c-0.1,0.6-0.1,0.9-0.1,0.9s0,0.3-0.1,0.9c0,0.6-0.1,1.4-0.1,2.4s-0.1,2.1-0.1,3.3
														c0.1,1.2,0.1,2.5,0.2,3.8c0.2,2.6,0.4,5.1,0.5,7.1C274.3,295.3,274.4,296.6,274.5,296.6z"/>
												</g>
											</g>
										</g>
										<g>
											<path class="st29" d="M275,370.6c0-0.2,0-0.5,0.1-0.7c0-0.1,0-0.1,0-0.2c0.3-1.9,1.4-3.3,2.7-3.4
												c1.7-0.1,3.3,2.1,3.4,4.8c0.1,2-0.5,3.8-1.5,4.7l0,0c-0.2,0.1-0.3,0.2-0.5,0.3h-0.1c-0.2,0.1-0.4,0.1-0.6,0.2
												c-1.7,0.1-3.3-2-3.4-4.8C275,371.3,275,370.9,275,370.6z"/>
											<g>
												
													<ellipse transform="matrix(0.9979 -6.468307e-02 6.468307e-02 0.9979 -23.3929 18.842)" class="st32" cx="279.3" cy="370.7" rx="3.1" ry="5"/>
												
													<linearGradient id="SVGID_00000135675240469948689760000004789180863870421398_" gradientUnits="userSpaceOnUse" x1="276.1428" y1="22.3984" x2="281.7712" y2="22.3984" gradientTransform="matrix(1 0 0 -1 0 394)">
													<stop  offset="0" style="stop-color:#FFFFFF"/>
													<stop  offset="0.2323" style="stop-color:#D0D9DA"/>
													<stop  offset="0.4568" style="stop-color:#ABBABD"/>
													<stop  offset="0.6641" style="stop-color:#90A4A8"/>
													<stop  offset="0.848" style="stop-color:#80979B"/>
													<stop  offset="0.9893" style="stop-color:#7A9297"/>
												</linearGradient>
												
													<path style="opacity:0.2;fill:url(#SVGID_00000135675240469948689760000004789180863870421398_);enable-background:new    ;" d="
													M276.7,367.5c-0.1,0.5-0.1,1,0,1.4c0.3,1.6,0.9,3,2.1,4.1c0.7,0.8,1.9,1.1,2.9,0.9c-0.5,1-1.3,1.7-2.2,1.8
													c-1.7,0.1-3.3-2.1-3.4-4.8C276.1,369.6,276.3,368.5,276.7,367.5z"/>
											</g>
										</g>
									</g>
									<g>
										<path class="st32" d="M284.2,244.2c0,0,12.8,2.2,24.3-5c0,0,0.9,12.8,0.9,15s-16,31.4-35.4,42.2c0,0-0.7-17.3,0-20.2
											S283.5,258.6,284.2,244.2z"/>
										
											<linearGradient id="SVGID_00000179617760202065572490000016401891757600721577_" gradientUnits="userSpaceOnUse" x1="273.701" y1="123.8" x2="309.5391" y2="123.8" gradientTransform="matrix(1 0 0 -1 0 394)">
											<stop  offset="0" style="stop-color:#FFFFFF"/>
											<stop  offset="0.2323" style="stop-color:#D0D9DA"/>
											<stop  offset="0.4568" style="stop-color:#ABBABD"/>
											<stop  offset="0.6641" style="stop-color:#90A4A8"/>
											<stop  offset="0.848" style="stop-color:#80979B"/>
											<stop  offset="0.9893" style="stop-color:#7A9297"/>
										</linearGradient>
										
											<path style="opacity:0.2;fill:url(#SVGID_00000179617760202065572490000016401891757600721577_);enable-background:new    ;" d="
											M309,244.1c0.8,3.2,0.4,9.4,0.4,11c0,2.2-16,30.4-35.4,41.2c0,0-0.6-15.1-0.1-19.4C290.1,276.7,308.6,260.3,309,244.1z"/>
										<g class="st35">
											
												<linearGradient id="SVGID_00000083809448299216384030000015067721295745952943_" gradientUnits="userSpaceOnUse" x1="287.0639" y1="144.6038" x2="300.0442" y2="144.6038" gradientTransform="matrix(1 0 0 -1 0 394)">
												<stop  offset="0" style="stop-color:#FFFFFF"/>
												<stop  offset="0.2323" style="stop-color:#D0D9DA"/>
												<stop  offset="0.4568" style="stop-color:#ABBABD"/>
												<stop  offset="0.6641" style="stop-color:#90A4A8"/>
												<stop  offset="0.848" style="stop-color:#80979B"/>
												<stop  offset="0.9893" style="stop-color:#7A9297"/>
											</linearGradient>
											<path style="fill:url(#SVGID_00000083809448299216384030000015067721295745952943_);" d="M288.1,248.7
												c0.6,0.3,1.4,0.6,2.2,0.8c1.6,0.4,3.3,0.1,3.3,0.1s1.7,0,3.3-0.5c1.6-0.5,3.1-1.4,3.2-1.3s-1.2,1.4-2.9,2.2
												c-1.7,0.8-3.5,1-3.5,1s-0.5,0-1.2,0c-0.7-0.1-1.6-0.2-2.5-0.5s-1.7-0.8-2.2-1.3s-0.8-0.9-0.7-0.9
												C287.1,248.1,287.5,248.4,288.1,248.7z"/>
											
												<linearGradient id="SVGID_00000139289122997030087770000014914219073963854255_" gradientUnits="userSpaceOnUse" x1="287.7764" y1="141.2585" x2="297.8736" y2="141.2585" gradientTransform="matrix(1 0 0 -1 0 394)">
												<stop  offset="0" style="stop-color:#FFFFFF"/>
												<stop  offset="0.2323" style="stop-color:#D0D9DA"/>
												<stop  offset="0.4568" style="stop-color:#ABBABD"/>
												<stop  offset="0.6641" style="stop-color:#90A4A8"/>
												<stop  offset="0.848" style="stop-color:#80979B"/>
												<stop  offset="0.9893" style="stop-color:#7A9297"/>
											</linearGradient>
											<path style="fill:url(#SVGID_00000139289122997030087770000014914219073963854255_);" d="M290,252.5
												c0.6,0.3,1.2,0.6,1.7,0.7s0.8,0.2,0.8,0.2s0.3,0.1,0.8,0.2c0.5,0.2,1.2,0.1,1.8,0.2c1.4,0,2.7-0.4,2.8-0.2
												c0.1,0.1-1.2,0.9-2.7,1.1s-3,0-3,0s-0.4-0.1-0.9-0.4c-0.6-0.2-1.2-0.7-1.8-1.1c-1.2-1-1.8-2.4-1.6-2.5
												C288,250.6,288.8,251.8,290,252.5z"/>
										</g>
									</g>
								</g>
							</g>
						</g>
					</g>
				</g>
			</g>
		</g>
		<path class="st38" d="M318.1,156.6c4.7,6.5,7.1,14.7,6.3,23.3l-2.1,29c-1.6,15.3-14.2,29.3-28.6,32.1c7.8-3.4,12.1-10,15.3-17.2
			c5.2-11.6,1.5-29.4-1.4-36.7c-8.7-22.2,1.2-34.2-4.8-40.9c-0.9-1-9.7,1.4-15.7,8.6c-9.2,11-11.1,23.7-21.5,32.4
			c-10.8,9-16.5,5.8-16.5,5.8c2.1-5.3,15-39.1,19.2-42.7c14-11.6,27-9.7,36-10.1C308.1,140.1,313.5,153.9,318.1,156.6z"/>
		<g>
			
				<linearGradient id="SVGID_00000042735998133653804010000014995798200030421155_" gradientUnits="userSpaceOnUse" x1="87.6464" y1="380.1214" x2="102.2699" y2="380.1214" gradientTransform="matrix(0.9999 -1.499017e-02 -1.499017e-02 -0.9999 186.6918 594.0169)">
				<stop  offset="0.1559" style="stop-color:#FA0034"/>
				<stop  offset="1" style="stop-color:#FA0034"/>
			</linearGradient>
			<path style="opacity:0.4;fill:url(#SVGID_00000042735998133653804010000014995798200030421155_);enable-background:new    ;" d="
				M269,208.9c0,0,2.3,2,6.8,2.3s6.4-2.6,6.4-2.6s1.7,1.7,0.7,3.2s-5.1,4.3-6.2,4.5C275.5,216.6,266.5,213,269,208.9z"/>
			
				<ellipse transform="matrix(0.9999 -1.362897e-02 1.362897e-02 0.9999 -2.8309 3.7906)" class="st40" cx="276.7" cy="209.6" rx="2.2" ry="1"/>
			<g>
				<path class="st41" d="M273.1,211.4c0,0-0.6-0.3-1.1-0.2c-0.6,0-1.1,0.3-1,0.5c0,0.2,0.5,0.3,0.9,0.5s0.7,0.5,0.7,0.5
					s0.4,0.1,0.7,0.4c0.4,0.2,0.7,0.7,0.8,0.6c0.2-0.1,0.1-0.7-0.2-1.3C273.6,211.8,273.1,211.4,273.1,211.4z"/>
				<path class="st41" d="M281.7,211c0-0.2-0.5-0.3-1-0.2c-0.5,0.1-0.9,0.3-0.9,0.3s-0.4,0.4-0.6,0.9c-0.3,0.5-0.4,1-0.2,1.1
					c0.1,0.1,0.5-0.2,0.8-0.4c0.3-0.2,0.7-0.4,0.7-0.4s0.3-0.3,0.6-0.6C281.4,211.4,281.8,211.2,281.7,211z"/>
				<path class="st41" d="M271.2,212.1c-0.4-0.4-0.7-0.7-1-1c-0.2-0.2-0.3-0.4-0.3-0.4s-0.1-0.1-0.2-0.3c-0.1-0.2-0.1-0.6,0.1-1
					c0.3-0.8,1.2-1.5,1.1-1.6c0-0.1-0.3,0-0.6,0.1c-0.3,0.2-0.8,0.4-1.2,1c-0.4,0.5-0.6,1.2-0.5,1.8c0.1,0.6,0.4,0.9,0.3,0.9
					c0,0,0.2,0.3,0.6,0.5c0.3,0.2,0.7,0.5,1.2,0.7c0.8,0.5,1.7,1,1.8,0.8C272.6,213.6,271.9,212.9,271.2,212.1z"/>
				<path class="st41" d="M283.6,210.6c0,0,0-0.1-0.2-0.6c-0.1-0.3-0.2-0.4-0.3-0.6c-0.1-0.2-0.2-0.4-0.4-0.6
					c-0.5-0.7-1.2-1.3-1.3-1.2c-0.1,0.1,0.3,0.9,0.6,1.7c0.1,0.2,0.1,0.4,0.2,0.6s0.1,0.4,0.1,0.4c0,0.3,0,0.5,0,0.5s0,0.1,0,0.2
					s-0.1,0.4-0.4,0.7c-0.6,0.5-1.2,1.2-1.1,1.4c0.1,0.1,0.8-0.1,1.6-0.5c0.4-0.2,0.8-0.6,1-1.1
					C283.7,210.9,283.6,210.6,283.6,210.6z"/>
				<path class="st41" d="M280.2,208.2c0.1-0.2-0.9-0.7-1.9-1s-2-0.3-2-0.3s-1,0.1-2,0.4c-1,0.3-1.9,0.9-1.8,1.1c0.1,0.2,1,0,2-0.1
					s1.9,0,1.9,0s0.9-0.1,1.9-0.1C279.2,208.2,280.2,208.4,280.2,208.2z"/>
			</g>
		</g>
		<g>
			
				<radialGradient id="SVGID_00000023975268092181816760000014775110070983128505_" cx="53.9895" cy="382.8742" r="8.5478" gradientTransform="matrix(0.9718 -1.326909e-02 -1.369031e-02 -0.9999 206.8618 593.0897)" gradientUnits="userSpaceOnUse">
				<stop  offset="0" style="stop-color:#FA0034"/>
				<stop  offset="0.8441" style="stop-color:#FA0034;stop-opacity:0"/>
			</radialGradient>
			<path style="opacity:0.4;fill:url(#SVGID_00000023975268092181816760000014775110070983128505_);enable-background:new    ;" d="
				M247.4,202.7c0,0-5.9,1.6-1.1,8.9c3.9,5.8,6.5,5,8.4,4.8c3.6-0.3,9-3.1,9-8C263.6,203.5,254.8,202.6,247.4,202.7z"/>
			
				<radialGradient id="SVGID_00000047756210237426395630000003811639550644963478_" cx="113.3962" cy="505.8904" r="8.5481" gradientTransform="matrix(0.89 -0.4011 -0.3906 -0.916 402.6011 716.5635)" gradientUnits="userSpaceOnUse">
				<stop  offset="0" style="stop-color:#FA0034"/>
				<stop  offset="0.8441" style="stop-color:#FA0034;stop-opacity:0"/>
			</radialGradient>
			<path style="opacity:0.4;fill:url(#SVGID_00000047756210237426395630000003811639550644963478_);enable-background:new    ;" d="
				M297.2,204.1c0,0-4.8,3.8,2.4,8.6c5.8,3.8,7.8,2,9.6,1.1c3.2-1.7,7.2-6.4,5.2-10.9C312.4,198.3,303.9,201,297.2,204.1z"/>
			
				<radialGradient id="SVGID_00000152248127499911359500000012364149154382657927_" cx="91.2373" cy="448.4858" r="11.4014" gradientTransform="matrix(0.9674 -9.631179e-02 -9.443177e-02 -0.9954 233.5714 632.5557)" gradientUnits="userSpaceOnUse">
				<stop  offset="0" style="stop-color:#F5D0A2"/>
				<stop  offset="0.8441" style="stop-color:#F5D0A2;stop-opacity:0"/>
			</radialGradient>
			<path style="opacity:0.4;fill:url(#SVGID_00000152248127499911359500000012364149154382657927_);enable-background:new    ;" d="
				M269.9,169c0,0-7.7,2.8-0.5,11.9c5.8,7.3,9.1,5.9,11.7,5.4c4.7-0.8,11.7-5.1,11-11.6C291.5,168.2,279.7,168.1,269.9,169z"/>
			<path class="st40" d="M248.8,204.6c-0.2,0.5-1,0.6-1.8,0.3s-1.3-1-1.1-1.4c0.2-0.5,1-0.6,1.8-0.3
				C248.5,203.4,249,204.1,248.8,204.6z"/>
			<path class="st40" d="M313.9,202.5c0.2,0.5-0.3,1.1-1.1,1.4c-0.8,0.3-1.6,0.2-1.8-0.3c-0.2-0.5,0.3-1.1,1.1-1.4
				C313,201.9,313.8,202.1,313.9,202.5z"/>
			<g>
				<g>
					<path class="st41" d="M297.1,187.7c0,0.1-0.9,0.5-1.7,1.1c-0.8,0.6-1.5,1.4-1.5,1.4s-0.7,0.7-1.3,1.5c-0.6,0.8-1,1.8-1.1,1.8
						s0.2-1,0.7-2c0.5-0.9,1.2-1.7,1.2-1.7s0.8-0.8,1.7-1.3C296,187.9,297,187.6,297.1,187.7z"/>
				</g>
				<g>
					<path class="st41" d="M295.5,186.8c0,0.1-0.8,0.5-1.4,1.2c-0.7,0.6-1.2,1.4-1.2,1.4s-0.6,0.7-1,1.5s-0.7,1.7-0.8,1.7
						c-0.1,0,0-1,0.4-1.9s0.9-1.7,0.9-1.7s0.6-0.8,1.4-1.3C294.6,187.1,295.5,186.7,295.5,186.8z"/>
				</g>
				<g>
					<path class="st41" d="M268.1,195.2c-0.1,0-0.4-1.1-0.9-2.1s-1.1-1.9-1.1-1.9s-0.6-1-1.3-1.8c-0.7-0.9-1.6-1.6-1.5-1.7
						c0-0.1,1,0.6,1.8,1.4c0.8,0.8,1.5,1.8,1.5,1.8s0.6,1,1,2.1S268.2,195.2,268.1,195.2z"/>
				</g>
				<g>
					<path class="st41" d="M267.6,191.3c-0.1,0-0.3-0.4-0.7-0.9c-0.3-0.4-0.6-0.9-0.6-0.9s-0.3-0.5-0.6-0.9
						c-0.3-0.4-0.7-0.9-0.6-0.9c0.1-0.1,0.5,0.3,0.9,0.7s0.8,0.8,0.8,0.8s0.3,0.5,0.5,1C267.6,190.7,267.7,191.3,267.6,191.3z"/>
				</g>
			</g>
			<g>
				<path class="st45" d="M265.8,175.2c-0.1,0.1-0.6-0.1-1.4-0.3c-0.8-0.3-1.8-0.5-2.8-0.6s-2,0-2.7,0.2s-1.2,0.4-1.2,0.4
					s-0.5,0.1-1.2,0.3c-0.7,0.2-1.7,0.7-2.6,1.2c-1.9,1-3.6,2.4-3.9,2.1c-0.2-0.2,1.2-2,2.9-3.5c0.9-0.7,1.9-1.4,2.7-1.8
					c0.8-0.4,1.4-0.6,1.4-0.6s0.6-0.2,1.5-0.2c0.9-0.1,2.2,0,3.3,0.3c1.2,0.3,2.2,0.9,2.9,1.4C265.6,174.6,265.9,175.1,265.8,175.2z
					"/>
			</g>
			<g>
				<path class="st45" d="M292.4,174.8c0.1,0.1,0.6-0.1,1.4-0.4c0.7-0.3,1.7-0.6,2.8-0.7c1-0.1,2,0,2.7,0.1c0.7,0.2,1.2,0.3,1.2,0.3
					s0.5,0.1,1.2,0.3s1.7,0.6,2.6,1.1c1.9,1,3.7,2.2,3.9,2c0.2-0.2-1.2-2-3-3.4c-0.9-0.7-1.9-1.3-2.7-1.7c-0.8-0.4-1.4-0.6-1.4-0.6
					s-0.6-0.1-1.5-0.2c-0.9-0.1-2.2,0-3.3,0.4c-1.2,0.3-2.2,0.9-2.9,1.5C292.7,174.2,292.4,174.7,292.4,174.8z"/>
			</g>
			
				<linearGradient id="SVGID_00000025413377015222532190000002116582232034872251_" gradientUnits="userSpaceOnUse" x1="111.1088" y1="398.1308" x2="129.1758" y2="398.1308" gradientTransform="matrix(0.9999 -1.499017e-02 -1.499017e-02 -0.9999 186.6918 594.0169)">
				<stop  offset="0.1559" style="stop-color:#FA0034"/>
				<stop  offset="1" style="stop-color:#FA0034"/>
			</linearGradient>
			<path style="opacity:0.4;fill:url(#SVGID_00000025413377015222532190000002116582232034872251_);enable-background:new    ;" d="
				M291.9,199.5c0,0,1.5-9.4,7.7-10.5c6.1-1.2,10.4,7.5,10.4,7.5S298.8,188.4,291.9,199.5z"/>
			
				<linearGradient id="SVGID_00000058549495021526850150000008157196332246426279_" gradientUnits="userSpaceOnUse" x1="1376.0027" y1="399.099" x2="1394.063" y2="399.099" gradientTransform="matrix(-0.9999 1.499017e-02 -1.499017e-02 -0.9999 1650.1688 572.0767)">
				<stop  offset="0.1559" style="stop-color:#FA0034"/>
				<stop  offset="1" style="stop-color:#FA0034"/>
			</linearGradient>
			<path style="opacity:0.4;fill:url(#SVGID_00000058549495021526850150000008157196332246426279_);enable-background:new    ;" d="
				M268.4,198.9c0,0-1.8-9.3-8-10.3c-6.1-1-10.1,7.8-10.1,7.8S261.2,188,268.4,198.9z"/>
			<g>
				<path class="st45" d="M292.2,201.4c0.8-0.1,0.9-0.3,1.5-0.7c0.8-0.6,1.2-1.9,1.9-2.6c0.7-0.8,1.6-1.5,2.5-2
					c4.2-2.3,7.4,0.1,10.3,2.9c1.4,1.3,3,0.2,2.3-1.8c-1.9-5.2-7.8-6.9-12.6-4.9c-2.6,1.1-4.9,3.1-6.2,5.6
					C291.8,198.4,290.6,201.6,292.2,201.4L292.2,201.4z"/>
			</g>
			<g>
				<path class="st45" d="M267.8,201.8c-0.8-0.1-0.9-0.2-1.5-0.6c-0.8-0.6-1.3-1.8-2-2.5s-1.6-1.4-2.5-1.9
					c-4.3-2.2-7.4,0.3-10.3,3.2c-1.3,1.4-3,0.3-2.4-1.7c1.7-5.3,7.6-7.1,12.4-5.2c2.6,1,5,2.9,6.3,5.4
					C268.1,198.7,269.5,202,267.8,201.8L267.8,201.8z"/>
			</g>
			<g>
				<g>
					<path class="st45" d="M257,193.2c-0.7,0.6-1.8,0.2-2.5-0.2c-1-0.6-1.4-1.7-1.5-2.8c0-1.5,2.3-1.8,2.7-0.3
						c0.1,0.5,0.4,1,0.6,1.5c0.2,0.5,0.7,0.8,0.8,1.3C257.2,192.8,257.2,193,257,193.2L257,193.2z"/>
				</g>
				<g>
					<path class="st45" d="M253.5,194.9c-0.5,0.8-1.7,0.6-2.5,0.3c-1.1-0.4-1.8-1.4-2-2.5c-0.3-1.5,1.9-2.2,2.5-0.8
						c0.2,0.5,0.6,0.9,0.9,1.3c0.3,0.4,0.8,0.6,1.1,1.1C253.6,194.6,253.6,194.8,253.5,194.9L253.5,194.9z"/>
				</g>
				<g>
					<path class="st45" d="M250.2,197.7c-0.4,0.7-1.3,0.6-2,0.4c-0.9-0.2-1.5-1-1.8-1.8c-0.4-1.2,1.3-1.9,2-0.9
						c0.2,0.4,0.6,0.7,0.8,1c0.3,0.3,0.7,0.4,0.9,0.8C250.3,197.4,250.3,197.6,250.2,197.7L250.2,197.7z"/>
				</g>
			</g>
			<g>
				<g>
					<path class="st45" d="M302.9,192.1c0.7,0.6,1.8,0.2,2.5-0.3c1-0.6,1.4-1.7,1.4-2.9c0-1.5-2.3-1.7-2.7-0.2
						c-0.1,0.5-0.4,1-0.6,1.5s-0.6,0.8-0.8,1.3C302.7,191.8,302.8,192,302.9,192.1L302.9,192.1z"/>
				</g>
				<g>
					<path class="st45" d="M306.6,193.8c0.6,0.8,1.7,0.5,2.5,0.2c1.1-0.4,1.7-1.4,1.9-2.5c0.3-1.5-1.9-2.2-2.6-0.8
						c-0.2,0.5-0.6,0.9-0.9,1.4s-0.8,0.7-1,1.2C306.4,193.4,306.5,193.6,306.6,193.8L306.6,193.8z"/>
				</g>
				<g>
					<path class="st45" d="M309.9,196.4c0.4,0.7,1.3,0.5,2,0.4c0.9-0.2,1.5-1,1.7-1.9c0.3-1.2-1.4-1.9-2-0.8c-0.2,0.4-0.5,0.7-0.8,1
						s-0.7,0.5-0.9,0.9C309.8,196.1,309.9,196.3,309.9,196.4L309.9,196.4z"/>
				</g>
			</g>
		</g>
		<g>
			
				<ellipse transform="matrix(0.9955 -9.491380e-02 9.491380e-02 0.9955 -21.0381 27.8941)" class="st40" cx="282.7" cy="235.1" rx="1.4" ry="0.9"/>
			<path class="st48" d="M265.2,221.3c0,0,7.3-5.6,14-1.4c0,0,5.6-4.3,14.2-0.5c0,0,0,11-12.4,12.5
				C268.6,233.5,265.2,221.3,265.2,221.3z"/>
			<path class="st32" d="M281.9,230.6c7.1-2,9.7-6.8,9.7-6.8l-2.3-2c0,0,1.6-1.5,1.7-3.2c-7.3-2.2-11.9,1.3-11.9,1.3
				c-1.7-1.1-3.5-1.5-5.1-1.6c-2.5,0.4-4.6,0.9-5.9,1.3c-0.5,0.2-0.9,0.4-1.3,0.6l3.3,3.5l-1.6,2.8
				C268.6,226.6,274.9,232.7,281.9,230.6z"/>
			<g>
				<path class="st49" d="M279.7,222.7c5.6-0.6,10.4-2.7,12-3.8c-7.2-2.7-12.6,1.1-12.6,1.1c-4.7-3-9.7-1.1-12.3,0.3
					C267.8,220.7,272.4,223.4,279.7,222.7z"/>
			</g>
			<g class="st50">
				<path class="st48" d="M279.7,222.7c5.6-0.6,10.4-2.7,12-3.8c-7.2-2.7-12.6,1.1-12.6,1.1c-4.7-3-9.7-1.1-12.3,0.3
					C267.8,220.7,272.4,223.4,279.7,222.7z"/>
			</g>
			<path class="st49" d="M293.3,219.5c-0.1,0-0.1,0-0.2-0.1c-1.6,2.5-5,8.5-13.2,8.9c-10.1,0.5-14.3-6.8-14.3-6.8s-0.1,0.1-0.3,0.3
				c0.8,2.2,4.8,11.5,15.6,10.2C293.3,230.4,293.3,219.5,293.3,219.5z"/>
			<path class="st51" d="M288.8,218.1c-1.1,1.2-3.4,2.9-8.6,3.1c-5.9,0.3-8.3-1.3-9.3-2.4c-1.6,0.4-3,1-4,1.5
				c0.9,0.4,5.5,3.2,12.9,2.4c5.6-0.6,10.4-2.7,12-3.8C290.7,218.5,289.7,218.2,288.8,218.1z"/>
			
				<ellipse transform="matrix(0.9875 -0.1578 0.1578 0.9875 -32.6539 47.7233)" class="st52" cx="284.2" cy="229.5" rx="1.2" ry="0.8"/>
			<g class="st35">
				<path class="st53" d="M290,221.8c0,0-0.1,0.1-0.4,0.3c-0.2,0.2-0.6,0.4-1,0.6c-0.8,0.5-2,1.1-3.3,1.5c-1.2,0.4-2.5,0.8-3.5,1
					c-0.5,0.1-0.9,0.1-1.2,0.2c-0.3,0-0.4,0.1-0.4,0.1s-0.2,0-0.5,0s-0.7,0.1-1.2,0.1c-1,0-2.3,0-3.6-0.2c-1.3-0.2-2.6-0.5-3.5-0.8
					c-0.5-0.1-0.8-0.3-1.1-0.4c-0.3-0.1-0.4-0.2-0.4-0.2s0.6,0.2,1.6,0.4c0.9,0.3,2.2,0.5,3.5,0.6s2.6,0.1,3.5,0.1
					c0.5,0,0.9-0.1,1.2-0.1c0.3,0,0.4,0,0.4,0s0.2,0,0.4-0.1c0.3,0,0.7-0.1,1.2-0.2c1-0.1,2.2-0.4,3.4-0.8c1.2-0.4,2.4-0.9,3.3-1.4
					C289.4,222.1,289.9,221.7,290,221.8z"/>
			</g>
			<g>
				<path class="st41" d="M296.4,219.4c0.1,0.1-0.5,0.5-1.2,0.5c-0.3,0-0.7,0-0.9-0.1c-0.2-0.1-0.4-0.2-0.4-0.2s-0.2-0.1-0.3-0.3
					c-0.2-0.2-0.4-0.5-0.5-0.8c-0.3-0.6-0.1-1.3,0-1.3s0.1,0.6,0.4,1.1c0.1,0.2,0.3,0.5,0.5,0.6s0.3,0.2,0.3,0.2s0.1,0.1,0.3,0.2
					c0.2,0.1,0.5,0.2,0.7,0.2C295.8,219.6,296.3,219.3,296.4,219.4z"/>
			</g>
			<g>
				<path class="st41" d="M265.3,219.1c0.1,0,0.2,0.5,0.1,1.1s-0.4,1-0.4,1s-0.3,0.5-0.8,0.8s-1,0.4-1,0.3s0.5-0.3,0.8-0.6
					c0.4-0.3,0.6-0.8,0.6-0.8s0.3-0.4,0.5-0.8C265.2,219.6,265.3,219.1,265.3,219.1z"/>
			</g>
			<g>
				<path class="st51" d="M293.3,219.5c-0.1,0-0.1,0-0.2-0.1c-0.9,1.5-2.4,4.1-5.2,6.1c1.3,0.4,2.2,1,2.1,2.1
					C293.3,223.9,293.3,219.5,293.3,219.5z"/>
				<path class="st51" d="M270.2,226.6c0.2,0,0.4-0.1,0.7-0.2c-3.7-2-5.4-4.9-5.4-4.9s-0.1,0.1-0.3,0.3c0.5,1.3,1.9,4.9,5.2,7.4
					C269.7,228.1,269.1,226.9,270.2,226.6z"/>
			</g>
		</g>
		<g>
			<g>
				
					<linearGradient id="SVGID_00000055678012826364201210000017621148896278767549_" gradientUnits="userSpaceOnUse" x1="7573.2017" y1="65.95" x2="7658.4009" y2="65.95" gradientTransform="matrix(-1 0 0 -1 7799.7017 394)">
					<stop  offset="0" style="stop-color:#3D3C1F"/>
					<stop  offset="1" style="stop-color:#C0C293"/>
				</linearGradient>
				<path style="fill:url(#SVGID_00000055678012826364201210000017621148896278767549_);" d="M226.5,218.8
					c-26.7,60-42.2,167.1-31.5,218.5c0,0-57.5-35.5-53.5-163.5c17,0.4,29.1-17.2,34-38.4C175.5,235.4,206.5,228.2,226.5,218.8z"/>
				
					<linearGradient id="SVGID_00000060015618939379005800000010989078313760064679_" gradientUnits="userSpaceOnUse" x1="7558.3823" y1="-43.3001" x2="7558.3823" y2="175.2" gradientTransform="matrix(-1 0 0 -1 7799.7017 394)">
					<stop  offset="0" style="stop-color:#3D3C1F"/>
					<stop  offset="1" style="stop-color:#C0C293"/>
				</linearGradient>
				<path style="fill:url(#SVGID_00000060015618939379005800000010989078313760064679_);" d="M226.5,218.8
					C194.2,260.2,175.9,348,195,437.3c0,0,67.1,0.8,100.4-129.1c-24.9-7.5-29-35-26.8-54.9C268.6,253.3,238.4,232,226.5,218.8z"/>
			</g>
			<path class="st56" d="M192.2,427.9c0,0,60,7,90.7-112.8c-23-7-26.2-36.3-24.2-54.7c0,0-28.1-19.5-39-31.6
				c-19,9.7-42.1,15.3-42.1,15.3c-4.5,19.5-15.7,35.8-31.3,35.4C142.5,397.6,192.2,427.9,192.2,427.9z M153,284.4
				c14.1,0.3,24.1-14.3,28.2-31.9c0,0,17-7.5,34-16.2c9.8,10.9,35.1,28.3,35.1,28.3c-1.8,16.5,2.9,46.7,23.6,53
				c-30.2,105.1-84.3,99.3-84.3,99.3S149.7,390.6,153,284.4z"/>
			
				<linearGradient id="SVGID_00000013182734287191267220000014252061990824438698_" gradientUnits="userSpaceOnUse" x1="7609.0059" y1="212.8227" x2="7609.0059" y2="290.9683" gradientTransform="matrix(-0.9997 2.550000e-02 -2.550000e-02 -0.9997 7807.9048 385.8625)">
				<stop  offset="0" style="stop-color:#C0C293"/>
				<stop  offset="0.2943" style="stop-color:#D8DABD"/>
				<stop  offset="0.5963" style="stop-color:#EDEEE1"/>
				<stop  offset="0.8424" style="stop-color:#FAFAF7"/>
				<stop  offset="1" style="stop-color:#FFFFFF"/>
			</linearGradient>
			<path style="fill:url(#SVGID_00000013182734287191267220000014252061990824438698_);" d="M161.3,331.9c0.1-5.6,0.9-13.2,1.7-18.1
				c7.5-0.8,11-0.3,18,0c2-11.7,3.4-16.4,5.9-24.7l20.3,3.4c-2.5,8-4.5,15.8-5.9,23.9c9.8,2,17.6,3.4,26.9,7.2l-4.7,19.1
				c-9-3.3-18.3-5.5-24.7-7c-1.2,9.2-1.6,19.8-1.2,31.3c-6.3-0.3-13.3-0.5-18.7-1.8c-1.5-9.6-1.3-22.3,0.1-32.7
				C172,331.9,168.7,331.8,161.3,331.9z"/>
			
				<linearGradient id="SVGID_00000095302207584992854460000009302948410871282304_" gradientUnits="userSpaceOnUse" x1="7558.0015" y1="-43.3001" x2="7558.0015" y2="175.1808" gradientTransform="matrix(-1 0 0 -1 7799.7017 394)">
				<stop  offset="0" style="stop-color:#7D7D58"/>
				<stop  offset="1" style="stop-color:#C0C293"/>
			</linearGradient>
			<path style="opacity:0.2;fill:url(#SVGID_00000095302207584992854460000009302948410871282304_);enable-background:new    ;" d="
				M245.9,356.1c9.9-9.3,19.1-19.9,26.6-31.2c4.7-7,8.7-14.6,11.3-22.6c3.2,2.5,7.1,4.6,11.6,5.9C262.1,438.1,195,437.3,195,437.3
				c-3.6-16.6-5.8-33.2-7-49.4C209.7,382.7,229.4,371.5,245.9,356.1z"/>
			
				<linearGradient id="SVGID_00000109721978409467498310000017081574316847839403_" gradientUnits="userSpaceOnUse" x1="7617.5015" y1="60.15" x2="7643.0337" y2="60.15" gradientTransform="matrix(-1 0 0 -1 7799.7017 394)">
				<stop  offset="0" style="stop-color:#C0C293;stop-opacity:0"/>
				<stop  offset="1" style="stop-color:#FFFFFF"/>
			</linearGradient>
			
				<path style="opacity:0.57;fill:url(#SVGID_00000109721978409467498310000017081574316847839403_);enable-background:new    ;" d="
				M182.2,269.2c-12.4,33.3-19,57.3-3.3,129.3c0,0-25-53.5-21.9-109.2C156.9,289.3,167.5,291.1,182.2,269.2z"/>
		</g>
		<g>
			<g class="st60">
				<g>
					<polygon class="st30" points="225.6,269.6 302.9,353.4 298.9,358.1 294.8,362.8 200.6,298.6 192.1,266 					"/>
					<polygon class="st30" points="308.2,353.5 301.9,360.7 304.5,357.7 324,374.6 318.8,380.6 299.3,363.8 295.6,368 292.6,365.4 
						305.1,350.9 					"/>
				</g>
			</g>
			<g>
				
					<linearGradient id="SVGID_00000004544350785261444430000005127485550040344221_" gradientUnits="userSpaceOnUse" x1="7513.3062" y1="571.2161" x2="7513.3062" y2="671.1473" gradientTransform="matrix(-0.9972 7.430000e-02 -7.430000e-02 -0.9972 7775.0435 370.6383)">
					<stop  offset="0" style="stop-color:#C0C293"/>
					<stop  offset="1" style="stop-color:#EBF4F4"/>
				</linearGradient>
				<polygon style="fill:url(#SVGID_00000004544350785261444430000005127485550040344221_);" points="178,263.7 290.8,355.5 
					294.9,350.6 212.7,266.4 				"/>
				
					<linearGradient id="SVGID_00000087397666490349195230000000639027552846749606_" gradientUnits="userSpaceOnUse" x1="7512.584" y1="624.9652" x2="7526.5088" y2="607.0995" gradientTransform="matrix(-0.9972 7.430000e-02 -7.430000e-02 -0.9972 7775.0435 370.6383)">
					<stop  offset="0" style="stop-color:#C0C293"/>
					<stop  offset="1" style="stop-color:#EBF4F4"/>
				</linearGradient>
				<polygon style="fill:url(#SVGID_00000087397666490349195230000000639027552846749606_);" points="178,263.7 290.8,355.5 
					286.8,360.5 187.8,297 				"/>
				
					<linearGradient id="SVGID_00000139260692348424059640000008415220102834381483_" gradientUnits="userSpaceOnUse" x1="7452.9092" y1="569.7472" x2="7469.4609" y2="569.7472" gradientTransform="matrix(-0.9972 7.430000e-02 -7.430000e-02 -0.9972 7775.0435 370.6383)">
					<stop  offset="0" style="stop-color:#7D7D58"/>
					<stop  offset="1" style="stop-color:#C0C293"/>
				</linearGradient>
				<polygon style="fill:url(#SVGID_00000139260692348424059640000008415220102834381483_);" points="287.8,365.8 300.2,350.5 
					297.1,347.9 284.6,363.2 				"/>
				
					<linearGradient id="SVGID_00000067924537371306098810000001874703162446498448_" gradientUnits="userSpaceOnUse" x1="7437.5732" y1="559.243" x2="7462.5298" y2="559.243" gradientTransform="matrix(-0.9972 7.430000e-02 -7.430000e-02 -0.9972 7775.0435 370.6383)">
					<stop  offset="0" style="stop-color:#7D7D58"/>
					<stop  offset="1" style="stop-color:#C0C293"/>
				</linearGradient>
				<polygon style="fill:url(#SVGID_00000067924537371306098810000001874703162446498448_);" points="312,378.1 317.2,371.7 
					296.6,354.9 291.4,361.3 				"/>
			</g>
		</g>
		<g>
			<g>
				<path class="st29" d="M305.6,391.7c-2.8-0.3-0.3-6.7,1.7-10.9c-2,3.7-5.5,8.8-8.5,7.1c-4.5-2.5-0.4-26.2,9.8-27.1
					c0,0-4.2-2.5-0.8-5.5c3.4-3,6.4,5.5,8.7,5.5c0.3,0,0.6,0,1,0c4.3,5.7,9,11.9,12.9,17c-1.6,0.9-3.5,1.6-5.6,1.6
					c-5.7,0-9.1,0-9.1,0S309.7,392.1,305.6,391.7z"/>
				<g>
					<path class="st65" d="M334.7,372.5c0,0-4.2,4.6-9.9,4.6s-9.2,0-9.2,0s-6.1,11.5-10.3,11.1c-4.2-0.4,3.4-13,3.4-13
						s-5.7,11.8-10.3,9.6c-4.6-2.3-0.4-23.7,9.9-24.4c0,0-4.2-2.3-0.8-5c3.4-2.7,6.5,5,8.8,5s11.2,0.5,11.2,0.5
						S335.1,364.8,334.7,372.5z"/>
					<path class="st66" d="M318.4,360.3c3.5,0.1,9.2,0.5,9.2,0.5s7.5,4.1,7.1,11.7c0,0-4.2,4.6-9.9,4.6s-9.2,0-9.2,0
						s-6.1,11.5-10.3,11.1c-2.6-0.2-0.7-5.1,1.2-8.8C314.6,376.4,318.6,368.3,318.4,360.3z"/>
					<path class="st22" d="M299.4,380.5c2.5,0,4.8-0.4,6.8-1.1c-2.1,3.1-5.2,6.6-7.9,5.3c-1.1-0.6-1.7-2.2-1.8-4.4
						C297.5,380.4,298.5,380.5,299.4,380.5z"/>
				</g>
			</g>
			<g>
				<g>
					<path class="st17" d="M341.7,255.7c0,0,6.2,14.3,9.1,20c2.9,5.8,43.7,50.9,40.8,58.1c-2.9,7.2-32.2,41.3-57.6,44.2
						c0,0-2.9-14.4-12-19.7c0,0,27.4-16.8,39.4-27.4c0,0-36-25.4-40.3-33.6C316.7,289.1,317.7,263.9,341.7,255.7z"/>
					<path class="st18" d="M358.2,356.9c7-4.9,10.2-13.6,5.6-21.4c-0.8-1.4-2-2.7-3.3-3.9c0.3-0.2,0.6-0.5,0.8-0.7
						c0,0-36-25.4-40.3-33.6c-4.2-7.9-3.4-31.7,18.4-40.8c-20,24.6,11.2,75.9,44.1,73.7c2.4-0.2,4.8-0.8,6.9-1.8
						c1.2,2.4,1.7,4.3,1.3,5.3c-2.9,7.2-32.2,41.3-57.6,44.2c0,0-1-4.8-3.6-9.9C340.3,366.4,349.7,362.9,358.2,356.9z"/>
				</g>
				<g>
					<g>
						<path class="st30" d="M327.7,264.8c-0.1-0.1-0.9,1-2.2,2.7c-0.6,0.9-1.3,1.9-2,3c-0.6,1.1-1.4,2.3-2,3.6
							c-0.3,0.6-0.6,1.3-0.9,1.9c-0.2,0.7-0.5,1.3-0.7,1.9c-0.4,1.3-0.6,2.5-0.9,3.5c-0.1,1-0.2,1.9-0.3,2.5c-0.1,0.6-0.1,1-0.1,1
							s0,0.4,0,1s0,1.5,0.1,2.5c0.1,2.1,0.7,4.9,1.8,7.5c1.1,2.6,2.7,4.9,4,6.6c1.3,1.6,2.2,2.7,2.3,2.6c0.1-0.1-0.7-1.2-1.9-2.9
							c-1.2-1.7-2.6-4.1-3.5-6.6c-1-2.5-1.4-5.2-1.5-7.2c-0.1-1,0-1.9,0-2.4c0-0.6,0-0.9,0-0.9s0-0.3,0-0.9c0.1-0.6,0.1-1.4,0.2-2.4
							c0.3-2,0.9-4.7,2-7.2C324.5,269.4,327.9,265,327.7,264.8z"/>
					</g>
					<g>
						<path class="st30" d="M360.8,330.5c0,0,0.4,0.6,1.3,1.1s2.1,1.1,3.3,1.5c2.5,0.9,5.1,1.4,5.1,1.4s0.7,0.1,1.6,0.2
							c1,0.1,2.3,0.2,3.6,0.1c1.3,0,2.7-0.2,3.6-0.4c1-0.2,1.6-0.6,1.5-0.7s-0.7,0.1-1.6,0.2c-1,0.1-2.2,0.1-3.5,0s-2.6-0.3-3.5-0.4
							c-0.9-0.2-1.6-0.3-1.6-0.3s-2.6-0.3-5.1-1c-1.3-0.3-2.5-0.7-3.4-1.1C361.4,330.8,360.8,330.4,360.8,330.5z"/>
					</g>
				</g>
			</g>
		</g>
		<g>
			<path class="st11" d="M342.6,185c-1.5,7.5-25.1,33.1-25.1,33.1s2.9-13.8-6.4-32.3c-9.9-19.8,3.5-30-3.3-39.8l-0.1-0.2
				c-0.2-0.2-2.3-3.5-2.5-3.7c0,0-9.3-3-16.5-1c-0.1,0-0.1,0-0.2,0c-2.4,0.7-5.6,2-8.9,4.3c-0.3,0.2-0.7,0.4-1,0.7
				c-6.3,4.6-13.3,12.4-17.5,25.1c-6.8,20.2-18.3,30.5-18.3,30.5s-6.2-10.6-5.3-26.5c0.2-4.3,1-9,2.5-14
				c4.3-13.8,29.2-25.8,42.7-30.3s22.1-5.8,24-4.9c1.7,0.8,2.7,5.9,2.9,7.3c0,0.2,0,0.3,0,0.3s0.4,0.2,1.2,0.5
				c4.8,2,22.8,10.2,29,22.5c0.8,1.6,1.5,3.3,2,5.2c0,0,0,0,0,0.1v0.1l0.8,3.1C344,171.7,343.8,179,342.6,185z"/>
			<path class="st11" d="M307.2,141.1c0,0-11.9-7.2-24,0c-10,5.9-7.8,47.4-35,45.4c-2.3,2.7,2.8,4.2,0,5.4c0,0,12.8-2.8,18.9-11.7
				s12.1-27.1,20.9-35.1c7.2-6.5,19.6-3.3,19.6-3.3L307.2,141.1z"/>
			<path class="st67" d="M309.7,134.6c0,0,17.3,3.9,28,14.6c10.8,10.7,4.3,29.6,4.3,29.6l-0.2,1.3c0,0,7.8-18.9-3-31.3
				c-10.7-12.4-29.4-15.5-29.4-15.5L309.7,134.6z"/>
			<polygon class="st11" points="244.8,192 243.5,204.7 241.7,196.2 			"/>
			<path class="st68" d="M342.6,186c-1.5,7.5-25.1,32.1-25.1,32.1s3.9-20.8-1.4-28.3c-10.9-15.5-1.5-38-8.3-47.8l-0.1-0.2
				c-0.2-0.2-0.3-0.5-0.5-0.7c0,0-11.3-2-18.5,0c5.2-7.3,9.7-12.7,14.2-13.6c5.9-1.1,6.6,5.8,6.6,5.8h0.2l1.7,0.3
				c0,0-0.2,0.2-0.4,0.5c-0.6,0.8-1.6,2.6-1.4,3.8c0.3,1.6,9.8,17.5,19.3,25.1s13.2,8,13.2,8c0.8-4.4,0.2-8.1,0-8.9l0.8,3.1
				C344,171.7,343.8,180,342.6,186z"/>
			<path class="st68" d="M289.8,137.2c-6.6,2.5-10.1,8.2-10.1,8.2v-1.2l-1,1.9c-6.3,4.6-13.3,12.4-17.5,25.1
				c-6.8,20.2-18.3,30.5-18.3,30.5s-6.2-10.6-5.3-26.5c0.1,1.7,0.7,10.9,2.9,9.2c2.4-1.8,5.4-8.3,8.4-18.5
				c2.9-9.8,15.3-18.6,16.1-19.1c-0.7,0.6-11.9,10.7-14,24c-2.2,13.7-4.6,22.4-4.6,22.4c5.9-10.5,8.4-27,20.2-40.8
				C278.3,138.7,289.8,137.2,289.8,137.2z"/>
			<path class="st45" d="M316.1,148.9c0,0,6.5,8.4,8.6,10.4c0,0-1-2,0.4-3.4s6.7-0.8,8.9-1.8c2.2-1,2.7-2.4,2.7-2.4
				s-3.2-3.6-5.1-5.2c0,0,1,2.1,0.3,3.9c-0.7,1.7-7.5,0.5-9.4,1C320.6,151.8,316.1,148.9,316.1,148.9z"/>
			<path class="st45" d="M274.6,159.3c0,0,2.7-9,3.8-11.5c0,0,4.4-0.1,5.3-0.6c0,0-5.3,7.9-6.9,12h-2.2V159.3z"/>
			<path class="st45" d="M249.1,148.9c0,0,5.2-0.4,8.4,1l8.3-5.2c0,0-2.5,0.1-4.7,0s-3.2-2.1-3.2-2.1S251.8,146.5,249.1,148.9z"/>
			<path class="st45" d="M260.6,151.3l4.1,0.8l6.4-5.6l-4.3-0.6C266.8,145.9,262.6,148.8,260.6,151.3z"/>
		</g>
		<g>
			<g>
				<path class="st69" d="M364.5,80.4c-1,0.4-1.6,1.2-1.6,2.1v20.2c0,4.1,2,8,5.2,10.3l11.8,7.6c0.8,0.5,1.9,0.5,2.6,0l11.8-7.6
					c3.3-2.4,5.2-6.2,5.2-10.3V82.6c0-0.9-0.7-1.8-1.6-2.1C383.8,75.5,378,75.4,364.5,80.4L364.5,80.4z"/>
				<path class="st70" d="M398.2,80.4c-7-2.4-12-3.7-16.8-3.7V121c0.5,0,0.9-0.1,1.3-0.4l11.8-7.6c3.3-2.4,5.2-6.2,5.2-10.3V82.6
					C399.8,81.6,399.2,80.8,398.2,80.4L398.2,80.4z"/>
			</g>
			<g>
				<polygon class="st70" points="383.5,55.3 388.1,55.9 384.8,59.3 385.7,63.9 381.5,61.7 377.3,64 378.1,59.3 374.7,56.1 
					379.3,55.4 381.3,51.1 				"/>
				<polygon class="st70" points="383.5,135.5 388.1,136.1 384.8,139.4 385.7,144 381.5,141.9 377.3,144.1 378.1,139.5 374.7,136.3 
					379.3,135.5 381.3,131.3 				"/>
				<polygon class="st70" points="349.2,75 353.9,75.6 350.5,78.9 351.4,83.6 347.2,81.4 343.1,83.7 343.8,79 340.4,75.8 
					345.1,75.1 347.1,70.8 				"/>
				<polygon class="st70" points="418.2,75 422.8,75.6 419.5,78.9 420.4,83.6 416.2,81.4 412.1,83.7 412.8,79 409.4,75.8 414,75.1 
					416.1,70.8 				"/>
				<polygon class="st70" points="349.2,116 353.9,116.6 350.5,120 351.4,124.6 347.2,122.5 343.1,124.7 343.8,120.1 340.4,116.8 
					345.1,116.1 347.1,111.9 				"/>
				<polygon class="st70" points="418.2,116 422.8,116.6 419.5,120 420.4,124.6 416.2,122.5 412.1,124.7 412.8,120.1 409.4,116.8 
					414,116.1 416.1,111.9 				"/>
				<polygon class="st70" points="364.1,60.6 368.7,61.2 365.4,64.6 366.2,69.2 362.1,67 357.9,69.3 358.7,64.6 355.3,61.4 
					359.9,60.7 361.9,56.4 				"/>
				<polygon class="st70" points="403.9,60.6 408.5,61.2 405.2,64.6 406.1,69.2 401.9,67 397.8,69.3 398.5,64.6 395.1,61.4 
					399.7,60.7 401.7,56.4 				"/>
				<polygon class="st70" points="364.1,130.3 368.7,130.9 365.4,134.3 366.2,138.9 362.1,136.7 357.9,139 358.7,134.3 355.3,131.1 
					359.9,130.4 361.9,126.1 				"/>
				<polygon class="st70" points="403.9,130.3 408.5,130.9 405.2,134.3 406.1,138.9 401.9,136.7 397.8,139 398.5,134.3 395.1,131.1 
					399.7,130.4 401.7,126.1 				"/>
				<polygon class="st70" points="343.7,96.6 348.4,97.2 345.1,100.5 345.9,105.1 341.7,103 337.6,105.2 338.3,100.6 334.9,97.4 
					339.6,96.6 341.6,92.4 				"/>
				<polygon class="st70" points="424.9,96.6 429.6,97.2 426.2,100.5 427.1,105.1 422.9,103 418.8,105.2 419.5,100.6 416.1,97.4 
					420.8,96.6 422.8,92.4 				"/>
			</g>
		</g>
	</g>
</g>
</svg>
