<?xml version="1.0" encoding="utf-8"?>
<!-- Generator: Adobe Illustrator 27.5.0, SVG Export Plug-In . SVG Version: 6.00 Build 0)  -->
<svg version="1.1" id="Layer_1" xmlns="http://www.w3.org/2000/svg" xmlns:xlink="http://www.w3.org/1999/xlink" x="0px" y="0px"
	 viewBox="0 0 685 426.2" style="enable-background:new 0 0 685 426.2;" xml:space="preserve">
<style type="text/css">
	.st0{fill:none;}
	.st1{fill:#EBF4F4;}
	.st2{fill:#00000F;}
	.st3{clip-path:url(#SVGID_00000091718879630342857860000007099784931789181607_);}
	.st4{opacity:0.6;}
	.st5{fill:#DAE9EA;}
	.st6{fill:#FF6158;}
	.st7{fill:#807EFD;}
	.st8{fill:#C8DEE1;}
	.st9{opacity:0.38;}
	.st10{opacity:0.31;}
	.st11{fill:none;stroke:#7A9297;stroke-width:0.81;stroke-miterlimit:10;}
	.st12{fill:#7A9297;}
	.st13{opacity:0.21;}
	.st14{opacity:0.64;}
	.st15{opacity:0.15;}
	.st16{clip-path:url(#SVGID_00000050661205492458289950000016299482703506243716_);}
	.st17{fill:#CBE4FF;}
	.st18{fill:#FFD0BF;}
	.st19{opacity:0.2;}
	.st20{fill:#FF7398;}
	.st21{fill:#121A60;}
	.st22{fill:#3089E6;}
	.st23{fill:#3D3C1F;}
	.st24{fill:#C0C293;}
	.st25{fill:#A5A579;}
	.st26{fill:#0056B3;}
	.st27{fill:#FFFFFF;}
	.st28{fill:#EDECD1;}
	.st29{fill:#D8D8AF;}
	.st30{fill:#A55641;}
	.st31{opacity:0.2;fill:#FF7398;enable-background:new    ;}
	.st32{fill:#E0DFBF;}
	.st33{fill:#D88460;}
	.st34{fill:#2A0404;}
	.st35{fill:#3F1F13;}
	.st36{opacity:0.4;fill:url(#SVGID_00000121251984279220044040000012409348150194713786_);enable-background:new    ;}
	.st37{opacity:0.42;fill:#E98C4D;enable-background:new    ;}
	.st38{fill:#7D7D58;}
	.st39{opacity:0.2;fill:#320033;enable-background:new    ;}
	.st40{opacity:0.45;fill:#CA6633;enable-background:new    ;}
	.st41{fill:#C66B4B;}
	.st42{opacity:0.45;fill:#E98C4D;enable-background:new    ;}
	.st43{fill:#DA774E;}
	.st44{opacity:0.45;fill:#6C293E;enable-background:new    ;}
	.st45{opacity:0.4;fill:url(#SVGID_00000160910894356736712050000006365680141518222981_);enable-background:new    ;}
	.st46{opacity:0.4;fill:url(#SVGID_00000124880102446961368150000017118230351752719259_);enable-background:new    ;}
	.st47{fill:#8C8B6B;}
	.st48{fill:#FCFBEB;}
	.st49{fill:#EDEBD9;}
	.st50{fill:#282712;}
	.st51{fill:#B7B691;}
	.st52{fill:url(#SVGID_00000074437770047447033440000014110205420081415358_);}
	.st53{opacity:0.85;fill:#FFFFFF;enable-background:new    ;}
	.st54{opacity:0.5;fill:#EEEEEE;enable-background:new    ;}
	.st55{opacity:0.4;fill:#EDECD1;enable-background:new    ;}
	.st56{fill:url(#SVGID_00000166636766459383943410000017928253772735039131_);}
	.st57{fill:url(#SVGID_00000134952057759551265510000003985309058080955047_);}
	.st58{fill:#4C4B2D;}
	.st59{fill:url(#SVGID_00000054235607711099376220000000158066108589664181_);}
	.st60{fill:url(#SVGID_00000046308066359648788930000010940609731266338454_);}
	.st61{opacity:0.5;fill:#FFFFFF;enable-background:new    ;}
	.st62{fill:url(#SVGID_00000081645127941928655300000013587026492707975554_);}
	.st63{opacity:0.25;}
	.st64{fill:url(#SVGID_00000161610351965948791410000010506763189429493133_);}
	.st65{fill:url(#SVGID_00000178191784928234128340000000657423457385481134_);}
	.st66{fill:url(#SVGID_00000031886756652779116030000011880886380449577125_);}
	.st67{fill:url(#SVGID_00000016763340564921951010000012390037064446110128_);}
	.st68{fill:url(#SVGID_00000176741708500074616160000006487557518817663124_);}
	.st69{fill:none;stroke:#7D7D58;stroke-width:0.5;stroke-miterlimit:10;}
</style>
<g>
	<g id="Layer_2_00000000203366348050133340000013617992923185318583_">
		<g id="OBJECTS">
			<rect y="-59" class="st0" width="685" height="485.2"/>
			<path class="st1" d="M193.1,383.1c-38.7-0.1-70.1-31.5-70.2-70.2l0,0c0.1-38.7,31.5-70.1,70.2-70.2l0,0
				c16.4,0,29.6-13.3,29.7-29.7l0,0c0-16.4-13.3-29.6-29.7-29.7h-3.5c-17-0.1-30.8-13.8-30.9-30.9l0,0c0.1-17,13.8-30.8,30.9-30.9
				h10.8c6.6,0,12-5.4,12-12l0,0c0-6.6-5.4-12-12-12h-8c-4.6,0-8.3-3.7-8.3-8.3l0,0c0-4.6,3.7-8.3,8.3-8.3H246c7.2,0,13-5.8,13-13
				l0,0c0-7.2-5.8-13-13-13h-16c-4.6,0-8.3-3.7-8.3-8.3l0,0c0-4.6,3.7-8.3,8.3-8.4l0,0h234.4c6,0,10.8,4.9,10.8,10.8l0,0
				c0,6-4.9,10.8-10.8,10.8H448c-9.4,0-17,7.6-17,17l0,0c0,9.4,7.6,17,17,17h63.5c6,0,10.8,4.9,10.8,10.8l0,0
				c0,6-4.9,10.8-10.8,10.8h-10.4c-8.7,0-15.7,7-15.7,15.7l0,0c0,8.7,7,15.7,15.7,15.7h14.1c22.2,0.1,40.2,18.1,40.3,40.3l0,0
				c-0.1,22.2-18.1,40.2-40.3,40.3h-4.6c-21.4,0.1-38.7,17.4-38.7,38.7l0,0c0.1,21.4,17.4,38.7,38.7,38.7h10
				c21.5,0.1,38.9,17.5,39,39l0,0c-0.1,21.5-17.5,39-39,39L193.1,383.1z M492.1,60c6,0,10.8-4.8,10.8-10.8s-4.8-10.8-10.8-10.8
				s-10.8,4.8-10.8,10.8C481.3,55.1,486.1,60,492.1,60L492.1,60z M169.2,97.6c4.6,0,8.3-3.7,8.3-8.3s-3.7-8.3-8.3-8.3
				s-8.3,3.7-8.3,8.3l0,0C160.9,93.9,164.6,97.6,169.2,97.6z"/>
			<path class="st2" d="M534.2,402h-23.6c-3.6,0-6.6,3-6.6,6.6l0,0c0,3.6,3,6.6,6.6,6.6h9.9c2.9,0,5.2,2.3,5.2,5.2l0,0
				c0,2.9-2.3,5.2-5.2,5.2h-352c-2.9,0-5.2-2.3-5.2-5.2l0,0c0-2.9,2.3-5.2,5.2-5.2h9.4c3.6,0,6.6-3,6.6-6.6l0,0c0-3.6-3-6.6-6.6-6.6
				h-21.6c-5.8,0-10.4-4.7-10.4-10.4l0,0c0-5.8,4.7-10.4,10.4-10.5h377.9c5.8,0,10.4,4.7,10.4,10.5l0,0
				C544.6,397.3,539.9,402,534.2,402z M534.6,425.6c2.9,0,5.2-2.3,5.2-5.2s-2.3-5.2-5.2-5.2s-5.2,2.3-5.2,5.2l0,0
				C529.3,423.3,531.7,425.6,534.6,425.6L534.6,425.6z"/>
			<g>
				<g>
					<g>
						<defs>
							<path id="SVGID_1_" d="M193.1,383.1c-38.7-0.1-70.1-31.5-70.2-70.2l0,0c0.1-38.7,31.5-70.1,70.2-70.2l0,0
								c16.4,0,29.6-13.3,29.7-29.7l0,0c0-16.4-13.3-29.6-29.7-29.7h-3.5c-17-0.1-30.8-13.8-30.9-30.9l0,0
								c0.1-17,13.8-30.8,30.9-30.9h10.8c6.6,0,12-5.4,12-12l0,0c0-6.6-5.4-12-12-12h-8c-4.6,0-8.3-3.7-8.3-8.3l0,0
								c0-4.6,3.7-8.3,8.3-8.3H246c7.2,0,13-5.8,13-13l0,0c0-7.2-5.8-13-13-13h-16c-4.6,0-8.3-3.7-8.3-8.3l0,0
								c0-4.6,3.7-8.3,8.3-8.4l0,0h234.4c6,0,10.8,4.9,10.8,10.8l0,0c0,6-4.9,10.8-10.8,10.8H448c-9.4,0-17,7.6-17,17l0,0
								c0,9.4,7.6,17,17,17h63.5c6,0,10.8,4.9,10.8,10.8l0,0c0,6-4.9,10.8-10.8,10.8h-10.4c-8.7,0-15.7,7-15.7,15.7l0,0
								c0,8.7,7,15.7,15.7,15.7h14.1c22.2,0.1,40.2,18.1,40.3,40.3l0,0c-0.1,22.2-18.1,40.2-40.3,40.3h-4.6
								c-21.4,0.1-38.7,17.4-38.7,38.7l0,0c0.1,21.4,17.4,38.7,38.7,38.7h10c21.5,0.1,38.9,17.5,39,39l0,0c-0.1,21.5-17.5,39-39,39
								L193.1,383.1z M492.1,60c6,0,10.8-4.8,10.8-10.8s-4.8-10.8-10.8-10.8s-10.8,4.8-10.8,10.8C481.3,55.1,486.1,60,492.1,60
								L492.1,60z M169.2,97.6c4.6,0,8.3-3.7,8.3-8.3s-3.7-8.3-8.3-8.3s-8.3,3.7-8.3,8.3l0,0C160.9,93.9,164.6,97.6,169.2,97.6z"/>
						</defs>
						<clipPath id="SVGID_00000178194468608908660760000014327176518452303012_">
							<use xlink:href="#SVGID_1_"  style="overflow:visible;"/>
						</clipPath>
						<g style="clip-path:url(#SVGID_00000178194468608908660760000014327176518452303012_);">
							<g class="st4">
								<circle class="st5" cx="558.9" cy="148.7" r="3.4"/>
								<circle class="st5" cx="267" cy="122.5" r="1"/>
								<circle class="st5" cx="294.6" cy="64.8" r="1"/>
								<circle class="st5" cx="487.4" cy="122.9" r="1"/>
								<circle class="st6" cx="659.7" cy="151.6" r="1"/>
								<circle class="st7" cx="108.3" cy="191" r="1"/>
								<circle class="st5" cx="237.6" cy="273.9" r="3.4"/>
								<circle class="st7" cx="155.3" cy="153" r="2.4"/>
								<circle class="st5" cx="452.6" cy="153.3" r="2.4"/>
								<circle class="st5" cx="289.4" cy="191" r="1.7"/>
							</g>
							<path class="st8" d="M239.3,175.7h-31.4c-1.8,0-3.4,1-4.3,2.5l-15.7,27.2c-0.9,1.5-0.9,3.5,0,5l15.7,27.2
								c0.9,1.5,2.5,2.5,4.3,2.5h31.4c1.8,0,3.4-1,4.3-2.5l15.7-27.2c0.9-1.5,0.9-3.5,0-5l-15.7-27.2
								C242.7,176.6,241.1,175.7,239.3,175.7z"/>
							<path class="st8" d="M132.4,100.9h-34c-1.8,0-3.5,1-4.4,2.6l-17,29.4c-0.9,1.6-0.9,3.5,0,5.1l17,29.4
								c0.9,1.6,2.6,2.5,4.4,2.6h33.9c1.8,0,3.5-1,4.4-2.6l17-29.4c0.9-1.6,0.9-3.5,0-5.1l-17-29.4
								C135.9,101.9,134.2,100.9,132.4,100.9z"/>
							<path class="st8" d="M317.3,75.1h-11.9c-1,0-2,0.6-2.5,1.5l-6,10.3c-0.5,0.9-0.5,2,0,2.9l6,10.3c0.5,0.9,1.5,1.5,2.5,1.5
								h11.9c1,0,2-0.6,2.5-1.5l6-10.3c0.5-0.9,0.5-2,0-2.9l-6-10.3C319.3,75.7,318.3,75.1,317.3,75.1z"/>
							<path class="st8" d="M625.6,77h-9.7c-1.1,0-2.1,0.6-2.6,1.5l-4.8,8.4c-0.5,0.9-0.5,2.1,0,3l4.8,8.4c0.5,0.9,1.5,1.5,2.6,1.5
								h9.7c1.1,0,2.1-0.6,2.6-1.5l4.8-8.4c0.5-0.9,0.5-2.1,0-3l-4.8-8.4C627.6,77.6,626.6,77,625.6,77z"/>
							<path class="st8" d="M402.5,53.2h-4.8c-0.5,0-1,0.3-1.3,0.8l-2.4,4.2c-0.3,0.5-0.3,1,0,1.5l2.4,4.2c0.3,0.5,0.8,0.8,1.3,0.8
								h4.8c0.5,0,1-0.3,1.3-0.8l2.4-4.2c0.3-0.5,0.3-1,0-1.5l-2.4-4.2C403.5,53.5,403,53.2,402.5,53.2z"/>
							<path class="st8" d="M440.2,99.9h-3.9c-1.4,0-2.7,0.8-3.5,2l-1.9,3.4c-0.7,1.2-0.7,2.8,0,4l1.9,3.4c0.7,1.2,2,2,3.5,2h3.9
								c1.4,0,2.7-0.8,3.5-2l1.9-3.4c0.7-1.2,0.7-2.8,0-4l-1.9-3.4C443,100.7,441.7,99.9,440.2,99.9z"/>
							<polygon class="st8" points="149.7,198.1 136.6,198.1 130,209.5 136.6,220.9 149.7,220.9 156.2,209.5 							"/>
							<path class="st8" d="M429.3,164.9H350c-7.5,0-14.4,4-18.2,10.5l-39.7,68.7c-3.8,6.5-3.8,14.5,0,21l39.7,68.7
								c3.8,6.5,10.7,10.5,18.2,10.5h79.3c7.5,0,14.4-4,18.2-10.5l39.7-68.7c3.8-6.5,3.8-14.5,0-21l-39.7-68.7
								C443.7,168.9,436.8,164.9,429.3,164.9z"/>
							<g class="st9">
								<g class="st10">
									<polyline class="st11" points="231.3,124.1 244.7,124.1 251.4,112.5 244.7,100.9 231.3,100.9 224.6,112.5 									"/>
									<polygon class="st11" points="264.8,112.5 251.4,112.5 244.7,124.1 251.4,135.8 264.8,135.8 271.5,124.1 									"/>
									<polyline class="st11" points="285,124.1 271.6,124.1 264.9,135.8 271.6,147.4 285,147.4 291.7,135.8 									"/>
									<polyline class="st11" points="271.5,147.4 264.8,135.8 251.4,135.8 244.7,147.4 251.4,159 264.8,159 									"/>
									<polyline class="st11" points="224.6,135.8 231.3,147.4 244.7,147.4 251.4,135.8 244.7,124.1 231.3,124.1 									"/>
									<circle class="st12" cx="291.7" cy="135.8" r="1.7"/>
									<circle class="st12" cx="284.9" cy="124.1" r="1.7"/>
									<circle class="st12" cx="271.5" cy="124.1" r="1.7"/>
									<circle class="st12" cx="244.7" cy="124.1" r="1.7"/>
									<circle class="st12" cx="231.2" cy="124.1" r="1.7"/>
									<circle class="st12" cx="264.9" cy="112.5" r="1.7"/>
									<circle class="st12" cx="264.9" cy="135.8" r="1.7"/>
									<circle class="st12" cx="271.5" cy="147.4" r="1.7"/>
									<circle class="st12" cx="284.9" cy="147.4" r="1.7"/>
									<circle class="st12" cx="251.4" cy="112.5" r="1.7"/>
									<circle class="st12" cx="244.7" cy="100.9" r="1.7"/>
									<circle class="st12" cx="231.2" cy="100.9" r="1.7"/>
									<circle class="st12" cx="224.6" cy="112.5" r="1.7"/>
									<circle class="st12" cx="251.4" cy="135.8" r="1.7"/>
									<circle class="st12" cx="244.7" cy="147.4" r="1.7"/>
									<circle class="st12" cx="231.2" cy="147.4" r="1.7"/>
									<circle class="st12" cx="224.6" cy="135.8" r="1.7"/>
									<circle class="st12" cx="251.4" cy="159" r="1.7"/>
									<circle class="st12" cx="264.9" cy="159" r="1.7"/>
								</g>
								<g class="st13">
									<line class="st11" x1="164.9" y1="312.1" x2="153.9" y2="305.7"/>
									<polygon class="st11" points="153.9,293.1 153.9,305.7 164.9,312.1 175.9,305.7 175.9,293.1 164.9,286.7 									"/>
									<polyline class="st11" points="164.9,274 164.9,286.6 175.9,293 186.9,286.6 186.9,274 175.9,267.6 									"/>
									<polyline class="st11" points="186.9,286.7 175.9,293.1 175.9,305.7 186.9,312.1 197.9,305.7 197.9,293.1 									"/>
									<polyline class="st11" points="186.9,312.1 175.9,305.7 164.9,312.1 									"/>
									<circle class="st12" cx="175.9" cy="267.6" r="1.6"/>
									<circle class="st12" cx="164.9" cy="274.1" r="1.6"/>
									<circle class="st12" cx="164.9" cy="286.7" r="1.6"/>
									<circle class="st12" cx="164.9" cy="312.1" r="1.6"/>
									<circle class="st12" cx="153.9" cy="293" r="1.6"/>
									<circle class="st12" cx="175.9" cy="293" r="1.6"/>
									<circle class="st12" cx="186.9" cy="286.7" r="1.6"/>
									<circle class="st12" cx="186.9" cy="274.1" r="1.6"/>
									<circle class="st12" cx="153.9" cy="305.7" r="1.6"/>
									<circle class="st12" cx="175.9" cy="305.7" r="1.6"/>
									<circle class="st12" cx="186.9" cy="312.1" r="1.6"/>
									<circle class="st12" cx="197.9" cy="305.7" r="1.6"/>
									<circle class="st12" cx="197.9" cy="293" r="1.6"/>
								</g>
								<g class="st14">
									<polygon class="st11" points="484.9,187.8 484.9,204.3 499.2,212.6 513.6,204.3 513.6,187.8 499.2,179.5 									"/>
									<polygon class="st11" points="499.2,163 499.2,179.5 513.6,187.8 527.9,179.5 527.9,163 513.6,154.7 									"/>
									<polyline class="st11" points="527.9,212.6 542.2,204.3 542.2,187.8 527.9,179.5 513.6,187.8 513.6,204.3 									"/>
									<path class="st12" d="M513.6,152.6c1.2,0,2.1,0.9,2.1,2.1s-0.9,2.1-2.1,2.1s-2.1-0.9-2.1-2.1S512.4,152.6,513.6,152.6z"/>
									<path class="st12" d="M513.6,185.7c1.2,0,2.1,0.9,2.1,2.1s-0.9,2.1-2.1,2.1s-2.1-0.9-2.1-2.1S512.4,185.7,513.6,185.7z"/>
									<path class="st12" d="M513.6,202.3c1.2,0,2.1,0.9,2.1,2.1s-0.9,2.1-2.1,2.1s-2.1-0.9-2.1-2.1S512.4,202.3,513.6,202.3z"/>
									<circle class="st12" cx="499.2" cy="162.9" r="2.1"/>
									<circle class="st12" cx="527.9" cy="162.9" r="2.1"/>
									<circle class="st12" cx="499.2" cy="179.5" r="2.1"/>
									<circle class="st12" cx="484.9" cy="187.8" r="2.1"/>
									<circle class="st12" cx="484.9" cy="204.4" r="2.1"/>
									<circle class="st12" cx="499.2" cy="212.6" r="2.1"/>
									<circle class="st12" cx="527.9" cy="179.5" r="2.1"/>
									<circle class="st12" cx="542.2" cy="187.8" r="2.1"/>
									<circle class="st12" cx="542.2" cy="204.4" r="2.1"/>
									<circle class="st12" cx="527.9" cy="212.6" r="2.1"/>
								</g>
								<g class="st15">
									<polygon class="st11" points="374.4,64.8 374.4,53.6 364.7,48.1 355,53.6 355,64.8 364.7,70.4 									"/>
									<polygon class="st11" points="364.7,81.6 364.7,70.4 355,64.8 345.4,70.4 345.4,81.6 355,87.1 									"/>
									<polyline class="st11" points="345.4,48.1 335.7,53.6 335.7,64.8 345.4,70.4 355,64.8 355,53.6 									"/>
									<circle class="st12" cx="355" cy="87.1" r="1.4"/>
									<circle class="st12" cx="355" cy="64.8" r="1.4"/>
									<circle class="st12" cx="355" cy="53.6" r="1.4"/>
									<circle class="st12" cx="364.7" cy="81.6" r="1.4"/>
									<circle class="st12" cx="345.4" cy="81.6" r="1.4"/>
									<circle class="st12" cx="364.7" cy="70.4" r="1.4"/>
									<circle class="st12" cx="374.4" cy="64.8" r="1.4"/>
									<circle class="st12" cx="374.4" cy="53.6" r="1.4"/>
									<circle class="st12" cx="364.7" cy="48.1" r="1.4"/>
									<circle class="st12" cx="345.4" cy="70.4" r="1.4"/>
									<circle class="st12" cx="335.7" cy="64.8" r="1.4"/>
									<circle class="st12" cx="335.7" cy="53.6" r="1.4"/>
									<circle class="st12" cx="345.4" cy="48.1" r="1.4"/>
								</g>
							</g>
						</g>
					</g>
				</g>
			</g>
			<g>
				<g>
					<g>
						<defs>
							<rect id="SVGID_00000170991988550453924680000001167165167217360524_" x="258.1" y="97.4" width="155.8" height="283.3"/>
						</defs>
						<clipPath id="SVGID_00000067220206115371958950000002832415248395297198_">
							<use xlink:href="#SVGID_00000170991988550453924680000001167165167217360524_"  style="overflow:visible;"/>
						</clipPath>
						<g style="clip-path:url(#SVGID_00000067220206115371958950000002832415248395297198_);">
							<ellipse class="st17" cx="361" cy="604.8" rx="79" ry="21.3"/>
							<path class="st18" d="M364,565.7c0,0,0.1,35.3,0.8,38.2s52.8,6.1,51.3,0.3c-4.8-13.4-22.1-5.8-34.1-16.6l-0.3-21.2L364,565.7
								z"/>
							<g class="st19">
								<path class="st20" d="M381.9,585l-0.3-18.5l-17.6-0.8c0,0,0,11.2,0.2,21.4C370,587.8,376.5,586.4,381.9,585z"/>
							</g>
							<path class="st21" d="M416.1,604.2c-4.5-12.5-19.9-6.7-31.7-14.7c-6.6,1.8-13.6,1.7-20.2-0.2c0.1,7.1,0.3,13.4,0.6,14.5
								C365.5,606.8,417.5,610,416.1,604.2z"/>
							<g class="st4">
								<path class="st21" d="M413.2,599.5c-17.1,2.5-35.7,2.5-49-8.1c0.1,6.2,0.3,11.4,0.5,12.4c0.7,2.9,52.8,6.1,51.3,0.3
									C415.5,602.4,414.5,600.8,413.2,599.5z"/>
							</g>
							<path class="st18" d="M311.8,567.3c0,0,0.1,35.3,0.8,38.2s52.8,6.1,51.3,0.3c-4.8-13.4-22.1-5.8-34.1-16.6l-0.3-21.2
								L311.8,567.3z"/>
							<g class="st19">
								<path class="st20" d="M329.7,586.7l-0.3-18.5l-17.6-0.8c0,0,0,11.2,0.2,21.4C317.9,589.5,324.4,588.1,329.7,586.7z"/>
							</g>
							<path class="st21" d="M363.9,605.8c-4.5-12.5-19.9-6.7-31.7-14.7c-6.6,1.8-13.6,1.7-20.2-0.2c0.1,7.1,0.3,13.4,0.6,14.5
								C313.4,608.4,365.4,611.6,363.9,605.8z"/>
							<g class="st4">
								<path class="st21" d="M361,601.2c-17.1,2.5-35.7,2.5-49-8.1c0.1,6.2,0.3,11.4,0.6,12.4c0.7,2.9,52.8,6.1,51.3,0.3
									C363.3,604.1,362.4,602.5,361,601.2z"/>
							</g>
							<path class="st22" d="M386.9,583.6c0,0-14.9,7-28.4,0.4l-8.3-155.8l-14,155.4c0,0-15.7,9.1-27.9,1.7c0,0-5.4-101.7,1.9-161.1
								c4.2-34.8,10.2-69.4,18-103.7l0.9-93.7c0,0,37.8-6.1,45.8,4.2s13.1,33.5,14,40.3s-10.3,47-10.3,47S396.5,508,386.9,583.6z"/>
							<path class="st23" d="M388.8,271.4c-0.8-6.9-6-30-14-40.3s-45.8-4.2-45.8-4.2l-0.9,93.7c-7.8,34.2-13.8,68.8-18,103.7
								c-7.3,59.4-1.9,161.1-1.9,161.1c3.2,1.9,6.8,2.9,10.5,2.9c-1.7-10.1-2-20.4-1-30.6c0.6-7.5,1.5-15,2.5-22.5
								c-0.4,3.1,0.1-1.4,0.2-2.1c0.2-1.8,0.4-3.5,0.6-5.3c1.8-14.1,4-41,21.8-44.4c0.7-0.1,1.5-0.2,2.3-0.2l4.9-54.9l3.2,59.9
								c1.8,2.9,2,6.5,0.5,9.6l4.6,86.4c3.4,1.6,7.1,2.6,10.9,2.8c-3.8-23.6-6.6-47.5-2.6-71.2c1.5-9,3.6-19,9-26.6
								c0.3-0.4,0.6-0.9,1-1.3c2.7-5,6.6-8.9,12-10.6c-2.6-77.4-10.3-158.7-10.3-158.7S389.6,278.3,388.8,271.4z"/>
							<path class="st24" d="M314.9,355.7L329,226.9c0,0,37.8-6.1,45.8,4.2s13.1,33.5,14,40.3s-10.3,47-10.3,47s11.4,30.4,11.6,33.6
								C381,366.7,342.7,367.9,314.9,355.7z"/>
							<path class="st25" d="M386.6,286.1c-3,1-6.1,1.7-9.2,2c-4.1,1.1-8.4,1.1-12.5,0c-8.6-0.9-16.9-3.6-24.3-8
								c-6.4-3.7-11.8-8.8-15.8-14.9l-10,90.5c27.9,12.2,66.1,11,75.3-3.7c-0.3-3.2-11.6-33.6-11.6-33.6S383.5,300.1,386.6,286.1z"
								/>
							<path class="st25" d="M370,258.7l-0.6,3.2l-0.9,3.1c-0.5,1.9-1.4,4.3-2.3,6.8c-1.9,4.9-4.3,9.5-4.5,9.4s1.7-4.9,3.2-9.8
								c0.7-2.5,1.5-4.9,1.9-6.8l0.8-3.1l0.8-3.1c0.5-1.9,0.9-4.4,1.4-6.9c0.9-5,1.1-10.1,1.5-10.1s0.5,5.1,0,10.3
								C370.7,254.2,370.4,256.8,370,258.7z"/>
							<path class="st25" d="M343.7,252.9c1.7,2.1,3.5,4.1,4.7,5.8l2,2.7c0,0,0.7,1.1,1.8,2.8s2.5,4,3.9,6.2
								c2.7,4.6,5.1,9.4,4.8,9.5s-3.1-4.4-6-8.8c-1.5-2.2-3-4.4-4.2-6l-1.9-2.7l-1.9-2.7c-1.1-1.7-2.7-3.8-4.3-6
								c-3.2-4.3-6.8-8.3-6.6-8.5S340.2,248.8,343.7,252.9z"/>
							<path class="st26" d="M369.3,394.9c-0.6,0.5-1.3,0.9-2,1.2c-1.5,0.9-2.9,1.8-4.2,2.9c-1.3,1.1-2.6,2.2-3.8,3.5l-1.6,1.7
								c0,0-0.6,0.7-1.5,1.7s-2.1,2.5-3.1,4c-1,1.4-1.9,2.8-2.7,4.3c-0.3,0.7-0.7,1.4-1.2,2c0.2-0.8,0.4-1.5,0.8-2.2
								c0.7-1.6,1.5-3.1,2.4-4.6s1.9-2.9,3-4.2c0.9-1.1,1.5-1.8,1.5-1.8s0.7-0.7,1.7-1.7c1.3-1.2,2.6-2.3,4-3.3s2.9-1.9,4.5-2.7
								C367.8,395.3,368.5,395,369.3,394.9z"/>
							<path class="st26" d="M364.8,403.1c-0.9,1.1-2,2.1-3.1,3l-2,2.1l-0.7,0.7c-0.1,0.1-0.2,0.2-0.2,0.3l-3,3.1
								c-0.8,1.2-1.8,2.2-2.9,3.2c0.6-1.3,1.4-2.6,2.2-3.7c1.3-1.7,2.8-3.4,2.8-3.4c0.1-0.1,0.2-0.2,0.3-0.3l0.7-0.6l2.3-2
								C362.3,404.5,363.5,403.7,364.8,403.1z"/>
							<path class="st27" d="M379.1,230.3c0,0,12,12.4,19.8,38.2s11.1,43.5,9.4,50.9s-13.5,43.9-13.5,43.9s-9.9-13.1-11.9-14
								s-4-117.5-4-117.5"/>
							<path class="st28" d="M379.1,230.3c0,0,12,12.4,19.8,38.2s11.1,43.5,9.4,50.9s-13.5,43.9-13.5,43.9s-9.9-13.1-11.9-14
								s-4-117.5-4-117.5"/>
							<path class="st29" d="M396.8,313.5c-4.8-6.2-6.1-13.9-6.6-21.6s-0.8-15.4-1.6-23.2c-0.9-8.5-1.6-17.2-0.6-25.7
								c-2.5-4.5-5.5-8.8-8.9-12.7l-0.3,1.5c0,0,2,116.6,4,117.5s11.9,14,11.9,14s11.9-36.5,13.5-43.9v-0.1
								C403.8,319.2,399.5,317.1,396.8,313.5z"/>
							<polygon class="st30" points="337.3,205.8 338.5,226.7 360.7,253.7 362.8,230 358.9,205.8 							"/>
							<path class="st31" d="M355.7,224.6c2.1,0.2,4.1,0.2,6.2,0l-3-18.9h-21.6l0.8,13.5C343.8,221.8,349.4,224.2,355.7,224.6z"/>
							<path class="st17" d="M344.3,239.8c-1-2-2-4-2.8-6.1c-1.4-3.1-2.6-6.2-2.6-6.2l-0.7-2c-0.4-1.2-0.8-2.8-1.3-4.5
								c-0.6-2.2-0.9-4.4-0.9-6.7c0.2,0,0.7,3.3,1.6,6.5c0.5,1.6,1,3.2,1.5,4.3l0.7,1.9l2.3,6.3
								C343.1,235.5,343.8,237.6,344.3,239.8z"/>
							<path class="st28" d="M360.1,209.7c-0.1,1.3,7.9,7.3,9,8.5c7.9,8.1,13.3,17.1,15.8,28.1c4.5,19.7,5.2,39.5,6.7,59.5
								c1.7,22.4,3.5,37.2,5.6,55.8c2,18.2,4.4,36.5,7.1,54.6c1.1,7.9,2.8,15.8,3.5,23.6c0.2,2,2.4,15.6,0.9,17
								c-4.2,3.7-9.1,6.6-14.4,8.6c-16.9,5.9-24.4-1.8-24.4-1.8s0.7-211.2-1.4-221.8c-1.3-6.4-4.6-12.3-9.3-16.9L360.1,209.7z
								 M282.8,369.4c-8.9-16.9-21.4-61-20.1-66.9s7-33.5,27.3-59.3s33.4-20.3,33.4-20.3c5.9-16.5,15.2-14.8,15.2-14.8l-0.4,16
								c0,0,12.7,29.4,14.8,61.5s4.9,179.3,4.9,179.3c-32.4,13.1-66.3-1.9-65.4-7s7.6-95.1,7.6-95.1
								C289.9,366.2,282.8,369.4,282.8,369.4z M304.7,275.3c0,0-9.6,21.9-10.6,26s10,33.6,10,33.6L304.7,275.3z"/>
							<path class="st17" d="M310.7,352.2c-0.3,0.8-0.8,1.6-1.3,2.4c-1.1,1.7-2.3,3.2-3.7,4.6c-1.4,1.4-2.9,2.7-4.5,3.9
								c-0.6,0.5-1.2,0.9-1.6,1.1l-0.6,0.4c0,0-0.9,0.6-2.4,1.3c-1.8,0.9-3.6,1.7-5.5,2.4c-1.9,0.7-3.8,1.2-5.7,1.5
								c-0.9,0.2-1.8,0.3-2.7,0.3c0.8-0.3,1.7-0.6,2.6-0.7c1.9-0.5,3.7-1.1,5.5-1.9c1.8-0.7,3.5-1.6,5.2-2.5
								c1.4-0.8,2.3-1.4,2.3-1.4l0.6-0.4c0.4-0.3,1-0.6,1.6-1.1c1.6-1.1,3.1-2.3,4.5-3.6c1.4-1.3,2.7-2.8,3.9-4.3
								C309.5,353.6,310.1,352.9,310.7,352.2z"/>
							<path class="st25" d="M304.7,279c0.2-0.4,0.4-0.8,0.7-1.1l1.9-3c1.5-2.5,3.5-5.8,5.3-9.2s3.5-6.9,4.6-9.6s1.8-4.5,1.8-4.5
								s0.7-1.8,1.5-4.5c1.1-3.3,1.6-6.8,1.5-10.3c-0.1-1.8-0.5-3.7-1.4-5.3c-0.7-1.4-1.8-2.7-3.2-3.6c-0.3-0.2-0.6-0.4-0.9-0.6
								l-0.8-0.4l-0.7-0.4l-0.7-0.2c-0.4-0.1-0.8-0.3-1.2-0.5c0.4,0,0.9,0.1,1.3,0.3l0.7,0.2l0.8,0.3l0.9,0.4
								c0.3,0.1,0.6,0.4,0.9,0.5c0.7,0.4,1.3,0.9,1.9,1.5c0.6,0.7,1.2,1.4,1.6,2.2c0.9,1.7,1.5,3.6,1.6,5.6
								c0.2,3.6-0.3,7.2-1.3,10.7c-0.8,2.8-1.5,4.6-1.5,4.6s-0.7,1.8-1.9,4.5s-2.9,6.1-4.9,9.5s-4,6.7-5.6,9.1
								c-0.8,1.2-1.5,2.2-2,2.9C305.3,278.3,305,278.7,304.7,279z"/>
							<path class="st17" d="M311.5,349.7c-0.3-0.3-0.5-0.7-0.6-1.1l-1.5-2.9c-1.3-2.4-2.8-5.7-4.4-9s-3-6.7-4-9.2l-1.7-4.2
								c0,0-0.1-0.4-0.4-1.2l-1-3.1c-0.9-2.6-1.8-6.1-2.6-9.7c-0.4-1.8-0.6-3.6-1-5.3c-0.1-0.8-0.3-1.6-0.4-2.4l-0.2-2.2
								c-0.1-1.4-0.2-2.5-0.2-3.3c0-0.4,0-0.8,0-1.2c0.1,0.4,0.2,0.8,0.2,1.2l0.4,3.3l0.3,2.2c0.1,0.8,0.3,1.6,0.5,2.4
								c0.4,1.7,0.7,3.4,1.1,5.2c1,3.5,1.9,7,2.9,9.5l1.1,3.1c0.2,0.8,0.4,1.2,0.4,1.2l1.6,4.3c0.9,2.6,2.4,5.9,3.7,9.3
								s2.9,6.7,4.1,9.1l1.4,3C311.2,348.9,311.4,349.3,311.5,349.7z"/>
							<path class="st25" d="M337.9,261.1c-0.3,0.3-0.6,0.6-0.9,0.9l-0.5,0.5l-0.7,0.5c-0.5,0.4-1.1,0.7-1.7,1l-1,0.5
								c-0.4,0.1-0.7,0.3-1.1,0.4l-0.7,0.2l-0.2,0.1c-0.1,0-0.2,0.1-0.2,0l-0.1-0.5l-0.4-1.3c-0.5-1.7-1.1-3.5-1.6-5.2
								c-1.1-3.6-2-7.2-2.6-10s-1-4.6-1-4.6s-0.4-1.8-0.7-4.6c-0.5-3.4-0.7-6.8-0.7-10.3c-0.1-3.5,0.5-6.9,1.5-10.2
								c0.4-1.1,0.9-2.1,1.5-3.1c0.2-0.4,0.5-0.7,0.8-1c-0.8,1.3-1.4,2.7-1.9,4.2c-0.9,3.3-1.3,6.6-1.1,10c0.1,3.4,0.4,6.8,1,10.1
								c0.4,2.8,0.8,4.6,0.8,4.6s0.3,1.8,0.9,4.6s1.4,6.4,2.4,10c0.5,1.8,1,3.6,1.5,5.3l0.3,1.1v0.1c0,0.1,0.1,0,0.1,0l0.4-0.1
								c0.4-0.1,0.8-0.2,1.1-0.3l1-0.4C335.4,262.9,336.7,262.1,337.9,261.1z"/>
							<path class="st25" d="M352.1,343c-0.2-0.6-0.4-1.2-0.5-1.8c-0.3-1.1-0.6-2.8-1.1-4.7c-1-3.9-2.5-9-4.2-14l-4.8-13.8l-2.1-6.3
								c0,0-0.2-0.6-0.6-1.7s-1-2.6-1.8-4.4s-1.7-4-2.6-6.3c-1-2.4-1.7-5-2.2-7.6c-0.1-0.7-0.2-1.3-0.2-2c0.1-0.8,0.3-1.4,0.4-2
								c0.3-1.2,0.8-2.5,1.3-3.7c1-2.3,2.1-4.4,2.9-6.2s1.5-3.3,1.9-4.4c0.2-0.6,0.4-1.2,0.6-1.7c-0.1,0.6-0.2,1.2-0.4,1.8
								c-0.5,1.5-1.1,3-1.7,4.5c-0.8,1.8-1.8,3.9-2.7,6.2c-0.5,1.2-0.9,2.4-1.2,3.6c-0.1,0.6-0.3,1.3-0.3,1.9s0.1,1.3,0.2,1.9
								c0.5,2.5,1.3,5,2.3,7.4c0.9,2.3,1.9,4.4,2.7,6.2s1.5,3.4,1.9,4.5s0.6,1.7,0.6,1.7l6.6,20.2c1.6,5.1,3,10.2,3.9,14.1
								c0.5,1.9,0.7,3.6,0.9,4.8C352,341.8,352.1,342.4,352.1,343z"/>
							<path class="st25" d="M382.2,258c-0.2-1.3-0.4-2.6-0.4-3.9c-0.1-1.2-0.2-2.5-0.4-4s-0.3-3-0.5-4.6l-0.3-2.3l-0.4-2.2
								c-0.2-1.5-0.5-2.8-0.7-3.9s-0.5-2.1-0.7-2.7l-0.3-1c0,0-0.1-0.4-0.3-1c-0.3-0.9-0.6-1.8-0.9-2.6c-1-2.6-2.4-5.1-4.2-7.3
								c-1.9-2.4-4.1-4.7-5.6-6.4c-0.8-0.9-1.4-1.6-1.9-2.1c-0.3-0.3-0.5-0.5-0.7-0.9c1,0.8,2,1.7,2.9,2.6c2.1,2,4.1,4,6,6.2
								s3.4,4.7,4.5,7.4c0.4,0.9,0.7,1.8,1,2.7c0.2,0.6,0.4,1,0.4,1l0.3,1.1c0.1,0.7,0.4,1.6,0.6,2.8s0.5,2.5,0.6,4
								c0.1,0.7,0.2,1.5,0.3,2.2s0.1,1.5,0.2,2.3c0.2,1.6,0.2,3.1,0.3,4.6s0.1,2.8,0.2,4C382.4,255.4,382.3,256.7,382.2,258z"/>
							<path class="st25" d="M384.7,274.7c-0.2,0-1.1-2.3-2.4-4.5l-1.8-3.1l-0.8-1.4c0,0-0.3-0.6-0.7-1.5c-0.2-0.5-0.4-1-0.6-1.6
								s-0.4-1.2-0.6-1.8l-0.3-1.1l-0.2-0.7c0.2,0,0.5,0,0.7,0h1h0.8c0.5,0,1.1,0.1,1.6,0.2c-0.5,0.2-1.1,0.2-1.6,0.2H379
								c-0.3,0-0.6,0-0.7,0h-0.2l0.1,0.2c0,0,0.2,0.5,0.2,0.7c0.6,1.6,1.3,3.1,2.1,4.6l0.7,1.4c0.4,0.9,1,2,1.5,3.2
								C383.8,271.2,384.4,272.9,384.7,274.7z"/>
							<path class="st25" d="M371.2,340.5c0-0.5,0.1-1,0.3-1.4l0.9-3.7c0.9-3,1.6-7.1,2.5-11.2c0.7-4.1,1.4-8.2,1.8-11.4
								s0.7-5.2,0.7-5.2l2.4-16.5c0.7-4.1,1.3-8.3,2-11.3l0.8-3.7c0.1-0.5,0.2-0.9,0.4-1.4c0,0.5,0,1-0.1,1.4
								c-0.1,0.9-0.3,2.2-0.5,3.8c-0.5,3.1-1,7.2-1.6,11.4c-1,8.3-2.1,16.6-2.1,16.6l-0.9,5.2c-0.5,3.1-1.3,7.2-2.1,11.4
								c-1,4.1-1.8,8.2-2.9,11.2l-1.1,3.6C371.5,339.6,371.4,340.1,371.2,340.5z"/>
							<path class="st17" d="M353.9,456.2c-0.4,0.2-0.8,0.3-1.2,0.5c-0.8,0.2-1.9,0.6-3.3,1c-2.7,0.8-6.4,1.7-10.1,2.4
								c-3.4,0.6-6.9,1.1-10.4,1.4c-1.4,0.2-2.6,0.2-3.4,0.2l-1.3,0.1h-1.3c-0.8,0-2,0-3.4-0.1c-3.5-0.2-6.9-0.7-10.4-1.4
								c-3.4-0.8-6.7-1.8-9.9-3.1c-1.3-0.5-2.4-1.1-3.1-1.4c-0.4-0.2-0.8-0.4-1.1-0.6c0-0.1,1.8,0.7,4.4,1.7
								c3.2,1.2,6.6,2.1,9.9,2.8c3.4,0.6,6.8,1,10.2,1.1c1.4,0.1,2.6,0,3.4,0h1.3h1.3c0.8,0,2,0,3.4-0.1c2.8-0.2,6.6-0.6,10.3-1.2
								s7.4-1.4,10.2-2l3.3-0.8C353.1,456.3,353.5,456.2,353.9,456.2z"/>
							<path class="st17" d="M408.1,448.8c-0.6,0.9-1.3,1.6-2.1,2.4c-1.7,1.6-3.5,3-5.5,4.2s-4.1,2.3-6.3,3.1
								c-0.9,0.4-1.6,0.6-2.2,0.8l-0.8,0.3l-0.8,0.2l-2.2,0.5c-2.3,0.4-4.6,0.7-6.9,0.8s-4.6-0.1-6.9-0.4c-0.8-0.1-1.5-0.3-2.2-0.5
								c-0.3,0-0.6-0.1-0.8-0.3c1,0,2.1,0.1,3.1,0.3c2.3,0.2,4.6,0.2,6.8,0.1c2.3-0.2,4.5-0.5,6.7-1l2.2-0.5l0.8-0.2l0.8-0.2
								c0.5-0.1,1.3-0.4,2.1-0.7c4.3-1.5,8.3-3.8,11.9-6.7C406.4,450.1,407.2,449.4,408.1,448.8z"/>
							<path class="st17" d="M307.2,346.7c-0.3,0.8-0.7,1.5-1.2,2.1c-1,1.5-2.2,2.8-3.6,4.1c-1.3,1.2-2.8,2.3-4.3,3.3
								c-0.6,0.4-1.2,0.7-1.5,0.9l-0.6,0.3c0,0-0.9,0.5-2.2,1.1s-3.1,1.3-5,2s-3.7,1.2-5.1,1.6c-0.8,0.3-1.6,0.5-2.4,0.6
								c-0.1-0.2,3.6-1.5,7.2-3c1.8-0.7,3.5-1.5,4.8-2.2s2.1-1.1,2.1-1.1l0.6-0.3c0.4-0.2,0.9-0.5,1.5-0.9c1.5-0.9,3-1.9,4.3-3
								c1.4-1.1,2.6-2.4,3.7-3.7C306.1,347.9,306.6,347.2,307.2,346.7z"/>
							<path class="st25" d="M318.5,357.1c0,0.8-0.2,1.7-0.4,2.5c-0.5,1.8-1.1,3.5-1.8,5.2c-0.7,1.7-1.6,3.3-2.5,4.9
								c-0.8,1.3-1.4,2.1-1.4,2.1s-0.6,0.8-1.6,2c-1.2,1.4-2.6,2.7-4,3.8c-1.4,1.2-3,2.1-4.8,2.8c-0.6,0.2-1.1,0.4-1.7,0.5
								c-0.4,0.1-0.7,0.1-0.7,0.1c0.7-0.4,1.5-0.7,2.2-1c1.6-0.8,3.1-1.8,4.4-3s2.6-2.5,3.7-3.9c0.9-1.1,1.5-1.9,1.5-1.9
								s0.6-0.8,1.4-2c2-3,3.6-6.2,4.8-9.6C317.8,358.6,318.1,357.9,318.5,357.1z"/>
							<path class="st25" d="M322.1,363.3c-0.1,0.8-0.3,1.6-0.6,2.3c-0.2,0.7-0.4,1.5-0.7,2.3l-1,2.6c-0.4,0.9-0.8,1.7-1.2,2.5
								c-0.4,0.7-0.8,1.4-1.2,2.1l-1.4,2l-0.1,0.1c-0.1,0.1-0.2,0.3-0.3,0.4l-1.2,1.3c-1.2,1.3-2.4,2.5-3.8,3.6
								c-1.5,1.2-3,2.3-4.1,3.1c-0.6,0.5-1.3,0.9-2,1.2c-0.1-0.1,2.9-2.4,5.6-4.9c1.2-1.2,2.4-2.4,3.5-3.7l1.1-1.3
								c0.1-0.1,0.2-0.2,0.3-0.4l0.1-0.1l1.4-1.9c0.5-0.6,0.9-1.3,1.3-2c0.5-0.8,0.9-1.6,1.3-2.4l1.2-2.5c0.4-0.8,0.6-1.6,0.9-2.2
								C321.4,364.7,321.7,363.9,322.1,363.3z"/>
							<path class="st32" d="M405.7,425.1c-2,12.9-6,24.9-14.2,24.7c-17.6-0.4-15.2-101.7-13.5-113.6s9.4-59.1,9.4-59.1l-4.1-11.9
								l1.6-3.7l-4.6-20.5l1.3,18.2l-4,0.4l7,15l-12.8,57.8c0,0,1.2-25,2-32.4s-0.8-48-1.2-55.8s-4.5-13.1-7.8-20.1
								c-1.4-2.9-0.5-6,1.1-8.7c-2.6-2.2-5.8-4.9-5.8-5.8l-0.8,15.2c4.7,4.6,7.9,10.5,9.3,16.9c2.1,10.6,1.4,221.8,1.4,221.8
								s7.5,7.8,24.4,1.8c5.3-2,10.1-4.9,14.4-8.6c1.5-1.4-0.7-14.9-0.9-17C407.3,434.9,406.5,430,405.7,425.1z"/>
							<path class="st32" d="M329.1,314.5c8.6,0.8,15.6,23.8,21.7,39.8c1.7,4.3,3.5,15.3,5.2,29c-0.9-39.7-2.1-82-3.1-97.5
								c-2.1-32.1-14.8-61.5-14.8-61.5l0.4-16c-1.1-0.1-2.2,0-3.3,0.3c-0.1,0.9-0.3,1.7-0.4,2.5c-0.8,4.9,6.6,20.9,9.4,31.2
								s10.3,69.3,6.6,72.2s-18.1-34.1-18.1-34.1l9.5-22.5l-6.6,0.8c0,0-4.1-5.7-6.6-25.4c-1-6.7-1-13.6-0.2-20.3
								c-2.4,3-4.3,6.4-5.5,10c0,0-6.3-2.6-16.8,4.2c2.3,3.2,4,6.7,4.9,10.5c3.7,14-20.9,52.5-36.5,57.4c-5.2,1.6-8-0.4-9.5-3.9
								c-1.6,5.4-2.4,9.4-2.8,11.2c-1.3,5.9,11.2,50,20.1,66.9c0,0,7.1-3.2,17.2-6.6c0,0-6.7,90.1-7.6,95.2c-0.9,5.1,33,20.1,65.4,7
								c0,0-0.5-27.1-1.3-60.5c-7.8,54.8-34.9,55.6-45.5,40.4S320.5,313.6,329.1,314.5z M304.1,335c0,0-10.9-29.5-10-33.6
								s10.6-26,10.6-26L304.1,335z"/>
							<path class="st33" d="M295.2,363.6c0,0,7.7,9.2,12.2,12c0,0,7.4-5.3,9.9-13.1L309,354C309,354,301.3,362.4,295.2,363.6z"/>
							<path class="st30" d="M313.2,358.4L309,354c0,0-7.7,8.3-13.8,9.5c0,0,2.9,3.5,6.1,6.8C305.4,366.5,309.5,362.5,313.2,358.4z"
								/>
						</g>
					</g>
				</g>
			</g>
			<g id="_Group_">
				<g id="_Group_2">
					
						<ellipse id="_Path_" transform="matrix(0.9366 -0.3505 0.3505 0.9366 -39.6789 148.1703)" class="st30" cx="389.5" cy="183.7" rx="14" ry="9.4"/>
					<path id="_Path_2" class="st34" d="M391.2,143.8c0,0,24.6,5.6,0,19.4c0,0,1.6,7.1-3.3,19.5l-16.8-38.9L391.2,143.8L391.2,143.8
						z"/>
					<g id="_Group_3">
						<path id="_Path_3" class="st33" d="M311.6,179.3c4.2,27.4,29.1,47.3,50.4,44.1c21-3.2,27.8-27.6,26.6-55c0-0.3,0-0.6,0-0.9
							c-0.7-13.1-3.9-22.8-8.7-29.7c-9-13-23.5-16.1-37.4-14c-7.1,1.2-13.7,4.7-18.6,10c-1.4,1.4-2.7,3-3.8,4.6
							C312.7,148.8,309.2,163.6,311.6,179.3z"/>
						<path id="_Path_4" class="st30" d="M316.9,182.7c0,0,6-8,6.5-24.7c0,0,33.2,2.3,21.4-7.1c0.9,0.3,21,7.3,38.6,0.6
							c2.4,5.4,4.1,11,5.1,16.9c0-0.3,0-0.6,0-0.9c-0.7-13.1-3.9-22.8-8.7-29.7c-12.4-7.2-45.1-11.2-56-4c-0.9,0.6-1.7,1.3-2.3,2.1
							c-0.6,0.8-1.1,1.6-1.5,2.5C314,151.3,316.9,182.7,316.9,182.7z"/>
					</g>
					<g id="_Group_4">
						<path id="_Path_5" class="st34" d="M307.1,183.7l11.3,2.1c0,0,4.8-10.9,2.2-31.1c0,0,33.6,0.2,16.8-8.3
							c1.2,0.4,31.5,9.3,56.9-1.8c1.7-0.8,3.4-1.7,4.9-2.7c12.9-9,18.9-27.9-31-23.9c0,0,16.9-9.8,2.9-10.7
							c-13.4-0.8-56,5.2-65.5,21.6c-1.6,2.8-2.2,6-1.7,9.2C304,138.1,285.2,145.8,307.1,183.7z"/>
						<path id="_Path_6" class="st35" d="M305.6,128.9c4-2.7,15.5-9.9,29-11.9c16.9-2.5,31-4.7,25.2,3.2c0,0,57.7-3.4,39.4,21.6
							c12.9-9,18.9-27.9-31-23.9c0,0,16.9-9.8,2.9-10.7C357.7,106.4,315.1,112.4,305.6,128.9z"/>
					</g>
					
						<ellipse id="_Path_7" transform="matrix(0.2238 -0.9746 0.9746 0.2238 60.2873 449.8342)" class="st33" cx="312.6" cy="187.1" rx="9.4" ry="13.9"/>
				</g>
				<g id="_Group_5">
					<path id="_Path_8" class="st34" d="M310.9,171.7l10.1,2c0,0-0.7,16.6,7.9,27c5.1,6.2,8.5,5.5,8.5,5.5s2.1-12.6,6.1-14.5
						s29.8-1.7,32,2.9c2.2,4.5,1.8,12,1.8,12s12.1-5,11.4-32.2l2.1-0.7c0,0,2.3,44.6-11.1,51.8c0,0,5.8,3.7,1.2,6.4
						s-12.6-1.9-12.6-1.9s6.2,13.5-15-0.3c0,0,3.6,8.1-6.8,4.5s-24.7-19.7-28.7-30.4S310.9,171.7,310.9,171.7z"/>
				</g>
			</g>
			
				<radialGradient id="SVGID_00000010310949552504371620000009968155452268363951_" cx="1922.1067" cy="-426.3562" r="11.13" gradientTransform="matrix(-0.97 -8.000000e-02 8.000000e-02 -1 2250.0298 -104.01)" gradientUnits="userSpaceOnUse">
				<stop  offset="0" style="stop-color:#E98C4D"/>
				<stop  offset="0.84" style="stop-color:#E98C4D;stop-opacity:0"/>
			</radialGradient>
			<path style="opacity:0.4;fill:url(#SVGID_00000010310949552504371620000009968155452268363951_);enable-background:new    ;" d="
				M366.8,150.5c0,0,7.5,2.6,0.6,11.6c-5.6,7.2-8.8,5.9-11.4,5.5c-4.6-0.7-11.5-4.8-11-11.2S357.2,149.7,366.8,150.5z"/>
			<g id="_Group_6">
				<g id="_Group_7">
					<path id="_Path_9" class="st37" d="M345.1,181.4c0,0,4.4-14.6-4.3-17.6s-15.4,7.6-14.6,10.7S331.4,186.3,345.1,181.4z"/>
					<path id="_Path_10" class="st27" d="M344.6,183c1.5-1.7,2.2-4.4,1.8-7.9s-2-6.7-5.5-7.9c-8.7-3-15.1,6.6-14.4,9.7
						c1.2,4.3,4.8,7.5,9.1,8.2C339.7,185.8,342.8,185,344.6,183z"/>
					<g id="_Group_8">
						<path id="_Path_11" class="st38" d="M345.8,178.6c-1.6,3.6-5.8,5.3-9.5,3.7c-0.1,0-0.1-0.1-0.2-0.1c-3.7-1.8-5.3-6.1-3.7-9.9
							c1.6-3.6,5.8-5.3,9.5-3.7c0.1,0,0.1,0.1,0.2,0.1C345.8,170.4,347.4,174.8,345.8,178.6z"/>
						<path id="_Path_12" class="st35" d="M343.4,177.4c-1,2.3-3.7,3.4-6,2.3c-0.1,0-0.1,0-0.1-0.1c-2.4-1.1-3.4-3.9-2.3-6.3
							c1-2.3,3.7-3.4,6-2.4c0.1,0,0.1,0,0.2,0.1C343.4,172.2,344.5,175,343.4,177.4z"/>
					</g>
					<path id="_Path_13" class="st39" d="M340.9,167.2c-8.7-3-15.1,6.6-14.4,9.7c0.9,3.4,3.4,6.2,6.6,7.5c-2.5-2.1-7.4-7.1-3-11.2
						c5.7-5.4,12.3-4.7,14.8,0.4c0.7,1.6,1.2,3.2,1.5,4.9C346.7,174.3,346,168.9,340.9,167.2z"/>
					<g id="_Group_9">
						<path id="_Path_14" class="st35" d="M346.7,177.1c0-0.7-0.2-1.5-0.3-2.2c-0.2-0.8-0.4-1.6-0.7-2.3c-0.4-0.9-0.9-1.7-1.5-2.4
							c-0.2-0.2-0.4-0.3-0.5-0.5l-0.3-0.3l-0.3-0.2l-0.6-0.4l-0.7-0.3l-0.4-0.2l-0.4-0.1l-0.8-0.2c-0.5-0.1-1.1-0.1-1.7-0.2
							l-1.8,0.1l-1,0.2l-0.9,0.2c-1.2,0.3-2.4,0.8-3.5,1.6c-1.1,0.7-2,1.6-2.8,2.7c-0.3,0.5-0.6,1.1-0.8,1.8
							c-0.2,0.6-0.3,1.2-0.3,1.9c0,1.2,0.4,2.4,1,3.4c0.6,0.9,1.3,1.8,2.1,2.5c0.7,0.6,1.4,1.2,2.2,1.7l1,0.6l0.9,0.5
							c0.5,0.3,0.9,0.5,1.2,0.7l0.4,0.2l-0.5-0.1c-0.4-0.1-0.9-0.2-1.3-0.3l-0.9-0.3c-0.3-0.1-0.7-0.3-1.1-0.4s-0.8-0.4-1.2-0.6
							s-0.9-0.5-1.3-0.8c-1-0.7-1.9-1.5-2.6-2.5c-1-1.3-1.5-2.9-1.6-4.5c0-0.9,0.1-1.9,0.3-2.8c0.2-0.9,0.6-1.8,1.1-2.6
							c0.9-1.4,2.1-2.6,3.5-3.6c1.3-0.8,2.6-1.4,4.1-1.7l1.1-0.2l1-0.1c0.7,0,1.4,0,2,0c0.6,0.1,1.3,0.2,1.9,0.3l0.9,0.3l0.4,0.2
							l0.4,0.2l0.8,0.5c0.2,0.2,0.5,0.4,0.7,0.6l0.3,0.3l0.3,0.4c0.2,0.2,0.4,0.5,0.6,0.7c0.6,1,1.1,2,1.3,3.1
							c0.2,0.9,0.3,1.7,0.4,2.6c0,0.6,0,1.1,0,1.7C346.7,176.9,346.7,177.1,346.7,177.1z"/>
					</g>
				</g>
			</g>
			
				<ellipse transform="matrix(1 -1.396260e-03 1.396260e-03 1 -0.2506 0.4797)" class="st40" cx="343.4" cy="179.7" rx="2.9" ry="3"/>
			
				<ellipse transform="matrix(1 -1.396261e-03 1.396261e-03 1 -0.2404 0.4683)" class="st40" cx="335.3" cy="172.4" rx="1.8" ry="1.8"/>
			<g id="_Group_10">
				<g id="_Group_11">
					<path id="_Path_15" class="st37" d="M370.5,181.3c0,0-4.5-14.6,4.2-17.6s15.5,7.5,14.7,10.6S384.2,186.2,370.5,181.3z"/>
					<path id="_Path_16" class="st27" d="M371,183c-1.5-1.7-2.2-4.4-1.8-7.9s2-6.8,5.4-7.9c8.7-3,15.1,6.6,14.4,9.7
						c-1.2,4.3-4.7,7.5-9.1,8.3C375.9,185.8,372.8,185,371,183z"/>
					<g id="_Group_12">
						<path id="_Path_17" class="st38" d="M369.8,178.5c1.6,3.6,5.9,5.3,9.5,3.6c0.1,0,0.1-0.1,0.2-0.1c3.7-1.8,5.3-6.2,3.7-9.9
							c-1.6-3.6-5.9-5.3-9.5-3.6c-0.1,0-0.1,0.1-0.2,0.1C369.8,170.4,368.1,174.8,369.8,178.5z"/>
						<path id="_Path_18" class="st35" d="M372,177.4c1,2.3,3.8,3.4,6.1,2.3c0,0,0.1,0,0.1-0.1c2.4-1.1,3.4-3.9,2.4-6.3
							c-1-2.3-3.7-3.4-6.1-2.3c0,0-0.1,0-0.1,0.1C372,172.2,370.9,175,372,177.4z"/>
					</g>
					<path id="_Path_19" class="st39" d="M374.6,167.1c8.7-3,15.1,6.6,14.4,9.7c-0.9,3.4-3.3,6.2-6.6,7.6c2.5-2.1,7.3-7.1,3-11.2
						c-5.7-5.4-12.3-4.7-14.8,0.4c-0.7,1.6-1.2,3.2-1.5,4.9C368.9,174.3,369.6,168.9,374.6,167.1z"/>
					<g id="_Group_13">
						<path id="_Path_20" class="st35" d="M368.9,177c0-0.7,0.1-1.5,0.3-2.2c0.2-0.8,0.4-1.6,0.7-2.3c0.4-0.9,0.9-1.7,1.5-2.4
							c0.2-0.2,0.4-0.3,0.5-0.5l0.3-0.3l0.3-0.2l0.6-0.4l0.7-0.3l0.4-0.2l0.4-0.1l0.8-0.2c0.5-0.1,1.1-0.1,1.7-0.2l1.8,0.1l1,0.2
							l0.9,0.2c1.2,0.3,2.4,0.8,3.5,1.5s2.1,1.6,2.8,2.7c0.3,0.5,0.6,1.1,0.8,1.8c0.2,0.6,0.3,1.2,0.3,1.9c0,1.2-0.4,2.4-1,3.4
							c-0.6,0.9-1.3,1.8-2.1,2.5c-0.7,0.6-1.4,1.2-2.2,1.7l-1,0.6l-0.9,0.5c-0.5,0.3-0.9,0.5-1.2,0.7l-0.4,0.2l0.5-0.1
							c0.4-0.1,0.9-0.2,1.3-0.3l0.9-0.3c0.3-0.1,0.7-0.3,1.1-0.4s0.8-0.4,1.2-0.6s0.9-0.5,1.3-0.8c1-0.7,1.9-1.5,2.6-2.6
							c1-1.3,1.5-2.9,1.6-4.5c0-0.9-0.1-1.9-0.3-2.8c-0.2-0.9-0.6-1.7-1.1-2.5c-0.9-1.4-2.1-2.6-3.5-3.6c-1.3-0.8-2.6-1.4-4.1-1.7
							l-1.1-0.2l-1-0.1c-0.7,0-1.4,0-2,0c-0.6,0.1-1.3,0.2-1.9,0.4l-0.9,0.3l-0.4,0.2l-0.4,0.2l-0.8,0.5c-0.2,0.2-0.5,0.4-0.7,0.6
							l-0.3,0.3l-0.3,0.4c-0.2,0.2-0.4,0.5-0.6,0.7c-0.6,1-1.1,2-1.3,3.1c-0.2,0.9-0.3,1.7-0.4,2.6c0,0.6,0,1.1,0,1.7
							C368.9,176.9,368.9,177,368.9,177z"/>
					</g>
				</g>
			</g>
			<ellipse class="st40" cx="381" cy="179.6" rx="2.9" ry="3"/>
			
				<ellipse transform="matrix(1 -1.396276e-03 1.396276e-03 1 -0.2419 0.5204)" class="st40" cx="372.6" cy="173.5" rx="1.8" ry="1.8"/>
			<path class="st41" d="M364.4,186.1c-1.8,1.4-4.1,2.2-6.4,2.3c-2.3,0.3-4.6-0.6-6.1-2.3c0,0-1.6,1.6-0.6,3.1
				c1.6,1.8,3.7,3.3,6,4.1C358.3,193.5,366.8,189.9,364.4,186.1z"/>
			
				<ellipse transform="matrix(1 -1.396260e-03 1.396260e-03 1 -0.2606 0.4988)" class="st42" cx="357.1" cy="186.9" rx="2" ry="0.9"/>
			<path class="st30" d="M360.5,188.6c0.3-0.2,0.7-0.2,1.1-0.2c0.6,0,1,0.3,1,0.5s-0.5,0.3-0.8,0.5c-0.2,0.1-0.5,0.3-0.6,0.5
				c-0.2,0.1-0.5,0.2-0.7,0.4c-0.4,0.2-0.6,0.6-0.8,0.6s-0.1-0.7,0.2-1.2C360,189.1,360.2,188.8,360.5,188.6z"/>
			<path class="st30" d="M352.3,188.3c0-0.2,0.5-0.3,0.9-0.2c0.3,0.1,0.6,0.2,0.9,0.3c0.2,0.2,0.4,0.5,0.6,0.8
				c0.2,0.4,0.4,1,0.2,1.1s-0.5-0.2-0.8-0.4c-0.2-0.1-0.4-0.3-0.7-0.4c-0.2-0.2-0.3-0.4-0.5-0.5
				C352.7,188.7,352.3,188.5,352.3,188.3z"/>
			<path class="st30" d="M362.4,189.2l0.9-0.9c0.1-0.1,0.2-0.2,0.3-0.4c0.1-0.1,0.1-0.2,0.2-0.3c0.1-0.3,0-0.7-0.1-1
				c-0.3-0.8-1.2-1.4-1.1-1.6s0.3,0,0.6,0.1c0.5,0.2,0.8,0.5,1.1,0.9c0.4,0.5,0.5,1.1,0.5,1.7c0,0.3-0.1,0.6-0.3,0.9
				c-0.2,0.2-0.3,0.4-0.5,0.5c-0.3,0.2-0.7,0.5-1.1,0.7c-0.8,0.5-1.6,1-1.7,0.8S361.7,189.9,362.4,189.2z"/>
			<path class="st30" d="M350.5,187.9c0,0,0-0.1,0.1-0.6c0.1-0.2,0.2-0.4,0.3-0.6c0.1-0.2,0.2-0.4,0.4-0.5c0.5-0.7,1.1-1.3,1.2-1.1
				s-0.2,0.9-0.5,1.6l-0.2,0.6c-0.1,0.1-0.1,0.3-0.1,0.4v0.5c0,0.1,0,0.1,0,0.2c0.1,0.3,0.2,0.5,0.4,0.6c0.5,0.5,1.2,1.1,1.1,1.3
				s-0.8-0.1-1.5-0.5c-0.4-0.2-0.8-0.6-1-1C350.6,188.5,350.5,188.2,350.5,187.9z"/>
			<path class="st30" d="M353.7,185.6c0-0.2,0.8-0.7,1.8-1c1.2-0.5,2.6-0.5,3.9,0.1c0.9,0.3,1.8,0.8,1.7,1s-1,0-1.9-0.1
				c-1.2,0-2.4,0-3.6,0C354.7,185.6,353.8,185.8,353.7,185.6z"/>
			<path class="st43" d="M340.5,164c0,0.1,0.9,0.5,1.7,1.1c1,0.8,2,1.8,2.8,2.8c0.6,0.8,1,1.7,1.1,1.7c-0.1-0.7-0.4-1.3-0.7-1.9
				c-0.7-1.2-1.7-2.2-2.9-2.9C341.9,164.4,341.2,164.1,340.5,164z"/>
			<path class="st43" d="M342,163.2c0,0.1,0.8,0.5,1.4,1.1c0.9,0.8,1.6,1.8,2.2,2.8c0.5,0.8,0.7,1.6,0.8,1.6c0-0.6-0.2-1.2-0.4-1.8
				c-0.5-1.2-1.3-2.2-2.3-2.9C343.2,163.6,342.6,163.3,342,163.2z"/>
			<path class="st43" d="M368.9,171c0.1,0,0.4-1,0.9-2c0.7-1.3,1.4-2.5,2.3-3.7c0.7-0.9,1.5-1.6,1.5-1.7c-0.7,0.4-1.3,0.8-1.8,1.4
				c-1.1,1.1-1.9,2.4-2.4,3.8C369.1,169.5,368.9,170.3,368.9,171z"/>
			<path class="st43" d="M369.3,167.2c0.1,0,0.3-0.4,0.6-0.9s0.6-0.9,0.6-0.9s0.3-0.4,0.6-0.9s0.6-0.9,0.6-0.9s-0.5,0.3-0.9,0.6
				c-0.6,0.5-1,1.1-1.2,1.8C369.4,166.4,369.3,166.8,369.3,167.2z"/>
			<path class="st35" d="M386.4,161.7c-0.2,0-0.4-0.1-0.6-0.2c-1.5-0.6-2.8-1.4-4.3-1.8c-1.9-0.5-3.8-0.7-5.7-0.6
				c-1.7,0.1-4.3,1-5.8,0.1c-1.8-1.1-2-4.4,0.4-5.1c0.1,0.5,0.9,1.8,0.9,2.1c0.1-0.6,0-2.1,0.4-2.5s1.8-0.3,2.4-0.3
				c1.7,0,3.4,0.2,5,0.7c3.7,0.8,6.9,2.9,9,6C389.1,161.7,387.5,161.9,386.4,161.7z"/>
			<path class="st44" d="M376.2,153.5L376.2,153.5c0.3,0.9,0.6,1.9,0.6,1.9s0.2,1,0.2,1.9c0,0.6,0,1.2,0,1.8h-0.1
				c-0.1-0.3-0.2-1-0.3-1.7c-0.2-0.9-0.4-1.9-0.4-1.9s-0.2-0.9-0.4-1.9v-0.2L376.2,153.5z M378.6,159.1h0.2c0.1-0.4,0.2-0.9,0.2-1.4
				c0.1-0.7,0-1.5-0.1-2.2c-0.1-0.6-0.3-1.2-0.5-1.7l-0.5-0.1c0.2,0.6,0.4,1.3,0.5,1.9C378.6,156.8,378.7,158,378.6,159.1
				L378.6,159.1z M370.3,154L370.3,154c-0.1,0.1-0.1,0.2-0.1,0.2c0,0.6,0,1.3,0.1,1.9c0.1,0.5,0.1,0.9,0.1,0.9
				c0.2,0.8,0.6,1.7,1,2.4h0.5l0,0c-0.4-0.8-0.7-1.6-0.9-2.5c-0.2-0.7-0.3-1.5-0.3-2.2C370.5,154.5,370.4,154.3,370.3,154L370.3,154
				z M385,161.1l0.2,0.1c0.2-0.3,0.3-0.7,0.4-1.1c0.1-0.5,0.2-1,0.3-1.6c0-0.4,0-0.8-0.1-1.1c-0.2-0.1-0.3-0.3-0.5-0.4l0,0
				c0,0.5,0,1,0,1.5s0,1-0.1,1.5C385.1,160.5,385,160.9,385,161.1L385,161.1z M375.7,158.7c0-1.1-0.1-2.3-0.3-3.4c0,0-0.2-1-0.4-1.9
				h-0.4c0.1,0.9,0.3,2,0.3,2C375,156.5,375.3,157.6,375.7,158.7L375.7,158.7z M383.2,157.5c0.1,0.6,0.1,1.1,0,1.7
				c0,0.3-0.1,0.7-0.2,1l0.2,0.1c0.2-0.3,0.3-0.7,0.4-1c0.3-1.2,0.3-2.4-0.2-3.5l0,0l-0.5-0.3c0,0.1,0.1,0.3,0.1,0.4
				C383.1,156.5,383.2,157,383.2,157.5L383.2,157.5z"/>
			<path class="st44" d="M381.4,159.6c-1.9-0.5-3.8-0.7-5.7-0.6c-1.7,0.1-4.3,1-5.8,0.1c-1.1-0.8-1.6-2.2-1.2-3.6
				c0.6,1.6,2.7,2.3,5.2,1.8c3.1-0.7,7.1,1.4,10.6,1.7c1.4,0.2,1.7-0.5,1.5-1.4c0.8,0.7,1.4,1.5,2,2.4c1.1,1.7-0.5,1.8-1.6,1.6
				c-0.2,0-0.4-0.1-0.6-0.2C384.3,160.9,382.9,160.1,381.4,159.6z"/>
			<path class="st35" d="M329.1,161.7c0.2,0,0.4-0.1,0.6-0.2c1.5-0.6,2.8-1.4,4.3-1.8c1.9-0.5,3.8-0.7,5.7-0.6
				c1.7,0.1,4.3,1,5.8,0.1c1.8-1.1,2-4.4-0.4-5.1c-0.1,0.5-0.9,1.8-0.9,2.1c-0.1-0.6,0-2.1-0.4-2.5s-1.8-0.3-2.4-0.3
				c-1.7,0-3.4,0.2-5,0.7c-3.7,0.8-6.9,2.9-9,6C326.3,161.7,327.9,161.9,329.1,161.7z"/>
			<path class="st44" d="M339.2,156.2c0,0,0-0.9,0-1.8c0-0.3,0-0.7,0.1-1h0.3c0,0.3,0,0.6,0.1,1l0.2,1.7l0.1,1.7
				c0,0.4,0,0.8,0.1,1.1h-0.2c-0.1-0.3-0.1-0.7-0.2-1.1C339.2,157.1,339.2,156.2,339.2,156.2z M333.8,159.7c0-0.6-0.1-1.2-0.3-1.8
				c-0.2-0.7-0.4-1.3-0.6-2c0,0-0.1-0.2-0.2-0.5l-0.5,0.2l0.2,0.4c0,0,0.4,0.9,0.8,1.9c0.2,0.7,0.4,1.4,0.5,1.7L333.8,159.7z
				 M331.2,156.3c0.2,0.8,0.4,1.5,0.4,1.5s0.3,0.9,0.6,1.8l0.2,0.6l0.3-0.1c0-0.2-0.1-0.4-0.1-0.6c-0.2-1-0.4-1.9-0.4-1.9
				s-0.3-0.8-0.6-1.6L331.2,156.3z M343.6,159.5h0.4l0.3-0.4c0.4-0.6,0.7-1.3,0.9-2c0.2-0.7,0.3-1.4,0.3-2.2c0-0.3,0-0.5,0-0.8
				l-0.3-0.1c0,0.3,0,0.6,0,0.9c-0.1,0.7-0.2,1.4-0.4,2c-0.2,0.7-0.4,1.4-0.7,2C343.8,159.1,343.7,159.3,343.6,159.5L343.6,159.5z
				 M341.5,159.3h0.2c0.1-0.4,0.3-0.9,0.5-1.4c0.3-1,0.5-2,0.5-2s0.2-1,0.2-2c0-0.2,0-0.4,0-0.5h-0.3c0,0.2,0,0.3-0.1,0.5l-0.4,2
				l-0.3,2C341.7,158.4,341.6,158.9,341.5,159.3L341.5,159.3z M338,159.1h0.4c-0.2-1-0.3-2-0.3-2s-0.2-1.1-0.4-2.2
				c-0.1-0.4-0.1-0.8-0.2-1.1l-0.3,0.1c0,0.3,0,0.7,0,1.1c0.1,1.1,0.2,2.2,0.2,2.2S337.8,158.1,338,159.1L338,159.1z"/>
			<path class="st44" d="M329.1,161.7c-1.2,0.2-2.7,0.1-1.6-1.6c0.8-1.2,1.7-2.2,2.8-3.1c-0.5,1-1.3,3-0.1,2.9
				c1.5-0.1,4.8-3,10.3-2.3c4.5,0.6,6-1,6.4-1.7c0.2,1.2-0.3,2.5-1.3,3.2c-1.5,1-4.1,0-5.8-0.1c-1.9-0.1-3.8,0.1-5.7,0.6
				c-1.5,0.4-2.8,1.3-4.3,1.8C329.5,161.6,329.3,161.6,329.1,161.7z"/>
			<path class="st33" d="M345,184.1c0,0-1.3-1.2-1.4-1.3c-1.2-1-2.5-1.9-4-2.5c-2-0.8-4.1-1.1-6.3-0.9c-1.3,0.2-2.6,0.5-3.8,1
				c-0.9,0.4-2.8,0.9-2,2c0.6,0.8,2.9,1.6,3.7,2.1C335.9,187.4,340.6,186.2,345,184.1z"/>
			<path class="st33" d="M387.9,181.9c0,0-1.5-0.9-1.6-0.9c-1.4-0.7-3-1.1-4.5-1.3c-2.1-0.3-4.3,0-6.3,0.7c-1.2,0.5-2.4,1.1-3.5,1.9
				c-0.8,0.6-2.5,1.6-1.5,2.4c0.8,0.6,3.2,0.8,4.2,1.1C380,187.4,384.2,185.1,387.9,181.9z"/>
			
				<radialGradient id="SVGID_00000114062434121081522510000009006586374555306668_" cx="1935.4103" cy="-206.35" r="8.35" gradientTransform="matrix(-0.97 0 0 -1 2268.0898 -22.17)" gradientUnits="userSpaceOnUse">
				<stop  offset="0" style="stop-color:#E98C4D"/>
				<stop  offset="0.84" style="stop-color:#E98C4D;stop-opacity:0"/>
			</radialGradient>
			<path style="opacity:0.4;fill:url(#SVGID_00000114062434121081522510000009006586374555306668_);enable-background:new    ;" d="
				M389.2,183.1c0,0,5.8,1.5,1.2,8.6c-3.7,5.8-6.2,4.9-8.1,4.8c-3.5-0.2-8.9-2.9-8.9-7.7S382,183.1,389.2,183.1z"/>
			
				<radialGradient id="SVGID_00000130608416192952933280000013689083339157085843_" cx="1534.6276" cy="-1375.1288" r="8.35" gradientTransform="matrix(-0.9 -0.39 0.38 -0.92 2212.7703 -490.75)" gradientUnits="userSpaceOnUse">
				<stop  offset="0" style="stop-color:#E98C4D"/>
				<stop  offset="0.84" style="stop-color:#E98C4D;stop-opacity:0"/>
			</radialGradient>
			<path style="opacity:0.4;fill:url(#SVGID_00000130608416192952933280000013689083339157085843_);enable-background:new    ;" d="
				M340.6,185.1c0,0,4.8,3.7-2.2,8.4c-5.6,3.8-7.6,2.1-9.3,1.2c-3.1-1.6-7.1-6.2-5.3-10.6S333.9,182.2,340.6,185.1z"/>
			<g>
				<path class="st43" d="M337.7,179.8c0,0.1,1,0.4,2,0.8c1.3,0.6,2.5,1.4,3.6,2.3c0.8,0.7,1.5,1.5,1.6,1.5
					c-0.3-0.7-0.8-1.3-1.3-1.8c-1-1.1-2.3-1.9-3.7-2.4C339.1,180,338.4,179.9,337.7,179.8z"/>
				<path class="st43" d="M338,181.4c0.4,0.2,0.8,0.4,1.3,0.5c0.6,0.2,1.2,0.5,1.2,0.5s0.6,0.2,1.2,0.6c0.4,0.2,0.8,0.5,1.2,0.6
					c0-0.1-0.4-0.6-1-1c-0.7-0.6-1.6-1-2.5-1.1C339,181.4,338.5,181.3,338,181.4z"/>
				<path class="st43" d="M369.8,184c0.6-0.2,1.1-0.4,1.6-0.8c0.7-0.5,1.4-1,1.4-1c0.4-0.4,0.9-0.7,1.3-1c0.7-0.5,1.5-0.7,1.5-0.8
					c-0.6,0-1.2,0.1-1.7,0.4c-0.5,0.3-1,0.6-1.5,1l-1.3,1.2C370.5,183.5,369.8,184,369.8,184z"/>
				<path class="st43" d="M372.2,183.9c0.1,0.1,0.4-0.2,0.7-0.4s0.7-0.4,0.7-0.4s0.3-0.2,0.6-0.4s0.7-0.4,0.7-0.4s-0.4,0-0.8,0.1
					c-0.5,0.1-1,0.4-1.4,0.9C372.4,183.5,372.1,183.9,372.2,183.9z"/>
			</g>
			<path class="st27" d="M347.2,199.9c2.5,3.4,7.8,4,11.7,3.4c2.4-0.4,7-1.8,7.6-4.5c0-0.2,0-0.3-0.2-0.4c-0.1,0-0.2,0-0.2,0
				c-2.1,1.2-3.9,2.8-6.3,3.4c-3.8,1-9.3,0.5-12.2-2.2C347.4,199.5,347.1,199.7,347.2,199.9L347.2,199.9z"/>
			<path class="st47" d="M215.1,336.5h-25.6c-1.8,0-3.2,1.4-3.2,3.2c0,1.7,1.4,3.2,3.2,3.2h25.6c1.8,0,3.2-1.4,3.2-3.2
				S216.9,336.5,215.1,336.5z"/>
			<path class="st48" d="M194.2,336.9H178c1.1,1.7,1.1,3.9,0,5.6h16.2c1.5,0,2.8-1.3,2.8-2.8S195.7,336.9,194.2,336.9z"/>
			<path class="st38" d="M194.2,342.9h-18.3v-0.8h18.3c1.3,0,2.4-1.1,2.4-2.4s-1.1-2.4-2.4-2.4h-18.3v-0.8h18.3
				c1.8,0,3.2,1.4,3.2,3.2C197.3,341.5,195.9,342.9,194.2,342.9L194.2,342.9z"/>
			<path class="st47" d="M222.4,350.9h-39.1c-2.2,0-4,1.8-4,4s1.8,4,4,4h39.1c2.2,0,4-1.8,4-4S224.6,350.9,222.4,350.9z"/>
			<path class="st48" d="M189.1,351.4h-20.6c1.4,2.1,1.4,4.9,0,7.1h20.6c2-0.1,3.5-1.8,3.3-3.7C192.4,352.9,190.9,351.5,189.1,351.4
				z"/>
			<path class="st38" d="M189.1,358.9H166v-1h23.1c1.7,0,3.1-1.4,3.1-3.1s-1.4-3.1-3.1-3.1H166v-1h23.1c2.2,0,4,1.8,4,4s-1.8,4-4,4
				V358.9z"/>
			<path class="st23" d="M178.4,358.9h32.5c2.2,0,4,1.8,4,4s-1.8,4-4,4h-32.5c-2.2,0-4-1.8-4-4S176.2,358.9,178.4,358.9z"/>
			<path class="st49" d="M205,359.4h20.6c-1.4,2.1-1.4,4.9,0,7.1H205c-2,0.1-3.6-1.4-3.7-3.3s1.4-3.6,3.3-3.7
				C204.7,359.4,204.9,359.4,205,359.4z"/>
			<path class="st50" d="M205,367h23.1v-1H205c-1.7,0-3.1-1.4-3.1-3.1s1.4-3.1,3.1-3.1h23.1v-1H205c-2.2,0-4,1.8-4,4s1.8,4,4,4V367z
				"/>
			<path class="st28" d="M228.2,367h-32.5c-2.2,0-4,1.8-4,4s1.8,4,4,4h32.5c2.2,0,4-1.8,4-4S230.4,367,228.2,367L228.2,367z"/>
			<path class="st27" d="M201.6,367.5H181c1.4,2.1,1.4,4.9,0,7.1h20.6c2,0.1,3.6-1.4,3.7-3.3s-1.4-3.6-3.3-3.7
				C201.9,367.5,201.7,367.5,201.6,367.5z"/>
			<path class="st32" d="M201.6,375h-23.2v-1h23.2c1.7,0,3.1-1.4,3.1-3.1s-1.4-3.1-3.1-3.1h-23.2v-1h23.2c2.2,0,4,1.8,4,4
				s-1.8,4-4,4V375z"/>
			<path class="st47" d="M171.6,375h37.1c1.8,0,3.2,1.4,3.2,3.2s-1.4,3.2-3.2,3.2h-37.1c-1.8,0-3.2-1.4-3.2-3.2S169.9,375,171.6,375
				z"/>
			<path class="st48" d="M204.1,375.4h25.4c-1.1,1.7-1.1,4,0,5.7h-25.4c-1.6,0-2.8-1.3-2.8-2.8C201.2,376.7,202.5,375.4,204.1,375.4
				z"/>
			<path class="st38" d="M204.1,381.5h27.5v-0.8h-27.5c-1.4,0.1-2.5-0.9-2.6-2.3s0.9-2.5,2.3-2.6c0.1,0,0.2,0,0.3,0h27.5V375h-27.5
				c-1.8,0-3.2,1.4-3.2,3.2S202.3,381.4,204.1,381.5L204.1,381.5z"/>
			<path class="st51" d="M183.7,342.9h32.5c2.2,0,4,1.8,4,4s-1.8,4-4,4h-32.5c-2.2,0-4-1.8-4-4S181.5,342.9,183.7,342.9z"/>
			<path class="st49" d="M210.2,343.4h20.6c-1.4,2.1-1.4,4.9,0,7.1h-20.6c-2-0.1-3.5-1.8-3.3-3.7C207,344.9,208.4,343.4,210.2,343.4
				z"/>
			<path class="st25" d="M210.2,350.9h23.1v-1h-23.1c-1.7,0-3.1-1.4-3.1-3.1s1.4-3.1,3.1-3.1h23.1v-1h-23.1c-2.2,0-4,1.8-4,4
				s1.8,4,4,4V350.9z"/>
			
				<linearGradient id="SVGID_00000103257375705321940390000016316663838198671004_" gradientUnits="userSpaceOnUse" x1="280.3" y1="-335.36" x2="280.3" y2="-341.09" gradientTransform="matrix(1 0 0 -1 0 -22)">
				<stop  offset="0" style="stop-color:#FFFFFF"/>
				<stop  offset="1" style="stop-color:#E0DFBF"/>
			</linearGradient>
			<path style="fill:url(#SVGID_00000103257375705321940390000016316663838198671004_);" d="M290.4,316.7h-20.2
				c-1,0-1.8-0.8-1.8-1.8l0,0l0,0c0-1,0.8-1.8,1.8-1.8l0,0h20.2c1,0,1.8,0.8,1.8,1.8l0,0l0,0C292.1,315.9,291.3,316.7,290.4,316.7
				L290.4,316.7z"/>
			<path class="st53" d="M289.9,333.9v-17.3H288v18.5l1.1,0.5c11.6,4.9,17.1,18.3,12.1,29.9c-4.9,11.6-18.3,17.1-29.9,12.1
				s-17.1-18.3-12.1-29.9c2.3-5.5,6.7-9.8,12.1-12.1l1.1-0.5v-18.5h-1.9v17.3c-12.6,5.3-18.5,19.8-13.1,32.4
				c5.3,12.6,19.8,18.5,32.4,13.1s18.5-19.8,13.1-32.4C300.5,341.2,295.8,336.5,289.9,333.9L289.9,333.9z"/>
			<path class="st54" d="M271.4,335.7c-11.6,4.9-17.1,18.3-12.1,29.9c4.9,11.6,18.3,17.1,29.9,12.1s17.1-18.3,12.1-29.9
				c-2.3-5.5-6.7-9.8-12.1-12.1l-1.1-0.5v-18.5h-15.5v18.5L271.4,335.7z"/>
			<path class="st48" d="M271.4,335.7c-11.6,4.9-17.1,18.3-12.1,29.9c4.9,11.6,18.3,17.1,29.9,12.1s17.1-18.3,12.1-29.9
				c-2.3-5.5-6.7-9.8-12.1-12.1l-1.1-0.5v-18.5h-15.5v18.5L271.4,335.7z"/>
			<path class="st38" d="M279.1,352.7c-11.2-3.8-17.6-3.2-20.9-2.3c-3.5,12.1,3.5,24.8,15.6,28.3s24.8-3.5,28.3-15.6
				c1-3.3,1.1-6.8,0.5-10.2C295.1,355.5,286.8,355.4,279.1,352.7z"/>
			<circle class="st55" cx="275.8" cy="345.6" r="2.5"/>
			<circle class="st55" cx="286.9" cy="342.4" r="1.4"/>
			<circle class="st28" cx="285.5" cy="368.6" r="1.4"/>
			<circle class="st28" cx="267.8" cy="360.2" r="0.9"/>
			<circle class="st28" cx="282" cy="358" r="0.6"/>
			<circle class="st28" cx="297.3" cy="364.1" r="0.6"/>
			<circle class="st55" cx="280" cy="332.5" r="0.8"/>
			<path class="st53" d="M275.2,363.5l-16.5-35.9v-30.1h-2.3v30.6l16.7,36.4c2.4,5.2,0.1,11.3-5.1,13.7c-1.4,0.6-2.8,0.9-4.3,0.9
				H230c-5.7,0-10.3-4.6-10.3-10.3c0-1.5,0.3-3,0.9-4.3l16.7-36.4v-30.6H235v30.1l-16.5,35.9c-2.9,6.3-0.1,13.8,6.2,16.8
				c1.7,0.8,3.4,1.1,5.3,1.1h33.7c7,0,12.6-5.7,12.6-12.6C276.3,367,275.9,365.2,275.2,363.5z"/>
			<path class="st48" d="M220.6,364.5c-2.4,5.2-0.1,11.3,5.1,13.7c1.3,0.6,2.8,0.9,4.3,0.9h33.7c5.7,0,10.3-4.6,10.3-10.3
				c0-1.5-0.3-3-0.9-4.3l-16.7-36.4v-30.6h-19v30.6L220.6,364.5z"/>
			
				<linearGradient id="SVGID_00000183222935148857374580000002440456662981783958_" gradientUnits="userSpaceOnUse" x1="246.9" y1="-319.61" x2="246.9" y2="-325.71" gradientTransform="matrix(1 0 0 -1 0 -22)">
				<stop  offset="0" style="stop-color:#FFFFFF"/>
				<stop  offset="1" style="stop-color:#E0DFBF"/>
			</linearGradient>
			<path style="fill:url(#SVGID_00000183222935148857374580000002440456662981783958_);" d="M259.3,301.9h-24.8
				c-1.2,0-2.2-1-2.2-2.2l0,0l0,0c0-1.2,1-2.2,2.2-2.2l0,0h24.8c1.2,0,2.2,1,2.2,2.2l0,0l0,0C261.5,300.9,260.5,301.9,259.3,301.9z"
				/>
			<path class="st24" d="M266.4,350c-4.2,1.1-10,1.1-17.2-2.4c-6.7-3.3-14.2-3.1-19.8-2.1l-8.7,19c-2.4,5.2-0.1,11.3,5.1,13.7
				c1.3,0.6,2.8,0.9,4.3,0.9h33.7c5.7,0,10.3-4.6,10.3-10.3c0-1.5-0.3-3-0.9-4.3L266.4,350z"/>
			<circle class="st32" cx="243.3" cy="333.3" r="2.3"/>
			<circle class="st32" cx="254.6" cy="343.4" r="1.7"/>
			<g>
				<circle class="st32" cx="243.9" cy="357.1" r="1.7"/>
				<circle class="st32" cx="260.3" cy="370.8" r="0.4"/>
				<circle class="st32" cx="232.2" cy="374" r="0.4"/>
				<circle class="st32" cx="233.4" cy="352.1" r="0.4"/>
				<circle class="st32" cx="255" cy="356.6" r="0.2"/>
				<circle class="st32" cx="228.9" cy="365.8" r="1"/>
				<circle class="st32" cx="249.5" cy="369.9" r="0.7"/>
				<circle class="st32" cx="262.8" cy="361" r="0.5"/>
			</g>
			<circle class="st32" cx="249.5" cy="318.6" r="1"/>
			<path class="st23" d="M396.6,271.2H510c7.7,0,13.9,6.2,13.9,13.9v61.5c0,7.7-6.2,13.9-13.9,13.9H396.6c-7.7,0-13.9-6.2-13.9-13.9
				v-61.5C382.7,277.5,388.9,271.2,396.6,271.2z"/>
			
				<linearGradient id="SVGID_00000060718787384501751700000006469504974894459546_" gradientUnits="userSpaceOnUse" x1="416.6624" y1="-281.0954" x2="485.3124" y2="-379.2354" gradientTransform="matrix(1 0 0 -1 0 -22)">
				<stop  offset="0" style="stop-color:#F2F7FA"/>
				<stop  offset="0.99" style="stop-color:#EDECD1"/>
			</linearGradient>
			<path style="fill:url(#SVGID_00000060718787384501751700000006469504974894459546_);" d="M519.7,283.3v56.2
				c0,4.2-3.4,7.6-7.6,7.6H394.4c-4.2,0-7.6-3.4-7.6-7.6v-56.2c0-4.2,3.4-7.6,7.6-7.6h117.7C516.3,275.7,519.7,279.1,519.7,283.3z"
				/>
			<rect x="424" y="360.5" class="st58" width="58.4" height="17.6"/>
			<path class="st23" d="M482.2,381.5h-58c-1.6,0-2.8-1.3-2.8-2.8l0,0l0,0c0-1.6,1.3-2.8,2.8-2.8l0,0h58c1.6,0,2.8,1.3,2.8,2.8l0,0
				l0,0C485.1,380.2,483.8,381.5,482.2,381.5L482.2,381.5z"/>
			
				<linearGradient id="SVGID_00000167393877991992611700000011096277525277923986_" gradientUnits="userSpaceOnUse" x1="421.67" y1="-349.65" x2="529.15" y2="-349.65" gradientTransform="matrix(1 0 0 -1 0 -22)">
				<stop  offset="0" style="stop-color:#FFFFFF"/>
				<stop  offset="1" style="stop-color:#E0DFBF"/>
			</linearGradient>
			
				<rect x="438.1" y="326" style="fill:url(#SVGID_00000167393877991992611700000011096277525277923986_);" width="72" height="3.3"/>
			
				<linearGradient id="SVGID_00000140723050381748668520000006902696396253517245_" gradientUnits="userSpaceOnUse" x1="474.1017" y1="-388.54" x2="474.1017" y2="-399.78" gradientTransform="matrix(1 0 0 -1 0 -22)">
				<stop  offset="0" style="stop-color:#FFFFFF"/>
				<stop  offset="1" style="stop-color:#E0DFBF"/>
			</linearGradient>
			<path style="fill:url(#SVGID_00000140723050381748668520000006902696396253517245_);" d="M518.5,372h-88.8c0-2.8,2.2-5,5-5h78.8
				C516.4,367,518.6,369.2,518.5,372L518.5,372z"/>
			<path class="st61" d="M449.5,365.1L449.5,365.1c-3.8,0-6.9-3.1-6.9-6.9l0,0v-41.4h13.7v41.4C456.4,362.1,453.3,365.1,449.5,365.1
				L449.5,365.1z"/>
			<path class="st24" d="M449.5,363.5L449.5,363.5c-3,0-5.5-2.5-5.5-5.5v-21.1h11.1V358C455.1,361.1,452.6,363.6,449.5,363.5
				L449.5,363.5z"/>
			<path class="st38" d="M447.7,308.9h3.7c2.8,0,5,2.2,5,5l0,0l0,0h-13.7l0,0l0,0C442.7,311.1,444.9,308.9,447.7,308.9z"/>
			
				<linearGradient id="SVGID_00000053526954467415065180000005555708392819927192_" gradientUnits="userSpaceOnUse" x1="441.85" y1="-337.5" x2="457.18" y2="-337.5" gradientTransform="matrix(1 0 0 -1 0 -22)">
				<stop  offset="0" style="stop-color:#FFFFFF"/>
				<stop  offset="1" style="stop-color:#E0DFBF"/>
			</linearGradient>
			
				<rect x="441.9" y="314" style="fill:url(#SVGID_00000053526954467415065180000005555708392819927192_);" width="15.3" height="3"/>
			<g class="st63">
				<circle class="st27" cx="448.4" cy="350.9" r="0.4"/>
				<circle class="st27" cx="452.2" cy="342.3" r="0.3"/>
				<circle class="st27" cx="451.8" cy="355.4" r="1.2"/>
				<circle class="st27" cx="446.4" cy="357.8" r="0.7"/>
				<circle class="st27" cx="446.8" cy="345.4" r="0.4"/>
				<circle class="st27" cx="452" cy="347.5" r="0.1"/>
			</g>
			<path class="st61" d="M467.3,316.9H481l0,0v41.4c0,3.8-3.1,6.9-6.9,6.9l0,0l0,0c-3.8,0-6.9-3.1-6.9-6.9l0,0L467.3,316.9
				L467.3,316.9z"/>
			<path class="st32" d="M468.6,328h11.1l0,0v30c0,3.1-2.5,5.6-5.6,5.6l0,0c-3.1,0-5.6-2.5-5.6-5.6v-30H468.6z"/>
			<path class="st38" d="M472.3,308.9h3.7c2.8,0,5,2.2,5,5l0,0l0,0h-13.7l0,0l0,0C467.3,311.1,469.5,308.9,472.3,308.9z"/>
			
				<linearGradient id="SVGID_00000072975001974916451800000003654904858314992537_" gradientUnits="userSpaceOnUse" x1="466.5" y1="-337.5" x2="481.83" y2="-337.5" gradientTransform="matrix(1 0 0 -1 0 -22)">
				<stop  offset="0" style="stop-color:#FFFFFF"/>
				<stop  offset="1" style="stop-color:#E0DFBF"/>
			</linearGradient>
			
				<rect x="466.5" y="314" style="fill:url(#SVGID_00000072975001974916451800000003654904858314992537_);" width="15.3" height="3"/>
			<g class="st63">
				<circle class="st27" cx="473.2" cy="350.9" r="0.4"/>
				<circle class="st27" cx="477" cy="342.3" r="0.3"/>
				<circle class="st27" cx="476.6" cy="355.4" r="1.2"/>
				<circle class="st27" cx="472.8" cy="336.5" r="0.6"/>
				<circle class="st27" cx="471.2" cy="357.8" r="0.7"/>
				<circle class="st27" cx="471.6" cy="345.4" r="0.4"/>
				<circle class="st27" cx="477.3" cy="332.7" r="0.4"/>
				<circle class="st27" cx="476.8" cy="347.5" r="0.1"/>
			</g>
			<path class="st61" d="M498.8,365.1L498.8,365.1c-3.8,0-6.9-3.1-6.9-6.9l0,0v-41.4h13.7v41.4C505.7,362.1,502.6,365.1,498.8,365.1
				L498.8,365.1z"/>
			<path class="st38" d="M498.8,363.5L498.8,363.5c-3.1,0-5.6-2.5-5.6-5.6v-20.3h11.1V358C504.3,361.1,501.9,363.5,498.8,363.5z"/>
			<g class="st63">
				<circle class="st27" cx="499.8" cy="350.9" r="0.4"/>
				<circle class="st27" cx="496" cy="342.3" r="0.3"/>
				<circle class="st27" cx="496.3" cy="355.4" r="1.2"/>
				<circle class="st27" cx="501.7" cy="357.8" r="0.7"/>
				<circle class="st27" cx="501.3" cy="345.4" r="0.4"/>
				<circle class="st27" cx="496.2" cy="347.5" r="0.1"/>
			</g>
			<path class="st38" d="M496.9,308.9h3.7c2.8,0,5,2.2,5,5l0,0l0,0h-13.7l0,0l0,0C491.9,311.1,494.2,308.9,496.9,308.9z"/>
			
				<linearGradient id="SVGID_00000092417654890018409800000017169759804210571163_" gradientUnits="userSpaceOnUse" x1="491.13" y1="-337.5" x2="506.46" y2="-337.5" gradientTransform="matrix(1 0 0 -1 0 -22)">
				<stop  offset="0" style="stop-color:#FFFFFF"/>
				<stop  offset="1" style="stop-color:#E0DFBF"/>
			</linearGradient>
			
				<rect x="491.1" y="314" style="fill:url(#SVGID_00000092417654890018409800000017169759804210571163_);" width="15.3" height="3"/>
			
				<linearGradient id="SVGID_00000002344941500897454800000005907025567707420056_" gradientUnits="userSpaceOnUse" x1="437" y1="-344.57" x2="437" y2="-389.69" gradientTransform="matrix(1 0 0 -1 0 -22)">
				<stop  offset="0" style="stop-color:#FFFFFF"/>
				<stop  offset="1" style="stop-color:#E0DFBF"/>
			</linearGradient>
			<path style="fill:url(#SVGID_00000002344941500897454800000005907025567707420056_);" d="M439,367h-4v-41.9c0-1.1,0.9-2,2-2l0,0
				c1.1,0,2,0.9,2,2V367z"/>
			
				<linearGradient id="SVGID_00000103962190793645919750000003026179600375433145_" gradientUnits="userSpaceOnUse" x1="511.6" y1="-344.57" x2="511.6" y2="-389.69" gradientTransform="matrix(1 0 0 -1 0 -22)">
				<stop  offset="0" style="stop-color:#FFFFFF"/>
				<stop  offset="1" style="stop-color:#E0DFBF"/>
			</linearGradient>
			<path style="fill:url(#SVGID_00000103962190793645919750000003026179600375433145_);" d="M513.6,367h-4v-41.9c0-1.1,0.9-2,2-2
				l0,0c1.1,0,2,0.9,2,2V367z"/>
			
				<linearGradient id="SVGID_00000168798948388889716940000017024268680590732476_" gradientUnits="userSpaceOnUse" x1="428.93" y1="-398.75" x2="511.6" y2="-398.75" gradientTransform="matrix(1 0 0 -1 0 -22)">
				<stop  offset="0" style="stop-color:#FFFFFF"/>
				<stop  offset="1" style="stop-color:#E0DFBF"/>
			</linearGradient>
			
				<rect x="429.8" y="372" style="fill:url(#SVGID_00000168798948388889716940000017024268680590732476_);" width="88.8" height="9.5"/>
			<polyline class="st69" points="429.8,377.9 455.1,377.9 456.8,376.2 487.9,376.2 491.1,379.4 518.5,379.4 			"/>
		</g>
	</g>
</g>
</svg>
