<?xml version="1.0" encoding="utf-8"?>
<!-- Generator: Adobe Illustrator 27.5.0, SVG Export Plug-In . SVG Version: 6.00 Build 0)  -->
<svg version="1.1" id="Layer_1" xmlns="http://www.w3.org/2000/svg" xmlns:xlink="http://www.w3.org/1999/xlink" x="0px" y="0px"
	 viewBox="0 0 685 466.2" style="enable-background:new 0 0 685 466.2;" xml:space="preserve">
<style type="text/css">
	.st0{fill:none;}
	.st1{fill:#EBF4F4;}
	.st2{clip-path:url(#SVGID_00000083806637979454094270000009062460038745881487_);}
	.st3{fill:#D19E5C;}
	.st4{fill:#C8DEE1;}
	.st5{opacity:0.3;}
	.st6{fill:#96AFBE;}
	.st7{fill:#F5F5F7;}
	.st8{opacity:0.2;fill:#96AFBE;enable-background:new    ;}
	.st9{opacity:0.3;fill:#96AFBE;enable-background:new    ;}
	.st10{fill:#C0C293;}
	.st11{fill:#00000F;}
	.st12{fill:#2A0404;}
	.st13{fill:#3F1F13;}
	.st14{clip-path:url(#SVGID_00000096764935875887805410000017874578391867510711_);}
	.st15{fill:#FFB794;}
	.st16{fill:#FFFFFF;}
	.st17{fill:#EE6261;}
	.st18{fill:#3D3C1F;}
	.st19{fill:#605F43;}
	.st20{fill:#F5AC83;}
	.st21{fill:#EE9073;}
	.st22{fill:#7D7D58;}
	.st23{fill:#DC5748;}
	.st24{fill:#EB997A;}
	.st25{fill:#F9BB96;}
	.st26{fill:#4D5A7E;}
	.st27{fill:#7B96A6;}
	.st28{fill:#DBDAD9;}
	.st29{opacity:0.4;fill:url(#SVGID_00000128466411114249027070000011410530023512880520_);enable-background:new    ;}
	.st30{opacity:0.4;fill:url(#SVGID_00000064332201333456403380000012658068466543886756_);enable-background:new    ;}
	.st31{opacity:0.4;fill:url(#SVGID_00000070836642972289441080000007903205318373884300_);enable-background:new    ;}
	.st32{opacity:0.42;fill:#E98C4D;enable-background:new    ;}
	.st33{opacity:0.45;fill:#E98C4D;enable-background:new    ;}
	.st34{fill:#DA774E;}
	.st35{opacity:0.45;fill:#6C293E;enable-background:new    ;}
	.st36{opacity:0.4;fill:url(#SVGID_00000131342618414568608570000001270979246611801001_);enable-background:new    ;}
	.st37{opacity:0.4;fill:url(#SVGID_00000108276646364083999520000001203512958306187657_);enable-background:new    ;}
	.st38{opacity:0.4;fill:url(#SVGID_00000029742073583942709300000007440432430192350605_);enable-background:new    ;}
	.st39{opacity:0.2;fill:#320033;enable-background:new    ;}
	.st40{opacity:0.45;fill:#CA6633;enable-background:new    ;}
	.st41{fill:#3F3632;}
	.st42{clip-path:url(#SVGID_00000114066089181207809810000006034864591884603571_);}
	.st43{fill:#F28B60;}
	.st44{fill:#AFAF7E;}
	.st45{fill:#999865;}
	.st46{fill:#4C4B31;}
	.st47{opacity:0.1;enable-background:new    ;}
</style>
<g>
	<g id="Layer_2_00000178916092294522660190000007760300819588093845_">
		<g id="OBJECTS">
			<rect y="-19" class="st0" width="685" height="485.2"/>
			<path class="st1" d="M202.9,421.3c-38.7-0.1-70.1-31.5-70.2-70.2l0,0c0.1-38.7,31.5-70.1,70.2-70.2l0,0
				c16.4,0,29.6-13.3,29.7-29.7l0,0c0-16.4-13.3-29.6-29.7-29.7h-3.5c-17-0.1-30.8-13.8-30.9-30.9l0,0c0.1-17,13.8-30.8,30.9-30.9
				h10.8c6.6,0,12-5.4,12-12l0,0c0-6.6-5.4-12-12-12h-8c-4.6,0-8.3-3.7-8.3-8.3l0,0c0-4.6,3.7-8.3,8.3-8.3h53.5c7.2,0,13-5.8,13-13
				l0,0c0-7.2-5.8-13-13-13h-16c-4.6,0-8.3-3.7-8.3-8.3l0,0c0-4.6,3.7-8.3,8.3-8.3h234.4c5.9,0,10.8,4.8,10.8,10.7l0,0
				c0,6-4.9,10.8-10.8,10.8h-16.4c-9.4,0-17,7.6-17,17l0,0c0,9.4,7.6,17,17,17h63.5c6,0,10.8,4.9,10.8,10.8l0,0
				c0,6-4.9,10.8-10.8,10.8h-10.4c-8.7,0-15.7,7-15.7,15.7l0,0c0,8.7,7,15.7,15.7,15.7H525c22.2,0.1,40.2,18.1,40.3,40.3l0,0
				c-0.1,22.2-18.1,40.2-40.3,40.3h-4.6c-21.4,0.1-38.7,17.4-38.7,38.7l0,0c0.1,21.4,17.4,38.7,38.7,38.7h10c21.5,0.1,39,17.5,39,39
				l0,0c-0.1,21.5-17.5,39-39,39L202.9,421.3z M501.9,98.2c6,0,10.8-4.9,10.7-10.9c0-6-4.9-10.8-10.9-10.7
				c-5.9,0-10.7,4.9-10.7,10.8C491,93.4,495.8,98.2,501.9,98.2L501.9,98.2L501.9,98.2z M179,135.8c4.6,0,8.3-3.7,8.3-8.3
				s-3.7-8.3-8.3-8.3s-8.3,3.7-8.3,8.3l0,0C170.7,132.1,174.4,135.8,179,135.8z"/>
			<g>
				<g>
					<defs>
						<path id="SVGID_1_" d="M202.9,421.3c-38.7-0.1-70.1-31.5-70.2-70.2l0,0c0.1-38.7,31.5-70.1,70.2-70.2l0,0
							c16.4,0,29.6-13.3,29.7-29.7l0,0c0-16.4-13.3-29.6-29.7-29.7h-3.5c-17-0.1-30.8-13.8-30.9-30.9l0,0
							c0.1-17,13.8-30.8,30.9-30.9h10.8c6.6,0,12-5.4,12-12l0,0c0-6.6-5.4-12-12-12h-8c-4.6,0-8.3-3.7-8.3-8.3l0,0
							c0-4.6,3.7-8.3,8.3-8.3h53.5c7.2,0,13-5.8,13-13l0,0c0-7.2-5.8-13-13-13h-16c-4.6,0-8.3-3.7-8.3-8.3l0,0
							c0-4.6,3.7-8.3,8.3-8.3h234.4c5.9,0,10.8,4.8,10.8,10.7l0,0c0,6-4.9,10.8-10.8,10.8h-16.4c-9.4,0-17,7.6-17,17l0,0
							c0,9.4,7.6,17,17,17h63.5c6,0,10.8,4.9,10.8,10.8l0,0c0,6-4.9,10.8-10.8,10.8h-10.4c-8.7,0-15.7,7-15.7,15.7l0,0
							c0,8.7,7,15.7,15.7,15.7H525c22.2,0.1,40.2,18.1,40.3,40.3l0,0c-0.1,22.2-18.1,40.2-40.3,40.3h-4.6
							c-21.4,0.1-38.7,17.4-38.7,38.7l0,0c0.1,21.4,17.4,38.7,38.7,38.7h10c21.5,0.1,39,17.5,39,39l0,0c-0.1,21.5-17.5,39-39,39
							L202.9,421.3z M501.9,98.2c6,0,10.8-4.9,10.7-10.9c0-6-4.9-10.8-10.9-10.7c-5.9,0-10.7,4.9-10.7,10.8
							C491,93.4,495.8,98.2,501.9,98.2L501.9,98.2L501.9,98.2z M179,135.8c4.6,0,8.3-3.7,8.3-8.3s-3.7-8.3-8.3-8.3s-8.3,3.7-8.3,8.3
							l0,0C170.7,132.1,174.4,135.8,179,135.8z"/>
					</defs>
					<clipPath id="SVGID_00000083066359359127948670000011426528151703786910_">
						<use xlink:href="#SVGID_1_"  style="overflow:visible;"/>
					</clipPath>
					<g style="clip-path:url(#SVGID_00000083066359359127948670000011426528151703786910_);">
						<path class="st3" d="M297.7,336.7H324c0,0,0,53.4-12.5,53.4S297.7,336.7,297.7,336.7z"/>
						<path class="st3" d="M741.6,336.7h26.3c0,0,0,53.4-12.5,53.4S741.6,336.7,741.6,336.7z"/>
						<path class="st4" d="M324.5,343.6c0,0-82.4-190-19.1-243.5s380.8-82.2,457.8,1.9c49,53.5-2.9,241.6-2.9,241.6H324.5z"/>
						<g class="st5">
							<path class="st4" d="M293.5,303.8h238.4c0,0,1.2-49-34.1-59.4s-144.6-11-169.5,0S293.5,303.8,293.5,303.8z"/>
							<path class="st6" d="M518.8,257.8c-12.6-14.4-32.5-18.4-50.6-20.3c-49.6-5.1-109.5-0.8-131.4,3.6c-0.2,0-0.5,0.7,0.3,0.6
								c20.2-3.1,96-4.5,120-2.1c20.3,2,41.3,4.3,55.3,17.2c12.1,11.1,19.2,28.5,19.1,45.9c0,1.6,1.3,1.5,1.3,0
								C533.2,285.7,529.6,270.1,518.8,257.8z"/>
							<path class="st7" d="M772.1,303.8H533.8c0,0-1.2-49,34.1-59.4s144.6-11,169.5,0S772.1,303.8,772.1,303.8z"/>
							<path class="st6" d="M546.9,257.8c12.6-14.4,32.5-18.4,50.6-20.3c49.6-5.1,109.5-0.8,131.4,3.6c0.2,0,0.5,0.7-0.3,0.6
								c-20.2-3.1-96-4.5-120-2.1c-20.3,2-41.3,4.3-55.3,17.2c-12.1,11.1-19.2,28.5-19.1,45.9c0,1.6-1.3,1.5-1.3,0
								C532.4,285.7,536,270.1,546.9,257.8z"/>
							<path class="st6" d="M742.2,302.5c-108.8-1.1-217.7-0.5-326.5-0.3c-30.9,0.1-61.8,0.2-92.7,0.6c-0.1,0-0.1,0.1-0.1,0.1
								c0,0.1,0.1,0.1,0.1,0.1c108.8,1.4,217.7,0.6,326.5,0.5c30.9,0,61.8,0.1,92.7-0.2c0.3,0,0.5-0.2,0.5-0.5
								C742.7,302.7,742.5,302.5,742.2,302.5z"/>
						</g>
						<g class="st5">
							<path class="st6" d="M369.5,148.9c0.3-2.2,1-4.3,2.1-6.2c1-1.9,2.3-3.7,3.8-5.3c2.9-3.3,6.8-5.6,11.1-6.5
								c-1.5,1.6-3,3-4.4,4.5s-2.9,2.9-4.2,4.3C375.1,142.7,372.5,145.7,369.5,148.9z"/>
							<path class="st6" d="M368.2,131.4c2.2,0.3,4.3,1,6.2,2.1c1.9,1,3.7,2.3,5.3,3.8c3.3,2.9,5.6,6.8,6.5,11.1
								c-1.6-1.5-3-3-4.5-4.4s-2.9-2.9-4.3-4.2C374.4,137,371.4,134.4,368.2,131.4z"/>
						</g>
						<g class="st5">
							<path class="st6" d="M409.6,196.7c0.3-2.2,1-4.3,2.1-6.2c1-1.9,2.3-3.7,3.8-5.3c2.9-3.3,6.8-5.6,11.1-6.5
								c-1.5,1.6-3,3-4.4,4.5s-2.9,2.9-4.2,4.3C415.1,190.5,412.6,193.6,409.6,196.7z"/>
							<path class="st6" d="M408.3,179.2c2.2,0.3,4.3,1,6.2,2.1c1.9,1,3.7,2.3,5.3,3.8c3.3,2.9,5.6,6.8,6.5,11.1
								c-1.6-1.5-3-3-4.5-4.4s-2.9-2.9-4.3-4.2C414.5,184.8,411.4,182.2,408.3,179.2z"/>
						</g>
						<g class="st5">
							<path class="st6" d="M489,196.7c0.3-2.2,1-4.3,2.1-6.2c1-1.9,2.3-3.7,3.8-5.3c2.9-3.3,6.8-5.6,11.1-6.5c-1.5,1.6-3,3-4.4,4.5
								s-2.9,2.9-4.2,4.3C494.5,190.5,492,193.6,489,196.7z"/>
							<path class="st6" d="M487.7,179.2c2.2,0.3,4.3,1,6.2,2.1c1.9,1,3.7,2.3,5.3,3.8c3.3,2.9,5.6,6.8,6.5,11.1
								c-1.6-1.5-3-3-4.5-4.4s-2.9-2.9-4.3-4.2C493.9,184.8,490.8,182.2,487.7,179.2z"/>
						</g>
						<g class="st5">
							<path class="st6" d="M568.3,196.7c0.3-2.2,1-4.3,2.1-6.2c1-1.9,2.3-3.7,3.8-5.3c2.9-3.3,6.8-5.6,11.1-6.5
								c-1.5,1.6-3,3-4.4,4.5s-2.8,2.9-4.2,4.3C573.9,190.5,571.4,193.6,568.3,196.7z"/>
							<path class="st6" d="M567.1,179.2c2.2,0.3,4.3,1,6.2,2.1c1.9,1,3.7,2.3,5.3,3.8c3.3,2.9,5.6,6.8,6.5,11.1
								c-1.7-1.5-3-3-4.5-4.4s-2.8-2.9-4.3-4.2C573.3,184.8,570.2,182.2,567.1,179.2z"/>
						</g>
						<g class="st5">
							<path class="st6" d="M647.7,196.7c0.3-2.2,1-4.3,2.1-6.2c1-1.9,2.3-3.7,3.8-5.3c2.9-3.3,6.8-5.6,11.1-6.5
								c-1.5,1.6-3,3-4.4,4.5s-2.8,2.9-4.2,4.3C653.3,190.5,650.8,193.6,647.7,196.7z"/>
							<path class="st6" d="M646.5,179.2c2.2,0.3,4.3,1,6.2,2.1c1.9,1,3.7,2.3,5.3,3.8c3.3,2.9,5.6,6.8,6.5,11.1
								c-1.7-1.5-3-3-4.5-4.4s-2.8-2.9-4.3-4.2C652.7,184.8,649.6,182.2,646.5,179.2z"/>
						</g>
						<g class="st5">
							<path class="st6" d="M449.4,148.9c0.3-2.2,1-4.3,2.1-6.2c1-1.9,2.3-3.7,3.8-5.3c2.9-3.3,6.8-5.6,11.1-6.5
								c-1.5,1.6-3,3-4.4,4.5s-2.9,2.9-4.2,4.3C455,142.7,452.4,145.7,449.4,148.9z"/>
							<path class="st6" d="M448.1,131.4c2.2,0.3,4.3,1,6.2,2.1c1.9,1,3.7,2.3,5.3,3.8c3.3,2.9,5.6,6.8,6.5,11.1
								c-1.6-1.5-3-3-4.5-4.4s-2.9-2.9-4.3-4.2C454.3,137,451.2,134.4,448.1,131.4z"/>
						</g>
						<g class="st5">
							<path class="st6" d="M529.3,148.9c0.3-2.2,1-4.3,2.1-6.2c1-1.9,2.3-3.7,3.8-5.3c2.9-3.3,6.8-5.6,11.1-6.5
								c-1.5,1.6-3,3-4.4,4.5s-2.8,2.9-4.2,4.3C534.9,142.7,532.3,145.7,529.3,148.9z"/>
							<path class="st6" d="M528,131.4c2.2,0.3,4.3,1,6.2,2.1c1.9,1,3.7,2.3,5.3,3.8c3.3,2.9,5.6,6.8,6.5,11.1c-1.7-1.5-3-3-4.5-4.4
								s-2.8-2.9-4.3-4.2C534.2,137,531.1,134.4,528,131.4z"/>
						</g>
						<g class="st5">
							<path class="st6" d="M609.2,148.9c0.3-2.2,1-4.3,2.1-6.2c1-1.9,2.3-3.7,3.8-5.3c2.9-3.3,6.8-5.6,11.1-6.5
								c-1.5,1.6-3,3-4.4,4.5s-2.8,2.9-4.2,4.3C614.8,142.7,612.2,145.7,609.2,148.9z"/>
							<path class="st6" d="M607.9,131.4c2.2,0.3,4.3,1,6.2,2.1c1.9,1,3.7,2.3,5.3,3.8c3.3,2.9,5.6,6.8,6.5,11.1
								c-1.7-1.5-3-3-4.5-4.4s-2.8-2.9-4.3-4.2C614.1,137,611,134.4,607.9,131.4z"/>
						</g>
						<g class="st5">
							<path class="st6" d="M689.1,148.9c0.3-2.2,1-4.3,2.1-6.2c1-1.9,2.3-3.7,3.8-5.3c2.9-3.3,6.8-5.6,11.1-6.5
								c-1.5,1.6-3,3-4.4,4.5s-2.8,2.9-4.2,4.3C694.6,142.7,692.1,145.7,689.1,148.9z"/>
							<path class="st6" d="M687.8,131.4c2.2,0.3,4.3,1,6.2,2.1c1.9,1,3.7,2.3,5.3,3.8c3.3,2.9,5.6,6.8,6.5,11.1
								c-1.7-1.5-3-3-4.5-4.4s-2.8-2.9-4.3-4.2C694,137,690.9,134.4,687.8,131.4z"/>
						</g>
						<path class="st4" d="M228,216.4c5-38.5,84.3-24.3,93.8-14.2s26.6,145.6,17.1,145.6h-73.2C260.3,347.9,222.6,257.5,228,216.4z"
							/>
						<path class="st8" d="M324.4,200.7c-8.9-7.1-26-8.1-41.3-9.3c-0.2,0-0.2,0.3,0,0.4c11.9,1.4,35.6,7.4,38.8,11.6
							c8.4,11,18,91.4,18.9,139.7c0,0.7,0.5,0.5,0.5-0.1C344.1,285,334.6,208.9,324.4,200.7z"/>
						<path class="st7" d="M837.7,216.4c-5-38.5-84.3-24.3-93.8-14.2s-26.6,145.6-17.1,145.6H800
							C805.3,347.9,843.1,257.5,837.7,216.4z"/>
						<path class="st9" d="M741.2,200.7c8.9-7.1,26-8.1,41.3-9.3c0.2,0,0.2,0.3,0,0.4c-11.9,1.4-35.6,7.4-38.8,11.6
							c-8.3,11-18,91.4-18.9,139.7c0,0.7-0.5,0.5-0.5-0.1C721.6,285,731,208.9,741.2,200.7z"/>
					</g>
				</g>
			</g>
			<rect x="133" y="49.6" class="st10" width="23.9" height="69.1"/>
			<rect x="127.4" y="183.3" class="st4" width="50.3" height="30"/>
			<path class="st1" d="M213.3,130.9H112.9V30.5h100.4V130.9z M116.9,126.9h92.4V34.5h-92.4V126.9z"/>
			<path class="st1" d="M213.3,266.8H112.9V166.4h100.4V266.8z M116.9,262.8h92.4v-92.4h-92.4V262.8z"/>
			<rect x="144.8" y="62.5" class="st1" width="36.6" height="36.6"/>
			<rect x="144.8" y="198.3" class="st1" width="36.6" height="36.6"/>
			<path class="st11" d="M543.9,442h-23.6c-3.6,0-6.6,3-6.6,6.6l0,0c0,3.6,3,6.6,6.6,6.6h9.9c2.9,0,5.2,2.3,5.2,5.2l0,0
				c0,2.9-2.3,5.2-5.2,5.2h-399c-2.9,0-5.2-2.3-5.2-5.2l0,0c0-2.9,2.3-5.2,5.2-5.2h9.4c3.6,0,6.6-3,6.6-6.6l0,0c0-3.6-3-6.6-6.6-6.6
				H119c-5.8,0-10.4-4.7-10.4-10.4l0,0c0-5.8,4.7-10.5,10.4-10.5h424.9c5.8,0,10.4,4.7,10.4,10.5l0,0
				C554.3,437.3,549.7,442,543.9,442z M544.3,465.6c2.9,0,5.2-2.3,5.2-5.2s-2.3-5.2-5.2-5.2s-5.2,2.3-5.2,5.2l0,0
				C539.1,463.3,541.5,465.6,544.3,465.6L544.3,465.6z"/>
			<path class="st12" d="M111.8,363.7c8,4.9,12.5,1.3,16.2,3.8l59.8-13.3c0-1.5,0-2.7,0-3.3c0.4-3.3,1.9-6.3,4.2-8.6
				c5.1-4.5,5.5-12.3,1-17.4c0-0.1-0.1-0.1-0.1-0.2c-1-1.1-2.1-1.9-3.4-2.6c-1.3-0.7-2-2.1-1.8-3.6c0.3-3.2-1.1-6-2.8-7.2
				c-1.9-1.3-3.7-3-8.4-1.2c-5.7,2.1-5.5-4.9-6.5-9.9c-1.5-7.2-14.9-9.9-24.7,5.1c0,0-1.4,3.5-8.4,3s-21.3-1.8-29,8.6
				s3.6,17,1.8,24.4S103.8,358.8,111.8,363.7z"/>
			<path class="st13" d="M131.3,308c-7.4-0.1-17.4,0.9-23.4,8.9c-4.1,5.5-2.8,9.9-1,14l0,0C106.9,330.9,106.3,311.1,131.3,308z"/>
			<path class="st13" d="M170.5,303.1V303c-0.1-1-0.3-2-0.5-2.9c-1.2-5.9-10.2-8.7-18.8-1.6l0,0
				C151.2,298.5,166.1,292.7,170.5,303.1z"/>
			<path class="st13" d="M177.5,309.7c0,0,7.9,0.4,10.2,7.9c0-2.9-1.2-5.3-2.8-6.4C183.2,310,181.6,308.5,177.5,309.7z"/>
			<g>
				<g>
					<defs>
						<rect id="SVGID_00000108277582189119367310000002263261336400937347_" x="95.2" y="43.4" width="488.9" height="378"/>
					</defs>
					<clipPath id="SVGID_00000169554786377715310390000014076335939187312552_">
						<use xlink:href="#SVGID_00000108277582189119367310000002263261336400937347_"  style="overflow:visible;"/>
					</clipPath>
					<g style="clip-path:url(#SVGID_00000169554786377715310390000014076335939187312552_);">
						<path class="st15" d="M333.4,466.6l-2.7,17.1c0,0,1.6,16.3-3.9,16.8s-95.1,8.8-95.1,4s51.7-17.7,52.6-19.9
							c0.3-0.7-0.2-8.9-1.1-20c-2-26-5.9-68-5.9-68l59.6-0.5L333.4,466.6z"/>
						<path class="st16" d="M330.8,483.8c0,0,1.6,16.3-3.9,16.8s-95.1,8.8-95.1,4s51.7-17.7,52.6-19.9c0.3-0.7-0.2-8.9-1.1-20
							c8.5,2.2,26.8,5.5,50.2,2L330.8,483.8z"/>
						<path class="st17" d="M283.4,484.4c-2.7-1-52.3,14.2-52.5,20s95.8-0.6,99-2.7s2.1-16.5,1.9-17.1S314,495.7,283.4,484.4z"/>
						<path class="st16" d="M330.9,500.7c-17.1,1.6-34.3,3.5-51.5,4.8c-15.7,1.2-33.3,2.1-48.8-1.5c-1.6-0.4-3.4,1.8-1.9,3.1
							c4.3,3.7,10,3.9,15.5,4.5c9.4,0.9,18.8,1,28.3,0.5c19.4-1,38.9-3.3,58.2-5.1C334.7,506.5,334.9,500.3,330.9,500.7z"/>
						<path class="st16" d="M273.5,495.2c-1.7-3.8-5.6-7.7-10-7.6c-0.7-0.1-1.2,0.4-1.3,1.1c0,0.4,0.1,0.8,0.4,1
							c1.5,1.2,3,2.3,4.3,3.6s2.5,2.8,3.9,4S274.2,496.7,273.5,495.2z"/>
						<path class="st16" d="M277.8,493.4c-1.7-3.8-5.6-7.7-10-7.6c-0.7-0.1-1.2,0.4-1.3,1.1c0,0.4,0.1,0.8,0.4,1
							c1.5,1.2,3,2.3,4.3,3.6s2.5,2.8,3.9,4S278.5,494.9,277.8,493.4z"/>
						<path class="st16" d="M282,491.6c-1.7-3.8-5.6-7.7-10-7.6c-0.7-0.1-1.2,0.4-1.3,1.1c0,0.4,0.1,0.8,0.4,1
							c1.5,1.2,3,2.3,4.3,3.6s2.5,2.8,3.9,4S282.7,493.1,282,491.6z"/>
						<path class="st18" d="M419.7,353.1c0,0-8.4-10.4-12.9-12.5s-67.6-58.1-84.3-66.4s-48.9,10-56.8,24.6s9.6,165.3,12.9,168.7
							s32.6,10.6,43,9.3s26.3-11.4,28.4-13.9s-11.7-65.5-10-66.8s8.6,24.6,41.9,39.7s68.3-10.4,80.4-20.9s17.5-63,17.5-63
							L419.7,353.1z"/>
						<path class="st19" d="M336.5,370.9c0-0.1-0.2-0.2-0.3-0.1c-0.1,0-0.1,0.1-0.1,0.2c1.2,5.1,2,10.3,2.4,15.5
							c-2.1-8.4-5.6-16.2-11.6-22.7c-0.2-0.2-0.5,0.1-0.3,0.2c7,9,9.8,20.2,12.5,31.1c0,0.5,0,1,0.1,1.5c0,0.3,0.4,0.6,0.7,0.5
							c0.3,0,0.5-0.3,0.5-0.5C340.8,387.9,339,379.3,336.5,370.9z"/>
						<path class="st19" d="M329.5,375.6c0-0.1-0.1-0.1-0.1,0c1.5,29.4,6.4,58.8,13.2,87.4c0.1,0.4,0.8,0.2,0.6-0.2
							C337.1,433.9,333,404.9,329.5,375.6z"/>
						<path class="st19" d="M472.3,359.2c-2.6,14.7-6.4,31-15.1,43.5c-8.5,12.3-22,20.7-36.8,23.7c-15.8,3.2-33.3,0.7-46.9-8
							c-12.1-7.7-21.6-19.5-30.2-30.8h-0.1c7,9.4,13.6,18.8,22.7,26.4c8.8,7.5,19.6,12.4,31,13.9c23.5,3.2,48.5-6,61.5-26
							c8.1-12.5,11.8-28.2,14.3-42.7C472.9,359,472.3,358.9,472.3,359.2z"/>
						<path class="st20" d="M409.6,313.3C393,327.5,372,336.7,352,342.7c-21.2,6.3-43,10-65,11.2c-3.6,2.7-21.6-2.2-31.5-6.4
							c-10.4-4.4-19.8-4.5-19.1-10.6c0.7-5.6,9.4-9.5,24.5-11.7c9.6-1.4,23.5,0.9,26.6-0.5c6.4-2.8,17.6-9.3,29.5-16.7
							c20-12.4,41.6-27.4,44.6-31.4c2.6-3.5,15.8-45.4,20.1-74.6c6.7-44.2,44.3-40.8,51.2-19.2C442.2,211.4,430.7,295.2,409.6,313.3
							z"/>
						<path class="st21" d="M409.6,313.3C393,327.5,372,336.7,352,342.7c-4.5-3-8.8-6.1-13-9.4c-6.5-5.1-14.1-10.5-18.6-17.6
							c-1.5-2.4-2.6-5-3.4-7.7c20-12.4,41.6-27.4,44.6-31.4c2.6-3.5,15.8-45.4,20.1-74.6c6.7-44.2,44.3-40.8,51.2-19.2
							C442.2,211.4,430.7,295.2,409.6,313.3z"/>
						<path class="st10" d="M330.7,291.7c-3.3,2.7,3.1,44.2,18.3,57.3c2.1,1.8,58.8-24.6,70.1-40.6s18-67.4,18.9-92.4
							s-3.1-48.5-21.5-52s-32,11.9-37.3,37s-12.5,62.7-15.1,67.6S333.8,289.1,330.7,291.7z"/>
						<path class="st22" d="M324.1,293.9c-1.6,6.8,2,30.5,5.1,36.8s17.8,19.5,20.4,19.7s21-6.9,22.1-8s-12.9-18.1-15.4-25.3
							s-4.8-38-6.9-39.4S325.1,289.9,324.1,293.9z"/>
						<path class="st16" d="M560.3,454.5c0,0,9.6-13.3,14-10s77,56.5,73.8,60.1s-50.5-21.1-52.5-20c-0.7,0.3-25.3,15.4-39,16.5
							c-4.9-7.3-25.5-47.4-23.4-53.4L560.3,454.5z"/>
						<path class="st17" d="M596.1,485.5c1.4,2.6,48.6,24.1,52.5,19.9s-72.1-63.2-75.9-63.7s-12.5,11-12.8,11.5
							S580.7,456.6,596.1,485.5z"/>
						<path class="st16" d="M571.4,441.7c13.9,10.2,28,20.1,41.7,30.5c12.6,9.5,26.3,20.5,35.5,33.5c1,1.4,3.7,1,3.5-1
							c-0.8-5.6-4.9-9.5-8.6-13.6c-6.4-6.9-13.4-13.3-20.8-19.1c-15.2-12.1-31.3-23.3-47-34.8C572.5,434.8,568.2,439.3,571.4,441.7z
							"/>
						<path class="st16" d="M610.7,483.9c-1.3,4-0.9,9.5,2.5,12.4c0.5,0.5,1.2,0.4,1.7,0c0.2-0.3,0.4-0.6,0.3-1
							c-0.3-1.8-0.7-3.7-0.9-5.5s-0.1-3.8-0.3-5.6S611.2,482.3,610.7,483.9z"/>
						<path class="st16" d="M606.3,482.4c-1.3,4-0.9,9.5,2.5,12.4c0.5,0.5,1.2,0.4,1.7,0c0.2-0.3,0.4-0.6,0.3-1
							c-0.3-1.8-0.7-3.7-0.9-5.5s-0.1-3.8-0.3-5.6S606.8,480.8,606.3,482.4z"/>
						<path class="st16" d="M602,480.9c-1.3,4-0.9,9.5,2.5,12.4c0.5,0.5,1.2,0.4,1.7,0c0.2-0.3,0.4-0.6,0.3-1
							c-0.3-1.8-0.7-3.7-0.9-5.5s-0.1-3.8-0.3-5.6S602.4,479.3,602,480.9z"/>
						<path class="st18" d="M544.4,351.9c0,0,6.5,22.4,5.3,39.4c-0.8,12.2-9.5,38.4-33.7,46.7c-16.7,5.8-114.7,22.8-114.7,22.8
							s66.8-20.6,82.4-23.4s78.5-2.8,84.1-1.1s14.5,30.6,16.1,40.6s-9.5,24.5-13.4,25.6s-201,10.3-218.6,5.6
							c-33.9-9.2-41.9-45.1-38-62.9s84-61.5,89-66.4s8-26.5,8-26.5L544.4,351.9z"/>
						<path class="st19" d="M522.5,434.6c-10.4,0.3-21.8,1.1-32.1,1.7c-9.7,0.6-19.5,0.9-29.1,2.3c-10.7,1.6-21.3,4.1-31.7,7.5
							c-5.9,0.1-11.8,1.1-17.4,2.9c-0.1,0,0,0.1,0,0.1c4.6-0.9,9.2-1.5,13.9-1.9c-6.4,2.1-12.7,4.4-19,6.7c-0.1,0,0,0.1,0,0.1
							c17.5-5.5,35.5-11,53.9-13.7c20-2.9,41.6-3.3,61.8-5.2C523.5,435.2,523.4,434.6,522.5,434.6z"/>
						<path class="st19" d="M570.6,442.7c-46.3-0.2-93-1-138.7,6.9c-0.1,0,0,0.1,0,0.1c46-6.6,92.4-7,138.7-6.7c0.1,0,0.1,0,0.2-0.1
							C570.7,442.8,570.6,442.7,570.6,442.7L570.6,442.7z"/>
						<path class="st19" d="M532.3,356.5C532.3,356.4,532.2,356.5,532.3,356.5c1.4,14.1,2.1,30.4-2.5,44.1s-18,22.2-30.7,27.3
							c-25.4,10-53.4,7.6-78.8,17.7c-0.4,0.2-0.8,0.7-0.3,0.5c27.5-9.7,58.3-7.1,84.9-19.7c11-5.2,21.8-13.5,25.7-25.5
							C535.2,387,534.6,370.7,532.3,356.5z"/>
						<path class="st19" d="M503.9,393.1c-8.7-2.1-18-2.1-26.2-5.9c-8.6-4-12.6-12.2-15.4-20.3c-0.2-0.6-1.2-0.4-1,0.3
							c2.2,8.5,4.4,16.8,13.2,21.5c8.2,4.3,20.1,5.4,29.4,5.1c0.2,0,0.4-0.1,0.4-0.3S504.1,393.1,503.9,393.1z"/>
						<path class="st19" d="M392.7,386.2c-2-6.8-3.2-13.8-3.5-20.9c0-0.1-0.1-0.3-0.3-0.3s-0.3,0.1-0.3,0.3c-0.8,7,0,14.1,2.2,20.8
							c-13.1,7.4-44.2,28.2-54.9,35.6c-8.8,6-17.5,13.1-21.6,23.3c-4.3,10.8-0.9,22.1,3,32.4c0,0.1,0.2,0.2,0.3,0.2
							c0.1,0,0.2-0.2,0.2-0.3c-3.3-12.2-6.3-24.4,0.6-36c5.9-9.9,16-16.1,25.4-22.3C353.8,412.3,393.1,386.1,392.7,386.2z"/>
						<path class="st10" d="M423.4,159.9c-29.1,3.3-39.4,34.4-40.8,69.6c-2.2,57.9,0.8,149.3,6.3,156.4s47.7-7,97.9-7
							c28.4,0,50.1,40.8,59.6,31.6c8.9-8.7,9.9-39.5,7.5-55.7c-3.2-22.8-62.3-146.4-71-161.1S448.6,157,423.4,159.9z"/>
						<path class="st22" d="M382.5,230.6c0-0.1-0.1-0.2-0.2-0.2s-0.2,0.1-0.2,0.2c-0.2,5.8-0.5,11.7-0.7,17.5
							c-0.4-3.3-0.7-6.6-1-9.9c0-0.2-0.4-0.2-0.3,0c0.2,4.5,0,9.7,1.2,14.2c-1.5,44.3-1.4,88.8,6.1,132.6c0.2,0.9,1.5,0.5,1.4-0.4
							C381.2,333.6,382.1,282,382.5,230.6z"/>
						<path class="st22" d="M425.5,150.4c4,0.3,12.4,4.8,18.5,12c2.3,2.7-5.8,42.9-25.7,63.7c-1.8,1.9-13.1-24.2-14.7-24.2
							s-12.1,24.4-12.5,24.2s-7.4-21.1-7.1-27.8s5.3-24.2,12-33.2S419.9,150,425.5,150.4z"/>
						<path class="st23" d="M433.2,163.3c-1.8,14.7-12.7,36.2-23.3,37.7s-17.1-6.2-18-11c-0.8-4,0.6-8.1-0.4-12.9
							c-0.2-1-0.4-1.9-0.8-2.8c-4.5-11.6-14.1-23.9-14.1-23.9l33.3-23.6c0,0,3.7-4.3,4.2-3c2.6,6.6,6,13.6,9.2,19.9
							C428.6,154.1,433.3,162.3,433.2,163.3z"/>
						<path class="st20" d="M394.9,65.1c11.9,11.5,29.7,60.4,26.3,75.2c-3.3,14.3-34.5,35.8-55,24.7c-19.9-10.8-38.1-68.6-31.6-82.8
							C344.3,61.3,377.4,48.1,394.9,65.1z"/>
						<path class="st21" d="M396.8,70.1c7.1,3.8,8.9,11.1,11.9,19.2l10.8,29.2c6.9,21.1,0.2,30.3-11.6,39.2
							c5.5-6.5,9.2-15.6,8.9-23.5c-0.4-10.3-4.5-20.2-11.4-27.8c-3.1-3.5-9.2-25.5-12.2-21c-1.1,1.7-8.5,4.7-10.9,2.7
							c-2.8-2.2,1.1-3.5-0.2-7.3c0,0-3.7,9.2-23.2,23c-7.3,5.2-16.3,24.9-16.3,24.9c-0.4-5.6,0.6-36.2,2.9-41.3
							c7.7-2.9,26.2-25.2,34.1-29.5C382.7,56,391.5,69.6,396.8,70.1z"/>
						<path class="st24" d="M329.2,252.9c-2.3,3.7-5.9,6.5-10,8c3.2,6.4,5.3,13.2,6.4,20.3c0.6,3.9,2.9,18.9-14.9,28.1
							c-1.2,0.7-2.6,1.3-4,1.9c-2.1,0.9,19.4,13.1,23,14.9s9.6,7.9,5.3,12.4s-15-0.1-15-0.1c5.6,9.6-1,18.4-1,18.4
							c1.6,2.2,13.8,9.9,12.1,15.6c-4.6,14.6-19.4,17.7-25.3,16.7s-11.4-20.5-11.4-20.5c-7.4,1.6-19.8,1.6-26.5-1.8
							c-0.3-0.2-0.7-0.3-1-0.5h-0.1c-7.6-4.8-9.9-11.3-10.4-16.1v-0.5c-0.2-2.1,0-4.1,0.4-6.1c0.8-14.8,10.8-28.1,11.1-28.6l0,0
							c-6.9-1.4-13.9-4.2-18.6-9.4c-3.4-3.7-5.4-8.5-5.8-13.5c-0.1-0.8-0.1-1.6-0.1-2.5c-0.2-8.6,1.3-17.1,4.5-25.1
							c-3.6-1.1-6.8-3.3-9.2-6.2c-6-7.6-2.6-18.5,8.7-21.1c7.6-1.8,12.6,4.2,15,8.3c0.3-0.2,0.6-0.4,0.9-0.6
							c4.9-3.3,10.5-5.5,16.4-6.2c4.8-0.5,9.7-0.1,14.3,1.3c3.3,0.9,6.4,2.3,9.3,4l0.4,0.2c1.7-4.2,5.9-12,14.4-11
							C329.6,234.2,334.3,244.7,329.2,252.9z"/>
						<path class="st24" d="M267,319.2c-5.9,6.8-9.5,15.3-10,24.3c-2,0.5-4.1,0.8-6.2,1c-10.7,0.9-12.8-3.9-11.3-8.2
							c0.9-2.7,4-5.4,7.9-7.8C255.3,323.4,266.4,319.5,267,319.2z"/>
						<path class="st10" d="M267,319.2c-5.9,6.8-9.5,15.3-10,24.3c-2,0.5-4.1,0.8-6.2,1c1-9.9-3.4-16-3.4-16l0,0
							C255.3,323.4,266.4,319.5,267,319.2z"/>
						<path class="st25" d="M308.5,247.3c0,0,2.1-8.5,8.7-7.8s9.2,6.7,6.3,11.4c-1.8,2.8-4.8,4.7-8.1,5.1L308.5,247.3z"/>
						<path class="st25" d="M258.1,249.8c0,0-3.1-8.2-9.5-6.7s-8.4,7.7-5,12c1.8,2.5,4.7,4,7.8,4.2L258.1,249.8z"/>
						<path class="st24" d="M267,366.3c-5.3,6.7-12.4,11.7-20.4,14.5c-15.6,5.2-22.7-20.4-14.1-21.6c7.3-1,20.4-7.3,24.1-9.2
							c0.5,4.8,2.7,11.3,10.3,16.1L267,366.3z"/>
						<path class="st19" d="M246.6,329.9c2.7,3.8,3,9.1,2.1,13.5c-0.3,1.6,2.2,1.9,2.5,0.3c1-5.1,0.4-11-2.6-15.4
							C247.7,326.9,245.7,328.5,246.6,329.9z"/>
						<path class="st25" d="M305.7,387.5c0.8-2.5,2-4.9,3.6-6.9c1.6-2.1,3.5-4,5.7-5.5s4.5-2.7,7.1-3.5c2.5-0.8,5.1-1.2,7.7-1.3
							c-2.5,0.4-5,1.1-7.5,2c-1.2,0.5-2.4,1-3.5,1.6c-0.6,0.3-1.1,0.6-1.7,0.9s-1.1,0.7-1.6,1.1c-2.1,1.5-4,3.2-5.6,5.1
							C308.3,383,306.8,385.2,305.7,387.5z"/>
						<path class="st25" d="M311.6,361c0.9,0.8,1.8,1.7,2.6,2.6c0.8,0.9,1.6,1.9,2.4,2.8s1.5,1.9,2.2,3c0.7,1,1.4,2.1,2,3.1
							c-0.9-0.8-1.8-1.7-2.6-2.6c-0.8-0.9-1.6-1.9-2.4-2.8s-1.5-2-2.2-3S312.2,362.1,311.6,361z"/>
						<path class="st25" d="M282.2,315.5c-1.2-1.3-2.2-2.6-3.1-4.1c-0.2-0.4-0.5-0.7-0.6-1.1l-0.6-1.1c-0.4-0.8-0.8-1.5-1.1-2.3
							c-1.4-3.2-2.4-6.4-3.2-9.8c-1.5-6.7-2.2-13.6-2.1-20.5V274c0-0.9,0.1-1.7,0.1-2.6s0.1-1.7,0.2-2.6l0.2-2.6
							c0.3-3.4,0.9-6.8,1.7-10.2c0.8-3.3,1.9-6.6,3.3-9.8c0.7-1.6,1.6-3.1,2.5-4.5c0.9-1.5,2.1-2.7,3.5-3.8
							c-0.7,0.5-1.3,1.1-1.8,1.8c-0.3,0.3-0.5,0.7-0.8,1s-0.5,0.7-0.7,1.1c-0.9,1.5-1.6,3-2.3,4.5c-1.3,3.1-2.3,6.4-3,9.7
							c-1.4,6.7-2.1,13.5-2,20.3c-0.1,6.8,0.5,13.6,1.9,20.3c0.7,3.3,1.7,6.6,3,9.8c0.3,0.8,0.6,1.6,1,2.3l0.5,1.1
							c0.2,0.4,0.4,0.8,0.6,1.1C280.2,312.8,281.1,314.2,282.2,315.5z"/>
						<path class="st25" d="M230.8,361.3c1.9,0.6,3.8,1.6,5.4,2.8c1.7,1.2,3.1,2.7,4.3,4.4c1.2,1.7,2,3.6,2.5,5.6c0.2,1,0.4,2,0.4,3
							c0.1,1,0,2-0.1,3c0-2-0.3-4-0.8-6c-0.3-1-0.6-1.9-1-2.8s-0.9-1.8-1.5-2.6c-1.1-1.7-2.5-3.1-4.1-4.4c-0.8-0.6-1.6-1.2-2.5-1.7
							C232.7,362.1,231.8,361.7,230.8,361.3z"/>
						<path class="st25" d="M233.3,362.4c1-0.3,1.9-0.5,2.9-0.8s1.9-0.6,2.9-0.9c1.9-0.6,3.8-1.3,5.6-2.1s3.6-1.6,5.4-2.6
							c0.9-0.5,1.7-1,2.6-1.5s1.6-1.1,2.5-1.7c-1.5,1.4-3.1,2.6-4.8,3.6s-3.5,1.9-5.4,2.7c-1.9,0.8-3.8,1.4-5.7,2
							C237.2,361.6,235.2,362.1,233.3,362.4z"/>
						<path class="st19" d="M312.9,315.3c-25.2,13.3-48.5,5.2-48.5,5.2c-1.7-6.1,3.6-5.6,3.6-5.6c26.2,2.7,38.6-3.8,38.6-3.8
							C312.5,309,312.9,315.3,312.9,315.3z"/>
						<path class="st10" d="M331.1,326.8c-3.8,3.3-6.3,7.9-6.9,12.9l-1.2-0.4l-3-1c2.3,3.1,4,8.9,4.6,11.4c0.2,0.7,0.3,1.2,0.3,1.2
							c-4.1,1.9-8.2,3.5-12.5,4.9c-39,12.6-60.2-5.6-60-6.4c0.1-0.4,0.1-0.7,0.2-1.1c2.4-12.8,11.9-27.6,11.9-27.6
							c5.9,1.8,12,2.6,18.1,2.5c10.6-0.1,21-2.7,30.4-7.7l17,10.8L331.1,326.8z"/>
						<path class="st19" d="M260.9,327.1c-1.5,2-2.8,4.2-4.1,6.4c0-0.2,0.1-0.4,0.1-0.7c0.2-1.1,0.5-2.1,0.9-3.1
							c0-0.2-0.2-0.3-0.2-0.1c-0.7,1.6-1.2,3.3-1.4,5.1c-1.7,3.1-2.7,6.5-3,10.1c0,0.1,0.1,0.2,0.2,0.2c0.1,0,0.2-0.1,0.2-0.1
							C255.1,338.6,257.6,332.7,260.9,327.1C261,327.1,260.9,327,260.9,327.1z"/>
						<path class="st19" d="M331.9,327.8c-3.4,3-6.3,7.4-6.5,12c-0.1,1.6-2.6,1.3-2.5-0.3c0-0.1,0-0.2,0-0.2
							c0.3-5.1,3.4-9.8,7.1-13.1l0.3-0.3C331.5,324.7,333.1,326.8,331.9,327.8z"/>
						<path class="st19" d="M326.4,351.6c-3.1,1.5-6.2,2.8-9.5,3.8l-0.9,0.3c-6.6,2.1-13.3,3.7-20.2,4.6c-8.3,1.1-16.8,1.7-25-0.2
							c-7.4-1.8-15.3-5.2-20.7-10.8c-1.1-1.2,0.9-2.7,2-1.6l0.4,0.4c1.9,1.7,4,3.2,6.2,4.5c12.8,7.5,27.6,7,41.8,4.4
							c2.7-0.5,5.4-1,8.1-1.7c5.5-1.3,10.8-3.2,15.9-5.6l0.8-0.4C326.8,348.5,327.8,350.8,326.4,351.6z"/>
						<path class="st26" d="M319.9,338.3c-1.3-0.2-2.5-0.5-3.7-0.9s-2.4-0.9-3.5-1.4c-1.2-0.5-2.3-1.1-3.4-1.7s-2.2-1.3-3.2-2.1
							c1.2,0.4,2.4,0.9,3.5,1.4l3.5,1.5c1.1,0.5,2.3,1,3.4,1.5S318.8,337.7,319.9,338.3z"/>
						
							<ellipse transform="matrix(0.9968 -8.019723e-02 8.019723e-02 0.9968 -23.0995 23.2668)" class="st25" cx="278.1" cy="299.2" rx="14.9" ry="12.3"/>
						<path class="st12" d="M279.6,298.3c0-0.1-0.1-0.1-0.1-0.1s-0.1,0-0.1,0.1c0,0.8,0,1.6-0.2,2.3c-0.2,1.1-1.2,1.9-2.3,1.9
							c-2-0.1-3-1.6-3.8-2.8c0-0.1-0.2,0-0.2,0.1c0.5,1.6,2.1,3.7,4.5,3.4C280.1,302.7,280.1,299.8,279.6,298.3z"/>
						<path class="st12" d="M275.3,292.2c0-0.1-0.2-0.1-0.2,0c-0.2,3.6,0.3,7.3,1.6,10.7c0.1,0.2,0.5,0.1,0.4-0.1
							C276.4,299.2,275.7,295.7,275.3,292.2z"/>
						<path class="st12" d="M268.5,291.3c0.2,1.4,5.5,3.3,7.1,3s6.4-3.2,6.2-4.6c-0.2-1.6-3.6-2.1-7-1.8
							C272.3,288.1,268.2,289.7,268.5,291.3z"/>
						<path class="st12" d="M259.4,287.2c-5.9-0.1-5.5,9.8-0.1,9.9S264.3,287.3,259.4,287.2z"/>
						<path class="st12" d="M297.2,285.6c-5.8,0.7-4.2,10.4,1.1,9.8S302.1,285,297.2,285.6z"/>
						<path class="st12" d="M258.1,278.6c-1,0.1-1.9,0.6-2.5,1.4c-0.4,0.6-0.3,1.3,0.3,1.7c0.2,0.1,0.3,0.2,0.5,0.2
							c0.7,0,1.4-0.1,2.1-0.3C260.5,281.3,260,278.1,258.1,278.6z"/>
						<path class="st12" d="M296.9,275.9c1-0.1,2,0.3,2.7,0.9c0.5,0.5,0.5,1.3,0,1.8c-0.1,0.1-0.3,0.2-0.5,0.3
							c-0.7,0.1-1.4,0.1-2.1,0.1C295,279,294.9,275.8,296.9,275.9z"/>
						<path class="st20" d="M444.3,331.4c-22.1,15.8-54.2,23.4-82.3,27c-19.9,2.5-40,3.5-60.1,3c-3.9,2.3-21.3-4.1-30.9-9.1
							c-10-5.3-19.2-6.2-18-12.3c1.1-5.6,10.2-8.7,25.4-9.6c9.7-0.5,23.4,2.9,26.5,1.8c7-2.4,22.6-8.5,39.1-15.4
							c25.1-10.5,52.5-22.7,55.7-26.3c2.9-3.2,19.6-43.9,26.5-72.6c10.5-43.5,47.7-36.8,52.7-14.8
							C485.6,232.7,466.9,315.2,444.3,331.4z"/>
						<path class="st21" d="M444.3,331.4c-22.1,15.8-54.2,23.4-82.3,27c-11.2-11-17.6-25.9-18-41.5c25.1-10.5,52.5-22.7,55.7-26.3
							c2.9-3.2,19.6-43.9,26.5-72.6c10.5-43.5,47.7-36.8,52.7-14.8C485.6,232.7,466.9,315.2,444.3,331.4z"/>
						<path class="st10" d="M367.6,303c-3.5,2.4-0.7,44.3,13.2,58.7c1.9,2,60.7-19.4,73.4-34.4s23.8-65.6,26.8-90.4
							s1.1-48.6-16.9-53.7s-33,9.1-40.3,33.6S406,278.3,402.9,283S370.9,300.8,367.6,303z"/>
						<path class="st22" d="M485.2,260.1c-2.2,2.8-4.5,5.7-6.5,8.7c2.5-8.2,5.1-16.4,8.1-24.4c0.1-0.4-0.5-0.5-0.6-0.2
							c-5.2,13.5-10.6,26.9-15.1,40.7c-4,12.6-7.1,28.9-15.7,39.1c-4.4,5.2-24.7,17.3-35.8,22.2c-12.7,5.7-25.5,10.5-38.5,15.3
							c-0.2,0-0.2,0.2-0.2,0.4c0,0.2,0.2,0.2,0.4,0.2c32.2-5.8,72.2-31,76.5-36.8c7.1-9.7,11.4-24.8,14.7-36c1.5-5,3-10,4.5-15.1
							c2.9-4.6,5.4-9.3,8.5-13.8C485.8,260.1,485.4,259.8,485.2,260.1z"/>
						<path class="st22" d="M417.8,237.7c0-0.1,0-0.2-0.1-0.2s-0.2,0-0.2,0.1c-1.2,3.6-2.5,7.1-3.8,10.7c0-2.1,0-4.1-0.1-6.2
							c0-0.1-0.1-0.1-0.1-0.1c-0.1,0-0.1,0.1-0.1,0.1c0,3.9-0.8,7.7-1.5,11.5c-1,2.9-4.9,15.3-7,22.7c-0.7,1.6-1.4,3.2-2.2,4.8
							c-2.3,4.6-6.9,6.3-11.3,8.6c-8.2,4.2-16.6,8.3-24.4,13.4v0.1c9.7-3.7,19-8.7,28.2-13.4c3-1.5,6.3-3,8.1-6
							c1.5-2.7,2.7-5.6,3.5-8.6C410.8,263.9,415.9,245.4,417.8,237.7z"/>
						<path class="st22" d="M355.8,306.1c-2.2,6.8-0.6,31.7,1.9,38.4s16.1,21.7,18.6,22.1s21.5-5.2,22.8-6.3s-11.3-19.8-13.1-27.5
							s-1.5-39.6-3.5-41.3S357.1,302.1,355.8,306.1z"/>
						<path class="st6" d="M147.2,446.4c3.8-1.6,77.8,1.6,79.3,0.9s8.8-17.9,11.9-16.8s-0.6,35.2-2.8,36.5S130,493.9,125.4,494
							S136.1,451.1,147.2,446.4z"/>
						<path class="st20" d="M155.8,412.6c4.1,1.9,30.3,4.5,39.5,0.7s33.5-23.5,37.5-29.6s-0.8-13.3-9.6-9s-31.2,15.5-33.8,16.7
							s-22.8-0.5-29.2-0.5C145.7,391,142.1,406.4,155.8,412.6z"/>
						<path class="st10" d="M216.9,377.4c2.4-0.5,10.3,11.3,9,16.5c-0.9,3.4-24,18.1-29.3,20c-8.3,2.9-24,6.5-40-0.2
							s-16-22.4-0.8-23.4c10.8-0.7,32.7-0.7,34.7-1S214.6,377.9,216.9,377.4z"/>
						<path class="st10" d="M155.3,391.4c9.9,4.1,26.9,28.5,33.6,51.5s5.5,30.1-9.6,42.6c-19.9,16.5-19.9,27.3-31.1,30.2
							c-14,3.6-25.9-0.8-31.2-6.3c-11.2-11.6-13.3-24.6-6.5-47.8c4-13.6,10.1-46,16.1-57.4C133.4,391,145.1,387.1,155.3,391.4z"/>
						<path class="st27" d="M192.5,451.8c-2.1-9.4-6.2-18.1-11-26.4c-0.6-3.3-2.2-6.7-3.4-9.8c0-0.1-0.1-0.1-0.2-0.1
							c-0.1,0-0.1,0.1-0.1,0.2c0.5,1.9,1,4,1.5,6.1c-2-3.4-4.2-6.8-6.3-10.1c-0.1-0.1-0.2,0-0.2,0.1c10.4,18.8,32.1,52,9.9,70
							c-0.1,0.1-0.2,0.3-0.1,0.4c0.1,0.1,0.3,0.2,0.4,0.1C193.9,476.8,194.9,462.4,192.5,451.8z"/>
						<path class="st6" d="M162.2,473.5c4.3-0.7,61.2,11.8,80.4,20.3c1.6,0.7,13.4-16,16.1-14.1c2.8,1.9-9.2,35.6-11.8,36.4
							s-114.1,5.3-121.7-1.7C121.7,511.1,149.8,475.6,162.2,473.5z"/>
						<path class="st22" d="M244.2,509.5c-15.7,0.5-31.4,1.6-47.1,2.3l-5.8,0.3c-0.1-0.6-0.2-1.3-0.3-1.9c0-0.3-0.5-0.3-0.5,0
							c0,0.6,0.1,1.3,0.1,1.9l-1.7,0.1c-0.1-0.7-0.1-1.5-0.1-2.2c0-0.4-0.6-0.4-0.6,0c0,0.7-0.1,1.5-0.1,2.2
							c-13.1,0.6-26.4,1-39.2-1.4c-6-1.1-11.7-3.2-17-6.3c0.2-0.2,0.4-0.4,0.5-0.6c0.1-0.1,0.1-0.3-0.1-0.4c-0.1-0.1-0.2-0.1-0.3,0
							c-0.3,0.2-0.6,0.3-0.9,0.6c-0.5-0.3-0.9-0.6-1.4-0.9c0.5-0.4,1.1-0.8,1.6-1.3c0.2-0.1,0.2-0.3,0.1-0.5
							c-0.1-0.2-0.3-0.2-0.5-0.1c0,0-0.1,0-0.1,0.1c-0.6,0.5-1.1,1-1.6,1.5c-5.8-3.9-10.1-9.6-12.1-16.3c-2.4-8.2-0.8-16.9,1.1-25
							c1.5-6.5,2.9-12.9,4.1-19.4c0.3,0,0.6-0.1,0.8-0.1c0.2,0,0.4-0.2,0.4-0.4s-0.2-0.4-0.4-0.4h-0.6c0-0.2,0.1-0.5,0.2-0.7
							l0.2-1.2c0.4,0,0.9,0,1.3,0c0.3,0,0.4-0.6,0.1-0.6c-0.4-0.1-0.8-0.1-1.3-0.1c2.6-14.4,5.5-28.9,13.7-41.4
							c0.1-0.1-0.1-0.2-0.2-0.1c-8.2,11.3-11.3,25-13.8,38.5l-0.6,2.9c-0.4,0-0.8,0-1.2,0c-0.2,0-0.3,0.4,0,0.4l1.2,0.2l-0.4,2.2
							c-0.6,0-1.2,0.3-1.6,0.6v0.1l0,0c0.5,0.2,1,0.2,1.4,0.1c-1,5.4-2.1,10.7-3.3,16c-1.8,7.5-3.7,15.4-2.8,23.1
							c0.8,9,5.7,17.1,13.2,22c-0.6,0.6-1.2,1.1-1.8,1.7c-0.1,0.1,0.1,0.4,0.2,0.2c0.7-0.5,1.4-1.1,2.1-1.6c0.5,0.3,1,0.6,1.4,0.9
							c-0.4,0.4-0.8,0.8-1.1,1.1c-0.1,0.1-0.1,0.2,0,0.3s0.2,0.1,0.3,0c0.5-0.3,1-0.7,1.5-1.1c15,8.4,37.4,8.4,52.7,7.8l4.3-0.2
							c0,0.9,0.2,1.8,0.5,2.6c0.1,0.2,0.3,0.3,0.4,0.2c0.1,0,0.2-0.2,0.2-0.3c0-0.9-0.1-1.7-0.2-2.5l1.7-0.1c0,0.8,0.1,1.7,0.3,2.5
							c0.1,0.4,0.7,0.3,0.7-0.1c0-0.8-0.1-1.6-0.2-2.4c17.6-0.7,35.3-1.7,52.9-2.9C244.3,509.6,244.2,509.5,244.2,509.5z"/>
						<path class="st20" d="M139.9,436.1c4.5,2.5,34.4,7.9,45.2,4.4s40.6-23.9,45.7-30.5s0.3-15.3-10.2-11.2s-37.2,14.9-40.3,16
							s-26.1-2.6-33.4-3.2C130.3,410.4,124.8,427.6,139.9,436.1z"/>
						<path class="st10" d="M206.3,404.2c2.9,0.9,14,18.5,8.8,22.2s-24.4,17.5-31.9,18.5s-33.1,0.2-42.1-5
							c-12.9-7.4-22-24.1-11.7-30.3c11.1-6.8,39.9,3.7,46,3.9S201.7,402.8,206.3,404.2z"/>
						<path class="st22" d="M148.6,408.4c-0.1,0-0.2-0.2-0.1-0.3c0-0.1,0.1-0.2,0.2-0.2c4.3,0.6,8.6,1.4,12.9,2.5
							c4.2,1,8.6,1.7,12.7,2.9c1-0.3,2-0.3,2.9,0c1.5-1,3.2-1.8,4.9-2.4c5.6-2.2,11.4-4,17.2-5.6c0.1,0,0.1,0.1,0,0.2
							c-4.8,2.3-10,4-15,5.9c-2.4,0.8-4.7,1.8-6.9,3.1c-2.4,1.5-3.9,3.7-5.8,5.8c-0.2,0.2-0.6,0-0.5-0.3c1.2-2.3,2.9-4.3,4.9-5.9
							c-1.1,0-2.3,0.3-3.3,0.8c-1.5,0.9-2.8,2.1-4.3,3c-0.2,0.1-0.6-0.1-0.3-0.4c1.4-1.5,3-2.8,4.8-3.8c-3.8-0.3-7.5-1-11.2-2
							C157.5,410.7,153,409.6,148.6,408.4z"/>
						<path class="st22" d="M147.6,443c4.7-0.1,9.4,0.8,14.1,1.5c5.5,0.8,17.5,0.7,22.8-1.2c10.5-3.7,21.8-12.6,31.5-18h0.1v0.1
							c-5.2,4.5-10.9,8.4-16.8,11.8c-4.7,2.7-9.7,5.6-14.8,7.3c-4.5,1.5-15.4,2-19.9,1.3l-3.1-0.4c-2.6,0.6-5.3,0.8-7.9,1.2
							c-0.2,0-0.3-0.3-0.1-0.4c1.8-0.5,3.6-0.9,5.4-1.2c-3.7-0.5-7.4-1.1-11.2-1.6C147.6,443.4,147.5,443.2,147.6,443
							C147.5,443.1,147.6,443,147.6,443z"/>
						<path class="st22" d="M131.3,423.6c-0.1-6.4,3.4-15.1,10.7-15.7c0,0,0.1,0.1,0,0.1l0,0c-7.7,1.1-10.9,10.5-10.1,17.2
							c0.8,7,5.6,12.8,11.6,16.2c0.1,0,0,0.2-0.1,0.1C136.5,438.2,131.5,431.5,131.3,423.6z"/>
						<path class="st23" d="M158.9,400.2c0,0,0.2,5.1-4.8,5c-6.2-0.1-14.3-8.5-15-9.9c-0.7-3.2-1.2-6.5-1.3-9.9V384
							c0-0.5,0-0.9,0-1.3s0-1.1,0-1.7c0.1-4.3,0.2-7.9,0.2-7.9l2.9,1.2l20.3,8.9l-1.5,10.7l-0.1,0.7v0.2l-0.4,3.2l0,0L158.9,400.2z"
							/>
						<path class="st20" d="M190.2,356.8c0.8,22.7-21.2,28.5-30.3,30c-8.6,1.3-22.6-1.2-30.5-11.7c-8.6-11.4-13.4-39.8-3.3-51
							c12.5-14,33-15.5,44.5-8.1c5.7,3.7,12.8,16.6,16.7,27.8c1.2,3.4,2.1,6.8,2.7,10.4C190.1,355,190.2,355.9,190.2,356.8z"/>
						<path class="st21" d="M121.5,337.2c-1.6,5.2-1.8,14.8,2,24.4c3.8,11.1,5.7,12.3,5.7,12.3c8.6,11.5,20.4,14.8,30.3,13.5
							c-5.8-0.5-11.9-4.2-15.5-8.2c-5.9-6.4-4.6-18.4-4.7-23.7c-0.1-7.1-3.8-10.6-4.5-14.6c-0.9-5.5,1-11,2.3-11.4
							c5.2-1.9,9.1,8.8,22.1,7.1c3-0.4,5.6-2.8,11.4-2.1c2.6,0.3,5.8,4.2,8.6,5.2c2.1,0.7,4.3,0.4,6.2-0.7
							c-2.5-2.9-0.7-15.2-4.2-16.5c-5.1,2.2-46.6-0.4-52.5,1.2C126.3,324.4,123.8,334.5,121.5,337.2z"/>
					</g>
				</g>
			</g>
			<path class="st16" d="M394,139.6c-2-2.4-4.9,0.1-7,1.2s-4,2.1-6,3s-4,1.6-5.9,2.5c-1.2,0.6-3,0.9-3.5,2.4c-1,3.1,3.5,5.5,5.9,6
				c3.2,0.5,6.4,0.1,9.3-1.3c2.6-1.1,4.8-3,6.4-5.4c1.4-2.2,2.6-5.9,0.9-8.2L394,139.6z"/>
			<path class="st28" d="M394.3,140c0,0-1,3.5-2.2,3.7s0.1,0.8,1.2,0.3c0.8-0.3,1.4-1,1.7-1.8C394.9,141.4,394.7,140.7,394.3,140z"
				/>
			<path class="st28" d="M371.8,150.7c0,0,3.5,1.4,4.4,0.6s0.6,0.6-0.5,1.1c-0.8,0.4-1.7,0.5-2.5,0.1
				C372.6,152.1,372.1,151.4,371.8,150.7z"/>
			
				<radialGradient id="SVGID_00000105388722552034250930000001446757764899535768_" cx="1135.4889" cy="720.9259" r="8.46" gradientTransform="matrix(0.91 -0.35 0.36 0.93 -936.47 -136.87)" gradientUnits="userSpaceOnUse">
				<stop  offset="0" style="stop-color:#E98C4D"/>
				<stop  offset="0.84" style="stop-color:#E98C4D;stop-opacity:0"/>
			</radialGradient>
			<path style="opacity:0.4;fill:url(#SVGID_00000105388722552034250930000001446757764899535768_);enable-background:new    ;" d="
				M344.1,138.3c0,0-5,3.5,2,8.6c5.6,4.1,7.7,2.4,9.5,1.6c3.2-1.5,7.3-5.9,5.6-10.5S350.9,135.7,344.1,138.3z"/>
			
				<radialGradient id="SVGID_00000127763245993933477480000011092591622595937932_" cx="714.0925" cy="1938.6093" r="8.46" gradientTransform="matrix(0.7 -0.68 0.68 0.73 -1417.9302 -797.99)" gradientUnits="userSpaceOnUse">
				<stop  offset="0" style="stop-color:#E98C4D"/>
				<stop  offset="0.84" style="stop-color:#E98C4D;stop-opacity:0"/>
			</radialGradient>
			<path style="opacity:0.4;fill:url(#SVGID_00000127763245993933477480000011092591622595937932_);enable-background:new    ;" d="
				M390.8,122.6c0,0-3.2,5.2,5.1,7.2c6.7,1.6,7.9-0.8,9.2-2.3c2.4-2.7,4.5-8.4,1.1-11.9S396.1,117.5,390.8,122.6z"/>
			
				<radialGradient id="SVGID_00000098217865353604253540000006875147419232631184_" cx="1118.7013" cy="947.7035" r="11.28" gradientTransform="matrix(0.88 -0.42 0.43 0.9 -1020.82 -276.7)" gradientUnits="userSpaceOnUse">
				<stop  offset="0" style="stop-color:#E98C4D"/>
				<stop  offset="0.84" style="stop-color:#E98C4D;stop-opacity:0"/>
			</radialGradient>
			<path style="opacity:0.4;fill:url(#SVGID_00000098217865353604253540000006875147419232631184_);enable-background:new    ;" d="
				M353.5,99.4c0,0-6.2,5.2,3.6,11.2c7.9,4.8,10.5,2.3,12.7,1.1c4.1-2.4,9.1-8.7,6.3-14.6S362.3,95.1,353.5,99.4z"/>
			<path class="st32" d="M368.7,135.2c2.3,0.7,4.7,0.6,6.9-0.1c2.3-0.5,4.2-2.2,5-4.4c0,0,2.1,1,1.7,2.7c-0.9,2.3-2.3,4.4-4.2,6.1
				C377.1,140,367.8,139.7,368.7,135.2z"/>
			
				<ellipse transform="matrix(0.9343 -0.3564 0.3564 0.9343 -22.8008 142.6784)" class="st33" cx="375.8" cy="133.2" rx="2.1" ry="0.9"/>
			<path class="st34" d="M373.2,136.1c-0.4,0-0.7,0-1.1,0.2c-0.5,0.2-0.9,0.6-0.8,0.8s0.5,0.1,1,0.1c0.3,0,0.5,0.1,0.8,0.2
				c0.3,0,0.5,0,0.8,0.1c0.4,0.1,0.8,0.4,1,0.2s-0.1-0.7-0.6-1.1C374,136.4,373.6,136.2,373.2,136.1z"/>
			<path class="st34" d="M380.9,132.9c-0.1-0.2-0.5-0.1-1,0.2c-0.3,0.2-0.5,0.4-0.7,0.6c-0.1,0.3-0.2,0.7-0.3,1
				c-0.1,0.5,0,1,0.2,1.1s0.4-0.3,0.6-0.6c0.2-0.2,0.3-0.4,0.5-0.6c0.1-0.2,0.2-0.5,0.3-0.7C380.7,133.4,381,133,380.9,132.9z"/>
			<path class="st34" d="M371.7,137.4l-1.2-0.6c-0.1-0.1-0.3-0.1-0.4-0.2c-0.1,0-0.2-0.1-0.2-0.2c-0.2-0.3-0.3-0.6-0.3-0.9
				c0-0.8,0.6-1.7,0.5-1.9s-0.3,0.1-0.5,0.3c-0.4,0.3-0.6,0.8-0.8,1.3c-0.2,0.6-0.1,1.3,0.2,1.8c0.1,0.3,0.4,0.5,0.6,0.7
				c0.2,0.1,0.5,0.2,0.7,0.3l1.3,0.3c0.9,0.2,1.9,0.3,1.9,0.2S372.6,137.8,371.7,137.4z"/>
			<path class="st34" d="M382.4,131.9c0,0-0.1-0.1-0.4-0.5c-0.1-0.2-0.3-0.3-0.5-0.4c-0.2-0.1-0.3-0.3-0.5-0.4
				c-0.7-0.5-1.5-0.8-1.6-0.6s0.5,0.7,1.1,1.4l0.4,0.5c0.1,0.1,0.2,0.2,0.3,0.4l0.2,0.4c0,0.1,0.1,0.1,0.1,0.2c0,0.3,0,0.5-0.1,0.8
				c-0.3,0.7-0.7,1.5-0.5,1.6s0.7-0.4,1.3-1c0.3-0.4,0.5-0.8,0.5-1.4C382.6,132.4,382.6,132.1,382.4,131.9z"/>
			<path class="st34" d="M378.5,130.8c0-0.2-1-0.4-2-0.3c-1.4,0-2.7,0.5-3.6,1.4c-0.8,0.6-1.4,1.4-1.3,1.6s0.9-0.4,1.8-0.7
				c1.1-0.4,2.3-0.9,3.4-1.4C377.6,131.2,378.6,131,378.5,130.8z"/>
			<path class="st34" d="M386,107c0,0.1-0.7,0.8-1.2,1.6c-0.7,1.1-1.2,2.4-1.6,3.6c-0.3,1-0.3,2-0.4,2c-0.1-0.7-0.1-1.4,0-2.1
				c0.2-1.4,0.8-2.7,1.7-3.8C384.9,107.8,385.4,107.4,386,107z"/>
			<path class="st34" d="M384.2,106.7c0.1,0.1-0.5,0.8-0.9,1.6c-0.5,1.1-0.9,2.2-1.1,3.4c-0.1,0.9-0.1,1.8-0.2,1.8
				c-0.2-0.6-0.3-1.2-0.2-1.9c0-1.3,0.4-2.5,1.2-3.6C383.3,107.6,383.7,107.1,384.2,106.7z"/>
			<path class="st34" d="M361.7,123.8c-0.1,0-0.8-0.9-1.6-1.6c-1.1-1-2.3-1.9-3.5-2.7c-1-0.6-2-1-2-1.1c0.8,0.1,1.5,0.3,2.2,0.7
				c1.4,0.6,2.7,1.6,3.6,2.8C360.9,122.5,361.4,123.1,361.7,123.8z"/>
			<path class="st34" d="M359.9,120.4c-0.1,0.1-0.5-0.3-0.9-0.6s-0.9-0.6-0.9-0.6s-0.4-0.3-0.9-0.6s-0.9-0.6-0.9-0.6
				s0.6,0.1,1.1,0.3c0.7,0.3,1.3,0.7,1.8,1.3C359.6,119.9,360,120.3,359.9,120.4z"/>
			<path class="st13" d="M339.9,117.2c0.2-0.1,0.3-0.3,0.5-0.5c1-1.2,1.8-2.6,2.9-3.7c1.4-1.3,3-2.5,4.7-3.4
				c1.5-0.8,4.3-1.2,5.2-2.8c1-1.9-0.5-4.9-2.9-4.3c0,0.8,0.1,1.6,0.3,2.3c-0.3-0.4-1.1-1.9-1.6-2s-1.8,0.6-2.2,0.9
				c-1.5,0.9-2.8,1.9-4.1,3.1c-2.9,2.5-4.7,6-5,9.8C337.5,118.6,338.9,118,339.9,117.2z"/>
			<path class="st35" d="M345.1,104.7v0.2c0.3,0.9,0.6,1.8,0.6,1.8s0.2,0.9,0.6,1.8c0.2,0.7,0.5,1.3,0.6,1.7l-0.1,0.1
				c-0.3-0.5-0.6-1-0.9-1.6c-0.4-0.9-0.7-1.8-0.7-1.8s-0.3-1-0.4-1.9l0,0L345.1,104.7z M344.8,110c-0.3-0.6-0.6-1.3-0.8-1.9
				c-0.2-0.6-0.4-1.3-0.5-2l-0.4,0.3c0.1,0.6,0.2,1.2,0.4,1.8c0.3,0.7,0.6,1.4,1,2c0.3,0.4,0.5,0.7,0.9,1.1l0.2-0.1
				C345.2,110.8,345,110.4,344.8,110L344.8,110z M350.3,103.3c0.3,0.7,0.6,1.4,0.8,2.2c0.3,0.9,0.4,1.8,0.4,2.7c0,0,0,0,0,0.1
				s0.3-0.2,0.4-0.2c0-0.9-0.1-1.8-0.3-2.6c0,0-0.1-0.3-0.3-0.8c-0.3-0.6-0.6-1.2-0.9-1.7l-0.1-0.2h-0.1
				C350.3,102.8,350.3,103.1,350.3,103.3L350.3,103.3z M340.1,115.2c-0.3-0.4-0.6-0.8-0.8-1.3c-0.3-0.4-0.5-0.9-0.8-1.3l0,0
				c-0.1,0.2-0.1,0.4-0.2,0.6c0.1,0.3,0.3,0.7,0.5,1c0.3,0.4,0.6,0.9,1,1.2c0.3,0.3,0.6,0.5,0.9,0.8l0.1-0.2
				C340.6,115.9,340.4,115.6,340.1,115.2L340.1,115.2z M347,105.9c0,0-0.4-1-0.8-1.9l-0.3,0.2c0.2,0.9,0.5,1.9,0.5,1.9
				c0.4,1.1,0.9,2.2,1.4,3.2C347.6,108.2,347.4,107,347,105.9L347,105.9z M340,110.5c0-0.1-0.1-0.3-0.1-0.4
				c-0.1,0.1-0.2,0.3-0.3,0.5l0,0c0.2,1.2,0.7,2.3,1.6,3.2c0.3,0.3,0.5,0.5,0.8,0.7l0.1-0.2c-0.2-0.3-0.5-0.5-0.7-0.8
				C340.9,112.5,340.4,111.5,340,110.5L340,110.5z"/>
			<path class="st35" d="M343.2,113c1.4-1.3,3-2.5,4.7-3.4c1.5-0.8,4.3-1.2,5.2-2.8c0.6-1.3,0.3-2.8-0.7-3.8
				c0.3,1.7-1.3,3.4-3.7,4.2c-3,0.9-5.6,4.7-8.5,6.8c-1.2,0.9-1.8,0.4-2-0.5c-0.3,1-0.5,2.1-0.6,3.1c-0.1,2,1.3,1.4,2.2,0.6
				c0.2-0.1,0.3-0.3,0.5-0.5C341.4,115.5,342.1,114.1,343.2,113z"/>
			<path class="st13" d="M392.6,95.9c-0.2,0-0.4,0-0.7,0c-1.6-0.2-3.1-0.7-4.7-0.7c-1.9,0-3.9,0.3-5.7,0.9c-1.7,0.5-3.9,2.1-5.7,1.6
				c-2.1-0.6-3.1-3.8-0.9-5.1c0.3,0.4,1.4,1.5,1.4,1.9c-0.1-0.6-0.5-2.1-0.3-2.6s1.7-0.8,2.2-0.9c1.6-0.4,3.3-0.6,5-0.6
				c3.8-0.2,7.5,1.1,10.4,3.5C395.2,95.2,393.8,95.8,392.6,95.9z"/>
			<path class="st35" d="M381.5,95c0,0.4,0.1,0.8,0.1,1.1h-0.1l-0.2,0.1c-0.1-0.3-0.1-0.7-0.2-1.1l-0.4-1.7l-0.3-1.7l-0.2-1h0.3
				c0.1,0.3,0.2,0.6,0.3,0.9c0.3,0.8,0.5,1.7,0.5,1.7S381.4,94.1,381.5,95z M387.5,95.3c0-0.4,0-1.1,0.1-1.8
				c0.1-1.1,0.2-2.1,0.2-2.1s0-0.2,0.1-0.5l-0.5-0.1c-0.1,0.3-0.1,0.5-0.1,0.5c-0.1,0.7-0.1,1.4-0.1,2.2
				C387.2,94.1,387.3,94.7,387.5,95.3L387.5,95.3z M388.7,91.1c-0.1,0.9-0.2,1.7-0.2,1.7s0,1,0.1,2c0,0.2,0,0.4,0.1,0.6l0.3,0.1
				c0-0.2,0-0.4,0-0.7c0-1,0.1-1.9,0.1-1.9s0-0.8,0-1.6L388.7,91.1z M377.3,97.1c-0.4-0.5-0.9-1.1-1.2-1.7c-0.4-0.6-0.7-1.2-1-1.9
				c-0.1-0.3-0.2-0.6-0.2-0.8c-0.1,0.1-0.2,0.1-0.3,0.2c0,0.3,0.1,0.5,0.1,0.8c0.2,0.7,0.5,1.4,0.9,2s0.9,1.2,1.4,1.7l0.4,0.4
				l0.4-0.1L377.3,97.1z M379.1,95.5l-0.8-1.8l-0.9-1.8c-0.1-0.2-0.1-0.3-0.2-0.5l-0.3,0.1c0,0.2,0.1,0.3,0.2,0.5
				c0.4,1,0.8,1.9,0.8,1.9s0.5,0.9,1,1.8c0.3,0.5,0.6,1,0.8,1.3l0.2-0.1C379.6,96.5,379.3,95.9,379.1,95.5L379.1,95.5z M383.1,93.8
				c0,0-0.1-1.1-0.4-2.2c-0.1-0.4-0.2-0.8-0.2-1.1h-0.3c0,0.3,0.1,0.7,0.1,1.1c0.1,1.1,0.2,2.2,0.2,2.2s0.1,1,0.2,2l0.4-0.1
				C383.1,94.7,383.1,93.7,383.1,93.8L383.1,93.8z"/>
			<path class="st35" d="M392.6,95.9c1.2-0.1,2.7-0.7,1.2-2c-1.1-0.9-2.3-1.7-3.6-2.3c0.7,0.9,2,2.6,0.9,2.8
				c-1.5,0.2-5.5-1.7-10.7,0.4c-4.2,1.7-6.1,0.6-6.7,0c0.1,1.3,0.9,2.4,2.1,2.8c1.8,0.5,4-1.1,5.7-1.6c1.9-0.6,3.8-0.9,5.7-0.9
				c1.6,0,3.1,0.5,4.7,0.7C392.1,95.9,392.3,95.9,392.6,95.9z"/>
			<path class="st13" d="M400,109.3c-1.3-0.4-2.7-0.5-4.1-0.4c-0.9,0.1-1.8,0.2-2.7,0.4c1.6-1.2,3.2-2.1,3.1-2.3s-2.7,0.4-5,1.8
				c-1.1,0.6-2.1,1.4-3,2.2c-0.8,0.7-1.2,1.2-1.2,1.2c-1.2,1.4-2.2,3-3,4.7c-0.6,1.2-0.9,2.5-0.9,3.8c0,1.1,0.3,1.8,0.4,1.8
				s0.1-0.7,0.4-1.6c0-0.2,0.1-0.4,0.2-0.6c0,0.1,0.1,0.1,0.1,0.1s0.3-0.7,0.7-1.6c0.6-1.1,1.3-2.1,2.1-3.1c0.8-0.9,1.8-1.7,2.8-2.4
				c0.4-0.3,0.8-0.5,1-0.6l0.4-0.2c0.5-0.3,0.9-0.6,1.4-0.8c2.2-1.1,4.7-1.6,7.2-1.5c1,0.1,1.7,0.2,1.8,0.1S401,109.7,400,109.3z"/>
			<path class="st13" d="M342.9,131.2c0.7-1.2,1.7-2.2,2.8-3c0.7-0.6,1.5-1.1,2.3-1.5c-2,0.2-3.8,0.6-3.9,0.4s2.3-1.5,5-2
				c1.2-0.2,2.5-0.4,3.7-0.4c1,0,1.7,0,1.7,0c1.8,0.3,3.6,0.8,5.3,1.5c1.2,0.5,2.3,1.3,3.2,2.2c0.7,0.8,1,1.5,0.9,1.6
				s-0.6-0.4-1.4-1c-0.2-0.1-0.4-0.2-0.5-0.3c0,0.1,0,0.1,0,0.1s-0.7-0.4-1.6-0.8c-1.2-0.5-2.4-0.8-3.6-0.9
				c-1.2-0.1-2.4-0.1-3.6,0.1c-0.5,0.1-0.9,0.2-1.2,0.2l-0.4,0.1c-0.5,0.1-1.1,0.2-1.6,0.4c-2.4,0.7-4.6,2-6.3,3.7
				c-0.7,0.7-1.1,1.3-1.3,1.3S342.3,132.1,342.9,131.2z"/>
			<g>
				<path class="st34" d="M390.2,117.1c0,0.1-0.7,0.6-1.4,1.3c-0.9,0.9-1.7,1.8-2.4,2.8c-0.5,0.8-1,1.6-1,1.6
					c0.1-0.6,0.3-1.2,0.7-1.8c0.6-1.2,1.4-2.2,2.5-2.9C389,117.7,389.6,117.4,390.2,117.1z"/>
			</g>
			<g>
				<path class="st34" d="M389.4,120.7c0,0.1-0.3,0.2-0.5,0.4c-0.3,0.3-0.6,0.5-1,0.8c-0.2,0.2-0.5,0.4-0.5,0.4s0.1-0.4,0.3-0.7
					c0.2-0.4,0.6-0.7,1.1-0.8C389.1,120.7,389.4,120.6,389.4,120.7z"/>
			</g>
			<g>
				<path class="st34" d="M364.5,131.4c-0.5-0.1-1.1-0.3-1.6-0.6c-0.8-0.3-1.6-0.5-1.6-0.5s-0.8-0.3-1.6-0.5
					c-0.5-0.1-1.1-0.3-1.6-0.5c0.6-0.1,1.1,0,1.7,0.1c1.1,0.1,2.2,0.5,3.2,1C363.6,130.7,364,131,364.5,131.4z"/>
			</g>
			<g>
				<path class="st34" d="M364.1,132.9c0,0.1-0.5-0.2-0.9-0.3c-0.6-0.1-1.2-0.2-1.8-0.3c-0.5,0-1,0.1-1,0s0.4-0.3,0.9-0.4
					c0.7-0.2,1.4-0.1,2,0.3C363.8,132.4,364.1,132.8,364.1,132.9z"/>
			</g>
			
				<radialGradient id="SVGID_00000134222544749401787880000015227689643138938499_" cx="915.028" cy="930.2371" r="5.87" gradientTransform="matrix(0.91 -0.33 0.34 0.94 -999.81 -201.13)" gradientUnits="userSpaceOnUse">
				<stop  offset="0" style="stop-color:#E98C4D"/>
				<stop  offset="0.84" style="stop-color:#E98C4D;stop-opacity:0"/>
			</radialGradient>
			<path style="opacity:0.4;fill:url(#SVGID_00000134222544749401787880000015227689643138938499_);enable-background:new    ;" d="
				M148,364.8c0,0-3.5,2.4,1.3,6c3.9,2.9,5.3,1.8,6.5,1.2c2.2-1,5.2-4,4-7.2S152.8,363.1,148,364.8z"/>
			
				<radialGradient id="SVGID_00000168082095347913369050000007850252845700544654_" cx="406.7404" cy="2039.283" r="5.87" gradientTransform="matrix(0.71 -0.67 0.67 0.74 -1467.62 -873.62)" gradientUnits="userSpaceOnUse">
				<stop  offset="0" style="stop-color:#E98C4D"/>
				<stop  offset="0.84" style="stop-color:#E98C4D;stop-opacity:0"/>
			</radialGradient>
			<path style="opacity:0.4;fill:url(#SVGID_00000168082095347913369050000007850252845700544654_);enable-background:new    ;" d="
				M180.6,354.4c0,0-2.3,3.6,3.5,5c4.6,1.2,5.5-0.5,6.4-1.5c1.7-1.8,3.2-5.8,0.9-8.3S184.3,350.9,180.6,354.4z"/>
			
				<radialGradient id="SVGID_00000175307335418236780050000013856016664517047982_" cx="866.1034" cy="1147.7777" r="7.83" gradientTransform="matrix(0.88 -0.41 0.42 0.91 -1080.8199 -347.19)" gradientUnits="userSpaceOnUse">
				<stop  offset="0" style="stop-color:#E98C4D"/>
				<stop  offset="0.84" style="stop-color:#E98C4D;stop-opacity:0"/>
			</radialGradient>
			<path style="opacity:0.4;fill:url(#SVGID_00000175307335418236780050000013856016664517047982_);enable-background:new    ;" d="
				M155,337.9c0,0-4.3,3.6,2.4,7.8c5.4,3.4,7.2,1.7,8.8,0.9c2.9-1.6,6.4-6,4.5-10S161.1,335.1,155,337.9z"/>
			<g id="_Group_">
				<g id="_Group_2">
					<path id="_Path_" class="st32" d="M176.8,353c0,0-6.4-8.6-1.4-12.7s12,1.3,12.2,3.5S187,353,176.8,353z"/>
					<path id="_Path_2" class="st16" d="M177.5,354c-1.4-0.8-2.5-2.4-3.1-4.8s-0.3-4.9,1.7-6.5c5-4.1,11.6,0.7,11.8,2.9
						c0.3,3.1-1.3,6.1-4,7.7C181.4,354.7,179.2,354.9,177.5,354z"/>
					<g id="_Group_3">
						<path id="_Path_3" class="st22" d="M177.5,349.2c1.9,2,5.1,2.1,7.1,0.2c0.1-0.1,0.1-0.1,0.2-0.2c2-2.1,2-5.3,0.1-7.4
							c-1.9-2-5.1-2.1-7.1-0.2c-0.1,0.1-0.1,0.1-0.2,0.2C175.6,343.8,175.5,347.1,177.5,349.2z"/>
						<path id="_Path_4" class="st13" d="M178.8,347.8c1.2,1.3,3.3,1.3,4.5,0.1c0,0,0.1,0,0.1-0.1c1.3-1.3,1.3-3.4,0-4.7
							c-1.2-1.3-3.2-1.3-4.5-0.1l-0.1,0.1C177.5,344.4,177.5,346.5,178.8,347.8z"/>
					</g>
					<path id="_Path_5" class="st39" d="M176.1,342.6c5-4.1,11.6,0.7,11.8,2.9c0.2,2.5-0.7,4.9-2.5,6.6c1.2-2,3.1-6.5-0.7-8.1
						c-5-2.2-9.3-0.1-9.7,3.8c-0.1,1.2,0,2.4,0.2,3.6C174,348.8,173.1,345,176.1,342.6z"/>
				</g>
			</g>
			<ellipse transform="matrix(0.9395 -0.3427 0.3427 0.9395 -108.897 82.54)" class="st40" cx="179.1" cy="349.4" rx="2" ry="2.1"/>
			
				<ellipse transform="matrix(0.9395 -0.3427 0.3427 0.9395 -106.2905 83.4498)" class="st40" cx="183" cy="342.5" rx="1.3" ry="1.3"/>
			<g id="_Group_4">
				<g id="_Group_5">
					<path id="_Path_6" class="st32" d="M160,359.1c0,0-0.6-10.7-7-10.6s-8.4,8.7-7.2,10.5S152.1,365.7,160,359.1z"/>
					<path id="_Path_7" class="st16" d="M160,360.4c0.6-1.5,0.4-3.4-0.7-5.6s-3-4-5.5-3.9c-6.5,0.1-8.4,8-7.2,9.9
						c1.8,2.6,4.9,3.8,8,3.3C157.5,363.4,159.3,362.1,160,360.4z"/>
					<g id="_Group_6">
						<path id="_Path_8" class="st22" d="M159.4,355.8c-0.2,2.8-2.5,4.9-5.3,4.7c-0.1,0-0.2,0-0.3,0c-2.9-0.3-5-2.8-4.8-5.6
							c0.2-2.8,2.5-4.9,5.3-4.7c0.1,0,0.2,0,0.3,0C157.4,350.4,159.6,352.9,159.4,355.8z"/>
						<path id="_Path_9" class="st13" d="M157.6,355.6c-0.1,1.8-1.7,3.1-3.4,3h-0.1c-1.8-0.2-3.2-1.8-3.1-3.6c0.1-1.8,1.6-3.1,3.4-3
							h0.1C156.4,352.2,157.7,353.8,157.6,355.6z"/>
					</g>
					<path id="_Path_10" class="st39" d="M153.8,350.8c-6.5,0.1-8.4,8-7.2,9.9c1.4,2,3.7,3.3,6.2,3.4c-2.2-0.8-6.6-2.9-4.7-6.7
						c2.4-4.9,7-6.1,9.9-3.3c0.9,0.9,1.6,1.8,2.2,2.9C159.3,354.1,157.6,350.7,153.8,350.8z"/>
				</g>
			</g>
			
				<ellipse transform="matrix(0.9395 -0.3427 0.3427 0.9395 -113.7961 73.7861)" class="st40" cx="151.9" cy="358.9" rx="2" ry="2.1"/>
			
				<ellipse transform="matrix(0.9395 -0.3427 0.3427 0.9395 -111.5773 74.9581)" class="st40" cx="156.3" cy="353.2" rx="1.3" ry="1.3"/>
			<path class="st32" d="M168,360.8c1.6,0.5,3.2,0.5,4.8,0c1.6-0.3,2.9-1.5,3.5-3c0,0,1.4,0.7,1.2,1.9c-0.6,1.6-1.7,3-2.9,4.2
				C173.8,364.2,167.3,364,168,360.8z"/>
			
				<ellipse transform="matrix(0.9404 -0.3401 0.3401 0.9404 -112.2602 79.9626)" class="st33" cx="172" cy="360.2" rx="1.4" ry="0.6"/>
			<path class="st34" d="M171.1,361.5c-0.3,0-0.5,0-0.8,0.1c-0.4,0.1-0.6,0.4-0.5,0.5s0.4,0.1,0.7,0.1c0.2,0,0.4,0.1,0.6,0.2
				c0.2,0,0.4,0,0.6,0.1c0.3,0.1,0.6,0.3,0.7,0.2s-0.1-0.5-0.4-0.8C171.6,361.7,171.4,361.6,171.1,361.5z"/>
			<path class="st34" d="M176.4,359.4c-0.1-0.1-0.4-0.1-0.7,0.1c-0.2,0.1-0.4,0.3-0.5,0.4c-0.1,0.2-0.2,0.4-0.2,0.7
				c-0.1,0.4,0,0.7,0.1,0.8s0.3-0.2,0.4-0.5c0.1-0.1,0.2-0.3,0.4-0.4c0.1-0.2,0.1-0.3,0.2-0.5C176.3,359.7,176.5,359.5,176.4,359.4z
				"/>
			<path class="st34" d="M170,362.4l-0.8-0.4c-0.1,0-0.2-0.1-0.3-0.2c-0.1,0-0.1-0.1-0.2-0.1c-0.1-0.2-0.2-0.4-0.2-0.7
				c0-0.6,0.4-1.2,0.3-1.3s-0.2,0-0.4,0.2c-0.3,0.2-0.4,0.5-0.5,0.9s-0.1,0.9,0.1,1.3c0.1,0.2,0.2,0.4,0.4,0.5s0.3,0.2,0.5,0.2
				l0.9,0.2c0.6,0.1,1.3,0.2,1.3,0.1S170.6,362.7,170,362.4z"/>
			<path class="st34" d="M177.5,358.7c0,0,0-0.1-0.2-0.3c-0.1-0.1-0.2-0.2-0.3-0.3l-0.4-0.3c-0.5-0.4-1-0.6-1.1-0.5s0.4,0.5,0.7,1
				l0.3,0.3c0.1,0.1,0.1,0.2,0.2,0.2l0.1,0.3l0.1,0.1c0,0.2,0,0.4-0.1,0.5c-0.2,0.5-0.5,1-0.4,1.1s0.5-0.2,0.9-0.7
				c0.2-0.3,0.4-0.6,0.4-0.9C177.7,359.1,177.6,358.9,177.5,358.7z"/>
			<path class="st34" d="M174.9,357.9c0-0.1-0.7-0.2-1.4-0.2c-0.9,0-1.8,0.4-2.5,1c-0.6,0.4-1,1-0.9,1.1s0.6-0.2,1.2-0.5
				c0.8-0.3,1.6-0.6,2.4-0.9C174.2,358.1,174.9,358,174.9,357.9z"/>
			<path class="st34" d="M175.6,340.5c0,0-0.5,0.5-0.8,1.1c-0.5,0.8-0.9,1.6-1.1,2.5c-0.2,0.7-0.2,1.4-0.3,1.4c-0.1-0.5-0.1-1,0-1.4
				c0.1-1,0.6-1.9,1.2-2.6C174.8,341.1,175.1,340.7,175.6,340.5z"/>
			<path class="st34" d="M174.4,340.3c0,0-0.4,0.5-0.7,1.1c-0.4,0.8-0.6,1.5-0.8,2.4c-0.1,0.6-0.1,1.3-0.1,1.3
				c-0.1-0.4-0.2-0.9-0.1-1.3c0-0.9,0.3-1.8,0.8-2.5C173.7,340.8,174,340.5,174.4,340.3z"/>
			<path class="st34" d="M158.5,351.9c0,0-0.5-0.6-1.1-1.1c-0.8-0.7-1.6-1.3-2.5-1.9c-0.7-0.4-1.4-0.7-1.4-0.8
				c0.5,0.1,1,0.3,1.5,0.5c1,0.4,1.8,1.1,2.5,1.9C158,351,158.3,351.4,158.5,351.9z"/>
			<path class="st34" d="M157.3,349.5c0,0-0.3-0.2-0.6-0.4s-0.6-0.4-0.6-0.4s-0.3-0.2-0.6-0.5s-0.6-0.4-0.6-0.5s0.4,0.1,0.7,0.2
				c0.5,0.2,0.9,0.5,1.2,0.9C157.1,349.2,157.4,349.5,157.3,349.5z"/>
			<path class="st13" d="M144.6,348.9c0.1-0.1,0.3-0.2,0.4-0.3c0.8-0.7,1.5-1.6,2.4-2.2c1.1-0.8,2.3-1.4,3.6-1.8
				c1.1-0.4,3.1-0.4,3.9-1.4c0.9-1.2,0.2-3.4-1.5-3.2c-0.1,0.5-0.1,1.1-0.1,1.6c-0.2-0.4-0.5-1.4-0.9-1.6s-1.3,0.2-1.6,0.4
				c-1.1,0.4-2.2,1-3.1,1.6c-2.2,1.4-3.9,3.6-4.5,6.2C142.8,349.6,143.9,349.4,144.6,348.9z"/>
			<path class="st35" d="M149.6,341v0.1c0.1,0.7,0.2,1.3,0.2,1.3s0.1,0.7,0.2,1.3c0.1,0.5,0.2,1,0.2,1.2h-0.1
				c-0.2-0.4-0.3-0.8-0.4-1.2c-0.2-0.7-0.3-1.3-0.3-1.3s-0.1-0.7-0.1-1.4l0,0H149.6z M148.7,344.6c-0.2-0.5-0.3-0.9-0.4-1.4
				c-0.1-0.5-0.1-0.9-0.2-1.4l-0.3,0.2c0,0.4,0,0.9,0.1,1.3c0.1,0.5,0.3,1,0.5,1.5c0.1,0.3,0.3,0.6,0.5,0.8l0.1-0.1
				C149,345.1,148.8,344.8,148.7,344.6L148.7,344.6z M153.3,340.6c0.2,0.5,0.3,1,0.3,1.6c0.1,0.6,0.1,1.3,0,1.9l0,0l0.3-0.1
				c0.1-0.6,0.2-1.2,0.1-1.8c0,0,0-0.2-0.1-0.6s-0.2-0.9-0.4-1.3l-0.1-0.2h-0.1C153.3,340.2,153.3,340.4,153.3,340.6L153.3,340.6z
				 M145,347.6c-0.2-0.3-0.3-0.7-0.4-1c-0.1-0.3-0.3-0.7-0.4-1l0,0c-0.1,0.1-0.1,0.3-0.2,0.4c0.1,0.3,0.1,0.5,0.2,0.8
				c0.2,0.4,0.3,0.7,0.6,1c0.2,0.2,0.3,0.4,0.5,0.6l0.1-0.1C145.3,348.1,145.1,347.9,145,347.6L145,347.6z M150.7,342
				c0,0-0.1-0.7-0.3-1.4l-0.2,0.1c0.1,0.6,0.2,1.4,0.2,1.4c0.1,0.8,0.4,1.6,0.6,2.4C150.9,343.6,150.8,342.8,150.7,342z
				 M145.4,344.3c0-0.1,0-0.2,0-0.3l-0.2,0.3l0,0c0,0.8,0.2,1.7,0.7,2.4c0.1,0.2,0.3,0.4,0.5,0.6l0.1-0.1c-0.1-0.2-0.3-0.4-0.4-0.6
				C145.8,345.8,145.6,345.1,145.4,344.3L145.4,344.3z"/>
			<path class="st35" d="M147.3,346.4c1.1-0.8,2.3-1.4,3.6-1.8c1.1-0.4,3.1-0.4,3.9-1.4c0.6-0.8,0.5-1.9-0.1-2.6
				c0,1.2-1.2,2.2-3,2.4c-2.2,0.3-4.4,2.6-6.6,3.7c-0.9,0.5-1.2,0-1.3-0.6c-0.3,0.7-0.6,1.4-0.8,2.1c-0.3,1.4,0.8,1.1,1.5,0.7
				c0.1-0.1,0.3-0.2,0.4-0.3C145.8,348,146.4,347.1,147.3,346.4z"/>
			<path class="st13" d="M182.4,335.1c-0.2,0-0.3,0-0.5,0c-1.1,0-2.2-0.3-3.3-0.2c-1.3,0.1-2.7,0.5-3.9,1c-1.1,0.5-2.6,1.7-3.8,1.4
				c-1.5-0.3-2.4-2.5-1-3.4c0.2,0.3,1,0.9,1.1,1.2c-0.1-0.4-0.5-1.4-0.4-1.8s1.1-0.6,1.5-0.8c1.1-0.4,2.3-0.7,3.4-0.8
				c2.6-0.4,5.3,0.3,7.4,1.8C184.2,334.5,183.2,335,182.4,335.1z"/>
			<path class="st35" d="M174.7,335.2c0.1,0.3,0.1,0.5,0.1,0.8l0,0h-0.1l-0.2-0.8l-0.4-1.2l-0.3-1.2l-0.2-0.7h0.2
				c0.1,0.2,0.2,0.4,0.3,0.6c0.2,0.6,0.4,1.2,0.4,1.2S174.6,334.5,174.7,335.2z M178.9,335c0-0.3-0.1-0.8-0.1-1.3c0-0.7,0-1.5,0-1.5
				s0-0.1,0-0.3h-0.4c0,0.2,0,0.4,0,0.4c0,0.5,0,1,0.1,1.5c0,0.4,0.1,0.8,0.2,1.2L178.9,335L178.9,335z M179.4,332
				c0,0.6,0,1.2,0,1.2s0.1,0.7,0.2,1.4c0,0.1,0.1,0.3,0.1,0.4h0.2c0-0.1,0-0.3,0-0.5c0-0.7-0.1-1.3-0.1-1.3s0-0.5-0.1-1.1L179.4,332
				z M171.9,336.8c-0.3-0.3-0.7-0.7-0.9-1.1c-0.3-0.4-0.6-0.8-0.8-1.2c-0.1-0.2-0.1-0.3-0.2-0.5l-0.2,0.1c0,0.2,0.1,0.4,0.2,0.5
				c0.2,0.5,0.4,0.9,0.7,1.4c0.3,0.4,0.7,0.8,1.1,1.1l0.3,0.2l0.3-0.1L171.9,336.8z M173,335.6l-0.7-1.2l-0.7-1.2
				c-0.1-0.1-0.1-0.2-0.2-0.3l-0.2,0.1c0,0.1,0.1,0.2,0.1,0.4c0.3,0.6,0.6,1.3,0.6,1.3s0.4,0.6,0.8,1.2c0.2,0.3,0.5,0.6,0.6,0.8
				l0.1-0.1L173,335.6z M175.7,334.1c0,0-0.2-0.8-0.4-1.5c-0.1-0.3-0.2-0.5-0.2-0.7h-0.2c0.1,0.2,0.1,0.5,0.2,0.8
				c0.1,0.8,0.3,1.5,0.3,1.5s0.1,0.7,0.3,1.4l0.3-0.1C175.8,334.8,175.7,334.2,175.7,334.1L175.7,334.1z"/>
			<path class="st35" d="M182.4,335.1c0.8-0.1,1.8-0.6,0.7-1.5c-0.8-0.6-1.7-1-2.6-1.4c0.6,0.6,1.6,1.7,0.8,1.9
				c-1,0.3-3.9-0.8-7.4,1c-2.8,1.4-4.2,0.8-4.6,0.4c0.1,0.9,0.8,1.6,1.6,1.8c1.2,0.3,2.7-1,3.8-1.4c1.2-0.5,2.6-0.9,3.9-1
				c1.1-0.1,2.2,0.2,3.3,0.2C182.1,335.1,182.2,335.1,182.4,335.1z"/>
			<g id="_Group_7">
				<path id="_Path_11" class="st13" d="M174.7,350.6c-0.1-0.5-0.3-1-0.3-1.5c-0.1-0.6-0.1-1.1-0.1-1.7c0-0.7,0.2-1.4,0.4-2
					c0.1-0.2,0.1-0.3,0.2-0.5l0.1-0.2l0.2-0.2l0.3-0.4l0.4-0.4l0.2-0.2l0.2-0.2l0.5-0.3c0.3-0.2,0.7-0.3,1.1-0.5l1.2-0.4l0.7-0.1
					l0.6-0.1c0.9-0.1,1.8,0,2.7,0.2s1.7,0.6,2.5,1.1c0.4,0.3,0.7,0.6,1,1s0.5,0.7,0.6,1.2c0.3,0.8,0.3,1.7,0.2,2.5s-0.4,1.5-0.8,2.2
					c-0.3,0.6-0.6,1.1-1,1.6l-0.5,0.6l-0.4,0.5c-0.3,0.3-0.5,0.6-0.6,0.7l-0.2,0.3l0.3-0.2c0.3-0.2,0.5-0.3,0.8-0.5l0.6-0.4l0.6-0.5
					c0.2-0.2,0.4-0.4,0.7-0.7s0.4-0.5,0.7-0.8c0.5-0.7,0.9-1.5,1.1-2.3c0.3-1.1,0.3-2.3,0-3.4c-0.2-0.6-0.5-1.2-0.9-1.8
					c-0.4-0.5-0.8-1-1.3-1.4c-0.9-0.7-2-1.3-3.1-1.5c-1-0.2-2.1-0.3-3.1-0.1l-0.8,0.1l-0.7,0.2c-0.5,0.2-0.9,0.3-1.3,0.5
					c-0.4,0.2-0.8,0.4-1.2,0.7l-0.5,0.4l-0.2,0.2l-0.2,0.3l-0.4,0.5c-0.1,0.2-0.2,0.4-0.3,0.6l-0.1,0.3l-0.1,0.3
					c-0.1,0.2-0.1,0.4-0.2,0.6c-0.2,0.8-0.2,1.6-0.1,2.4c0.1,0.6,0.2,1.2,0.4,1.8c0.1,0.4,0.3,0.7,0.4,1.1
					C174.6,350.5,174.7,350.6,174.7,350.6z"/>
			</g>
			<g id="_Group_8">
				<path id="_Path_12" class="st13" d="M160,355.9c-0.2-0.5-0.5-0.9-0.7-1.4c-0.3-0.5-0.6-0.9-1-1.4c-0.5-0.5-1-0.9-1.6-1.3
					c-0.1-0.1-0.3-0.1-0.5-0.2l-0.2-0.1l-0.3-0.1l-0.5-0.1h-0.6h-0.3H154l-0.6,0.1c-0.4,0.1-0.8,0.2-1.1,0.3l-1.1,0.5l-0.6,0.3
					l-0.5,0.3c-0.7,0.5-1.4,1.1-1.9,1.9c-0.6,0.7-1,1.6-1.2,2.5c-0.1,0.4-0.1,0.9-0.1,1.4c0,0.4,0.1,0.9,0.3,1.3
					c0.3,0.8,0.8,1.5,1.5,2c0.6,0.5,1.3,0.9,2,1.2c0.6,0.2,1.2,0.5,1.9,0.6l0.8,0.2l0.7,0.1c0.4,0.1,0.7,0.1,1,0.1h0.3h-0.3
					c-0.3,0.1-0.6,0.1-0.9,0.1h-0.7h-0.8c-0.3,0-0.6,0-0.9-0.1s-0.7-0.1-1-0.2c-0.8-0.2-1.6-0.5-2.4-1c-1-0.6-1.7-1.5-2.1-2.6
					c-0.3-0.6-0.4-1.3-0.5-1.9s0-1.3,0.1-1.9c0.2-1.2,0.7-2.2,1.4-3.2c0.6-0.8,1.4-1.5,2.3-2.1l0.6-0.4l0.6-0.3
					c0.5-0.2,0.9-0.3,1.3-0.5c0.4-0.1,0.9-0.2,1.4-0.2h1l0.3,0.1l0.6,0.1l0.6,0.2l0.3,0.1l0.3,0.2c0.2,0.1,0.4,0.2,0.5,0.3
					c0.6,0.5,1.2,1.1,1.6,1.7c0.3,0.5,0.6,1.1,0.9,1.6c0.2,0.4,0.3,0.7,0.4,1.1C159.9,355.8,160,355.9,160,355.9z"/>
			</g>
			<path class="st41" d="M178.1,368.1c-0.8-1.7-2.9-0.7-4.3-0.3s-2.6,0.6-4,0.9s-2.6,0.3-3.8,0.6c-0.8,0.2-1.9,0.1-2.4,0.9
				c-1.1,1.7,1.2,3.8,2.6,4.4c1.8,0.8,3.7,1,5.6,0.6c1.7-0.3,3.3-1.1,4.6-2.3c1.1-1.1,2.4-3.1,1.7-4.7L178.1,368.1z"/>
			<g>
				<g>
					<defs>
						<path id="SVGID_00000029741386648681652420000007214357084860368567_" d="M178.1,368.1c-0.8-1.7-2.9-0.7-4.3-0.3
							s-2.6,0.6-4,0.9s-2.6,0.3-3.8,0.6c-0.8,0.2-1.9,0.1-2.4,0.9c-1.1,1.7,1.2,3.8,2.6,4.4c1.8,0.8,3.7,1,5.6,0.6
							c1.7-0.3,3.3-1.1,4.6-2.3c1.1-1.1,2.4-3.1,1.7-4.7L178.1,368.1z"/>
					</defs>
					<clipPath id="SVGID_00000169515691281484295350000011884927388817180305_">
						<use xlink:href="#SVGID_00000029741386648681652420000007214357084860368567_"  style="overflow:visible;"/>
					</clipPath>
					<g style="clip-path:url(#SVGID_00000169515691281484295350000011884927388817180305_);">
						<path class="st43" d="M177,373.3c0,0-6.2-2.4-9.9,1.8c-2.5,3.3,8.1,1.1,8.1,1.1L177,373.3z"/>
					</g>
				</g>
			</g>
			<path class="st16" d="M173.8,367.8c-1.3,0.3-2.7,0.6-4,0.9c-1.3,0.2-2.6,0.3-3.8,0.6c-0.8,0.2-1.9,0.1-2.4,0.9
				c0,0,5.1,1.5,13.9-2.7C176.6,366.8,175,367.5,173.8,367.8z"/>
			<path class="st21" d="M412.3,106.4c0,0,2.3-17.9,9.9-17.8s10.8,22.8,5.1,29c-2.7,3.5-7.7,4.1-11.2,1.4c-0.1-0.1-0.2-0.2-0.3-0.2
				L412.3,106.4z"/>
			<path class="st12" d="M191.7,327.5c0.2-6.8-6.3-6.6-11.3-10.9c-4-3.4-11.9-4.2-17-4.4c-1.8,0-3.4-1-4.1-2.6
				c-1,0.3-20.8,3.2-21.8,3.4c-22.2,6.3-10.9,22.5-10.9,22.5s9.4-17.8,22.3-5.5c2.9,2.8,7.1,5.2,13.7,1.1c3-1.9,6.7-2.3,10-1.1
				c5.5,2.1,1.3,7.3,10.7,6.9c1.6-0.1,3.2,0.1,4.6-0.6c2.2-1.2,3.8-3.1,4.8-5.4C192.1,329.9,191.7,328.7,191.7,327.5z"/>
			<path class="st12" d="M344.5,137.9c0,0-8.9-23,10.1-37.7s29.6-24.8,25.6-41.3c0,0,11,12.1,7.2,23.8c0,0,8.2-2,7.9-7.9
				c0,0,5.9,8,5.4,11.4c0,0,3.9-1.5,2.6-7.5l8,24l7.9,12.5l-0.1-23.8c0,0,4.8-45.8-34.7-45.5c0,0-38.5-17.2-61,22.8
				c0,0-19.4,28.2,7.5,55.1L344.5,137.9z"/>
			<path class="st13" d="M323.5,68.8c-4.8,7.8-7.2,16.9-6.7,26c1.6-6.6,7.8-27,24-37.8c19.4-12.9,43.8-11.1,43.8-11.1
				S346,28.7,323.5,68.8z"/>
			<path class="st13" d="M418.2,74.5L418.2,74.5c-2.6-13-10.5-28.8-33.7-28.5C384.5,45.9,412.6,53.7,418.2,74.5z"/>
			<path class="st12" d="M127.9,372.7c0,0-9.1-15.1-9.3-20.5s-1.3-17.6,1.6-23c2.7-5,16.2-3.5,16.2-3.5s-6.9,7.8-5.5,15.8
				s5.3,8.1,5.6,13C137.1,363.9,127.9,372.7,127.9,372.7z"/>
			<path class="st21" d="M135.3,361.3c0,0-8.8-7.6-14.4-5.7c-6,2-3.2,13.2,2.5,16.1c6.7,3.5,13.3-1.1,13.3-1.1L135.3,361.3z"/>
			<path class="st21" d="M135.3,370.8L135.3,370.8z"/>
			<path class="st44" d="M262.3,396.1c-0.4-0.6-0.4-1.3-0.1-1.9c3.5-6.5,1.1-14.6-5.4-18.1s-14.6-1.1-18.1,5.4
				c-2.5,4.5-2.1,10.1,1,14.2c0.7,1,0.7,2.3-0.1,3.2c-1.2,1.3-3.8,2.2-9.3-1.5c-0.6-0.4-1.3-0.6-2-0.6l0,0c-1.8,0-3.3,1.3-3.6,3.1
				c-1,6.5-1.1,21.1,17.1,21.1h6.4C265.2,420.9,269.8,406.4,262.3,396.1z"/>
			<path class="st19" d="M239.6,398.9c-0.4,0.5-0.9,0.8-1.5,1c2.2,0.5,3.5-0.1,4.3-1s0.9-2.2,0.1-3.2c-4.4-5.9-3.1-14.3,2.9-18.6
				c1.9-1.4,4.1-2.3,6.5-2.5c-7.3-0.8-13.9,4.5-14.6,11.8c-0.3,3.3,0.5,6.6,2.5,9.3C240.4,396.6,240.4,398,239.6,398.9z"/>
			<path class="st19" d="M227.4,399.9c0.2-1.3,1-2.3,2.2-2.8c-0.4-0.2-0.9-0.3-1.4-0.3l0,0c-1.8,0-3.3,1.3-3.6,3.1
				c-1,6.5-1.1,21.1,17.1,21.1h2.8C226.3,420.9,226.4,406.4,227.4,399.9z"/>
			<path class="st19" d="M230.2,405.7c-0.8,0.8-1,2.1-0.3,3c3.2,5,8.8,8,14.7,7.8c5.2,0,10.7-3.2,11.7-8.6c0.9-4.4-1.8-9.9-6.8-9.6
				c-3.7,0.2-5.9,3.4-9.1,4.9c-2.2,1-4.6,1.7-7.1,1.9C232.2,405.2,231.2,404.8,230.2,405.7z"/>
			<path class="st13" d="M258.2,384.5c-0.3,0-0.6-0.2-0.7-0.5l-0.3-1.4c-0.1-0.4,0.2-0.7,0.6-0.8c0.3-0.1,0.7,0.1,0.8,0.5l0.3,1.4
				c0.1,0.4-0.1,0.8-0.5,0.8H258.2z"/>
			<path class="st19" d="M261.7,380.7c0,0,0.3,4.2-1.6,6s1.3,4.8,5.1,2.1c0.5-0.4,1.1-0.6,1.6-0.8c0.7-0.2,1.2-0.8,1.2-1.5l0,0
				c0-0.7-0.5-1.3-1.1-1.5c-0.5-0.2-1.1-0.2-1.7-0.1c0,0,2.3-2,1.7-4.3c-0.2-0.6-0.7-0.9-1.3-0.8c-0.1,0-0.3,0.1-0.4,0.2
				C264.3,380.6,263,381,261.7,380.7z"/>
			<path class="st45" d="M447.8,373.5l4-17.5l-4-1.4l-8.4,17.6l0,0l-0.6,1.2L447.8,373.5z"/>
			<path class="st44" d="M465.2,347.5c0,0.2-0.1,0.4-0.2,0.5c-2.2,6.3-9.1,9.7-15.4,7.5c-5.7-2-9.1-7.9-7.9-13.8l3.7-1
				c1.4-0.3,2.8,0.2,3.6,1.3l1,1.3c0.8,1.1,2.3,1.6,3.6,1.2l1.6-0.4c1.4-0.4,2.8,0.1,3.6,1.2l1,1.3c0.8,1.1,2.3,1.6,3.6,1.3
				L465.2,347.5z"/>
			<path class="st22" d="M465.2,347.5l-1.8,0.5c-1.4,0.3-2.8-0.2-3.6-1.3l-1-1.3c-0.8-1.1-2.3-1.6-3.6-1.2l-1.6,0.4
				c-1.3,0.4-2.8-0.1-3.6-1.2l-1-1.3c-0.8-1.1-2.3-1.6-3.6-1.3l-3.7,1c0.1-0.5,0.2-1.1,0.4-1.6c2.4-6.2,9.4-9.3,15.7-6.9
				C463.5,335.5,466.7,341.6,465.2,347.5L465.2,347.5z"/>
			<path class="st44" d="M379.2,361c-5.9-2.2-11.5-1.3-12.9,2s1.8,7.7,7.1,10.4h5.6L379.2,361z"/>
			<path class="st19" d="M408.9,353.4l-1.4,20h-30.3c-0.4-4.3,0.3-8.5,2-12.5c0.6-1.5,1.4-2.8,2.4-4.1c0.4-0.6,0.9-1.2,1.4-1.8
				l20.4-4.9c0.7,0.3,1.4,0.6,2,0.9C406.6,351.7,407.8,352.5,408.9,353.4z"/>
			<path class="st46" d="M405.4,351.1c-4.6,8.1-14.8,10.9-22.9,6.3c-0.3-0.2-0.6-0.3-0.9-0.5c0.4-0.6,0.9-1.2,1.4-1.8l20.4-4.9
				C404,350.5,404.7,350.8,405.4,351.1z"/>
			<path class="st19" d="M377.8,335.8c-2.4-3-6.7-3.5-9.7-1.1s-3.5,6.7-1.1,9.7c1.7,2.1,4.4,3.1,7,2.4c0.6-0.1,1.1-0.3,1.6-0.6
				L377.8,335.8z"/>
			<path class="st19" d="M405.9,338.9c0.6,0,1.2,0,1.7-0.2c3.7-0.9,6-4.6,5.1-8.3c-0.9-3.7-4.6-6-8.3-5.1c-2.7,0.6-4.7,2.8-5.2,5.5
				L405.9,338.9z"/>
			<path class="st44" d="M405.9,339.1c-1.8-7.4-10-11.8-18.4-9.8s-13.7,9.7-11.9,17.1s10,11.8,18.4,9.8S407.7,346.5,405.9,339.1z"/>
			<path class="st19" d="M391.2,346.1c-0.8,0-1.5-0.6-1.7-1.3l-0.4-1.7c-0.3-0.9,0.3-1.9,1.2-2.1c0.9-0.3,1.9,0.3,2.1,1.2
				c0,0.1,0,0.1,0,0.2l0.4,1.7c0.2,0.9-0.4,1.9-1.3,2.1C391.4,346.1,391.3,346.1,391.2,346.1L391.2,346.1z"/>
			<path class="st19" d="M386.6,340.6c0,1-0.8,1.7-1.7,1.7s-1.7-0.8-1.7-1.7c0-1,0.8-1.7,1.7-1.7S386.6,339.6,386.6,340.6
				L386.6,340.6z"/>
			<path class="st19" d="M396.7,338.1c0,1-0.8,1.7-1.7,1.7s-1.7-0.8-1.7-1.7c0-1,0.8-1.7,1.7-1.7S396.7,337.2,396.7,338.1
				L396.7,338.1z"/>
			<path d="M420.2,364L420.2,364c-1,0-1.7-0.8-1.7-1.7c0-1,0.8-1.7,1.7-1.7c1,0,1.7,0.8,1.7,1.7C421.9,363.2,421.1,364,420.2,364
				L420.2,364L420.2,364z"/>
			<path class="st44" d="M439,362.8c-8-2.7-14.1-2.4-18.8-0.5c-1.1,0.4-2.3,1-3.3,1.6c-3.6,2.4-6.6,5.6-8.5,9.5h-5.9
				c-0.5-1.7-0.7-3.4-0.7-5.2c0-5.8,2.6-11.3,7.2-14.9c1-0.8,2-1.4,3.1-2c2.7-1.4,5.7-2.1,8.8-2.1h0.5
				C429.5,349.4,436.7,354.9,439,362.8z"/>
			<path class="st45" d="M439.8,368.3c0,1.3-0.1,2.7-0.4,4l0,0c-0.1,0.4-0.2,0.8-0.3,1.2h-30.7c1.9-3.9,4.9-7.2,8.5-9.5
				c1-0.7,2.1-1.2,3.3-1.6c4.7-1.8,10.9-2.1,18.8,0.5C439.5,364.6,439.8,366.4,439.8,368.3z"/>
			<path class="st19" d="M368.9,373.5h93.4c1.9,0,3.5,1.5,3.5,3.5v27.7c0,9.5-7.7,17.3-17.3,17.3l0,0h-65.7
				c-9.5,0-17.3-7.7-17.3-17.3l0,0V377C365.4,375,367,373.5,368.9,373.5z"/>
			<path class="st44" d="M462.3,376.9v27.7c0,9.5-7.7,17.3-17.3,17.3h-58.8c-9.5,0-17.3-7.7-17.3-17.3v-27.7c0-1.9,1.6-3.5,3.5-3.5
				h86.5C460.7,373.5,462.3,375,462.3,376.9z"/>
			<path class="st10" d="M462.3,380.4h3.5v6.9h-3.5V380.4z"/>
			<path class="st10" d="M365.4,380.4h3.5v6.9h-3.5V380.4z"/>
			<path class="st10" d="M368.9,380.4h93.4v6.9h-93.4V380.4z"/>
			<path class="st10" d="M416.4,395.9l2.2,4.8c0.1,0.3,0.4,0.4,0.6,0.5l5,0.8c0.5,0.1,0.8,0.5,0.7,1c0,0.2-0.1,0.4-0.2,0.5l-3.7,3.8
				c-0.2,0.2-0.3,0.5-0.2,0.7l0.9,5.3c0.1,0.5-0.2,0.9-0.7,1c-0.2,0-0.4,0-0.6-0.1l-4.4-2.5c-0.3-0.1-0.6-0.1-0.8,0l-4.4,2.5
				c-0.4,0.2-0.9,0.1-1.2-0.3c-0.1-0.2-0.1-0.4-0.1-0.6l0.9-5.3c0-0.3,0-0.5-0.2-0.7l-3.7-3.8c-0.3-0.3-0.3-0.9,0-1.2
				c0.1-0.1,0.3-0.2,0.5-0.2l5-0.8c0.3,0,0.5-0.2,0.6-0.5l2.2-4.8c0.2-0.4,0.7-0.6,1.1-0.4C416.1,395.5,416.3,395.7,416.4,395.9
				L416.4,395.9z"/>
			<path class="st10" d="M388.7,395.9l2.2,4.8c0.1,0.3,0.4,0.4,0.6,0.5l5,0.8c0.5,0.1,0.8,0.5,0.7,1c0,0.2-0.1,0.4-0.2,0.5l-3.7,3.8
				c-0.2,0.2-0.3,0.5-0.2,0.7l0.9,5.3c0.1,0.5-0.2,0.9-0.7,1c-0.2,0-0.4,0-0.6-0.1l-4.4-2.5c-0.3-0.1-0.6-0.1-0.8,0l-4.5,2.4
				c-0.4,0.2-0.9,0.1-1.2-0.3c-0.1-0.2-0.1-0.4-0.1-0.6l0.9-5.3c0-0.3,0-0.5-0.2-0.7l-3.7-3.8c-0.3-0.3-0.3-0.9,0-1.2
				c0.1-0.1,0.3-0.2,0.5-0.2l5-0.8c0.3,0,0.5-0.2,0.6-0.5l2.2-4.8c0.2-0.4,0.7-0.6,1.1-0.4C388.4,395.5,388.6,395.7,388.7,395.9
				L388.7,395.9z"/>
			<path class="st10" d="M444,395.9l2.2,4.8c0.1,0.3,0.4,0.4,0.6,0.5l5,0.8c0.5,0.1,0.8,0.5,0.7,1c0,0.2-0.1,0.4-0.2,0.5l-3.7,3.8
				c-0.2,0.2-0.3,0.5-0.2,0.7l0.9,5.3c0.1,0.5-0.2,0.9-0.7,1c-0.2,0-0.4,0-0.6-0.1l-4.4-2.5c-0.3-0.1-0.6-0.1-0.8,0l-4.4,2.5
				c-0.4,0.2-0.9,0.1-1.2-0.3c-0.1-0.2-0.1-0.4-0.1-0.6l0.9-5.3c0-0.3,0-0.5-0.2-0.7l-3.7-3.8c-0.3-0.3-0.3-0.9,0-1.2
				c0.1-0.1,0.3-0.2,0.5-0.2l5-0.8c0.3,0,0.5-0.2,0.6-0.5l2.2-4.8c0.2-0.4,0.7-0.6,1.2-0.4C443.7,395.6,443.9,395.7,444,395.9
				L444,395.9z"/>
			<path class="st22" d="M334.1,399.4h-22.4v-12.6h20.6c1,0,1.8,0.8,1.8,1.8V399.4L334.1,399.4z"/>
			<path class="st10" d="M335.5,399.4h-46.3c-1.7,0-3,1.3-3,3v7c0,1.7,1.3,3,3,3h52.3c1.5,0,2.8-1.2,2.8-2.8c0-0.6-0.2-1.2-0.6-1.7
				l-5.4-7.2C337.6,399.9,336.6,399.3,335.5,399.4z"/>
			<path class="st47" d="M290.8,409.4v-7c0-1.7,1.3-3,3-3h-4.6c-1.7,0-3,1.3-3,3v7c0,1.7,1.3,3,3,3h4.6
				C292.1,412.4,290.8,411,290.8,409.4z"/>
			<circle class="st22" cx="300.5" cy="412.4" r="9.1"/>
			<circle class="st19" cx="300.5" cy="412.4" r="4"/>
			<circle class="st22" cx="327.1" cy="412.4" r="9.1"/>
			<circle class="st19" cx="327.1" cy="412.4" r="4"/>
			<rect x="290.8" y="378.8" class="st45" width="20.9" height="20.5"/>
			<rect x="290.8" y="378.8" class="st47" width="20.9" height="3.5"/>
			<path class="st10" d="M313.1,371.3h-23.7c-1.2,0-2.2,1-2.2,2.2l0,0v3.1c0,1.2,1,2.2,2.2,2.2l0,0h23.7c1.2,0,2.2-1,2.2-2.2l0,0
				v-3.1C315.3,372.3,314.3,371.3,313.1,371.3L313.1,371.3z"/>
			<path class="st47" d="M291.1,376.6v-3.1c0-1.2,1-2.2,2.2-2.2l0,0h-3.9c-1.2,0-2.2,1-2.2,2.2l0,0v3.1c0,1.2,1,2.2,2.2,2.2l0,0h3.9
				C292.1,378.8,291.1,377.8,291.1,376.6z"/>
			<rect x="322.3" y="379.1" class="st45" width="8.5" height="7.6"/>
			<rect x="322.3" y="379.1" class="st47" width="8.5" height="2.6"/>
			<path class="st10" d="M331.6,379.1h-10c-0.8,0-1.4-0.6-1.4-1.4v-2.6c0-0.8,0.6-1.4,1.4-1.4h10c0.8,0,1.4,0.6,1.4,1.4v2.6
				C333,378.4,332.3,379.1,331.6,379.1z"/>
			<path class="st47" d="M322.9,377.7v-2.6c0-0.8,0.6-1.4,1.4-1.4h-2.8c-0.8,0-1.4,0.6-1.4,1.4v2.6c0,0.8,0.6,1.4,1.4,1.4h2.8
				C323.5,379.1,322.9,378.4,322.9,377.7z"/>
			<circle class="st16" cx="301.2" cy="388.4" r="5"/>
			<rect x="311.7" y="386.7" class="st47" width="3.8" height="12.6"/>
		</g>
	</g>
</g>
</svg>
